G04 #@! TF.GenerationSoftware,KiCad,Pcbnew,(5.0.1)-3*
G04 #@! TF.CreationDate,2022-06-15T15:11:29+08:00*
G04 #@! TF.ProjectId,Micromouse_V01,4D6963726F6D6F7573655F5630312E6B,rev?*
G04 #@! TF.SameCoordinates,Original*
G04 #@! TF.FileFunction,Copper,L1,Top,Signal*
G04 #@! TF.FilePolarity,Positive*
%FSLAX46Y46*%
G04 Gerber Fmt 4.6, Leading zero omitted, Abs format (unit mm)*
G04 Created by KiCad (PCBNEW (5.0.1)-3) date 15-Jun-22 3:11:29 PM*
%MOMM*%
%LPD*%
G01*
G04 APERTURE LIST*
G04 #@! TA.AperFunction,ComponentPad*
%ADD10C,1.800000*%
G04 #@! TD*
G04 #@! TA.AperFunction,ComponentPad*
%ADD11R,1.800000X1.800000*%
G04 #@! TD*
G04 #@! TA.AperFunction,WasherPad*
%ADD12C,3.000000*%
G04 #@! TD*
G04 #@! TA.AperFunction,ComponentPad*
%ADD13O,1.700000X1.700000*%
G04 #@! TD*
G04 #@! TA.AperFunction,ComponentPad*
%ADD14R,1.700000X1.700000*%
G04 #@! TD*
G04 #@! TA.AperFunction,SMDPad,CuDef*
%ADD15R,3.000000X1.250000*%
G04 #@! TD*
G04 #@! TA.AperFunction,Conductor*
%ADD16C,0.100000*%
G04 #@! TD*
G04 #@! TA.AperFunction,WasherPad*
%ADD17C,3.500000*%
G04 #@! TD*
G04 #@! TA.AperFunction,ComponentPad*
%ADD18R,1.350000X1.350000*%
G04 #@! TD*
G04 #@! TA.AperFunction,ComponentPad*
%ADD19O,1.350000X1.350000*%
G04 #@! TD*
G04 #@! TA.AperFunction,SMDPad,CuDef*
%ADD20C,0.875000*%
G04 #@! TD*
G04 #@! TA.AperFunction,SMDPad,CuDef*
%ADD21R,2.000000X1.500000*%
G04 #@! TD*
G04 #@! TA.AperFunction,SMDPad,CuDef*
%ADD22R,2.000000X3.800000*%
G04 #@! TD*
G04 #@! TA.AperFunction,SMDPad,CuDef*
%ADD23C,1.150000*%
G04 #@! TD*
G04 #@! TA.AperFunction,ComponentPad*
%ADD24O,1.800000X1.800000*%
G04 #@! TD*
G04 #@! TA.AperFunction,SMDPad,CuDef*
%ADD25R,1.500000X1.500000*%
G04 #@! TD*
G04 #@! TA.AperFunction,ViaPad*
%ADD26C,0.800000*%
G04 #@! TD*
G04 #@! TA.AperFunction,Conductor*
%ADD27C,0.500000*%
G04 #@! TD*
G04 #@! TA.AperFunction,Conductor*
%ADD28C,0.200000*%
G04 #@! TD*
G04 #@! TA.AperFunction,Conductor*
%ADD29C,0.300000*%
G04 #@! TD*
G04 #@! TA.AperFunction,Conductor*
%ADD30C,0.400000*%
G04 #@! TD*
G04 #@! TA.AperFunction,Conductor*
%ADD31C,1.000000*%
G04 #@! TD*
G04 #@! TA.AperFunction,Conductor*
%ADD32C,0.254000*%
G04 #@! TD*
G04 APERTURE END LIST*
D10*
G04 #@! TO.P,U11,3*
G04 #@! TO.N,N/C*
X114700000Y-99045000D03*
G04 #@! TO.P,U11,4*
G04 #@! TO.N,36*
X114700000Y-96505000D03*
G04 #@! TO.P,U11,5*
G04 #@! TO.N,39*
X114700000Y-93965000D03*
G04 #@! TO.P,U11,6*
G04 #@! TO.N,34*
X114700000Y-91425000D03*
G04 #@! TO.P,U11,7*
G04 #@! TO.N,35*
X114700000Y-88885000D03*
G04 #@! TO.P,U11,8*
G04 #@! TO.N,32*
X114700000Y-86345000D03*
G04 #@! TO.P,U11,9*
G04 #@! TO.N,33*
X114700000Y-83805000D03*
G04 #@! TO.P,U11,10*
G04 #@! TO.N,25*
X114700000Y-81265000D03*
G04 #@! TO.P,U11,11*
G04 #@! TO.N,26*
X114700000Y-78725000D03*
G04 #@! TO.P,U11,12*
G04 #@! TO.N,27*
X114700000Y-76185000D03*
G04 #@! TO.P,U11,13*
G04 #@! TO.N,14*
X114700000Y-73645000D03*
G04 #@! TO.P,U11,14*
G04 #@! TO.N,12*
X114700000Y-71105000D03*
G04 #@! TO.P,U11,16*
G04 #@! TO.N,13*
X114700000Y-68565000D03*
G04 #@! TO.P,U11,15*
G04 #@! TO.N,GND*
X114700000Y-66025000D03*
G04 #@! TO.P,U11,32*
G04 #@! TO.N,VCC*
X114700000Y-63485000D03*
G04 #@! TO.P,U11,37*
G04 #@! TO.N,23*
X89300000Y-99045000D03*
G04 #@! TO.P,U11,36*
G04 #@! TO.N,22_SCL1*
X89300000Y-96505000D03*
G04 #@! TO.P,U11,35*
G04 #@! TO.N,1*
X89300000Y-93965000D03*
G04 #@! TO.P,U11,34*
G04 #@! TO.N,3*
X89300000Y-91425000D03*
G04 #@! TO.P,U11,33*
G04 #@! TO.N,21_SDA1*
X89300000Y-88885000D03*
G04 #@! TO.P,U11,31*
G04 #@! TO.N,19_SCL2*
X89300000Y-86345000D03*
G04 #@! TO.P,U11,30*
G04 #@! TO.N,18_SDA2*
X89300000Y-83805000D03*
G04 #@! TO.P,U11,29*
G04 #@! TO.N,5*
X89300000Y-81265000D03*
G04 #@! TO.P,U11,28*
G04 #@! TO.N,17*
X89300000Y-78725000D03*
G04 #@! TO.P,U11,27*
G04 #@! TO.N,16*
X89300000Y-76185000D03*
G04 #@! TO.P,U11,26*
G04 #@! TO.N,4*
X89300000Y-73645000D03*
G04 #@! TO.P,U11,24*
G04 #@! TO.N,2*
X89300000Y-71105000D03*
G04 #@! TO.P,U11,23*
G04 #@! TO.N,15*
X89300000Y-68565000D03*
G04 #@! TO.P,U11,15*
G04 #@! TO.N,GND*
X89300000Y-66025000D03*
D11*
G04 #@! TO.P,U11,2*
G04 #@! TO.N,N/C*
X89300000Y-63485000D03*
G04 #@! TD*
D12*
G04 #@! TO.P,J3,*
G04 #@! TO.N,*
X90300000Y-107500000D03*
X90300000Y-131500000D03*
X113700000Y-131500000D03*
X113700000Y-107500000D03*
D13*
G04 #@! TO.P,J3,1*
G04 #@! TO.N,+3V3*
X98190000Y-107069000D03*
G04 #@! TO.P,J3,2*
G04 #@! TO.N,GND*
X100730000Y-107069000D03*
G04 #@! TO.P,J3,3*
G04 #@! TO.N,22_SCL1*
X103270000Y-107069000D03*
D14*
G04 #@! TO.P,J3,4*
G04 #@! TO.N,21_SDA1*
X105810000Y-107069000D03*
G04 #@! TD*
D15*
G04 #@! TO.P,BZ1,1*
G04 #@! TO.N,Net-(BZ1-Pad1)*
X100000000Y-61500000D03*
G04 #@! TO.P,BZ1,2*
G04 #@! TO.N,GND*
X104000000Y-61500000D03*
G04 #@! TO.P,BZ1,3*
G04 #@! TO.N,N/C*
X100000000Y-57500000D03*
G04 #@! TD*
D10*
G04 #@! TO.P,S1,4*
G04 #@! TO.N,+3V3*
X80543712Y-62868815D03*
G04 #@! TO.P,S1,3*
G04 #@! TO.N,36*
X83098952Y-62645260D03*
D16*
G04 #@! TD*
G04 #@! TO.N,36*
G04 #@! TO.C,S1*
G36*
X83917087Y-61670245D02*
X84073967Y-63463395D01*
X82280817Y-63620275D01*
X82123937Y-61827125D01*
X83917087Y-61670245D01*
X83917087Y-61670245D01*
G37*
D10*
G04 #@! TO.P,S1,2*
G04 #@! TO.N,Net-(D4-Pad2)*
X80737635Y-65085347D03*
G04 #@! TO.P,S1,1*
G04 #@! TO.N,GND*
X83267968Y-64863972D03*
D16*
G04 #@! TD*
G04 #@! TO.N,GND*
G04 #@! TO.C,S1*
G36*
X84086103Y-63888957D02*
X84242983Y-65682107D01*
X82449833Y-65838987D01*
X82292953Y-64045837D01*
X84086103Y-63888957D01*
X84086103Y-63888957D01*
G37*
D10*
G04 #@! TO.P,S2,4*
G04 #@! TO.N,+3V3*
X91463274Y-59522776D03*
G04 #@! TO.P,S2,3*
G04 #@! TO.N,39*
X93112023Y-57557871D03*
D16*
G04 #@! TD*
G04 #@! TO.N,39*
G04 #@! TO.C,S2*
G36*
X93001092Y-56289922D02*
X94379972Y-57446940D01*
X93222954Y-58825820D01*
X91844074Y-57668802D01*
X93001092Y-56289922D01*
X93001092Y-56289922D01*
G37*
D10*
G04 #@! TO.P,S2,2*
G04 #@! TO.N,Net-(D5-Pad2)*
X93167723Y-60952977D03*
G04 #@! TO.P,S2,1*
G04 #@! TO.N,GND*
X94800402Y-59007224D03*
D16*
G04 #@! TD*
G04 #@! TO.N,GND*
G04 #@! TO.C,S2*
G36*
X94689471Y-57739275D02*
X96068351Y-58896293D01*
X94911333Y-60275173D01*
X93532453Y-59118155D01*
X94689471Y-57739275D01*
X94689471Y-57739275D01*
G37*
D10*
G04 #@! TO.P,S5,4*
G04 #@! TO.N,+3V3*
X96648311Y-49064087D03*
G04 #@! TO.P,S5,3*
G04 #@! TO.N,32*
X96871864Y-46508847D03*
D16*
G04 #@! TD*
G04 #@! TO.N,32*
G04 #@! TO.C,S5*
G36*
X96053729Y-45533832D02*
X97846879Y-45690712D01*
X97689999Y-47483862D01*
X95896849Y-47326982D01*
X96053729Y-45533832D01*
X96053729Y-45533832D01*
G37*
D10*
G04 #@! TO.P,S5,2*
G04 #@! TO.N,Net-(D6-Pad2)*
X98864843Y-49258007D03*
G04 #@! TO.P,S5,1*
G04 #@! TO.N,GND*
X99086219Y-46727674D03*
D16*
G04 #@! TD*
G04 #@! TO.N,GND*
G04 #@! TO.C,S5*
G36*
X98268084Y-45752659D02*
X100061234Y-45909539D01*
X99904354Y-47702689D01*
X98111204Y-47545809D01*
X98268084Y-45752659D01*
X98268084Y-45752659D01*
G37*
D10*
G04 #@! TO.P,S6,4*
G04 #@! TO.N,+3V3*
X107131185Y-46543712D03*
G04 #@! TO.P,S6,3*
G04 #@! TO.N,33*
X107354740Y-49098952D03*
D16*
G04 #@! TD*
G04 #@! TO.N,33*
G04 #@! TO.C,S6*
G36*
X108329755Y-49917087D02*
X106536605Y-50073967D01*
X106379725Y-48280817D01*
X108172875Y-48123937D01*
X108329755Y-49917087D01*
X108329755Y-49917087D01*
G37*
D10*
G04 #@! TO.P,S6,2*
G04 #@! TO.N,Net-(R11-Pad2)*
X104914653Y-46737635D03*
G04 #@! TO.P,S6,1*
G04 #@! TO.N,GND*
X105136028Y-49267968D03*
D16*
G04 #@! TD*
G04 #@! TO.N,GND*
G04 #@! TO.C,S6*
G36*
X106111043Y-50086103D02*
X104317893Y-50242983D01*
X104161013Y-48449833D01*
X105954163Y-48292953D01*
X106111043Y-50086103D01*
X106111043Y-50086103D01*
G37*
D10*
G04 #@! TO.P,S4,4*
G04 #@! TO.N,+3V3*
X120935913Y-62648311D03*
G04 #@! TO.P,S4,3*
G04 #@! TO.N,35*
X123491153Y-62871864D03*
D16*
G04 #@! TD*
G04 #@! TO.N,35*
G04 #@! TO.C,S4*
G36*
X124466168Y-62053729D02*
X124309288Y-63846879D01*
X122516138Y-63689999D01*
X122673018Y-61896849D01*
X124466168Y-62053729D01*
X124466168Y-62053729D01*
G37*
D10*
G04 #@! TO.P,S4,2*
G04 #@! TO.N,Net-(D8-Pad2)*
X120741993Y-64864843D03*
G04 #@! TO.P,S4,1*
G04 #@! TO.N,GND*
X123272326Y-65086219D03*
D16*
G04 #@! TD*
G04 #@! TO.N,GND*
G04 #@! TO.C,S4*
G36*
X124247341Y-64268084D02*
X124090461Y-66061234D01*
X122297311Y-65904354D01*
X122454191Y-64111204D01*
X124247341Y-64268084D01*
X124247341Y-64268084D01*
G37*
D10*
G04 #@! TO.P,S3,4*
G04 #@! TO.N,+3V3*
X110910472Y-57584682D03*
G04 #@! TO.P,S3,3*
G04 #@! TO.N,34*
X112559223Y-59549585D03*
D16*
G04 #@! TD*
G04 #@! TO.N,34*
G04 #@! TO.C,S3*
G36*
X113827172Y-59660516D02*
X112448292Y-60817534D01*
X111291274Y-59438654D01*
X112670154Y-58281636D01*
X113827172Y-59660516D01*
X113827172Y-59660516D01*
G37*
D10*
G04 #@! TO.P,S3,2*
G04 #@! TO.N,Net-(D7-Pad2)*
X109206025Y-59014884D03*
G04 #@! TO.P,S3,1*
G04 #@! TO.N,GND*
X110838705Y-60960636D03*
D16*
G04 #@! TD*
G04 #@! TO.N,GND*
G04 #@! TO.C,S3*
G36*
X112106654Y-61071567D02*
X110727774Y-62228585D01*
X109570756Y-60849705D01*
X110949636Y-59692687D01*
X112106654Y-61071567D01*
X112106654Y-61071567D01*
G37*
D14*
G04 #@! TO.P,U13,13*
G04 #@! TO.N,+3V3*
X93101600Y-97466600D03*
D13*
G04 #@! TO.P,U13,18*
G04 #@! TO.N,GND*
X95641600Y-97466600D03*
G04 #@! TO.P,U13,23*
G04 #@! TO.N,22_SCL1*
X98181600Y-97466600D03*
G04 #@! TO.P,U13,24*
G04 #@! TO.N,21_SDA1*
X100721600Y-97466600D03*
G04 #@! TO.P,U13,7*
G04 #@! TO.N,N/C*
X103261600Y-97466600D03*
G04 #@! TO.P,U13,6*
X105801600Y-97466600D03*
G04 #@! TO.P,U13,9*
X108341600Y-97466600D03*
G04 #@! TO.P,U13,12*
G04 #@! TO.N,23*
X110881600Y-97466600D03*
D17*
G04 #@! TO.P,U13,*
G04 #@! TO.N,*
X109620000Y-85920000D03*
X94380000Y-85920000D03*
G04 #@! TD*
D18*
G04 #@! TO.P,J6,1*
G04 #@! TO.N,GND*
X128000000Y-64000000D03*
D19*
G04 #@! TO.P,J6,2*
G04 #@! TO.N,+3V3*
X130000000Y-64000000D03*
G04 #@! TO.P,J6,3*
G04 #@! TO.N,18_SDA2*
X132000000Y-64000000D03*
G04 #@! TO.P,J6,4*
G04 #@! TO.N,19_SCL2*
X134000000Y-64000000D03*
G04 #@! TD*
D18*
G04 #@! TO.P,J5,1*
G04 #@! TO.N,GND*
X70000000Y-64000000D03*
D19*
G04 #@! TO.P,J5,2*
G04 #@! TO.N,+3V3*
X72000000Y-64000000D03*
G04 #@! TO.P,J5,3*
G04 #@! TO.N,21_SDA1*
X74000000Y-64000000D03*
G04 #@! TO.P,J5,4*
G04 #@! TO.N,22_SCL1*
X76000000Y-64000000D03*
G04 #@! TD*
D16*
G04 #@! TO.N,+3V3*
G04 #@! TO.C,C1*
G36*
X98277691Y-71505742D02*
X98298926Y-71508892D01*
X98319750Y-71514108D01*
X98339962Y-71521340D01*
X98359368Y-71530519D01*
X98377781Y-71541555D01*
X98395024Y-71554343D01*
X98410930Y-71568759D01*
X98425346Y-71584665D01*
X98438134Y-71601908D01*
X98449170Y-71620321D01*
X98458349Y-71639727D01*
X98465581Y-71659939D01*
X98470797Y-71680763D01*
X98473947Y-71701998D01*
X98475000Y-71723439D01*
X98475000Y-72160939D01*
X98473947Y-72182380D01*
X98470797Y-72203615D01*
X98465581Y-72224439D01*
X98458349Y-72244651D01*
X98449170Y-72264057D01*
X98438134Y-72282470D01*
X98425346Y-72299713D01*
X98410930Y-72315619D01*
X98395024Y-72330035D01*
X98377781Y-72342823D01*
X98359368Y-72353859D01*
X98339962Y-72363038D01*
X98319750Y-72370270D01*
X98298926Y-72375486D01*
X98277691Y-72378636D01*
X98256250Y-72379689D01*
X97743750Y-72379689D01*
X97722309Y-72378636D01*
X97701074Y-72375486D01*
X97680250Y-72370270D01*
X97660038Y-72363038D01*
X97640632Y-72353859D01*
X97622219Y-72342823D01*
X97604976Y-72330035D01*
X97589070Y-72315619D01*
X97574654Y-72299713D01*
X97561866Y-72282470D01*
X97550830Y-72264057D01*
X97541651Y-72244651D01*
X97534419Y-72224439D01*
X97529203Y-72203615D01*
X97526053Y-72182380D01*
X97525000Y-72160939D01*
X97525000Y-71723439D01*
X97526053Y-71701998D01*
X97529203Y-71680763D01*
X97534419Y-71659939D01*
X97541651Y-71639727D01*
X97550830Y-71620321D01*
X97561866Y-71601908D01*
X97574654Y-71584665D01*
X97589070Y-71568759D01*
X97604976Y-71554343D01*
X97622219Y-71541555D01*
X97640632Y-71530519D01*
X97660038Y-71521340D01*
X97680250Y-71514108D01*
X97701074Y-71508892D01*
X97722309Y-71505742D01*
X97743750Y-71504689D01*
X98256250Y-71504689D01*
X98277691Y-71505742D01*
X98277691Y-71505742D01*
G37*
D20*
G04 #@! TD*
G04 #@! TO.P,C1,1*
G04 #@! TO.N,+3V3*
X98000000Y-71942189D03*
D16*
G04 #@! TO.N,GND*
G04 #@! TO.C,C1*
G36*
X98277691Y-73080742D02*
X98298926Y-73083892D01*
X98319750Y-73089108D01*
X98339962Y-73096340D01*
X98359368Y-73105519D01*
X98377781Y-73116555D01*
X98395024Y-73129343D01*
X98410930Y-73143759D01*
X98425346Y-73159665D01*
X98438134Y-73176908D01*
X98449170Y-73195321D01*
X98458349Y-73214727D01*
X98465581Y-73234939D01*
X98470797Y-73255763D01*
X98473947Y-73276998D01*
X98475000Y-73298439D01*
X98475000Y-73735939D01*
X98473947Y-73757380D01*
X98470797Y-73778615D01*
X98465581Y-73799439D01*
X98458349Y-73819651D01*
X98449170Y-73839057D01*
X98438134Y-73857470D01*
X98425346Y-73874713D01*
X98410930Y-73890619D01*
X98395024Y-73905035D01*
X98377781Y-73917823D01*
X98359368Y-73928859D01*
X98339962Y-73938038D01*
X98319750Y-73945270D01*
X98298926Y-73950486D01*
X98277691Y-73953636D01*
X98256250Y-73954689D01*
X97743750Y-73954689D01*
X97722309Y-73953636D01*
X97701074Y-73950486D01*
X97680250Y-73945270D01*
X97660038Y-73938038D01*
X97640632Y-73928859D01*
X97622219Y-73917823D01*
X97604976Y-73905035D01*
X97589070Y-73890619D01*
X97574654Y-73874713D01*
X97561866Y-73857470D01*
X97550830Y-73839057D01*
X97541651Y-73819651D01*
X97534419Y-73799439D01*
X97529203Y-73778615D01*
X97526053Y-73757380D01*
X97525000Y-73735939D01*
X97525000Y-73298439D01*
X97526053Y-73276998D01*
X97529203Y-73255763D01*
X97534419Y-73234939D01*
X97541651Y-73214727D01*
X97550830Y-73195321D01*
X97561866Y-73176908D01*
X97574654Y-73159665D01*
X97589070Y-73143759D01*
X97604976Y-73129343D01*
X97622219Y-73116555D01*
X97640632Y-73105519D01*
X97660038Y-73096340D01*
X97680250Y-73089108D01*
X97701074Y-73083892D01*
X97722309Y-73080742D01*
X97743750Y-73079689D01*
X98256250Y-73079689D01*
X98277691Y-73080742D01*
X98277691Y-73080742D01*
G37*
D20*
G04 #@! TD*
G04 #@! TO.P,C1,2*
G04 #@! TO.N,GND*
X98000000Y-73517189D03*
D16*
G04 #@! TO.N,GND*
G04 #@! TO.C,C2*
G36*
X99758359Y-73080742D02*
X99779594Y-73083892D01*
X99800418Y-73089108D01*
X99820630Y-73096340D01*
X99840036Y-73105519D01*
X99858449Y-73116555D01*
X99875692Y-73129343D01*
X99891598Y-73143759D01*
X99906014Y-73159665D01*
X99918802Y-73176908D01*
X99929838Y-73195321D01*
X99939017Y-73214727D01*
X99946249Y-73234939D01*
X99951465Y-73255763D01*
X99954615Y-73276998D01*
X99955668Y-73298439D01*
X99955668Y-73735939D01*
X99954615Y-73757380D01*
X99951465Y-73778615D01*
X99946249Y-73799439D01*
X99939017Y-73819651D01*
X99929838Y-73839057D01*
X99918802Y-73857470D01*
X99906014Y-73874713D01*
X99891598Y-73890619D01*
X99875692Y-73905035D01*
X99858449Y-73917823D01*
X99840036Y-73928859D01*
X99820630Y-73938038D01*
X99800418Y-73945270D01*
X99779594Y-73950486D01*
X99758359Y-73953636D01*
X99736918Y-73954689D01*
X99224418Y-73954689D01*
X99202977Y-73953636D01*
X99181742Y-73950486D01*
X99160918Y-73945270D01*
X99140706Y-73938038D01*
X99121300Y-73928859D01*
X99102887Y-73917823D01*
X99085644Y-73905035D01*
X99069738Y-73890619D01*
X99055322Y-73874713D01*
X99042534Y-73857470D01*
X99031498Y-73839057D01*
X99022319Y-73819651D01*
X99015087Y-73799439D01*
X99009871Y-73778615D01*
X99006721Y-73757380D01*
X99005668Y-73735939D01*
X99005668Y-73298439D01*
X99006721Y-73276998D01*
X99009871Y-73255763D01*
X99015087Y-73234939D01*
X99022319Y-73214727D01*
X99031498Y-73195321D01*
X99042534Y-73176908D01*
X99055322Y-73159665D01*
X99069738Y-73143759D01*
X99085644Y-73129343D01*
X99102887Y-73116555D01*
X99121300Y-73105519D01*
X99140706Y-73096340D01*
X99160918Y-73089108D01*
X99181742Y-73083892D01*
X99202977Y-73080742D01*
X99224418Y-73079689D01*
X99736918Y-73079689D01*
X99758359Y-73080742D01*
X99758359Y-73080742D01*
G37*
D20*
G04 #@! TD*
G04 #@! TO.P,C2,2*
G04 #@! TO.N,GND*
X99480668Y-73517189D03*
D16*
G04 #@! TO.N,+3V3*
G04 #@! TO.C,C2*
G36*
X99758359Y-71505742D02*
X99779594Y-71508892D01*
X99800418Y-71514108D01*
X99820630Y-71521340D01*
X99840036Y-71530519D01*
X99858449Y-71541555D01*
X99875692Y-71554343D01*
X99891598Y-71568759D01*
X99906014Y-71584665D01*
X99918802Y-71601908D01*
X99929838Y-71620321D01*
X99939017Y-71639727D01*
X99946249Y-71659939D01*
X99951465Y-71680763D01*
X99954615Y-71701998D01*
X99955668Y-71723439D01*
X99955668Y-72160939D01*
X99954615Y-72182380D01*
X99951465Y-72203615D01*
X99946249Y-72224439D01*
X99939017Y-72244651D01*
X99929838Y-72264057D01*
X99918802Y-72282470D01*
X99906014Y-72299713D01*
X99891598Y-72315619D01*
X99875692Y-72330035D01*
X99858449Y-72342823D01*
X99840036Y-72353859D01*
X99820630Y-72363038D01*
X99800418Y-72370270D01*
X99779594Y-72375486D01*
X99758359Y-72378636D01*
X99736918Y-72379689D01*
X99224418Y-72379689D01*
X99202977Y-72378636D01*
X99181742Y-72375486D01*
X99160918Y-72370270D01*
X99140706Y-72363038D01*
X99121300Y-72353859D01*
X99102887Y-72342823D01*
X99085644Y-72330035D01*
X99069738Y-72315619D01*
X99055322Y-72299713D01*
X99042534Y-72282470D01*
X99031498Y-72264057D01*
X99022319Y-72244651D01*
X99015087Y-72224439D01*
X99009871Y-72203615D01*
X99006721Y-72182380D01*
X99005668Y-72160939D01*
X99005668Y-71723439D01*
X99006721Y-71701998D01*
X99009871Y-71680763D01*
X99015087Y-71659939D01*
X99022319Y-71639727D01*
X99031498Y-71620321D01*
X99042534Y-71601908D01*
X99055322Y-71584665D01*
X99069738Y-71568759D01*
X99085644Y-71554343D01*
X99102887Y-71541555D01*
X99121300Y-71530519D01*
X99140706Y-71521340D01*
X99160918Y-71514108D01*
X99181742Y-71508892D01*
X99202977Y-71505742D01*
X99224418Y-71504689D01*
X99736918Y-71504689D01*
X99758359Y-71505742D01*
X99758359Y-71505742D01*
G37*
D20*
G04 #@! TD*
G04 #@! TO.P,C2,1*
G04 #@! TO.N,+3V3*
X99480668Y-71942189D03*
D21*
G04 #@! TO.P,U1,1*
G04 #@! TO.N,GND*
X107880668Y-75029689D03*
G04 #@! TO.P,U1,3*
G04 #@! TO.N,VCC*
X107880668Y-70429689D03*
G04 #@! TO.P,U1,2*
G04 #@! TO.N,+3V3*
X107880668Y-72729689D03*
D22*
X101580668Y-72729689D03*
G04 #@! TD*
D14*
G04 #@! TO.P,J1,1*
G04 #@! TO.N,+BATT*
X120000000Y-102250000D03*
D13*
G04 #@! TO.P,J1,2*
G04 #@! TO.N,GND*
X120000000Y-99710000D03*
G04 #@! TD*
D16*
G04 #@! TO.N,GND*
G04 #@! TO.C,D1*
G36*
X72324505Y-59301204D02*
X72348773Y-59304804D01*
X72372572Y-59310765D01*
X72395671Y-59319030D01*
X72417850Y-59329520D01*
X72438893Y-59342132D01*
X72458599Y-59356747D01*
X72476777Y-59373223D01*
X72493253Y-59391401D01*
X72507868Y-59411107D01*
X72520480Y-59432150D01*
X72530970Y-59454329D01*
X72539235Y-59477428D01*
X72545196Y-59501227D01*
X72548796Y-59525495D01*
X72550000Y-59549999D01*
X72550000Y-60450001D01*
X72548796Y-60474505D01*
X72545196Y-60498773D01*
X72539235Y-60522572D01*
X72530970Y-60545671D01*
X72520480Y-60567850D01*
X72507868Y-60588893D01*
X72493253Y-60608599D01*
X72476777Y-60626777D01*
X72458599Y-60643253D01*
X72438893Y-60657868D01*
X72417850Y-60670480D01*
X72395671Y-60680970D01*
X72372572Y-60689235D01*
X72348773Y-60695196D01*
X72324505Y-60698796D01*
X72300001Y-60700000D01*
X71649999Y-60700000D01*
X71625495Y-60698796D01*
X71601227Y-60695196D01*
X71577428Y-60689235D01*
X71554329Y-60680970D01*
X71532150Y-60670480D01*
X71511107Y-60657868D01*
X71491401Y-60643253D01*
X71473223Y-60626777D01*
X71456747Y-60608599D01*
X71442132Y-60588893D01*
X71429520Y-60567850D01*
X71419030Y-60545671D01*
X71410765Y-60522572D01*
X71404804Y-60498773D01*
X71401204Y-60474505D01*
X71400000Y-60450001D01*
X71400000Y-59549999D01*
X71401204Y-59525495D01*
X71404804Y-59501227D01*
X71410765Y-59477428D01*
X71419030Y-59454329D01*
X71429520Y-59432150D01*
X71442132Y-59411107D01*
X71456747Y-59391401D01*
X71473223Y-59373223D01*
X71491401Y-59356747D01*
X71511107Y-59342132D01*
X71532150Y-59329520D01*
X71554329Y-59319030D01*
X71577428Y-59310765D01*
X71601227Y-59304804D01*
X71625495Y-59301204D01*
X71649999Y-59300000D01*
X72300001Y-59300000D01*
X72324505Y-59301204D01*
X72324505Y-59301204D01*
G37*
D23*
G04 #@! TD*
G04 #@! TO.P,D1,1*
G04 #@! TO.N,GND*
X71975000Y-60000000D03*
D16*
G04 #@! TO.N,Net-(D1-Pad2)*
G04 #@! TO.C,D1*
G36*
X74374505Y-59301204D02*
X74398773Y-59304804D01*
X74422572Y-59310765D01*
X74445671Y-59319030D01*
X74467850Y-59329520D01*
X74488893Y-59342132D01*
X74508599Y-59356747D01*
X74526777Y-59373223D01*
X74543253Y-59391401D01*
X74557868Y-59411107D01*
X74570480Y-59432150D01*
X74580970Y-59454329D01*
X74589235Y-59477428D01*
X74595196Y-59501227D01*
X74598796Y-59525495D01*
X74600000Y-59549999D01*
X74600000Y-60450001D01*
X74598796Y-60474505D01*
X74595196Y-60498773D01*
X74589235Y-60522572D01*
X74580970Y-60545671D01*
X74570480Y-60567850D01*
X74557868Y-60588893D01*
X74543253Y-60608599D01*
X74526777Y-60626777D01*
X74508599Y-60643253D01*
X74488893Y-60657868D01*
X74467850Y-60670480D01*
X74445671Y-60680970D01*
X74422572Y-60689235D01*
X74398773Y-60695196D01*
X74374505Y-60698796D01*
X74350001Y-60700000D01*
X73699999Y-60700000D01*
X73675495Y-60698796D01*
X73651227Y-60695196D01*
X73627428Y-60689235D01*
X73604329Y-60680970D01*
X73582150Y-60670480D01*
X73561107Y-60657868D01*
X73541401Y-60643253D01*
X73523223Y-60626777D01*
X73506747Y-60608599D01*
X73492132Y-60588893D01*
X73479520Y-60567850D01*
X73469030Y-60545671D01*
X73460765Y-60522572D01*
X73454804Y-60498773D01*
X73451204Y-60474505D01*
X73450000Y-60450001D01*
X73450000Y-59549999D01*
X73451204Y-59525495D01*
X73454804Y-59501227D01*
X73460765Y-59477428D01*
X73469030Y-59454329D01*
X73479520Y-59432150D01*
X73492132Y-59411107D01*
X73506747Y-59391401D01*
X73523223Y-59373223D01*
X73541401Y-59356747D01*
X73561107Y-59342132D01*
X73582150Y-59329520D01*
X73604329Y-59319030D01*
X73627428Y-59310765D01*
X73651227Y-59304804D01*
X73675495Y-59301204D01*
X73699999Y-59300000D01*
X74350001Y-59300000D01*
X74374505Y-59301204D01*
X74374505Y-59301204D01*
G37*
D23*
G04 #@! TD*
G04 #@! TO.P,D1,2*
G04 #@! TO.N,Net-(D1-Pad2)*
X74025000Y-60000000D03*
D16*
G04 #@! TO.N,GND*
G04 #@! TO.C,D2*
G36*
X102474505Y-46401204D02*
X102498773Y-46404804D01*
X102522572Y-46410765D01*
X102545671Y-46419030D01*
X102567850Y-46429520D01*
X102588893Y-46442132D01*
X102608599Y-46456747D01*
X102626777Y-46473223D01*
X102643253Y-46491401D01*
X102657868Y-46511107D01*
X102670480Y-46532150D01*
X102680970Y-46554329D01*
X102689235Y-46577428D01*
X102695196Y-46601227D01*
X102698796Y-46625495D01*
X102700000Y-46649999D01*
X102700000Y-47300001D01*
X102698796Y-47324505D01*
X102695196Y-47348773D01*
X102689235Y-47372572D01*
X102680970Y-47395671D01*
X102670480Y-47417850D01*
X102657868Y-47438893D01*
X102643253Y-47458599D01*
X102626777Y-47476777D01*
X102608599Y-47493253D01*
X102588893Y-47507868D01*
X102567850Y-47520480D01*
X102545671Y-47530970D01*
X102522572Y-47539235D01*
X102498773Y-47545196D01*
X102474505Y-47548796D01*
X102450001Y-47550000D01*
X101549999Y-47550000D01*
X101525495Y-47548796D01*
X101501227Y-47545196D01*
X101477428Y-47539235D01*
X101454329Y-47530970D01*
X101432150Y-47520480D01*
X101411107Y-47507868D01*
X101391401Y-47493253D01*
X101373223Y-47476777D01*
X101356747Y-47458599D01*
X101342132Y-47438893D01*
X101329520Y-47417850D01*
X101319030Y-47395671D01*
X101310765Y-47372572D01*
X101304804Y-47348773D01*
X101301204Y-47324505D01*
X101300000Y-47300001D01*
X101300000Y-46649999D01*
X101301204Y-46625495D01*
X101304804Y-46601227D01*
X101310765Y-46577428D01*
X101319030Y-46554329D01*
X101329520Y-46532150D01*
X101342132Y-46511107D01*
X101356747Y-46491401D01*
X101373223Y-46473223D01*
X101391401Y-46456747D01*
X101411107Y-46442132D01*
X101432150Y-46429520D01*
X101454329Y-46419030D01*
X101477428Y-46410765D01*
X101501227Y-46404804D01*
X101525495Y-46401204D01*
X101549999Y-46400000D01*
X102450001Y-46400000D01*
X102474505Y-46401204D01*
X102474505Y-46401204D01*
G37*
D23*
G04 #@! TD*
G04 #@! TO.P,D2,1*
G04 #@! TO.N,GND*
X102000000Y-46975000D03*
D16*
G04 #@! TO.N,Net-(D2-Pad2)*
G04 #@! TO.C,D2*
G36*
X102474505Y-48451204D02*
X102498773Y-48454804D01*
X102522572Y-48460765D01*
X102545671Y-48469030D01*
X102567850Y-48479520D01*
X102588893Y-48492132D01*
X102608599Y-48506747D01*
X102626777Y-48523223D01*
X102643253Y-48541401D01*
X102657868Y-48561107D01*
X102670480Y-48582150D01*
X102680970Y-48604329D01*
X102689235Y-48627428D01*
X102695196Y-48651227D01*
X102698796Y-48675495D01*
X102700000Y-48699999D01*
X102700000Y-49350001D01*
X102698796Y-49374505D01*
X102695196Y-49398773D01*
X102689235Y-49422572D01*
X102680970Y-49445671D01*
X102670480Y-49467850D01*
X102657868Y-49488893D01*
X102643253Y-49508599D01*
X102626777Y-49526777D01*
X102608599Y-49543253D01*
X102588893Y-49557868D01*
X102567850Y-49570480D01*
X102545671Y-49580970D01*
X102522572Y-49589235D01*
X102498773Y-49595196D01*
X102474505Y-49598796D01*
X102450001Y-49600000D01*
X101549999Y-49600000D01*
X101525495Y-49598796D01*
X101501227Y-49595196D01*
X101477428Y-49589235D01*
X101454329Y-49580970D01*
X101432150Y-49570480D01*
X101411107Y-49557868D01*
X101391401Y-49543253D01*
X101373223Y-49526777D01*
X101356747Y-49508599D01*
X101342132Y-49488893D01*
X101329520Y-49467850D01*
X101319030Y-49445671D01*
X101310765Y-49422572D01*
X101304804Y-49398773D01*
X101301204Y-49374505D01*
X101300000Y-49350001D01*
X101300000Y-48699999D01*
X101301204Y-48675495D01*
X101304804Y-48651227D01*
X101310765Y-48627428D01*
X101319030Y-48604329D01*
X101329520Y-48582150D01*
X101342132Y-48561107D01*
X101356747Y-48541401D01*
X101373223Y-48523223D01*
X101391401Y-48506747D01*
X101411107Y-48492132D01*
X101432150Y-48479520D01*
X101454329Y-48469030D01*
X101477428Y-48460765D01*
X101501227Y-48454804D01*
X101525495Y-48451204D01*
X101549999Y-48450000D01*
X102450001Y-48450000D01*
X102474505Y-48451204D01*
X102474505Y-48451204D01*
G37*
D23*
G04 #@! TD*
G04 #@! TO.P,D2,2*
G04 #@! TO.N,Net-(D2-Pad2)*
X102000000Y-49025000D03*
D16*
G04 #@! TO.N,Net-(D3-Pad2)*
G04 #@! TO.C,D3*
G36*
X130324505Y-59301204D02*
X130348773Y-59304804D01*
X130372572Y-59310765D01*
X130395671Y-59319030D01*
X130417850Y-59329520D01*
X130438893Y-59342132D01*
X130458599Y-59356747D01*
X130476777Y-59373223D01*
X130493253Y-59391401D01*
X130507868Y-59411107D01*
X130520480Y-59432150D01*
X130530970Y-59454329D01*
X130539235Y-59477428D01*
X130545196Y-59501227D01*
X130548796Y-59525495D01*
X130550000Y-59549999D01*
X130550000Y-60450001D01*
X130548796Y-60474505D01*
X130545196Y-60498773D01*
X130539235Y-60522572D01*
X130530970Y-60545671D01*
X130520480Y-60567850D01*
X130507868Y-60588893D01*
X130493253Y-60608599D01*
X130476777Y-60626777D01*
X130458599Y-60643253D01*
X130438893Y-60657868D01*
X130417850Y-60670480D01*
X130395671Y-60680970D01*
X130372572Y-60689235D01*
X130348773Y-60695196D01*
X130324505Y-60698796D01*
X130300001Y-60700000D01*
X129649999Y-60700000D01*
X129625495Y-60698796D01*
X129601227Y-60695196D01*
X129577428Y-60689235D01*
X129554329Y-60680970D01*
X129532150Y-60670480D01*
X129511107Y-60657868D01*
X129491401Y-60643253D01*
X129473223Y-60626777D01*
X129456747Y-60608599D01*
X129442132Y-60588893D01*
X129429520Y-60567850D01*
X129419030Y-60545671D01*
X129410765Y-60522572D01*
X129404804Y-60498773D01*
X129401204Y-60474505D01*
X129400000Y-60450001D01*
X129400000Y-59549999D01*
X129401204Y-59525495D01*
X129404804Y-59501227D01*
X129410765Y-59477428D01*
X129419030Y-59454329D01*
X129429520Y-59432150D01*
X129442132Y-59411107D01*
X129456747Y-59391401D01*
X129473223Y-59373223D01*
X129491401Y-59356747D01*
X129511107Y-59342132D01*
X129532150Y-59329520D01*
X129554329Y-59319030D01*
X129577428Y-59310765D01*
X129601227Y-59304804D01*
X129625495Y-59301204D01*
X129649999Y-59300000D01*
X130300001Y-59300000D01*
X130324505Y-59301204D01*
X130324505Y-59301204D01*
G37*
D23*
G04 #@! TD*
G04 #@! TO.P,D3,2*
G04 #@! TO.N,Net-(D3-Pad2)*
X129975000Y-60000000D03*
D16*
G04 #@! TO.N,GND*
G04 #@! TO.C,D3*
G36*
X132374505Y-59301204D02*
X132398773Y-59304804D01*
X132422572Y-59310765D01*
X132445671Y-59319030D01*
X132467850Y-59329520D01*
X132488893Y-59342132D01*
X132508599Y-59356747D01*
X132526777Y-59373223D01*
X132543253Y-59391401D01*
X132557868Y-59411107D01*
X132570480Y-59432150D01*
X132580970Y-59454329D01*
X132589235Y-59477428D01*
X132595196Y-59501227D01*
X132598796Y-59525495D01*
X132600000Y-59549999D01*
X132600000Y-60450001D01*
X132598796Y-60474505D01*
X132595196Y-60498773D01*
X132589235Y-60522572D01*
X132580970Y-60545671D01*
X132570480Y-60567850D01*
X132557868Y-60588893D01*
X132543253Y-60608599D01*
X132526777Y-60626777D01*
X132508599Y-60643253D01*
X132488893Y-60657868D01*
X132467850Y-60670480D01*
X132445671Y-60680970D01*
X132422572Y-60689235D01*
X132398773Y-60695196D01*
X132374505Y-60698796D01*
X132350001Y-60700000D01*
X131699999Y-60700000D01*
X131675495Y-60698796D01*
X131651227Y-60695196D01*
X131627428Y-60689235D01*
X131604329Y-60680970D01*
X131582150Y-60670480D01*
X131561107Y-60657868D01*
X131541401Y-60643253D01*
X131523223Y-60626777D01*
X131506747Y-60608599D01*
X131492132Y-60588893D01*
X131479520Y-60567850D01*
X131469030Y-60545671D01*
X131460765Y-60522572D01*
X131454804Y-60498773D01*
X131451204Y-60474505D01*
X131450000Y-60450001D01*
X131450000Y-59549999D01*
X131451204Y-59525495D01*
X131454804Y-59501227D01*
X131460765Y-59477428D01*
X131469030Y-59454329D01*
X131479520Y-59432150D01*
X131492132Y-59411107D01*
X131506747Y-59391401D01*
X131523223Y-59373223D01*
X131541401Y-59356747D01*
X131561107Y-59342132D01*
X131582150Y-59329520D01*
X131604329Y-59319030D01*
X131627428Y-59310765D01*
X131651227Y-59304804D01*
X131675495Y-59301204D01*
X131699999Y-59300000D01*
X132350001Y-59300000D01*
X132374505Y-59301204D01*
X132374505Y-59301204D01*
G37*
D23*
G04 #@! TD*
G04 #@! TO.P,D3,1*
G04 #@! TO.N,GND*
X132025000Y-60000000D03*
D24*
G04 #@! TO.P,U12,17*
G04 #@! TO.N,16*
X103270000Y-64880000D03*
G04 #@! TO.P,U12,16*
G04 #@! TO.N,17*
X105810000Y-64880000D03*
G04 #@! TO.P,U12,15*
G04 #@! TO.N,5*
X108350000Y-64880000D03*
G04 #@! TO.P,U12,9*
G04 #@! TO.N,GND*
X110890000Y-64880000D03*
G04 #@! TO.P,U12,22*
G04 #@! TO.N,2*
X95650000Y-64880000D03*
G04 #@! TO.P,U12,19*
G04 #@! TO.N,+3V3*
X100730000Y-64880000D03*
G04 #@! TO.P,U12,21*
G04 #@! TO.N,4*
X98190000Y-64880000D03*
G04 #@! TO.P,U12,23*
G04 #@! TO.N,15*
X93110000Y-64880000D03*
G04 #@! TO.P,U12,7*
G04 #@! TO.N,Net-(J4-Pad2)*
X105810000Y-80120000D03*
G04 #@! TO.P,U12,4*
G04 #@! TO.N,GND*
X110890000Y-80120000D03*
G04 #@! TO.P,U12,11*
G04 #@! TO.N,Net-(J4-Pad1)*
X108350000Y-80120000D03*
G04 #@! TO.P,U12,5*
G04 #@! TO.N,Net-(J2-Pad2)*
X103270000Y-80120000D03*
G04 #@! TO.P,U12,14*
G04 #@! TO.N,VCC*
X93110000Y-80120000D03*
G04 #@! TO.P,U12,18*
G04 #@! TO.N,GND*
X98190000Y-80120000D03*
G04 #@! TO.P,U12,20*
G04 #@! TO.N,+3V3*
X95650000Y-80120000D03*
G04 #@! TO.P,U12,1*
G04 #@! TO.N,Net-(J2-Pad1)*
X100730000Y-80120000D03*
G04 #@! TD*
D16*
G04 #@! TO.N,GND*
G04 #@! TO.C,D4*
G36*
X81474505Y-56401204D02*
X81498773Y-56404804D01*
X81522572Y-56410765D01*
X81545671Y-56419030D01*
X81567850Y-56429520D01*
X81588893Y-56442132D01*
X81608599Y-56456747D01*
X81626777Y-56473223D01*
X81643253Y-56491401D01*
X81657868Y-56511107D01*
X81670480Y-56532150D01*
X81680970Y-56554329D01*
X81689235Y-56577428D01*
X81695196Y-56601227D01*
X81698796Y-56625495D01*
X81700000Y-56649999D01*
X81700000Y-57300001D01*
X81698796Y-57324505D01*
X81695196Y-57348773D01*
X81689235Y-57372572D01*
X81680970Y-57395671D01*
X81670480Y-57417850D01*
X81657868Y-57438893D01*
X81643253Y-57458599D01*
X81626777Y-57476777D01*
X81608599Y-57493253D01*
X81588893Y-57507868D01*
X81567850Y-57520480D01*
X81545671Y-57530970D01*
X81522572Y-57539235D01*
X81498773Y-57545196D01*
X81474505Y-57548796D01*
X81450001Y-57550000D01*
X80549999Y-57550000D01*
X80525495Y-57548796D01*
X80501227Y-57545196D01*
X80477428Y-57539235D01*
X80454329Y-57530970D01*
X80432150Y-57520480D01*
X80411107Y-57507868D01*
X80391401Y-57493253D01*
X80373223Y-57476777D01*
X80356747Y-57458599D01*
X80342132Y-57438893D01*
X80329520Y-57417850D01*
X80319030Y-57395671D01*
X80310765Y-57372572D01*
X80304804Y-57348773D01*
X80301204Y-57324505D01*
X80300000Y-57300001D01*
X80300000Y-56649999D01*
X80301204Y-56625495D01*
X80304804Y-56601227D01*
X80310765Y-56577428D01*
X80319030Y-56554329D01*
X80329520Y-56532150D01*
X80342132Y-56511107D01*
X80356747Y-56491401D01*
X80373223Y-56473223D01*
X80391401Y-56456747D01*
X80411107Y-56442132D01*
X80432150Y-56429520D01*
X80454329Y-56419030D01*
X80477428Y-56410765D01*
X80501227Y-56404804D01*
X80525495Y-56401204D01*
X80549999Y-56400000D01*
X81450001Y-56400000D01*
X81474505Y-56401204D01*
X81474505Y-56401204D01*
G37*
D23*
G04 #@! TD*
G04 #@! TO.P,D4,1*
G04 #@! TO.N,GND*
X81000000Y-56975000D03*
D16*
G04 #@! TO.N,Net-(D4-Pad2)*
G04 #@! TO.C,D4*
G36*
X81474505Y-58451204D02*
X81498773Y-58454804D01*
X81522572Y-58460765D01*
X81545671Y-58469030D01*
X81567850Y-58479520D01*
X81588893Y-58492132D01*
X81608599Y-58506747D01*
X81626777Y-58523223D01*
X81643253Y-58541401D01*
X81657868Y-58561107D01*
X81670480Y-58582150D01*
X81680970Y-58604329D01*
X81689235Y-58627428D01*
X81695196Y-58651227D01*
X81698796Y-58675495D01*
X81700000Y-58699999D01*
X81700000Y-59350001D01*
X81698796Y-59374505D01*
X81695196Y-59398773D01*
X81689235Y-59422572D01*
X81680970Y-59445671D01*
X81670480Y-59467850D01*
X81657868Y-59488893D01*
X81643253Y-59508599D01*
X81626777Y-59526777D01*
X81608599Y-59543253D01*
X81588893Y-59557868D01*
X81567850Y-59570480D01*
X81545671Y-59580970D01*
X81522572Y-59589235D01*
X81498773Y-59595196D01*
X81474505Y-59598796D01*
X81450001Y-59600000D01*
X80549999Y-59600000D01*
X80525495Y-59598796D01*
X80501227Y-59595196D01*
X80477428Y-59589235D01*
X80454329Y-59580970D01*
X80432150Y-59570480D01*
X80411107Y-59557868D01*
X80391401Y-59543253D01*
X80373223Y-59526777D01*
X80356747Y-59508599D01*
X80342132Y-59488893D01*
X80329520Y-59467850D01*
X80319030Y-59445671D01*
X80310765Y-59422572D01*
X80304804Y-59398773D01*
X80301204Y-59374505D01*
X80300000Y-59350001D01*
X80300000Y-58699999D01*
X80301204Y-58675495D01*
X80304804Y-58651227D01*
X80310765Y-58627428D01*
X80319030Y-58604329D01*
X80329520Y-58582150D01*
X80342132Y-58561107D01*
X80356747Y-58541401D01*
X80373223Y-58523223D01*
X80391401Y-58506747D01*
X80411107Y-58492132D01*
X80432150Y-58479520D01*
X80454329Y-58469030D01*
X80477428Y-58460765D01*
X80501227Y-58454804D01*
X80525495Y-58451204D01*
X80549999Y-58450000D01*
X81450001Y-58450000D01*
X81474505Y-58451204D01*
X81474505Y-58451204D01*
G37*
D23*
G04 #@! TD*
G04 #@! TO.P,D4,2*
G04 #@! TO.N,Net-(D4-Pad2)*
X81000000Y-59025000D03*
D16*
G04 #@! TO.N,Net-(D5-Pad2)*
G04 #@! TO.C,D5*
G36*
X91474505Y-53426204D02*
X91498773Y-53429804D01*
X91522572Y-53435765D01*
X91545671Y-53444030D01*
X91567850Y-53454520D01*
X91588893Y-53467132D01*
X91608599Y-53481747D01*
X91626777Y-53498223D01*
X91643253Y-53516401D01*
X91657868Y-53536107D01*
X91670480Y-53557150D01*
X91680970Y-53579329D01*
X91689235Y-53602428D01*
X91695196Y-53626227D01*
X91698796Y-53650495D01*
X91700000Y-53674999D01*
X91700000Y-54325001D01*
X91698796Y-54349505D01*
X91695196Y-54373773D01*
X91689235Y-54397572D01*
X91680970Y-54420671D01*
X91670480Y-54442850D01*
X91657868Y-54463893D01*
X91643253Y-54483599D01*
X91626777Y-54501777D01*
X91608599Y-54518253D01*
X91588893Y-54532868D01*
X91567850Y-54545480D01*
X91545671Y-54555970D01*
X91522572Y-54564235D01*
X91498773Y-54570196D01*
X91474505Y-54573796D01*
X91450001Y-54575000D01*
X90549999Y-54575000D01*
X90525495Y-54573796D01*
X90501227Y-54570196D01*
X90477428Y-54564235D01*
X90454329Y-54555970D01*
X90432150Y-54545480D01*
X90411107Y-54532868D01*
X90391401Y-54518253D01*
X90373223Y-54501777D01*
X90356747Y-54483599D01*
X90342132Y-54463893D01*
X90329520Y-54442850D01*
X90319030Y-54420671D01*
X90310765Y-54397572D01*
X90304804Y-54373773D01*
X90301204Y-54349505D01*
X90300000Y-54325001D01*
X90300000Y-53674999D01*
X90301204Y-53650495D01*
X90304804Y-53626227D01*
X90310765Y-53602428D01*
X90319030Y-53579329D01*
X90329520Y-53557150D01*
X90342132Y-53536107D01*
X90356747Y-53516401D01*
X90373223Y-53498223D01*
X90391401Y-53481747D01*
X90411107Y-53467132D01*
X90432150Y-53454520D01*
X90454329Y-53444030D01*
X90477428Y-53435765D01*
X90501227Y-53429804D01*
X90525495Y-53426204D01*
X90549999Y-53425000D01*
X91450001Y-53425000D01*
X91474505Y-53426204D01*
X91474505Y-53426204D01*
G37*
D23*
G04 #@! TD*
G04 #@! TO.P,D5,2*
G04 #@! TO.N,Net-(D5-Pad2)*
X91000000Y-54000000D03*
D16*
G04 #@! TO.N,GND*
G04 #@! TO.C,D5*
G36*
X91474505Y-51376204D02*
X91498773Y-51379804D01*
X91522572Y-51385765D01*
X91545671Y-51394030D01*
X91567850Y-51404520D01*
X91588893Y-51417132D01*
X91608599Y-51431747D01*
X91626777Y-51448223D01*
X91643253Y-51466401D01*
X91657868Y-51486107D01*
X91670480Y-51507150D01*
X91680970Y-51529329D01*
X91689235Y-51552428D01*
X91695196Y-51576227D01*
X91698796Y-51600495D01*
X91700000Y-51624999D01*
X91700000Y-52275001D01*
X91698796Y-52299505D01*
X91695196Y-52323773D01*
X91689235Y-52347572D01*
X91680970Y-52370671D01*
X91670480Y-52392850D01*
X91657868Y-52413893D01*
X91643253Y-52433599D01*
X91626777Y-52451777D01*
X91608599Y-52468253D01*
X91588893Y-52482868D01*
X91567850Y-52495480D01*
X91545671Y-52505970D01*
X91522572Y-52514235D01*
X91498773Y-52520196D01*
X91474505Y-52523796D01*
X91450001Y-52525000D01*
X90549999Y-52525000D01*
X90525495Y-52523796D01*
X90501227Y-52520196D01*
X90477428Y-52514235D01*
X90454329Y-52505970D01*
X90432150Y-52495480D01*
X90411107Y-52482868D01*
X90391401Y-52468253D01*
X90373223Y-52451777D01*
X90356747Y-52433599D01*
X90342132Y-52413893D01*
X90329520Y-52392850D01*
X90319030Y-52370671D01*
X90310765Y-52347572D01*
X90304804Y-52323773D01*
X90301204Y-52299505D01*
X90300000Y-52275001D01*
X90300000Y-51624999D01*
X90301204Y-51600495D01*
X90304804Y-51576227D01*
X90310765Y-51552428D01*
X90319030Y-51529329D01*
X90329520Y-51507150D01*
X90342132Y-51486107D01*
X90356747Y-51466401D01*
X90373223Y-51448223D01*
X90391401Y-51431747D01*
X90411107Y-51417132D01*
X90432150Y-51404520D01*
X90454329Y-51394030D01*
X90477428Y-51385765D01*
X90501227Y-51379804D01*
X90525495Y-51376204D01*
X90549999Y-51375000D01*
X91450001Y-51375000D01*
X91474505Y-51376204D01*
X91474505Y-51376204D01*
G37*
D23*
G04 #@! TD*
G04 #@! TO.P,D5,1*
G04 #@! TO.N,GND*
X91000000Y-51950000D03*
D16*
G04 #@! TO.N,GND*
G04 #@! TO.C,D6*
G36*
X102474505Y-51376204D02*
X102498773Y-51379804D01*
X102522572Y-51385765D01*
X102545671Y-51394030D01*
X102567850Y-51404520D01*
X102588893Y-51417132D01*
X102608599Y-51431747D01*
X102626777Y-51448223D01*
X102643253Y-51466401D01*
X102657868Y-51486107D01*
X102670480Y-51507150D01*
X102680970Y-51529329D01*
X102689235Y-51552428D01*
X102695196Y-51576227D01*
X102698796Y-51600495D01*
X102700000Y-51624999D01*
X102700000Y-52275001D01*
X102698796Y-52299505D01*
X102695196Y-52323773D01*
X102689235Y-52347572D01*
X102680970Y-52370671D01*
X102670480Y-52392850D01*
X102657868Y-52413893D01*
X102643253Y-52433599D01*
X102626777Y-52451777D01*
X102608599Y-52468253D01*
X102588893Y-52482868D01*
X102567850Y-52495480D01*
X102545671Y-52505970D01*
X102522572Y-52514235D01*
X102498773Y-52520196D01*
X102474505Y-52523796D01*
X102450001Y-52525000D01*
X101549999Y-52525000D01*
X101525495Y-52523796D01*
X101501227Y-52520196D01*
X101477428Y-52514235D01*
X101454329Y-52505970D01*
X101432150Y-52495480D01*
X101411107Y-52482868D01*
X101391401Y-52468253D01*
X101373223Y-52451777D01*
X101356747Y-52433599D01*
X101342132Y-52413893D01*
X101329520Y-52392850D01*
X101319030Y-52370671D01*
X101310765Y-52347572D01*
X101304804Y-52323773D01*
X101301204Y-52299505D01*
X101300000Y-52275001D01*
X101300000Y-51624999D01*
X101301204Y-51600495D01*
X101304804Y-51576227D01*
X101310765Y-51552428D01*
X101319030Y-51529329D01*
X101329520Y-51507150D01*
X101342132Y-51486107D01*
X101356747Y-51466401D01*
X101373223Y-51448223D01*
X101391401Y-51431747D01*
X101411107Y-51417132D01*
X101432150Y-51404520D01*
X101454329Y-51394030D01*
X101477428Y-51385765D01*
X101501227Y-51379804D01*
X101525495Y-51376204D01*
X101549999Y-51375000D01*
X102450001Y-51375000D01*
X102474505Y-51376204D01*
X102474505Y-51376204D01*
G37*
D23*
G04 #@! TD*
G04 #@! TO.P,D6,1*
G04 #@! TO.N,GND*
X102000000Y-51950000D03*
D16*
G04 #@! TO.N,Net-(D6-Pad2)*
G04 #@! TO.C,D6*
G36*
X102474505Y-53426204D02*
X102498773Y-53429804D01*
X102522572Y-53435765D01*
X102545671Y-53444030D01*
X102567850Y-53454520D01*
X102588893Y-53467132D01*
X102608599Y-53481747D01*
X102626777Y-53498223D01*
X102643253Y-53516401D01*
X102657868Y-53536107D01*
X102670480Y-53557150D01*
X102680970Y-53579329D01*
X102689235Y-53602428D01*
X102695196Y-53626227D01*
X102698796Y-53650495D01*
X102700000Y-53674999D01*
X102700000Y-54325001D01*
X102698796Y-54349505D01*
X102695196Y-54373773D01*
X102689235Y-54397572D01*
X102680970Y-54420671D01*
X102670480Y-54442850D01*
X102657868Y-54463893D01*
X102643253Y-54483599D01*
X102626777Y-54501777D01*
X102608599Y-54518253D01*
X102588893Y-54532868D01*
X102567850Y-54545480D01*
X102545671Y-54555970D01*
X102522572Y-54564235D01*
X102498773Y-54570196D01*
X102474505Y-54573796D01*
X102450001Y-54575000D01*
X101549999Y-54575000D01*
X101525495Y-54573796D01*
X101501227Y-54570196D01*
X101477428Y-54564235D01*
X101454329Y-54555970D01*
X101432150Y-54545480D01*
X101411107Y-54532868D01*
X101391401Y-54518253D01*
X101373223Y-54501777D01*
X101356747Y-54483599D01*
X101342132Y-54463893D01*
X101329520Y-54442850D01*
X101319030Y-54420671D01*
X101310765Y-54397572D01*
X101304804Y-54373773D01*
X101301204Y-54349505D01*
X101300000Y-54325001D01*
X101300000Y-53674999D01*
X101301204Y-53650495D01*
X101304804Y-53626227D01*
X101310765Y-53602428D01*
X101319030Y-53579329D01*
X101329520Y-53557150D01*
X101342132Y-53536107D01*
X101356747Y-53516401D01*
X101373223Y-53498223D01*
X101391401Y-53481747D01*
X101411107Y-53467132D01*
X101432150Y-53454520D01*
X101454329Y-53444030D01*
X101477428Y-53435765D01*
X101501227Y-53429804D01*
X101525495Y-53426204D01*
X101549999Y-53425000D01*
X102450001Y-53425000D01*
X102474505Y-53426204D01*
X102474505Y-53426204D01*
G37*
D23*
G04 #@! TD*
G04 #@! TO.P,D6,2*
G04 #@! TO.N,Net-(D6-Pad2)*
X102000000Y-54000000D03*
D16*
G04 #@! TO.N,GND*
G04 #@! TO.C,D7*
G36*
X113474505Y-51401204D02*
X113498773Y-51404804D01*
X113522572Y-51410765D01*
X113545671Y-51419030D01*
X113567850Y-51429520D01*
X113588893Y-51442132D01*
X113608599Y-51456747D01*
X113626777Y-51473223D01*
X113643253Y-51491401D01*
X113657868Y-51511107D01*
X113670480Y-51532150D01*
X113680970Y-51554329D01*
X113689235Y-51577428D01*
X113695196Y-51601227D01*
X113698796Y-51625495D01*
X113700000Y-51649999D01*
X113700000Y-52300001D01*
X113698796Y-52324505D01*
X113695196Y-52348773D01*
X113689235Y-52372572D01*
X113680970Y-52395671D01*
X113670480Y-52417850D01*
X113657868Y-52438893D01*
X113643253Y-52458599D01*
X113626777Y-52476777D01*
X113608599Y-52493253D01*
X113588893Y-52507868D01*
X113567850Y-52520480D01*
X113545671Y-52530970D01*
X113522572Y-52539235D01*
X113498773Y-52545196D01*
X113474505Y-52548796D01*
X113450001Y-52550000D01*
X112549999Y-52550000D01*
X112525495Y-52548796D01*
X112501227Y-52545196D01*
X112477428Y-52539235D01*
X112454329Y-52530970D01*
X112432150Y-52520480D01*
X112411107Y-52507868D01*
X112391401Y-52493253D01*
X112373223Y-52476777D01*
X112356747Y-52458599D01*
X112342132Y-52438893D01*
X112329520Y-52417850D01*
X112319030Y-52395671D01*
X112310765Y-52372572D01*
X112304804Y-52348773D01*
X112301204Y-52324505D01*
X112300000Y-52300001D01*
X112300000Y-51649999D01*
X112301204Y-51625495D01*
X112304804Y-51601227D01*
X112310765Y-51577428D01*
X112319030Y-51554329D01*
X112329520Y-51532150D01*
X112342132Y-51511107D01*
X112356747Y-51491401D01*
X112373223Y-51473223D01*
X112391401Y-51456747D01*
X112411107Y-51442132D01*
X112432150Y-51429520D01*
X112454329Y-51419030D01*
X112477428Y-51410765D01*
X112501227Y-51404804D01*
X112525495Y-51401204D01*
X112549999Y-51400000D01*
X113450001Y-51400000D01*
X113474505Y-51401204D01*
X113474505Y-51401204D01*
G37*
D23*
G04 #@! TD*
G04 #@! TO.P,D7,1*
G04 #@! TO.N,GND*
X113000000Y-51975000D03*
D16*
G04 #@! TO.N,Net-(D7-Pad2)*
G04 #@! TO.C,D7*
G36*
X113474505Y-53451204D02*
X113498773Y-53454804D01*
X113522572Y-53460765D01*
X113545671Y-53469030D01*
X113567850Y-53479520D01*
X113588893Y-53492132D01*
X113608599Y-53506747D01*
X113626777Y-53523223D01*
X113643253Y-53541401D01*
X113657868Y-53561107D01*
X113670480Y-53582150D01*
X113680970Y-53604329D01*
X113689235Y-53627428D01*
X113695196Y-53651227D01*
X113698796Y-53675495D01*
X113700000Y-53699999D01*
X113700000Y-54350001D01*
X113698796Y-54374505D01*
X113695196Y-54398773D01*
X113689235Y-54422572D01*
X113680970Y-54445671D01*
X113670480Y-54467850D01*
X113657868Y-54488893D01*
X113643253Y-54508599D01*
X113626777Y-54526777D01*
X113608599Y-54543253D01*
X113588893Y-54557868D01*
X113567850Y-54570480D01*
X113545671Y-54580970D01*
X113522572Y-54589235D01*
X113498773Y-54595196D01*
X113474505Y-54598796D01*
X113450001Y-54600000D01*
X112549999Y-54600000D01*
X112525495Y-54598796D01*
X112501227Y-54595196D01*
X112477428Y-54589235D01*
X112454329Y-54580970D01*
X112432150Y-54570480D01*
X112411107Y-54557868D01*
X112391401Y-54543253D01*
X112373223Y-54526777D01*
X112356747Y-54508599D01*
X112342132Y-54488893D01*
X112329520Y-54467850D01*
X112319030Y-54445671D01*
X112310765Y-54422572D01*
X112304804Y-54398773D01*
X112301204Y-54374505D01*
X112300000Y-54350001D01*
X112300000Y-53699999D01*
X112301204Y-53675495D01*
X112304804Y-53651227D01*
X112310765Y-53627428D01*
X112319030Y-53604329D01*
X112329520Y-53582150D01*
X112342132Y-53561107D01*
X112356747Y-53541401D01*
X112373223Y-53523223D01*
X112391401Y-53506747D01*
X112411107Y-53492132D01*
X112432150Y-53479520D01*
X112454329Y-53469030D01*
X112477428Y-53460765D01*
X112501227Y-53454804D01*
X112525495Y-53451204D01*
X112549999Y-53450000D01*
X113450001Y-53450000D01*
X113474505Y-53451204D01*
X113474505Y-53451204D01*
G37*
D23*
G04 #@! TD*
G04 #@! TO.P,D7,2*
G04 #@! TO.N,Net-(D7-Pad2)*
X113000000Y-54025000D03*
D16*
G04 #@! TO.N,Net-(D8-Pad2)*
G04 #@! TO.C,D8*
G36*
X123474505Y-58451204D02*
X123498773Y-58454804D01*
X123522572Y-58460765D01*
X123545671Y-58469030D01*
X123567850Y-58479520D01*
X123588893Y-58492132D01*
X123608599Y-58506747D01*
X123626777Y-58523223D01*
X123643253Y-58541401D01*
X123657868Y-58561107D01*
X123670480Y-58582150D01*
X123680970Y-58604329D01*
X123689235Y-58627428D01*
X123695196Y-58651227D01*
X123698796Y-58675495D01*
X123700000Y-58699999D01*
X123700000Y-59350001D01*
X123698796Y-59374505D01*
X123695196Y-59398773D01*
X123689235Y-59422572D01*
X123680970Y-59445671D01*
X123670480Y-59467850D01*
X123657868Y-59488893D01*
X123643253Y-59508599D01*
X123626777Y-59526777D01*
X123608599Y-59543253D01*
X123588893Y-59557868D01*
X123567850Y-59570480D01*
X123545671Y-59580970D01*
X123522572Y-59589235D01*
X123498773Y-59595196D01*
X123474505Y-59598796D01*
X123450001Y-59600000D01*
X122549999Y-59600000D01*
X122525495Y-59598796D01*
X122501227Y-59595196D01*
X122477428Y-59589235D01*
X122454329Y-59580970D01*
X122432150Y-59570480D01*
X122411107Y-59557868D01*
X122391401Y-59543253D01*
X122373223Y-59526777D01*
X122356747Y-59508599D01*
X122342132Y-59488893D01*
X122329520Y-59467850D01*
X122319030Y-59445671D01*
X122310765Y-59422572D01*
X122304804Y-59398773D01*
X122301204Y-59374505D01*
X122300000Y-59350001D01*
X122300000Y-58699999D01*
X122301204Y-58675495D01*
X122304804Y-58651227D01*
X122310765Y-58627428D01*
X122319030Y-58604329D01*
X122329520Y-58582150D01*
X122342132Y-58561107D01*
X122356747Y-58541401D01*
X122373223Y-58523223D01*
X122391401Y-58506747D01*
X122411107Y-58492132D01*
X122432150Y-58479520D01*
X122454329Y-58469030D01*
X122477428Y-58460765D01*
X122501227Y-58454804D01*
X122525495Y-58451204D01*
X122549999Y-58450000D01*
X123450001Y-58450000D01*
X123474505Y-58451204D01*
X123474505Y-58451204D01*
G37*
D23*
G04 #@! TD*
G04 #@! TO.P,D8,2*
G04 #@! TO.N,Net-(D8-Pad2)*
X123000000Y-59025000D03*
D16*
G04 #@! TO.N,GND*
G04 #@! TO.C,D8*
G36*
X123474505Y-56401204D02*
X123498773Y-56404804D01*
X123522572Y-56410765D01*
X123545671Y-56419030D01*
X123567850Y-56429520D01*
X123588893Y-56442132D01*
X123608599Y-56456747D01*
X123626777Y-56473223D01*
X123643253Y-56491401D01*
X123657868Y-56511107D01*
X123670480Y-56532150D01*
X123680970Y-56554329D01*
X123689235Y-56577428D01*
X123695196Y-56601227D01*
X123698796Y-56625495D01*
X123700000Y-56649999D01*
X123700000Y-57300001D01*
X123698796Y-57324505D01*
X123695196Y-57348773D01*
X123689235Y-57372572D01*
X123680970Y-57395671D01*
X123670480Y-57417850D01*
X123657868Y-57438893D01*
X123643253Y-57458599D01*
X123626777Y-57476777D01*
X123608599Y-57493253D01*
X123588893Y-57507868D01*
X123567850Y-57520480D01*
X123545671Y-57530970D01*
X123522572Y-57539235D01*
X123498773Y-57545196D01*
X123474505Y-57548796D01*
X123450001Y-57550000D01*
X122549999Y-57550000D01*
X122525495Y-57548796D01*
X122501227Y-57545196D01*
X122477428Y-57539235D01*
X122454329Y-57530970D01*
X122432150Y-57520480D01*
X122411107Y-57507868D01*
X122391401Y-57493253D01*
X122373223Y-57476777D01*
X122356747Y-57458599D01*
X122342132Y-57438893D01*
X122329520Y-57417850D01*
X122319030Y-57395671D01*
X122310765Y-57372572D01*
X122304804Y-57348773D01*
X122301204Y-57324505D01*
X122300000Y-57300001D01*
X122300000Y-56649999D01*
X122301204Y-56625495D01*
X122304804Y-56601227D01*
X122310765Y-56577428D01*
X122319030Y-56554329D01*
X122329520Y-56532150D01*
X122342132Y-56511107D01*
X122356747Y-56491401D01*
X122373223Y-56473223D01*
X122391401Y-56456747D01*
X122411107Y-56442132D01*
X122432150Y-56429520D01*
X122454329Y-56419030D01*
X122477428Y-56410765D01*
X122501227Y-56404804D01*
X122525495Y-56401204D01*
X122549999Y-56400000D01*
X123450001Y-56400000D01*
X123474505Y-56401204D01*
X123474505Y-56401204D01*
G37*
D23*
G04 #@! TD*
G04 #@! TO.P,D8,1*
G04 #@! TO.N,GND*
X123000000Y-56975000D03*
D19*
G04 #@! TO.P,J2,2*
G04 #@! TO.N,Net-(J2-Pad2)*
X95500000Y-102000000D03*
D18*
G04 #@! TO.P,J2,1*
G04 #@! TO.N,Net-(J2-Pad1)*
X93500000Y-102000000D03*
G04 #@! TD*
G04 #@! TO.P,J4,1*
G04 #@! TO.N,Net-(J4-Pad1)*
X110500000Y-102000000D03*
D19*
G04 #@! TO.P,J4,2*
G04 #@! TO.N,Net-(J4-Pad2)*
X108500000Y-102000000D03*
G04 #@! TD*
D13*
G04 #@! TO.P,J7,2*
G04 #@! TO.N,GND*
X84000000Y-102290000D03*
D14*
G04 #@! TO.P,J7,1*
G04 #@! TO.N,+BATT*
X84000000Y-99750000D03*
G04 #@! TD*
D18*
G04 #@! TO.P,J8,1*
G04 #@! TO.N,+BATT*
X103000000Y-102000000D03*
D19*
G04 #@! TO.P,J8,2*
G04 #@! TO.N,GND*
X101000000Y-102000000D03*
G04 #@! TD*
D25*
G04 #@! TO.P,SW3,1*
G04 #@! TO.N,+3V3*
X128900000Y-139000000D03*
G04 #@! TO.P,SW3,2*
G04 #@! TO.N,13*
X121100000Y-139000000D03*
G04 #@! TD*
D26*
G04 #@! TO.N,GND*
X106500000Y-62500000D03*
X87500000Y-112500000D03*
X87500000Y-127500000D03*
X115000000Y-127500000D03*
X115000000Y-112500000D03*
X99000000Y-55000000D03*
X126000000Y-76000000D03*
X80000000Y-76000000D03*
X111000000Y-94000000D03*
X99000000Y-104000000D03*
X93000000Y-109000000D03*
X94000000Y-105000000D03*
X119000000Y-95000000D03*
X118000000Y-86000000D03*
X84000000Y-96000000D03*
X93750000Y-94250000D03*
X90000000Y-49000000D03*
X121000000Y-56300000D03*
X109741634Y-50258366D03*
X120000000Y-54000000D03*
X116000000Y-49000000D03*
X85000000Y-51000000D03*
G04 #@! TO.N,VCC*
X94000000Y-91500000D03*
X93500000Y-88750000D03*
X95750000Y-89750000D03*
G04 #@! TO.N,+3V3*
X101580668Y-72729689D03*
X101500000Y-70000000D03*
X98000000Y-85000000D03*
X128900000Y-139000000D03*
X120969669Y-67469669D03*
X122633891Y-68633891D03*
X94000000Y-51975000D03*
X96000000Y-55000000D03*
G04 #@! TO.N,Net-(BZ1-Pad1)*
X100000000Y-61500000D03*
G04 #@! TO.N,Net-(D1-Pad2)*
X80500000Y-67000000D03*
G04 #@! TO.N,Net-(D2-Pad2)*
X103500000Y-82500000D03*
X107493959Y-83006041D03*
X112472525Y-80027475D03*
G04 #@! TO.N,Net-(D3-Pad2)*
X112500000Y-81500000D03*
X129975000Y-60000000D03*
X127142851Y-61788521D03*
G04 #@! TO.N,Net-(D5-Pad2)*
X90905000Y-56272251D03*
G04 #@! TO.N,Net-(D6-Pad2)*
X102000000Y-64000000D03*
G04 #@! TO.N,Net-(D7-Pad2)*
X109000000Y-61500000D03*
G04 #@! TO.N,26*
X97500000Y-77000000D03*
X106000000Y-77000000D03*
G04 #@! TO.N,3*
X97430001Y-87250984D03*
X104500000Y-86864304D03*
G04 #@! TO.N,36*
X78000000Y-59500000D03*
X82768942Y-60231058D03*
G04 #@! TO.N,39*
X86500000Y-53000000D03*
X89500000Y-57500000D03*
X90456058Y-45456058D03*
G04 #@! TO.N,34*
X126000000Y-60500000D03*
X116139642Y-55455974D03*
G04 #@! TO.N,32*
X119500000Y-81500000D03*
X119500000Y-79000000D03*
X119500000Y-75000000D03*
X119500000Y-71500000D03*
X114000000Y-53000000D03*
X118000000Y-56000000D03*
X104500001Y-55000000D03*
G04 #@! TO.N,33*
X110500000Y-48762412D03*
G04 #@! TO.N,13*
X118000000Y-68259569D03*
X117500000Y-74000000D03*
X117500000Y-77000000D03*
X118500000Y-80000000D03*
X121100000Y-139000000D03*
X119500000Y-83000000D03*
G04 #@! TO.N,12*
X104500000Y-59500000D03*
G04 #@! TO.N,19_SCL2*
X123000000Y-95000000D03*
X111750000Y-108588317D03*
G04 #@! TO.N,18_SDA2*
X121969669Y-94969669D03*
X111000000Y-111000000D03*
G04 #@! TD*
D27*
G04 #@! TO.N,GND*
X107880668Y-75029689D02*
X107630668Y-75029689D01*
X99480668Y-73517189D02*
X98000000Y-73517189D01*
D28*
X115276001Y-62284999D02*
X113485001Y-62284999D01*
X115900001Y-62908999D02*
X115276001Y-62284999D01*
X115900001Y-64824999D02*
X115900001Y-62908999D01*
X114700000Y-66025000D02*
X115900001Y-64824999D01*
D27*
X107880668Y-77110668D02*
X110890000Y-80120000D01*
X107880668Y-75029689D02*
X107880668Y-77110668D01*
D28*
X98000000Y-73517189D02*
X97538388Y-73978801D01*
D27*
X110890000Y-69835000D02*
X110890000Y-80120000D01*
X114700000Y-66025000D02*
X110890000Y-69835000D01*
D28*
X111789999Y-63980001D02*
X110890000Y-64880000D01*
X113485001Y-62284999D02*
X111789999Y-63980001D01*
D29*
X102000000Y-51950000D02*
X102000000Y-52000000D01*
D28*
X101752674Y-46727674D02*
X102000000Y-46975000D01*
X99086219Y-46727674D02*
X101752674Y-46727674D01*
D27*
X105000000Y-62500000D02*
X104000000Y-61500000D01*
X106500000Y-62500000D02*
X105000000Y-62500000D01*
X106899999Y-62899999D02*
X106500000Y-62500000D01*
X107529999Y-63529999D02*
X106899999Y-62899999D01*
X109539999Y-63529999D02*
X107529999Y-63529999D01*
X110890000Y-64880000D02*
X109539999Y-63529999D01*
X104000000Y-60375000D02*
X104000000Y-61500000D01*
X103649999Y-60024999D02*
X104000000Y-60375000D01*
X103649999Y-50753997D02*
X103649999Y-60024999D01*
X105136028Y-49267968D02*
X103649999Y-50753997D01*
X104000000Y-61500000D02*
X103125000Y-61500000D01*
X95509939Y-56459939D02*
X91000000Y-51950000D01*
X95509939Y-58297687D02*
X95509939Y-56459939D01*
X94800402Y-59007224D02*
X95509939Y-58297687D01*
X84169434Y-63962506D02*
X83267968Y-64863972D01*
X84523977Y-60784011D02*
X84523977Y-63649797D01*
X84211268Y-63962506D02*
X84169434Y-63962506D01*
X81623372Y-57883406D02*
X84523977Y-60784011D01*
X84523977Y-63649797D02*
X84211268Y-63962506D01*
X81623372Y-57598372D02*
X81623372Y-57883406D01*
X81000000Y-56975000D02*
X81623372Y-57598372D01*
X75623372Y-56351628D02*
X71975000Y-60000000D01*
X80376628Y-56351628D02*
X75623372Y-56351628D01*
X81000000Y-56975000D02*
X80376628Y-56351628D01*
X70000000Y-61975000D02*
X71975000Y-60000000D01*
X70000000Y-64000000D02*
X70000000Y-61975000D01*
X84428996Y-66025000D02*
X89300000Y-66025000D01*
X83267968Y-64863972D02*
X84428996Y-66025000D01*
X124275763Y-65086219D02*
X123272326Y-65086219D01*
X125076172Y-64285810D02*
X124275763Y-65086219D01*
X123975479Y-56351628D02*
X125076172Y-57452321D01*
X123623372Y-56351628D02*
X123975479Y-56351628D01*
X123000000Y-56975000D02*
X123623372Y-56351628D01*
X83475000Y-54500000D02*
X81000000Y-56975000D01*
D30*
X103196003Y-50753997D02*
X103649999Y-50753997D01*
X102000000Y-51950000D02*
X103196003Y-50753997D01*
D29*
X113000000Y-51975000D02*
X111475000Y-51975000D01*
D27*
X125076172Y-57452321D02*
X125076172Y-61500000D01*
X125076172Y-61500000D02*
X125076172Y-64285810D01*
X94565685Y-105000000D02*
X94000000Y-105000000D01*
X96010742Y-105000000D02*
X94565685Y-105000000D01*
X97010742Y-104000000D02*
X96010742Y-105000000D01*
X99000000Y-104000000D02*
X97010742Y-104000000D01*
X91000000Y-51950000D02*
X91000000Y-50000000D01*
X91000000Y-50000000D02*
X90000000Y-49000000D01*
X123000000Y-56975000D02*
X122325000Y-56300000D01*
X122325000Y-56300000D02*
X121000000Y-56300000D01*
X121000000Y-56300000D02*
X121000000Y-55000000D01*
X121000000Y-55000000D02*
X120000000Y-54000000D01*
D29*
X111475000Y-51975000D02*
X111458268Y-51975000D01*
X111458268Y-51975000D02*
X109741634Y-50258366D01*
X101376628Y-47598372D02*
X102000000Y-46975000D01*
X100949990Y-48025010D02*
X101376628Y-47598372D01*
X100949990Y-50224990D02*
X100949990Y-48025010D01*
X102000000Y-51275000D02*
X100949990Y-50224990D01*
X102000000Y-51950000D02*
X102000000Y-51275000D01*
X99333545Y-46975000D02*
X99086219Y-46727674D01*
X102000000Y-46975000D02*
X99333545Y-46975000D01*
D27*
X86258002Y-54500000D02*
X83475000Y-54500000D01*
X88808002Y-51950000D02*
X86258002Y-54500000D01*
X91000000Y-51950000D02*
X88808002Y-51950000D01*
X96500000Y-78430000D02*
X98190000Y-80120000D01*
X96500000Y-75017189D02*
X96500000Y-78430000D01*
X98000000Y-73517189D02*
X96500000Y-75017189D01*
X99089999Y-79220001D02*
X98190000Y-80120000D01*
X99540001Y-78769999D02*
X99089999Y-79220001D01*
X109539999Y-78769999D02*
X99540001Y-78769999D01*
X110890000Y-80120000D02*
X109539999Y-78769999D01*
D29*
X131376628Y-60623372D02*
X128000000Y-64000000D01*
X131401628Y-60623372D02*
X131376628Y-60623372D01*
X132025000Y-60000000D02*
X131401628Y-60623372D01*
D31*
G04 #@! TO.N,VCC*
X93500000Y-91000000D02*
X94000000Y-91500000D01*
X93500000Y-88750000D02*
X93500000Y-91000000D01*
D27*
X95750000Y-89750000D02*
X94000000Y-91500000D01*
D31*
X105880668Y-70429689D02*
X107880668Y-70429689D01*
X107880668Y-70304332D02*
X114700000Y-63485000D01*
X107880668Y-70429689D02*
X107880668Y-70304332D01*
X104350978Y-68899999D02*
X105880668Y-70429689D01*
X99145794Y-68899999D02*
X104350978Y-68899999D01*
X94009999Y-74035794D02*
X99145794Y-68899999D01*
X94009999Y-79220001D02*
X94009999Y-74035794D01*
X93110000Y-80120000D02*
X94009999Y-79220001D01*
D27*
G04 #@! TO.N,+3V3*
X98000000Y-71942189D02*
X99480668Y-71942189D01*
X99480668Y-71942189D02*
X100793168Y-71942189D01*
X96580001Y-92638199D02*
X93101600Y-96116600D01*
X101500000Y-72649021D02*
X101580668Y-72729689D01*
X101500000Y-70000000D02*
X101500000Y-72649021D01*
X93101600Y-96116600D02*
X96718200Y-92500000D01*
D29*
X119491992Y-65991992D02*
X120969669Y-67469669D01*
X120935913Y-62648311D02*
X119491992Y-64092232D01*
X119491992Y-64092232D02*
X119491992Y-65991992D01*
X128627142Y-65372858D02*
X130000000Y-64000000D01*
X127041382Y-65372858D02*
X128627142Y-65372858D01*
X124914220Y-67500020D02*
X127041382Y-65372858D01*
X122633891Y-68633891D02*
X123767762Y-67500020D01*
X123767762Y-67500020D02*
X124914220Y-67500020D01*
D27*
X96648311Y-49064087D02*
X96648311Y-49326689D01*
X96648311Y-49326689D02*
X94000000Y-51975000D01*
X94000000Y-52650000D02*
X94000000Y-51975000D01*
X94000000Y-53565685D02*
X94000000Y-52650000D01*
X95434315Y-55000000D02*
X94000000Y-53565685D01*
X96000000Y-55000000D02*
X95434315Y-55000000D01*
X95650000Y-74292189D02*
X95650000Y-80120000D01*
X98000000Y-71942189D02*
X95650000Y-74292189D01*
D31*
X107880668Y-72729689D02*
X101580668Y-72729689D01*
X100793168Y-71942189D02*
X98000000Y-71942189D01*
X101580668Y-72729689D02*
X100793168Y-71942189D01*
X95549990Y-80019990D02*
X95650000Y-80120000D01*
X95549990Y-74192873D02*
X95549990Y-80019990D01*
X97800674Y-71942189D02*
X95549990Y-74192873D01*
X99480668Y-71942189D02*
X97800674Y-71942189D01*
D27*
X93101600Y-96116600D02*
X93101600Y-97466600D01*
X96600001Y-92618199D02*
X93101600Y-96116600D01*
X96600001Y-89341999D02*
X96600001Y-92618199D01*
X96580001Y-89321999D02*
X96600001Y-89341999D01*
X96580001Y-86419999D02*
X96580001Y-89321999D01*
X98000000Y-85000000D02*
X96580001Y-86419999D01*
G04 #@! TO.N,+BATT*
X104175000Y-102000000D02*
X105300001Y-103125001D01*
X104175000Y-102000000D02*
X107110001Y-104935001D01*
X103000000Y-102000000D02*
X104175000Y-102000000D01*
X105939001Y-109450001D02*
X95894339Y-109450001D01*
X107110001Y-104935001D02*
X107110001Y-108279001D01*
X107110001Y-108279001D02*
X105939001Y-109450001D01*
D31*
X106488992Y-109350010D02*
X107360001Y-108479001D01*
X95406012Y-109350010D02*
X106488992Y-109350010D01*
X87113132Y-101057130D02*
X95406012Y-109350010D01*
X107360001Y-104685001D02*
X104675000Y-102000000D01*
X85307130Y-101057130D02*
X87113132Y-101057130D01*
X104675000Y-102000000D02*
X103000000Y-102000000D01*
X84000000Y-99750000D02*
X85307130Y-101057130D01*
X118150000Y-102250000D02*
X120000000Y-102250000D01*
X115464999Y-104935001D02*
X118150000Y-102250000D01*
X108925000Y-104935001D02*
X107360001Y-106500000D01*
X115464999Y-104935001D02*
X108925000Y-104935001D01*
X107360001Y-108479001D02*
X107360001Y-106500000D01*
X107360001Y-106500000D02*
X107360001Y-104685001D01*
D28*
G04 #@! TO.N,Net-(D1-Pad2)*
X74025000Y-59475000D02*
X74025000Y-60000000D01*
D29*
X74025000Y-60525000D02*
X74025000Y-60000000D01*
X80500000Y-67000000D02*
X74025000Y-60525000D01*
G04 #@! TO.N,Net-(D2-Pad2)*
X104006041Y-83006041D02*
X103500000Y-82500000D01*
X107493959Y-83006041D02*
X104006041Y-83006041D01*
X102623372Y-48401628D02*
X102000000Y-49025000D01*
X103050010Y-46752276D02*
X103050010Y-47974990D01*
X104508575Y-45293711D02*
X103050010Y-46752276D01*
X107731186Y-45293711D02*
X104508575Y-45293711D01*
X108381186Y-45943711D02*
X107731186Y-45293711D01*
X111627596Y-51000010D02*
X108381186Y-47753600D01*
X113648556Y-51000010D02*
X111627596Y-51000010D01*
X115489642Y-52841096D02*
X113648556Y-51000010D01*
X115489642Y-54622724D02*
X115489642Y-52841096D01*
X114522273Y-55590093D02*
X115489642Y-54622724D01*
X114522273Y-59612094D02*
X114522273Y-55590093D01*
X108381186Y-47753600D02*
X108381186Y-45943711D01*
X116750020Y-61839841D02*
X114522273Y-59612094D01*
X116750020Y-70904982D02*
X116750020Y-61839841D01*
X115300001Y-72355001D02*
X116750020Y-70904982D01*
X103050010Y-47974990D02*
X102623372Y-48401628D01*
X114139997Y-72355001D02*
X115300001Y-72355001D01*
X112472525Y-74022473D02*
X114139997Y-72355001D01*
X112472525Y-80027475D02*
X112472525Y-74022473D01*
G04 #@! TO.N,Net-(D3-Pad2)*
X125676182Y-63255190D02*
X127142851Y-61788521D01*
X125676182Y-64970505D02*
X125676182Y-63255190D01*
X124146687Y-66500000D02*
X125676182Y-64970505D01*
X120250001Y-69249999D02*
X123000000Y-66500000D01*
X120250001Y-71860001D02*
X120250001Y-69249999D01*
X119110002Y-73000000D02*
X120250001Y-71860001D01*
X112500000Y-81500000D02*
X114024999Y-79975001D01*
X114024999Y-79975001D02*
X115300001Y-79975001D01*
X123000000Y-66500000D02*
X124146687Y-66500000D01*
X115300001Y-79975001D02*
X115950001Y-79325001D01*
X115950001Y-79325001D02*
X115950001Y-76799999D01*
X115950001Y-76799999D02*
X119110002Y-73639998D01*
X119110002Y-73639998D02*
X119110002Y-73000000D01*
G04 #@! TO.N,Net-(D4-Pad2)*
X77639999Y-58749999D02*
X77000000Y-59389998D01*
X77000000Y-61347712D02*
X80737635Y-65085347D01*
X77000000Y-59389998D02*
X77000000Y-61347712D01*
X78360001Y-58749999D02*
X77639999Y-58749999D01*
X78559992Y-58949990D02*
X78360001Y-58749999D01*
X80124990Y-58949990D02*
X78559992Y-58949990D01*
X80200000Y-59025000D02*
X80124990Y-58949990D01*
X81000000Y-59025000D02*
X80200000Y-59025000D01*
D28*
G04 #@! TO.N,Net-(D5-Pad2)*
X93167723Y-60952977D02*
X92663275Y-60448529D01*
D29*
X91000000Y-56177251D02*
X90905000Y-56272251D01*
X91000000Y-54000000D02*
X91000000Y-56177251D01*
G04 #@! TO.N,Net-(D6-Pad2)*
X102139563Y-54139563D02*
X102000000Y-54000000D01*
X102000000Y-64000000D02*
X102000000Y-54000000D01*
X98864843Y-50864843D02*
X98864843Y-49258007D01*
X102000000Y-54000000D02*
X98864843Y-50864843D01*
G04 #@! TO.N,Net-(D7-Pad2)*
X109000000Y-59220909D02*
X109206025Y-59014884D01*
X109000000Y-61500000D02*
X109000000Y-59220909D01*
X112200000Y-54025000D02*
X113000000Y-54025000D01*
X109206025Y-57018975D02*
X112200000Y-54025000D01*
X109206025Y-59014884D02*
X109206025Y-57018975D01*
G04 #@! TO.N,Net-(D8-Pad2)*
X122961523Y-59063477D02*
X123000000Y-59025000D01*
X122376628Y-59648372D02*
X123000000Y-59025000D01*
X122185914Y-59839086D02*
X122376628Y-59648372D01*
X122185914Y-63420922D02*
X122185914Y-59839086D01*
X120741993Y-64864843D02*
X122185914Y-63420922D01*
D28*
G04 #@! TO.N,26*
X97500000Y-77000000D02*
X106000000Y-77000000D01*
D29*
G04 #@! TO.N,3*
X104113320Y-87250984D02*
X104500000Y-86864304D01*
X97430001Y-87250984D02*
X104113320Y-87250984D01*
D30*
G04 #@! TO.N,36*
X78565685Y-59500000D02*
X78000000Y-59500000D01*
X79098899Y-59500000D02*
X78565685Y-59500000D01*
X82244159Y-62645260D02*
X79098899Y-59500000D01*
X83098952Y-62645260D02*
X82244159Y-62645260D01*
D29*
X82768942Y-62315250D02*
X83098952Y-62645260D01*
X82768942Y-60231058D02*
X82768942Y-62315250D01*
D30*
G04 #@! TO.N,39*
X93054152Y-57500000D02*
X93112023Y-57557871D01*
X89500000Y-57500000D02*
X93054152Y-57500000D01*
X86500000Y-49412116D02*
X86500000Y-53000000D01*
X90456058Y-45456058D02*
X86500000Y-49412116D01*
G04 #@! TO.N,34*
X116539641Y-55055975D02*
X116139642Y-55455974D01*
X118395617Y-53199999D02*
X116539641Y-55055975D01*
X121743102Y-53199999D02*
X118395617Y-53199999D01*
X126000000Y-60500000D02*
X126000000Y-57456897D01*
X126000000Y-57456897D02*
X121743102Y-53199999D01*
D29*
G04 #@! TO.N,32*
X114700000Y-86345000D02*
X119500000Y-81545000D01*
X119500000Y-81545000D02*
X119500000Y-81500000D01*
X119500000Y-79000000D02*
X119500000Y-75000000D01*
X119500000Y-68649567D02*
X119500000Y-71500000D01*
X118850433Y-68000000D02*
X118850433Y-59850433D01*
X118850433Y-68000000D02*
X119500000Y-68649567D01*
X118850433Y-59850433D02*
X118850433Y-56850433D01*
X118850433Y-56850433D02*
X118000000Y-56000000D01*
X105065686Y-55000000D02*
X104500001Y-55000000D01*
X107060687Y-55000000D02*
X105065686Y-55000000D01*
X109060687Y-53000000D02*
X107060687Y-55000000D01*
X114000000Y-53000000D02*
X109060687Y-53000000D01*
G04 #@! TO.N,33*
X107354740Y-49098952D02*
X108098952Y-49098952D01*
X115599999Y-82905001D02*
X114700000Y-83805000D01*
X116859868Y-82905001D02*
X115599999Y-82905001D01*
X120250001Y-72567121D02*
X120250001Y-79514868D01*
X120750011Y-72067111D02*
X120250001Y-72567121D01*
X120750011Y-69457109D02*
X120750011Y-72067111D01*
X124707110Y-67000010D02*
X123207110Y-67000010D01*
X126541374Y-65165746D02*
X124707110Y-67000010D01*
X110500000Y-48762412D02*
X112237588Y-50500000D01*
X112237588Y-50500000D02*
X119891644Y-50500000D01*
X119891644Y-50500000D02*
X127892852Y-58501208D01*
X127892852Y-58501208D02*
X127892852Y-62148522D01*
X120250001Y-79514868D02*
X116859868Y-82905001D01*
X123207110Y-67000010D02*
X120750011Y-69457109D01*
X127892852Y-62148522D02*
X126541374Y-63500000D01*
X126541374Y-63500000D02*
X126541374Y-65165746D01*
G04 #@! TO.N,13*
X118000000Y-68259569D02*
X117500000Y-68759569D01*
X117500000Y-68759569D02*
X117500000Y-74000000D01*
X117500000Y-77000000D02*
X117500000Y-79000000D01*
X117500000Y-79000000D02*
X118500000Y-80000000D01*
D30*
X121200001Y-94200001D02*
X121200001Y-84700001D01*
X121200001Y-84700001D02*
X119500000Y-83000000D01*
X121100000Y-137850000D02*
X121100000Y-139000000D01*
X121250001Y-137699999D02*
X121100000Y-137850000D01*
X121250001Y-99109999D02*
X121250001Y-137699999D01*
X121169668Y-99029666D02*
X121250001Y-99109999D01*
X121169668Y-94230334D02*
X121169668Y-99029666D01*
X121200001Y-94200001D02*
X121169668Y-94230334D01*
D28*
G04 #@! TO.N,12*
X116300011Y-69504989D02*
X114700000Y-71105000D01*
X104500000Y-59500000D02*
X105963998Y-59500000D01*
X108992593Y-62528595D02*
X112471405Y-62528595D01*
X112471405Y-62528595D02*
X113115011Y-61884989D01*
X116300011Y-62743310D02*
X116300011Y-69504989D01*
X105963998Y-59500000D02*
X108992593Y-62528595D01*
X113115011Y-61884989D02*
X115441690Y-61884989D01*
X115441690Y-61884989D02*
X116300011Y-62743310D01*
D27*
G04 #@! TO.N,Net-(J2-Pad2)*
X94374999Y-100874999D02*
X95500000Y-102000000D01*
X93999997Y-100874999D02*
X94374999Y-100874999D01*
X91801599Y-98676601D02*
X93999997Y-100874999D01*
X91801599Y-83440399D02*
X91801599Y-98676601D01*
X93071987Y-82170011D02*
X91801599Y-83440399D01*
X101219989Y-82170011D02*
X93071987Y-82170011D01*
X103270000Y-80120000D02*
X101219989Y-82170011D01*
G04 #@! TO.N,Net-(J2-Pad1)*
X99379999Y-81470001D02*
X100730000Y-80120000D01*
X91000000Y-83252036D02*
X92782035Y-81470001D01*
X91000000Y-98864965D02*
X91000000Y-83252036D01*
X93500000Y-101364965D02*
X91000000Y-98864965D01*
X92782035Y-81470001D02*
X99379999Y-81470001D01*
X93500000Y-102000000D02*
X93500000Y-101364965D01*
D29*
G04 #@! TO.N,22_SCL1*
X89300000Y-96505000D02*
X88049999Y-97755001D01*
X88049999Y-97755001D02*
X88049999Y-100049999D01*
X96637189Y-103525011D02*
X98181600Y-101980600D01*
X91525011Y-103525011D02*
X96637189Y-103525011D01*
X88049999Y-100049999D02*
X91525011Y-103525011D01*
X98181600Y-101980600D02*
X98181600Y-97466600D01*
X103270000Y-107069000D02*
X98181600Y-101980600D01*
G04 #@! TO.N,21_SDA1*
X87500000Y-90685000D02*
X89300000Y-88885000D01*
X87500000Y-100207120D02*
X87500000Y-90685000D01*
X95792880Y-108500000D02*
X87500000Y-100207120D01*
X103615002Y-108500000D02*
X95792880Y-108500000D01*
X105046002Y-107069000D02*
X103615002Y-108500000D01*
X105810000Y-107069000D02*
X105046002Y-107069000D01*
X99871601Y-98316599D02*
X100721600Y-97466600D01*
X99871601Y-102388603D02*
X99871601Y-98316599D01*
X100507999Y-103025001D02*
X99871601Y-102388603D01*
X102916001Y-103025001D02*
X100507999Y-103025001D01*
X105810000Y-105919000D02*
X102916001Y-103025001D01*
X105810000Y-107069000D02*
X105810000Y-105919000D01*
D27*
G04 #@! TO.N,Net-(J4-Pad1)*
X111675000Y-102000000D02*
X110500000Y-102000000D01*
X113000000Y-100675000D02*
X111675000Y-102000000D01*
X113000000Y-84770000D02*
X113000000Y-100675000D01*
X108350000Y-80120000D02*
X113000000Y-84770000D01*
G04 #@! TO.N,Net-(J4-Pad2)*
X112181601Y-98318399D02*
X108500000Y-102000000D01*
X112181601Y-85225599D02*
X112181601Y-98318399D01*
X110676001Y-83719999D02*
X112181601Y-85225599D01*
X109409999Y-83719999D02*
X110676001Y-83719999D01*
X105810000Y-80120000D02*
X109409999Y-83719999D01*
D29*
G04 #@! TO.N,19_SCL2*
X82099989Y-93545011D02*
X89300000Y-86345000D01*
X89500000Y-110741091D02*
X82099989Y-103341080D01*
X82099989Y-103341080D02*
X82099989Y-93545011D01*
X109597226Y-110741091D02*
X111750000Y-108588317D01*
X89500000Y-110741091D02*
X109597226Y-110741091D01*
X130182109Y-65525011D02*
X128707120Y-67000000D01*
X134000000Y-64000000D02*
X132474989Y-65525011D01*
X132474989Y-65525011D02*
X130182109Y-65525011D01*
X128707120Y-67000000D02*
X127000000Y-67000000D01*
X123000000Y-71000000D02*
X123000000Y-95000000D01*
X127000000Y-67000000D02*
X123000000Y-71000000D01*
G04 #@! TO.N,18_SDA2*
X81599979Y-91505021D02*
X89300000Y-83805000D01*
X83000000Y-105055662D02*
X81599979Y-103655641D01*
X81599979Y-103655641D02*
X81599979Y-91505021D01*
X83107451Y-105055662D02*
X90051789Y-112000000D01*
X83000000Y-105055662D02*
X83107451Y-105055662D01*
X110000000Y-112000000D02*
X111000000Y-111000000D01*
X90051789Y-112000000D02*
X110000000Y-112000000D01*
X121969669Y-71920329D02*
X121969669Y-94969669D01*
X132000000Y-64000000D02*
X130974999Y-65025001D01*
X129974999Y-65025001D02*
X128939320Y-66060680D01*
X128939320Y-66060680D02*
X127060680Y-66060680D01*
X127060680Y-66060680D02*
X121969669Y-71151691D01*
X130974999Y-65025001D02*
X129974999Y-65025001D01*
X121969669Y-71151691D02*
X121969669Y-71920329D01*
G04 #@! TO.N,15*
X90324999Y-67665001D02*
X93110000Y-64880000D01*
X89425000Y-68565000D02*
X89300000Y-68565000D01*
X93110000Y-64880000D02*
X89425000Y-68565000D01*
G04 #@! TO.N,2*
X89425000Y-71105000D02*
X89300000Y-71105000D01*
X95650000Y-64880000D02*
X89425000Y-71105000D01*
G04 #@! TO.N,4*
X89300000Y-73645000D02*
X91500000Y-71445000D01*
X96814999Y-66130001D02*
X91500000Y-71445000D01*
X96939999Y-66130001D02*
X96814999Y-66130001D01*
X98190000Y-64880000D02*
X96939999Y-66130001D01*
G04 #@! TO.N,16*
X92000000Y-73485000D02*
X89300000Y-76185000D01*
X102019999Y-66130001D02*
X97869999Y-66130001D01*
X103270000Y-64880000D02*
X102019999Y-66130001D01*
X92000000Y-72000000D02*
X92000000Y-73485000D01*
X97869999Y-66130001D02*
X92000000Y-72000000D01*
G04 #@! TO.N,17*
X104910001Y-65779999D02*
X105810000Y-64880000D01*
X104559999Y-66130001D02*
X104910001Y-65779999D01*
X92500010Y-75524990D02*
X92500010Y-72899990D01*
X89300000Y-78725000D02*
X92500010Y-75524990D01*
X92500010Y-72899990D02*
X98000000Y-67400000D01*
X101457120Y-67400000D02*
X102727119Y-66130001D01*
X98000000Y-67400000D02*
X101457120Y-67400000D01*
X102727119Y-66130001D02*
X104559999Y-66130001D01*
G04 #@! TO.N,5*
X90199999Y-80365001D02*
X89300000Y-81265000D01*
X90550001Y-80014999D02*
X90199999Y-80365001D01*
X89300000Y-81265000D02*
X90550001Y-80014999D01*
X106599989Y-66630011D02*
X107450001Y-65779999D01*
X102934229Y-66630011D02*
X106599989Y-66630011D01*
X101664230Y-67900010D02*
X102934229Y-66630011D01*
X107450001Y-65779999D02*
X108350000Y-64880000D01*
X98943689Y-67900010D02*
X101664230Y-67900010D01*
X93000020Y-73843679D02*
X98943689Y-67900010D01*
X93000020Y-77564980D02*
X93000020Y-73843679D01*
X89300000Y-81265000D02*
X93000020Y-77564980D01*
G04 #@! TO.N,23*
X100500000Y-96266599D02*
X100145599Y-96266599D01*
X109681599Y-96266599D02*
X100500000Y-96266599D01*
X97465601Y-96266599D02*
X100500000Y-96266599D01*
X96841601Y-96890599D02*
X97465601Y-96266599D01*
X96841601Y-102175401D02*
X96841601Y-96890599D01*
X89300000Y-100317792D02*
X89300000Y-99045000D01*
X95992001Y-103025001D02*
X92007209Y-103025001D01*
X96841601Y-97030597D02*
X96841601Y-102175401D01*
X92007209Y-103025001D02*
X89300000Y-100317792D01*
X97605599Y-96266599D02*
X96841601Y-97030597D01*
X96841601Y-102175401D02*
X95992001Y-103025001D01*
X109681599Y-96266599D02*
X97605599Y-96266599D01*
X110881600Y-97466600D02*
X109681599Y-96266599D01*
G04 #@! TD*
D32*
G04 #@! TO.N,GND*
G36*
X104226537Y-42303186D02*
X106590015Y-42523359D01*
X108934382Y-42895596D01*
X111249817Y-43418341D01*
X113526717Y-44089424D01*
X115755551Y-44906035D01*
X117927037Y-45864777D01*
X120032123Y-46961646D01*
X122062057Y-48192089D01*
X124008340Y-49550950D01*
X125862888Y-51032588D01*
X127617946Y-52630806D01*
X129266218Y-54338959D01*
X130800815Y-56149910D01*
X132215349Y-58056116D01*
X132608921Y-58665000D01*
X132310750Y-58665000D01*
X132152000Y-58823750D01*
X132152000Y-59873000D01*
X133076250Y-59873000D01*
X133235000Y-59714250D01*
X133235000Y-59633589D01*
X133503927Y-60049639D01*
X134661173Y-62122164D01*
X135682263Y-64265050D01*
X136281528Y-65765000D01*
X133345157Y-65765000D01*
X133811907Y-65298250D01*
X133870978Y-65310000D01*
X134129022Y-65310000D01*
X134511136Y-65233993D01*
X134944457Y-64944457D01*
X135233993Y-64511136D01*
X135335664Y-64000000D01*
X135233993Y-63488864D01*
X134944457Y-63055543D01*
X134511136Y-62766007D01*
X134129022Y-62690000D01*
X133870978Y-62690000D01*
X133488864Y-62766007D01*
X133055543Y-63055543D01*
X133000000Y-63138669D01*
X132944457Y-63055543D01*
X132511136Y-62766007D01*
X132129022Y-62690000D01*
X131870978Y-62690000D01*
X131488864Y-62766007D01*
X131055543Y-63055543D01*
X131000000Y-63138669D01*
X130944457Y-63055543D01*
X130511136Y-62766007D01*
X130129022Y-62690000D01*
X129870978Y-62690000D01*
X129488864Y-62766007D01*
X129204223Y-62956198D01*
X129034699Y-62786673D01*
X128801310Y-62690000D01*
X128475159Y-62690000D01*
X128632306Y-62454814D01*
X128677852Y-62225838D01*
X128677852Y-62225834D01*
X128693230Y-62148522D01*
X128677852Y-62071210D01*
X128677852Y-59549999D01*
X128752560Y-59549999D01*
X128752560Y-60450001D01*
X128820873Y-60793436D01*
X129015414Y-61084586D01*
X129306564Y-61279127D01*
X129649999Y-61347440D01*
X130300001Y-61347440D01*
X130643436Y-61279127D01*
X130934586Y-61084586D01*
X130935377Y-61083403D01*
X131090302Y-61238327D01*
X131323691Y-61335000D01*
X131739250Y-61335000D01*
X131898000Y-61176250D01*
X131898000Y-60127000D01*
X132152000Y-60127000D01*
X132152000Y-61176250D01*
X132310750Y-61335000D01*
X132726309Y-61335000D01*
X132959698Y-61238327D01*
X133138327Y-61059699D01*
X133235000Y-60826310D01*
X133235000Y-60285750D01*
X133076250Y-60127000D01*
X132152000Y-60127000D01*
X131898000Y-60127000D01*
X131878000Y-60127000D01*
X131878000Y-59873000D01*
X131898000Y-59873000D01*
X131898000Y-58823750D01*
X131739250Y-58665000D01*
X131323691Y-58665000D01*
X131090302Y-58761673D01*
X130935377Y-58916597D01*
X130934586Y-58915414D01*
X130643436Y-58720873D01*
X130300001Y-58652560D01*
X129649999Y-58652560D01*
X129306564Y-58720873D01*
X129015414Y-58915414D01*
X128820873Y-59206564D01*
X128752560Y-59549999D01*
X128677852Y-59549999D01*
X128677852Y-58578520D01*
X128693230Y-58501208D01*
X128677852Y-58423896D01*
X128677852Y-58423892D01*
X128632306Y-58194916D01*
X128598307Y-58144033D01*
X128502601Y-58000799D01*
X128502599Y-58000797D01*
X128458805Y-57935255D01*
X128393263Y-57891461D01*
X120501393Y-49999592D01*
X120457597Y-49934047D01*
X120197936Y-49760546D01*
X119968960Y-49715000D01*
X119968956Y-49715000D01*
X119891644Y-49699622D01*
X119814332Y-49715000D01*
X113105691Y-49715000D01*
X113315352Y-49505339D01*
X113488145Y-49088179D01*
X113488145Y-48636647D01*
X113315352Y-48219487D01*
X112996071Y-47900206D01*
X112578911Y-47727413D01*
X112127379Y-47727413D01*
X111710219Y-47900206D01*
X111394085Y-48216340D01*
X111377431Y-48176132D01*
X111086280Y-47884981D01*
X110705874Y-47727412D01*
X110294126Y-47727412D01*
X109913720Y-47884981D01*
X109768222Y-48030479D01*
X109166186Y-47428443D01*
X109166186Y-46021023D01*
X109181564Y-45943711D01*
X109166186Y-45866399D01*
X109166186Y-45866395D01*
X109120780Y-45638118D01*
X110906678Y-45638118D01*
X110906678Y-46109540D01*
X111087083Y-46545078D01*
X111420429Y-46878424D01*
X111855967Y-47058829D01*
X112327389Y-47058829D01*
X112762927Y-46878424D01*
X113096273Y-46545078D01*
X113276678Y-46109540D01*
X113276678Y-45638118D01*
X113096273Y-45202580D01*
X112762927Y-44869234D01*
X112327389Y-44688829D01*
X111855967Y-44688829D01*
X111420429Y-44869234D01*
X111087083Y-45202580D01*
X110906678Y-45638118D01*
X109120780Y-45638118D01*
X109120640Y-45637419D01*
X109095333Y-45599544D01*
X108990935Y-45443302D01*
X108990933Y-45443300D01*
X108947139Y-45377758D01*
X108881596Y-45333964D01*
X108340935Y-44793303D01*
X108297139Y-44727758D01*
X108037478Y-44554257D01*
X107808502Y-44508711D01*
X107808498Y-44508711D01*
X107731186Y-44493333D01*
X107653874Y-44508711D01*
X104585885Y-44508711D01*
X104508574Y-44493333D01*
X104431263Y-44508711D01*
X104431259Y-44508711D01*
X104202283Y-44554257D01*
X104135969Y-44598567D01*
X104008166Y-44683962D01*
X104008164Y-44683964D01*
X103942622Y-44727758D01*
X103898828Y-44793300D01*
X102897600Y-45794529D01*
X102826310Y-45765000D01*
X102285750Y-45765000D01*
X102127000Y-45923750D01*
X102127000Y-46848000D01*
X102147000Y-46848000D01*
X102147000Y-47102000D01*
X102127000Y-47102000D01*
X102127000Y-47122000D01*
X101873000Y-47122000D01*
X101873000Y-47102000D01*
X100823750Y-47102000D01*
X100665000Y-47260750D01*
X100665000Y-47676309D01*
X100761673Y-47909698D01*
X100916597Y-48064623D01*
X100915414Y-48065414D01*
X100720873Y-48356564D01*
X100652560Y-48699999D01*
X100652560Y-49350001D01*
X100720873Y-49693436D01*
X100915414Y-49984586D01*
X101206564Y-50179127D01*
X101549999Y-50247440D01*
X102450001Y-50247440D01*
X102793436Y-50179127D01*
X103084586Y-49984586D01*
X103279127Y-49693436D01*
X103280523Y-49686415D01*
X103631774Y-49686415D01*
X103696318Y-50424156D01*
X103812964Y-50648231D01*
X104006481Y-50810612D01*
X104247407Y-50886576D01*
X104499065Y-50864558D01*
X104985149Y-50822032D01*
X105129459Y-50650050D01*
X105020580Y-49405554D01*
X103776084Y-49514433D01*
X103631774Y-49686415D01*
X103280523Y-49686415D01*
X103347440Y-49350001D01*
X103347440Y-48787717D01*
X103536598Y-48598559D01*
X103581964Y-49117089D01*
X103753946Y-49261399D01*
X104998442Y-49152520D01*
X104996699Y-49132596D01*
X105249733Y-49110458D01*
X105251476Y-49130382D01*
X105271400Y-49128639D01*
X105293538Y-49381673D01*
X105273614Y-49383416D01*
X105382493Y-50627912D01*
X105554475Y-50772222D01*
X106040559Y-50729695D01*
X106292217Y-50707678D01*
X106332905Y-50686497D01*
X106341916Y-50691441D01*
X106593033Y-50718943D01*
X108386183Y-50562063D01*
X108628709Y-50491373D01*
X108825723Y-50333253D01*
X108947229Y-50111776D01*
X108974731Y-49860659D01*
X108936059Y-49418630D01*
X111017849Y-51500421D01*
X111061643Y-51565963D01*
X111127185Y-51609757D01*
X111127187Y-51609759D01*
X111276134Y-51709282D01*
X111321304Y-51739464D01*
X111550280Y-51785010D01*
X111550283Y-51785010D01*
X111627595Y-51800388D01*
X111704907Y-51785010D01*
X111760760Y-51785010D01*
X111823750Y-51848000D01*
X112873000Y-51848000D01*
X112873000Y-51828000D01*
X113127000Y-51828000D01*
X113127000Y-51848000D01*
X113147000Y-51848000D01*
X113147000Y-52102000D01*
X113127000Y-52102000D01*
X113127000Y-52122000D01*
X112873000Y-52122000D01*
X112873000Y-52102000D01*
X111823750Y-52102000D01*
X111710750Y-52215000D01*
X109137997Y-52215000D01*
X109060686Y-52199622D01*
X108983375Y-52215000D01*
X108983371Y-52215000D01*
X108754395Y-52260546D01*
X108635312Y-52340115D01*
X108625099Y-52346940D01*
X108621409Y-52328391D01*
X108240972Y-51759028D01*
X107671609Y-51378591D01*
X107000000Y-51245000D01*
X106328391Y-51378591D01*
X105759028Y-51759028D01*
X105378591Y-52328391D01*
X105245000Y-53000000D01*
X105378591Y-53671609D01*
X105741674Y-54215000D01*
X105178712Y-54215000D01*
X105086281Y-54122569D01*
X104705875Y-53965000D01*
X104294127Y-53965000D01*
X103913721Y-54122569D01*
X103622570Y-54413720D01*
X103465001Y-54794126D01*
X103465001Y-55205874D01*
X103622570Y-55586280D01*
X103913721Y-55877431D01*
X104294127Y-56035000D01*
X104705875Y-56035000D01*
X105086281Y-55877431D01*
X105178712Y-55785000D01*
X106983375Y-55785000D01*
X107060687Y-55800378D01*
X107137999Y-55785000D01*
X107138003Y-55785000D01*
X107366979Y-55739454D01*
X107626640Y-55565953D01*
X107670436Y-55500408D01*
X109385845Y-53785000D01*
X111329842Y-53785000D01*
X108705615Y-56409228D01*
X108640073Y-56453022D01*
X108596279Y-56518564D01*
X108596276Y-56518567D01*
X108466571Y-56712684D01*
X108405647Y-57018975D01*
X108421026Y-57096291D01*
X108421026Y-57678570D01*
X108336518Y-57713574D01*
X107904715Y-58145377D01*
X107671025Y-58709554D01*
X107671025Y-59320214D01*
X107904715Y-59884391D01*
X108215001Y-60194677D01*
X108215000Y-60711556D01*
X106534909Y-59031465D01*
X106493903Y-58970095D01*
X106250781Y-58807646D01*
X106036386Y-58765000D01*
X106036382Y-58765000D01*
X105963998Y-58750602D01*
X105891614Y-58765000D01*
X105228711Y-58765000D01*
X105086280Y-58622569D01*
X104705874Y-58465000D01*
X104294126Y-58465000D01*
X103913720Y-58622569D01*
X103622569Y-58913720D01*
X103465000Y-59294126D01*
X103465000Y-59705874D01*
X103622569Y-60086280D01*
X103872998Y-60336709D01*
X103872998Y-60398748D01*
X103714250Y-60240000D01*
X102785000Y-60240000D01*
X102785000Y-55155805D01*
X102793436Y-55154127D01*
X103084586Y-54959586D01*
X103279127Y-54668436D01*
X103347440Y-54325001D01*
X103347440Y-53674999D01*
X103279127Y-53331564D01*
X103084586Y-53040414D01*
X103083403Y-53039623D01*
X103238327Y-52884698D01*
X103335000Y-52651309D01*
X103335000Y-52235750D01*
X103176250Y-52077000D01*
X102127000Y-52077000D01*
X102127000Y-52097000D01*
X101873000Y-52097000D01*
X101873000Y-52077000D01*
X101853000Y-52077000D01*
X101853000Y-51823000D01*
X101873000Y-51823000D01*
X101873000Y-50898750D01*
X102127000Y-50898750D01*
X102127000Y-51823000D01*
X103176250Y-51823000D01*
X103335000Y-51664250D01*
X103335000Y-51248691D01*
X103238327Y-51015302D01*
X103059699Y-50836673D01*
X102826310Y-50740000D01*
X102285750Y-50740000D01*
X102127000Y-50898750D01*
X101873000Y-50898750D01*
X101714250Y-50740000D01*
X101173690Y-50740000D01*
X100940301Y-50836673D01*
X100761673Y-51015302D01*
X100665000Y-51248691D01*
X100665000Y-51554843D01*
X99688476Y-50578319D01*
X99734350Y-50559317D01*
X100166153Y-50127514D01*
X100399843Y-49563337D01*
X100399843Y-48952677D01*
X100166153Y-48388500D01*
X100088194Y-48310541D01*
X100215766Y-48270318D01*
X100409283Y-48107937D01*
X100525929Y-47883862D01*
X100590473Y-47146121D01*
X100446163Y-46974139D01*
X99201667Y-46865260D01*
X99199924Y-46885184D01*
X98946890Y-46863046D01*
X98948633Y-46843122D01*
X98928709Y-46841379D01*
X98948757Y-46612226D01*
X99223805Y-46612226D01*
X100468301Y-46721105D01*
X100640283Y-46576795D01*
X100665000Y-46294279D01*
X100665000Y-46689250D01*
X100823750Y-46848000D01*
X101873000Y-46848000D01*
X101873000Y-45923750D01*
X101714250Y-45765000D01*
X101173690Y-45765000D01*
X100940301Y-45861673D01*
X100761673Y-46040302D01*
X100667283Y-46268178D01*
X100704827Y-45839054D01*
X100628863Y-45598128D01*
X100466483Y-45404610D01*
X100242408Y-45287964D01*
X99990750Y-45265947D01*
X99504666Y-45223420D01*
X99332684Y-45367730D01*
X99223805Y-46612226D01*
X98948757Y-46612226D01*
X98950847Y-46588345D01*
X98970771Y-46590088D01*
X99079650Y-45345592D01*
X98935340Y-45173610D01*
X98449256Y-45131084D01*
X98197598Y-45109066D01*
X98153850Y-45122860D01*
X98145833Y-45116426D01*
X97903307Y-45045736D01*
X96110157Y-44888856D01*
X95859040Y-44916358D01*
X95637563Y-45037864D01*
X95479443Y-45234878D01*
X95408753Y-45477404D01*
X95251873Y-47270554D01*
X95279375Y-47521671D01*
X95400881Y-47743148D01*
X95597895Y-47901268D01*
X95630740Y-47910841D01*
X95347001Y-48194580D01*
X95113311Y-48758757D01*
X95113311Y-49369417D01*
X95183808Y-49539613D01*
X93775853Y-50947569D01*
X93413720Y-51097569D01*
X93122569Y-51388720D01*
X92965000Y-51769126D01*
X92965000Y-52180874D01*
X93115000Y-52543007D01*
X93115000Y-52737164D01*
X93115001Y-52737168D01*
X93115000Y-53478524D01*
X93097663Y-53565685D01*
X93115000Y-53652846D01*
X93115000Y-53652849D01*
X93166348Y-53910994D01*
X93361951Y-54203734D01*
X93435847Y-54253110D01*
X94746892Y-55564156D01*
X94796266Y-55638049D01*
X94870159Y-55687423D01*
X94870160Y-55687424D01*
X95029593Y-55793954D01*
X95089005Y-55833652D01*
X95347150Y-55885000D01*
X95347154Y-55885000D01*
X95434315Y-55902337D01*
X95461023Y-55897025D01*
X95794126Y-56035000D01*
X96205874Y-56035000D01*
X96586280Y-55877431D01*
X96877431Y-55586280D01*
X97035000Y-55205874D01*
X97035000Y-54794126D01*
X97017363Y-54751546D01*
X97671609Y-54621409D01*
X98240972Y-54240972D01*
X98621409Y-53671609D01*
X98755000Y-53000000D01*
X98621409Y-52328391D01*
X98240972Y-51759028D01*
X97671609Y-51378591D01*
X97000000Y-51245000D01*
X96328391Y-51378591D01*
X95759028Y-51759028D01*
X95378591Y-52328391D01*
X95245000Y-53000000D01*
X95378591Y-53671609D01*
X95421056Y-53735163D01*
X94885000Y-53199107D01*
X94885000Y-52543007D01*
X95027431Y-52199147D01*
X96627492Y-50599087D01*
X96953641Y-50599087D01*
X97517818Y-50365397D01*
X97659617Y-50223598D01*
X97995336Y-50559317D01*
X98079843Y-50594321D01*
X98079843Y-50787531D01*
X98064465Y-50864843D01*
X98079843Y-50942155D01*
X98079843Y-50942158D01*
X98119464Y-51141348D01*
X98125389Y-51171134D01*
X98215706Y-51306302D01*
X98298890Y-51430796D01*
X98364435Y-51474592D01*
X100652560Y-53762717D01*
X100652560Y-54325001D01*
X100720873Y-54668436D01*
X100915414Y-54959586D01*
X101206564Y-55154127D01*
X101215001Y-55155805D01*
X101215001Y-56227560D01*
X98500000Y-56227560D01*
X98252235Y-56276843D01*
X98042191Y-56417191D01*
X97901843Y-56627235D01*
X97852560Y-56875000D01*
X97852560Y-58125000D01*
X97901843Y-58372765D01*
X98042191Y-58582809D01*
X98252235Y-58723157D01*
X98500000Y-58772440D01*
X101215001Y-58772440D01*
X101215000Y-60227560D01*
X98500000Y-60227560D01*
X98252235Y-60276843D01*
X98042191Y-60417191D01*
X97901843Y-60627235D01*
X97852560Y-60875000D01*
X97852560Y-62125000D01*
X97901843Y-62372765D01*
X98042191Y-62582809D01*
X98252235Y-62723157D01*
X98500000Y-62772440D01*
X101215000Y-62772440D01*
X101215000Y-63321289D01*
X101139839Y-63396450D01*
X100881182Y-63345000D01*
X100578818Y-63345000D01*
X100131073Y-63434062D01*
X99623327Y-63773327D01*
X99460000Y-64017763D01*
X99296673Y-63773327D01*
X98788927Y-63434062D01*
X98341182Y-63345000D01*
X98038818Y-63345000D01*
X97591073Y-63434062D01*
X97083327Y-63773327D01*
X96920000Y-64017763D01*
X96756673Y-63773327D01*
X96248927Y-63434062D01*
X95801182Y-63345000D01*
X95498818Y-63345000D01*
X95051073Y-63434062D01*
X94543327Y-63773327D01*
X94380000Y-64017763D01*
X94216673Y-63773327D01*
X93708927Y-63434062D01*
X93261182Y-63345000D01*
X92958818Y-63345000D01*
X92511073Y-63434062D01*
X92003327Y-63773327D01*
X91664062Y-64281073D01*
X91544928Y-64880000D01*
X91620403Y-65259439D01*
X90837098Y-66042745D01*
X90820839Y-65655540D01*
X90636643Y-65210852D01*
X90380161Y-65124447D01*
X90494718Y-65009890D01*
X90459886Y-64975058D01*
X90657809Y-64842809D01*
X90798157Y-64632765D01*
X90847440Y-64385000D01*
X90847440Y-62585000D01*
X90798157Y-62337235D01*
X90657809Y-62127191D01*
X90447765Y-61986843D01*
X90200000Y-61937560D01*
X88400000Y-61937560D01*
X88152235Y-61986843D01*
X87942191Y-62127191D01*
X87801843Y-62337235D01*
X87752560Y-62585000D01*
X87752560Y-64385000D01*
X87801843Y-64632765D01*
X87942191Y-64842809D01*
X88140114Y-64975058D01*
X88105282Y-65009890D01*
X88219839Y-65124447D01*
X87963357Y-65210852D01*
X87753542Y-65784336D01*
X87779161Y-66394460D01*
X87963357Y-66839148D01*
X88219841Y-66925554D01*
X89120395Y-66025000D01*
X89106253Y-66010858D01*
X89285858Y-65831253D01*
X89300000Y-65845395D01*
X89314143Y-65831253D01*
X89493748Y-66010858D01*
X89479605Y-66025000D01*
X89493748Y-66039143D01*
X89314143Y-66218748D01*
X89300000Y-66204605D01*
X88399446Y-67105159D01*
X88450115Y-67255562D01*
X88430493Y-67263690D01*
X87998690Y-67695493D01*
X87765000Y-68259670D01*
X87765000Y-68870330D01*
X87998690Y-69434507D01*
X88399183Y-69835000D01*
X87998690Y-70235493D01*
X87765000Y-70799670D01*
X87765000Y-71410330D01*
X87998690Y-71974507D01*
X88399183Y-72375000D01*
X87998690Y-72775493D01*
X87765000Y-73339670D01*
X87765000Y-73950330D01*
X87998690Y-74514507D01*
X88399183Y-74915000D01*
X87998690Y-75315493D01*
X87765000Y-75879670D01*
X87765000Y-76490330D01*
X87998690Y-77054507D01*
X88399183Y-77455000D01*
X87998690Y-77855493D01*
X87765000Y-78419670D01*
X87765000Y-79030330D01*
X87998690Y-79594507D01*
X88399183Y-79995000D01*
X87998690Y-80395493D01*
X87765000Y-80959670D01*
X87765000Y-81570330D01*
X87998690Y-82134507D01*
X88399183Y-82535000D01*
X87998690Y-82935493D01*
X87765000Y-83499670D01*
X87765000Y-84110330D01*
X87800004Y-84194838D01*
X81099569Y-90895274D01*
X81034027Y-90939068D01*
X80990233Y-91004610D01*
X80990230Y-91004613D01*
X80860525Y-91198730D01*
X80799601Y-91505021D01*
X80814980Y-91582338D01*
X80814979Y-103578329D01*
X80799601Y-103655641D01*
X80814979Y-103732953D01*
X80814979Y-103732956D01*
X80841414Y-103865855D01*
X80860525Y-103961932D01*
X80963947Y-104116713D01*
X81034026Y-104221594D01*
X81099571Y-104265390D01*
X82390251Y-105556070D01*
X82434047Y-105621615D01*
X82693708Y-105795116D01*
X82747435Y-105805803D01*
X84478615Y-107536983D01*
X84072035Y-107644786D01*
X83456346Y-108056176D01*
X83007109Y-108644818D01*
X82772763Y-109347240D01*
X82778578Y-110087700D01*
X83023928Y-110786355D01*
X83482357Y-111367868D01*
X84104432Y-111769537D01*
X84823075Y-111948049D01*
X85560796Y-111884155D01*
X86238046Y-111584746D01*
X86781800Y-111082105D01*
X87133422Y-110430434D01*
X87167475Y-110225844D01*
X89442042Y-112500411D01*
X89485836Y-112565953D01*
X89551378Y-112609747D01*
X89551380Y-112609749D01*
X89745497Y-112739454D01*
X89974473Y-112785000D01*
X89974477Y-112785000D01*
X90051789Y-112800378D01*
X90129101Y-112785000D01*
X109922688Y-112785000D01*
X110000000Y-112800378D01*
X110077312Y-112785000D01*
X110077316Y-112785000D01*
X110306292Y-112739454D01*
X110565953Y-112565953D01*
X110609749Y-112500408D01*
X111075157Y-112035000D01*
X111205874Y-112035000D01*
X111586280Y-111877431D01*
X111877431Y-111586280D01*
X112035000Y-111205874D01*
X112035000Y-110794126D01*
X111877431Y-110413720D01*
X111586280Y-110122569D01*
X111402167Y-110046307D01*
X111825158Y-109623317D01*
X111955874Y-109623317D01*
X112336280Y-109465748D01*
X112491640Y-109310388D01*
X113275322Y-109635000D01*
X114124678Y-109635000D01*
X114909380Y-109309966D01*
X115509966Y-108709380D01*
X115835000Y-107924678D01*
X115835000Y-107075322D01*
X115509966Y-106290620D01*
X115289347Y-106070001D01*
X115353216Y-106070001D01*
X115464999Y-106092236D01*
X115576782Y-106070001D01*
X115907854Y-106004147D01*
X116283288Y-105753290D01*
X116346612Y-105658519D01*
X118594110Y-103411022D01*
X118692191Y-103557809D01*
X118902235Y-103698157D01*
X119150000Y-103747440D01*
X120415001Y-103747440D01*
X120415001Y-107981188D01*
X120208289Y-107796041D01*
X119526419Y-107507306D01*
X118787786Y-107455008D01*
X118072035Y-107644786D01*
X117456346Y-108056176D01*
X117007109Y-108644818D01*
X116772763Y-109347240D01*
X116778578Y-110087700D01*
X117023928Y-110786355D01*
X117482357Y-111367868D01*
X118104432Y-111769537D01*
X118823075Y-111948049D01*
X119560796Y-111884155D01*
X120238046Y-111584746D01*
X120415001Y-111421170D01*
X120415002Y-128581188D01*
X120208289Y-128396041D01*
X119526419Y-128107306D01*
X118787786Y-128055008D01*
X118072035Y-128244786D01*
X117456346Y-128656176D01*
X117007109Y-129244818D01*
X116772763Y-129947240D01*
X116778578Y-130687700D01*
X117023928Y-131386355D01*
X117482357Y-131967868D01*
X118104432Y-132369537D01*
X118823075Y-132548049D01*
X119560796Y-132484155D01*
X120238046Y-132184746D01*
X120415002Y-132021170D01*
X120415002Y-137372213D01*
X120313448Y-137524200D01*
X120295713Y-137613358D01*
X120102235Y-137651843D01*
X119892191Y-137792191D01*
X119751843Y-138002235D01*
X119702560Y-138250000D01*
X119702560Y-139750000D01*
X119751843Y-139997765D01*
X119892191Y-140207809D01*
X120102235Y-140348157D01*
X120350000Y-140397440D01*
X121850000Y-140397440D01*
X122097765Y-140348157D01*
X122307809Y-140207809D01*
X122448157Y-139997765D01*
X122497440Y-139750000D01*
X122497440Y-138250000D01*
X122448157Y-138002235D01*
X122307809Y-137792191D01*
X122097765Y-137651843D01*
X122091532Y-137650603D01*
X122085001Y-137617767D01*
X122085001Y-99192231D01*
X122101358Y-99109998D01*
X122085001Y-99027763D01*
X122085001Y-99027762D01*
X122036553Y-98784198D01*
X122004668Y-98736479D01*
X122004668Y-96004669D01*
X122175543Y-96004669D01*
X122448222Y-95891722D01*
X122794126Y-96035000D01*
X123205874Y-96035000D01*
X123586280Y-95877431D01*
X123877431Y-95586280D01*
X124035000Y-95205874D01*
X124035000Y-94794126D01*
X123877431Y-94413720D01*
X123785000Y-94321289D01*
X123785000Y-71325157D01*
X125278141Y-69832017D01*
X125278578Y-69887700D01*
X125523928Y-70586355D01*
X125982357Y-71167868D01*
X126604432Y-71569537D01*
X127323075Y-71748049D01*
X128060796Y-71684155D01*
X128738046Y-71384746D01*
X129281800Y-70882105D01*
X129633422Y-70230434D01*
X129755000Y-69500000D01*
X129754722Y-69464580D01*
X129621686Y-68736146D01*
X129259871Y-68090078D01*
X128894758Y-67763056D01*
X129013412Y-67739454D01*
X129273073Y-67565953D01*
X129316869Y-67500408D01*
X129765000Y-67052277D01*
X129765001Y-137625435D01*
X129650000Y-137602560D01*
X128150000Y-137602560D01*
X127902235Y-137651843D01*
X127692191Y-137792191D01*
X127551843Y-138002235D01*
X127502560Y-138250000D01*
X127502560Y-139750000D01*
X127551843Y-139997765D01*
X127692191Y-140207809D01*
X127902235Y-140348157D01*
X128150000Y-140397440D01*
X129631679Y-140397440D01*
X129596478Y-140462678D01*
X129414450Y-140630941D01*
X129174209Y-140737151D01*
X128953761Y-140765000D01*
X89804447Y-140765000D01*
X88570911Y-139531465D01*
X88529905Y-139470095D01*
X88286783Y-139307646D01*
X88072388Y-139265000D01*
X88072384Y-139265000D01*
X88000000Y-139250602D01*
X87927616Y-139265000D01*
X87077951Y-139265000D01*
X87114603Y-139249818D01*
X87419818Y-138944603D01*
X87585000Y-138545820D01*
X87585000Y-138114180D01*
X87419818Y-137715397D01*
X87114603Y-137410182D01*
X86715820Y-137245000D01*
X86284180Y-137245000D01*
X85885397Y-137410182D01*
X85580182Y-137715397D01*
X85415000Y-138114180D01*
X85415000Y-138545820D01*
X85580182Y-138944603D01*
X85885397Y-139249818D01*
X85922049Y-139265000D01*
X84077951Y-139265000D01*
X84114603Y-139249818D01*
X84419818Y-138944603D01*
X84585000Y-138545820D01*
X84585000Y-138114180D01*
X84419818Y-137715397D01*
X84114603Y-137410182D01*
X83715820Y-137245000D01*
X83284180Y-137245000D01*
X82885397Y-137410182D01*
X82580182Y-137715397D01*
X82415000Y-138114180D01*
X82415000Y-138545820D01*
X82580182Y-138944603D01*
X82885397Y-139249818D01*
X82922049Y-139265000D01*
X82072383Y-139265000D01*
X81999999Y-139250602D01*
X81927615Y-139265000D01*
X81927612Y-139265000D01*
X81713217Y-139307646D01*
X81470095Y-139470095D01*
X81429090Y-139531463D01*
X80195554Y-140765000D01*
X75060753Y-140765000D01*
X74755480Y-140714189D01*
X74537322Y-140596478D01*
X74369059Y-140414450D01*
X74262849Y-140174209D01*
X74235000Y-139953761D01*
X74235000Y-129947240D01*
X82772763Y-129947240D01*
X82778578Y-130687700D01*
X83023928Y-131386355D01*
X83482357Y-131967868D01*
X84104432Y-132369537D01*
X84823075Y-132548049D01*
X85560796Y-132484155D01*
X86238046Y-132184746D01*
X86781800Y-131682105D01*
X87109201Y-131075322D01*
X88165000Y-131075322D01*
X88165000Y-131924678D01*
X88490034Y-132709380D01*
X89090620Y-133309966D01*
X89875322Y-133635000D01*
X90724678Y-133635000D01*
X91509380Y-133309966D01*
X91765001Y-133054345D01*
X91765001Y-133427607D01*
X91750601Y-133500000D01*
X91807646Y-133786783D01*
X91970095Y-134029905D01*
X92213217Y-134192354D01*
X92427612Y-134235000D01*
X92500000Y-134249399D01*
X92572388Y-134235000D01*
X111427612Y-134235000D01*
X111500000Y-134249399D01*
X111572388Y-134235000D01*
X111786783Y-134192354D01*
X112029905Y-134029905D01*
X112192354Y-133786783D01*
X112249399Y-133500000D01*
X112235000Y-133427612D01*
X112235000Y-133054346D01*
X112490620Y-133309966D01*
X113275322Y-133635000D01*
X114124678Y-133635000D01*
X114909380Y-133309966D01*
X115509966Y-132709380D01*
X115835000Y-131924678D01*
X115835000Y-131075322D01*
X115509966Y-130290620D01*
X114909380Y-129690034D01*
X114124678Y-129365000D01*
X113275322Y-129365000D01*
X112490620Y-129690034D01*
X111890034Y-130290620D01*
X111684317Y-130787264D01*
X111572388Y-130765000D01*
X111500000Y-130750601D01*
X111427612Y-130765000D01*
X92572388Y-130765000D01*
X92500000Y-130750601D01*
X92427612Y-130765000D01*
X92315683Y-130787264D01*
X92109966Y-130290620D01*
X91509380Y-129690034D01*
X90724678Y-129365000D01*
X89875322Y-129365000D01*
X89090620Y-129690034D01*
X88490034Y-130290620D01*
X88165000Y-131075322D01*
X87109201Y-131075322D01*
X87133422Y-131030434D01*
X87255000Y-130300000D01*
X87254722Y-130264580D01*
X87121686Y-129536146D01*
X86759871Y-128890078D01*
X86208289Y-128396041D01*
X85526419Y-128107306D01*
X84787786Y-128055008D01*
X84072035Y-128244786D01*
X83456346Y-128656176D01*
X83007109Y-129244818D01*
X82772763Y-129947240D01*
X74235000Y-129947240D01*
X74235000Y-69147240D01*
X74272763Y-69147240D01*
X74278578Y-69887700D01*
X74523928Y-70586355D01*
X74982357Y-71167868D01*
X75604432Y-71569537D01*
X76323075Y-71748049D01*
X77060796Y-71684155D01*
X77738046Y-71384746D01*
X78281800Y-70882105D01*
X78633422Y-70230434D01*
X78755000Y-69500000D01*
X78754722Y-69464580D01*
X78621686Y-68736146D01*
X78259871Y-68090078D01*
X77708289Y-67596041D01*
X77026419Y-67307306D01*
X76287786Y-67255008D01*
X75572035Y-67444786D01*
X74956346Y-67856176D01*
X74507109Y-68444818D01*
X74272763Y-69147240D01*
X74235000Y-69147240D01*
X74235000Y-66572388D01*
X74249399Y-66500000D01*
X74192354Y-66213217D01*
X74029905Y-65970095D01*
X73786783Y-65807646D01*
X73572388Y-65765000D01*
X73500000Y-65750601D01*
X73427612Y-65765000D01*
X67720881Y-65765000D01*
X68201590Y-64533450D01*
X68317210Y-64285750D01*
X68690000Y-64285750D01*
X68690000Y-64801309D01*
X68786673Y-65034698D01*
X68965301Y-65213327D01*
X69198690Y-65310000D01*
X69714250Y-65310000D01*
X69873000Y-65151250D01*
X69873000Y-64127000D01*
X68848750Y-64127000D01*
X68690000Y-64285750D01*
X68317210Y-64285750D01*
X68690000Y-63487106D01*
X68690000Y-63714250D01*
X68848750Y-63873000D01*
X69873000Y-63873000D01*
X69873000Y-62848750D01*
X70127000Y-62848750D01*
X70127000Y-63873000D01*
X70147000Y-63873000D01*
X70147000Y-64127000D01*
X70127000Y-64127000D01*
X70127000Y-65151250D01*
X70285750Y-65310000D01*
X70801310Y-65310000D01*
X71034699Y-65213327D01*
X71204223Y-65043802D01*
X71488864Y-65233993D01*
X71870978Y-65310000D01*
X72129022Y-65310000D01*
X72511136Y-65233993D01*
X72944457Y-64944457D01*
X73000000Y-64861331D01*
X73055543Y-64944457D01*
X73488864Y-65233993D01*
X73870978Y-65310000D01*
X74129022Y-65310000D01*
X74511136Y-65233993D01*
X74944457Y-64944457D01*
X75000000Y-64861331D01*
X75055543Y-64944457D01*
X75488864Y-65233993D01*
X75870978Y-65310000D01*
X76129022Y-65310000D01*
X76511136Y-65233993D01*
X76944457Y-64944457D01*
X77100606Y-64710764D01*
X79465000Y-67075158D01*
X79465000Y-67205874D01*
X79622569Y-67586280D01*
X79913720Y-67877431D01*
X80294126Y-68035000D01*
X80705874Y-68035000D01*
X81086280Y-67877431D01*
X81377431Y-67586280D01*
X81535000Y-67205874D01*
X81535000Y-66794126D01*
X81401503Y-66471835D01*
X81607142Y-66386657D01*
X81878029Y-66115770D01*
X81944904Y-66244236D01*
X82138422Y-66406616D01*
X82379348Y-66482580D01*
X83117089Y-66418036D01*
X83261399Y-66246054D01*
X83152520Y-65001558D01*
X83132596Y-65003301D01*
X83130507Y-64979420D01*
X83405554Y-64979420D01*
X83514433Y-66223916D01*
X83686415Y-66368226D01*
X84424156Y-66303682D01*
X84648231Y-66187036D01*
X84810612Y-65993519D01*
X84886576Y-65752593D01*
X84864558Y-65500935D01*
X84822032Y-65014851D01*
X84650050Y-64870541D01*
X83405554Y-64979420D01*
X83130507Y-64979420D01*
X83110458Y-64750267D01*
X83130382Y-64748524D01*
X83128639Y-64728600D01*
X83381673Y-64706462D01*
X83383416Y-64726386D01*
X84627912Y-64617507D01*
X84772222Y-64445525D01*
X84729695Y-63959441D01*
X84707678Y-63707783D01*
X84686497Y-63667095D01*
X84691441Y-63658084D01*
X84718943Y-63406967D01*
X84562063Y-61613817D01*
X84491373Y-61371291D01*
X84333253Y-61174277D01*
X84111776Y-61052771D01*
X83860659Y-61025269D01*
X83553942Y-61052103D01*
X83553942Y-60909769D01*
X83646373Y-60817338D01*
X83803942Y-60436932D01*
X83803942Y-60025184D01*
X83646373Y-59644778D01*
X83355222Y-59353627D01*
X82974816Y-59196058D01*
X82563068Y-59196058D01*
X82347440Y-59285374D01*
X82347440Y-59000000D01*
X86245000Y-59000000D01*
X86378591Y-59671609D01*
X86759028Y-60240972D01*
X87328391Y-60621409D01*
X88000000Y-60755000D01*
X88671609Y-60621409D01*
X89240972Y-60240972D01*
X89621409Y-59671609D01*
X89755000Y-59000000D01*
X89662506Y-58535000D01*
X89705874Y-58535000D01*
X90086280Y-58377431D01*
X90128711Y-58335000D01*
X90480233Y-58335000D01*
X90161964Y-58653269D01*
X89928274Y-59217446D01*
X89928274Y-59828106D01*
X90161964Y-60392283D01*
X90593767Y-60824086D01*
X91157944Y-61057776D01*
X91632723Y-61057776D01*
X91632723Y-61258307D01*
X91866413Y-61822484D01*
X92298216Y-62254287D01*
X92862393Y-62487977D01*
X93473053Y-62487977D01*
X94037230Y-62254287D01*
X94469033Y-61822484D01*
X94702723Y-61258307D01*
X94702723Y-60875215D01*
X94840849Y-60918765D01*
X95092506Y-60896747D01*
X95316582Y-60780101D01*
X95792604Y-60212800D01*
X95773037Y-59989148D01*
X94816056Y-59186146D01*
X94803200Y-59201467D01*
X94608625Y-59038198D01*
X94621480Y-59022878D01*
X94606159Y-59010022D01*
X94621642Y-58991570D01*
X94979324Y-58991570D01*
X95936305Y-59794573D01*
X96159957Y-59775006D01*
X96635979Y-59207705D01*
X96711943Y-58966778D01*
X96689926Y-58715121D01*
X96573280Y-58491045D01*
X96379763Y-58328665D01*
X96005978Y-58015022D01*
X95782326Y-58034589D01*
X94979324Y-58991570D01*
X94621642Y-58991570D01*
X94769428Y-58815447D01*
X94784748Y-58828302D01*
X95587751Y-57871321D01*
X95568184Y-57647669D01*
X95194399Y-57334027D01*
X95000882Y-57171646D01*
X94957134Y-57157852D01*
X94954258Y-57147986D01*
X94796138Y-56950972D01*
X93417258Y-55793954D01*
X93195781Y-55672448D01*
X92944664Y-55644946D01*
X92702138Y-55715636D01*
X92505124Y-55873756D01*
X91883459Y-56614627D01*
X91940000Y-56478125D01*
X91940000Y-56066377D01*
X91785000Y-55692173D01*
X91785000Y-55155805D01*
X91793436Y-55154127D01*
X92084586Y-54959586D01*
X92279127Y-54668436D01*
X92347440Y-54325001D01*
X92347440Y-53674999D01*
X92279127Y-53331564D01*
X92084586Y-53040414D01*
X92083403Y-53039623D01*
X92238327Y-52884698D01*
X92335000Y-52651309D01*
X92335000Y-52235750D01*
X92176250Y-52077000D01*
X91127000Y-52077000D01*
X91127000Y-52097000D01*
X90873000Y-52097000D01*
X90873000Y-52077000D01*
X89823750Y-52077000D01*
X89665000Y-52235750D01*
X89665000Y-52651309D01*
X89761673Y-52884698D01*
X89916597Y-53039623D01*
X89915414Y-53040414D01*
X89846860Y-53143012D01*
X89636125Y-53055723D01*
X89184593Y-53055723D01*
X88767433Y-53228516D01*
X88448152Y-53547797D01*
X88275359Y-53964957D01*
X88275359Y-54416489D01*
X88448152Y-54833649D01*
X88767433Y-55152930D01*
X89184593Y-55325723D01*
X89636125Y-55325723D01*
X90053285Y-55152930D01*
X90113963Y-55092252D01*
X90206564Y-55154127D01*
X90215001Y-55155805D01*
X90215001Y-55498539D01*
X90027569Y-55685971D01*
X89870000Y-56066377D01*
X89870000Y-56478125D01*
X89897429Y-56544344D01*
X89705874Y-56465000D01*
X89294126Y-56465000D01*
X88913720Y-56622569D01*
X88622569Y-56913720D01*
X88465000Y-57294126D01*
X88465000Y-57337494D01*
X88335050Y-57311646D01*
X88486591Y-57160105D01*
X88666996Y-56724567D01*
X88666996Y-56253145D01*
X88486591Y-55817607D01*
X88153245Y-55484261D01*
X87717707Y-55303856D01*
X87246285Y-55303856D01*
X86810747Y-55484261D01*
X86477401Y-55817607D01*
X86296996Y-56253145D01*
X86296996Y-56724567D01*
X86477401Y-57160105D01*
X86810747Y-57493451D01*
X87024181Y-57581858D01*
X86759028Y-57759028D01*
X86378591Y-58328391D01*
X86245000Y-59000000D01*
X82347440Y-59000000D01*
X82347440Y-58699999D01*
X82339216Y-58658655D01*
X82636647Y-58781855D01*
X83088179Y-58781855D01*
X83505339Y-58609062D01*
X83824620Y-58289781D01*
X83997413Y-57872621D01*
X83997413Y-57421089D01*
X83824620Y-57003929D01*
X83505339Y-56684648D01*
X83088179Y-56511855D01*
X82636647Y-56511855D01*
X82335000Y-56636801D01*
X82335000Y-56273691D01*
X82238327Y-56040302D01*
X82059699Y-55861673D01*
X81826310Y-55765000D01*
X81285750Y-55765000D01*
X81127000Y-55923750D01*
X81127000Y-56848000D01*
X81147000Y-56848000D01*
X81147000Y-57102000D01*
X81127000Y-57102000D01*
X81127000Y-57122000D01*
X80873000Y-57122000D01*
X80873000Y-57102000D01*
X80853000Y-57102000D01*
X80853000Y-56848000D01*
X80873000Y-56848000D01*
X80873000Y-55923750D01*
X80714250Y-55765000D01*
X80173690Y-55765000D01*
X79940301Y-55861673D01*
X79761673Y-56040302D01*
X79665000Y-56273691D01*
X79665000Y-56689250D01*
X79699072Y-56723322D01*
X79638118Y-56723322D01*
X79202580Y-56903727D01*
X78869234Y-57237073D01*
X78688829Y-57672611D01*
X78688829Y-58025603D01*
X78666293Y-58010545D01*
X78437317Y-57964999D01*
X78437313Y-57964999D01*
X78360001Y-57949621D01*
X78282689Y-57964999D01*
X77717309Y-57964999D01*
X77639998Y-57949621D01*
X77562687Y-57964999D01*
X77562683Y-57964999D01*
X77333707Y-58010545D01*
X77236964Y-58075187D01*
X77139590Y-58140250D01*
X77139588Y-58140252D01*
X77074046Y-58184046D01*
X77030252Y-58249589D01*
X76499592Y-58780249D01*
X76434047Y-58824045D01*
X76390251Y-58889590D01*
X76299773Y-59025000D01*
X76260546Y-59083707D01*
X76215000Y-59312683D01*
X76215000Y-59312686D01*
X76199622Y-59389998D01*
X76215000Y-59467310D01*
X76215001Y-61270396D01*
X76199622Y-61347712D01*
X76259649Y-61649491D01*
X75216368Y-60606211D01*
X75247440Y-60450001D01*
X75247440Y-59549999D01*
X75179127Y-59206564D01*
X74984586Y-58915414D01*
X74693436Y-58720873D01*
X74350001Y-58652560D01*
X73699999Y-58652560D01*
X73356564Y-58720873D01*
X73065414Y-58915414D01*
X73064623Y-58916597D01*
X72909698Y-58761673D01*
X72676309Y-58665000D01*
X72260750Y-58665000D01*
X72102000Y-58823750D01*
X72102000Y-59873000D01*
X72122000Y-59873000D01*
X72122000Y-60127000D01*
X72102000Y-60127000D01*
X72102000Y-61176250D01*
X72260750Y-61335000D01*
X72676309Y-61335000D01*
X72909698Y-61238327D01*
X73064623Y-61083403D01*
X73065414Y-61084586D01*
X73356564Y-61279127D01*
X73699999Y-61347440D01*
X73737283Y-61347440D01*
X75289237Y-62899394D01*
X75055543Y-63055543D01*
X75000000Y-63138669D01*
X74944457Y-63055543D01*
X74511136Y-62766007D01*
X74129022Y-62690000D01*
X73870978Y-62690000D01*
X73488864Y-62766007D01*
X73055543Y-63055543D01*
X73000000Y-63138669D01*
X72944457Y-63055543D01*
X72511136Y-62766007D01*
X72129022Y-62690000D01*
X71870978Y-62690000D01*
X71488864Y-62766007D01*
X71204223Y-62956198D01*
X71034699Y-62786673D01*
X70801310Y-62690000D01*
X70285750Y-62690000D01*
X70127000Y-62848750D01*
X69873000Y-62848750D01*
X69714250Y-62690000D01*
X69198690Y-62690000D01*
X69029325Y-62760153D01*
X69205593Y-62382527D01*
X70346315Y-60300862D01*
X70355913Y-60285750D01*
X70765000Y-60285750D01*
X70765000Y-60826310D01*
X70861673Y-61059699D01*
X71040302Y-61238327D01*
X71273691Y-61335000D01*
X71689250Y-61335000D01*
X71848000Y-61176250D01*
X71848000Y-60127000D01*
X70923750Y-60127000D01*
X70765000Y-60285750D01*
X70355913Y-60285750D01*
X70765000Y-59641682D01*
X70765000Y-59714250D01*
X70923750Y-59873000D01*
X71848000Y-59873000D01*
X71848000Y-58823750D01*
X71689250Y-58665000D01*
X71385350Y-58665000D01*
X71618995Y-58297149D01*
X73018324Y-56379743D01*
X74538473Y-54556635D01*
X76173093Y-52835434D01*
X76217736Y-52794126D01*
X85465000Y-52794126D01*
X85465000Y-53205874D01*
X85622569Y-53586280D01*
X85913720Y-53877431D01*
X86294126Y-54035000D01*
X86705874Y-54035000D01*
X87086280Y-53877431D01*
X87377431Y-53586280D01*
X87535000Y-53205874D01*
X87535000Y-52794126D01*
X87377431Y-52413720D01*
X87335000Y-52371289D01*
X87335000Y-51248691D01*
X89665000Y-51248691D01*
X89665000Y-51664250D01*
X89823750Y-51823000D01*
X90873000Y-51823000D01*
X90873000Y-50898750D01*
X91127000Y-50898750D01*
X91127000Y-51823000D01*
X92176250Y-51823000D01*
X92335000Y-51664250D01*
X92335000Y-51248691D01*
X92238327Y-51015302D01*
X92059699Y-50836673D01*
X91826310Y-50740000D01*
X91285750Y-50740000D01*
X91127000Y-50898750D01*
X90873000Y-50898750D01*
X90714250Y-50740000D01*
X90173690Y-50740000D01*
X89940301Y-50836673D01*
X89761673Y-51015302D01*
X89665000Y-51248691D01*
X87335000Y-51248691D01*
X87335000Y-49757983D01*
X88466281Y-48626702D01*
X90461855Y-48626702D01*
X90461855Y-49098124D01*
X90642260Y-49533662D01*
X90975606Y-49867008D01*
X91411144Y-50047413D01*
X91882566Y-50047413D01*
X92318104Y-49867008D01*
X92651450Y-49533662D01*
X92831855Y-49098124D01*
X92831855Y-48626702D01*
X92651450Y-48191164D01*
X92318104Y-47857818D01*
X91882566Y-47677413D01*
X91411144Y-47677413D01*
X90975606Y-47857818D01*
X90642260Y-48191164D01*
X90461855Y-48626702D01*
X88466281Y-48626702D01*
X90601926Y-46491058D01*
X90661932Y-46491058D01*
X90895412Y-46394348D01*
X90946115Y-46516755D01*
X91265396Y-46836036D01*
X91682556Y-47008829D01*
X92134088Y-47008829D01*
X92551248Y-46836036D01*
X92870529Y-46516755D01*
X93043322Y-46099595D01*
X93043322Y-45648063D01*
X92870529Y-45230903D01*
X92551248Y-44911622D01*
X92134088Y-44738829D01*
X91682556Y-44738829D01*
X91338311Y-44881420D01*
X91333489Y-44869778D01*
X91042338Y-44578627D01*
X90661932Y-44421058D01*
X90250184Y-44421058D01*
X89869778Y-44578627D01*
X89578627Y-44869778D01*
X89421058Y-45250184D01*
X89421058Y-45310190D01*
X85967720Y-48763529D01*
X85897999Y-48810115D01*
X85713448Y-49086316D01*
X85665000Y-49329880D01*
X85665000Y-49329883D01*
X85648643Y-49412116D01*
X85665000Y-49494349D01*
X85665001Y-52371288D01*
X85622569Y-52413720D01*
X85465000Y-52794126D01*
X76217736Y-52794126D01*
X77915380Y-51223308D01*
X79758084Y-49726963D01*
X81693497Y-48352658D01*
X83713561Y-47106118D01*
X85809874Y-45992526D01*
X87973675Y-45016536D01*
X90195944Y-44182219D01*
X92467407Y-43493053D01*
X94778617Y-42951905D01*
X97119947Y-42561029D01*
X99481603Y-42322060D01*
X101853779Y-42235993D01*
X104226537Y-42303186D01*
X104226537Y-42303186D01*
G37*
X104226537Y-42303186D02*
X106590015Y-42523359D01*
X108934382Y-42895596D01*
X111249817Y-43418341D01*
X113526717Y-44089424D01*
X115755551Y-44906035D01*
X117927037Y-45864777D01*
X120032123Y-46961646D01*
X122062057Y-48192089D01*
X124008340Y-49550950D01*
X125862888Y-51032588D01*
X127617946Y-52630806D01*
X129266218Y-54338959D01*
X130800815Y-56149910D01*
X132215349Y-58056116D01*
X132608921Y-58665000D01*
X132310750Y-58665000D01*
X132152000Y-58823750D01*
X132152000Y-59873000D01*
X133076250Y-59873000D01*
X133235000Y-59714250D01*
X133235000Y-59633589D01*
X133503927Y-60049639D01*
X134661173Y-62122164D01*
X135682263Y-64265050D01*
X136281528Y-65765000D01*
X133345157Y-65765000D01*
X133811907Y-65298250D01*
X133870978Y-65310000D01*
X134129022Y-65310000D01*
X134511136Y-65233993D01*
X134944457Y-64944457D01*
X135233993Y-64511136D01*
X135335664Y-64000000D01*
X135233993Y-63488864D01*
X134944457Y-63055543D01*
X134511136Y-62766007D01*
X134129022Y-62690000D01*
X133870978Y-62690000D01*
X133488864Y-62766007D01*
X133055543Y-63055543D01*
X133000000Y-63138669D01*
X132944457Y-63055543D01*
X132511136Y-62766007D01*
X132129022Y-62690000D01*
X131870978Y-62690000D01*
X131488864Y-62766007D01*
X131055543Y-63055543D01*
X131000000Y-63138669D01*
X130944457Y-63055543D01*
X130511136Y-62766007D01*
X130129022Y-62690000D01*
X129870978Y-62690000D01*
X129488864Y-62766007D01*
X129204223Y-62956198D01*
X129034699Y-62786673D01*
X128801310Y-62690000D01*
X128475159Y-62690000D01*
X128632306Y-62454814D01*
X128677852Y-62225838D01*
X128677852Y-62225834D01*
X128693230Y-62148522D01*
X128677852Y-62071210D01*
X128677852Y-59549999D01*
X128752560Y-59549999D01*
X128752560Y-60450001D01*
X128820873Y-60793436D01*
X129015414Y-61084586D01*
X129306564Y-61279127D01*
X129649999Y-61347440D01*
X130300001Y-61347440D01*
X130643436Y-61279127D01*
X130934586Y-61084586D01*
X130935377Y-61083403D01*
X131090302Y-61238327D01*
X131323691Y-61335000D01*
X131739250Y-61335000D01*
X131898000Y-61176250D01*
X131898000Y-60127000D01*
X132152000Y-60127000D01*
X132152000Y-61176250D01*
X132310750Y-61335000D01*
X132726309Y-61335000D01*
X132959698Y-61238327D01*
X133138327Y-61059699D01*
X133235000Y-60826310D01*
X133235000Y-60285750D01*
X133076250Y-60127000D01*
X132152000Y-60127000D01*
X131898000Y-60127000D01*
X131878000Y-60127000D01*
X131878000Y-59873000D01*
X131898000Y-59873000D01*
X131898000Y-58823750D01*
X131739250Y-58665000D01*
X131323691Y-58665000D01*
X131090302Y-58761673D01*
X130935377Y-58916597D01*
X130934586Y-58915414D01*
X130643436Y-58720873D01*
X130300001Y-58652560D01*
X129649999Y-58652560D01*
X129306564Y-58720873D01*
X129015414Y-58915414D01*
X128820873Y-59206564D01*
X128752560Y-59549999D01*
X128677852Y-59549999D01*
X128677852Y-58578520D01*
X128693230Y-58501208D01*
X128677852Y-58423896D01*
X128677852Y-58423892D01*
X128632306Y-58194916D01*
X128598307Y-58144033D01*
X128502601Y-58000799D01*
X128502599Y-58000797D01*
X128458805Y-57935255D01*
X128393263Y-57891461D01*
X120501393Y-49999592D01*
X120457597Y-49934047D01*
X120197936Y-49760546D01*
X119968960Y-49715000D01*
X119968956Y-49715000D01*
X119891644Y-49699622D01*
X119814332Y-49715000D01*
X113105691Y-49715000D01*
X113315352Y-49505339D01*
X113488145Y-49088179D01*
X113488145Y-48636647D01*
X113315352Y-48219487D01*
X112996071Y-47900206D01*
X112578911Y-47727413D01*
X112127379Y-47727413D01*
X111710219Y-47900206D01*
X111394085Y-48216340D01*
X111377431Y-48176132D01*
X111086280Y-47884981D01*
X110705874Y-47727412D01*
X110294126Y-47727412D01*
X109913720Y-47884981D01*
X109768222Y-48030479D01*
X109166186Y-47428443D01*
X109166186Y-46021023D01*
X109181564Y-45943711D01*
X109166186Y-45866399D01*
X109166186Y-45866395D01*
X109120780Y-45638118D01*
X110906678Y-45638118D01*
X110906678Y-46109540D01*
X111087083Y-46545078D01*
X111420429Y-46878424D01*
X111855967Y-47058829D01*
X112327389Y-47058829D01*
X112762927Y-46878424D01*
X113096273Y-46545078D01*
X113276678Y-46109540D01*
X113276678Y-45638118D01*
X113096273Y-45202580D01*
X112762927Y-44869234D01*
X112327389Y-44688829D01*
X111855967Y-44688829D01*
X111420429Y-44869234D01*
X111087083Y-45202580D01*
X110906678Y-45638118D01*
X109120780Y-45638118D01*
X109120640Y-45637419D01*
X109095333Y-45599544D01*
X108990935Y-45443302D01*
X108990933Y-45443300D01*
X108947139Y-45377758D01*
X108881596Y-45333964D01*
X108340935Y-44793303D01*
X108297139Y-44727758D01*
X108037478Y-44554257D01*
X107808502Y-44508711D01*
X107808498Y-44508711D01*
X107731186Y-44493333D01*
X107653874Y-44508711D01*
X104585885Y-44508711D01*
X104508574Y-44493333D01*
X104431263Y-44508711D01*
X104431259Y-44508711D01*
X104202283Y-44554257D01*
X104135969Y-44598567D01*
X104008166Y-44683962D01*
X104008164Y-44683964D01*
X103942622Y-44727758D01*
X103898828Y-44793300D01*
X102897600Y-45794529D01*
X102826310Y-45765000D01*
X102285750Y-45765000D01*
X102127000Y-45923750D01*
X102127000Y-46848000D01*
X102147000Y-46848000D01*
X102147000Y-47102000D01*
X102127000Y-47102000D01*
X102127000Y-47122000D01*
X101873000Y-47122000D01*
X101873000Y-47102000D01*
X100823750Y-47102000D01*
X100665000Y-47260750D01*
X100665000Y-47676309D01*
X100761673Y-47909698D01*
X100916597Y-48064623D01*
X100915414Y-48065414D01*
X100720873Y-48356564D01*
X100652560Y-48699999D01*
X100652560Y-49350001D01*
X100720873Y-49693436D01*
X100915414Y-49984586D01*
X101206564Y-50179127D01*
X101549999Y-50247440D01*
X102450001Y-50247440D01*
X102793436Y-50179127D01*
X103084586Y-49984586D01*
X103279127Y-49693436D01*
X103280523Y-49686415D01*
X103631774Y-49686415D01*
X103696318Y-50424156D01*
X103812964Y-50648231D01*
X104006481Y-50810612D01*
X104247407Y-50886576D01*
X104499065Y-50864558D01*
X104985149Y-50822032D01*
X105129459Y-50650050D01*
X105020580Y-49405554D01*
X103776084Y-49514433D01*
X103631774Y-49686415D01*
X103280523Y-49686415D01*
X103347440Y-49350001D01*
X103347440Y-48787717D01*
X103536598Y-48598559D01*
X103581964Y-49117089D01*
X103753946Y-49261399D01*
X104998442Y-49152520D01*
X104996699Y-49132596D01*
X105249733Y-49110458D01*
X105251476Y-49130382D01*
X105271400Y-49128639D01*
X105293538Y-49381673D01*
X105273614Y-49383416D01*
X105382493Y-50627912D01*
X105554475Y-50772222D01*
X106040559Y-50729695D01*
X106292217Y-50707678D01*
X106332905Y-50686497D01*
X106341916Y-50691441D01*
X106593033Y-50718943D01*
X108386183Y-50562063D01*
X108628709Y-50491373D01*
X108825723Y-50333253D01*
X108947229Y-50111776D01*
X108974731Y-49860659D01*
X108936059Y-49418630D01*
X111017849Y-51500421D01*
X111061643Y-51565963D01*
X111127185Y-51609757D01*
X111127187Y-51609759D01*
X111276134Y-51709282D01*
X111321304Y-51739464D01*
X111550280Y-51785010D01*
X111550283Y-51785010D01*
X111627595Y-51800388D01*
X111704907Y-51785010D01*
X111760760Y-51785010D01*
X111823750Y-51848000D01*
X112873000Y-51848000D01*
X112873000Y-51828000D01*
X113127000Y-51828000D01*
X113127000Y-51848000D01*
X113147000Y-51848000D01*
X113147000Y-52102000D01*
X113127000Y-52102000D01*
X113127000Y-52122000D01*
X112873000Y-52122000D01*
X112873000Y-52102000D01*
X111823750Y-52102000D01*
X111710750Y-52215000D01*
X109137997Y-52215000D01*
X109060686Y-52199622D01*
X108983375Y-52215000D01*
X108983371Y-52215000D01*
X108754395Y-52260546D01*
X108635312Y-52340115D01*
X108625099Y-52346940D01*
X108621409Y-52328391D01*
X108240972Y-51759028D01*
X107671609Y-51378591D01*
X107000000Y-51245000D01*
X106328391Y-51378591D01*
X105759028Y-51759028D01*
X105378591Y-52328391D01*
X105245000Y-53000000D01*
X105378591Y-53671609D01*
X105741674Y-54215000D01*
X105178712Y-54215000D01*
X105086281Y-54122569D01*
X104705875Y-53965000D01*
X104294127Y-53965000D01*
X103913721Y-54122569D01*
X103622570Y-54413720D01*
X103465001Y-54794126D01*
X103465001Y-55205874D01*
X103622570Y-55586280D01*
X103913721Y-55877431D01*
X104294127Y-56035000D01*
X104705875Y-56035000D01*
X105086281Y-55877431D01*
X105178712Y-55785000D01*
X106983375Y-55785000D01*
X107060687Y-55800378D01*
X107137999Y-55785000D01*
X107138003Y-55785000D01*
X107366979Y-55739454D01*
X107626640Y-55565953D01*
X107670436Y-55500408D01*
X109385845Y-53785000D01*
X111329842Y-53785000D01*
X108705615Y-56409228D01*
X108640073Y-56453022D01*
X108596279Y-56518564D01*
X108596276Y-56518567D01*
X108466571Y-56712684D01*
X108405647Y-57018975D01*
X108421026Y-57096291D01*
X108421026Y-57678570D01*
X108336518Y-57713574D01*
X107904715Y-58145377D01*
X107671025Y-58709554D01*
X107671025Y-59320214D01*
X107904715Y-59884391D01*
X108215001Y-60194677D01*
X108215000Y-60711556D01*
X106534909Y-59031465D01*
X106493903Y-58970095D01*
X106250781Y-58807646D01*
X106036386Y-58765000D01*
X106036382Y-58765000D01*
X105963998Y-58750602D01*
X105891614Y-58765000D01*
X105228711Y-58765000D01*
X105086280Y-58622569D01*
X104705874Y-58465000D01*
X104294126Y-58465000D01*
X103913720Y-58622569D01*
X103622569Y-58913720D01*
X103465000Y-59294126D01*
X103465000Y-59705874D01*
X103622569Y-60086280D01*
X103872998Y-60336709D01*
X103872998Y-60398748D01*
X103714250Y-60240000D01*
X102785000Y-60240000D01*
X102785000Y-55155805D01*
X102793436Y-55154127D01*
X103084586Y-54959586D01*
X103279127Y-54668436D01*
X103347440Y-54325001D01*
X103347440Y-53674999D01*
X103279127Y-53331564D01*
X103084586Y-53040414D01*
X103083403Y-53039623D01*
X103238327Y-52884698D01*
X103335000Y-52651309D01*
X103335000Y-52235750D01*
X103176250Y-52077000D01*
X102127000Y-52077000D01*
X102127000Y-52097000D01*
X101873000Y-52097000D01*
X101873000Y-52077000D01*
X101853000Y-52077000D01*
X101853000Y-51823000D01*
X101873000Y-51823000D01*
X101873000Y-50898750D01*
X102127000Y-50898750D01*
X102127000Y-51823000D01*
X103176250Y-51823000D01*
X103335000Y-51664250D01*
X103335000Y-51248691D01*
X103238327Y-51015302D01*
X103059699Y-50836673D01*
X102826310Y-50740000D01*
X102285750Y-50740000D01*
X102127000Y-50898750D01*
X101873000Y-50898750D01*
X101714250Y-50740000D01*
X101173690Y-50740000D01*
X100940301Y-50836673D01*
X100761673Y-51015302D01*
X100665000Y-51248691D01*
X100665000Y-51554843D01*
X99688476Y-50578319D01*
X99734350Y-50559317D01*
X100166153Y-50127514D01*
X100399843Y-49563337D01*
X100399843Y-48952677D01*
X100166153Y-48388500D01*
X100088194Y-48310541D01*
X100215766Y-48270318D01*
X100409283Y-48107937D01*
X100525929Y-47883862D01*
X100590473Y-47146121D01*
X100446163Y-46974139D01*
X99201667Y-46865260D01*
X99199924Y-46885184D01*
X98946890Y-46863046D01*
X98948633Y-46843122D01*
X98928709Y-46841379D01*
X98948757Y-46612226D01*
X99223805Y-46612226D01*
X100468301Y-46721105D01*
X100640283Y-46576795D01*
X100665000Y-46294279D01*
X100665000Y-46689250D01*
X100823750Y-46848000D01*
X101873000Y-46848000D01*
X101873000Y-45923750D01*
X101714250Y-45765000D01*
X101173690Y-45765000D01*
X100940301Y-45861673D01*
X100761673Y-46040302D01*
X100667283Y-46268178D01*
X100704827Y-45839054D01*
X100628863Y-45598128D01*
X100466483Y-45404610D01*
X100242408Y-45287964D01*
X99990750Y-45265947D01*
X99504666Y-45223420D01*
X99332684Y-45367730D01*
X99223805Y-46612226D01*
X98948757Y-46612226D01*
X98950847Y-46588345D01*
X98970771Y-46590088D01*
X99079650Y-45345592D01*
X98935340Y-45173610D01*
X98449256Y-45131084D01*
X98197598Y-45109066D01*
X98153850Y-45122860D01*
X98145833Y-45116426D01*
X97903307Y-45045736D01*
X96110157Y-44888856D01*
X95859040Y-44916358D01*
X95637563Y-45037864D01*
X95479443Y-45234878D01*
X95408753Y-45477404D01*
X95251873Y-47270554D01*
X95279375Y-47521671D01*
X95400881Y-47743148D01*
X95597895Y-47901268D01*
X95630740Y-47910841D01*
X95347001Y-48194580D01*
X95113311Y-48758757D01*
X95113311Y-49369417D01*
X95183808Y-49539613D01*
X93775853Y-50947569D01*
X93413720Y-51097569D01*
X93122569Y-51388720D01*
X92965000Y-51769126D01*
X92965000Y-52180874D01*
X93115000Y-52543007D01*
X93115000Y-52737164D01*
X93115001Y-52737168D01*
X93115000Y-53478524D01*
X93097663Y-53565685D01*
X93115000Y-53652846D01*
X93115000Y-53652849D01*
X93166348Y-53910994D01*
X93361951Y-54203734D01*
X93435847Y-54253110D01*
X94746892Y-55564156D01*
X94796266Y-55638049D01*
X94870159Y-55687423D01*
X94870160Y-55687424D01*
X95029593Y-55793954D01*
X95089005Y-55833652D01*
X95347150Y-55885000D01*
X95347154Y-55885000D01*
X95434315Y-55902337D01*
X95461023Y-55897025D01*
X95794126Y-56035000D01*
X96205874Y-56035000D01*
X96586280Y-55877431D01*
X96877431Y-55586280D01*
X97035000Y-55205874D01*
X97035000Y-54794126D01*
X97017363Y-54751546D01*
X97671609Y-54621409D01*
X98240972Y-54240972D01*
X98621409Y-53671609D01*
X98755000Y-53000000D01*
X98621409Y-52328391D01*
X98240972Y-51759028D01*
X97671609Y-51378591D01*
X97000000Y-51245000D01*
X96328391Y-51378591D01*
X95759028Y-51759028D01*
X95378591Y-52328391D01*
X95245000Y-53000000D01*
X95378591Y-53671609D01*
X95421056Y-53735163D01*
X94885000Y-53199107D01*
X94885000Y-52543007D01*
X95027431Y-52199147D01*
X96627492Y-50599087D01*
X96953641Y-50599087D01*
X97517818Y-50365397D01*
X97659617Y-50223598D01*
X97995336Y-50559317D01*
X98079843Y-50594321D01*
X98079843Y-50787531D01*
X98064465Y-50864843D01*
X98079843Y-50942155D01*
X98079843Y-50942158D01*
X98119464Y-51141348D01*
X98125389Y-51171134D01*
X98215706Y-51306302D01*
X98298890Y-51430796D01*
X98364435Y-51474592D01*
X100652560Y-53762717D01*
X100652560Y-54325001D01*
X100720873Y-54668436D01*
X100915414Y-54959586D01*
X101206564Y-55154127D01*
X101215001Y-55155805D01*
X101215001Y-56227560D01*
X98500000Y-56227560D01*
X98252235Y-56276843D01*
X98042191Y-56417191D01*
X97901843Y-56627235D01*
X97852560Y-56875000D01*
X97852560Y-58125000D01*
X97901843Y-58372765D01*
X98042191Y-58582809D01*
X98252235Y-58723157D01*
X98500000Y-58772440D01*
X101215001Y-58772440D01*
X101215000Y-60227560D01*
X98500000Y-60227560D01*
X98252235Y-60276843D01*
X98042191Y-60417191D01*
X97901843Y-60627235D01*
X97852560Y-60875000D01*
X97852560Y-62125000D01*
X97901843Y-62372765D01*
X98042191Y-62582809D01*
X98252235Y-62723157D01*
X98500000Y-62772440D01*
X101215000Y-62772440D01*
X101215000Y-63321289D01*
X101139839Y-63396450D01*
X100881182Y-63345000D01*
X100578818Y-63345000D01*
X100131073Y-63434062D01*
X99623327Y-63773327D01*
X99460000Y-64017763D01*
X99296673Y-63773327D01*
X98788927Y-63434062D01*
X98341182Y-63345000D01*
X98038818Y-63345000D01*
X97591073Y-63434062D01*
X97083327Y-63773327D01*
X96920000Y-64017763D01*
X96756673Y-63773327D01*
X96248927Y-63434062D01*
X95801182Y-63345000D01*
X95498818Y-63345000D01*
X95051073Y-63434062D01*
X94543327Y-63773327D01*
X94380000Y-64017763D01*
X94216673Y-63773327D01*
X93708927Y-63434062D01*
X93261182Y-63345000D01*
X92958818Y-63345000D01*
X92511073Y-63434062D01*
X92003327Y-63773327D01*
X91664062Y-64281073D01*
X91544928Y-64880000D01*
X91620403Y-65259439D01*
X90837098Y-66042745D01*
X90820839Y-65655540D01*
X90636643Y-65210852D01*
X90380161Y-65124447D01*
X90494718Y-65009890D01*
X90459886Y-64975058D01*
X90657809Y-64842809D01*
X90798157Y-64632765D01*
X90847440Y-64385000D01*
X90847440Y-62585000D01*
X90798157Y-62337235D01*
X90657809Y-62127191D01*
X90447765Y-61986843D01*
X90200000Y-61937560D01*
X88400000Y-61937560D01*
X88152235Y-61986843D01*
X87942191Y-62127191D01*
X87801843Y-62337235D01*
X87752560Y-62585000D01*
X87752560Y-64385000D01*
X87801843Y-64632765D01*
X87942191Y-64842809D01*
X88140114Y-64975058D01*
X88105282Y-65009890D01*
X88219839Y-65124447D01*
X87963357Y-65210852D01*
X87753542Y-65784336D01*
X87779161Y-66394460D01*
X87963357Y-66839148D01*
X88219841Y-66925554D01*
X89120395Y-66025000D01*
X89106253Y-66010858D01*
X89285858Y-65831253D01*
X89300000Y-65845395D01*
X89314143Y-65831253D01*
X89493748Y-66010858D01*
X89479605Y-66025000D01*
X89493748Y-66039143D01*
X89314143Y-66218748D01*
X89300000Y-66204605D01*
X88399446Y-67105159D01*
X88450115Y-67255562D01*
X88430493Y-67263690D01*
X87998690Y-67695493D01*
X87765000Y-68259670D01*
X87765000Y-68870330D01*
X87998690Y-69434507D01*
X88399183Y-69835000D01*
X87998690Y-70235493D01*
X87765000Y-70799670D01*
X87765000Y-71410330D01*
X87998690Y-71974507D01*
X88399183Y-72375000D01*
X87998690Y-72775493D01*
X87765000Y-73339670D01*
X87765000Y-73950330D01*
X87998690Y-74514507D01*
X88399183Y-74915000D01*
X87998690Y-75315493D01*
X87765000Y-75879670D01*
X87765000Y-76490330D01*
X87998690Y-77054507D01*
X88399183Y-77455000D01*
X87998690Y-77855493D01*
X87765000Y-78419670D01*
X87765000Y-79030330D01*
X87998690Y-79594507D01*
X88399183Y-79995000D01*
X87998690Y-80395493D01*
X87765000Y-80959670D01*
X87765000Y-81570330D01*
X87998690Y-82134507D01*
X88399183Y-82535000D01*
X87998690Y-82935493D01*
X87765000Y-83499670D01*
X87765000Y-84110330D01*
X87800004Y-84194838D01*
X81099569Y-90895274D01*
X81034027Y-90939068D01*
X80990233Y-91004610D01*
X80990230Y-91004613D01*
X80860525Y-91198730D01*
X80799601Y-91505021D01*
X80814980Y-91582338D01*
X80814979Y-103578329D01*
X80799601Y-103655641D01*
X80814979Y-103732953D01*
X80814979Y-103732956D01*
X80841414Y-103865855D01*
X80860525Y-103961932D01*
X80963947Y-104116713D01*
X81034026Y-104221594D01*
X81099571Y-104265390D01*
X82390251Y-105556070D01*
X82434047Y-105621615D01*
X82693708Y-105795116D01*
X82747435Y-105805803D01*
X84478615Y-107536983D01*
X84072035Y-107644786D01*
X83456346Y-108056176D01*
X83007109Y-108644818D01*
X82772763Y-109347240D01*
X82778578Y-110087700D01*
X83023928Y-110786355D01*
X83482357Y-111367868D01*
X84104432Y-111769537D01*
X84823075Y-111948049D01*
X85560796Y-111884155D01*
X86238046Y-111584746D01*
X86781800Y-111082105D01*
X87133422Y-110430434D01*
X87167475Y-110225844D01*
X89442042Y-112500411D01*
X89485836Y-112565953D01*
X89551378Y-112609747D01*
X89551380Y-112609749D01*
X89745497Y-112739454D01*
X89974473Y-112785000D01*
X89974477Y-112785000D01*
X90051789Y-112800378D01*
X90129101Y-112785000D01*
X109922688Y-112785000D01*
X110000000Y-112800378D01*
X110077312Y-112785000D01*
X110077316Y-112785000D01*
X110306292Y-112739454D01*
X110565953Y-112565953D01*
X110609749Y-112500408D01*
X111075157Y-112035000D01*
X111205874Y-112035000D01*
X111586280Y-111877431D01*
X111877431Y-111586280D01*
X112035000Y-111205874D01*
X112035000Y-110794126D01*
X111877431Y-110413720D01*
X111586280Y-110122569D01*
X111402167Y-110046307D01*
X111825158Y-109623317D01*
X111955874Y-109623317D01*
X112336280Y-109465748D01*
X112491640Y-109310388D01*
X113275322Y-109635000D01*
X114124678Y-109635000D01*
X114909380Y-109309966D01*
X115509966Y-108709380D01*
X115835000Y-107924678D01*
X115835000Y-107075322D01*
X115509966Y-106290620D01*
X115289347Y-106070001D01*
X115353216Y-106070001D01*
X115464999Y-106092236D01*
X115576782Y-106070001D01*
X115907854Y-106004147D01*
X116283288Y-105753290D01*
X116346612Y-105658519D01*
X118594110Y-103411022D01*
X118692191Y-103557809D01*
X118902235Y-103698157D01*
X119150000Y-103747440D01*
X120415001Y-103747440D01*
X120415001Y-107981188D01*
X120208289Y-107796041D01*
X119526419Y-107507306D01*
X118787786Y-107455008D01*
X118072035Y-107644786D01*
X117456346Y-108056176D01*
X117007109Y-108644818D01*
X116772763Y-109347240D01*
X116778578Y-110087700D01*
X117023928Y-110786355D01*
X117482357Y-111367868D01*
X118104432Y-111769537D01*
X118823075Y-111948049D01*
X119560796Y-111884155D01*
X120238046Y-111584746D01*
X120415001Y-111421170D01*
X120415002Y-128581188D01*
X120208289Y-128396041D01*
X119526419Y-128107306D01*
X118787786Y-128055008D01*
X118072035Y-128244786D01*
X117456346Y-128656176D01*
X117007109Y-129244818D01*
X116772763Y-129947240D01*
X116778578Y-130687700D01*
X117023928Y-131386355D01*
X117482357Y-131967868D01*
X118104432Y-132369537D01*
X118823075Y-132548049D01*
X119560796Y-132484155D01*
X120238046Y-132184746D01*
X120415002Y-132021170D01*
X120415002Y-137372213D01*
X120313448Y-137524200D01*
X120295713Y-137613358D01*
X120102235Y-137651843D01*
X119892191Y-137792191D01*
X119751843Y-138002235D01*
X119702560Y-138250000D01*
X119702560Y-139750000D01*
X119751843Y-139997765D01*
X119892191Y-140207809D01*
X120102235Y-140348157D01*
X120350000Y-140397440D01*
X121850000Y-140397440D01*
X122097765Y-140348157D01*
X122307809Y-140207809D01*
X122448157Y-139997765D01*
X122497440Y-139750000D01*
X122497440Y-138250000D01*
X122448157Y-138002235D01*
X122307809Y-137792191D01*
X122097765Y-137651843D01*
X122091532Y-137650603D01*
X122085001Y-137617767D01*
X122085001Y-99192231D01*
X122101358Y-99109998D01*
X122085001Y-99027763D01*
X122085001Y-99027762D01*
X122036553Y-98784198D01*
X122004668Y-98736479D01*
X122004668Y-96004669D01*
X122175543Y-96004669D01*
X122448222Y-95891722D01*
X122794126Y-96035000D01*
X123205874Y-96035000D01*
X123586280Y-95877431D01*
X123877431Y-95586280D01*
X124035000Y-95205874D01*
X124035000Y-94794126D01*
X123877431Y-94413720D01*
X123785000Y-94321289D01*
X123785000Y-71325157D01*
X125278141Y-69832017D01*
X125278578Y-69887700D01*
X125523928Y-70586355D01*
X125982357Y-71167868D01*
X126604432Y-71569537D01*
X127323075Y-71748049D01*
X128060796Y-71684155D01*
X128738046Y-71384746D01*
X129281800Y-70882105D01*
X129633422Y-70230434D01*
X129755000Y-69500000D01*
X129754722Y-69464580D01*
X129621686Y-68736146D01*
X129259871Y-68090078D01*
X128894758Y-67763056D01*
X129013412Y-67739454D01*
X129273073Y-67565953D01*
X129316869Y-67500408D01*
X129765000Y-67052277D01*
X129765001Y-137625435D01*
X129650000Y-137602560D01*
X128150000Y-137602560D01*
X127902235Y-137651843D01*
X127692191Y-137792191D01*
X127551843Y-138002235D01*
X127502560Y-138250000D01*
X127502560Y-139750000D01*
X127551843Y-139997765D01*
X127692191Y-140207809D01*
X127902235Y-140348157D01*
X128150000Y-140397440D01*
X129631679Y-140397440D01*
X129596478Y-140462678D01*
X129414450Y-140630941D01*
X129174209Y-140737151D01*
X128953761Y-140765000D01*
X89804447Y-140765000D01*
X88570911Y-139531465D01*
X88529905Y-139470095D01*
X88286783Y-139307646D01*
X88072388Y-139265000D01*
X88072384Y-139265000D01*
X88000000Y-139250602D01*
X87927616Y-139265000D01*
X87077951Y-139265000D01*
X87114603Y-139249818D01*
X87419818Y-138944603D01*
X87585000Y-138545820D01*
X87585000Y-138114180D01*
X87419818Y-137715397D01*
X87114603Y-137410182D01*
X86715820Y-137245000D01*
X86284180Y-137245000D01*
X85885397Y-137410182D01*
X85580182Y-137715397D01*
X85415000Y-138114180D01*
X85415000Y-138545820D01*
X85580182Y-138944603D01*
X85885397Y-139249818D01*
X85922049Y-139265000D01*
X84077951Y-139265000D01*
X84114603Y-139249818D01*
X84419818Y-138944603D01*
X84585000Y-138545820D01*
X84585000Y-138114180D01*
X84419818Y-137715397D01*
X84114603Y-137410182D01*
X83715820Y-137245000D01*
X83284180Y-137245000D01*
X82885397Y-137410182D01*
X82580182Y-137715397D01*
X82415000Y-138114180D01*
X82415000Y-138545820D01*
X82580182Y-138944603D01*
X82885397Y-139249818D01*
X82922049Y-139265000D01*
X82072383Y-139265000D01*
X81999999Y-139250602D01*
X81927615Y-139265000D01*
X81927612Y-139265000D01*
X81713217Y-139307646D01*
X81470095Y-139470095D01*
X81429090Y-139531463D01*
X80195554Y-140765000D01*
X75060753Y-140765000D01*
X74755480Y-140714189D01*
X74537322Y-140596478D01*
X74369059Y-140414450D01*
X74262849Y-140174209D01*
X74235000Y-139953761D01*
X74235000Y-129947240D01*
X82772763Y-129947240D01*
X82778578Y-130687700D01*
X83023928Y-131386355D01*
X83482357Y-131967868D01*
X84104432Y-132369537D01*
X84823075Y-132548049D01*
X85560796Y-132484155D01*
X86238046Y-132184746D01*
X86781800Y-131682105D01*
X87109201Y-131075322D01*
X88165000Y-131075322D01*
X88165000Y-131924678D01*
X88490034Y-132709380D01*
X89090620Y-133309966D01*
X89875322Y-133635000D01*
X90724678Y-133635000D01*
X91509380Y-133309966D01*
X91765001Y-133054345D01*
X91765001Y-133427607D01*
X91750601Y-133500000D01*
X91807646Y-133786783D01*
X91970095Y-134029905D01*
X92213217Y-134192354D01*
X92427612Y-134235000D01*
X92500000Y-134249399D01*
X92572388Y-134235000D01*
X111427612Y-134235000D01*
X111500000Y-134249399D01*
X111572388Y-134235000D01*
X111786783Y-134192354D01*
X112029905Y-134029905D01*
X112192354Y-133786783D01*
X112249399Y-133500000D01*
X112235000Y-133427612D01*
X112235000Y-133054346D01*
X112490620Y-133309966D01*
X113275322Y-133635000D01*
X114124678Y-133635000D01*
X114909380Y-133309966D01*
X115509966Y-132709380D01*
X115835000Y-131924678D01*
X115835000Y-131075322D01*
X115509966Y-130290620D01*
X114909380Y-129690034D01*
X114124678Y-129365000D01*
X113275322Y-129365000D01*
X112490620Y-129690034D01*
X111890034Y-130290620D01*
X111684317Y-130787264D01*
X111572388Y-130765000D01*
X111500000Y-130750601D01*
X111427612Y-130765000D01*
X92572388Y-130765000D01*
X92500000Y-130750601D01*
X92427612Y-130765000D01*
X92315683Y-130787264D01*
X92109966Y-130290620D01*
X91509380Y-129690034D01*
X90724678Y-129365000D01*
X89875322Y-129365000D01*
X89090620Y-129690034D01*
X88490034Y-130290620D01*
X88165000Y-131075322D01*
X87109201Y-131075322D01*
X87133422Y-131030434D01*
X87255000Y-130300000D01*
X87254722Y-130264580D01*
X87121686Y-129536146D01*
X86759871Y-128890078D01*
X86208289Y-128396041D01*
X85526419Y-128107306D01*
X84787786Y-128055008D01*
X84072035Y-128244786D01*
X83456346Y-128656176D01*
X83007109Y-129244818D01*
X82772763Y-129947240D01*
X74235000Y-129947240D01*
X74235000Y-69147240D01*
X74272763Y-69147240D01*
X74278578Y-69887700D01*
X74523928Y-70586355D01*
X74982357Y-71167868D01*
X75604432Y-71569537D01*
X76323075Y-71748049D01*
X77060796Y-71684155D01*
X77738046Y-71384746D01*
X78281800Y-70882105D01*
X78633422Y-70230434D01*
X78755000Y-69500000D01*
X78754722Y-69464580D01*
X78621686Y-68736146D01*
X78259871Y-68090078D01*
X77708289Y-67596041D01*
X77026419Y-67307306D01*
X76287786Y-67255008D01*
X75572035Y-67444786D01*
X74956346Y-67856176D01*
X74507109Y-68444818D01*
X74272763Y-69147240D01*
X74235000Y-69147240D01*
X74235000Y-66572388D01*
X74249399Y-66500000D01*
X74192354Y-66213217D01*
X74029905Y-65970095D01*
X73786783Y-65807646D01*
X73572388Y-65765000D01*
X73500000Y-65750601D01*
X73427612Y-65765000D01*
X67720881Y-65765000D01*
X68201590Y-64533450D01*
X68317210Y-64285750D01*
X68690000Y-64285750D01*
X68690000Y-64801309D01*
X68786673Y-65034698D01*
X68965301Y-65213327D01*
X69198690Y-65310000D01*
X69714250Y-65310000D01*
X69873000Y-65151250D01*
X69873000Y-64127000D01*
X68848750Y-64127000D01*
X68690000Y-64285750D01*
X68317210Y-64285750D01*
X68690000Y-63487106D01*
X68690000Y-63714250D01*
X68848750Y-63873000D01*
X69873000Y-63873000D01*
X69873000Y-62848750D01*
X70127000Y-62848750D01*
X70127000Y-63873000D01*
X70147000Y-63873000D01*
X70147000Y-64127000D01*
X70127000Y-64127000D01*
X70127000Y-65151250D01*
X70285750Y-65310000D01*
X70801310Y-65310000D01*
X71034699Y-65213327D01*
X71204223Y-65043802D01*
X71488864Y-65233993D01*
X71870978Y-65310000D01*
X72129022Y-65310000D01*
X72511136Y-65233993D01*
X72944457Y-64944457D01*
X73000000Y-64861331D01*
X73055543Y-64944457D01*
X73488864Y-65233993D01*
X73870978Y-65310000D01*
X74129022Y-65310000D01*
X74511136Y-65233993D01*
X74944457Y-64944457D01*
X75000000Y-64861331D01*
X75055543Y-64944457D01*
X75488864Y-65233993D01*
X75870978Y-65310000D01*
X76129022Y-65310000D01*
X76511136Y-65233993D01*
X76944457Y-64944457D01*
X77100606Y-64710764D01*
X79465000Y-67075158D01*
X79465000Y-67205874D01*
X79622569Y-67586280D01*
X79913720Y-67877431D01*
X80294126Y-68035000D01*
X80705874Y-68035000D01*
X81086280Y-67877431D01*
X81377431Y-67586280D01*
X81535000Y-67205874D01*
X81535000Y-66794126D01*
X81401503Y-66471835D01*
X81607142Y-66386657D01*
X81878029Y-66115770D01*
X81944904Y-66244236D01*
X82138422Y-66406616D01*
X82379348Y-66482580D01*
X83117089Y-66418036D01*
X83261399Y-66246054D01*
X83152520Y-65001558D01*
X83132596Y-65003301D01*
X83130507Y-64979420D01*
X83405554Y-64979420D01*
X83514433Y-66223916D01*
X83686415Y-66368226D01*
X84424156Y-66303682D01*
X84648231Y-66187036D01*
X84810612Y-65993519D01*
X84886576Y-65752593D01*
X84864558Y-65500935D01*
X84822032Y-65014851D01*
X84650050Y-64870541D01*
X83405554Y-64979420D01*
X83130507Y-64979420D01*
X83110458Y-64750267D01*
X83130382Y-64748524D01*
X83128639Y-64728600D01*
X83381673Y-64706462D01*
X83383416Y-64726386D01*
X84627912Y-64617507D01*
X84772222Y-64445525D01*
X84729695Y-63959441D01*
X84707678Y-63707783D01*
X84686497Y-63667095D01*
X84691441Y-63658084D01*
X84718943Y-63406967D01*
X84562063Y-61613817D01*
X84491373Y-61371291D01*
X84333253Y-61174277D01*
X84111776Y-61052771D01*
X83860659Y-61025269D01*
X83553942Y-61052103D01*
X83553942Y-60909769D01*
X83646373Y-60817338D01*
X83803942Y-60436932D01*
X83803942Y-60025184D01*
X83646373Y-59644778D01*
X83355222Y-59353627D01*
X82974816Y-59196058D01*
X82563068Y-59196058D01*
X82347440Y-59285374D01*
X82347440Y-59000000D01*
X86245000Y-59000000D01*
X86378591Y-59671609D01*
X86759028Y-60240972D01*
X87328391Y-60621409D01*
X88000000Y-60755000D01*
X88671609Y-60621409D01*
X89240972Y-60240972D01*
X89621409Y-59671609D01*
X89755000Y-59000000D01*
X89662506Y-58535000D01*
X89705874Y-58535000D01*
X90086280Y-58377431D01*
X90128711Y-58335000D01*
X90480233Y-58335000D01*
X90161964Y-58653269D01*
X89928274Y-59217446D01*
X89928274Y-59828106D01*
X90161964Y-60392283D01*
X90593767Y-60824086D01*
X91157944Y-61057776D01*
X91632723Y-61057776D01*
X91632723Y-61258307D01*
X91866413Y-61822484D01*
X92298216Y-62254287D01*
X92862393Y-62487977D01*
X93473053Y-62487977D01*
X94037230Y-62254287D01*
X94469033Y-61822484D01*
X94702723Y-61258307D01*
X94702723Y-60875215D01*
X94840849Y-60918765D01*
X95092506Y-60896747D01*
X95316582Y-60780101D01*
X95792604Y-60212800D01*
X95773037Y-59989148D01*
X94816056Y-59186146D01*
X94803200Y-59201467D01*
X94608625Y-59038198D01*
X94621480Y-59022878D01*
X94606159Y-59010022D01*
X94621642Y-58991570D01*
X94979324Y-58991570D01*
X95936305Y-59794573D01*
X96159957Y-59775006D01*
X96635979Y-59207705D01*
X96711943Y-58966778D01*
X96689926Y-58715121D01*
X96573280Y-58491045D01*
X96379763Y-58328665D01*
X96005978Y-58015022D01*
X95782326Y-58034589D01*
X94979324Y-58991570D01*
X94621642Y-58991570D01*
X94769428Y-58815447D01*
X94784748Y-58828302D01*
X95587751Y-57871321D01*
X95568184Y-57647669D01*
X95194399Y-57334027D01*
X95000882Y-57171646D01*
X94957134Y-57157852D01*
X94954258Y-57147986D01*
X94796138Y-56950972D01*
X93417258Y-55793954D01*
X93195781Y-55672448D01*
X92944664Y-55644946D01*
X92702138Y-55715636D01*
X92505124Y-55873756D01*
X91883459Y-56614627D01*
X91940000Y-56478125D01*
X91940000Y-56066377D01*
X91785000Y-55692173D01*
X91785000Y-55155805D01*
X91793436Y-55154127D01*
X92084586Y-54959586D01*
X92279127Y-54668436D01*
X92347440Y-54325001D01*
X92347440Y-53674999D01*
X92279127Y-53331564D01*
X92084586Y-53040414D01*
X92083403Y-53039623D01*
X92238327Y-52884698D01*
X92335000Y-52651309D01*
X92335000Y-52235750D01*
X92176250Y-52077000D01*
X91127000Y-52077000D01*
X91127000Y-52097000D01*
X90873000Y-52097000D01*
X90873000Y-52077000D01*
X89823750Y-52077000D01*
X89665000Y-52235750D01*
X89665000Y-52651309D01*
X89761673Y-52884698D01*
X89916597Y-53039623D01*
X89915414Y-53040414D01*
X89846860Y-53143012D01*
X89636125Y-53055723D01*
X89184593Y-53055723D01*
X88767433Y-53228516D01*
X88448152Y-53547797D01*
X88275359Y-53964957D01*
X88275359Y-54416489D01*
X88448152Y-54833649D01*
X88767433Y-55152930D01*
X89184593Y-55325723D01*
X89636125Y-55325723D01*
X90053285Y-55152930D01*
X90113963Y-55092252D01*
X90206564Y-55154127D01*
X90215001Y-55155805D01*
X90215001Y-55498539D01*
X90027569Y-55685971D01*
X89870000Y-56066377D01*
X89870000Y-56478125D01*
X89897429Y-56544344D01*
X89705874Y-56465000D01*
X89294126Y-56465000D01*
X88913720Y-56622569D01*
X88622569Y-56913720D01*
X88465000Y-57294126D01*
X88465000Y-57337494D01*
X88335050Y-57311646D01*
X88486591Y-57160105D01*
X88666996Y-56724567D01*
X88666996Y-56253145D01*
X88486591Y-55817607D01*
X88153245Y-55484261D01*
X87717707Y-55303856D01*
X87246285Y-55303856D01*
X86810747Y-55484261D01*
X86477401Y-55817607D01*
X86296996Y-56253145D01*
X86296996Y-56724567D01*
X86477401Y-57160105D01*
X86810747Y-57493451D01*
X87024181Y-57581858D01*
X86759028Y-57759028D01*
X86378591Y-58328391D01*
X86245000Y-59000000D01*
X82347440Y-59000000D01*
X82347440Y-58699999D01*
X82339216Y-58658655D01*
X82636647Y-58781855D01*
X83088179Y-58781855D01*
X83505339Y-58609062D01*
X83824620Y-58289781D01*
X83997413Y-57872621D01*
X83997413Y-57421089D01*
X83824620Y-57003929D01*
X83505339Y-56684648D01*
X83088179Y-56511855D01*
X82636647Y-56511855D01*
X82335000Y-56636801D01*
X82335000Y-56273691D01*
X82238327Y-56040302D01*
X82059699Y-55861673D01*
X81826310Y-55765000D01*
X81285750Y-55765000D01*
X81127000Y-55923750D01*
X81127000Y-56848000D01*
X81147000Y-56848000D01*
X81147000Y-57102000D01*
X81127000Y-57102000D01*
X81127000Y-57122000D01*
X80873000Y-57122000D01*
X80873000Y-57102000D01*
X80853000Y-57102000D01*
X80853000Y-56848000D01*
X80873000Y-56848000D01*
X80873000Y-55923750D01*
X80714250Y-55765000D01*
X80173690Y-55765000D01*
X79940301Y-55861673D01*
X79761673Y-56040302D01*
X79665000Y-56273691D01*
X79665000Y-56689250D01*
X79699072Y-56723322D01*
X79638118Y-56723322D01*
X79202580Y-56903727D01*
X78869234Y-57237073D01*
X78688829Y-57672611D01*
X78688829Y-58025603D01*
X78666293Y-58010545D01*
X78437317Y-57964999D01*
X78437313Y-57964999D01*
X78360001Y-57949621D01*
X78282689Y-57964999D01*
X77717309Y-57964999D01*
X77639998Y-57949621D01*
X77562687Y-57964999D01*
X77562683Y-57964999D01*
X77333707Y-58010545D01*
X77236964Y-58075187D01*
X77139590Y-58140250D01*
X77139588Y-58140252D01*
X77074046Y-58184046D01*
X77030252Y-58249589D01*
X76499592Y-58780249D01*
X76434047Y-58824045D01*
X76390251Y-58889590D01*
X76299773Y-59025000D01*
X76260546Y-59083707D01*
X76215000Y-59312683D01*
X76215000Y-59312686D01*
X76199622Y-59389998D01*
X76215000Y-59467310D01*
X76215001Y-61270396D01*
X76199622Y-61347712D01*
X76259649Y-61649491D01*
X75216368Y-60606211D01*
X75247440Y-60450001D01*
X75247440Y-59549999D01*
X75179127Y-59206564D01*
X74984586Y-58915414D01*
X74693436Y-58720873D01*
X74350001Y-58652560D01*
X73699999Y-58652560D01*
X73356564Y-58720873D01*
X73065414Y-58915414D01*
X73064623Y-58916597D01*
X72909698Y-58761673D01*
X72676309Y-58665000D01*
X72260750Y-58665000D01*
X72102000Y-58823750D01*
X72102000Y-59873000D01*
X72122000Y-59873000D01*
X72122000Y-60127000D01*
X72102000Y-60127000D01*
X72102000Y-61176250D01*
X72260750Y-61335000D01*
X72676309Y-61335000D01*
X72909698Y-61238327D01*
X73064623Y-61083403D01*
X73065414Y-61084586D01*
X73356564Y-61279127D01*
X73699999Y-61347440D01*
X73737283Y-61347440D01*
X75289237Y-62899394D01*
X75055543Y-63055543D01*
X75000000Y-63138669D01*
X74944457Y-63055543D01*
X74511136Y-62766007D01*
X74129022Y-62690000D01*
X73870978Y-62690000D01*
X73488864Y-62766007D01*
X73055543Y-63055543D01*
X73000000Y-63138669D01*
X72944457Y-63055543D01*
X72511136Y-62766007D01*
X72129022Y-62690000D01*
X71870978Y-62690000D01*
X71488864Y-62766007D01*
X71204223Y-62956198D01*
X71034699Y-62786673D01*
X70801310Y-62690000D01*
X70285750Y-62690000D01*
X70127000Y-62848750D01*
X69873000Y-62848750D01*
X69714250Y-62690000D01*
X69198690Y-62690000D01*
X69029325Y-62760153D01*
X69205593Y-62382527D01*
X70346315Y-60300862D01*
X70355913Y-60285750D01*
X70765000Y-60285750D01*
X70765000Y-60826310D01*
X70861673Y-61059699D01*
X71040302Y-61238327D01*
X71273691Y-61335000D01*
X71689250Y-61335000D01*
X71848000Y-61176250D01*
X71848000Y-60127000D01*
X70923750Y-60127000D01*
X70765000Y-60285750D01*
X70355913Y-60285750D01*
X70765000Y-59641682D01*
X70765000Y-59714250D01*
X70923750Y-59873000D01*
X71848000Y-59873000D01*
X71848000Y-58823750D01*
X71689250Y-58665000D01*
X71385350Y-58665000D01*
X71618995Y-58297149D01*
X73018324Y-56379743D01*
X74538473Y-54556635D01*
X76173093Y-52835434D01*
X76217736Y-52794126D01*
X85465000Y-52794126D01*
X85465000Y-53205874D01*
X85622569Y-53586280D01*
X85913720Y-53877431D01*
X86294126Y-54035000D01*
X86705874Y-54035000D01*
X87086280Y-53877431D01*
X87377431Y-53586280D01*
X87535000Y-53205874D01*
X87535000Y-52794126D01*
X87377431Y-52413720D01*
X87335000Y-52371289D01*
X87335000Y-51248691D01*
X89665000Y-51248691D01*
X89665000Y-51664250D01*
X89823750Y-51823000D01*
X90873000Y-51823000D01*
X90873000Y-50898750D01*
X91127000Y-50898750D01*
X91127000Y-51823000D01*
X92176250Y-51823000D01*
X92335000Y-51664250D01*
X92335000Y-51248691D01*
X92238327Y-51015302D01*
X92059699Y-50836673D01*
X91826310Y-50740000D01*
X91285750Y-50740000D01*
X91127000Y-50898750D01*
X90873000Y-50898750D01*
X90714250Y-50740000D01*
X90173690Y-50740000D01*
X89940301Y-50836673D01*
X89761673Y-51015302D01*
X89665000Y-51248691D01*
X87335000Y-51248691D01*
X87335000Y-49757983D01*
X88466281Y-48626702D01*
X90461855Y-48626702D01*
X90461855Y-49098124D01*
X90642260Y-49533662D01*
X90975606Y-49867008D01*
X91411144Y-50047413D01*
X91882566Y-50047413D01*
X92318104Y-49867008D01*
X92651450Y-49533662D01*
X92831855Y-49098124D01*
X92831855Y-48626702D01*
X92651450Y-48191164D01*
X92318104Y-47857818D01*
X91882566Y-47677413D01*
X91411144Y-47677413D01*
X90975606Y-47857818D01*
X90642260Y-48191164D01*
X90461855Y-48626702D01*
X88466281Y-48626702D01*
X90601926Y-46491058D01*
X90661932Y-46491058D01*
X90895412Y-46394348D01*
X90946115Y-46516755D01*
X91265396Y-46836036D01*
X91682556Y-47008829D01*
X92134088Y-47008829D01*
X92551248Y-46836036D01*
X92870529Y-46516755D01*
X93043322Y-46099595D01*
X93043322Y-45648063D01*
X92870529Y-45230903D01*
X92551248Y-44911622D01*
X92134088Y-44738829D01*
X91682556Y-44738829D01*
X91338311Y-44881420D01*
X91333489Y-44869778D01*
X91042338Y-44578627D01*
X90661932Y-44421058D01*
X90250184Y-44421058D01*
X89869778Y-44578627D01*
X89578627Y-44869778D01*
X89421058Y-45250184D01*
X89421058Y-45310190D01*
X85967720Y-48763529D01*
X85897999Y-48810115D01*
X85713448Y-49086316D01*
X85665000Y-49329880D01*
X85665000Y-49329883D01*
X85648643Y-49412116D01*
X85665000Y-49494349D01*
X85665001Y-52371288D01*
X85622569Y-52413720D01*
X85465000Y-52794126D01*
X76217736Y-52794126D01*
X77915380Y-51223308D01*
X79758084Y-49726963D01*
X81693497Y-48352658D01*
X83713561Y-47106118D01*
X85809874Y-45992526D01*
X87973675Y-45016536D01*
X90195944Y-44182219D01*
X92467407Y-43493053D01*
X94778617Y-42951905D01*
X97119947Y-42561029D01*
X99481603Y-42322060D01*
X101853779Y-42235993D01*
X104226537Y-42303186D01*
G36*
X94406961Y-109956091D02*
X89825158Y-109956091D01*
X89241550Y-109372483D01*
X89875322Y-109635000D01*
X90724678Y-109635000D01*
X91509380Y-109309966D01*
X92109966Y-108709380D01*
X92417587Y-107966717D01*
X94406961Y-109956091D01*
X94406961Y-109956091D01*
G37*
X94406961Y-109956091D02*
X89825158Y-109956091D01*
X89241550Y-109372483D01*
X89875322Y-109635000D01*
X90724678Y-109635000D01*
X91509380Y-109309966D01*
X92109966Y-108709380D01*
X92417587Y-107966717D01*
X94406961Y-109956091D01*
G36*
X84127000Y-102163000D02*
X85048900Y-102163000D01*
X85307130Y-102214365D01*
X85418913Y-102192130D01*
X86643001Y-102192130D01*
X89833283Y-105382413D01*
X89090620Y-105690034D01*
X88490034Y-106290620D01*
X88165000Y-107075322D01*
X88165000Y-107924678D01*
X88427517Y-108558450D01*
X83562870Y-103693804D01*
X83643108Y-103731486D01*
X83873000Y-103610819D01*
X83873000Y-102417000D01*
X84127000Y-102417000D01*
X84127000Y-103610819D01*
X84356892Y-103731486D01*
X84881358Y-103485183D01*
X85271645Y-103056924D01*
X85441476Y-102646890D01*
X85320155Y-102417000D01*
X84127000Y-102417000D01*
X83873000Y-102417000D01*
X83853000Y-102417000D01*
X83853000Y-102163000D01*
X83873000Y-102163000D01*
X83873000Y-102143000D01*
X84127000Y-102143000D01*
X84127000Y-102163000D01*
X84127000Y-102163000D01*
G37*
X84127000Y-102163000D02*
X85048900Y-102163000D01*
X85307130Y-102214365D01*
X85418913Y-102192130D01*
X86643001Y-102192130D01*
X89833283Y-105382413D01*
X89090620Y-105690034D01*
X88490034Y-106290620D01*
X88165000Y-107075322D01*
X88165000Y-107924678D01*
X88427517Y-108558450D01*
X83562870Y-103693804D01*
X83643108Y-103731486D01*
X83873000Y-103610819D01*
X83873000Y-102417000D01*
X84127000Y-102417000D01*
X84127000Y-103610819D01*
X84356892Y-103731486D01*
X84881358Y-103485183D01*
X85271645Y-103056924D01*
X85441476Y-102646890D01*
X85320155Y-102417000D01*
X84127000Y-102417000D01*
X83873000Y-102417000D01*
X83853000Y-102417000D01*
X83853000Y-102163000D01*
X83873000Y-102163000D01*
X83873000Y-102143000D01*
X84127000Y-102143000D01*
X84127000Y-102163000D01*
G36*
X100674842Y-105584000D02*
X100602998Y-105584000D01*
X100602998Y-105748844D01*
X100373110Y-105627524D01*
X99963076Y-105797355D01*
X99534817Y-106187642D01*
X99473843Y-106317478D01*
X99260625Y-105998375D01*
X98769418Y-105670161D01*
X98336256Y-105584000D01*
X98043744Y-105584000D01*
X97610582Y-105670161D01*
X97119375Y-105998375D01*
X96791161Y-106489582D01*
X96675908Y-107069000D01*
X96791161Y-107648418D01*
X96835650Y-107715000D01*
X96118038Y-107715000D01*
X92713049Y-104310011D01*
X96559877Y-104310011D01*
X96637189Y-104325389D01*
X96714501Y-104310011D01*
X96714505Y-104310011D01*
X96943481Y-104264465D01*
X97203142Y-104090964D01*
X97246938Y-104025419D01*
X98181600Y-103090757D01*
X100674842Y-105584000D01*
X100674842Y-105584000D01*
G37*
X100674842Y-105584000D02*
X100602998Y-105584000D01*
X100602998Y-105748844D01*
X100373110Y-105627524D01*
X99963076Y-105797355D01*
X99534817Y-106187642D01*
X99473843Y-106317478D01*
X99260625Y-105998375D01*
X98769418Y-105670161D01*
X98336256Y-105584000D01*
X98043744Y-105584000D01*
X97610582Y-105670161D01*
X97119375Y-105998375D01*
X96791161Y-106489582D01*
X96675908Y-107069000D01*
X96791161Y-107648418D01*
X96835650Y-107715000D01*
X96118038Y-107715000D01*
X92713049Y-104310011D01*
X96559877Y-104310011D01*
X96637189Y-104325389D01*
X96714501Y-104310011D01*
X96714505Y-104310011D01*
X96943481Y-104264465D01*
X97203142Y-104090964D01*
X97246938Y-104025419D01*
X98181600Y-103090757D01*
X100674842Y-105584000D01*
G36*
X100857000Y-106942000D02*
X100877000Y-106942000D01*
X100877000Y-107196000D01*
X100857000Y-107196000D01*
X100857000Y-107216000D01*
X100603000Y-107216000D01*
X100603000Y-107196000D01*
X100583000Y-107196000D01*
X100583000Y-106942000D01*
X100603000Y-106942000D01*
X100603000Y-106922000D01*
X100857000Y-106922000D01*
X100857000Y-106942000D01*
X100857000Y-106942000D01*
G37*
X100857000Y-106942000D02*
X100877000Y-106942000D01*
X100877000Y-107196000D01*
X100857000Y-107196000D01*
X100857000Y-107216000D01*
X100603000Y-107216000D01*
X100603000Y-107196000D01*
X100583000Y-107196000D01*
X100583000Y-106942000D01*
X100603000Y-106942000D01*
X100603000Y-106922000D01*
X100857000Y-106922000D01*
X100857000Y-106942000D01*
G36*
X118622569Y-83586280D02*
X118913720Y-83877431D01*
X119294126Y-84035000D01*
X119354132Y-84035000D01*
X120365002Y-85045871D01*
X120365001Y-93995604D01*
X120334668Y-94148098D01*
X120334668Y-94148101D01*
X120318311Y-94230334D01*
X120334668Y-94312567D01*
X120334669Y-98280179D01*
X120127000Y-98389181D01*
X120127000Y-99583000D01*
X120147000Y-99583000D01*
X120147000Y-99837000D01*
X120127000Y-99837000D01*
X120127000Y-99857000D01*
X119873000Y-99857000D01*
X119873000Y-99837000D01*
X118679845Y-99837000D01*
X118558524Y-100066890D01*
X118728355Y-100476924D01*
X119005708Y-100781261D01*
X118902235Y-100801843D01*
X118692191Y-100942191D01*
X118576723Y-101115000D01*
X118261783Y-101115000D01*
X118150000Y-101092765D01*
X117851023Y-101152235D01*
X117707145Y-101180854D01*
X117331711Y-101431711D01*
X117268389Y-101526479D01*
X114994868Y-103800001D01*
X109036783Y-103800001D01*
X108925000Y-103777766D01*
X108655855Y-103831302D01*
X108482145Y-103865855D01*
X108271681Y-104006482D01*
X108178290Y-103866712D01*
X108083522Y-103803390D01*
X105556613Y-101276482D01*
X105493289Y-101181711D01*
X105117855Y-100930854D01*
X104786783Y-100865000D01*
X104675000Y-100842765D01*
X104563217Y-100865000D01*
X104129530Y-100865000D01*
X103922765Y-100726843D01*
X103675000Y-100677560D01*
X102325000Y-100677560D01*
X102077235Y-100726843D01*
X101867191Y-100867191D01*
X101789856Y-100982930D01*
X101663633Y-100870522D01*
X101329400Y-100732090D01*
X101127000Y-100855776D01*
X101127000Y-101873000D01*
X101147000Y-101873000D01*
X101147000Y-102127000D01*
X101127000Y-102127000D01*
X101127000Y-102147000D01*
X100873000Y-102147000D01*
X100873000Y-102127000D01*
X100853000Y-102127000D01*
X100853000Y-101873000D01*
X100873000Y-101873000D01*
X100873000Y-100855776D01*
X100670600Y-100732090D01*
X100656601Y-100737888D01*
X100656601Y-98951600D01*
X100867856Y-98951600D01*
X101301018Y-98865439D01*
X101792225Y-98537225D01*
X101991600Y-98238839D01*
X102190975Y-98537225D01*
X102682182Y-98865439D01*
X103115344Y-98951600D01*
X103407856Y-98951600D01*
X103841018Y-98865439D01*
X104332225Y-98537225D01*
X104531600Y-98238839D01*
X104730975Y-98537225D01*
X105222182Y-98865439D01*
X105655344Y-98951600D01*
X105947856Y-98951600D01*
X106381018Y-98865439D01*
X106872225Y-98537225D01*
X107071600Y-98238839D01*
X107270975Y-98537225D01*
X107762182Y-98865439D01*
X108195344Y-98951600D01*
X108487856Y-98951600D01*
X108921018Y-98865439D01*
X109412225Y-98537225D01*
X109611600Y-98238839D01*
X109810975Y-98537225D01*
X110302182Y-98865439D01*
X110369577Y-98878845D01*
X108558422Y-100690000D01*
X108370978Y-100690000D01*
X107988864Y-100766007D01*
X107555543Y-101055543D01*
X107266007Y-101488864D01*
X107164336Y-102000000D01*
X107266007Y-102511136D01*
X107555543Y-102944457D01*
X107988864Y-103233993D01*
X108370978Y-103310000D01*
X108629022Y-103310000D01*
X109011136Y-103233993D01*
X109304032Y-103038286D01*
X109367191Y-103132809D01*
X109577235Y-103273157D01*
X109825000Y-103322440D01*
X111175000Y-103322440D01*
X111422765Y-103273157D01*
X111632809Y-103132809D01*
X111773157Y-102922765D01*
X111781431Y-102881168D01*
X112020310Y-102833652D01*
X112313049Y-102638049D01*
X112362425Y-102564153D01*
X113564156Y-101362423D01*
X113638049Y-101313049D01*
X113700017Y-101220309D01*
X113833652Y-101020310D01*
X113862556Y-100874998D01*
X113885000Y-100762165D01*
X113885000Y-100762161D01*
X113902337Y-100675000D01*
X113885000Y-100587839D01*
X113885000Y-100368888D01*
X114394670Y-100580000D01*
X115005330Y-100580000D01*
X115569507Y-100346310D01*
X116001310Y-99914507D01*
X116233848Y-99353110D01*
X118558524Y-99353110D01*
X118679845Y-99583000D01*
X119873000Y-99583000D01*
X119873000Y-98389181D01*
X119643108Y-98268514D01*
X119118642Y-98514817D01*
X118728355Y-98943076D01*
X118558524Y-99353110D01*
X116233848Y-99353110D01*
X116235000Y-99350330D01*
X116235000Y-98739670D01*
X116001310Y-98175493D01*
X115600817Y-97775000D01*
X116001310Y-97374507D01*
X116235000Y-96810330D01*
X116235000Y-96199670D01*
X116001310Y-95635493D01*
X115600817Y-95235000D01*
X116001310Y-94834507D01*
X116235000Y-94270330D01*
X116235000Y-93659670D01*
X116001310Y-93095493D01*
X115600817Y-92695000D01*
X116001310Y-92294507D01*
X116235000Y-91730330D01*
X116235000Y-91119670D01*
X116001310Y-90555493D01*
X115600817Y-90155000D01*
X116001310Y-89754507D01*
X116235000Y-89190330D01*
X116235000Y-88579670D01*
X116001310Y-88015493D01*
X115600817Y-87615000D01*
X116001310Y-87214507D01*
X116235000Y-86650330D01*
X116235000Y-86039670D01*
X116199995Y-85955162D01*
X118606843Y-83548314D01*
X118622569Y-83586280D01*
X118622569Y-83586280D01*
G37*
X118622569Y-83586280D02*
X118913720Y-83877431D01*
X119294126Y-84035000D01*
X119354132Y-84035000D01*
X120365002Y-85045871D01*
X120365001Y-93995604D01*
X120334668Y-94148098D01*
X120334668Y-94148101D01*
X120318311Y-94230334D01*
X120334668Y-94312567D01*
X120334669Y-98280179D01*
X120127000Y-98389181D01*
X120127000Y-99583000D01*
X120147000Y-99583000D01*
X120147000Y-99837000D01*
X120127000Y-99837000D01*
X120127000Y-99857000D01*
X119873000Y-99857000D01*
X119873000Y-99837000D01*
X118679845Y-99837000D01*
X118558524Y-100066890D01*
X118728355Y-100476924D01*
X119005708Y-100781261D01*
X118902235Y-100801843D01*
X118692191Y-100942191D01*
X118576723Y-101115000D01*
X118261783Y-101115000D01*
X118150000Y-101092765D01*
X117851023Y-101152235D01*
X117707145Y-101180854D01*
X117331711Y-101431711D01*
X117268389Y-101526479D01*
X114994868Y-103800001D01*
X109036783Y-103800001D01*
X108925000Y-103777766D01*
X108655855Y-103831302D01*
X108482145Y-103865855D01*
X108271681Y-104006482D01*
X108178290Y-103866712D01*
X108083522Y-103803390D01*
X105556613Y-101276482D01*
X105493289Y-101181711D01*
X105117855Y-100930854D01*
X104786783Y-100865000D01*
X104675000Y-100842765D01*
X104563217Y-100865000D01*
X104129530Y-100865000D01*
X103922765Y-100726843D01*
X103675000Y-100677560D01*
X102325000Y-100677560D01*
X102077235Y-100726843D01*
X101867191Y-100867191D01*
X101789856Y-100982930D01*
X101663633Y-100870522D01*
X101329400Y-100732090D01*
X101127000Y-100855776D01*
X101127000Y-101873000D01*
X101147000Y-101873000D01*
X101147000Y-102127000D01*
X101127000Y-102127000D01*
X101127000Y-102147000D01*
X100873000Y-102147000D01*
X100873000Y-102127000D01*
X100853000Y-102127000D01*
X100853000Y-101873000D01*
X100873000Y-101873000D01*
X100873000Y-100855776D01*
X100670600Y-100732090D01*
X100656601Y-100737888D01*
X100656601Y-98951600D01*
X100867856Y-98951600D01*
X101301018Y-98865439D01*
X101792225Y-98537225D01*
X101991600Y-98238839D01*
X102190975Y-98537225D01*
X102682182Y-98865439D01*
X103115344Y-98951600D01*
X103407856Y-98951600D01*
X103841018Y-98865439D01*
X104332225Y-98537225D01*
X104531600Y-98238839D01*
X104730975Y-98537225D01*
X105222182Y-98865439D01*
X105655344Y-98951600D01*
X105947856Y-98951600D01*
X106381018Y-98865439D01*
X106872225Y-98537225D01*
X107071600Y-98238839D01*
X107270975Y-98537225D01*
X107762182Y-98865439D01*
X108195344Y-98951600D01*
X108487856Y-98951600D01*
X108921018Y-98865439D01*
X109412225Y-98537225D01*
X109611600Y-98238839D01*
X109810975Y-98537225D01*
X110302182Y-98865439D01*
X110369577Y-98878845D01*
X108558422Y-100690000D01*
X108370978Y-100690000D01*
X107988864Y-100766007D01*
X107555543Y-101055543D01*
X107266007Y-101488864D01*
X107164336Y-102000000D01*
X107266007Y-102511136D01*
X107555543Y-102944457D01*
X107988864Y-103233993D01*
X108370978Y-103310000D01*
X108629022Y-103310000D01*
X109011136Y-103233993D01*
X109304032Y-103038286D01*
X109367191Y-103132809D01*
X109577235Y-103273157D01*
X109825000Y-103322440D01*
X111175000Y-103322440D01*
X111422765Y-103273157D01*
X111632809Y-103132809D01*
X111773157Y-102922765D01*
X111781431Y-102881168D01*
X112020310Y-102833652D01*
X112313049Y-102638049D01*
X112362425Y-102564153D01*
X113564156Y-101362423D01*
X113638049Y-101313049D01*
X113700017Y-101220309D01*
X113833652Y-101020310D01*
X113862556Y-100874998D01*
X113885000Y-100762165D01*
X113885000Y-100762161D01*
X113902337Y-100675000D01*
X113885000Y-100587839D01*
X113885000Y-100368888D01*
X114394670Y-100580000D01*
X115005330Y-100580000D01*
X115569507Y-100346310D01*
X116001310Y-99914507D01*
X116233848Y-99353110D01*
X118558524Y-99353110D01*
X118679845Y-99583000D01*
X119873000Y-99583000D01*
X119873000Y-98389181D01*
X119643108Y-98268514D01*
X119118642Y-98514817D01*
X118728355Y-98943076D01*
X118558524Y-99353110D01*
X116233848Y-99353110D01*
X116235000Y-99350330D01*
X116235000Y-98739670D01*
X116001310Y-98175493D01*
X115600817Y-97775000D01*
X116001310Y-97374507D01*
X116235000Y-96810330D01*
X116235000Y-96199670D01*
X116001310Y-95635493D01*
X115600817Y-95235000D01*
X116001310Y-94834507D01*
X116235000Y-94270330D01*
X116235000Y-93659670D01*
X116001310Y-93095493D01*
X115600817Y-92695000D01*
X116001310Y-92294507D01*
X116235000Y-91730330D01*
X116235000Y-91119670D01*
X116001310Y-90555493D01*
X115600817Y-90155000D01*
X116001310Y-89754507D01*
X116235000Y-89190330D01*
X116235000Y-88579670D01*
X116001310Y-88015493D01*
X115600817Y-87615000D01*
X116001310Y-87214507D01*
X116235000Y-86650330D01*
X116235000Y-86039670D01*
X116199995Y-85955162D01*
X118606843Y-83548314D01*
X118622569Y-83586280D01*
G36*
X102465000Y-82294126D02*
X102465000Y-82705874D01*
X102622569Y-83086280D01*
X102913720Y-83377431D01*
X103294126Y-83535000D01*
X103415369Y-83535000D01*
X103440088Y-83571994D01*
X103505630Y-83615788D01*
X103505632Y-83615790D01*
X103661590Y-83719998D01*
X103699749Y-83745495D01*
X103928725Y-83791041D01*
X103928728Y-83791041D01*
X104006040Y-83806419D01*
X104083352Y-83791041D01*
X106815248Y-83791041D01*
X106907679Y-83883472D01*
X107288085Y-84041041D01*
X107699833Y-84041041D01*
X108080239Y-83883472D01*
X108201066Y-83762645D01*
X108316743Y-83878322D01*
X108269006Y-83898095D01*
X107598095Y-84569006D01*
X107235000Y-85445594D01*
X107235000Y-86394406D01*
X107598095Y-87270994D01*
X108269006Y-87941905D01*
X109145594Y-88305000D01*
X110094406Y-88305000D01*
X110970994Y-87941905D01*
X111296601Y-87616298D01*
X111296602Y-96035057D01*
X111027856Y-95981600D01*
X110735344Y-95981600D01*
X110544682Y-96019525D01*
X110291348Y-95766191D01*
X110247552Y-95700646D01*
X109987891Y-95527145D01*
X109758915Y-95481599D01*
X109758911Y-95481599D01*
X109681599Y-95466221D01*
X109604287Y-95481599D01*
X97682909Y-95481599D01*
X97605598Y-95466221D01*
X97535599Y-95480145D01*
X97465600Y-95466221D01*
X97388289Y-95481599D01*
X97388285Y-95481599D01*
X97159309Y-95527145D01*
X97070808Y-95586280D01*
X96965192Y-95656850D01*
X96965190Y-95656852D01*
X96899648Y-95700646D01*
X96855854Y-95766189D01*
X96418236Y-96203806D01*
X96408524Y-96194955D01*
X95998490Y-96025124D01*
X95768600Y-96146445D01*
X95768600Y-97339600D01*
X95788600Y-97339600D01*
X95788600Y-97593600D01*
X95768600Y-97593600D01*
X95768600Y-98786755D01*
X95998490Y-98908076D01*
X96056601Y-98884007D01*
X96056601Y-100796386D01*
X96011136Y-100766007D01*
X95629022Y-100690000D01*
X95441578Y-100690000D01*
X95062424Y-100310846D01*
X95013048Y-100236950D01*
X94720309Y-100041347D01*
X94462164Y-99989999D01*
X94462160Y-99989999D01*
X94374999Y-99972662D01*
X94353513Y-99976936D01*
X93340616Y-98964040D01*
X93951600Y-98964040D01*
X94199365Y-98914757D01*
X94409409Y-98774409D01*
X94549757Y-98564365D01*
X94570339Y-98460892D01*
X94874676Y-98738245D01*
X95284710Y-98908076D01*
X95514600Y-98786755D01*
X95514600Y-97593600D01*
X95494600Y-97593600D01*
X95494600Y-97339600D01*
X95514600Y-97339600D01*
X95514600Y-96146445D01*
X95284710Y-96025124D01*
X94874676Y-96194955D01*
X94570339Y-96472308D01*
X94549757Y-96368835D01*
X94409409Y-96158791D01*
X94350410Y-96119369D01*
X97164157Y-93305622D01*
X97238050Y-93256248D01*
X97287425Y-93182354D01*
X97405624Y-93064155D01*
X97551852Y-92845310D01*
X97620537Y-92500000D01*
X97551852Y-92154690D01*
X97485001Y-92054641D01*
X97485001Y-89429158D01*
X97502338Y-89341998D01*
X97485001Y-89254839D01*
X97485001Y-89254834D01*
X97465001Y-89154287D01*
X97465001Y-88285984D01*
X97635875Y-88285984D01*
X98016281Y-88128415D01*
X98108712Y-88035984D01*
X104036008Y-88035984D01*
X104113320Y-88051362D01*
X104190632Y-88035984D01*
X104190636Y-88035984D01*
X104419612Y-87990438D01*
X104556003Y-87899304D01*
X104705874Y-87899304D01*
X105086280Y-87741735D01*
X105377431Y-87450584D01*
X105535000Y-87070178D01*
X105535000Y-86658430D01*
X105377431Y-86278024D01*
X105086280Y-85986873D01*
X104705874Y-85829304D01*
X104294126Y-85829304D01*
X103913720Y-85986873D01*
X103622569Y-86278024D01*
X103544714Y-86465984D01*
X98108712Y-86465984D01*
X98016281Y-86373553D01*
X97918520Y-86333059D01*
X98224148Y-86027431D01*
X98586280Y-85877431D01*
X98877431Y-85586280D01*
X99035000Y-85205874D01*
X99035000Y-84794126D01*
X98877431Y-84413720D01*
X98586280Y-84122569D01*
X98205874Y-83965000D01*
X97794126Y-83965000D01*
X97413720Y-84122569D01*
X97122569Y-84413720D01*
X96972569Y-84775852D01*
X96629633Y-85118789D01*
X96401905Y-84569006D01*
X95730994Y-83898095D01*
X94854406Y-83535000D01*
X93905594Y-83535000D01*
X93029006Y-83898095D01*
X92686599Y-84240502D01*
X92686599Y-83806977D01*
X93438566Y-83055011D01*
X101132828Y-83055011D01*
X101219989Y-83072348D01*
X101307150Y-83055011D01*
X101307154Y-83055011D01*
X101565299Y-83003663D01*
X101858038Y-82808060D01*
X101907414Y-82734164D01*
X102548118Y-82093460D01*
X102465000Y-82294126D01*
X102465000Y-82294126D01*
G37*
X102465000Y-82294126D02*
X102465000Y-82705874D01*
X102622569Y-83086280D01*
X102913720Y-83377431D01*
X103294126Y-83535000D01*
X103415369Y-83535000D01*
X103440088Y-83571994D01*
X103505630Y-83615788D01*
X103505632Y-83615790D01*
X103661590Y-83719998D01*
X103699749Y-83745495D01*
X103928725Y-83791041D01*
X103928728Y-83791041D01*
X104006040Y-83806419D01*
X104083352Y-83791041D01*
X106815248Y-83791041D01*
X106907679Y-83883472D01*
X107288085Y-84041041D01*
X107699833Y-84041041D01*
X108080239Y-83883472D01*
X108201066Y-83762645D01*
X108316743Y-83878322D01*
X108269006Y-83898095D01*
X107598095Y-84569006D01*
X107235000Y-85445594D01*
X107235000Y-86394406D01*
X107598095Y-87270994D01*
X108269006Y-87941905D01*
X109145594Y-88305000D01*
X110094406Y-88305000D01*
X110970994Y-87941905D01*
X111296601Y-87616298D01*
X111296602Y-96035057D01*
X111027856Y-95981600D01*
X110735344Y-95981600D01*
X110544682Y-96019525D01*
X110291348Y-95766191D01*
X110247552Y-95700646D01*
X109987891Y-95527145D01*
X109758915Y-95481599D01*
X109758911Y-95481599D01*
X109681599Y-95466221D01*
X109604287Y-95481599D01*
X97682909Y-95481599D01*
X97605598Y-95466221D01*
X97535599Y-95480145D01*
X97465600Y-95466221D01*
X97388289Y-95481599D01*
X97388285Y-95481599D01*
X97159309Y-95527145D01*
X97070808Y-95586280D01*
X96965192Y-95656850D01*
X96965190Y-95656852D01*
X96899648Y-95700646D01*
X96855854Y-95766189D01*
X96418236Y-96203806D01*
X96408524Y-96194955D01*
X95998490Y-96025124D01*
X95768600Y-96146445D01*
X95768600Y-97339600D01*
X95788600Y-97339600D01*
X95788600Y-97593600D01*
X95768600Y-97593600D01*
X95768600Y-98786755D01*
X95998490Y-98908076D01*
X96056601Y-98884007D01*
X96056601Y-100796386D01*
X96011136Y-100766007D01*
X95629022Y-100690000D01*
X95441578Y-100690000D01*
X95062424Y-100310846D01*
X95013048Y-100236950D01*
X94720309Y-100041347D01*
X94462164Y-99989999D01*
X94462160Y-99989999D01*
X94374999Y-99972662D01*
X94353513Y-99976936D01*
X93340616Y-98964040D01*
X93951600Y-98964040D01*
X94199365Y-98914757D01*
X94409409Y-98774409D01*
X94549757Y-98564365D01*
X94570339Y-98460892D01*
X94874676Y-98738245D01*
X95284710Y-98908076D01*
X95514600Y-98786755D01*
X95514600Y-97593600D01*
X95494600Y-97593600D01*
X95494600Y-97339600D01*
X95514600Y-97339600D01*
X95514600Y-96146445D01*
X95284710Y-96025124D01*
X94874676Y-96194955D01*
X94570339Y-96472308D01*
X94549757Y-96368835D01*
X94409409Y-96158791D01*
X94350410Y-96119369D01*
X97164157Y-93305622D01*
X97238050Y-93256248D01*
X97287425Y-93182354D01*
X97405624Y-93064155D01*
X97551852Y-92845310D01*
X97620537Y-92500000D01*
X97551852Y-92154690D01*
X97485001Y-92054641D01*
X97485001Y-89429158D01*
X97502338Y-89341998D01*
X97485001Y-89254839D01*
X97485001Y-89254834D01*
X97465001Y-89154287D01*
X97465001Y-88285984D01*
X97635875Y-88285984D01*
X98016281Y-88128415D01*
X98108712Y-88035984D01*
X104036008Y-88035984D01*
X104113320Y-88051362D01*
X104190632Y-88035984D01*
X104190636Y-88035984D01*
X104419612Y-87990438D01*
X104556003Y-87899304D01*
X104705874Y-87899304D01*
X105086280Y-87741735D01*
X105377431Y-87450584D01*
X105535000Y-87070178D01*
X105535000Y-86658430D01*
X105377431Y-86278024D01*
X105086280Y-85986873D01*
X104705874Y-85829304D01*
X104294126Y-85829304D01*
X103913720Y-85986873D01*
X103622569Y-86278024D01*
X103544714Y-86465984D01*
X98108712Y-86465984D01*
X98016281Y-86373553D01*
X97918520Y-86333059D01*
X98224148Y-86027431D01*
X98586280Y-85877431D01*
X98877431Y-85586280D01*
X99035000Y-85205874D01*
X99035000Y-84794126D01*
X98877431Y-84413720D01*
X98586280Y-84122569D01*
X98205874Y-83965000D01*
X97794126Y-83965000D01*
X97413720Y-84122569D01*
X97122569Y-84413720D01*
X96972569Y-84775852D01*
X96629633Y-85118789D01*
X96401905Y-84569006D01*
X95730994Y-83898095D01*
X94854406Y-83535000D01*
X93905594Y-83535000D01*
X93029006Y-83898095D01*
X92686599Y-84240502D01*
X92686599Y-83806977D01*
X93438566Y-83055011D01*
X101132828Y-83055011D01*
X101219989Y-83072348D01*
X101307150Y-83055011D01*
X101307154Y-83055011D01*
X101565299Y-83003663D01*
X101858038Y-82808060D01*
X101907414Y-82734164D01*
X102548118Y-82093460D01*
X102465000Y-82294126D01*
G36*
X87765000Y-89190330D02*
X87800004Y-89274838D01*
X86999590Y-90075253D01*
X86934048Y-90119047D01*
X86890254Y-90184589D01*
X86890251Y-90184592D01*
X86760546Y-90378709D01*
X86699622Y-90685000D01*
X86715001Y-90762317D01*
X86715000Y-99922130D01*
X85777262Y-99922130D01*
X85497440Y-99642308D01*
X85497440Y-98900000D01*
X85448157Y-98652235D01*
X85307809Y-98442191D01*
X85097765Y-98301843D01*
X84850000Y-98252560D01*
X83150000Y-98252560D01*
X82902235Y-98301843D01*
X82884989Y-98313366D01*
X82884989Y-93870168D01*
X87765000Y-88990158D01*
X87765000Y-89190330D01*
X87765000Y-89190330D01*
G37*
X87765000Y-89190330D02*
X87800004Y-89274838D01*
X86999590Y-90075253D01*
X86934048Y-90119047D01*
X86890254Y-90184589D01*
X86890251Y-90184592D01*
X86760546Y-90378709D01*
X86699622Y-90685000D01*
X86715001Y-90762317D01*
X86715000Y-99922130D01*
X85777262Y-99922130D01*
X85497440Y-99642308D01*
X85497440Y-98900000D01*
X85448157Y-98652235D01*
X85307809Y-98442191D01*
X85097765Y-98301843D01*
X84850000Y-98252560D01*
X83150000Y-98252560D01*
X82902235Y-98301843D01*
X82884989Y-98313366D01*
X82884989Y-93870168D01*
X87765000Y-88990158D01*
X87765000Y-89190330D01*
G36*
X95715002Y-92251619D02*
X92686599Y-95280023D01*
X92686599Y-91821554D01*
X92776480Y-91881611D01*
X93276477Y-92381608D01*
X93557145Y-92569146D01*
X94000000Y-92657235D01*
X94442854Y-92569146D01*
X94818288Y-92318288D01*
X95069146Y-91942854D01*
X95133809Y-91617769D01*
X95715002Y-91036577D01*
X95715002Y-92251619D01*
X95715002Y-92251619D01*
G37*
X95715002Y-92251619D02*
X92686599Y-95280023D01*
X92686599Y-91821554D01*
X92776480Y-91881611D01*
X93276477Y-92381608D01*
X93557145Y-92569146D01*
X94000000Y-92657235D01*
X94442854Y-92569146D01*
X94818288Y-92318288D01*
X95069146Y-91942854D01*
X95133809Y-91617769D01*
X95715002Y-91036577D01*
X95715002Y-92251619D01*
G36*
X114893748Y-66010858D02*
X114879605Y-66025000D01*
X114893748Y-66039143D01*
X114714143Y-66218748D01*
X114700000Y-66204605D01*
X113799446Y-67105159D01*
X113850115Y-67255562D01*
X113830493Y-67263690D01*
X113398690Y-67695493D01*
X113165000Y-68259670D01*
X113165000Y-68870330D01*
X113398690Y-69434507D01*
X113799183Y-69835000D01*
X113398690Y-70235493D01*
X113165000Y-70799670D01*
X113165000Y-71410330D01*
X113398690Y-71974507D01*
X113404512Y-71980329D01*
X111972115Y-73412726D01*
X111906573Y-73456520D01*
X111862779Y-73522062D01*
X111862776Y-73522065D01*
X111733071Y-73716182D01*
X111672147Y-74022473D01*
X111687526Y-74099790D01*
X111687525Y-78830726D01*
X111254742Y-78628954D01*
X111017000Y-78749003D01*
X111017000Y-79993000D01*
X111037000Y-79993000D01*
X111037000Y-80247000D01*
X111017000Y-80247000D01*
X111017000Y-80267000D01*
X110763000Y-80267000D01*
X110763000Y-80247000D01*
X110743000Y-80247000D01*
X110743000Y-79993000D01*
X110763000Y-79993000D01*
X110763000Y-78749003D01*
X110525258Y-78628954D01*
X109982424Y-78882034D01*
X109627624Y-79269174D01*
X109456673Y-79013327D01*
X108948927Y-78674062D01*
X108501182Y-78585000D01*
X108198818Y-78585000D01*
X107751073Y-78674062D01*
X107243327Y-79013327D01*
X107080000Y-79257763D01*
X106916673Y-79013327D01*
X106408927Y-78674062D01*
X105961182Y-78585000D01*
X105658818Y-78585000D01*
X105211073Y-78674062D01*
X104703327Y-79013327D01*
X104540000Y-79257763D01*
X104376673Y-79013327D01*
X103868927Y-78674062D01*
X103421182Y-78585000D01*
X103118818Y-78585000D01*
X102671073Y-78674062D01*
X102163327Y-79013327D01*
X102000000Y-79257763D01*
X101836673Y-79013327D01*
X101328927Y-78674062D01*
X100881182Y-78585000D01*
X100578818Y-78585000D01*
X100131073Y-78674062D01*
X99623327Y-79013327D01*
X99453582Y-79267368D01*
X99427966Y-79212424D01*
X98986417Y-78807760D01*
X98554740Y-78628964D01*
X98317000Y-78749622D01*
X98317000Y-79993000D01*
X98337000Y-79993000D01*
X98337000Y-80247000D01*
X98317000Y-80247000D01*
X98317000Y-80267000D01*
X98063000Y-80267000D01*
X98063000Y-80247000D01*
X98043000Y-80247000D01*
X98043000Y-79993000D01*
X98063000Y-79993000D01*
X98063000Y-78749622D01*
X97825260Y-78628964D01*
X97393583Y-78807760D01*
X96952034Y-79212424D01*
X96926418Y-79267368D01*
X96756673Y-79013327D01*
X96684990Y-78965430D01*
X96684990Y-77648701D01*
X96913720Y-77877431D01*
X97294126Y-78035000D01*
X97705874Y-78035000D01*
X98086280Y-77877431D01*
X98228711Y-77735000D01*
X105271289Y-77735000D01*
X105413720Y-77877431D01*
X105794126Y-78035000D01*
X106205874Y-78035000D01*
X106586280Y-77877431D01*
X106877431Y-77586280D01*
X107035000Y-77205874D01*
X107035000Y-76794126D01*
X106877832Y-76414689D01*
X107594918Y-76414689D01*
X107753668Y-76255939D01*
X107753668Y-75156689D01*
X108007668Y-75156689D01*
X108007668Y-76255939D01*
X108166418Y-76414689D01*
X109006977Y-76414689D01*
X109240366Y-76318016D01*
X109418995Y-76139388D01*
X109515668Y-75905999D01*
X109515668Y-75315439D01*
X109356918Y-75156689D01*
X108007668Y-75156689D01*
X107753668Y-75156689D01*
X106404418Y-75156689D01*
X106245668Y-75315439D01*
X106245668Y-75905999D01*
X106283410Y-75997116D01*
X106205874Y-75965000D01*
X105794126Y-75965000D01*
X105413720Y-76122569D01*
X105271289Y-76265000D01*
X98228711Y-76265000D01*
X98086280Y-76122569D01*
X97705874Y-75965000D01*
X97294126Y-75965000D01*
X96913720Y-76122569D01*
X96684990Y-76351299D01*
X96684990Y-74663004D01*
X97010140Y-74337854D01*
X97165301Y-74493016D01*
X97398690Y-74589689D01*
X97714250Y-74589689D01*
X97873000Y-74430939D01*
X97873000Y-73644189D01*
X98127000Y-73644189D01*
X98127000Y-74430939D01*
X98285750Y-74589689D01*
X98601310Y-74589689D01*
X98740334Y-74532103D01*
X98879358Y-74589689D01*
X99194918Y-74589689D01*
X99353668Y-74430939D01*
X99353668Y-73644189D01*
X98127000Y-73644189D01*
X97873000Y-73644189D01*
X97853000Y-73644189D01*
X97853000Y-73494995D01*
X97977806Y-73370189D01*
X98127000Y-73370189D01*
X98127000Y-73390189D01*
X99353668Y-73390189D01*
X99353668Y-73370189D01*
X99607668Y-73370189D01*
X99607668Y-73390189D01*
X99627668Y-73390189D01*
X99627668Y-73644189D01*
X99607668Y-73644189D01*
X99607668Y-74430939D01*
X99766418Y-74589689D01*
X99933228Y-74589689D01*
X99933228Y-74629689D01*
X99982511Y-74877454D01*
X100122859Y-75087498D01*
X100332903Y-75227846D01*
X100580668Y-75277129D01*
X102580668Y-75277129D01*
X102828433Y-75227846D01*
X103038477Y-75087498D01*
X103178825Y-74877454D01*
X103228108Y-74629689D01*
X103228108Y-73864689D01*
X106374209Y-73864689D01*
X106383595Y-73878736D01*
X106342341Y-73919990D01*
X106245668Y-74153379D01*
X106245668Y-74743939D01*
X106404418Y-74902689D01*
X107753668Y-74902689D01*
X107753668Y-74882689D01*
X108007668Y-74882689D01*
X108007668Y-74902689D01*
X109356918Y-74902689D01*
X109515668Y-74743939D01*
X109515668Y-74153379D01*
X109418995Y-73919990D01*
X109377741Y-73878736D01*
X109478825Y-73727454D01*
X109528108Y-73479689D01*
X109528108Y-71979689D01*
X109478825Y-71731924D01*
X109377104Y-71579689D01*
X109478825Y-71427454D01*
X109528108Y-71179689D01*
X109528108Y-70262023D01*
X113242576Y-66547556D01*
X113363357Y-66839148D01*
X113619841Y-66925554D01*
X114520395Y-66025000D01*
X114506253Y-66010858D01*
X114685858Y-65831253D01*
X114700000Y-65845395D01*
X114714143Y-65831253D01*
X114893748Y-66010858D01*
X114893748Y-66010858D01*
G37*
X114893748Y-66010858D02*
X114879605Y-66025000D01*
X114893748Y-66039143D01*
X114714143Y-66218748D01*
X114700000Y-66204605D01*
X113799446Y-67105159D01*
X113850115Y-67255562D01*
X113830493Y-67263690D01*
X113398690Y-67695493D01*
X113165000Y-68259670D01*
X113165000Y-68870330D01*
X113398690Y-69434507D01*
X113799183Y-69835000D01*
X113398690Y-70235493D01*
X113165000Y-70799670D01*
X113165000Y-71410330D01*
X113398690Y-71974507D01*
X113404512Y-71980329D01*
X111972115Y-73412726D01*
X111906573Y-73456520D01*
X111862779Y-73522062D01*
X111862776Y-73522065D01*
X111733071Y-73716182D01*
X111672147Y-74022473D01*
X111687526Y-74099790D01*
X111687525Y-78830726D01*
X111254742Y-78628954D01*
X111017000Y-78749003D01*
X111017000Y-79993000D01*
X111037000Y-79993000D01*
X111037000Y-80247000D01*
X111017000Y-80247000D01*
X111017000Y-80267000D01*
X110763000Y-80267000D01*
X110763000Y-80247000D01*
X110743000Y-80247000D01*
X110743000Y-79993000D01*
X110763000Y-79993000D01*
X110763000Y-78749003D01*
X110525258Y-78628954D01*
X109982424Y-78882034D01*
X109627624Y-79269174D01*
X109456673Y-79013327D01*
X108948927Y-78674062D01*
X108501182Y-78585000D01*
X108198818Y-78585000D01*
X107751073Y-78674062D01*
X107243327Y-79013327D01*
X107080000Y-79257763D01*
X106916673Y-79013327D01*
X106408927Y-78674062D01*
X105961182Y-78585000D01*
X105658818Y-78585000D01*
X105211073Y-78674062D01*
X104703327Y-79013327D01*
X104540000Y-79257763D01*
X104376673Y-79013327D01*
X103868927Y-78674062D01*
X103421182Y-78585000D01*
X103118818Y-78585000D01*
X102671073Y-78674062D01*
X102163327Y-79013327D01*
X102000000Y-79257763D01*
X101836673Y-79013327D01*
X101328927Y-78674062D01*
X100881182Y-78585000D01*
X100578818Y-78585000D01*
X100131073Y-78674062D01*
X99623327Y-79013327D01*
X99453582Y-79267368D01*
X99427966Y-79212424D01*
X98986417Y-78807760D01*
X98554740Y-78628964D01*
X98317000Y-78749622D01*
X98317000Y-79993000D01*
X98337000Y-79993000D01*
X98337000Y-80247000D01*
X98317000Y-80247000D01*
X98317000Y-80267000D01*
X98063000Y-80267000D01*
X98063000Y-80247000D01*
X98043000Y-80247000D01*
X98043000Y-79993000D01*
X98063000Y-79993000D01*
X98063000Y-78749622D01*
X97825260Y-78628964D01*
X97393583Y-78807760D01*
X96952034Y-79212424D01*
X96926418Y-79267368D01*
X96756673Y-79013327D01*
X96684990Y-78965430D01*
X96684990Y-77648701D01*
X96913720Y-77877431D01*
X97294126Y-78035000D01*
X97705874Y-78035000D01*
X98086280Y-77877431D01*
X98228711Y-77735000D01*
X105271289Y-77735000D01*
X105413720Y-77877431D01*
X105794126Y-78035000D01*
X106205874Y-78035000D01*
X106586280Y-77877431D01*
X106877431Y-77586280D01*
X107035000Y-77205874D01*
X107035000Y-76794126D01*
X106877832Y-76414689D01*
X107594918Y-76414689D01*
X107753668Y-76255939D01*
X107753668Y-75156689D01*
X108007668Y-75156689D01*
X108007668Y-76255939D01*
X108166418Y-76414689D01*
X109006977Y-76414689D01*
X109240366Y-76318016D01*
X109418995Y-76139388D01*
X109515668Y-75905999D01*
X109515668Y-75315439D01*
X109356918Y-75156689D01*
X108007668Y-75156689D01*
X107753668Y-75156689D01*
X106404418Y-75156689D01*
X106245668Y-75315439D01*
X106245668Y-75905999D01*
X106283410Y-75997116D01*
X106205874Y-75965000D01*
X105794126Y-75965000D01*
X105413720Y-76122569D01*
X105271289Y-76265000D01*
X98228711Y-76265000D01*
X98086280Y-76122569D01*
X97705874Y-75965000D01*
X97294126Y-75965000D01*
X96913720Y-76122569D01*
X96684990Y-76351299D01*
X96684990Y-74663004D01*
X97010140Y-74337854D01*
X97165301Y-74493016D01*
X97398690Y-74589689D01*
X97714250Y-74589689D01*
X97873000Y-74430939D01*
X97873000Y-73644189D01*
X98127000Y-73644189D01*
X98127000Y-74430939D01*
X98285750Y-74589689D01*
X98601310Y-74589689D01*
X98740334Y-74532103D01*
X98879358Y-74589689D01*
X99194918Y-74589689D01*
X99353668Y-74430939D01*
X99353668Y-73644189D01*
X98127000Y-73644189D01*
X97873000Y-73644189D01*
X97853000Y-73644189D01*
X97853000Y-73494995D01*
X97977806Y-73370189D01*
X98127000Y-73370189D01*
X98127000Y-73390189D01*
X99353668Y-73390189D01*
X99353668Y-73370189D01*
X99607668Y-73370189D01*
X99607668Y-73390189D01*
X99627668Y-73390189D01*
X99627668Y-73644189D01*
X99607668Y-73644189D01*
X99607668Y-74430939D01*
X99766418Y-74589689D01*
X99933228Y-74589689D01*
X99933228Y-74629689D01*
X99982511Y-74877454D01*
X100122859Y-75087498D01*
X100332903Y-75227846D01*
X100580668Y-75277129D01*
X102580668Y-75277129D01*
X102828433Y-75227846D01*
X103038477Y-75087498D01*
X103178825Y-74877454D01*
X103228108Y-74629689D01*
X103228108Y-73864689D01*
X106374209Y-73864689D01*
X106383595Y-73878736D01*
X106342341Y-73919990D01*
X106245668Y-74153379D01*
X106245668Y-74743939D01*
X106404418Y-74902689D01*
X107753668Y-74902689D01*
X107753668Y-74882689D01*
X108007668Y-74882689D01*
X108007668Y-74902689D01*
X109356918Y-74902689D01*
X109515668Y-74743939D01*
X109515668Y-74153379D01*
X109418995Y-73919990D01*
X109377741Y-73878736D01*
X109478825Y-73727454D01*
X109528108Y-73479689D01*
X109528108Y-71979689D01*
X109478825Y-71731924D01*
X109377104Y-71579689D01*
X109478825Y-71427454D01*
X109528108Y-71179689D01*
X109528108Y-70262023D01*
X113242576Y-66547556D01*
X113363357Y-66839148D01*
X113619841Y-66925554D01*
X114520395Y-66025000D01*
X114506253Y-66010858D01*
X114685858Y-65831253D01*
X114700000Y-65845395D01*
X114714143Y-65831253D01*
X114893748Y-66010858D01*
G36*
X123411655Y-64950847D02*
X123409912Y-64970771D01*
X123429836Y-64972514D01*
X123407698Y-65225548D01*
X123387774Y-65223805D01*
X123386031Y-65243729D01*
X123132997Y-65221591D01*
X123134740Y-65201667D01*
X123114816Y-65199924D01*
X123136954Y-64946890D01*
X123156878Y-64948633D01*
X123158621Y-64928709D01*
X123411655Y-64950847D01*
X123411655Y-64950847D01*
G37*
X123411655Y-64950847D02*
X123409912Y-64970771D01*
X123429836Y-64972514D01*
X123407698Y-65225548D01*
X123387774Y-65223805D01*
X123386031Y-65243729D01*
X123132997Y-65221591D01*
X123134740Y-65201667D01*
X123114816Y-65199924D01*
X123136954Y-64946890D01*
X123156878Y-64948633D01*
X123158621Y-64928709D01*
X123411655Y-64950847D01*
G36*
X108421684Y-62997132D02*
X108462688Y-63058500D01*
X108705810Y-63220949D01*
X108920205Y-63263595D01*
X108920208Y-63263595D01*
X108992592Y-63277993D01*
X109064976Y-63263595D01*
X112399021Y-63263595D01*
X112471405Y-63277993D01*
X112543789Y-63263595D01*
X112543793Y-63263595D01*
X112758188Y-63220949D01*
X113001310Y-63058500D01*
X113042316Y-62997130D01*
X113380826Y-62658621D01*
X113165000Y-63179670D01*
X113165000Y-63414868D01*
X112280428Y-64299441D01*
X112127966Y-63972424D01*
X111686417Y-63567760D01*
X111254740Y-63388964D01*
X111017000Y-63509622D01*
X111017000Y-64753000D01*
X111037000Y-64753000D01*
X111037000Y-65007000D01*
X111017000Y-65007000D01*
X111017000Y-65027000D01*
X110763000Y-65027000D01*
X110763000Y-65007000D01*
X110743000Y-65007000D01*
X110743000Y-64753000D01*
X110763000Y-64753000D01*
X110763000Y-63509622D01*
X110525260Y-63388964D01*
X110093583Y-63567760D01*
X109652034Y-63972424D01*
X109626418Y-64027368D01*
X109456673Y-63773327D01*
X108948927Y-63434062D01*
X108501182Y-63345000D01*
X108198818Y-63345000D01*
X107751073Y-63434062D01*
X107243327Y-63773327D01*
X107080000Y-64017763D01*
X106916673Y-63773327D01*
X106408927Y-63434062D01*
X105961182Y-63345000D01*
X105658818Y-63345000D01*
X105211073Y-63434062D01*
X104703327Y-63773327D01*
X104540000Y-64017763D01*
X104376673Y-63773327D01*
X103868927Y-63434062D01*
X103421182Y-63345000D01*
X103118818Y-63345000D01*
X102860161Y-63396450D01*
X102785000Y-63321289D01*
X102785000Y-62760000D01*
X103714250Y-62760000D01*
X103873000Y-62601250D01*
X103873000Y-61627000D01*
X104127000Y-61627000D01*
X104127000Y-62601250D01*
X104285750Y-62760000D01*
X105626310Y-62760000D01*
X105859699Y-62663327D01*
X106038327Y-62484698D01*
X106135000Y-62251309D01*
X106135000Y-61785750D01*
X105976250Y-61627000D01*
X104127000Y-61627000D01*
X103873000Y-61627000D01*
X103853000Y-61627000D01*
X103853000Y-61373000D01*
X103873000Y-61373000D01*
X103873000Y-61353000D01*
X104127000Y-61353000D01*
X104127000Y-61373000D01*
X105976250Y-61373000D01*
X106135000Y-61214250D01*
X106135000Y-60748691D01*
X106107958Y-60683406D01*
X108421684Y-62997132D01*
X108421684Y-62997132D01*
G37*
X108421684Y-62997132D02*
X108462688Y-63058500D01*
X108705810Y-63220949D01*
X108920205Y-63263595D01*
X108920208Y-63263595D01*
X108992592Y-63277993D01*
X109064976Y-63263595D01*
X112399021Y-63263595D01*
X112471405Y-63277993D01*
X112543789Y-63263595D01*
X112543793Y-63263595D01*
X112758188Y-63220949D01*
X113001310Y-63058500D01*
X113042316Y-62997130D01*
X113380826Y-62658621D01*
X113165000Y-63179670D01*
X113165000Y-63414868D01*
X112280428Y-64299441D01*
X112127966Y-63972424D01*
X111686417Y-63567760D01*
X111254740Y-63388964D01*
X111017000Y-63509622D01*
X111017000Y-64753000D01*
X111037000Y-64753000D01*
X111037000Y-65007000D01*
X111017000Y-65007000D01*
X111017000Y-65027000D01*
X110763000Y-65027000D01*
X110763000Y-65007000D01*
X110743000Y-65007000D01*
X110743000Y-64753000D01*
X110763000Y-64753000D01*
X110763000Y-63509622D01*
X110525260Y-63388964D01*
X110093583Y-63567760D01*
X109652034Y-63972424D01*
X109626418Y-64027368D01*
X109456673Y-63773327D01*
X108948927Y-63434062D01*
X108501182Y-63345000D01*
X108198818Y-63345000D01*
X107751073Y-63434062D01*
X107243327Y-63773327D01*
X107080000Y-64017763D01*
X106916673Y-63773327D01*
X106408927Y-63434062D01*
X105961182Y-63345000D01*
X105658818Y-63345000D01*
X105211073Y-63434062D01*
X104703327Y-63773327D01*
X104540000Y-64017763D01*
X104376673Y-63773327D01*
X103868927Y-63434062D01*
X103421182Y-63345000D01*
X103118818Y-63345000D01*
X102860161Y-63396450D01*
X102785000Y-63321289D01*
X102785000Y-62760000D01*
X103714250Y-62760000D01*
X103873000Y-62601250D01*
X103873000Y-61627000D01*
X104127000Y-61627000D01*
X104127000Y-62601250D01*
X104285750Y-62760000D01*
X105626310Y-62760000D01*
X105859699Y-62663327D01*
X106038327Y-62484698D01*
X106135000Y-62251309D01*
X106135000Y-61785750D01*
X105976250Y-61627000D01*
X104127000Y-61627000D01*
X103873000Y-61627000D01*
X103853000Y-61627000D01*
X103853000Y-61373000D01*
X103873000Y-61373000D01*
X103873000Y-61353000D01*
X104127000Y-61353000D01*
X104127000Y-61373000D01*
X105976250Y-61373000D01*
X106135000Y-61214250D01*
X106135000Y-60748691D01*
X106107958Y-60683406D01*
X108421684Y-62997132D01*
G36*
X124891182Y-64645348D02*
X124847981Y-64688549D01*
X124868916Y-64449256D01*
X124890934Y-64197598D01*
X124877140Y-64153850D01*
X124883574Y-64145833D01*
X124891182Y-64119729D01*
X124891182Y-64645348D01*
X124891182Y-64645348D01*
G37*
X124891182Y-64645348D02*
X124847981Y-64688549D01*
X124868916Y-64449256D01*
X124890934Y-64197598D01*
X124877140Y-64153850D01*
X124883574Y-64145833D01*
X124891182Y-64119729D01*
X124891182Y-64645348D01*
G36*
X128127000Y-63873000D02*
X128147000Y-63873000D01*
X128147000Y-64127000D01*
X128127000Y-64127000D01*
X128127000Y-64147000D01*
X127873000Y-64147000D01*
X127873000Y-64127000D01*
X127853000Y-64127000D01*
X127853000Y-63873000D01*
X127873000Y-63873000D01*
X127873000Y-63853000D01*
X128127000Y-63853000D01*
X128127000Y-63873000D01*
X128127000Y-63873000D01*
G37*
X128127000Y-63873000D02*
X128147000Y-63873000D01*
X128147000Y-64127000D01*
X128127000Y-64127000D01*
X128127000Y-64147000D01*
X127873000Y-64147000D01*
X127873000Y-64127000D01*
X127853000Y-64127000D01*
X127853000Y-63873000D01*
X127873000Y-63873000D01*
X127873000Y-63853000D01*
X128127000Y-63853000D01*
X128127000Y-63873000D01*
G36*
X125165000Y-59871289D02*
X125122569Y-59913720D01*
X124965000Y-60294126D01*
X124965000Y-60705874D01*
X125122569Y-61086280D01*
X125413720Y-61377431D01*
X125794126Y-61535000D01*
X126127587Y-61535000D01*
X126107851Y-61582647D01*
X126107851Y-61713363D01*
X125175772Y-62645443D01*
X125110230Y-62689237D01*
X125066436Y-62754779D01*
X125066433Y-62754782D01*
X125052986Y-62774907D01*
X125111144Y-62110157D01*
X125083642Y-61859040D01*
X124962136Y-61637563D01*
X124765122Y-61479443D01*
X124522596Y-61408753D01*
X122970914Y-61272999D01*
X122970914Y-60247440D01*
X123450001Y-60247440D01*
X123793436Y-60179127D01*
X124084586Y-59984586D01*
X124279127Y-59693436D01*
X124347440Y-59350001D01*
X124347440Y-59043322D01*
X124351937Y-59043322D01*
X124769097Y-58870529D01*
X125088378Y-58551248D01*
X125165001Y-58366264D01*
X125165000Y-59871289D01*
X125165000Y-59871289D01*
G37*
X125165000Y-59871289D02*
X125122569Y-59913720D01*
X124965000Y-60294126D01*
X124965000Y-60705874D01*
X125122569Y-61086280D01*
X125413720Y-61377431D01*
X125794126Y-61535000D01*
X126127587Y-61535000D01*
X126107851Y-61582647D01*
X126107851Y-61713363D01*
X125175772Y-62645443D01*
X125110230Y-62689237D01*
X125066436Y-62754779D01*
X125066433Y-62754782D01*
X125052986Y-62774907D01*
X125111144Y-62110157D01*
X125083642Y-61859040D01*
X124962136Y-61637563D01*
X124765122Y-61479443D01*
X124522596Y-61408753D01*
X122970914Y-61272999D01*
X122970914Y-60247440D01*
X123450001Y-60247440D01*
X123793436Y-60179127D01*
X124084586Y-59984586D01*
X124279127Y-59693436D01*
X124347440Y-59350001D01*
X124347440Y-59043322D01*
X124351937Y-59043322D01*
X124769097Y-58870529D01*
X125088378Y-58551248D01*
X125165001Y-58366264D01*
X125165000Y-59871289D01*
G36*
X123206493Y-55844257D02*
X123127000Y-55923750D01*
X123127000Y-56848000D01*
X123147000Y-56848000D01*
X123147000Y-57102000D01*
X123127000Y-57102000D01*
X123127000Y-57122000D01*
X122873000Y-57122000D01*
X122873000Y-57102000D01*
X122853000Y-57102000D01*
X122853000Y-56848000D01*
X122873000Y-56848000D01*
X122873000Y-55923750D01*
X122714250Y-55765000D01*
X122173690Y-55765000D01*
X121940301Y-55861673D01*
X121761673Y-56040302D01*
X121665000Y-56273691D01*
X121665000Y-56582681D01*
X121373298Y-56461855D01*
X120901876Y-56461855D01*
X120466338Y-56642260D01*
X120132992Y-56975606D01*
X119952587Y-57411144D01*
X119952587Y-57882566D01*
X120132992Y-58318104D01*
X120466338Y-58651450D01*
X120901876Y-58831855D01*
X121373298Y-58831855D01*
X121652560Y-58716181D01*
X121652560Y-59251352D01*
X121619962Y-59273133D01*
X121576168Y-59338675D01*
X121576165Y-59338678D01*
X121446460Y-59532795D01*
X121385536Y-59839086D01*
X121400915Y-59916403D01*
X121400915Y-61179449D01*
X121241243Y-61113311D01*
X120630583Y-61113311D01*
X120066406Y-61347001D01*
X119635433Y-61777974D01*
X119635433Y-56927745D01*
X119650811Y-56850433D01*
X119635433Y-56773121D01*
X119635433Y-56773117D01*
X119589887Y-56544141D01*
X119572799Y-56518567D01*
X119460182Y-56350024D01*
X119460180Y-56350022D01*
X119416386Y-56284480D01*
X119350844Y-56240686D01*
X119035000Y-55924842D01*
X119035000Y-55794126D01*
X118877431Y-55413720D01*
X118586280Y-55122569D01*
X118205874Y-54965000D01*
X117811484Y-54965000D01*
X118741486Y-54034999D01*
X121397235Y-54034999D01*
X123206493Y-55844257D01*
X123206493Y-55844257D01*
G37*
X123206493Y-55844257D02*
X123127000Y-55923750D01*
X123127000Y-56848000D01*
X123147000Y-56848000D01*
X123147000Y-57102000D01*
X123127000Y-57102000D01*
X123127000Y-57122000D01*
X122873000Y-57122000D01*
X122873000Y-57102000D01*
X122853000Y-57102000D01*
X122853000Y-56848000D01*
X122873000Y-56848000D01*
X122873000Y-55923750D01*
X122714250Y-55765000D01*
X122173690Y-55765000D01*
X121940301Y-55861673D01*
X121761673Y-56040302D01*
X121665000Y-56273691D01*
X121665000Y-56582681D01*
X121373298Y-56461855D01*
X120901876Y-56461855D01*
X120466338Y-56642260D01*
X120132992Y-56975606D01*
X119952587Y-57411144D01*
X119952587Y-57882566D01*
X120132992Y-58318104D01*
X120466338Y-58651450D01*
X120901876Y-58831855D01*
X121373298Y-58831855D01*
X121652560Y-58716181D01*
X121652560Y-59251352D01*
X121619962Y-59273133D01*
X121576168Y-59338675D01*
X121576165Y-59338678D01*
X121446460Y-59532795D01*
X121385536Y-59839086D01*
X121400915Y-59916403D01*
X121400915Y-61179449D01*
X121241243Y-61113311D01*
X120630583Y-61113311D01*
X120066406Y-61347001D01*
X119635433Y-61777974D01*
X119635433Y-56927745D01*
X119650811Y-56850433D01*
X119635433Y-56773121D01*
X119635433Y-56773117D01*
X119589887Y-56544141D01*
X119572799Y-56518567D01*
X119460182Y-56350024D01*
X119460180Y-56350022D01*
X119416386Y-56284480D01*
X119350844Y-56240686D01*
X119035000Y-55924842D01*
X119035000Y-55794126D01*
X118877431Y-55413720D01*
X118586280Y-55122569D01*
X118205874Y-54965000D01*
X117811484Y-54965000D01*
X118741486Y-54034999D01*
X121397235Y-54034999D01*
X123206493Y-55844257D01*
G36*
X110854359Y-60781714D02*
X110869679Y-60768859D01*
X111032948Y-60963434D01*
X111017627Y-60976290D01*
X111030482Y-60991610D01*
X110835907Y-61154879D01*
X110823051Y-61139558D01*
X110807731Y-61152413D01*
X110644462Y-60957838D01*
X110659783Y-60944982D01*
X110646928Y-60929662D01*
X110841503Y-60766393D01*
X110854359Y-60781714D01*
X110854359Y-60781714D01*
G37*
X110854359Y-60781714D02*
X110869679Y-60768859D01*
X111032948Y-60963434D01*
X111017627Y-60976290D01*
X111030482Y-60991610D01*
X110835907Y-61154879D01*
X110823051Y-61139558D01*
X110807731Y-61152413D01*
X110644462Y-60957838D01*
X110659783Y-60944982D01*
X110646928Y-60929662D01*
X110841503Y-60766393D01*
X110854359Y-60781714D01*
G04 #@! TD*
M02*
