G04 #@! TF.GenerationSoftware,KiCad,Pcbnew,(5.0.1)-3*
G04 #@! TF.CreationDate,2022-06-15T15:11:29+08:00*
G04 #@! TF.ProjectId,Micromouse_V01,4D6963726F6D6F7573655F5630312E6B,rev?*
G04 #@! TF.SameCoordinates,Original*
G04 #@! TF.FileFunction,Legend,Bot*
G04 #@! TF.FilePolarity,Positive*
%FSLAX46Y46*%
G04 Gerber Fmt 4.6, Leading zero omitted, Abs format (unit mm)*
G04 Created by KiCad (PCBNEW (5.0.1)-3) date 15-Jun-22 3:11:29 PM*
%MOMM*%
%LPD*%
G01*
G04 APERTURE LIST*
%ADD10C,0.300000*%
%ADD11C,0.400000*%
%ADD12C,0.120000*%
G04 APERTURE END LIST*
D10*
X92500000Y-137678571D02*
X92214285Y-137678571D01*
X92071428Y-137750000D01*
X91928571Y-137892857D01*
X91857142Y-138178571D01*
X91857142Y-138678571D01*
X91928571Y-138964285D01*
X92071428Y-139107142D01*
X92214285Y-139178571D01*
X92500000Y-139178571D01*
X92642857Y-139107142D01*
X92785714Y-138964285D01*
X92857142Y-138678571D01*
X92857142Y-138178571D01*
X92785714Y-137892857D01*
X92642857Y-137750000D01*
X92500000Y-137678571D01*
X91428571Y-138178571D02*
X90857142Y-138178571D01*
X91214285Y-139178571D02*
X91214285Y-137892857D01*
X91142857Y-137750000D01*
X91000000Y-137678571D01*
X90857142Y-137678571D01*
X90571428Y-138178571D02*
X90000000Y-138178571D01*
X90357142Y-139178571D02*
X90357142Y-137892857D01*
X90285714Y-137750000D01*
X90142857Y-137678571D01*
X90000000Y-137678571D01*
X79321428Y-137678571D02*
X79035714Y-137678571D01*
X78892857Y-137750000D01*
X78750000Y-137892857D01*
X78678571Y-138178571D01*
X78678571Y-138678571D01*
X78750000Y-138964285D01*
X78892857Y-139107142D01*
X79035714Y-139178571D01*
X79321428Y-139178571D01*
X79464285Y-139107142D01*
X79607142Y-138964285D01*
X79678571Y-138678571D01*
X79678571Y-138178571D01*
X79607142Y-137892857D01*
X79464285Y-137750000D01*
X79321428Y-137678571D01*
X78035714Y-138178571D02*
X78035714Y-139178571D01*
X78035714Y-138321428D02*
X77964285Y-138250000D01*
X77821428Y-138178571D01*
X77607142Y-138178571D01*
X77464285Y-138250000D01*
X77392857Y-138392857D01*
X77392857Y-139178571D01*
D11*
X106922380Y-117504761D02*
X106672380Y-115504761D01*
X106184285Y-116933333D01*
X105339047Y-115504761D01*
X105589047Y-117504761D01*
X103779523Y-117504761D02*
X103648571Y-116457142D01*
X103720000Y-116266666D01*
X103898571Y-116171428D01*
X104279523Y-116171428D01*
X104481904Y-116266666D01*
X103767619Y-117409523D02*
X103970000Y-117504761D01*
X104446190Y-117504761D01*
X104624761Y-117409523D01*
X104696190Y-117219047D01*
X104672380Y-117028571D01*
X104553333Y-116838095D01*
X104350952Y-116742857D01*
X103874761Y-116742857D01*
X103672380Y-116647619D01*
X102827142Y-117504761D02*
X102660476Y-116171428D01*
X102684285Y-116361904D02*
X102577142Y-116266666D01*
X102374761Y-116171428D01*
X102089047Y-116171428D01*
X101910476Y-116266666D01*
X101839047Y-116457142D01*
X101970000Y-117504761D01*
X101839047Y-116457142D02*
X101720000Y-116266666D01*
X101517619Y-116171428D01*
X101231904Y-116171428D01*
X101053333Y-116266666D01*
X100981904Y-116457142D01*
X101112857Y-117504761D01*
X100160476Y-117504761D02*
X99910476Y-115504761D01*
X100005714Y-116266666D02*
X99803333Y-116171428D01*
X99422380Y-116171428D01*
X99243809Y-116266666D01*
X99160476Y-116361904D01*
X99089047Y-116552380D01*
X99160476Y-117123809D01*
X99279523Y-117314285D01*
X99386666Y-117409523D01*
X99589047Y-117504761D01*
X99970000Y-117504761D01*
X100148571Y-117409523D01*
X97493809Y-117504761D02*
X97362857Y-116457142D01*
X97434285Y-116266666D01*
X97612857Y-116171428D01*
X97993809Y-116171428D01*
X98196190Y-116266666D01*
X97481904Y-117409523D02*
X97684285Y-117504761D01*
X98160476Y-117504761D01*
X98339047Y-117409523D01*
X98410476Y-117219047D01*
X98386666Y-117028571D01*
X98267619Y-116838095D01*
X98065238Y-116742857D01*
X97589047Y-116742857D01*
X97386666Y-116647619D01*
X105148571Y-118904761D02*
X104005714Y-118904761D01*
X104827142Y-120904761D02*
X104577142Y-118904761D01*
X102815238Y-120809523D02*
X103017619Y-120904761D01*
X103398571Y-120904761D01*
X103577142Y-120809523D01*
X103648571Y-120619047D01*
X103553333Y-119857142D01*
X103434285Y-119666666D01*
X103231904Y-119571428D01*
X102850952Y-119571428D01*
X102672380Y-119666666D01*
X102600952Y-119857142D01*
X102624761Y-120047619D01*
X103600952Y-120238095D01*
X101005714Y-120809523D02*
X101208095Y-120904761D01*
X101589047Y-120904761D01*
X101767619Y-120809523D01*
X101850952Y-120714285D01*
X101922380Y-120523809D01*
X101850952Y-119952380D01*
X101731904Y-119761904D01*
X101624761Y-119666666D01*
X101422380Y-119571428D01*
X101041428Y-119571428D01*
X100862857Y-119666666D01*
X100160476Y-120904761D02*
X99910476Y-118904761D01*
X99303333Y-120904761D02*
X99172380Y-119857142D01*
X99243809Y-119666666D01*
X99422380Y-119571428D01*
X99708095Y-119571428D01*
X99910476Y-119666666D01*
X100017619Y-119761904D01*
X108148571Y-122304761D02*
X107731904Y-124304761D01*
X106815238Y-122304761D01*
X105624761Y-124209523D02*
X105827142Y-124304761D01*
X106208095Y-124304761D01*
X106386666Y-124209523D01*
X106458095Y-124019047D01*
X106362857Y-123257142D01*
X106243809Y-123066666D01*
X106041428Y-122971428D01*
X105660476Y-122971428D01*
X105481904Y-123066666D01*
X105410476Y-123257142D01*
X105434285Y-123447619D01*
X106410476Y-123638095D01*
X104517619Y-122971428D02*
X104684285Y-124304761D01*
X104541428Y-123161904D02*
X104434285Y-123066666D01*
X104231904Y-122971428D01*
X103946190Y-122971428D01*
X103767619Y-123066666D01*
X103696190Y-123257142D01*
X103827142Y-124304761D01*
X102993809Y-122971428D02*
X102231904Y-122971428D01*
X102624761Y-122304761D02*
X102839047Y-124019047D01*
X102767619Y-124209523D01*
X102589047Y-124304761D01*
X102398571Y-124304761D01*
X100708095Y-122971428D02*
X100874761Y-124304761D01*
X101565238Y-122971428D02*
X101696190Y-124019047D01*
X101624761Y-124209523D01*
X101446190Y-124304761D01*
X101160476Y-124304761D01*
X100958095Y-124209523D01*
X100850952Y-124114285D01*
X99922380Y-124304761D02*
X99755714Y-122971428D01*
X99803333Y-123352380D02*
X99684285Y-123161904D01*
X99577142Y-123066666D01*
X99374761Y-122971428D01*
X99184285Y-122971428D01*
X97910476Y-124209523D02*
X98112857Y-124304761D01*
X98493809Y-124304761D01*
X98672380Y-124209523D01*
X98743809Y-124019047D01*
X98648571Y-123257142D01*
X98529523Y-123066666D01*
X98327142Y-122971428D01*
X97946190Y-122971428D01*
X97767619Y-123066666D01*
X97696190Y-123257142D01*
X97720000Y-123447619D01*
X98696190Y-123638095D01*
X97053333Y-124209523D02*
X96874761Y-124304761D01*
X96493809Y-124304761D01*
X96291428Y-124209523D01*
X96172380Y-124019047D01*
X96160476Y-123923809D01*
X96231904Y-123733333D01*
X96410476Y-123638095D01*
X96696190Y-123638095D01*
X96874761Y-123542857D01*
X96946190Y-123352380D01*
X96934285Y-123257142D01*
X96815238Y-123066666D01*
X96612857Y-122971428D01*
X96327142Y-122971428D01*
X96148571Y-123066666D01*
D12*
G04 #@! TO.C,SW1*
X83600000Y-136880000D02*
X83400000Y-136880000D01*
X87850000Y-139730000D02*
X82150000Y-139730000D01*
X86600000Y-136880000D02*
X84900000Y-136880000D01*
X88450000Y-137930000D02*
X88450000Y-138720000D01*
X81550000Y-138720000D02*
X81550000Y-137930000D01*
G04 #@! TO.C,S7*
X82700000Y-56600000D02*
X82700000Y-59400000D01*
X79300000Y-56600000D02*
X79300000Y-60800000D01*
G04 #@! TO.C,S8*
X89300000Y-51600000D02*
X89300000Y-55800000D01*
X92700000Y-51600000D02*
X92700000Y-54400000D01*
G04 #@! TO.C,S10*
X111300000Y-51600000D02*
X111300000Y-55800000D01*
X114700000Y-51600000D02*
X114700000Y-54400000D01*
G04 #@! TO.C,Q1*
X93760000Y-70420000D02*
X92300000Y-70420000D01*
X93760000Y-73580000D02*
X91600000Y-73580000D01*
X93760000Y-73580000D02*
X93760000Y-72650000D01*
X93760000Y-70420000D02*
X93760000Y-71350000D01*
G04 #@! TO.C,Q2*
X97260000Y-70420000D02*
X95800000Y-70420000D01*
X97260000Y-73580000D02*
X95100000Y-73580000D01*
X97260000Y-73580000D02*
X97260000Y-72650000D01*
X97260000Y-70420000D02*
X97260000Y-71350000D01*
G04 #@! TO.C,Q3*
X108260000Y-70420000D02*
X106800000Y-70420000D01*
X108260000Y-73580000D02*
X106100000Y-73580000D01*
X108260000Y-73580000D02*
X108260000Y-72650000D01*
X108260000Y-70420000D02*
X108260000Y-71350000D01*
G04 #@! TO.C,Q4*
X111760000Y-70420000D02*
X111760000Y-71350000D01*
X111760000Y-73580000D02*
X111760000Y-72650000D01*
X111760000Y-73580000D02*
X109600000Y-73580000D01*
X111760000Y-70420000D02*
X110300000Y-70420000D01*
G04 #@! TO.C,Q5*
X100760000Y-70420000D02*
X100760000Y-71350000D01*
X100760000Y-73580000D02*
X100760000Y-72650000D01*
X100760000Y-73580000D02*
X98600000Y-73580000D01*
X100760000Y-70420000D02*
X99300000Y-70420000D01*
G04 #@! TO.C,Q6*
X104760000Y-70420000D02*
X104760000Y-71350000D01*
X104760000Y-73580000D02*
X104760000Y-72650000D01*
X104760000Y-73580000D02*
X102600000Y-73580000D01*
X104760000Y-70420000D02*
X103300000Y-70420000D01*
G04 #@! TO.C,R1*
X92290000Y-68261252D02*
X92290000Y-67738748D01*
X93710000Y-68261252D02*
X93710000Y-67738748D01*
G04 #@! TO.C,R2*
X96710000Y-92713748D02*
X96710000Y-93236252D01*
X95290000Y-92713748D02*
X95290000Y-93236252D01*
G04 #@! TO.C,R3*
X97210000Y-68261252D02*
X97210000Y-67738748D01*
X95790000Y-68261252D02*
X95790000Y-67738748D01*
G04 #@! TO.C,R4*
X97290000Y-92713748D02*
X97290000Y-93236252D01*
X98710000Y-92713748D02*
X98710000Y-93236252D01*
G04 #@! TO.C,R5*
X106790000Y-68261252D02*
X106790000Y-67738748D01*
X108210000Y-68261252D02*
X108210000Y-67738748D01*
G04 #@! TO.C,R6*
X105290000Y-92713748D02*
X105290000Y-93236252D01*
X106710000Y-92713748D02*
X106710000Y-93236252D01*
G04 #@! TO.C,R7*
X111710000Y-68261252D02*
X111710000Y-67738748D01*
X110290000Y-68261252D02*
X110290000Y-67738748D01*
G04 #@! TO.C,R8*
X109210000Y-92713748D02*
X109210000Y-93236252D01*
X107790000Y-92713748D02*
X107790000Y-93236252D01*
G04 #@! TO.C,R9*
X100710000Y-68261252D02*
X100710000Y-67738748D01*
X99290000Y-68261252D02*
X99290000Y-67738748D01*
G04 #@! TO.C,R10*
X101210000Y-92713748D02*
X101210000Y-93236252D01*
X99790000Y-92713748D02*
X99790000Y-93236252D01*
G04 #@! TO.C,R11*
X103290000Y-68261252D02*
X103290000Y-67738748D01*
X104710000Y-68261252D02*
X104710000Y-67738748D01*
G04 #@! TO.C,R12*
X104210000Y-92713748D02*
X104210000Y-93236252D01*
X102790000Y-92713748D02*
X102790000Y-93236252D01*
G04 #@! TO.C,R13*
X99738748Y-88790000D02*
X100261252Y-88790000D01*
X99738748Y-90210000D02*
X100261252Y-90210000D01*
G04 #@! TO.C,R14*
X103738748Y-90210000D02*
X104261252Y-90210000D01*
X103738748Y-88790000D02*
X104261252Y-88790000D01*
G04 #@! TO.C,S11*
X124700000Y-56600000D02*
X124700000Y-59400000D01*
X121300000Y-56600000D02*
X121300000Y-60800000D01*
G04 #@! TO.C,R15*
X100210000Y-86100556D02*
X100210000Y-85578052D01*
X98790000Y-86100556D02*
X98790000Y-85578052D01*
G04 #@! TO.C,R16*
X101289998Y-86100556D02*
X101289998Y-85578052D01*
X102709998Y-86100556D02*
X102709998Y-85578052D01*
G04 #@! TO.C,R17*
X105210000Y-86100556D02*
X105210000Y-85578052D01*
X103790000Y-86100556D02*
X103790000Y-85578052D01*
G04 #@! TO.C,R18*
X117213748Y-138290000D02*
X117736252Y-138290000D01*
X117213748Y-139710000D02*
X117736252Y-139710000D01*
G04 #@! TO.C,R19*
X102286252Y-58790000D02*
X101763748Y-58790000D01*
X102286252Y-60210000D02*
X101763748Y-60210000D01*
G04 #@! TO.C,R20*
X103290000Y-75738748D02*
X103290000Y-76261252D01*
X104710000Y-75738748D02*
X104710000Y-76261252D01*
G04 #@! TO.C,R21*
X93710000Y-75763748D02*
X93710000Y-76286252D01*
X92290000Y-75763748D02*
X92290000Y-76286252D01*
G04 #@! TO.C,R22*
X97210000Y-75763748D02*
X97210000Y-76286252D01*
X95790000Y-75763748D02*
X95790000Y-76286252D01*
G04 #@! TO.C,R23*
X106790000Y-75626073D02*
X106790000Y-76148577D01*
X108210000Y-75626073D02*
X108210000Y-76148577D01*
G04 #@! TO.C,R24*
X110290000Y-75763748D02*
X110290000Y-76286252D01*
X111710000Y-75763748D02*
X111710000Y-76286252D01*
G04 #@! TO.C,R25*
X100710000Y-75738748D02*
X100710000Y-76261252D01*
X99290000Y-75738748D02*
X99290000Y-76261252D01*
G04 #@! TO.C,SW2*
X128060000Y-140850000D02*
X128060000Y-137150000D01*
X121940000Y-140850000D02*
X128060000Y-140850000D01*
X121940000Y-137150000D02*
X121940000Y-140850000D01*
X128060000Y-137150000D02*
X121940000Y-137150000D01*
G04 #@! TO.C,R26*
X101718749Y-58159746D02*
X102241253Y-58159746D01*
X101718749Y-56739746D02*
X102241253Y-56739746D01*
G04 #@! TO.C,R27*
X83990000Y-57738748D02*
X83990000Y-58261252D01*
X85410000Y-57738748D02*
X85410000Y-58261252D01*
G04 #@! TO.C,R28*
X94710000Y-52738748D02*
X94710000Y-53261252D01*
X93290000Y-52738748D02*
X93290000Y-53261252D01*
G04 #@! TO.C,R29*
X109290000Y-52763748D02*
X109290000Y-53286252D01*
X110710000Y-52763748D02*
X110710000Y-53286252D01*
G04 #@! TO.C,R30*
X119710000Y-57738748D02*
X119710000Y-58261252D01*
X118290000Y-57738748D02*
X118290000Y-58261252D01*
G04 #@! TO.C,S9*
X103700000Y-51600000D02*
X103700000Y-54400000D01*
X100300000Y-51600000D02*
X100300000Y-55800000D01*
G04 #@! TD*
M02*
