G04 #@! TF.GenerationSoftware,KiCad,Pcbnew,(5.0.1)-3*
G04 #@! TF.CreationDate,2022-06-15T15:11:29+08:00*
G04 #@! TF.ProjectId,Micromouse_V01,4D6963726F6D6F7573655F5630312E6B,rev?*
G04 #@! TF.SameCoordinates,Original*
G04 #@! TF.FileFunction,Legend,Top*
G04 #@! TF.FilePolarity,Positive*
%FSLAX46Y46*%
G04 Gerber Fmt 4.6, Leading zero omitted, Abs format (unit mm)*
G04 Created by KiCad (PCBNEW (5.0.1)-3) date 15-Jun-22 3:11:29 PM*
%MOMM*%
%LPD*%
G01*
G04 APERTURE LIST*
%ADD10C,0.250000*%
%ADD11C,0.300000*%
%ADD12C,0.200000*%
%ADD13C,0.127000*%
%ADD14C,0.150000*%
%ADD15C,0.120000*%
G04 APERTURE END LIST*
D10*
X107666666Y-106577380D02*
X107666666Y-105577380D01*
X108000000Y-106291666D01*
X108333333Y-105577380D01*
X108333333Y-106577380D01*
X108952380Y-106577380D02*
X108857142Y-106529761D01*
X108809523Y-106482142D01*
X108761904Y-106386904D01*
X108761904Y-106101190D01*
X108809523Y-106005952D01*
X108857142Y-105958333D01*
X108952380Y-105910714D01*
X109095238Y-105910714D01*
X109190476Y-105958333D01*
X109238095Y-106005952D01*
X109285714Y-106101190D01*
X109285714Y-106386904D01*
X109238095Y-106482142D01*
X109190476Y-106529761D01*
X109095238Y-106577380D01*
X108952380Y-106577380D01*
X109571428Y-105910714D02*
X109952380Y-105910714D01*
X109714285Y-105577380D02*
X109714285Y-106434523D01*
X109761904Y-106529761D01*
X109857142Y-106577380D01*
X109952380Y-106577380D01*
X110428571Y-106577380D02*
X110333333Y-106529761D01*
X110285714Y-106482142D01*
X110238095Y-106386904D01*
X110238095Y-106101190D01*
X110285714Y-106005952D01*
X110333333Y-105958333D01*
X110428571Y-105910714D01*
X110571428Y-105910714D01*
X110666666Y-105958333D01*
X110714285Y-106005952D01*
X110761904Y-106101190D01*
X110761904Y-106386904D01*
X110714285Y-106482142D01*
X110666666Y-106529761D01*
X110571428Y-106577380D01*
X110428571Y-106577380D01*
X111190476Y-106577380D02*
X111190476Y-105910714D01*
X111190476Y-106101190D02*
X111238095Y-106005952D01*
X111285714Y-105958333D01*
X111380952Y-105910714D01*
X111476190Y-105910714D01*
X108380952Y-108327380D02*
X108047619Y-107851190D01*
X107809523Y-108327380D02*
X107809523Y-107327380D01*
X108190476Y-107327380D01*
X108285714Y-107375000D01*
X108333333Y-107422619D01*
X108380952Y-107517857D01*
X108380952Y-107660714D01*
X108333333Y-107755952D01*
X108285714Y-107803571D01*
X108190476Y-107851190D01*
X107809523Y-107851190D01*
X108809523Y-108327380D02*
X108809523Y-107660714D01*
X108809523Y-107327380D02*
X108761904Y-107375000D01*
X108809523Y-107422619D01*
X108857142Y-107375000D01*
X108809523Y-107327380D01*
X108809523Y-107422619D01*
X109714285Y-107660714D02*
X109714285Y-108470238D01*
X109666666Y-108565476D01*
X109619047Y-108613095D01*
X109523809Y-108660714D01*
X109380952Y-108660714D01*
X109285714Y-108613095D01*
X109714285Y-108279761D02*
X109619047Y-108327380D01*
X109428571Y-108327380D01*
X109333333Y-108279761D01*
X109285714Y-108232142D01*
X109238095Y-108136904D01*
X109238095Y-107851190D01*
X109285714Y-107755952D01*
X109333333Y-107708333D01*
X109428571Y-107660714D01*
X109619047Y-107660714D01*
X109714285Y-107708333D01*
X110190476Y-108327380D02*
X110190476Y-107327380D01*
X110619047Y-108327380D02*
X110619047Y-107803571D01*
X110571428Y-107708333D01*
X110476190Y-107660714D01*
X110333333Y-107660714D01*
X110238095Y-107708333D01*
X110190476Y-107755952D01*
X110952380Y-107660714D02*
X111333333Y-107660714D01*
X111095238Y-107327380D02*
X111095238Y-108184523D01*
X111142857Y-108279761D01*
X111238095Y-108327380D01*
X111333333Y-108327380D01*
X92666666Y-106577380D02*
X92666666Y-105577380D01*
X93000000Y-106291666D01*
X93333333Y-105577380D01*
X93333333Y-106577380D01*
X93952380Y-106577380D02*
X93857142Y-106529761D01*
X93809523Y-106482142D01*
X93761904Y-106386904D01*
X93761904Y-106101190D01*
X93809523Y-106005952D01*
X93857142Y-105958333D01*
X93952380Y-105910714D01*
X94095238Y-105910714D01*
X94190476Y-105958333D01*
X94238095Y-106005952D01*
X94285714Y-106101190D01*
X94285714Y-106386904D01*
X94238095Y-106482142D01*
X94190476Y-106529761D01*
X94095238Y-106577380D01*
X93952380Y-106577380D01*
X94571428Y-105910714D02*
X94952380Y-105910714D01*
X94714285Y-105577380D02*
X94714285Y-106434523D01*
X94761904Y-106529761D01*
X94857142Y-106577380D01*
X94952380Y-106577380D01*
X95428571Y-106577380D02*
X95333333Y-106529761D01*
X95285714Y-106482142D01*
X95238095Y-106386904D01*
X95238095Y-106101190D01*
X95285714Y-106005952D01*
X95333333Y-105958333D01*
X95428571Y-105910714D01*
X95571428Y-105910714D01*
X95666666Y-105958333D01*
X95714285Y-106005952D01*
X95761904Y-106101190D01*
X95761904Y-106386904D01*
X95714285Y-106482142D01*
X95666666Y-106529761D01*
X95571428Y-106577380D01*
X95428571Y-106577380D01*
X96190476Y-106577380D02*
X96190476Y-105910714D01*
X96190476Y-106101190D02*
X96238095Y-106005952D01*
X96285714Y-105958333D01*
X96380952Y-105910714D01*
X96476190Y-105910714D01*
X93809523Y-108327380D02*
X93333333Y-108327380D01*
X93333333Y-107327380D01*
X94523809Y-108279761D02*
X94428571Y-108327380D01*
X94238095Y-108327380D01*
X94142857Y-108279761D01*
X94095238Y-108184523D01*
X94095238Y-107803571D01*
X94142857Y-107708333D01*
X94238095Y-107660714D01*
X94428571Y-107660714D01*
X94523809Y-107708333D01*
X94571428Y-107803571D01*
X94571428Y-107898809D01*
X94095238Y-107994047D01*
X94857142Y-107660714D02*
X95238095Y-107660714D01*
X95000000Y-108327380D02*
X95000000Y-107470238D01*
X95047619Y-107375000D01*
X95142857Y-107327380D01*
X95238095Y-107327380D01*
X95428571Y-107660714D02*
X95809523Y-107660714D01*
X95571428Y-107327380D02*
X95571428Y-108184523D01*
X95619047Y-108279761D01*
X95714285Y-108327380D01*
X95809523Y-108327380D01*
X97380952Y-94452380D02*
X97380952Y-95166666D01*
X97333333Y-95309523D01*
X97238095Y-95404761D01*
X97095238Y-95452380D01*
X97000000Y-95452380D01*
X98333333Y-95452380D02*
X97857142Y-95452380D01*
X97857142Y-94452380D01*
X99238095Y-95357142D02*
X99190476Y-95404761D01*
X99047619Y-95452380D01*
X98952380Y-95452380D01*
X98809523Y-95404761D01*
X98714285Y-95309523D01*
X98666666Y-95214285D01*
X98619047Y-95023809D01*
X98619047Y-94880952D01*
X98666666Y-94690476D01*
X98714285Y-94595238D01*
X98809523Y-94500000D01*
X98952380Y-94452380D01*
X99047619Y-94452380D01*
X99190476Y-94500000D01*
X99238095Y-94547619D01*
X99952380Y-94452380D02*
X99952380Y-95166666D01*
X99904761Y-95309523D01*
X99809523Y-95404761D01*
X99666666Y-95452380D01*
X99571428Y-95452380D01*
X100904761Y-95452380D02*
X100428571Y-95452380D01*
X100428571Y-94452380D01*
X101809523Y-95357142D02*
X101761904Y-95404761D01*
X101619047Y-95452380D01*
X101523809Y-95452380D01*
X101380952Y-95404761D01*
X101285714Y-95309523D01*
X101238095Y-95214285D01*
X101190476Y-95023809D01*
X101190476Y-94880952D01*
X101238095Y-94690476D01*
X101285714Y-94595238D01*
X101380952Y-94500000D01*
X101523809Y-94452380D01*
X101619047Y-94452380D01*
X101761904Y-94500000D01*
X101809523Y-94547619D01*
X102523809Y-94452380D02*
X102523809Y-95166666D01*
X102476190Y-95309523D01*
X102380952Y-95404761D01*
X102238095Y-95452380D01*
X102142857Y-95452380D01*
X103476190Y-95452380D02*
X103000000Y-95452380D01*
X103000000Y-94452380D01*
X104380952Y-95357142D02*
X104333333Y-95404761D01*
X104190476Y-95452380D01*
X104095238Y-95452380D01*
X103952380Y-95404761D01*
X103857142Y-95309523D01*
X103809523Y-95214285D01*
X103761904Y-95023809D01*
X103761904Y-94880952D01*
X103809523Y-94690476D01*
X103857142Y-94595238D01*
X103952380Y-94500000D01*
X104095238Y-94452380D01*
X104190476Y-94452380D01*
X104333333Y-94500000D01*
X104380952Y-94547619D01*
X105095238Y-94452380D02*
X105095238Y-95166666D01*
X105047619Y-95309523D01*
X104952380Y-95404761D01*
X104809523Y-95452380D01*
X104714285Y-95452380D01*
X106047619Y-95452380D02*
X105571428Y-95452380D01*
X105571428Y-94452380D01*
X106952380Y-95357142D02*
X106904761Y-95404761D01*
X106761904Y-95452380D01*
X106666666Y-95452380D01*
X106523809Y-95404761D01*
X106428571Y-95309523D01*
X106380952Y-95214285D01*
X106333333Y-95023809D01*
X106333333Y-94880952D01*
X106380952Y-94690476D01*
X106428571Y-94595238D01*
X106523809Y-94500000D01*
X106666666Y-94452380D01*
X106761904Y-94452380D01*
X106904761Y-94500000D01*
X106952380Y-94547619D01*
X100564508Y-108952380D02*
X100754985Y-108952380D01*
X100844270Y-109000000D01*
X100927604Y-109095238D01*
X100951413Y-109285714D01*
X100909747Y-109619047D01*
X100838318Y-109809523D01*
X100731175Y-109904761D01*
X100629985Y-109952380D01*
X100439508Y-109952380D01*
X100350223Y-109904761D01*
X100266889Y-109809523D01*
X100243080Y-109619047D01*
X100284747Y-109285714D01*
X100356175Y-109095238D01*
X100463318Y-109000000D01*
X100564508Y-108952380D01*
X101772842Y-109952380D02*
X101296651Y-109952380D01*
X101421651Y-108952380D01*
X102171651Y-109428571D02*
X102504985Y-109428571D01*
X102582366Y-109952380D02*
X102106175Y-109952380D01*
X102231175Y-108952380D01*
X102707366Y-108952380D01*
X103010937Y-109952380D02*
X103135937Y-108952380D01*
X103374032Y-108952380D01*
X103510937Y-109000000D01*
X103594270Y-109095238D01*
X103629985Y-109190476D01*
X103653794Y-109380952D01*
X103635937Y-109523809D01*
X103564508Y-109714285D01*
X103504985Y-109809523D01*
X103397842Y-109904761D01*
X103249032Y-109952380D01*
X103010937Y-109952380D01*
D11*
X90500000Y-137678571D02*
X90785714Y-137678571D01*
X90928571Y-137750000D01*
X91071428Y-137892857D01*
X91142857Y-138178571D01*
X91142857Y-138678571D01*
X91071428Y-138964285D01*
X90928571Y-139107142D01*
X90785714Y-139178571D01*
X90500000Y-139178571D01*
X90357142Y-139107142D01*
X90214285Y-138964285D01*
X90142857Y-138678571D01*
X90142857Y-138178571D01*
X90214285Y-137892857D01*
X90357142Y-137750000D01*
X90500000Y-137678571D01*
X91571428Y-138178571D02*
X92142857Y-138178571D01*
X91785714Y-139178571D02*
X91785714Y-137892857D01*
X91857142Y-137750000D01*
X92000000Y-137678571D01*
X92142857Y-137678571D01*
X92428571Y-138178571D02*
X93000000Y-138178571D01*
X92642857Y-139178571D02*
X92642857Y-137892857D01*
X92714285Y-137750000D01*
X92857142Y-137678571D01*
X93000000Y-137678571D01*
X77678571Y-137678571D02*
X77964285Y-137678571D01*
X78107142Y-137750000D01*
X78250000Y-137892857D01*
X78321428Y-138178571D01*
X78321428Y-138678571D01*
X78250000Y-138964285D01*
X78107142Y-139107142D01*
X77964285Y-139178571D01*
X77678571Y-139178571D01*
X77535714Y-139107142D01*
X77392857Y-138964285D01*
X77321428Y-138678571D01*
X77321428Y-138178571D01*
X77392857Y-137892857D01*
X77535714Y-137750000D01*
X77678571Y-137678571D01*
X78964285Y-138178571D02*
X78964285Y-139178571D01*
X78964285Y-138321428D02*
X79035714Y-138250000D01*
X79178571Y-138178571D01*
X79392857Y-138178571D01*
X79535714Y-138250000D01*
X79607142Y-138392857D01*
X79607142Y-139178571D01*
X103571428Y-99392857D02*
X102428571Y-99392857D01*
X103000000Y-98821428D02*
X103000000Y-99964285D01*
X81071428Y-99892857D02*
X79928571Y-99892857D01*
X80500000Y-99321428D02*
X80500000Y-100464285D01*
D12*
X77500000Y-89500000D02*
X85700000Y-89500000D01*
X85700000Y-78500000D02*
X77500000Y-78500000D01*
X118300000Y-89500000D02*
X126500000Y-89500000D01*
X126500000Y-78500000D02*
X118300000Y-78500000D01*
X77500000Y-95500000D02*
X85700000Y-95500000D01*
X85700000Y-95500000D02*
X85700000Y-72500000D01*
X85700000Y-72500000D02*
X77500000Y-72500000D01*
X126500000Y-95500000D02*
X118300000Y-95500000D01*
X118300000Y-95500000D02*
X118300000Y-72500000D01*
X126500000Y-72500000D02*
X118300000Y-72500000D01*
X87700000Y-106700000D02*
X87700000Y-133300000D01*
X87700000Y-133300000D02*
X73500000Y-133300000D01*
X87700000Y-106700000D02*
X77500000Y-106700000D01*
X77500000Y-72500000D02*
X77500000Y-106700000D01*
X79500000Y-72500000D02*
X73500000Y-72500000D01*
X79500000Y-72500000D02*
X79500000Y-66500000D01*
X79500000Y-66500000D02*
X73500000Y-66500000D01*
X130500000Y-133300000D02*
X116300000Y-133300000D01*
X116300000Y-106700000D02*
X116300000Y-133300000D01*
X116300000Y-106700000D02*
X126500000Y-106700000D01*
X126500000Y-72500000D02*
X126500000Y-106700000D01*
X124500000Y-72500000D02*
X130500000Y-72500000D01*
X124500000Y-66500000D02*
X124500000Y-72500000D01*
X130500000Y-66500000D02*
X124500000Y-66500000D01*
X97689702Y-43161904D02*
X97789702Y-42361904D01*
X97984940Y-42933333D01*
X98323035Y-42361904D01*
X98223035Y-43161904D01*
X98946845Y-43161904D02*
X98999226Y-42742857D01*
X98970654Y-42666666D01*
X98899226Y-42628571D01*
X98746845Y-42628571D01*
X98665892Y-42666666D01*
X98951607Y-43123809D02*
X98870654Y-43161904D01*
X98680178Y-43161904D01*
X98608750Y-43123809D01*
X98580178Y-43047619D01*
X98589702Y-42971428D01*
X98637321Y-42895238D01*
X98718273Y-42857142D01*
X98908750Y-42857142D01*
X98989702Y-42819047D01*
X99327797Y-43161904D02*
X99394464Y-42628571D01*
X99384940Y-42704761D02*
X99427797Y-42666666D01*
X99508750Y-42628571D01*
X99623035Y-42628571D01*
X99694464Y-42666666D01*
X99723035Y-42742857D01*
X99670654Y-43161904D01*
X99723035Y-42742857D02*
X99770654Y-42666666D01*
X99851607Y-42628571D01*
X99965892Y-42628571D01*
X100037321Y-42666666D01*
X100065892Y-42742857D01*
X100013511Y-43161904D01*
X100394464Y-43161904D02*
X100494464Y-42361904D01*
X100456369Y-42666666D02*
X100537321Y-42628571D01*
X100689702Y-42628571D01*
X100761130Y-42666666D01*
X100794464Y-42704761D01*
X100823035Y-42780952D01*
X100794464Y-43009523D01*
X100746845Y-43085714D01*
X100703988Y-43123809D01*
X100623035Y-43161904D01*
X100470654Y-43161904D01*
X100399226Y-43123809D01*
X101461130Y-43161904D02*
X101513511Y-42742857D01*
X101484940Y-42666666D01*
X101413511Y-42628571D01*
X101261130Y-42628571D01*
X101180178Y-42666666D01*
X101465892Y-43123809D02*
X101384940Y-43161904D01*
X101194464Y-43161904D01*
X101123035Y-43123809D01*
X101094464Y-43047619D01*
X101103988Y-42971428D01*
X101151607Y-42895238D01*
X101232559Y-42857142D01*
X101423035Y-42857142D01*
X101503988Y-42819047D01*
X101842083Y-43161904D02*
X101942083Y-42361904D01*
X102137321Y-42933333D01*
X102475416Y-42361904D01*
X102375416Y-43161904D01*
X102870654Y-43161904D02*
X102799226Y-43123809D01*
X102765892Y-43085714D01*
X102737321Y-43009523D01*
X102765892Y-42780952D01*
X102813511Y-42704761D01*
X102856369Y-42666666D01*
X102937321Y-42628571D01*
X103051607Y-42628571D01*
X103123035Y-42666666D01*
X103156369Y-42704761D01*
X103184940Y-42780952D01*
X103156369Y-43009523D01*
X103108750Y-43085714D01*
X103065892Y-43123809D01*
X102984940Y-43161904D01*
X102870654Y-43161904D01*
X103889702Y-42628571D02*
X103823035Y-43161904D01*
X103546845Y-42628571D02*
X103494464Y-43047619D01*
X103523035Y-43123809D01*
X103594464Y-43161904D01*
X103708750Y-43161904D01*
X103789702Y-43123809D01*
X103832559Y-43085714D01*
X104170654Y-43123809D02*
X104242083Y-43161904D01*
X104394464Y-43161904D01*
X104475416Y-43123809D01*
X104523035Y-43047619D01*
X104527797Y-43009523D01*
X104499226Y-42933333D01*
X104427797Y-42895238D01*
X104313511Y-42895238D01*
X104242083Y-42857142D01*
X104213511Y-42780952D01*
X104218273Y-42742857D01*
X104265892Y-42666666D01*
X104346845Y-42628571D01*
X104461130Y-42628571D01*
X104532559Y-42666666D01*
X105161130Y-43123809D02*
X105080178Y-43161904D01*
X104927797Y-43161904D01*
X104856369Y-43123809D01*
X104827797Y-43047619D01*
X104865892Y-42742857D01*
X104913511Y-42666666D01*
X104994464Y-42628571D01*
X105146845Y-42628571D01*
X105218273Y-42666666D01*
X105246845Y-42742857D01*
X105237321Y-42819047D01*
X104846845Y-42895238D01*
X106137321Y-42628571D02*
X106261130Y-43161904D01*
X106518273Y-42628571D01*
X107175416Y-43161904D02*
X106718273Y-43161904D01*
X106946845Y-43161904D02*
X107046845Y-42361904D01*
X106956369Y-42476190D01*
X106870654Y-42552380D01*
X106789702Y-42590476D01*
X98280178Y-44561904D02*
X98380178Y-43761904D01*
X98342083Y-44066666D02*
X98423035Y-44028571D01*
X98575416Y-44028571D01*
X98646845Y-44066666D01*
X98680178Y-44104761D01*
X98708750Y-44180952D01*
X98680178Y-44409523D01*
X98632559Y-44485714D01*
X98589702Y-44523809D01*
X98508750Y-44561904D01*
X98356369Y-44561904D01*
X98284940Y-44523809D01*
X98994464Y-44028571D02*
X99118273Y-44561904D01*
X99375416Y-44028571D02*
X99118273Y-44561904D01*
X99018273Y-44752380D01*
X98975416Y-44790476D01*
X98894464Y-44828571D01*
X99623035Y-44485714D02*
X99656369Y-44523809D01*
X99613511Y-44561904D01*
X99580178Y-44523809D01*
X99623035Y-44485714D01*
X99613511Y-44561904D01*
X99675416Y-44066666D02*
X99708750Y-44104761D01*
X99665892Y-44142857D01*
X99632559Y-44104761D01*
X99675416Y-44066666D01*
X99665892Y-44142857D01*
X100594464Y-44333333D02*
X100975416Y-44333333D01*
X100489702Y-44561904D02*
X100856369Y-43761904D01*
X101023035Y-44561904D01*
X101356369Y-44028571D02*
X101289702Y-44561904D01*
X101346845Y-44104761D02*
X101389702Y-44066666D01*
X101470654Y-44028571D01*
X101584940Y-44028571D01*
X101656369Y-44066666D01*
X101684940Y-44142857D01*
X101632559Y-44561904D01*
X102356369Y-44561904D02*
X102456369Y-43761904D01*
X102361130Y-44523809D02*
X102280178Y-44561904D01*
X102127797Y-44561904D01*
X102056369Y-44523809D01*
X102023035Y-44485714D01*
X101994464Y-44409523D01*
X102023035Y-44180952D01*
X102070654Y-44104761D01*
X102113511Y-44066666D01*
X102194464Y-44028571D01*
X102346845Y-44028571D01*
X102418273Y-44066666D01*
X102737321Y-44561904D02*
X102803988Y-44028571D01*
X102784940Y-44180952D02*
X102832559Y-44104761D01*
X102875416Y-44066666D01*
X102956369Y-44028571D01*
X103032559Y-44028571D01*
X103542083Y-44523809D02*
X103461130Y-44561904D01*
X103308750Y-44561904D01*
X103237321Y-44523809D01*
X103208750Y-44447619D01*
X103246845Y-44142857D01*
X103294464Y-44066666D01*
X103375416Y-44028571D01*
X103527797Y-44028571D01*
X103599226Y-44066666D01*
X103627797Y-44142857D01*
X103618273Y-44219047D01*
X103227797Y-44295238D01*
X103908750Y-44028571D02*
X103994464Y-44561904D01*
X104194464Y-44180952D01*
X104299226Y-44561904D01*
X104518273Y-44028571D01*
X105084940Y-43761904D02*
X105013511Y-44333333D01*
X104961130Y-44447619D01*
X104875416Y-44523809D01*
X104756369Y-44561904D01*
X104680178Y-44561904D01*
X105365892Y-44561904D02*
X105465892Y-43761904D01*
X105823035Y-44561904D01*
X105923035Y-43761904D01*
X106613511Y-44028571D02*
X106532559Y-44676190D01*
X106484940Y-44752380D01*
X106442083Y-44790476D01*
X106361130Y-44828571D01*
X106246845Y-44828571D01*
X106175416Y-44790476D01*
X106551607Y-44523809D02*
X106470654Y-44561904D01*
X106318273Y-44561904D01*
X106246845Y-44523809D01*
X106213511Y-44485714D01*
X106184940Y-44409523D01*
X106213511Y-44180952D01*
X106261130Y-44104761D01*
X106303988Y-44066666D01*
X106384940Y-44028571D01*
X106537321Y-44028571D01*
X106608750Y-44066666D01*
D11*
X124071428Y-102392857D02*
X122928571Y-102392857D01*
X123500000Y-101821428D02*
X123500000Y-102964285D01*
D12*
G04 #@! TO.C,U11*
X102762000Y-55124000D02*
X102000000Y-53854000D01*
X101238000Y-55124000D02*
X102762000Y-55124000D01*
X102000000Y-53854000D02*
X101238000Y-55124000D01*
X102000000Y-56648000D02*
X102000000Y-53854000D01*
X102000000Y-53854000D02*
X102000000Y-56648000D01*
D13*
X110780000Y-104475000D02*
X116230000Y-104475000D01*
X93090000Y-104475000D02*
X110780000Y-104475000D01*
X87720000Y-104475000D02*
X93090000Y-104475000D01*
X116230000Y-53525000D02*
X116230000Y-104475000D01*
X87720000Y-104475000D02*
X87720000Y-53525000D01*
X105500000Y-53525000D02*
X116230000Y-53525000D01*
X98789000Y-53525000D02*
X105500000Y-53525000D01*
X87720000Y-53525000D02*
X98789000Y-53525000D01*
X98789000Y-57415000D02*
X98789000Y-53525000D01*
X105500000Y-57415000D02*
X98789000Y-57415000D01*
X105500000Y-53525000D02*
X105500000Y-57415000D01*
D12*
X87250000Y-63485000D02*
G75*
G03X87250000Y-63485000I-100000J0D01*
G01*
D13*
X87720000Y-104475000D02*
X87720000Y-53525000D01*
X87720000Y-53525000D02*
X116230000Y-53525000D01*
X116230000Y-104475000D02*
X87720000Y-104475000D01*
X116230000Y-53525000D02*
X116230000Y-104475000D01*
D14*
G04 #@! TO.C,J3*
X95000000Y-133400000D02*
X88350000Y-133400000D01*
X88250000Y-105600000D02*
X88250000Y-133400000D01*
X115750000Y-105600000D02*
X115750000Y-133400000D01*
D15*
X107140000Y-105739000D02*
X107140000Y-107069000D01*
X105810000Y-105739000D02*
X107140000Y-105739000D01*
X104540000Y-105739000D02*
X104540000Y-108399000D01*
X104540000Y-108399000D02*
X96860000Y-108399000D01*
X104540000Y-105739000D02*
X96860000Y-105739000D01*
X96860000Y-105739000D02*
X96860000Y-108399000D01*
D14*
X115750000Y-105600000D02*
X88250000Y-105600000D01*
X115650000Y-133400000D02*
X109000000Y-133400000D01*
X109000000Y-131400000D02*
X109000000Y-133400000D01*
X95000000Y-131400000D02*
X95000000Y-133400000D01*
X95000000Y-131400000D02*
X109000000Y-131400000D01*
G04 #@! TO.C,BZ1*
X99900000Y-56750000D02*
X99900000Y-62250000D01*
X104100000Y-57800000D02*
X104100000Y-62250000D01*
X104100000Y-62250000D02*
X99900000Y-62250000D01*
X102900000Y-56750000D02*
X99900000Y-56750000D01*
X104100000Y-57800000D02*
X102900000Y-56750000D01*
D15*
G04 #@! TO.C,S1*
X80425617Y-61518971D02*
X80425617Y-61518971D01*
X82955953Y-61297592D02*
X82955953Y-61297592D01*
X79806399Y-57768668D02*
X79904014Y-58884406D01*
X80643507Y-64009457D02*
X80643507Y-64009457D01*
X80410801Y-61349617D02*
X80410801Y-61349617D01*
X80460914Y-61922429D02*
X80410801Y-61349617D01*
X83173841Y-63788081D02*
X83173841Y-63788081D01*
X82941134Y-61128241D02*
X82991250Y-61701053D01*
X82941134Y-61128241D02*
X82941134Y-61128241D01*
X82991250Y-61701053D02*
X82941134Y-61128241D01*
X80121903Y-61374892D02*
X79723426Y-61409752D01*
X80024289Y-60259155D02*
X80121903Y-61374892D01*
X79625812Y-60294016D02*
X80024289Y-60259155D01*
X79723426Y-61409752D02*
X79625812Y-60294016D01*
X83230033Y-61102967D02*
X80121903Y-61374892D01*
X80121903Y-61374892D02*
X79785483Y-57529581D01*
X83230033Y-61102967D02*
X82893611Y-57257654D01*
X79785483Y-57529582D02*
G75*
G02X82893611Y-57257654I1554064J135964D01*
G01*
G04 #@! TO.C,S2*
X90425284Y-58651798D02*
X90425284Y-58651798D01*
X92057963Y-56706042D02*
X92057963Y-56706042D01*
X87335565Y-56437786D02*
X88193536Y-57157708D01*
X92340395Y-60258766D02*
X92340395Y-60258766D01*
X90295056Y-58542523D02*
X90295056Y-58542523D01*
X90735531Y-58912127D02*
X90295056Y-58542523D01*
X93973075Y-58313013D02*
X93973075Y-58313013D01*
X91927735Y-56596770D02*
X92368212Y-56966373D01*
X91927735Y-56596770D02*
X91927735Y-56596770D01*
X92368212Y-56966373D02*
X91927735Y-56596770D01*
X90108647Y-58764677D02*
X89851531Y-59071092D01*
X89250678Y-58044755D02*
X90108647Y-58764677D01*
X88993563Y-58351172D02*
X89250678Y-58044755D01*
X89851531Y-59071092D02*
X88993563Y-58351172D01*
X92114146Y-56374617D02*
X90108647Y-58764677D01*
X90108647Y-58764677D02*
X87151716Y-56283516D01*
X92114146Y-56374617D02*
X89157213Y-53893456D01*
X87151717Y-56283516D02*
G75*
G02X89157213Y-53893456I1002748J1195030D01*
G01*
G04 #@! TO.C,S5*
X95298467Y-48945990D02*
X95298467Y-48945990D01*
X95519840Y-46415654D02*
X95519840Y-46415654D01*
X91497613Y-48904568D02*
X92613351Y-49002181D01*
X97788953Y-49163879D02*
X97788953Y-49163879D01*
X95129113Y-48931173D02*
X95129113Y-48931173D01*
X95701925Y-48981289D02*
X95129113Y-48931173D01*
X98010328Y-46633545D02*
X98010328Y-46633545D01*
X95350488Y-46400840D02*
X95923301Y-46450953D01*
X95350488Y-46400840D02*
X95350488Y-46400840D01*
X95923301Y-46450953D02*
X95350488Y-46400840D01*
X95103838Y-49220071D02*
X95068974Y-49618548D01*
X93988101Y-49122456D02*
X95103838Y-49220071D01*
X93953237Y-49520933D02*
X93988101Y-49122456D01*
X95068974Y-49618548D02*
X93953237Y-49520933D01*
X95375765Y-46111941D02*
X95103838Y-49220071D01*
X95103838Y-49220071D02*
X91258526Y-48883649D01*
X95375765Y-46111941D02*
X91530451Y-45775521D01*
X91258527Y-48883649D02*
G75*
G02X91530451Y-45775521I135962J1554064D01*
G01*
G04 #@! TO.C,S6*
X108481029Y-46425617D02*
X108481029Y-46425617D01*
X108702408Y-48955953D02*
X108702408Y-48955953D01*
X112231332Y-45806399D02*
X111115594Y-45904014D01*
X105990543Y-46643507D02*
X105990543Y-46643507D01*
X108650383Y-46410801D02*
X108650383Y-46410801D01*
X108077571Y-46460914D02*
X108650383Y-46410801D01*
X106211919Y-49173841D02*
X106211919Y-49173841D01*
X108871759Y-48941134D02*
X108298947Y-48991250D01*
X108871759Y-48941134D02*
X108871759Y-48941134D01*
X108298947Y-48991250D02*
X108871759Y-48941134D01*
X108625108Y-46121903D02*
X108590248Y-45723426D01*
X109740845Y-46024289D02*
X108625108Y-46121903D01*
X109705984Y-45625812D02*
X109740845Y-46024289D01*
X108590248Y-45723426D02*
X109705984Y-45625812D01*
X108897033Y-49230033D02*
X108625108Y-46121903D01*
X108625108Y-46121903D02*
X112470419Y-45785483D01*
X108897033Y-49230033D02*
X112742346Y-48893611D01*
X112470418Y-45785483D02*
G75*
G02X112742346Y-48893611I135964J-1554064D01*
G01*
G04 #@! TO.C,S4*
X121054010Y-61298467D02*
X121054010Y-61298467D01*
X123584346Y-61519840D02*
X123584346Y-61519840D01*
X121095432Y-57497613D02*
X120997819Y-58613351D01*
X120836121Y-63788953D02*
X120836121Y-63788953D01*
X121068827Y-61129113D02*
X121068827Y-61129113D01*
X121018711Y-61701925D02*
X121068827Y-61129113D01*
X123366455Y-64010328D02*
X123366455Y-64010328D01*
X123599160Y-61350488D02*
X123549047Y-61923301D01*
X123599160Y-61350488D02*
X123599160Y-61350488D01*
X123549047Y-61923301D02*
X123599160Y-61350488D01*
X120779929Y-61103838D02*
X120381452Y-61068974D01*
X120877545Y-59988101D02*
X120779929Y-61103838D01*
X120479067Y-59953237D02*
X120877545Y-59988101D01*
X120381452Y-61068974D02*
X120479067Y-59953237D01*
X123888059Y-61375765D02*
X120779929Y-61103838D01*
X120779929Y-61103838D02*
X121116351Y-57258526D01*
X123888059Y-61375765D02*
X124224479Y-57530451D01*
X121116351Y-57258527D02*
G75*
G02X124224479Y-57530451I1554064J-135962D01*
G01*
G04 #@! TO.C,S3*
X111948463Y-56713705D02*
X111948463Y-56713705D01*
X113581147Y-58659457D02*
X113581147Y-58659457D01*
X114665363Y-54055385D02*
X113807394Y-54775308D01*
X110033353Y-58320673D02*
X110033353Y-58320673D01*
X112078691Y-56604431D02*
X112078691Y-56604431D01*
X111638215Y-56974033D02*
X112078691Y-56604431D01*
X111666033Y-60266426D02*
X111666033Y-60266426D01*
X113711372Y-58550182D02*
X113270896Y-58919786D01*
X113711372Y-58550182D02*
X113711372Y-58550182D01*
X113270896Y-58919786D02*
X113711372Y-58550182D01*
X111892282Y-56382277D02*
X111635170Y-56075859D01*
X112750251Y-55662355D02*
X111892282Y-56382277D01*
X112493138Y-55355938D02*
X112750251Y-55662355D01*
X111635170Y-56075859D02*
X112493138Y-55355938D01*
X113897780Y-58772338D02*
X111892282Y-56382277D01*
X111892282Y-56382277D02*
X114849215Y-53901117D01*
X113897780Y-58772338D02*
X116854713Y-56291176D01*
X114849213Y-53901118D02*
G75*
G02X116854713Y-56291176I1002750J-1195029D01*
G01*
G04 #@! TO.C,U13*
X112211600Y-98796600D02*
X112211600Y-96136600D01*
X94371600Y-98796600D02*
X112211600Y-98796600D01*
X94371600Y-96136600D02*
X112211600Y-96136600D01*
X94371600Y-98796600D02*
X94371600Y-96136600D01*
X93101600Y-98796600D02*
X91771600Y-98796600D01*
X91771600Y-98796600D02*
X91771600Y-97466600D01*
D12*
X92094000Y-98493000D02*
X92094000Y-83507000D01*
X92094000Y-83507000D02*
X111906000Y-83507000D01*
X92094000Y-98493000D02*
X111906000Y-98493000D01*
X111906000Y-98493000D02*
X111906000Y-83507000D01*
D15*
G04 #@! TO.C,J6*
X129000000Y-65060000D02*
X129000000Y-62940000D01*
X129000000Y-65060000D02*
X135060000Y-65060000D01*
X135060000Y-65060000D02*
X135060000Y-62940000D01*
X129000000Y-62940000D02*
X135060000Y-62940000D01*
X126940000Y-62940000D02*
X128000000Y-62940000D01*
X126940000Y-64000000D02*
X126940000Y-62940000D01*
G04 #@! TO.C,J5*
X71000000Y-65060000D02*
X71000000Y-62940000D01*
X71000000Y-65060000D02*
X77060000Y-65060000D01*
X77060000Y-65060000D02*
X77060000Y-62940000D01*
X71000000Y-62940000D02*
X77060000Y-62940000D01*
X68940000Y-62940000D02*
X70000000Y-62940000D01*
X68940000Y-64000000D02*
X68940000Y-62940000D01*
G04 #@! TO.C,C1*
X98510000Y-72566910D02*
X98510000Y-72892468D01*
X97490000Y-72566910D02*
X97490000Y-72892468D01*
G04 #@! TO.C,C2*
X98970668Y-72566910D02*
X98970668Y-72892468D01*
X99990668Y-72566910D02*
X99990668Y-72892468D01*
G04 #@! TO.C,U1*
X108830668Y-76139689D02*
X102820668Y-76139689D01*
X106580668Y-69319689D02*
X102820668Y-69319689D01*
X102820668Y-76139689D02*
X102820668Y-74879689D01*
X102820668Y-69319689D02*
X102820668Y-70579689D01*
G04 #@! TO.C,J1*
X121330000Y-100980000D02*
X118670000Y-100980000D01*
X121330000Y-100980000D02*
X121330000Y-98380000D01*
X121330000Y-98380000D02*
X118670000Y-98380000D01*
X118670000Y-100980000D02*
X118670000Y-98380000D01*
X118670000Y-103580000D02*
X118670000Y-102250000D01*
X120000000Y-103580000D02*
X118670000Y-103580000D01*
G04 #@! TO.C,D1*
X74000000Y-59040000D02*
X71140000Y-59040000D01*
X71140000Y-59040000D02*
X71140000Y-60960000D01*
X71140000Y-60960000D02*
X74000000Y-60960000D01*
G04 #@! TO.C,D2*
X102960000Y-49000000D02*
X102960000Y-46140000D01*
X102960000Y-46140000D02*
X101040000Y-46140000D01*
X101040000Y-46140000D02*
X101040000Y-49000000D01*
G04 #@! TO.C,D3*
X132860000Y-59040000D02*
X130000000Y-59040000D01*
X132860000Y-60960000D02*
X132860000Y-59040000D01*
X130000000Y-60960000D02*
X132860000Y-60960000D01*
D14*
G04 #@! TO.C,U12*
X100349000Y-76310000D02*
X109620000Y-76310000D01*
X100349000Y-68690000D02*
X100349000Y-76310000D01*
X109620000Y-68690000D02*
X100349000Y-68690000D01*
X109620000Y-76310000D02*
X109620000Y-68690000D01*
X91586000Y-63356000D02*
X91586000Y-81644000D01*
X91586000Y-81644000D02*
X112414000Y-81644000D01*
X112414000Y-81644000D02*
X112414000Y-63356000D01*
X112414000Y-63356000D02*
X91586000Y-63356000D01*
D15*
G04 #@! TO.C,D4*
X81960000Y-59000000D02*
X81960000Y-56140000D01*
X81960000Y-56140000D02*
X80040000Y-56140000D01*
X80040000Y-56140000D02*
X80040000Y-59000000D01*
G04 #@! TO.C,D5*
X90040000Y-51115000D02*
X90040000Y-53975000D01*
X91960000Y-51115000D02*
X90040000Y-51115000D01*
X91960000Y-53975000D02*
X91960000Y-51115000D01*
G04 #@! TO.C,D6*
X102960000Y-53975000D02*
X102960000Y-51115000D01*
X102960000Y-51115000D02*
X101040000Y-51115000D01*
X101040000Y-51115000D02*
X101040000Y-53975000D01*
G04 #@! TO.C,D7*
X113960000Y-54000000D02*
X113960000Y-51140000D01*
X113960000Y-51140000D02*
X112040000Y-51140000D01*
X112040000Y-51140000D02*
X112040000Y-54000000D01*
G04 #@! TO.C,D8*
X122040000Y-56140000D02*
X122040000Y-59000000D01*
X123960000Y-56140000D02*
X122040000Y-56140000D01*
X123960000Y-59000000D02*
X123960000Y-56140000D01*
G04 #@! TO.C,J2*
X92440000Y-102000000D02*
X92440000Y-100940000D01*
X92440000Y-100940000D02*
X93500000Y-100940000D01*
X94500000Y-100940000D02*
X96560000Y-100940000D01*
X96560000Y-103060000D02*
X96560000Y-100940000D01*
X94500000Y-103060000D02*
X96560000Y-103060000D01*
X94500000Y-103060000D02*
X94500000Y-100940000D01*
G04 #@! TO.C,J4*
X109500000Y-100940000D02*
X109500000Y-103060000D01*
X109500000Y-100940000D02*
X107440000Y-100940000D01*
X107440000Y-100940000D02*
X107440000Y-103060000D01*
X109500000Y-103060000D02*
X107440000Y-103060000D01*
X111560000Y-103060000D02*
X110500000Y-103060000D01*
X111560000Y-102000000D02*
X111560000Y-103060000D01*
G04 #@! TO.C,J7*
X84000000Y-98420000D02*
X85330000Y-98420000D01*
X85330000Y-98420000D02*
X85330000Y-99750000D01*
X85330000Y-101020000D02*
X85330000Y-103620000D01*
X82670000Y-103620000D02*
X85330000Y-103620000D01*
X82670000Y-101020000D02*
X82670000Y-103620000D01*
X82670000Y-101020000D02*
X85330000Y-101020000D01*
G04 #@! TO.C,J8*
X102000000Y-100940000D02*
X102000000Y-103060000D01*
X102000000Y-100940000D02*
X99940000Y-100940000D01*
X99940000Y-100940000D02*
X99940000Y-103060000D01*
X102000000Y-103060000D02*
X99940000Y-103060000D01*
X104060000Y-103060000D02*
X103000000Y-103060000D01*
X104060000Y-102000000D02*
X104060000Y-103060000D01*
G04 #@! TO.C,SW3*
X128060000Y-140850000D02*
X121940000Y-140850000D01*
X121940000Y-140850000D02*
X121940000Y-137150000D01*
X121940000Y-137150000D02*
X128060000Y-137150000D01*
X128060000Y-137150000D02*
X128060000Y-140850000D01*
G04 #@! TO.C,U11*
D14*
X89406904Y-51092380D02*
X89406904Y-51901904D01*
X89454523Y-51997142D01*
X89502142Y-52044761D01*
X89597380Y-52092380D01*
X89787857Y-52092380D01*
X89883095Y-52044761D01*
X89930714Y-51997142D01*
X89978333Y-51901904D01*
X89978333Y-51092380D01*
X90978333Y-52092380D02*
X90406904Y-52092380D01*
X90692619Y-52092380D02*
X90692619Y-51092380D01*
X90597380Y-51235238D01*
X90502142Y-51330476D01*
X90406904Y-51378095D01*
X91930714Y-52092380D02*
X91359285Y-52092380D01*
X91645000Y-52092380D02*
X91645000Y-51092380D01*
X91549761Y-51235238D01*
X91454523Y-51330476D01*
X91359285Y-51378095D01*
X103738095Y-55452380D02*
X103738095Y-56261904D01*
X103785714Y-56357142D01*
X103833333Y-56404761D01*
X103928571Y-56452380D01*
X104119047Y-56452380D01*
X104214285Y-56404761D01*
X104261904Y-56357142D01*
X104309523Y-56261904D01*
X104309523Y-55452380D01*
X104738095Y-56404761D02*
X104880952Y-56452380D01*
X105119047Y-56452380D01*
X105214285Y-56404761D01*
X105261904Y-56357142D01*
X105309523Y-56261904D01*
X105309523Y-56166666D01*
X105261904Y-56071428D01*
X105214285Y-56023809D01*
X105119047Y-55976190D01*
X104928571Y-55928571D01*
X104833333Y-55880952D01*
X104785714Y-55833333D01*
X104738095Y-55738095D01*
X104738095Y-55642857D01*
X104785714Y-55547619D01*
X104833333Y-55500000D01*
X104928571Y-55452380D01*
X105166666Y-55452380D01*
X105309523Y-55500000D01*
X106071428Y-55928571D02*
X106214285Y-55976190D01*
X106261904Y-56023809D01*
X106309523Y-56119047D01*
X106309523Y-56261904D01*
X106261904Y-56357142D01*
X106214285Y-56404761D01*
X106119047Y-56452380D01*
X105738095Y-56452380D01*
X105738095Y-55452380D01*
X106071428Y-55452380D01*
X106166666Y-55500000D01*
X106214285Y-55547619D01*
X106261904Y-55642857D01*
X106261904Y-55738095D01*
X106214285Y-55833333D01*
X106166666Y-55880952D01*
X106071428Y-55928571D01*
X105738095Y-55928571D01*
G04 #@! TO.C,BZ1*
X96928571Y-60928571D02*
X96976190Y-60785714D01*
X97023809Y-60738095D01*
X97119047Y-60690476D01*
X97261904Y-60690476D01*
X97357142Y-60738095D01*
X97404761Y-60785714D01*
X97452380Y-60880952D01*
X97452380Y-61261904D01*
X96452380Y-61261904D01*
X96452380Y-60928571D01*
X96500000Y-60833333D01*
X96547619Y-60785714D01*
X96642857Y-60738095D01*
X96738095Y-60738095D01*
X96833333Y-60785714D01*
X96880952Y-60833333D01*
X96928571Y-60928571D01*
X96928571Y-61261904D01*
X96785714Y-59833333D02*
X97452380Y-59833333D01*
X96785714Y-60261904D02*
X97309523Y-60261904D01*
X97404761Y-60214285D01*
X97452380Y-60119047D01*
X97452380Y-59976190D01*
X97404761Y-59880952D01*
X97357142Y-59833333D01*
X96785714Y-59452380D02*
X96785714Y-58928571D01*
X97452380Y-59452380D01*
X97452380Y-58928571D01*
X96785714Y-58642857D02*
X96785714Y-58119047D01*
X97452380Y-58642857D01*
X97452380Y-58119047D01*
X97404761Y-57357142D02*
X97452380Y-57452380D01*
X97452380Y-57642857D01*
X97404761Y-57738095D01*
X97309523Y-57785714D01*
X96928571Y-57785714D01*
X96833333Y-57738095D01*
X96785714Y-57642857D01*
X96785714Y-57452380D01*
X96833333Y-57357142D01*
X96928571Y-57309523D01*
X97023809Y-57309523D01*
X97119047Y-57785714D01*
X97452380Y-56880952D02*
X96785714Y-56880952D01*
X96976190Y-56880952D02*
X96880952Y-56833333D01*
X96833333Y-56785714D01*
X96785714Y-56690476D01*
X96785714Y-56595238D01*
G04 #@! TO.C,U13*
X98738095Y-91702380D02*
X98738095Y-90702380D01*
X99071428Y-91416666D01*
X99404761Y-90702380D01*
X99404761Y-91702380D01*
X99880952Y-91702380D02*
X99880952Y-90702380D01*
X100261904Y-90702380D01*
X100357142Y-90750000D01*
X100404761Y-90797619D01*
X100452380Y-90892857D01*
X100452380Y-91035714D01*
X100404761Y-91130952D01*
X100357142Y-91178571D01*
X100261904Y-91226190D01*
X99880952Y-91226190D01*
X100880952Y-90702380D02*
X100880952Y-91511904D01*
X100928571Y-91607142D01*
X100976190Y-91654761D01*
X101071428Y-91702380D01*
X101261904Y-91702380D01*
X101357142Y-91654761D01*
X101404761Y-91607142D01*
X101452380Y-91511904D01*
X101452380Y-90702380D01*
X102357142Y-90702380D02*
X102166666Y-90702380D01*
X102071428Y-90750000D01*
X102023809Y-90797619D01*
X101928571Y-90940476D01*
X101880952Y-91130952D01*
X101880952Y-91511904D01*
X101928571Y-91607142D01*
X101976190Y-91654761D01*
X102071428Y-91702380D01*
X102261904Y-91702380D01*
X102357142Y-91654761D01*
X102404761Y-91607142D01*
X102452380Y-91511904D01*
X102452380Y-91273809D01*
X102404761Y-91178571D01*
X102357142Y-91130952D01*
X102261904Y-91083333D01*
X102071428Y-91083333D01*
X101976190Y-91130952D01*
X101928571Y-91178571D01*
X101880952Y-91273809D01*
X103071428Y-90702380D02*
X103166666Y-90702380D01*
X103261904Y-90750000D01*
X103309523Y-90797619D01*
X103357142Y-90892857D01*
X103404761Y-91083333D01*
X103404761Y-91321428D01*
X103357142Y-91511904D01*
X103309523Y-91607142D01*
X103261904Y-91654761D01*
X103166666Y-91702380D01*
X103071428Y-91702380D01*
X102976190Y-91654761D01*
X102928571Y-91607142D01*
X102880952Y-91511904D01*
X102833333Y-91321428D01*
X102833333Y-91083333D01*
X102880952Y-90892857D01*
X102928571Y-90797619D01*
X102976190Y-90750000D01*
X103071428Y-90702380D01*
X104309523Y-90702380D02*
X103833333Y-90702380D01*
X103785714Y-91178571D01*
X103833333Y-91130952D01*
X103928571Y-91083333D01*
X104166666Y-91083333D01*
X104261904Y-91130952D01*
X104309523Y-91178571D01*
X104357142Y-91273809D01*
X104357142Y-91511904D01*
X104309523Y-91607142D01*
X104261904Y-91654761D01*
X104166666Y-91702380D01*
X103928571Y-91702380D01*
X103833333Y-91654761D01*
X103785714Y-91607142D01*
X104976190Y-90702380D02*
X105071428Y-90702380D01*
X105166666Y-90750000D01*
X105214285Y-90797619D01*
X105261904Y-90892857D01*
X105309523Y-91083333D01*
X105309523Y-91321428D01*
X105261904Y-91511904D01*
X105214285Y-91607142D01*
X105166666Y-91654761D01*
X105071428Y-91702380D01*
X104976190Y-91702380D01*
X104880952Y-91654761D01*
X104833333Y-91607142D01*
X104785714Y-91511904D01*
X104738095Y-91321428D01*
X104738095Y-91083333D01*
X104785714Y-90892857D01*
X104833333Y-90797619D01*
X104880952Y-90750000D01*
X104976190Y-90702380D01*
G04 #@! TO.C,U12*
X110452380Y-76642857D02*
X110452380Y-76071428D01*
X111452380Y-76357142D02*
X110452380Y-76357142D01*
X110928571Y-75404761D02*
X110976190Y-75261904D01*
X111023809Y-75214285D01*
X111119047Y-75166666D01*
X111261904Y-75166666D01*
X111357142Y-75214285D01*
X111404761Y-75261904D01*
X111452380Y-75357142D01*
X111452380Y-75738095D01*
X110452380Y-75738095D01*
X110452380Y-75404761D01*
X110500000Y-75309523D01*
X110547619Y-75261904D01*
X110642857Y-75214285D01*
X110738095Y-75214285D01*
X110833333Y-75261904D01*
X110880952Y-75309523D01*
X110928571Y-75404761D01*
X110928571Y-75738095D01*
X110452380Y-74309523D02*
X110452380Y-74500000D01*
X110500000Y-74595238D01*
X110547619Y-74642857D01*
X110690476Y-74738095D01*
X110880952Y-74785714D01*
X111261904Y-74785714D01*
X111357142Y-74738095D01*
X111404761Y-74690476D01*
X111452380Y-74595238D01*
X111452380Y-74404761D01*
X111404761Y-74309523D01*
X111357142Y-74261904D01*
X111261904Y-74214285D01*
X111023809Y-74214285D01*
X110928571Y-74261904D01*
X110880952Y-74309523D01*
X110833333Y-74404761D01*
X110833333Y-74595238D01*
X110880952Y-74690476D01*
X110928571Y-74738095D01*
X111023809Y-74785714D01*
X110452380Y-73357142D02*
X110452380Y-73547619D01*
X110500000Y-73642857D01*
X110547619Y-73690476D01*
X110690476Y-73785714D01*
X110880952Y-73833333D01*
X111261904Y-73833333D01*
X111357142Y-73785714D01*
X111404761Y-73738095D01*
X111452380Y-73642857D01*
X111452380Y-73452380D01*
X111404761Y-73357142D01*
X111357142Y-73309523D01*
X111261904Y-73261904D01*
X111023809Y-73261904D01*
X110928571Y-73309523D01*
X110880952Y-73357142D01*
X110833333Y-73452380D01*
X110833333Y-73642857D01*
X110880952Y-73738095D01*
X110928571Y-73785714D01*
X111023809Y-73833333D01*
X111452380Y-72309523D02*
X111452380Y-72880952D01*
X111452380Y-72595238D02*
X110452380Y-72595238D01*
X110595238Y-72690476D01*
X110690476Y-72785714D01*
X110738095Y-72880952D01*
X110547619Y-71928571D02*
X110500000Y-71880952D01*
X110452380Y-71785714D01*
X110452380Y-71547619D01*
X110500000Y-71452380D01*
X110547619Y-71404761D01*
X110642857Y-71357142D01*
X110738095Y-71357142D01*
X110880952Y-71404761D01*
X111452380Y-71976190D01*
X111452380Y-71357142D01*
X110928571Y-70595238D02*
X110928571Y-70928571D01*
X111452380Y-70928571D02*
X110452380Y-70928571D01*
X110452380Y-70452380D01*
X111452380Y-70071428D02*
X110452380Y-70071428D01*
X111452380Y-69500000D01*
X110452380Y-69500000D01*
X110500000Y-68500000D02*
X110452380Y-68595238D01*
X110452380Y-68738095D01*
X110500000Y-68880952D01*
X110595238Y-68976190D01*
X110690476Y-69023809D01*
X110880952Y-69071428D01*
X111023809Y-69071428D01*
X111214285Y-69023809D01*
X111309523Y-68976190D01*
X111404761Y-68880952D01*
X111452380Y-68738095D01*
X111452380Y-68642857D01*
X111404761Y-68500000D01*
X111357142Y-68452380D01*
X111023809Y-68452380D01*
X111023809Y-68642857D01*
G04 #@! TO.C,SW3*
X123380952Y-136404761D02*
X123523809Y-136452380D01*
X123761904Y-136452380D01*
X123857142Y-136404761D01*
X123904761Y-136357142D01*
X123952380Y-136261904D01*
X123952380Y-136166666D01*
X123904761Y-136071428D01*
X123857142Y-136023809D01*
X123761904Y-135976190D01*
X123571428Y-135928571D01*
X123476190Y-135880952D01*
X123428571Y-135833333D01*
X123380952Y-135738095D01*
X123380952Y-135642857D01*
X123428571Y-135547619D01*
X123476190Y-135500000D01*
X123571428Y-135452380D01*
X123809523Y-135452380D01*
X123952380Y-135500000D01*
X124238095Y-135785714D02*
X124619047Y-135785714D01*
X124380952Y-135452380D02*
X124380952Y-136309523D01*
X124428571Y-136404761D01*
X124523809Y-136452380D01*
X124619047Y-136452380D01*
X125380952Y-136452380D02*
X125380952Y-135928571D01*
X125333333Y-135833333D01*
X125238095Y-135785714D01*
X125047619Y-135785714D01*
X124952380Y-135833333D01*
X125380952Y-136404761D02*
X125285714Y-136452380D01*
X125047619Y-136452380D01*
X124952380Y-136404761D01*
X124904761Y-136309523D01*
X124904761Y-136214285D01*
X124952380Y-136119047D01*
X125047619Y-136071428D01*
X125285714Y-136071428D01*
X125380952Y-136023809D01*
X125857142Y-136452380D02*
X125857142Y-135785714D01*
X125857142Y-135976190D02*
X125904761Y-135880952D01*
X125952380Y-135833333D01*
X126047619Y-135785714D01*
X126142857Y-135785714D01*
X126333333Y-135785714D02*
X126714285Y-135785714D01*
X126476190Y-135452380D02*
X126476190Y-136309523D01*
X126523809Y-136404761D01*
X126619047Y-136452380D01*
X126714285Y-136452380D01*
G04 #@! TD*
M02*
