M48
;DRILL file {KiCad (5.0.1)-3} date 15-Jun-22 3:11:31 PM
;FORMAT={-:-/ absolute / metric / decimal}
FMAT,2
METRIC,TZ
T1C0.900
T2C1.000
T3C1.100
T4C2.200
T5C3.200
%
G90
G05
M71
T1
X83.5Y-138.33
X86.5Y-138.33
T2
X89.41Y-54.191
X116.518Y-56.489
X82.862Y-57.647
X124.126Y-57.908
X112.353Y-48.862
X91.908Y-45.874
T3
X121.138Y-57.647
X112.092Y-45.874
X87.482Y-56.489
X114.59Y-54.191
X79.874Y-57.908
X91.647Y-48.862
T4
X90.3Y-107.5
X90.3Y-131.5
X113.7Y-107.5
X113.7Y-131.5
T5
X94.38Y-85.92
X109.62Y-85.92
T0
M30
