G04 #@! TF.GenerationSoftware,KiCad,Pcbnew,(5.0.1)-3*
G04 #@! TF.CreationDate,2022-06-15T15:11:29+08:00*
G04 #@! TF.ProjectId,Micromouse_V01,4D6963726F6D6F7573655F5630312E6B,rev?*
G04 #@! TF.SameCoordinates,Original*
G04 #@! TF.FileFunction,Paste,Bot*
G04 #@! TF.FilePolarity,Positive*
%FSLAX46Y46*%
G04 Gerber Fmt 4.6, Leading zero omitted, Abs format (unit mm)*
G04 Created by KiCad (PCBNEW (5.0.1)-3) date 15-Jun-22 3:11:29 PM*
%MOMM*%
%LPD*%
G01*
G04 APERTURE LIST*
%ADD10R,0.700000X1.500000*%
%ADD11R,1.000000X0.800000*%
%ADD12C,0.100000*%
%ADD13C,0.790000*%
%ADD14R,0.900000X0.800000*%
%ADD15C,1.150000*%
%ADD16R,1.500000X1.500000*%
G04 APERTURE END LIST*
D10*
G04 #@! TO.C,SW1*
X87250000Y-136570000D03*
X84250000Y-136570000D03*
X82750000Y-136570000D03*
D11*
X88650000Y-139430000D03*
X81350000Y-139430000D03*
X81350000Y-137220000D03*
X88650000Y-137220000D03*
G04 #@! TD*
D12*
G04 #@! TO.C,S7*
G36*
X82116858Y-55170951D02*
X82136030Y-55173795D01*
X82154831Y-55178504D01*
X82173080Y-55185034D01*
X82190601Y-55193321D01*
X82207225Y-55203285D01*
X82222793Y-55214830D01*
X82237154Y-55227846D01*
X82250170Y-55242207D01*
X82261715Y-55257775D01*
X82271679Y-55274399D01*
X82279966Y-55291920D01*
X82286496Y-55310169D01*
X82291205Y-55328970D01*
X82294049Y-55348142D01*
X82295000Y-55367500D01*
X82295000Y-56632500D01*
X82294049Y-56651858D01*
X82291205Y-56671030D01*
X82286496Y-56689831D01*
X82279966Y-56708080D01*
X82271679Y-56725601D01*
X82261715Y-56742225D01*
X82250170Y-56757793D01*
X82237154Y-56772154D01*
X82222793Y-56785170D01*
X82207225Y-56796715D01*
X82190601Y-56806679D01*
X82173080Y-56814966D01*
X82154831Y-56821496D01*
X82136030Y-56826205D01*
X82116858Y-56829049D01*
X82097500Y-56830000D01*
X81702500Y-56830000D01*
X81683142Y-56829049D01*
X81663970Y-56826205D01*
X81645169Y-56821496D01*
X81626920Y-56814966D01*
X81609399Y-56806679D01*
X81592775Y-56796715D01*
X81577207Y-56785170D01*
X81562846Y-56772154D01*
X81549830Y-56757793D01*
X81538285Y-56742225D01*
X81528321Y-56725601D01*
X81520034Y-56708080D01*
X81513504Y-56689831D01*
X81508795Y-56671030D01*
X81505951Y-56651858D01*
X81505000Y-56632500D01*
X81505000Y-55367500D01*
X81505951Y-55348142D01*
X81508795Y-55328970D01*
X81513504Y-55310169D01*
X81520034Y-55291920D01*
X81528321Y-55274399D01*
X81538285Y-55257775D01*
X81549830Y-55242207D01*
X81562846Y-55227846D01*
X81577207Y-55214830D01*
X81592775Y-55203285D01*
X81609399Y-55193321D01*
X81626920Y-55185034D01*
X81645169Y-55178504D01*
X81663970Y-55173795D01*
X81683142Y-55170951D01*
X81702500Y-55170000D01*
X82097500Y-55170000D01*
X82116858Y-55170951D01*
X82116858Y-55170951D01*
G37*
D13*
X81900000Y-56000000D03*
D12*
G36*
X80316858Y-55170951D02*
X80336030Y-55173795D01*
X80354831Y-55178504D01*
X80373080Y-55185034D01*
X80390601Y-55193321D01*
X80407225Y-55203285D01*
X80422793Y-55214830D01*
X80437154Y-55227846D01*
X80450170Y-55242207D01*
X80461715Y-55257775D01*
X80471679Y-55274399D01*
X80479966Y-55291920D01*
X80486496Y-55310169D01*
X80491205Y-55328970D01*
X80494049Y-55348142D01*
X80495000Y-55367500D01*
X80495000Y-56632500D01*
X80494049Y-56651858D01*
X80491205Y-56671030D01*
X80486496Y-56689831D01*
X80479966Y-56708080D01*
X80471679Y-56725601D01*
X80461715Y-56742225D01*
X80450170Y-56757793D01*
X80437154Y-56772154D01*
X80422793Y-56785170D01*
X80407225Y-56796715D01*
X80390601Y-56806679D01*
X80373080Y-56814966D01*
X80354831Y-56821496D01*
X80336030Y-56826205D01*
X80316858Y-56829049D01*
X80297500Y-56830000D01*
X79902500Y-56830000D01*
X79883142Y-56829049D01*
X79863970Y-56826205D01*
X79845169Y-56821496D01*
X79826920Y-56814966D01*
X79809399Y-56806679D01*
X79792775Y-56796715D01*
X79777207Y-56785170D01*
X79762846Y-56772154D01*
X79749830Y-56757793D01*
X79738285Y-56742225D01*
X79728321Y-56725601D01*
X79720034Y-56708080D01*
X79713504Y-56689831D01*
X79708795Y-56671030D01*
X79705951Y-56651858D01*
X79705000Y-56632500D01*
X79705000Y-55367500D01*
X79705951Y-55348142D01*
X79708795Y-55328970D01*
X79713504Y-55310169D01*
X79720034Y-55291920D01*
X79728321Y-55274399D01*
X79738285Y-55257775D01*
X79749830Y-55242207D01*
X79762846Y-55227846D01*
X79777207Y-55214830D01*
X79792775Y-55203285D01*
X79809399Y-55193321D01*
X79826920Y-55185034D01*
X79845169Y-55178504D01*
X79863970Y-55173795D01*
X79883142Y-55170951D01*
X79902500Y-55170000D01*
X80297500Y-55170000D01*
X80316858Y-55170951D01*
X80316858Y-55170951D01*
G37*
D13*
X80100000Y-56000000D03*
D12*
G36*
X80316858Y-59170951D02*
X80336030Y-59173795D01*
X80354831Y-59178504D01*
X80373080Y-59185034D01*
X80390601Y-59193321D01*
X80407225Y-59203285D01*
X80422793Y-59214830D01*
X80437154Y-59227846D01*
X80450170Y-59242207D01*
X80461715Y-59257775D01*
X80471679Y-59274399D01*
X80479966Y-59291920D01*
X80486496Y-59310169D01*
X80491205Y-59328970D01*
X80494049Y-59348142D01*
X80495000Y-59367500D01*
X80495000Y-60632500D01*
X80494049Y-60651858D01*
X80491205Y-60671030D01*
X80486496Y-60689831D01*
X80479966Y-60708080D01*
X80471679Y-60725601D01*
X80461715Y-60742225D01*
X80450170Y-60757793D01*
X80437154Y-60772154D01*
X80422793Y-60785170D01*
X80407225Y-60796715D01*
X80390601Y-60806679D01*
X80373080Y-60814966D01*
X80354831Y-60821496D01*
X80336030Y-60826205D01*
X80316858Y-60829049D01*
X80297500Y-60830000D01*
X79902500Y-60830000D01*
X79883142Y-60829049D01*
X79863970Y-60826205D01*
X79845169Y-60821496D01*
X79826920Y-60814966D01*
X79809399Y-60806679D01*
X79792775Y-60796715D01*
X79777207Y-60785170D01*
X79762846Y-60772154D01*
X79749830Y-60757793D01*
X79738285Y-60742225D01*
X79728321Y-60725601D01*
X79720034Y-60708080D01*
X79713504Y-60689831D01*
X79708795Y-60671030D01*
X79705951Y-60651858D01*
X79705000Y-60632500D01*
X79705000Y-59367500D01*
X79705951Y-59348142D01*
X79708795Y-59328970D01*
X79713504Y-59310169D01*
X79720034Y-59291920D01*
X79728321Y-59274399D01*
X79738285Y-59257775D01*
X79749830Y-59242207D01*
X79762846Y-59227846D01*
X79777207Y-59214830D01*
X79792775Y-59203285D01*
X79809399Y-59193321D01*
X79826920Y-59185034D01*
X79845169Y-59178504D01*
X79863970Y-59173795D01*
X79883142Y-59170951D01*
X79902500Y-59170000D01*
X80297500Y-59170000D01*
X80316858Y-59170951D01*
X80316858Y-59170951D01*
G37*
D13*
X80100000Y-60000000D03*
D12*
G36*
X82116858Y-59170951D02*
X82136030Y-59173795D01*
X82154831Y-59178504D01*
X82173080Y-59185034D01*
X82190601Y-59193321D01*
X82207225Y-59203285D01*
X82222793Y-59214830D01*
X82237154Y-59227846D01*
X82250170Y-59242207D01*
X82261715Y-59257775D01*
X82271679Y-59274399D01*
X82279966Y-59291920D01*
X82286496Y-59310169D01*
X82291205Y-59328970D01*
X82294049Y-59348142D01*
X82295000Y-59367500D01*
X82295000Y-60632500D01*
X82294049Y-60651858D01*
X82291205Y-60671030D01*
X82286496Y-60689831D01*
X82279966Y-60708080D01*
X82271679Y-60725601D01*
X82261715Y-60742225D01*
X82250170Y-60757793D01*
X82237154Y-60772154D01*
X82222793Y-60785170D01*
X82207225Y-60796715D01*
X82190601Y-60806679D01*
X82173080Y-60814966D01*
X82154831Y-60821496D01*
X82136030Y-60826205D01*
X82116858Y-60829049D01*
X82097500Y-60830000D01*
X81702500Y-60830000D01*
X81683142Y-60829049D01*
X81663970Y-60826205D01*
X81645169Y-60821496D01*
X81626920Y-60814966D01*
X81609399Y-60806679D01*
X81592775Y-60796715D01*
X81577207Y-60785170D01*
X81562846Y-60772154D01*
X81549830Y-60757793D01*
X81538285Y-60742225D01*
X81528321Y-60725601D01*
X81520034Y-60708080D01*
X81513504Y-60689831D01*
X81508795Y-60671030D01*
X81505951Y-60651858D01*
X81505000Y-60632500D01*
X81505000Y-59367500D01*
X81505951Y-59348142D01*
X81508795Y-59328970D01*
X81513504Y-59310169D01*
X81520034Y-59291920D01*
X81528321Y-59274399D01*
X81538285Y-59257775D01*
X81549830Y-59242207D01*
X81562846Y-59227846D01*
X81577207Y-59214830D01*
X81592775Y-59203285D01*
X81609399Y-59193321D01*
X81626920Y-59185034D01*
X81645169Y-59178504D01*
X81663970Y-59173795D01*
X81683142Y-59170951D01*
X81702500Y-59170000D01*
X82097500Y-59170000D01*
X82116858Y-59170951D01*
X82116858Y-59170951D01*
G37*
D13*
X81900000Y-60000000D03*
G04 #@! TD*
D12*
G04 #@! TO.C,S8*
G36*
X92116858Y-54170951D02*
X92136030Y-54173795D01*
X92154831Y-54178504D01*
X92173080Y-54185034D01*
X92190601Y-54193321D01*
X92207225Y-54203285D01*
X92222793Y-54214830D01*
X92237154Y-54227846D01*
X92250170Y-54242207D01*
X92261715Y-54257775D01*
X92271679Y-54274399D01*
X92279966Y-54291920D01*
X92286496Y-54310169D01*
X92291205Y-54328970D01*
X92294049Y-54348142D01*
X92295000Y-54367500D01*
X92295000Y-55632500D01*
X92294049Y-55651858D01*
X92291205Y-55671030D01*
X92286496Y-55689831D01*
X92279966Y-55708080D01*
X92271679Y-55725601D01*
X92261715Y-55742225D01*
X92250170Y-55757793D01*
X92237154Y-55772154D01*
X92222793Y-55785170D01*
X92207225Y-55796715D01*
X92190601Y-55806679D01*
X92173080Y-55814966D01*
X92154831Y-55821496D01*
X92136030Y-55826205D01*
X92116858Y-55829049D01*
X92097500Y-55830000D01*
X91702500Y-55830000D01*
X91683142Y-55829049D01*
X91663970Y-55826205D01*
X91645169Y-55821496D01*
X91626920Y-55814966D01*
X91609399Y-55806679D01*
X91592775Y-55796715D01*
X91577207Y-55785170D01*
X91562846Y-55772154D01*
X91549830Y-55757793D01*
X91538285Y-55742225D01*
X91528321Y-55725601D01*
X91520034Y-55708080D01*
X91513504Y-55689831D01*
X91508795Y-55671030D01*
X91505951Y-55651858D01*
X91505000Y-55632500D01*
X91505000Y-54367500D01*
X91505951Y-54348142D01*
X91508795Y-54328970D01*
X91513504Y-54310169D01*
X91520034Y-54291920D01*
X91528321Y-54274399D01*
X91538285Y-54257775D01*
X91549830Y-54242207D01*
X91562846Y-54227846D01*
X91577207Y-54214830D01*
X91592775Y-54203285D01*
X91609399Y-54193321D01*
X91626920Y-54185034D01*
X91645169Y-54178504D01*
X91663970Y-54173795D01*
X91683142Y-54170951D01*
X91702500Y-54170000D01*
X92097500Y-54170000D01*
X92116858Y-54170951D01*
X92116858Y-54170951D01*
G37*
D13*
X91900000Y-55000000D03*
D12*
G36*
X90316858Y-54170951D02*
X90336030Y-54173795D01*
X90354831Y-54178504D01*
X90373080Y-54185034D01*
X90390601Y-54193321D01*
X90407225Y-54203285D01*
X90422793Y-54214830D01*
X90437154Y-54227846D01*
X90450170Y-54242207D01*
X90461715Y-54257775D01*
X90471679Y-54274399D01*
X90479966Y-54291920D01*
X90486496Y-54310169D01*
X90491205Y-54328970D01*
X90494049Y-54348142D01*
X90495000Y-54367500D01*
X90495000Y-55632500D01*
X90494049Y-55651858D01*
X90491205Y-55671030D01*
X90486496Y-55689831D01*
X90479966Y-55708080D01*
X90471679Y-55725601D01*
X90461715Y-55742225D01*
X90450170Y-55757793D01*
X90437154Y-55772154D01*
X90422793Y-55785170D01*
X90407225Y-55796715D01*
X90390601Y-55806679D01*
X90373080Y-55814966D01*
X90354831Y-55821496D01*
X90336030Y-55826205D01*
X90316858Y-55829049D01*
X90297500Y-55830000D01*
X89902500Y-55830000D01*
X89883142Y-55829049D01*
X89863970Y-55826205D01*
X89845169Y-55821496D01*
X89826920Y-55814966D01*
X89809399Y-55806679D01*
X89792775Y-55796715D01*
X89777207Y-55785170D01*
X89762846Y-55772154D01*
X89749830Y-55757793D01*
X89738285Y-55742225D01*
X89728321Y-55725601D01*
X89720034Y-55708080D01*
X89713504Y-55689831D01*
X89708795Y-55671030D01*
X89705951Y-55651858D01*
X89705000Y-55632500D01*
X89705000Y-54367500D01*
X89705951Y-54348142D01*
X89708795Y-54328970D01*
X89713504Y-54310169D01*
X89720034Y-54291920D01*
X89728321Y-54274399D01*
X89738285Y-54257775D01*
X89749830Y-54242207D01*
X89762846Y-54227846D01*
X89777207Y-54214830D01*
X89792775Y-54203285D01*
X89809399Y-54193321D01*
X89826920Y-54185034D01*
X89845169Y-54178504D01*
X89863970Y-54173795D01*
X89883142Y-54170951D01*
X89902500Y-54170000D01*
X90297500Y-54170000D01*
X90316858Y-54170951D01*
X90316858Y-54170951D01*
G37*
D13*
X90100000Y-55000000D03*
D12*
G36*
X90316858Y-50170951D02*
X90336030Y-50173795D01*
X90354831Y-50178504D01*
X90373080Y-50185034D01*
X90390601Y-50193321D01*
X90407225Y-50203285D01*
X90422793Y-50214830D01*
X90437154Y-50227846D01*
X90450170Y-50242207D01*
X90461715Y-50257775D01*
X90471679Y-50274399D01*
X90479966Y-50291920D01*
X90486496Y-50310169D01*
X90491205Y-50328970D01*
X90494049Y-50348142D01*
X90495000Y-50367500D01*
X90495000Y-51632500D01*
X90494049Y-51651858D01*
X90491205Y-51671030D01*
X90486496Y-51689831D01*
X90479966Y-51708080D01*
X90471679Y-51725601D01*
X90461715Y-51742225D01*
X90450170Y-51757793D01*
X90437154Y-51772154D01*
X90422793Y-51785170D01*
X90407225Y-51796715D01*
X90390601Y-51806679D01*
X90373080Y-51814966D01*
X90354831Y-51821496D01*
X90336030Y-51826205D01*
X90316858Y-51829049D01*
X90297500Y-51830000D01*
X89902500Y-51830000D01*
X89883142Y-51829049D01*
X89863970Y-51826205D01*
X89845169Y-51821496D01*
X89826920Y-51814966D01*
X89809399Y-51806679D01*
X89792775Y-51796715D01*
X89777207Y-51785170D01*
X89762846Y-51772154D01*
X89749830Y-51757793D01*
X89738285Y-51742225D01*
X89728321Y-51725601D01*
X89720034Y-51708080D01*
X89713504Y-51689831D01*
X89708795Y-51671030D01*
X89705951Y-51651858D01*
X89705000Y-51632500D01*
X89705000Y-50367500D01*
X89705951Y-50348142D01*
X89708795Y-50328970D01*
X89713504Y-50310169D01*
X89720034Y-50291920D01*
X89728321Y-50274399D01*
X89738285Y-50257775D01*
X89749830Y-50242207D01*
X89762846Y-50227846D01*
X89777207Y-50214830D01*
X89792775Y-50203285D01*
X89809399Y-50193321D01*
X89826920Y-50185034D01*
X89845169Y-50178504D01*
X89863970Y-50173795D01*
X89883142Y-50170951D01*
X89902500Y-50170000D01*
X90297500Y-50170000D01*
X90316858Y-50170951D01*
X90316858Y-50170951D01*
G37*
D13*
X90100000Y-51000000D03*
D12*
G36*
X92116858Y-50170951D02*
X92136030Y-50173795D01*
X92154831Y-50178504D01*
X92173080Y-50185034D01*
X92190601Y-50193321D01*
X92207225Y-50203285D01*
X92222793Y-50214830D01*
X92237154Y-50227846D01*
X92250170Y-50242207D01*
X92261715Y-50257775D01*
X92271679Y-50274399D01*
X92279966Y-50291920D01*
X92286496Y-50310169D01*
X92291205Y-50328970D01*
X92294049Y-50348142D01*
X92295000Y-50367500D01*
X92295000Y-51632500D01*
X92294049Y-51651858D01*
X92291205Y-51671030D01*
X92286496Y-51689831D01*
X92279966Y-51708080D01*
X92271679Y-51725601D01*
X92261715Y-51742225D01*
X92250170Y-51757793D01*
X92237154Y-51772154D01*
X92222793Y-51785170D01*
X92207225Y-51796715D01*
X92190601Y-51806679D01*
X92173080Y-51814966D01*
X92154831Y-51821496D01*
X92136030Y-51826205D01*
X92116858Y-51829049D01*
X92097500Y-51830000D01*
X91702500Y-51830000D01*
X91683142Y-51829049D01*
X91663970Y-51826205D01*
X91645169Y-51821496D01*
X91626920Y-51814966D01*
X91609399Y-51806679D01*
X91592775Y-51796715D01*
X91577207Y-51785170D01*
X91562846Y-51772154D01*
X91549830Y-51757793D01*
X91538285Y-51742225D01*
X91528321Y-51725601D01*
X91520034Y-51708080D01*
X91513504Y-51689831D01*
X91508795Y-51671030D01*
X91505951Y-51651858D01*
X91505000Y-51632500D01*
X91505000Y-50367500D01*
X91505951Y-50348142D01*
X91508795Y-50328970D01*
X91513504Y-50310169D01*
X91520034Y-50291920D01*
X91528321Y-50274399D01*
X91538285Y-50257775D01*
X91549830Y-50242207D01*
X91562846Y-50227846D01*
X91577207Y-50214830D01*
X91592775Y-50203285D01*
X91609399Y-50193321D01*
X91626920Y-50185034D01*
X91645169Y-50178504D01*
X91663970Y-50173795D01*
X91683142Y-50170951D01*
X91702500Y-50170000D01*
X92097500Y-50170000D01*
X92116858Y-50170951D01*
X92116858Y-50170951D01*
G37*
D13*
X91900000Y-51000000D03*
G04 #@! TD*
D12*
G04 #@! TO.C,S10*
G36*
X114116858Y-54170951D02*
X114136030Y-54173795D01*
X114154831Y-54178504D01*
X114173080Y-54185034D01*
X114190601Y-54193321D01*
X114207225Y-54203285D01*
X114222793Y-54214830D01*
X114237154Y-54227846D01*
X114250170Y-54242207D01*
X114261715Y-54257775D01*
X114271679Y-54274399D01*
X114279966Y-54291920D01*
X114286496Y-54310169D01*
X114291205Y-54328970D01*
X114294049Y-54348142D01*
X114295000Y-54367500D01*
X114295000Y-55632500D01*
X114294049Y-55651858D01*
X114291205Y-55671030D01*
X114286496Y-55689831D01*
X114279966Y-55708080D01*
X114271679Y-55725601D01*
X114261715Y-55742225D01*
X114250170Y-55757793D01*
X114237154Y-55772154D01*
X114222793Y-55785170D01*
X114207225Y-55796715D01*
X114190601Y-55806679D01*
X114173080Y-55814966D01*
X114154831Y-55821496D01*
X114136030Y-55826205D01*
X114116858Y-55829049D01*
X114097500Y-55830000D01*
X113702500Y-55830000D01*
X113683142Y-55829049D01*
X113663970Y-55826205D01*
X113645169Y-55821496D01*
X113626920Y-55814966D01*
X113609399Y-55806679D01*
X113592775Y-55796715D01*
X113577207Y-55785170D01*
X113562846Y-55772154D01*
X113549830Y-55757793D01*
X113538285Y-55742225D01*
X113528321Y-55725601D01*
X113520034Y-55708080D01*
X113513504Y-55689831D01*
X113508795Y-55671030D01*
X113505951Y-55651858D01*
X113505000Y-55632500D01*
X113505000Y-54367500D01*
X113505951Y-54348142D01*
X113508795Y-54328970D01*
X113513504Y-54310169D01*
X113520034Y-54291920D01*
X113528321Y-54274399D01*
X113538285Y-54257775D01*
X113549830Y-54242207D01*
X113562846Y-54227846D01*
X113577207Y-54214830D01*
X113592775Y-54203285D01*
X113609399Y-54193321D01*
X113626920Y-54185034D01*
X113645169Y-54178504D01*
X113663970Y-54173795D01*
X113683142Y-54170951D01*
X113702500Y-54170000D01*
X114097500Y-54170000D01*
X114116858Y-54170951D01*
X114116858Y-54170951D01*
G37*
D13*
X113900000Y-55000000D03*
D12*
G36*
X112316858Y-54170951D02*
X112336030Y-54173795D01*
X112354831Y-54178504D01*
X112373080Y-54185034D01*
X112390601Y-54193321D01*
X112407225Y-54203285D01*
X112422793Y-54214830D01*
X112437154Y-54227846D01*
X112450170Y-54242207D01*
X112461715Y-54257775D01*
X112471679Y-54274399D01*
X112479966Y-54291920D01*
X112486496Y-54310169D01*
X112491205Y-54328970D01*
X112494049Y-54348142D01*
X112495000Y-54367500D01*
X112495000Y-55632500D01*
X112494049Y-55651858D01*
X112491205Y-55671030D01*
X112486496Y-55689831D01*
X112479966Y-55708080D01*
X112471679Y-55725601D01*
X112461715Y-55742225D01*
X112450170Y-55757793D01*
X112437154Y-55772154D01*
X112422793Y-55785170D01*
X112407225Y-55796715D01*
X112390601Y-55806679D01*
X112373080Y-55814966D01*
X112354831Y-55821496D01*
X112336030Y-55826205D01*
X112316858Y-55829049D01*
X112297500Y-55830000D01*
X111902500Y-55830000D01*
X111883142Y-55829049D01*
X111863970Y-55826205D01*
X111845169Y-55821496D01*
X111826920Y-55814966D01*
X111809399Y-55806679D01*
X111792775Y-55796715D01*
X111777207Y-55785170D01*
X111762846Y-55772154D01*
X111749830Y-55757793D01*
X111738285Y-55742225D01*
X111728321Y-55725601D01*
X111720034Y-55708080D01*
X111713504Y-55689831D01*
X111708795Y-55671030D01*
X111705951Y-55651858D01*
X111705000Y-55632500D01*
X111705000Y-54367500D01*
X111705951Y-54348142D01*
X111708795Y-54328970D01*
X111713504Y-54310169D01*
X111720034Y-54291920D01*
X111728321Y-54274399D01*
X111738285Y-54257775D01*
X111749830Y-54242207D01*
X111762846Y-54227846D01*
X111777207Y-54214830D01*
X111792775Y-54203285D01*
X111809399Y-54193321D01*
X111826920Y-54185034D01*
X111845169Y-54178504D01*
X111863970Y-54173795D01*
X111883142Y-54170951D01*
X111902500Y-54170000D01*
X112297500Y-54170000D01*
X112316858Y-54170951D01*
X112316858Y-54170951D01*
G37*
D13*
X112100000Y-55000000D03*
D12*
G36*
X112316858Y-50170951D02*
X112336030Y-50173795D01*
X112354831Y-50178504D01*
X112373080Y-50185034D01*
X112390601Y-50193321D01*
X112407225Y-50203285D01*
X112422793Y-50214830D01*
X112437154Y-50227846D01*
X112450170Y-50242207D01*
X112461715Y-50257775D01*
X112471679Y-50274399D01*
X112479966Y-50291920D01*
X112486496Y-50310169D01*
X112491205Y-50328970D01*
X112494049Y-50348142D01*
X112495000Y-50367500D01*
X112495000Y-51632500D01*
X112494049Y-51651858D01*
X112491205Y-51671030D01*
X112486496Y-51689831D01*
X112479966Y-51708080D01*
X112471679Y-51725601D01*
X112461715Y-51742225D01*
X112450170Y-51757793D01*
X112437154Y-51772154D01*
X112422793Y-51785170D01*
X112407225Y-51796715D01*
X112390601Y-51806679D01*
X112373080Y-51814966D01*
X112354831Y-51821496D01*
X112336030Y-51826205D01*
X112316858Y-51829049D01*
X112297500Y-51830000D01*
X111902500Y-51830000D01*
X111883142Y-51829049D01*
X111863970Y-51826205D01*
X111845169Y-51821496D01*
X111826920Y-51814966D01*
X111809399Y-51806679D01*
X111792775Y-51796715D01*
X111777207Y-51785170D01*
X111762846Y-51772154D01*
X111749830Y-51757793D01*
X111738285Y-51742225D01*
X111728321Y-51725601D01*
X111720034Y-51708080D01*
X111713504Y-51689831D01*
X111708795Y-51671030D01*
X111705951Y-51651858D01*
X111705000Y-51632500D01*
X111705000Y-50367500D01*
X111705951Y-50348142D01*
X111708795Y-50328970D01*
X111713504Y-50310169D01*
X111720034Y-50291920D01*
X111728321Y-50274399D01*
X111738285Y-50257775D01*
X111749830Y-50242207D01*
X111762846Y-50227846D01*
X111777207Y-50214830D01*
X111792775Y-50203285D01*
X111809399Y-50193321D01*
X111826920Y-50185034D01*
X111845169Y-50178504D01*
X111863970Y-50173795D01*
X111883142Y-50170951D01*
X111902500Y-50170000D01*
X112297500Y-50170000D01*
X112316858Y-50170951D01*
X112316858Y-50170951D01*
G37*
D13*
X112100000Y-51000000D03*
D12*
G36*
X114116858Y-50170951D02*
X114136030Y-50173795D01*
X114154831Y-50178504D01*
X114173080Y-50185034D01*
X114190601Y-50193321D01*
X114207225Y-50203285D01*
X114222793Y-50214830D01*
X114237154Y-50227846D01*
X114250170Y-50242207D01*
X114261715Y-50257775D01*
X114271679Y-50274399D01*
X114279966Y-50291920D01*
X114286496Y-50310169D01*
X114291205Y-50328970D01*
X114294049Y-50348142D01*
X114295000Y-50367500D01*
X114295000Y-51632500D01*
X114294049Y-51651858D01*
X114291205Y-51671030D01*
X114286496Y-51689831D01*
X114279966Y-51708080D01*
X114271679Y-51725601D01*
X114261715Y-51742225D01*
X114250170Y-51757793D01*
X114237154Y-51772154D01*
X114222793Y-51785170D01*
X114207225Y-51796715D01*
X114190601Y-51806679D01*
X114173080Y-51814966D01*
X114154831Y-51821496D01*
X114136030Y-51826205D01*
X114116858Y-51829049D01*
X114097500Y-51830000D01*
X113702500Y-51830000D01*
X113683142Y-51829049D01*
X113663970Y-51826205D01*
X113645169Y-51821496D01*
X113626920Y-51814966D01*
X113609399Y-51806679D01*
X113592775Y-51796715D01*
X113577207Y-51785170D01*
X113562846Y-51772154D01*
X113549830Y-51757793D01*
X113538285Y-51742225D01*
X113528321Y-51725601D01*
X113520034Y-51708080D01*
X113513504Y-51689831D01*
X113508795Y-51671030D01*
X113505951Y-51651858D01*
X113505000Y-51632500D01*
X113505000Y-50367500D01*
X113505951Y-50348142D01*
X113508795Y-50328970D01*
X113513504Y-50310169D01*
X113520034Y-50291920D01*
X113528321Y-50274399D01*
X113538285Y-50257775D01*
X113549830Y-50242207D01*
X113562846Y-50227846D01*
X113577207Y-50214830D01*
X113592775Y-50203285D01*
X113609399Y-50193321D01*
X113626920Y-50185034D01*
X113645169Y-50178504D01*
X113663970Y-50173795D01*
X113683142Y-50170951D01*
X113702500Y-50170000D01*
X114097500Y-50170000D01*
X114116858Y-50170951D01*
X114116858Y-50170951D01*
G37*
D13*
X113900000Y-51000000D03*
G04 #@! TD*
D14*
G04 #@! TO.C,Q1*
X94000000Y-72000000D03*
X92000000Y-71050000D03*
X92000000Y-72950000D03*
G04 #@! TD*
G04 #@! TO.C,Q2*
X97500000Y-72000000D03*
X95500000Y-71050000D03*
X95500000Y-72950000D03*
G04 #@! TD*
G04 #@! TO.C,Q3*
X108500000Y-72000000D03*
X106500000Y-71050000D03*
X106500000Y-72950000D03*
G04 #@! TD*
G04 #@! TO.C,Q4*
X110000000Y-72950000D03*
X110000000Y-71050000D03*
X112000000Y-72000000D03*
G04 #@! TD*
G04 #@! TO.C,Q5*
X99000000Y-72950000D03*
X99000000Y-71050000D03*
X101000000Y-72000000D03*
G04 #@! TD*
G04 #@! TO.C,Q6*
X103000000Y-72950000D03*
X103000000Y-71050000D03*
X105000000Y-72000000D03*
G04 #@! TD*
D12*
G04 #@! TO.C,R1*
G36*
X93474505Y-66401204D02*
X93498773Y-66404804D01*
X93522572Y-66410765D01*
X93545671Y-66419030D01*
X93567850Y-66429520D01*
X93588893Y-66442132D01*
X93608599Y-66456747D01*
X93626777Y-66473223D01*
X93643253Y-66491401D01*
X93657868Y-66511107D01*
X93670480Y-66532150D01*
X93680970Y-66554329D01*
X93689235Y-66577428D01*
X93695196Y-66601227D01*
X93698796Y-66625495D01*
X93700000Y-66649999D01*
X93700000Y-67300001D01*
X93698796Y-67324505D01*
X93695196Y-67348773D01*
X93689235Y-67372572D01*
X93680970Y-67395671D01*
X93670480Y-67417850D01*
X93657868Y-67438893D01*
X93643253Y-67458599D01*
X93626777Y-67476777D01*
X93608599Y-67493253D01*
X93588893Y-67507868D01*
X93567850Y-67520480D01*
X93545671Y-67530970D01*
X93522572Y-67539235D01*
X93498773Y-67545196D01*
X93474505Y-67548796D01*
X93450001Y-67550000D01*
X92549999Y-67550000D01*
X92525495Y-67548796D01*
X92501227Y-67545196D01*
X92477428Y-67539235D01*
X92454329Y-67530970D01*
X92432150Y-67520480D01*
X92411107Y-67507868D01*
X92391401Y-67493253D01*
X92373223Y-67476777D01*
X92356747Y-67458599D01*
X92342132Y-67438893D01*
X92329520Y-67417850D01*
X92319030Y-67395671D01*
X92310765Y-67372572D01*
X92304804Y-67348773D01*
X92301204Y-67324505D01*
X92300000Y-67300001D01*
X92300000Y-66649999D01*
X92301204Y-66625495D01*
X92304804Y-66601227D01*
X92310765Y-66577428D01*
X92319030Y-66554329D01*
X92329520Y-66532150D01*
X92342132Y-66511107D01*
X92356747Y-66491401D01*
X92373223Y-66473223D01*
X92391401Y-66456747D01*
X92411107Y-66442132D01*
X92432150Y-66429520D01*
X92454329Y-66419030D01*
X92477428Y-66410765D01*
X92501227Y-66404804D01*
X92525495Y-66401204D01*
X92549999Y-66400000D01*
X93450001Y-66400000D01*
X93474505Y-66401204D01*
X93474505Y-66401204D01*
G37*
D15*
X93000000Y-66975000D03*
D12*
G36*
X93474505Y-68451204D02*
X93498773Y-68454804D01*
X93522572Y-68460765D01*
X93545671Y-68469030D01*
X93567850Y-68479520D01*
X93588893Y-68492132D01*
X93608599Y-68506747D01*
X93626777Y-68523223D01*
X93643253Y-68541401D01*
X93657868Y-68561107D01*
X93670480Y-68582150D01*
X93680970Y-68604329D01*
X93689235Y-68627428D01*
X93695196Y-68651227D01*
X93698796Y-68675495D01*
X93700000Y-68699999D01*
X93700000Y-69350001D01*
X93698796Y-69374505D01*
X93695196Y-69398773D01*
X93689235Y-69422572D01*
X93680970Y-69445671D01*
X93670480Y-69467850D01*
X93657868Y-69488893D01*
X93643253Y-69508599D01*
X93626777Y-69526777D01*
X93608599Y-69543253D01*
X93588893Y-69557868D01*
X93567850Y-69570480D01*
X93545671Y-69580970D01*
X93522572Y-69589235D01*
X93498773Y-69595196D01*
X93474505Y-69598796D01*
X93450001Y-69600000D01*
X92549999Y-69600000D01*
X92525495Y-69598796D01*
X92501227Y-69595196D01*
X92477428Y-69589235D01*
X92454329Y-69580970D01*
X92432150Y-69570480D01*
X92411107Y-69557868D01*
X92391401Y-69543253D01*
X92373223Y-69526777D01*
X92356747Y-69508599D01*
X92342132Y-69488893D01*
X92329520Y-69467850D01*
X92319030Y-69445671D01*
X92310765Y-69422572D01*
X92304804Y-69398773D01*
X92301204Y-69374505D01*
X92300000Y-69350001D01*
X92300000Y-68699999D01*
X92301204Y-68675495D01*
X92304804Y-68651227D01*
X92310765Y-68627428D01*
X92319030Y-68604329D01*
X92329520Y-68582150D01*
X92342132Y-68561107D01*
X92356747Y-68541401D01*
X92373223Y-68523223D01*
X92391401Y-68506747D01*
X92411107Y-68492132D01*
X92432150Y-68479520D01*
X92454329Y-68469030D01*
X92477428Y-68460765D01*
X92501227Y-68454804D01*
X92525495Y-68451204D01*
X92549999Y-68450000D01*
X93450001Y-68450000D01*
X93474505Y-68451204D01*
X93474505Y-68451204D01*
G37*
D15*
X93000000Y-69025000D03*
G04 #@! TD*
D12*
G04 #@! TO.C,R2*
G36*
X96474505Y-93426204D02*
X96498773Y-93429804D01*
X96522572Y-93435765D01*
X96545671Y-93444030D01*
X96567850Y-93454520D01*
X96588893Y-93467132D01*
X96608599Y-93481747D01*
X96626777Y-93498223D01*
X96643253Y-93516401D01*
X96657868Y-93536107D01*
X96670480Y-93557150D01*
X96680970Y-93579329D01*
X96689235Y-93602428D01*
X96695196Y-93626227D01*
X96698796Y-93650495D01*
X96700000Y-93674999D01*
X96700000Y-94325001D01*
X96698796Y-94349505D01*
X96695196Y-94373773D01*
X96689235Y-94397572D01*
X96680970Y-94420671D01*
X96670480Y-94442850D01*
X96657868Y-94463893D01*
X96643253Y-94483599D01*
X96626777Y-94501777D01*
X96608599Y-94518253D01*
X96588893Y-94532868D01*
X96567850Y-94545480D01*
X96545671Y-94555970D01*
X96522572Y-94564235D01*
X96498773Y-94570196D01*
X96474505Y-94573796D01*
X96450001Y-94575000D01*
X95549999Y-94575000D01*
X95525495Y-94573796D01*
X95501227Y-94570196D01*
X95477428Y-94564235D01*
X95454329Y-94555970D01*
X95432150Y-94545480D01*
X95411107Y-94532868D01*
X95391401Y-94518253D01*
X95373223Y-94501777D01*
X95356747Y-94483599D01*
X95342132Y-94463893D01*
X95329520Y-94442850D01*
X95319030Y-94420671D01*
X95310765Y-94397572D01*
X95304804Y-94373773D01*
X95301204Y-94349505D01*
X95300000Y-94325001D01*
X95300000Y-93674999D01*
X95301204Y-93650495D01*
X95304804Y-93626227D01*
X95310765Y-93602428D01*
X95319030Y-93579329D01*
X95329520Y-93557150D01*
X95342132Y-93536107D01*
X95356747Y-93516401D01*
X95373223Y-93498223D01*
X95391401Y-93481747D01*
X95411107Y-93467132D01*
X95432150Y-93454520D01*
X95454329Y-93444030D01*
X95477428Y-93435765D01*
X95501227Y-93429804D01*
X95525495Y-93426204D01*
X95549999Y-93425000D01*
X96450001Y-93425000D01*
X96474505Y-93426204D01*
X96474505Y-93426204D01*
G37*
D15*
X96000000Y-94000000D03*
D12*
G36*
X96474505Y-91376204D02*
X96498773Y-91379804D01*
X96522572Y-91385765D01*
X96545671Y-91394030D01*
X96567850Y-91404520D01*
X96588893Y-91417132D01*
X96608599Y-91431747D01*
X96626777Y-91448223D01*
X96643253Y-91466401D01*
X96657868Y-91486107D01*
X96670480Y-91507150D01*
X96680970Y-91529329D01*
X96689235Y-91552428D01*
X96695196Y-91576227D01*
X96698796Y-91600495D01*
X96700000Y-91624999D01*
X96700000Y-92275001D01*
X96698796Y-92299505D01*
X96695196Y-92323773D01*
X96689235Y-92347572D01*
X96680970Y-92370671D01*
X96670480Y-92392850D01*
X96657868Y-92413893D01*
X96643253Y-92433599D01*
X96626777Y-92451777D01*
X96608599Y-92468253D01*
X96588893Y-92482868D01*
X96567850Y-92495480D01*
X96545671Y-92505970D01*
X96522572Y-92514235D01*
X96498773Y-92520196D01*
X96474505Y-92523796D01*
X96450001Y-92525000D01*
X95549999Y-92525000D01*
X95525495Y-92523796D01*
X95501227Y-92520196D01*
X95477428Y-92514235D01*
X95454329Y-92505970D01*
X95432150Y-92495480D01*
X95411107Y-92482868D01*
X95391401Y-92468253D01*
X95373223Y-92451777D01*
X95356747Y-92433599D01*
X95342132Y-92413893D01*
X95329520Y-92392850D01*
X95319030Y-92370671D01*
X95310765Y-92347572D01*
X95304804Y-92323773D01*
X95301204Y-92299505D01*
X95300000Y-92275001D01*
X95300000Y-91624999D01*
X95301204Y-91600495D01*
X95304804Y-91576227D01*
X95310765Y-91552428D01*
X95319030Y-91529329D01*
X95329520Y-91507150D01*
X95342132Y-91486107D01*
X95356747Y-91466401D01*
X95373223Y-91448223D01*
X95391401Y-91431747D01*
X95411107Y-91417132D01*
X95432150Y-91404520D01*
X95454329Y-91394030D01*
X95477428Y-91385765D01*
X95501227Y-91379804D01*
X95525495Y-91376204D01*
X95549999Y-91375000D01*
X96450001Y-91375000D01*
X96474505Y-91376204D01*
X96474505Y-91376204D01*
G37*
D15*
X96000000Y-91950000D03*
G04 #@! TD*
D12*
G04 #@! TO.C,R3*
G36*
X96974505Y-68451204D02*
X96998773Y-68454804D01*
X97022572Y-68460765D01*
X97045671Y-68469030D01*
X97067850Y-68479520D01*
X97088893Y-68492132D01*
X97108599Y-68506747D01*
X97126777Y-68523223D01*
X97143253Y-68541401D01*
X97157868Y-68561107D01*
X97170480Y-68582150D01*
X97180970Y-68604329D01*
X97189235Y-68627428D01*
X97195196Y-68651227D01*
X97198796Y-68675495D01*
X97200000Y-68699999D01*
X97200000Y-69350001D01*
X97198796Y-69374505D01*
X97195196Y-69398773D01*
X97189235Y-69422572D01*
X97180970Y-69445671D01*
X97170480Y-69467850D01*
X97157868Y-69488893D01*
X97143253Y-69508599D01*
X97126777Y-69526777D01*
X97108599Y-69543253D01*
X97088893Y-69557868D01*
X97067850Y-69570480D01*
X97045671Y-69580970D01*
X97022572Y-69589235D01*
X96998773Y-69595196D01*
X96974505Y-69598796D01*
X96950001Y-69600000D01*
X96049999Y-69600000D01*
X96025495Y-69598796D01*
X96001227Y-69595196D01*
X95977428Y-69589235D01*
X95954329Y-69580970D01*
X95932150Y-69570480D01*
X95911107Y-69557868D01*
X95891401Y-69543253D01*
X95873223Y-69526777D01*
X95856747Y-69508599D01*
X95842132Y-69488893D01*
X95829520Y-69467850D01*
X95819030Y-69445671D01*
X95810765Y-69422572D01*
X95804804Y-69398773D01*
X95801204Y-69374505D01*
X95800000Y-69350001D01*
X95800000Y-68699999D01*
X95801204Y-68675495D01*
X95804804Y-68651227D01*
X95810765Y-68627428D01*
X95819030Y-68604329D01*
X95829520Y-68582150D01*
X95842132Y-68561107D01*
X95856747Y-68541401D01*
X95873223Y-68523223D01*
X95891401Y-68506747D01*
X95911107Y-68492132D01*
X95932150Y-68479520D01*
X95954329Y-68469030D01*
X95977428Y-68460765D01*
X96001227Y-68454804D01*
X96025495Y-68451204D01*
X96049999Y-68450000D01*
X96950001Y-68450000D01*
X96974505Y-68451204D01*
X96974505Y-68451204D01*
G37*
D15*
X96500000Y-69025000D03*
D12*
G36*
X96974505Y-66401204D02*
X96998773Y-66404804D01*
X97022572Y-66410765D01*
X97045671Y-66419030D01*
X97067850Y-66429520D01*
X97088893Y-66442132D01*
X97108599Y-66456747D01*
X97126777Y-66473223D01*
X97143253Y-66491401D01*
X97157868Y-66511107D01*
X97170480Y-66532150D01*
X97180970Y-66554329D01*
X97189235Y-66577428D01*
X97195196Y-66601227D01*
X97198796Y-66625495D01*
X97200000Y-66649999D01*
X97200000Y-67300001D01*
X97198796Y-67324505D01*
X97195196Y-67348773D01*
X97189235Y-67372572D01*
X97180970Y-67395671D01*
X97170480Y-67417850D01*
X97157868Y-67438893D01*
X97143253Y-67458599D01*
X97126777Y-67476777D01*
X97108599Y-67493253D01*
X97088893Y-67507868D01*
X97067850Y-67520480D01*
X97045671Y-67530970D01*
X97022572Y-67539235D01*
X96998773Y-67545196D01*
X96974505Y-67548796D01*
X96950001Y-67550000D01*
X96049999Y-67550000D01*
X96025495Y-67548796D01*
X96001227Y-67545196D01*
X95977428Y-67539235D01*
X95954329Y-67530970D01*
X95932150Y-67520480D01*
X95911107Y-67507868D01*
X95891401Y-67493253D01*
X95873223Y-67476777D01*
X95856747Y-67458599D01*
X95842132Y-67438893D01*
X95829520Y-67417850D01*
X95819030Y-67395671D01*
X95810765Y-67372572D01*
X95804804Y-67348773D01*
X95801204Y-67324505D01*
X95800000Y-67300001D01*
X95800000Y-66649999D01*
X95801204Y-66625495D01*
X95804804Y-66601227D01*
X95810765Y-66577428D01*
X95819030Y-66554329D01*
X95829520Y-66532150D01*
X95842132Y-66511107D01*
X95856747Y-66491401D01*
X95873223Y-66473223D01*
X95891401Y-66456747D01*
X95911107Y-66442132D01*
X95932150Y-66429520D01*
X95954329Y-66419030D01*
X95977428Y-66410765D01*
X96001227Y-66404804D01*
X96025495Y-66401204D01*
X96049999Y-66400000D01*
X96950001Y-66400000D01*
X96974505Y-66401204D01*
X96974505Y-66401204D01*
G37*
D15*
X96500000Y-66975000D03*
G04 #@! TD*
D12*
G04 #@! TO.C,R4*
G36*
X98474505Y-91376204D02*
X98498773Y-91379804D01*
X98522572Y-91385765D01*
X98545671Y-91394030D01*
X98567850Y-91404520D01*
X98588893Y-91417132D01*
X98608599Y-91431747D01*
X98626777Y-91448223D01*
X98643253Y-91466401D01*
X98657868Y-91486107D01*
X98670480Y-91507150D01*
X98680970Y-91529329D01*
X98689235Y-91552428D01*
X98695196Y-91576227D01*
X98698796Y-91600495D01*
X98700000Y-91624999D01*
X98700000Y-92275001D01*
X98698796Y-92299505D01*
X98695196Y-92323773D01*
X98689235Y-92347572D01*
X98680970Y-92370671D01*
X98670480Y-92392850D01*
X98657868Y-92413893D01*
X98643253Y-92433599D01*
X98626777Y-92451777D01*
X98608599Y-92468253D01*
X98588893Y-92482868D01*
X98567850Y-92495480D01*
X98545671Y-92505970D01*
X98522572Y-92514235D01*
X98498773Y-92520196D01*
X98474505Y-92523796D01*
X98450001Y-92525000D01*
X97549999Y-92525000D01*
X97525495Y-92523796D01*
X97501227Y-92520196D01*
X97477428Y-92514235D01*
X97454329Y-92505970D01*
X97432150Y-92495480D01*
X97411107Y-92482868D01*
X97391401Y-92468253D01*
X97373223Y-92451777D01*
X97356747Y-92433599D01*
X97342132Y-92413893D01*
X97329520Y-92392850D01*
X97319030Y-92370671D01*
X97310765Y-92347572D01*
X97304804Y-92323773D01*
X97301204Y-92299505D01*
X97300000Y-92275001D01*
X97300000Y-91624999D01*
X97301204Y-91600495D01*
X97304804Y-91576227D01*
X97310765Y-91552428D01*
X97319030Y-91529329D01*
X97329520Y-91507150D01*
X97342132Y-91486107D01*
X97356747Y-91466401D01*
X97373223Y-91448223D01*
X97391401Y-91431747D01*
X97411107Y-91417132D01*
X97432150Y-91404520D01*
X97454329Y-91394030D01*
X97477428Y-91385765D01*
X97501227Y-91379804D01*
X97525495Y-91376204D01*
X97549999Y-91375000D01*
X98450001Y-91375000D01*
X98474505Y-91376204D01*
X98474505Y-91376204D01*
G37*
D15*
X98000000Y-91950000D03*
D12*
G36*
X98474505Y-93426204D02*
X98498773Y-93429804D01*
X98522572Y-93435765D01*
X98545671Y-93444030D01*
X98567850Y-93454520D01*
X98588893Y-93467132D01*
X98608599Y-93481747D01*
X98626777Y-93498223D01*
X98643253Y-93516401D01*
X98657868Y-93536107D01*
X98670480Y-93557150D01*
X98680970Y-93579329D01*
X98689235Y-93602428D01*
X98695196Y-93626227D01*
X98698796Y-93650495D01*
X98700000Y-93674999D01*
X98700000Y-94325001D01*
X98698796Y-94349505D01*
X98695196Y-94373773D01*
X98689235Y-94397572D01*
X98680970Y-94420671D01*
X98670480Y-94442850D01*
X98657868Y-94463893D01*
X98643253Y-94483599D01*
X98626777Y-94501777D01*
X98608599Y-94518253D01*
X98588893Y-94532868D01*
X98567850Y-94545480D01*
X98545671Y-94555970D01*
X98522572Y-94564235D01*
X98498773Y-94570196D01*
X98474505Y-94573796D01*
X98450001Y-94575000D01*
X97549999Y-94575000D01*
X97525495Y-94573796D01*
X97501227Y-94570196D01*
X97477428Y-94564235D01*
X97454329Y-94555970D01*
X97432150Y-94545480D01*
X97411107Y-94532868D01*
X97391401Y-94518253D01*
X97373223Y-94501777D01*
X97356747Y-94483599D01*
X97342132Y-94463893D01*
X97329520Y-94442850D01*
X97319030Y-94420671D01*
X97310765Y-94397572D01*
X97304804Y-94373773D01*
X97301204Y-94349505D01*
X97300000Y-94325001D01*
X97300000Y-93674999D01*
X97301204Y-93650495D01*
X97304804Y-93626227D01*
X97310765Y-93602428D01*
X97319030Y-93579329D01*
X97329520Y-93557150D01*
X97342132Y-93536107D01*
X97356747Y-93516401D01*
X97373223Y-93498223D01*
X97391401Y-93481747D01*
X97411107Y-93467132D01*
X97432150Y-93454520D01*
X97454329Y-93444030D01*
X97477428Y-93435765D01*
X97501227Y-93429804D01*
X97525495Y-93426204D01*
X97549999Y-93425000D01*
X98450001Y-93425000D01*
X98474505Y-93426204D01*
X98474505Y-93426204D01*
G37*
D15*
X98000000Y-94000000D03*
G04 #@! TD*
D12*
G04 #@! TO.C,R5*
G36*
X107974505Y-66401204D02*
X107998773Y-66404804D01*
X108022572Y-66410765D01*
X108045671Y-66419030D01*
X108067850Y-66429520D01*
X108088893Y-66442132D01*
X108108599Y-66456747D01*
X108126777Y-66473223D01*
X108143253Y-66491401D01*
X108157868Y-66511107D01*
X108170480Y-66532150D01*
X108180970Y-66554329D01*
X108189235Y-66577428D01*
X108195196Y-66601227D01*
X108198796Y-66625495D01*
X108200000Y-66649999D01*
X108200000Y-67300001D01*
X108198796Y-67324505D01*
X108195196Y-67348773D01*
X108189235Y-67372572D01*
X108180970Y-67395671D01*
X108170480Y-67417850D01*
X108157868Y-67438893D01*
X108143253Y-67458599D01*
X108126777Y-67476777D01*
X108108599Y-67493253D01*
X108088893Y-67507868D01*
X108067850Y-67520480D01*
X108045671Y-67530970D01*
X108022572Y-67539235D01*
X107998773Y-67545196D01*
X107974505Y-67548796D01*
X107950001Y-67550000D01*
X107049999Y-67550000D01*
X107025495Y-67548796D01*
X107001227Y-67545196D01*
X106977428Y-67539235D01*
X106954329Y-67530970D01*
X106932150Y-67520480D01*
X106911107Y-67507868D01*
X106891401Y-67493253D01*
X106873223Y-67476777D01*
X106856747Y-67458599D01*
X106842132Y-67438893D01*
X106829520Y-67417850D01*
X106819030Y-67395671D01*
X106810765Y-67372572D01*
X106804804Y-67348773D01*
X106801204Y-67324505D01*
X106800000Y-67300001D01*
X106800000Y-66649999D01*
X106801204Y-66625495D01*
X106804804Y-66601227D01*
X106810765Y-66577428D01*
X106819030Y-66554329D01*
X106829520Y-66532150D01*
X106842132Y-66511107D01*
X106856747Y-66491401D01*
X106873223Y-66473223D01*
X106891401Y-66456747D01*
X106911107Y-66442132D01*
X106932150Y-66429520D01*
X106954329Y-66419030D01*
X106977428Y-66410765D01*
X107001227Y-66404804D01*
X107025495Y-66401204D01*
X107049999Y-66400000D01*
X107950001Y-66400000D01*
X107974505Y-66401204D01*
X107974505Y-66401204D01*
G37*
D15*
X107500000Y-66975000D03*
D12*
G36*
X107974505Y-68451204D02*
X107998773Y-68454804D01*
X108022572Y-68460765D01*
X108045671Y-68469030D01*
X108067850Y-68479520D01*
X108088893Y-68492132D01*
X108108599Y-68506747D01*
X108126777Y-68523223D01*
X108143253Y-68541401D01*
X108157868Y-68561107D01*
X108170480Y-68582150D01*
X108180970Y-68604329D01*
X108189235Y-68627428D01*
X108195196Y-68651227D01*
X108198796Y-68675495D01*
X108200000Y-68699999D01*
X108200000Y-69350001D01*
X108198796Y-69374505D01*
X108195196Y-69398773D01*
X108189235Y-69422572D01*
X108180970Y-69445671D01*
X108170480Y-69467850D01*
X108157868Y-69488893D01*
X108143253Y-69508599D01*
X108126777Y-69526777D01*
X108108599Y-69543253D01*
X108088893Y-69557868D01*
X108067850Y-69570480D01*
X108045671Y-69580970D01*
X108022572Y-69589235D01*
X107998773Y-69595196D01*
X107974505Y-69598796D01*
X107950001Y-69600000D01*
X107049999Y-69600000D01*
X107025495Y-69598796D01*
X107001227Y-69595196D01*
X106977428Y-69589235D01*
X106954329Y-69580970D01*
X106932150Y-69570480D01*
X106911107Y-69557868D01*
X106891401Y-69543253D01*
X106873223Y-69526777D01*
X106856747Y-69508599D01*
X106842132Y-69488893D01*
X106829520Y-69467850D01*
X106819030Y-69445671D01*
X106810765Y-69422572D01*
X106804804Y-69398773D01*
X106801204Y-69374505D01*
X106800000Y-69350001D01*
X106800000Y-68699999D01*
X106801204Y-68675495D01*
X106804804Y-68651227D01*
X106810765Y-68627428D01*
X106819030Y-68604329D01*
X106829520Y-68582150D01*
X106842132Y-68561107D01*
X106856747Y-68541401D01*
X106873223Y-68523223D01*
X106891401Y-68506747D01*
X106911107Y-68492132D01*
X106932150Y-68479520D01*
X106954329Y-68469030D01*
X106977428Y-68460765D01*
X107001227Y-68454804D01*
X107025495Y-68451204D01*
X107049999Y-68450000D01*
X107950001Y-68450000D01*
X107974505Y-68451204D01*
X107974505Y-68451204D01*
G37*
D15*
X107500000Y-69025000D03*
G04 #@! TD*
D12*
G04 #@! TO.C,R6*
G36*
X106474505Y-91376204D02*
X106498773Y-91379804D01*
X106522572Y-91385765D01*
X106545671Y-91394030D01*
X106567850Y-91404520D01*
X106588893Y-91417132D01*
X106608599Y-91431747D01*
X106626777Y-91448223D01*
X106643253Y-91466401D01*
X106657868Y-91486107D01*
X106670480Y-91507150D01*
X106680970Y-91529329D01*
X106689235Y-91552428D01*
X106695196Y-91576227D01*
X106698796Y-91600495D01*
X106700000Y-91624999D01*
X106700000Y-92275001D01*
X106698796Y-92299505D01*
X106695196Y-92323773D01*
X106689235Y-92347572D01*
X106680970Y-92370671D01*
X106670480Y-92392850D01*
X106657868Y-92413893D01*
X106643253Y-92433599D01*
X106626777Y-92451777D01*
X106608599Y-92468253D01*
X106588893Y-92482868D01*
X106567850Y-92495480D01*
X106545671Y-92505970D01*
X106522572Y-92514235D01*
X106498773Y-92520196D01*
X106474505Y-92523796D01*
X106450001Y-92525000D01*
X105549999Y-92525000D01*
X105525495Y-92523796D01*
X105501227Y-92520196D01*
X105477428Y-92514235D01*
X105454329Y-92505970D01*
X105432150Y-92495480D01*
X105411107Y-92482868D01*
X105391401Y-92468253D01*
X105373223Y-92451777D01*
X105356747Y-92433599D01*
X105342132Y-92413893D01*
X105329520Y-92392850D01*
X105319030Y-92370671D01*
X105310765Y-92347572D01*
X105304804Y-92323773D01*
X105301204Y-92299505D01*
X105300000Y-92275001D01*
X105300000Y-91624999D01*
X105301204Y-91600495D01*
X105304804Y-91576227D01*
X105310765Y-91552428D01*
X105319030Y-91529329D01*
X105329520Y-91507150D01*
X105342132Y-91486107D01*
X105356747Y-91466401D01*
X105373223Y-91448223D01*
X105391401Y-91431747D01*
X105411107Y-91417132D01*
X105432150Y-91404520D01*
X105454329Y-91394030D01*
X105477428Y-91385765D01*
X105501227Y-91379804D01*
X105525495Y-91376204D01*
X105549999Y-91375000D01*
X106450001Y-91375000D01*
X106474505Y-91376204D01*
X106474505Y-91376204D01*
G37*
D15*
X106000000Y-91950000D03*
D12*
G36*
X106474505Y-93426204D02*
X106498773Y-93429804D01*
X106522572Y-93435765D01*
X106545671Y-93444030D01*
X106567850Y-93454520D01*
X106588893Y-93467132D01*
X106608599Y-93481747D01*
X106626777Y-93498223D01*
X106643253Y-93516401D01*
X106657868Y-93536107D01*
X106670480Y-93557150D01*
X106680970Y-93579329D01*
X106689235Y-93602428D01*
X106695196Y-93626227D01*
X106698796Y-93650495D01*
X106700000Y-93674999D01*
X106700000Y-94325001D01*
X106698796Y-94349505D01*
X106695196Y-94373773D01*
X106689235Y-94397572D01*
X106680970Y-94420671D01*
X106670480Y-94442850D01*
X106657868Y-94463893D01*
X106643253Y-94483599D01*
X106626777Y-94501777D01*
X106608599Y-94518253D01*
X106588893Y-94532868D01*
X106567850Y-94545480D01*
X106545671Y-94555970D01*
X106522572Y-94564235D01*
X106498773Y-94570196D01*
X106474505Y-94573796D01*
X106450001Y-94575000D01*
X105549999Y-94575000D01*
X105525495Y-94573796D01*
X105501227Y-94570196D01*
X105477428Y-94564235D01*
X105454329Y-94555970D01*
X105432150Y-94545480D01*
X105411107Y-94532868D01*
X105391401Y-94518253D01*
X105373223Y-94501777D01*
X105356747Y-94483599D01*
X105342132Y-94463893D01*
X105329520Y-94442850D01*
X105319030Y-94420671D01*
X105310765Y-94397572D01*
X105304804Y-94373773D01*
X105301204Y-94349505D01*
X105300000Y-94325001D01*
X105300000Y-93674999D01*
X105301204Y-93650495D01*
X105304804Y-93626227D01*
X105310765Y-93602428D01*
X105319030Y-93579329D01*
X105329520Y-93557150D01*
X105342132Y-93536107D01*
X105356747Y-93516401D01*
X105373223Y-93498223D01*
X105391401Y-93481747D01*
X105411107Y-93467132D01*
X105432150Y-93454520D01*
X105454329Y-93444030D01*
X105477428Y-93435765D01*
X105501227Y-93429804D01*
X105525495Y-93426204D01*
X105549999Y-93425000D01*
X106450001Y-93425000D01*
X106474505Y-93426204D01*
X106474505Y-93426204D01*
G37*
D15*
X106000000Y-94000000D03*
G04 #@! TD*
D12*
G04 #@! TO.C,R7*
G36*
X111474505Y-68451204D02*
X111498773Y-68454804D01*
X111522572Y-68460765D01*
X111545671Y-68469030D01*
X111567850Y-68479520D01*
X111588893Y-68492132D01*
X111608599Y-68506747D01*
X111626777Y-68523223D01*
X111643253Y-68541401D01*
X111657868Y-68561107D01*
X111670480Y-68582150D01*
X111680970Y-68604329D01*
X111689235Y-68627428D01*
X111695196Y-68651227D01*
X111698796Y-68675495D01*
X111700000Y-68699999D01*
X111700000Y-69350001D01*
X111698796Y-69374505D01*
X111695196Y-69398773D01*
X111689235Y-69422572D01*
X111680970Y-69445671D01*
X111670480Y-69467850D01*
X111657868Y-69488893D01*
X111643253Y-69508599D01*
X111626777Y-69526777D01*
X111608599Y-69543253D01*
X111588893Y-69557868D01*
X111567850Y-69570480D01*
X111545671Y-69580970D01*
X111522572Y-69589235D01*
X111498773Y-69595196D01*
X111474505Y-69598796D01*
X111450001Y-69600000D01*
X110549999Y-69600000D01*
X110525495Y-69598796D01*
X110501227Y-69595196D01*
X110477428Y-69589235D01*
X110454329Y-69580970D01*
X110432150Y-69570480D01*
X110411107Y-69557868D01*
X110391401Y-69543253D01*
X110373223Y-69526777D01*
X110356747Y-69508599D01*
X110342132Y-69488893D01*
X110329520Y-69467850D01*
X110319030Y-69445671D01*
X110310765Y-69422572D01*
X110304804Y-69398773D01*
X110301204Y-69374505D01*
X110300000Y-69350001D01*
X110300000Y-68699999D01*
X110301204Y-68675495D01*
X110304804Y-68651227D01*
X110310765Y-68627428D01*
X110319030Y-68604329D01*
X110329520Y-68582150D01*
X110342132Y-68561107D01*
X110356747Y-68541401D01*
X110373223Y-68523223D01*
X110391401Y-68506747D01*
X110411107Y-68492132D01*
X110432150Y-68479520D01*
X110454329Y-68469030D01*
X110477428Y-68460765D01*
X110501227Y-68454804D01*
X110525495Y-68451204D01*
X110549999Y-68450000D01*
X111450001Y-68450000D01*
X111474505Y-68451204D01*
X111474505Y-68451204D01*
G37*
D15*
X111000000Y-69025000D03*
D12*
G36*
X111474505Y-66401204D02*
X111498773Y-66404804D01*
X111522572Y-66410765D01*
X111545671Y-66419030D01*
X111567850Y-66429520D01*
X111588893Y-66442132D01*
X111608599Y-66456747D01*
X111626777Y-66473223D01*
X111643253Y-66491401D01*
X111657868Y-66511107D01*
X111670480Y-66532150D01*
X111680970Y-66554329D01*
X111689235Y-66577428D01*
X111695196Y-66601227D01*
X111698796Y-66625495D01*
X111700000Y-66649999D01*
X111700000Y-67300001D01*
X111698796Y-67324505D01*
X111695196Y-67348773D01*
X111689235Y-67372572D01*
X111680970Y-67395671D01*
X111670480Y-67417850D01*
X111657868Y-67438893D01*
X111643253Y-67458599D01*
X111626777Y-67476777D01*
X111608599Y-67493253D01*
X111588893Y-67507868D01*
X111567850Y-67520480D01*
X111545671Y-67530970D01*
X111522572Y-67539235D01*
X111498773Y-67545196D01*
X111474505Y-67548796D01*
X111450001Y-67550000D01*
X110549999Y-67550000D01*
X110525495Y-67548796D01*
X110501227Y-67545196D01*
X110477428Y-67539235D01*
X110454329Y-67530970D01*
X110432150Y-67520480D01*
X110411107Y-67507868D01*
X110391401Y-67493253D01*
X110373223Y-67476777D01*
X110356747Y-67458599D01*
X110342132Y-67438893D01*
X110329520Y-67417850D01*
X110319030Y-67395671D01*
X110310765Y-67372572D01*
X110304804Y-67348773D01*
X110301204Y-67324505D01*
X110300000Y-67300001D01*
X110300000Y-66649999D01*
X110301204Y-66625495D01*
X110304804Y-66601227D01*
X110310765Y-66577428D01*
X110319030Y-66554329D01*
X110329520Y-66532150D01*
X110342132Y-66511107D01*
X110356747Y-66491401D01*
X110373223Y-66473223D01*
X110391401Y-66456747D01*
X110411107Y-66442132D01*
X110432150Y-66429520D01*
X110454329Y-66419030D01*
X110477428Y-66410765D01*
X110501227Y-66404804D01*
X110525495Y-66401204D01*
X110549999Y-66400000D01*
X111450001Y-66400000D01*
X111474505Y-66401204D01*
X111474505Y-66401204D01*
G37*
D15*
X111000000Y-66975000D03*
G04 #@! TD*
D12*
G04 #@! TO.C,R8*
G36*
X108974505Y-93426204D02*
X108998773Y-93429804D01*
X109022572Y-93435765D01*
X109045671Y-93444030D01*
X109067850Y-93454520D01*
X109088893Y-93467132D01*
X109108599Y-93481747D01*
X109126777Y-93498223D01*
X109143253Y-93516401D01*
X109157868Y-93536107D01*
X109170480Y-93557150D01*
X109180970Y-93579329D01*
X109189235Y-93602428D01*
X109195196Y-93626227D01*
X109198796Y-93650495D01*
X109200000Y-93674999D01*
X109200000Y-94325001D01*
X109198796Y-94349505D01*
X109195196Y-94373773D01*
X109189235Y-94397572D01*
X109180970Y-94420671D01*
X109170480Y-94442850D01*
X109157868Y-94463893D01*
X109143253Y-94483599D01*
X109126777Y-94501777D01*
X109108599Y-94518253D01*
X109088893Y-94532868D01*
X109067850Y-94545480D01*
X109045671Y-94555970D01*
X109022572Y-94564235D01*
X108998773Y-94570196D01*
X108974505Y-94573796D01*
X108950001Y-94575000D01*
X108049999Y-94575000D01*
X108025495Y-94573796D01*
X108001227Y-94570196D01*
X107977428Y-94564235D01*
X107954329Y-94555970D01*
X107932150Y-94545480D01*
X107911107Y-94532868D01*
X107891401Y-94518253D01*
X107873223Y-94501777D01*
X107856747Y-94483599D01*
X107842132Y-94463893D01*
X107829520Y-94442850D01*
X107819030Y-94420671D01*
X107810765Y-94397572D01*
X107804804Y-94373773D01*
X107801204Y-94349505D01*
X107800000Y-94325001D01*
X107800000Y-93674999D01*
X107801204Y-93650495D01*
X107804804Y-93626227D01*
X107810765Y-93602428D01*
X107819030Y-93579329D01*
X107829520Y-93557150D01*
X107842132Y-93536107D01*
X107856747Y-93516401D01*
X107873223Y-93498223D01*
X107891401Y-93481747D01*
X107911107Y-93467132D01*
X107932150Y-93454520D01*
X107954329Y-93444030D01*
X107977428Y-93435765D01*
X108001227Y-93429804D01*
X108025495Y-93426204D01*
X108049999Y-93425000D01*
X108950001Y-93425000D01*
X108974505Y-93426204D01*
X108974505Y-93426204D01*
G37*
D15*
X108500000Y-94000000D03*
D12*
G36*
X108974505Y-91376204D02*
X108998773Y-91379804D01*
X109022572Y-91385765D01*
X109045671Y-91394030D01*
X109067850Y-91404520D01*
X109088893Y-91417132D01*
X109108599Y-91431747D01*
X109126777Y-91448223D01*
X109143253Y-91466401D01*
X109157868Y-91486107D01*
X109170480Y-91507150D01*
X109180970Y-91529329D01*
X109189235Y-91552428D01*
X109195196Y-91576227D01*
X109198796Y-91600495D01*
X109200000Y-91624999D01*
X109200000Y-92275001D01*
X109198796Y-92299505D01*
X109195196Y-92323773D01*
X109189235Y-92347572D01*
X109180970Y-92370671D01*
X109170480Y-92392850D01*
X109157868Y-92413893D01*
X109143253Y-92433599D01*
X109126777Y-92451777D01*
X109108599Y-92468253D01*
X109088893Y-92482868D01*
X109067850Y-92495480D01*
X109045671Y-92505970D01*
X109022572Y-92514235D01*
X108998773Y-92520196D01*
X108974505Y-92523796D01*
X108950001Y-92525000D01*
X108049999Y-92525000D01*
X108025495Y-92523796D01*
X108001227Y-92520196D01*
X107977428Y-92514235D01*
X107954329Y-92505970D01*
X107932150Y-92495480D01*
X107911107Y-92482868D01*
X107891401Y-92468253D01*
X107873223Y-92451777D01*
X107856747Y-92433599D01*
X107842132Y-92413893D01*
X107829520Y-92392850D01*
X107819030Y-92370671D01*
X107810765Y-92347572D01*
X107804804Y-92323773D01*
X107801204Y-92299505D01*
X107800000Y-92275001D01*
X107800000Y-91624999D01*
X107801204Y-91600495D01*
X107804804Y-91576227D01*
X107810765Y-91552428D01*
X107819030Y-91529329D01*
X107829520Y-91507150D01*
X107842132Y-91486107D01*
X107856747Y-91466401D01*
X107873223Y-91448223D01*
X107891401Y-91431747D01*
X107911107Y-91417132D01*
X107932150Y-91404520D01*
X107954329Y-91394030D01*
X107977428Y-91385765D01*
X108001227Y-91379804D01*
X108025495Y-91376204D01*
X108049999Y-91375000D01*
X108950001Y-91375000D01*
X108974505Y-91376204D01*
X108974505Y-91376204D01*
G37*
D15*
X108500000Y-91950000D03*
G04 #@! TD*
D12*
G04 #@! TO.C,R9*
G36*
X100474505Y-68451204D02*
X100498773Y-68454804D01*
X100522572Y-68460765D01*
X100545671Y-68469030D01*
X100567850Y-68479520D01*
X100588893Y-68492132D01*
X100608599Y-68506747D01*
X100626777Y-68523223D01*
X100643253Y-68541401D01*
X100657868Y-68561107D01*
X100670480Y-68582150D01*
X100680970Y-68604329D01*
X100689235Y-68627428D01*
X100695196Y-68651227D01*
X100698796Y-68675495D01*
X100700000Y-68699999D01*
X100700000Y-69350001D01*
X100698796Y-69374505D01*
X100695196Y-69398773D01*
X100689235Y-69422572D01*
X100680970Y-69445671D01*
X100670480Y-69467850D01*
X100657868Y-69488893D01*
X100643253Y-69508599D01*
X100626777Y-69526777D01*
X100608599Y-69543253D01*
X100588893Y-69557868D01*
X100567850Y-69570480D01*
X100545671Y-69580970D01*
X100522572Y-69589235D01*
X100498773Y-69595196D01*
X100474505Y-69598796D01*
X100450001Y-69600000D01*
X99549999Y-69600000D01*
X99525495Y-69598796D01*
X99501227Y-69595196D01*
X99477428Y-69589235D01*
X99454329Y-69580970D01*
X99432150Y-69570480D01*
X99411107Y-69557868D01*
X99391401Y-69543253D01*
X99373223Y-69526777D01*
X99356747Y-69508599D01*
X99342132Y-69488893D01*
X99329520Y-69467850D01*
X99319030Y-69445671D01*
X99310765Y-69422572D01*
X99304804Y-69398773D01*
X99301204Y-69374505D01*
X99300000Y-69350001D01*
X99300000Y-68699999D01*
X99301204Y-68675495D01*
X99304804Y-68651227D01*
X99310765Y-68627428D01*
X99319030Y-68604329D01*
X99329520Y-68582150D01*
X99342132Y-68561107D01*
X99356747Y-68541401D01*
X99373223Y-68523223D01*
X99391401Y-68506747D01*
X99411107Y-68492132D01*
X99432150Y-68479520D01*
X99454329Y-68469030D01*
X99477428Y-68460765D01*
X99501227Y-68454804D01*
X99525495Y-68451204D01*
X99549999Y-68450000D01*
X100450001Y-68450000D01*
X100474505Y-68451204D01*
X100474505Y-68451204D01*
G37*
D15*
X100000000Y-69025000D03*
D12*
G36*
X100474505Y-66401204D02*
X100498773Y-66404804D01*
X100522572Y-66410765D01*
X100545671Y-66419030D01*
X100567850Y-66429520D01*
X100588893Y-66442132D01*
X100608599Y-66456747D01*
X100626777Y-66473223D01*
X100643253Y-66491401D01*
X100657868Y-66511107D01*
X100670480Y-66532150D01*
X100680970Y-66554329D01*
X100689235Y-66577428D01*
X100695196Y-66601227D01*
X100698796Y-66625495D01*
X100700000Y-66649999D01*
X100700000Y-67300001D01*
X100698796Y-67324505D01*
X100695196Y-67348773D01*
X100689235Y-67372572D01*
X100680970Y-67395671D01*
X100670480Y-67417850D01*
X100657868Y-67438893D01*
X100643253Y-67458599D01*
X100626777Y-67476777D01*
X100608599Y-67493253D01*
X100588893Y-67507868D01*
X100567850Y-67520480D01*
X100545671Y-67530970D01*
X100522572Y-67539235D01*
X100498773Y-67545196D01*
X100474505Y-67548796D01*
X100450001Y-67550000D01*
X99549999Y-67550000D01*
X99525495Y-67548796D01*
X99501227Y-67545196D01*
X99477428Y-67539235D01*
X99454329Y-67530970D01*
X99432150Y-67520480D01*
X99411107Y-67507868D01*
X99391401Y-67493253D01*
X99373223Y-67476777D01*
X99356747Y-67458599D01*
X99342132Y-67438893D01*
X99329520Y-67417850D01*
X99319030Y-67395671D01*
X99310765Y-67372572D01*
X99304804Y-67348773D01*
X99301204Y-67324505D01*
X99300000Y-67300001D01*
X99300000Y-66649999D01*
X99301204Y-66625495D01*
X99304804Y-66601227D01*
X99310765Y-66577428D01*
X99319030Y-66554329D01*
X99329520Y-66532150D01*
X99342132Y-66511107D01*
X99356747Y-66491401D01*
X99373223Y-66473223D01*
X99391401Y-66456747D01*
X99411107Y-66442132D01*
X99432150Y-66429520D01*
X99454329Y-66419030D01*
X99477428Y-66410765D01*
X99501227Y-66404804D01*
X99525495Y-66401204D01*
X99549999Y-66400000D01*
X100450001Y-66400000D01*
X100474505Y-66401204D01*
X100474505Y-66401204D01*
G37*
D15*
X100000000Y-66975000D03*
G04 #@! TD*
D12*
G04 #@! TO.C,R10*
G36*
X100974505Y-93426204D02*
X100998773Y-93429804D01*
X101022572Y-93435765D01*
X101045671Y-93444030D01*
X101067850Y-93454520D01*
X101088893Y-93467132D01*
X101108599Y-93481747D01*
X101126777Y-93498223D01*
X101143253Y-93516401D01*
X101157868Y-93536107D01*
X101170480Y-93557150D01*
X101180970Y-93579329D01*
X101189235Y-93602428D01*
X101195196Y-93626227D01*
X101198796Y-93650495D01*
X101200000Y-93674999D01*
X101200000Y-94325001D01*
X101198796Y-94349505D01*
X101195196Y-94373773D01*
X101189235Y-94397572D01*
X101180970Y-94420671D01*
X101170480Y-94442850D01*
X101157868Y-94463893D01*
X101143253Y-94483599D01*
X101126777Y-94501777D01*
X101108599Y-94518253D01*
X101088893Y-94532868D01*
X101067850Y-94545480D01*
X101045671Y-94555970D01*
X101022572Y-94564235D01*
X100998773Y-94570196D01*
X100974505Y-94573796D01*
X100950001Y-94575000D01*
X100049999Y-94575000D01*
X100025495Y-94573796D01*
X100001227Y-94570196D01*
X99977428Y-94564235D01*
X99954329Y-94555970D01*
X99932150Y-94545480D01*
X99911107Y-94532868D01*
X99891401Y-94518253D01*
X99873223Y-94501777D01*
X99856747Y-94483599D01*
X99842132Y-94463893D01*
X99829520Y-94442850D01*
X99819030Y-94420671D01*
X99810765Y-94397572D01*
X99804804Y-94373773D01*
X99801204Y-94349505D01*
X99800000Y-94325001D01*
X99800000Y-93674999D01*
X99801204Y-93650495D01*
X99804804Y-93626227D01*
X99810765Y-93602428D01*
X99819030Y-93579329D01*
X99829520Y-93557150D01*
X99842132Y-93536107D01*
X99856747Y-93516401D01*
X99873223Y-93498223D01*
X99891401Y-93481747D01*
X99911107Y-93467132D01*
X99932150Y-93454520D01*
X99954329Y-93444030D01*
X99977428Y-93435765D01*
X100001227Y-93429804D01*
X100025495Y-93426204D01*
X100049999Y-93425000D01*
X100950001Y-93425000D01*
X100974505Y-93426204D01*
X100974505Y-93426204D01*
G37*
D15*
X100500000Y-94000000D03*
D12*
G36*
X100974505Y-91376204D02*
X100998773Y-91379804D01*
X101022572Y-91385765D01*
X101045671Y-91394030D01*
X101067850Y-91404520D01*
X101088893Y-91417132D01*
X101108599Y-91431747D01*
X101126777Y-91448223D01*
X101143253Y-91466401D01*
X101157868Y-91486107D01*
X101170480Y-91507150D01*
X101180970Y-91529329D01*
X101189235Y-91552428D01*
X101195196Y-91576227D01*
X101198796Y-91600495D01*
X101200000Y-91624999D01*
X101200000Y-92275001D01*
X101198796Y-92299505D01*
X101195196Y-92323773D01*
X101189235Y-92347572D01*
X101180970Y-92370671D01*
X101170480Y-92392850D01*
X101157868Y-92413893D01*
X101143253Y-92433599D01*
X101126777Y-92451777D01*
X101108599Y-92468253D01*
X101088893Y-92482868D01*
X101067850Y-92495480D01*
X101045671Y-92505970D01*
X101022572Y-92514235D01*
X100998773Y-92520196D01*
X100974505Y-92523796D01*
X100950001Y-92525000D01*
X100049999Y-92525000D01*
X100025495Y-92523796D01*
X100001227Y-92520196D01*
X99977428Y-92514235D01*
X99954329Y-92505970D01*
X99932150Y-92495480D01*
X99911107Y-92482868D01*
X99891401Y-92468253D01*
X99873223Y-92451777D01*
X99856747Y-92433599D01*
X99842132Y-92413893D01*
X99829520Y-92392850D01*
X99819030Y-92370671D01*
X99810765Y-92347572D01*
X99804804Y-92323773D01*
X99801204Y-92299505D01*
X99800000Y-92275001D01*
X99800000Y-91624999D01*
X99801204Y-91600495D01*
X99804804Y-91576227D01*
X99810765Y-91552428D01*
X99819030Y-91529329D01*
X99829520Y-91507150D01*
X99842132Y-91486107D01*
X99856747Y-91466401D01*
X99873223Y-91448223D01*
X99891401Y-91431747D01*
X99911107Y-91417132D01*
X99932150Y-91404520D01*
X99954329Y-91394030D01*
X99977428Y-91385765D01*
X100001227Y-91379804D01*
X100025495Y-91376204D01*
X100049999Y-91375000D01*
X100950001Y-91375000D01*
X100974505Y-91376204D01*
X100974505Y-91376204D01*
G37*
D15*
X100500000Y-91950000D03*
G04 #@! TD*
D12*
G04 #@! TO.C,R11*
G36*
X104474505Y-66401204D02*
X104498773Y-66404804D01*
X104522572Y-66410765D01*
X104545671Y-66419030D01*
X104567850Y-66429520D01*
X104588893Y-66442132D01*
X104608599Y-66456747D01*
X104626777Y-66473223D01*
X104643253Y-66491401D01*
X104657868Y-66511107D01*
X104670480Y-66532150D01*
X104680970Y-66554329D01*
X104689235Y-66577428D01*
X104695196Y-66601227D01*
X104698796Y-66625495D01*
X104700000Y-66649999D01*
X104700000Y-67300001D01*
X104698796Y-67324505D01*
X104695196Y-67348773D01*
X104689235Y-67372572D01*
X104680970Y-67395671D01*
X104670480Y-67417850D01*
X104657868Y-67438893D01*
X104643253Y-67458599D01*
X104626777Y-67476777D01*
X104608599Y-67493253D01*
X104588893Y-67507868D01*
X104567850Y-67520480D01*
X104545671Y-67530970D01*
X104522572Y-67539235D01*
X104498773Y-67545196D01*
X104474505Y-67548796D01*
X104450001Y-67550000D01*
X103549999Y-67550000D01*
X103525495Y-67548796D01*
X103501227Y-67545196D01*
X103477428Y-67539235D01*
X103454329Y-67530970D01*
X103432150Y-67520480D01*
X103411107Y-67507868D01*
X103391401Y-67493253D01*
X103373223Y-67476777D01*
X103356747Y-67458599D01*
X103342132Y-67438893D01*
X103329520Y-67417850D01*
X103319030Y-67395671D01*
X103310765Y-67372572D01*
X103304804Y-67348773D01*
X103301204Y-67324505D01*
X103300000Y-67300001D01*
X103300000Y-66649999D01*
X103301204Y-66625495D01*
X103304804Y-66601227D01*
X103310765Y-66577428D01*
X103319030Y-66554329D01*
X103329520Y-66532150D01*
X103342132Y-66511107D01*
X103356747Y-66491401D01*
X103373223Y-66473223D01*
X103391401Y-66456747D01*
X103411107Y-66442132D01*
X103432150Y-66429520D01*
X103454329Y-66419030D01*
X103477428Y-66410765D01*
X103501227Y-66404804D01*
X103525495Y-66401204D01*
X103549999Y-66400000D01*
X104450001Y-66400000D01*
X104474505Y-66401204D01*
X104474505Y-66401204D01*
G37*
D15*
X104000000Y-66975000D03*
D12*
G36*
X104474505Y-68451204D02*
X104498773Y-68454804D01*
X104522572Y-68460765D01*
X104545671Y-68469030D01*
X104567850Y-68479520D01*
X104588893Y-68492132D01*
X104608599Y-68506747D01*
X104626777Y-68523223D01*
X104643253Y-68541401D01*
X104657868Y-68561107D01*
X104670480Y-68582150D01*
X104680970Y-68604329D01*
X104689235Y-68627428D01*
X104695196Y-68651227D01*
X104698796Y-68675495D01*
X104700000Y-68699999D01*
X104700000Y-69350001D01*
X104698796Y-69374505D01*
X104695196Y-69398773D01*
X104689235Y-69422572D01*
X104680970Y-69445671D01*
X104670480Y-69467850D01*
X104657868Y-69488893D01*
X104643253Y-69508599D01*
X104626777Y-69526777D01*
X104608599Y-69543253D01*
X104588893Y-69557868D01*
X104567850Y-69570480D01*
X104545671Y-69580970D01*
X104522572Y-69589235D01*
X104498773Y-69595196D01*
X104474505Y-69598796D01*
X104450001Y-69600000D01*
X103549999Y-69600000D01*
X103525495Y-69598796D01*
X103501227Y-69595196D01*
X103477428Y-69589235D01*
X103454329Y-69580970D01*
X103432150Y-69570480D01*
X103411107Y-69557868D01*
X103391401Y-69543253D01*
X103373223Y-69526777D01*
X103356747Y-69508599D01*
X103342132Y-69488893D01*
X103329520Y-69467850D01*
X103319030Y-69445671D01*
X103310765Y-69422572D01*
X103304804Y-69398773D01*
X103301204Y-69374505D01*
X103300000Y-69350001D01*
X103300000Y-68699999D01*
X103301204Y-68675495D01*
X103304804Y-68651227D01*
X103310765Y-68627428D01*
X103319030Y-68604329D01*
X103329520Y-68582150D01*
X103342132Y-68561107D01*
X103356747Y-68541401D01*
X103373223Y-68523223D01*
X103391401Y-68506747D01*
X103411107Y-68492132D01*
X103432150Y-68479520D01*
X103454329Y-68469030D01*
X103477428Y-68460765D01*
X103501227Y-68454804D01*
X103525495Y-68451204D01*
X103549999Y-68450000D01*
X104450001Y-68450000D01*
X104474505Y-68451204D01*
X104474505Y-68451204D01*
G37*
D15*
X104000000Y-69025000D03*
G04 #@! TD*
D12*
G04 #@! TO.C,R12*
G36*
X103974505Y-93426204D02*
X103998773Y-93429804D01*
X104022572Y-93435765D01*
X104045671Y-93444030D01*
X104067850Y-93454520D01*
X104088893Y-93467132D01*
X104108599Y-93481747D01*
X104126777Y-93498223D01*
X104143253Y-93516401D01*
X104157868Y-93536107D01*
X104170480Y-93557150D01*
X104180970Y-93579329D01*
X104189235Y-93602428D01*
X104195196Y-93626227D01*
X104198796Y-93650495D01*
X104200000Y-93674999D01*
X104200000Y-94325001D01*
X104198796Y-94349505D01*
X104195196Y-94373773D01*
X104189235Y-94397572D01*
X104180970Y-94420671D01*
X104170480Y-94442850D01*
X104157868Y-94463893D01*
X104143253Y-94483599D01*
X104126777Y-94501777D01*
X104108599Y-94518253D01*
X104088893Y-94532868D01*
X104067850Y-94545480D01*
X104045671Y-94555970D01*
X104022572Y-94564235D01*
X103998773Y-94570196D01*
X103974505Y-94573796D01*
X103950001Y-94575000D01*
X103049999Y-94575000D01*
X103025495Y-94573796D01*
X103001227Y-94570196D01*
X102977428Y-94564235D01*
X102954329Y-94555970D01*
X102932150Y-94545480D01*
X102911107Y-94532868D01*
X102891401Y-94518253D01*
X102873223Y-94501777D01*
X102856747Y-94483599D01*
X102842132Y-94463893D01*
X102829520Y-94442850D01*
X102819030Y-94420671D01*
X102810765Y-94397572D01*
X102804804Y-94373773D01*
X102801204Y-94349505D01*
X102800000Y-94325001D01*
X102800000Y-93674999D01*
X102801204Y-93650495D01*
X102804804Y-93626227D01*
X102810765Y-93602428D01*
X102819030Y-93579329D01*
X102829520Y-93557150D01*
X102842132Y-93536107D01*
X102856747Y-93516401D01*
X102873223Y-93498223D01*
X102891401Y-93481747D01*
X102911107Y-93467132D01*
X102932150Y-93454520D01*
X102954329Y-93444030D01*
X102977428Y-93435765D01*
X103001227Y-93429804D01*
X103025495Y-93426204D01*
X103049999Y-93425000D01*
X103950001Y-93425000D01*
X103974505Y-93426204D01*
X103974505Y-93426204D01*
G37*
D15*
X103500000Y-94000000D03*
D12*
G36*
X103974505Y-91376204D02*
X103998773Y-91379804D01*
X104022572Y-91385765D01*
X104045671Y-91394030D01*
X104067850Y-91404520D01*
X104088893Y-91417132D01*
X104108599Y-91431747D01*
X104126777Y-91448223D01*
X104143253Y-91466401D01*
X104157868Y-91486107D01*
X104170480Y-91507150D01*
X104180970Y-91529329D01*
X104189235Y-91552428D01*
X104195196Y-91576227D01*
X104198796Y-91600495D01*
X104200000Y-91624999D01*
X104200000Y-92275001D01*
X104198796Y-92299505D01*
X104195196Y-92323773D01*
X104189235Y-92347572D01*
X104180970Y-92370671D01*
X104170480Y-92392850D01*
X104157868Y-92413893D01*
X104143253Y-92433599D01*
X104126777Y-92451777D01*
X104108599Y-92468253D01*
X104088893Y-92482868D01*
X104067850Y-92495480D01*
X104045671Y-92505970D01*
X104022572Y-92514235D01*
X103998773Y-92520196D01*
X103974505Y-92523796D01*
X103950001Y-92525000D01*
X103049999Y-92525000D01*
X103025495Y-92523796D01*
X103001227Y-92520196D01*
X102977428Y-92514235D01*
X102954329Y-92505970D01*
X102932150Y-92495480D01*
X102911107Y-92482868D01*
X102891401Y-92468253D01*
X102873223Y-92451777D01*
X102856747Y-92433599D01*
X102842132Y-92413893D01*
X102829520Y-92392850D01*
X102819030Y-92370671D01*
X102810765Y-92347572D01*
X102804804Y-92323773D01*
X102801204Y-92299505D01*
X102800000Y-92275001D01*
X102800000Y-91624999D01*
X102801204Y-91600495D01*
X102804804Y-91576227D01*
X102810765Y-91552428D01*
X102819030Y-91529329D01*
X102829520Y-91507150D01*
X102842132Y-91486107D01*
X102856747Y-91466401D01*
X102873223Y-91448223D01*
X102891401Y-91431747D01*
X102911107Y-91417132D01*
X102932150Y-91404520D01*
X102954329Y-91394030D01*
X102977428Y-91385765D01*
X103001227Y-91379804D01*
X103025495Y-91376204D01*
X103049999Y-91375000D01*
X103950001Y-91375000D01*
X103974505Y-91376204D01*
X103974505Y-91376204D01*
G37*
D15*
X103500000Y-91950000D03*
G04 #@! TD*
D12*
G04 #@! TO.C,R13*
G36*
X101374505Y-88801204D02*
X101398773Y-88804804D01*
X101422572Y-88810765D01*
X101445671Y-88819030D01*
X101467850Y-88829520D01*
X101488893Y-88842132D01*
X101508599Y-88856747D01*
X101526777Y-88873223D01*
X101543253Y-88891401D01*
X101557868Y-88911107D01*
X101570480Y-88932150D01*
X101580970Y-88954329D01*
X101589235Y-88977428D01*
X101595196Y-89001227D01*
X101598796Y-89025495D01*
X101600000Y-89049999D01*
X101600000Y-89950001D01*
X101598796Y-89974505D01*
X101595196Y-89998773D01*
X101589235Y-90022572D01*
X101580970Y-90045671D01*
X101570480Y-90067850D01*
X101557868Y-90088893D01*
X101543253Y-90108599D01*
X101526777Y-90126777D01*
X101508599Y-90143253D01*
X101488893Y-90157868D01*
X101467850Y-90170480D01*
X101445671Y-90180970D01*
X101422572Y-90189235D01*
X101398773Y-90195196D01*
X101374505Y-90198796D01*
X101350001Y-90200000D01*
X100699999Y-90200000D01*
X100675495Y-90198796D01*
X100651227Y-90195196D01*
X100627428Y-90189235D01*
X100604329Y-90180970D01*
X100582150Y-90170480D01*
X100561107Y-90157868D01*
X100541401Y-90143253D01*
X100523223Y-90126777D01*
X100506747Y-90108599D01*
X100492132Y-90088893D01*
X100479520Y-90067850D01*
X100469030Y-90045671D01*
X100460765Y-90022572D01*
X100454804Y-89998773D01*
X100451204Y-89974505D01*
X100450000Y-89950001D01*
X100450000Y-89049999D01*
X100451204Y-89025495D01*
X100454804Y-89001227D01*
X100460765Y-88977428D01*
X100469030Y-88954329D01*
X100479520Y-88932150D01*
X100492132Y-88911107D01*
X100506747Y-88891401D01*
X100523223Y-88873223D01*
X100541401Y-88856747D01*
X100561107Y-88842132D01*
X100582150Y-88829520D01*
X100604329Y-88819030D01*
X100627428Y-88810765D01*
X100651227Y-88804804D01*
X100675495Y-88801204D01*
X100699999Y-88800000D01*
X101350001Y-88800000D01*
X101374505Y-88801204D01*
X101374505Y-88801204D01*
G37*
D15*
X101025000Y-89500000D03*
D12*
G36*
X99324505Y-88801204D02*
X99348773Y-88804804D01*
X99372572Y-88810765D01*
X99395671Y-88819030D01*
X99417850Y-88829520D01*
X99438893Y-88842132D01*
X99458599Y-88856747D01*
X99476777Y-88873223D01*
X99493253Y-88891401D01*
X99507868Y-88911107D01*
X99520480Y-88932150D01*
X99530970Y-88954329D01*
X99539235Y-88977428D01*
X99545196Y-89001227D01*
X99548796Y-89025495D01*
X99550000Y-89049999D01*
X99550000Y-89950001D01*
X99548796Y-89974505D01*
X99545196Y-89998773D01*
X99539235Y-90022572D01*
X99530970Y-90045671D01*
X99520480Y-90067850D01*
X99507868Y-90088893D01*
X99493253Y-90108599D01*
X99476777Y-90126777D01*
X99458599Y-90143253D01*
X99438893Y-90157868D01*
X99417850Y-90170480D01*
X99395671Y-90180970D01*
X99372572Y-90189235D01*
X99348773Y-90195196D01*
X99324505Y-90198796D01*
X99300001Y-90200000D01*
X98649999Y-90200000D01*
X98625495Y-90198796D01*
X98601227Y-90195196D01*
X98577428Y-90189235D01*
X98554329Y-90180970D01*
X98532150Y-90170480D01*
X98511107Y-90157868D01*
X98491401Y-90143253D01*
X98473223Y-90126777D01*
X98456747Y-90108599D01*
X98442132Y-90088893D01*
X98429520Y-90067850D01*
X98419030Y-90045671D01*
X98410765Y-90022572D01*
X98404804Y-89998773D01*
X98401204Y-89974505D01*
X98400000Y-89950001D01*
X98400000Y-89049999D01*
X98401204Y-89025495D01*
X98404804Y-89001227D01*
X98410765Y-88977428D01*
X98419030Y-88954329D01*
X98429520Y-88932150D01*
X98442132Y-88911107D01*
X98456747Y-88891401D01*
X98473223Y-88873223D01*
X98491401Y-88856747D01*
X98511107Y-88842132D01*
X98532150Y-88829520D01*
X98554329Y-88819030D01*
X98577428Y-88810765D01*
X98601227Y-88804804D01*
X98625495Y-88801204D01*
X98649999Y-88800000D01*
X99300001Y-88800000D01*
X99324505Y-88801204D01*
X99324505Y-88801204D01*
G37*
D15*
X98975000Y-89500000D03*
G04 #@! TD*
D12*
G04 #@! TO.C,R14*
G36*
X103324505Y-88801204D02*
X103348773Y-88804804D01*
X103372572Y-88810765D01*
X103395671Y-88819030D01*
X103417850Y-88829520D01*
X103438893Y-88842132D01*
X103458599Y-88856747D01*
X103476777Y-88873223D01*
X103493253Y-88891401D01*
X103507868Y-88911107D01*
X103520480Y-88932150D01*
X103530970Y-88954329D01*
X103539235Y-88977428D01*
X103545196Y-89001227D01*
X103548796Y-89025495D01*
X103550000Y-89049999D01*
X103550000Y-89950001D01*
X103548796Y-89974505D01*
X103545196Y-89998773D01*
X103539235Y-90022572D01*
X103530970Y-90045671D01*
X103520480Y-90067850D01*
X103507868Y-90088893D01*
X103493253Y-90108599D01*
X103476777Y-90126777D01*
X103458599Y-90143253D01*
X103438893Y-90157868D01*
X103417850Y-90170480D01*
X103395671Y-90180970D01*
X103372572Y-90189235D01*
X103348773Y-90195196D01*
X103324505Y-90198796D01*
X103300001Y-90200000D01*
X102649999Y-90200000D01*
X102625495Y-90198796D01*
X102601227Y-90195196D01*
X102577428Y-90189235D01*
X102554329Y-90180970D01*
X102532150Y-90170480D01*
X102511107Y-90157868D01*
X102491401Y-90143253D01*
X102473223Y-90126777D01*
X102456747Y-90108599D01*
X102442132Y-90088893D01*
X102429520Y-90067850D01*
X102419030Y-90045671D01*
X102410765Y-90022572D01*
X102404804Y-89998773D01*
X102401204Y-89974505D01*
X102400000Y-89950001D01*
X102400000Y-89049999D01*
X102401204Y-89025495D01*
X102404804Y-89001227D01*
X102410765Y-88977428D01*
X102419030Y-88954329D01*
X102429520Y-88932150D01*
X102442132Y-88911107D01*
X102456747Y-88891401D01*
X102473223Y-88873223D01*
X102491401Y-88856747D01*
X102511107Y-88842132D01*
X102532150Y-88829520D01*
X102554329Y-88819030D01*
X102577428Y-88810765D01*
X102601227Y-88804804D01*
X102625495Y-88801204D01*
X102649999Y-88800000D01*
X103300001Y-88800000D01*
X103324505Y-88801204D01*
X103324505Y-88801204D01*
G37*
D15*
X102975000Y-89500000D03*
D12*
G36*
X105374505Y-88801204D02*
X105398773Y-88804804D01*
X105422572Y-88810765D01*
X105445671Y-88819030D01*
X105467850Y-88829520D01*
X105488893Y-88842132D01*
X105508599Y-88856747D01*
X105526777Y-88873223D01*
X105543253Y-88891401D01*
X105557868Y-88911107D01*
X105570480Y-88932150D01*
X105580970Y-88954329D01*
X105589235Y-88977428D01*
X105595196Y-89001227D01*
X105598796Y-89025495D01*
X105600000Y-89049999D01*
X105600000Y-89950001D01*
X105598796Y-89974505D01*
X105595196Y-89998773D01*
X105589235Y-90022572D01*
X105580970Y-90045671D01*
X105570480Y-90067850D01*
X105557868Y-90088893D01*
X105543253Y-90108599D01*
X105526777Y-90126777D01*
X105508599Y-90143253D01*
X105488893Y-90157868D01*
X105467850Y-90170480D01*
X105445671Y-90180970D01*
X105422572Y-90189235D01*
X105398773Y-90195196D01*
X105374505Y-90198796D01*
X105350001Y-90200000D01*
X104699999Y-90200000D01*
X104675495Y-90198796D01*
X104651227Y-90195196D01*
X104627428Y-90189235D01*
X104604329Y-90180970D01*
X104582150Y-90170480D01*
X104561107Y-90157868D01*
X104541401Y-90143253D01*
X104523223Y-90126777D01*
X104506747Y-90108599D01*
X104492132Y-90088893D01*
X104479520Y-90067850D01*
X104469030Y-90045671D01*
X104460765Y-90022572D01*
X104454804Y-89998773D01*
X104451204Y-89974505D01*
X104450000Y-89950001D01*
X104450000Y-89049999D01*
X104451204Y-89025495D01*
X104454804Y-89001227D01*
X104460765Y-88977428D01*
X104469030Y-88954329D01*
X104479520Y-88932150D01*
X104492132Y-88911107D01*
X104506747Y-88891401D01*
X104523223Y-88873223D01*
X104541401Y-88856747D01*
X104561107Y-88842132D01*
X104582150Y-88829520D01*
X104604329Y-88819030D01*
X104627428Y-88810765D01*
X104651227Y-88804804D01*
X104675495Y-88801204D01*
X104699999Y-88800000D01*
X105350001Y-88800000D01*
X105374505Y-88801204D01*
X105374505Y-88801204D01*
G37*
D15*
X105025000Y-89500000D03*
G04 #@! TD*
D12*
G04 #@! TO.C,S11*
G36*
X124116858Y-55170951D02*
X124136030Y-55173795D01*
X124154831Y-55178504D01*
X124173080Y-55185034D01*
X124190601Y-55193321D01*
X124207225Y-55203285D01*
X124222793Y-55214830D01*
X124237154Y-55227846D01*
X124250170Y-55242207D01*
X124261715Y-55257775D01*
X124271679Y-55274399D01*
X124279966Y-55291920D01*
X124286496Y-55310169D01*
X124291205Y-55328970D01*
X124294049Y-55348142D01*
X124295000Y-55367500D01*
X124295000Y-56632500D01*
X124294049Y-56651858D01*
X124291205Y-56671030D01*
X124286496Y-56689831D01*
X124279966Y-56708080D01*
X124271679Y-56725601D01*
X124261715Y-56742225D01*
X124250170Y-56757793D01*
X124237154Y-56772154D01*
X124222793Y-56785170D01*
X124207225Y-56796715D01*
X124190601Y-56806679D01*
X124173080Y-56814966D01*
X124154831Y-56821496D01*
X124136030Y-56826205D01*
X124116858Y-56829049D01*
X124097500Y-56830000D01*
X123702500Y-56830000D01*
X123683142Y-56829049D01*
X123663970Y-56826205D01*
X123645169Y-56821496D01*
X123626920Y-56814966D01*
X123609399Y-56806679D01*
X123592775Y-56796715D01*
X123577207Y-56785170D01*
X123562846Y-56772154D01*
X123549830Y-56757793D01*
X123538285Y-56742225D01*
X123528321Y-56725601D01*
X123520034Y-56708080D01*
X123513504Y-56689831D01*
X123508795Y-56671030D01*
X123505951Y-56651858D01*
X123505000Y-56632500D01*
X123505000Y-55367500D01*
X123505951Y-55348142D01*
X123508795Y-55328970D01*
X123513504Y-55310169D01*
X123520034Y-55291920D01*
X123528321Y-55274399D01*
X123538285Y-55257775D01*
X123549830Y-55242207D01*
X123562846Y-55227846D01*
X123577207Y-55214830D01*
X123592775Y-55203285D01*
X123609399Y-55193321D01*
X123626920Y-55185034D01*
X123645169Y-55178504D01*
X123663970Y-55173795D01*
X123683142Y-55170951D01*
X123702500Y-55170000D01*
X124097500Y-55170000D01*
X124116858Y-55170951D01*
X124116858Y-55170951D01*
G37*
D13*
X123900000Y-56000000D03*
D12*
G36*
X122316858Y-55170951D02*
X122336030Y-55173795D01*
X122354831Y-55178504D01*
X122373080Y-55185034D01*
X122390601Y-55193321D01*
X122407225Y-55203285D01*
X122422793Y-55214830D01*
X122437154Y-55227846D01*
X122450170Y-55242207D01*
X122461715Y-55257775D01*
X122471679Y-55274399D01*
X122479966Y-55291920D01*
X122486496Y-55310169D01*
X122491205Y-55328970D01*
X122494049Y-55348142D01*
X122495000Y-55367500D01*
X122495000Y-56632500D01*
X122494049Y-56651858D01*
X122491205Y-56671030D01*
X122486496Y-56689831D01*
X122479966Y-56708080D01*
X122471679Y-56725601D01*
X122461715Y-56742225D01*
X122450170Y-56757793D01*
X122437154Y-56772154D01*
X122422793Y-56785170D01*
X122407225Y-56796715D01*
X122390601Y-56806679D01*
X122373080Y-56814966D01*
X122354831Y-56821496D01*
X122336030Y-56826205D01*
X122316858Y-56829049D01*
X122297500Y-56830000D01*
X121902500Y-56830000D01*
X121883142Y-56829049D01*
X121863970Y-56826205D01*
X121845169Y-56821496D01*
X121826920Y-56814966D01*
X121809399Y-56806679D01*
X121792775Y-56796715D01*
X121777207Y-56785170D01*
X121762846Y-56772154D01*
X121749830Y-56757793D01*
X121738285Y-56742225D01*
X121728321Y-56725601D01*
X121720034Y-56708080D01*
X121713504Y-56689831D01*
X121708795Y-56671030D01*
X121705951Y-56651858D01*
X121705000Y-56632500D01*
X121705000Y-55367500D01*
X121705951Y-55348142D01*
X121708795Y-55328970D01*
X121713504Y-55310169D01*
X121720034Y-55291920D01*
X121728321Y-55274399D01*
X121738285Y-55257775D01*
X121749830Y-55242207D01*
X121762846Y-55227846D01*
X121777207Y-55214830D01*
X121792775Y-55203285D01*
X121809399Y-55193321D01*
X121826920Y-55185034D01*
X121845169Y-55178504D01*
X121863970Y-55173795D01*
X121883142Y-55170951D01*
X121902500Y-55170000D01*
X122297500Y-55170000D01*
X122316858Y-55170951D01*
X122316858Y-55170951D01*
G37*
D13*
X122100000Y-56000000D03*
D12*
G36*
X122316858Y-59170951D02*
X122336030Y-59173795D01*
X122354831Y-59178504D01*
X122373080Y-59185034D01*
X122390601Y-59193321D01*
X122407225Y-59203285D01*
X122422793Y-59214830D01*
X122437154Y-59227846D01*
X122450170Y-59242207D01*
X122461715Y-59257775D01*
X122471679Y-59274399D01*
X122479966Y-59291920D01*
X122486496Y-59310169D01*
X122491205Y-59328970D01*
X122494049Y-59348142D01*
X122495000Y-59367500D01*
X122495000Y-60632500D01*
X122494049Y-60651858D01*
X122491205Y-60671030D01*
X122486496Y-60689831D01*
X122479966Y-60708080D01*
X122471679Y-60725601D01*
X122461715Y-60742225D01*
X122450170Y-60757793D01*
X122437154Y-60772154D01*
X122422793Y-60785170D01*
X122407225Y-60796715D01*
X122390601Y-60806679D01*
X122373080Y-60814966D01*
X122354831Y-60821496D01*
X122336030Y-60826205D01*
X122316858Y-60829049D01*
X122297500Y-60830000D01*
X121902500Y-60830000D01*
X121883142Y-60829049D01*
X121863970Y-60826205D01*
X121845169Y-60821496D01*
X121826920Y-60814966D01*
X121809399Y-60806679D01*
X121792775Y-60796715D01*
X121777207Y-60785170D01*
X121762846Y-60772154D01*
X121749830Y-60757793D01*
X121738285Y-60742225D01*
X121728321Y-60725601D01*
X121720034Y-60708080D01*
X121713504Y-60689831D01*
X121708795Y-60671030D01*
X121705951Y-60651858D01*
X121705000Y-60632500D01*
X121705000Y-59367500D01*
X121705951Y-59348142D01*
X121708795Y-59328970D01*
X121713504Y-59310169D01*
X121720034Y-59291920D01*
X121728321Y-59274399D01*
X121738285Y-59257775D01*
X121749830Y-59242207D01*
X121762846Y-59227846D01*
X121777207Y-59214830D01*
X121792775Y-59203285D01*
X121809399Y-59193321D01*
X121826920Y-59185034D01*
X121845169Y-59178504D01*
X121863970Y-59173795D01*
X121883142Y-59170951D01*
X121902500Y-59170000D01*
X122297500Y-59170000D01*
X122316858Y-59170951D01*
X122316858Y-59170951D01*
G37*
D13*
X122100000Y-60000000D03*
D12*
G36*
X124116858Y-59170951D02*
X124136030Y-59173795D01*
X124154831Y-59178504D01*
X124173080Y-59185034D01*
X124190601Y-59193321D01*
X124207225Y-59203285D01*
X124222793Y-59214830D01*
X124237154Y-59227846D01*
X124250170Y-59242207D01*
X124261715Y-59257775D01*
X124271679Y-59274399D01*
X124279966Y-59291920D01*
X124286496Y-59310169D01*
X124291205Y-59328970D01*
X124294049Y-59348142D01*
X124295000Y-59367500D01*
X124295000Y-60632500D01*
X124294049Y-60651858D01*
X124291205Y-60671030D01*
X124286496Y-60689831D01*
X124279966Y-60708080D01*
X124271679Y-60725601D01*
X124261715Y-60742225D01*
X124250170Y-60757793D01*
X124237154Y-60772154D01*
X124222793Y-60785170D01*
X124207225Y-60796715D01*
X124190601Y-60806679D01*
X124173080Y-60814966D01*
X124154831Y-60821496D01*
X124136030Y-60826205D01*
X124116858Y-60829049D01*
X124097500Y-60830000D01*
X123702500Y-60830000D01*
X123683142Y-60829049D01*
X123663970Y-60826205D01*
X123645169Y-60821496D01*
X123626920Y-60814966D01*
X123609399Y-60806679D01*
X123592775Y-60796715D01*
X123577207Y-60785170D01*
X123562846Y-60772154D01*
X123549830Y-60757793D01*
X123538285Y-60742225D01*
X123528321Y-60725601D01*
X123520034Y-60708080D01*
X123513504Y-60689831D01*
X123508795Y-60671030D01*
X123505951Y-60651858D01*
X123505000Y-60632500D01*
X123505000Y-59367500D01*
X123505951Y-59348142D01*
X123508795Y-59328970D01*
X123513504Y-59310169D01*
X123520034Y-59291920D01*
X123528321Y-59274399D01*
X123538285Y-59257775D01*
X123549830Y-59242207D01*
X123562846Y-59227846D01*
X123577207Y-59214830D01*
X123592775Y-59203285D01*
X123609399Y-59193321D01*
X123626920Y-59185034D01*
X123645169Y-59178504D01*
X123663970Y-59173795D01*
X123683142Y-59170951D01*
X123702500Y-59170000D01*
X124097500Y-59170000D01*
X124116858Y-59170951D01*
X124116858Y-59170951D01*
G37*
D13*
X123900000Y-60000000D03*
G04 #@! TD*
D12*
G04 #@! TO.C,R15*
G36*
X99974505Y-86290508D02*
X99998773Y-86294108D01*
X100022572Y-86300069D01*
X100045671Y-86308334D01*
X100067850Y-86318824D01*
X100088893Y-86331436D01*
X100108599Y-86346051D01*
X100126777Y-86362527D01*
X100143253Y-86380705D01*
X100157868Y-86400411D01*
X100170480Y-86421454D01*
X100180970Y-86443633D01*
X100189235Y-86466732D01*
X100195196Y-86490531D01*
X100198796Y-86514799D01*
X100200000Y-86539303D01*
X100200000Y-87189305D01*
X100198796Y-87213809D01*
X100195196Y-87238077D01*
X100189235Y-87261876D01*
X100180970Y-87284975D01*
X100170480Y-87307154D01*
X100157868Y-87328197D01*
X100143253Y-87347903D01*
X100126777Y-87366081D01*
X100108599Y-87382557D01*
X100088893Y-87397172D01*
X100067850Y-87409784D01*
X100045671Y-87420274D01*
X100022572Y-87428539D01*
X99998773Y-87434500D01*
X99974505Y-87438100D01*
X99950001Y-87439304D01*
X99049999Y-87439304D01*
X99025495Y-87438100D01*
X99001227Y-87434500D01*
X98977428Y-87428539D01*
X98954329Y-87420274D01*
X98932150Y-87409784D01*
X98911107Y-87397172D01*
X98891401Y-87382557D01*
X98873223Y-87366081D01*
X98856747Y-87347903D01*
X98842132Y-87328197D01*
X98829520Y-87307154D01*
X98819030Y-87284975D01*
X98810765Y-87261876D01*
X98804804Y-87238077D01*
X98801204Y-87213809D01*
X98800000Y-87189305D01*
X98800000Y-86539303D01*
X98801204Y-86514799D01*
X98804804Y-86490531D01*
X98810765Y-86466732D01*
X98819030Y-86443633D01*
X98829520Y-86421454D01*
X98842132Y-86400411D01*
X98856747Y-86380705D01*
X98873223Y-86362527D01*
X98891401Y-86346051D01*
X98911107Y-86331436D01*
X98932150Y-86318824D01*
X98954329Y-86308334D01*
X98977428Y-86300069D01*
X99001227Y-86294108D01*
X99025495Y-86290508D01*
X99049999Y-86289304D01*
X99950001Y-86289304D01*
X99974505Y-86290508D01*
X99974505Y-86290508D01*
G37*
D15*
X99500000Y-86864304D03*
D12*
G36*
X99974505Y-84240508D02*
X99998773Y-84244108D01*
X100022572Y-84250069D01*
X100045671Y-84258334D01*
X100067850Y-84268824D01*
X100088893Y-84281436D01*
X100108599Y-84296051D01*
X100126777Y-84312527D01*
X100143253Y-84330705D01*
X100157868Y-84350411D01*
X100170480Y-84371454D01*
X100180970Y-84393633D01*
X100189235Y-84416732D01*
X100195196Y-84440531D01*
X100198796Y-84464799D01*
X100200000Y-84489303D01*
X100200000Y-85139305D01*
X100198796Y-85163809D01*
X100195196Y-85188077D01*
X100189235Y-85211876D01*
X100180970Y-85234975D01*
X100170480Y-85257154D01*
X100157868Y-85278197D01*
X100143253Y-85297903D01*
X100126777Y-85316081D01*
X100108599Y-85332557D01*
X100088893Y-85347172D01*
X100067850Y-85359784D01*
X100045671Y-85370274D01*
X100022572Y-85378539D01*
X99998773Y-85384500D01*
X99974505Y-85388100D01*
X99950001Y-85389304D01*
X99049999Y-85389304D01*
X99025495Y-85388100D01*
X99001227Y-85384500D01*
X98977428Y-85378539D01*
X98954329Y-85370274D01*
X98932150Y-85359784D01*
X98911107Y-85347172D01*
X98891401Y-85332557D01*
X98873223Y-85316081D01*
X98856747Y-85297903D01*
X98842132Y-85278197D01*
X98829520Y-85257154D01*
X98819030Y-85234975D01*
X98810765Y-85211876D01*
X98804804Y-85188077D01*
X98801204Y-85163809D01*
X98800000Y-85139305D01*
X98800000Y-84489303D01*
X98801204Y-84464799D01*
X98804804Y-84440531D01*
X98810765Y-84416732D01*
X98819030Y-84393633D01*
X98829520Y-84371454D01*
X98842132Y-84350411D01*
X98856747Y-84330705D01*
X98873223Y-84312527D01*
X98891401Y-84296051D01*
X98911107Y-84281436D01*
X98932150Y-84268824D01*
X98954329Y-84258334D01*
X98977428Y-84250069D01*
X99001227Y-84244108D01*
X99025495Y-84240508D01*
X99049999Y-84239304D01*
X99950001Y-84239304D01*
X99974505Y-84240508D01*
X99974505Y-84240508D01*
G37*
D15*
X99500000Y-84814304D03*
G04 #@! TD*
D12*
G04 #@! TO.C,R16*
G36*
X102474503Y-84240508D02*
X102498771Y-84244108D01*
X102522570Y-84250069D01*
X102545669Y-84258334D01*
X102567848Y-84268824D01*
X102588891Y-84281436D01*
X102608597Y-84296051D01*
X102626775Y-84312527D01*
X102643251Y-84330705D01*
X102657866Y-84350411D01*
X102670478Y-84371454D01*
X102680968Y-84393633D01*
X102689233Y-84416732D01*
X102695194Y-84440531D01*
X102698794Y-84464799D01*
X102699998Y-84489303D01*
X102699998Y-85139305D01*
X102698794Y-85163809D01*
X102695194Y-85188077D01*
X102689233Y-85211876D01*
X102680968Y-85234975D01*
X102670478Y-85257154D01*
X102657866Y-85278197D01*
X102643251Y-85297903D01*
X102626775Y-85316081D01*
X102608597Y-85332557D01*
X102588891Y-85347172D01*
X102567848Y-85359784D01*
X102545669Y-85370274D01*
X102522570Y-85378539D01*
X102498771Y-85384500D01*
X102474503Y-85388100D01*
X102449999Y-85389304D01*
X101549997Y-85389304D01*
X101525493Y-85388100D01*
X101501225Y-85384500D01*
X101477426Y-85378539D01*
X101454327Y-85370274D01*
X101432148Y-85359784D01*
X101411105Y-85347172D01*
X101391399Y-85332557D01*
X101373221Y-85316081D01*
X101356745Y-85297903D01*
X101342130Y-85278197D01*
X101329518Y-85257154D01*
X101319028Y-85234975D01*
X101310763Y-85211876D01*
X101304802Y-85188077D01*
X101301202Y-85163809D01*
X101299998Y-85139305D01*
X101299998Y-84489303D01*
X101301202Y-84464799D01*
X101304802Y-84440531D01*
X101310763Y-84416732D01*
X101319028Y-84393633D01*
X101329518Y-84371454D01*
X101342130Y-84350411D01*
X101356745Y-84330705D01*
X101373221Y-84312527D01*
X101391399Y-84296051D01*
X101411105Y-84281436D01*
X101432148Y-84268824D01*
X101454327Y-84258334D01*
X101477426Y-84250069D01*
X101501225Y-84244108D01*
X101525493Y-84240508D01*
X101549997Y-84239304D01*
X102449999Y-84239304D01*
X102474503Y-84240508D01*
X102474503Y-84240508D01*
G37*
D15*
X101999998Y-84814304D03*
D12*
G36*
X102474503Y-86290508D02*
X102498771Y-86294108D01*
X102522570Y-86300069D01*
X102545669Y-86308334D01*
X102567848Y-86318824D01*
X102588891Y-86331436D01*
X102608597Y-86346051D01*
X102626775Y-86362527D01*
X102643251Y-86380705D01*
X102657866Y-86400411D01*
X102670478Y-86421454D01*
X102680968Y-86443633D01*
X102689233Y-86466732D01*
X102695194Y-86490531D01*
X102698794Y-86514799D01*
X102699998Y-86539303D01*
X102699998Y-87189305D01*
X102698794Y-87213809D01*
X102695194Y-87238077D01*
X102689233Y-87261876D01*
X102680968Y-87284975D01*
X102670478Y-87307154D01*
X102657866Y-87328197D01*
X102643251Y-87347903D01*
X102626775Y-87366081D01*
X102608597Y-87382557D01*
X102588891Y-87397172D01*
X102567848Y-87409784D01*
X102545669Y-87420274D01*
X102522570Y-87428539D01*
X102498771Y-87434500D01*
X102474503Y-87438100D01*
X102449999Y-87439304D01*
X101549997Y-87439304D01*
X101525493Y-87438100D01*
X101501225Y-87434500D01*
X101477426Y-87428539D01*
X101454327Y-87420274D01*
X101432148Y-87409784D01*
X101411105Y-87397172D01*
X101391399Y-87382557D01*
X101373221Y-87366081D01*
X101356745Y-87347903D01*
X101342130Y-87328197D01*
X101329518Y-87307154D01*
X101319028Y-87284975D01*
X101310763Y-87261876D01*
X101304802Y-87238077D01*
X101301202Y-87213809D01*
X101299998Y-87189305D01*
X101299998Y-86539303D01*
X101301202Y-86514799D01*
X101304802Y-86490531D01*
X101310763Y-86466732D01*
X101319028Y-86443633D01*
X101329518Y-86421454D01*
X101342130Y-86400411D01*
X101356745Y-86380705D01*
X101373221Y-86362527D01*
X101391399Y-86346051D01*
X101411105Y-86331436D01*
X101432148Y-86318824D01*
X101454327Y-86308334D01*
X101477426Y-86300069D01*
X101501225Y-86294108D01*
X101525493Y-86290508D01*
X101549997Y-86289304D01*
X102449999Y-86289304D01*
X102474503Y-86290508D01*
X102474503Y-86290508D01*
G37*
D15*
X101999998Y-86864304D03*
G04 #@! TD*
D12*
G04 #@! TO.C,R17*
G36*
X104974505Y-86290508D02*
X104998773Y-86294108D01*
X105022572Y-86300069D01*
X105045671Y-86308334D01*
X105067850Y-86318824D01*
X105088893Y-86331436D01*
X105108599Y-86346051D01*
X105126777Y-86362527D01*
X105143253Y-86380705D01*
X105157868Y-86400411D01*
X105170480Y-86421454D01*
X105180970Y-86443633D01*
X105189235Y-86466732D01*
X105195196Y-86490531D01*
X105198796Y-86514799D01*
X105200000Y-86539303D01*
X105200000Y-87189305D01*
X105198796Y-87213809D01*
X105195196Y-87238077D01*
X105189235Y-87261876D01*
X105180970Y-87284975D01*
X105170480Y-87307154D01*
X105157868Y-87328197D01*
X105143253Y-87347903D01*
X105126777Y-87366081D01*
X105108599Y-87382557D01*
X105088893Y-87397172D01*
X105067850Y-87409784D01*
X105045671Y-87420274D01*
X105022572Y-87428539D01*
X104998773Y-87434500D01*
X104974505Y-87438100D01*
X104950001Y-87439304D01*
X104049999Y-87439304D01*
X104025495Y-87438100D01*
X104001227Y-87434500D01*
X103977428Y-87428539D01*
X103954329Y-87420274D01*
X103932150Y-87409784D01*
X103911107Y-87397172D01*
X103891401Y-87382557D01*
X103873223Y-87366081D01*
X103856747Y-87347903D01*
X103842132Y-87328197D01*
X103829520Y-87307154D01*
X103819030Y-87284975D01*
X103810765Y-87261876D01*
X103804804Y-87238077D01*
X103801204Y-87213809D01*
X103800000Y-87189305D01*
X103800000Y-86539303D01*
X103801204Y-86514799D01*
X103804804Y-86490531D01*
X103810765Y-86466732D01*
X103819030Y-86443633D01*
X103829520Y-86421454D01*
X103842132Y-86400411D01*
X103856747Y-86380705D01*
X103873223Y-86362527D01*
X103891401Y-86346051D01*
X103911107Y-86331436D01*
X103932150Y-86318824D01*
X103954329Y-86308334D01*
X103977428Y-86300069D01*
X104001227Y-86294108D01*
X104025495Y-86290508D01*
X104049999Y-86289304D01*
X104950001Y-86289304D01*
X104974505Y-86290508D01*
X104974505Y-86290508D01*
G37*
D15*
X104500000Y-86864304D03*
D12*
G36*
X104974505Y-84240508D02*
X104998773Y-84244108D01*
X105022572Y-84250069D01*
X105045671Y-84258334D01*
X105067850Y-84268824D01*
X105088893Y-84281436D01*
X105108599Y-84296051D01*
X105126777Y-84312527D01*
X105143253Y-84330705D01*
X105157868Y-84350411D01*
X105170480Y-84371454D01*
X105180970Y-84393633D01*
X105189235Y-84416732D01*
X105195196Y-84440531D01*
X105198796Y-84464799D01*
X105200000Y-84489303D01*
X105200000Y-85139305D01*
X105198796Y-85163809D01*
X105195196Y-85188077D01*
X105189235Y-85211876D01*
X105180970Y-85234975D01*
X105170480Y-85257154D01*
X105157868Y-85278197D01*
X105143253Y-85297903D01*
X105126777Y-85316081D01*
X105108599Y-85332557D01*
X105088893Y-85347172D01*
X105067850Y-85359784D01*
X105045671Y-85370274D01*
X105022572Y-85378539D01*
X104998773Y-85384500D01*
X104974505Y-85388100D01*
X104950001Y-85389304D01*
X104049999Y-85389304D01*
X104025495Y-85388100D01*
X104001227Y-85384500D01*
X103977428Y-85378539D01*
X103954329Y-85370274D01*
X103932150Y-85359784D01*
X103911107Y-85347172D01*
X103891401Y-85332557D01*
X103873223Y-85316081D01*
X103856747Y-85297903D01*
X103842132Y-85278197D01*
X103829520Y-85257154D01*
X103819030Y-85234975D01*
X103810765Y-85211876D01*
X103804804Y-85188077D01*
X103801204Y-85163809D01*
X103800000Y-85139305D01*
X103800000Y-84489303D01*
X103801204Y-84464799D01*
X103804804Y-84440531D01*
X103810765Y-84416732D01*
X103819030Y-84393633D01*
X103829520Y-84371454D01*
X103842132Y-84350411D01*
X103856747Y-84330705D01*
X103873223Y-84312527D01*
X103891401Y-84296051D01*
X103911107Y-84281436D01*
X103932150Y-84268824D01*
X103954329Y-84258334D01*
X103977428Y-84250069D01*
X104001227Y-84244108D01*
X104025495Y-84240508D01*
X104049999Y-84239304D01*
X104950001Y-84239304D01*
X104974505Y-84240508D01*
X104974505Y-84240508D01*
G37*
D15*
X104500000Y-84814304D03*
G04 #@! TD*
D12*
G04 #@! TO.C,R18*
G36*
X118849505Y-138301204D02*
X118873773Y-138304804D01*
X118897572Y-138310765D01*
X118920671Y-138319030D01*
X118942850Y-138329520D01*
X118963893Y-138342132D01*
X118983599Y-138356747D01*
X119001777Y-138373223D01*
X119018253Y-138391401D01*
X119032868Y-138411107D01*
X119045480Y-138432150D01*
X119055970Y-138454329D01*
X119064235Y-138477428D01*
X119070196Y-138501227D01*
X119073796Y-138525495D01*
X119075000Y-138549999D01*
X119075000Y-139450001D01*
X119073796Y-139474505D01*
X119070196Y-139498773D01*
X119064235Y-139522572D01*
X119055970Y-139545671D01*
X119045480Y-139567850D01*
X119032868Y-139588893D01*
X119018253Y-139608599D01*
X119001777Y-139626777D01*
X118983599Y-139643253D01*
X118963893Y-139657868D01*
X118942850Y-139670480D01*
X118920671Y-139680970D01*
X118897572Y-139689235D01*
X118873773Y-139695196D01*
X118849505Y-139698796D01*
X118825001Y-139700000D01*
X118174999Y-139700000D01*
X118150495Y-139698796D01*
X118126227Y-139695196D01*
X118102428Y-139689235D01*
X118079329Y-139680970D01*
X118057150Y-139670480D01*
X118036107Y-139657868D01*
X118016401Y-139643253D01*
X117998223Y-139626777D01*
X117981747Y-139608599D01*
X117967132Y-139588893D01*
X117954520Y-139567850D01*
X117944030Y-139545671D01*
X117935765Y-139522572D01*
X117929804Y-139498773D01*
X117926204Y-139474505D01*
X117925000Y-139450001D01*
X117925000Y-138549999D01*
X117926204Y-138525495D01*
X117929804Y-138501227D01*
X117935765Y-138477428D01*
X117944030Y-138454329D01*
X117954520Y-138432150D01*
X117967132Y-138411107D01*
X117981747Y-138391401D01*
X117998223Y-138373223D01*
X118016401Y-138356747D01*
X118036107Y-138342132D01*
X118057150Y-138329520D01*
X118079329Y-138319030D01*
X118102428Y-138310765D01*
X118126227Y-138304804D01*
X118150495Y-138301204D01*
X118174999Y-138300000D01*
X118825001Y-138300000D01*
X118849505Y-138301204D01*
X118849505Y-138301204D01*
G37*
D15*
X118500000Y-139000000D03*
D12*
G36*
X116799505Y-138301204D02*
X116823773Y-138304804D01*
X116847572Y-138310765D01*
X116870671Y-138319030D01*
X116892850Y-138329520D01*
X116913893Y-138342132D01*
X116933599Y-138356747D01*
X116951777Y-138373223D01*
X116968253Y-138391401D01*
X116982868Y-138411107D01*
X116995480Y-138432150D01*
X117005970Y-138454329D01*
X117014235Y-138477428D01*
X117020196Y-138501227D01*
X117023796Y-138525495D01*
X117025000Y-138549999D01*
X117025000Y-139450001D01*
X117023796Y-139474505D01*
X117020196Y-139498773D01*
X117014235Y-139522572D01*
X117005970Y-139545671D01*
X116995480Y-139567850D01*
X116982868Y-139588893D01*
X116968253Y-139608599D01*
X116951777Y-139626777D01*
X116933599Y-139643253D01*
X116913893Y-139657868D01*
X116892850Y-139670480D01*
X116870671Y-139680970D01*
X116847572Y-139689235D01*
X116823773Y-139695196D01*
X116799505Y-139698796D01*
X116775001Y-139700000D01*
X116124999Y-139700000D01*
X116100495Y-139698796D01*
X116076227Y-139695196D01*
X116052428Y-139689235D01*
X116029329Y-139680970D01*
X116007150Y-139670480D01*
X115986107Y-139657868D01*
X115966401Y-139643253D01*
X115948223Y-139626777D01*
X115931747Y-139608599D01*
X115917132Y-139588893D01*
X115904520Y-139567850D01*
X115894030Y-139545671D01*
X115885765Y-139522572D01*
X115879804Y-139498773D01*
X115876204Y-139474505D01*
X115875000Y-139450001D01*
X115875000Y-138549999D01*
X115876204Y-138525495D01*
X115879804Y-138501227D01*
X115885765Y-138477428D01*
X115894030Y-138454329D01*
X115904520Y-138432150D01*
X115917132Y-138411107D01*
X115931747Y-138391401D01*
X115948223Y-138373223D01*
X115966401Y-138356747D01*
X115986107Y-138342132D01*
X116007150Y-138329520D01*
X116029329Y-138319030D01*
X116052428Y-138310765D01*
X116076227Y-138304804D01*
X116100495Y-138301204D01*
X116124999Y-138300000D01*
X116775001Y-138300000D01*
X116799505Y-138301204D01*
X116799505Y-138301204D01*
G37*
D15*
X116450000Y-139000000D03*
G04 #@! TD*
D12*
G04 #@! TO.C,R19*
G36*
X103399505Y-58801204D02*
X103423773Y-58804804D01*
X103447572Y-58810765D01*
X103470671Y-58819030D01*
X103492850Y-58829520D01*
X103513893Y-58842132D01*
X103533599Y-58856747D01*
X103551777Y-58873223D01*
X103568253Y-58891401D01*
X103582868Y-58911107D01*
X103595480Y-58932150D01*
X103605970Y-58954329D01*
X103614235Y-58977428D01*
X103620196Y-59001227D01*
X103623796Y-59025495D01*
X103625000Y-59049999D01*
X103625000Y-59950001D01*
X103623796Y-59974505D01*
X103620196Y-59998773D01*
X103614235Y-60022572D01*
X103605970Y-60045671D01*
X103595480Y-60067850D01*
X103582868Y-60088893D01*
X103568253Y-60108599D01*
X103551777Y-60126777D01*
X103533599Y-60143253D01*
X103513893Y-60157868D01*
X103492850Y-60170480D01*
X103470671Y-60180970D01*
X103447572Y-60189235D01*
X103423773Y-60195196D01*
X103399505Y-60198796D01*
X103375001Y-60200000D01*
X102724999Y-60200000D01*
X102700495Y-60198796D01*
X102676227Y-60195196D01*
X102652428Y-60189235D01*
X102629329Y-60180970D01*
X102607150Y-60170480D01*
X102586107Y-60157868D01*
X102566401Y-60143253D01*
X102548223Y-60126777D01*
X102531747Y-60108599D01*
X102517132Y-60088893D01*
X102504520Y-60067850D01*
X102494030Y-60045671D01*
X102485765Y-60022572D01*
X102479804Y-59998773D01*
X102476204Y-59974505D01*
X102475000Y-59950001D01*
X102475000Y-59049999D01*
X102476204Y-59025495D01*
X102479804Y-59001227D01*
X102485765Y-58977428D01*
X102494030Y-58954329D01*
X102504520Y-58932150D01*
X102517132Y-58911107D01*
X102531747Y-58891401D01*
X102548223Y-58873223D01*
X102566401Y-58856747D01*
X102586107Y-58842132D01*
X102607150Y-58829520D01*
X102629329Y-58819030D01*
X102652428Y-58810765D01*
X102676227Y-58804804D01*
X102700495Y-58801204D01*
X102724999Y-58800000D01*
X103375001Y-58800000D01*
X103399505Y-58801204D01*
X103399505Y-58801204D01*
G37*
D15*
X103050000Y-59500000D03*
D12*
G36*
X101349505Y-58801204D02*
X101373773Y-58804804D01*
X101397572Y-58810765D01*
X101420671Y-58819030D01*
X101442850Y-58829520D01*
X101463893Y-58842132D01*
X101483599Y-58856747D01*
X101501777Y-58873223D01*
X101518253Y-58891401D01*
X101532868Y-58911107D01*
X101545480Y-58932150D01*
X101555970Y-58954329D01*
X101564235Y-58977428D01*
X101570196Y-59001227D01*
X101573796Y-59025495D01*
X101575000Y-59049999D01*
X101575000Y-59950001D01*
X101573796Y-59974505D01*
X101570196Y-59998773D01*
X101564235Y-60022572D01*
X101555970Y-60045671D01*
X101545480Y-60067850D01*
X101532868Y-60088893D01*
X101518253Y-60108599D01*
X101501777Y-60126777D01*
X101483599Y-60143253D01*
X101463893Y-60157868D01*
X101442850Y-60170480D01*
X101420671Y-60180970D01*
X101397572Y-60189235D01*
X101373773Y-60195196D01*
X101349505Y-60198796D01*
X101325001Y-60200000D01*
X100674999Y-60200000D01*
X100650495Y-60198796D01*
X100626227Y-60195196D01*
X100602428Y-60189235D01*
X100579329Y-60180970D01*
X100557150Y-60170480D01*
X100536107Y-60157868D01*
X100516401Y-60143253D01*
X100498223Y-60126777D01*
X100481747Y-60108599D01*
X100467132Y-60088893D01*
X100454520Y-60067850D01*
X100444030Y-60045671D01*
X100435765Y-60022572D01*
X100429804Y-59998773D01*
X100426204Y-59974505D01*
X100425000Y-59950001D01*
X100425000Y-59049999D01*
X100426204Y-59025495D01*
X100429804Y-59001227D01*
X100435765Y-58977428D01*
X100444030Y-58954329D01*
X100454520Y-58932150D01*
X100467132Y-58911107D01*
X100481747Y-58891401D01*
X100498223Y-58873223D01*
X100516401Y-58856747D01*
X100536107Y-58842132D01*
X100557150Y-58829520D01*
X100579329Y-58819030D01*
X100602428Y-58810765D01*
X100626227Y-58804804D01*
X100650495Y-58801204D01*
X100674999Y-58800000D01*
X101325001Y-58800000D01*
X101349505Y-58801204D01*
X101349505Y-58801204D01*
G37*
D15*
X101000000Y-59500000D03*
G04 #@! TD*
D12*
G04 #@! TO.C,R20*
G36*
X104474505Y-74401204D02*
X104498773Y-74404804D01*
X104522572Y-74410765D01*
X104545671Y-74419030D01*
X104567850Y-74429520D01*
X104588893Y-74442132D01*
X104608599Y-74456747D01*
X104626777Y-74473223D01*
X104643253Y-74491401D01*
X104657868Y-74511107D01*
X104670480Y-74532150D01*
X104680970Y-74554329D01*
X104689235Y-74577428D01*
X104695196Y-74601227D01*
X104698796Y-74625495D01*
X104700000Y-74649999D01*
X104700000Y-75300001D01*
X104698796Y-75324505D01*
X104695196Y-75348773D01*
X104689235Y-75372572D01*
X104680970Y-75395671D01*
X104670480Y-75417850D01*
X104657868Y-75438893D01*
X104643253Y-75458599D01*
X104626777Y-75476777D01*
X104608599Y-75493253D01*
X104588893Y-75507868D01*
X104567850Y-75520480D01*
X104545671Y-75530970D01*
X104522572Y-75539235D01*
X104498773Y-75545196D01*
X104474505Y-75548796D01*
X104450001Y-75550000D01*
X103549999Y-75550000D01*
X103525495Y-75548796D01*
X103501227Y-75545196D01*
X103477428Y-75539235D01*
X103454329Y-75530970D01*
X103432150Y-75520480D01*
X103411107Y-75507868D01*
X103391401Y-75493253D01*
X103373223Y-75476777D01*
X103356747Y-75458599D01*
X103342132Y-75438893D01*
X103329520Y-75417850D01*
X103319030Y-75395671D01*
X103310765Y-75372572D01*
X103304804Y-75348773D01*
X103301204Y-75324505D01*
X103300000Y-75300001D01*
X103300000Y-74649999D01*
X103301204Y-74625495D01*
X103304804Y-74601227D01*
X103310765Y-74577428D01*
X103319030Y-74554329D01*
X103329520Y-74532150D01*
X103342132Y-74511107D01*
X103356747Y-74491401D01*
X103373223Y-74473223D01*
X103391401Y-74456747D01*
X103411107Y-74442132D01*
X103432150Y-74429520D01*
X103454329Y-74419030D01*
X103477428Y-74410765D01*
X103501227Y-74404804D01*
X103525495Y-74401204D01*
X103549999Y-74400000D01*
X104450001Y-74400000D01*
X104474505Y-74401204D01*
X104474505Y-74401204D01*
G37*
D15*
X104000000Y-74975000D03*
D12*
G36*
X104474505Y-76451204D02*
X104498773Y-76454804D01*
X104522572Y-76460765D01*
X104545671Y-76469030D01*
X104567850Y-76479520D01*
X104588893Y-76492132D01*
X104608599Y-76506747D01*
X104626777Y-76523223D01*
X104643253Y-76541401D01*
X104657868Y-76561107D01*
X104670480Y-76582150D01*
X104680970Y-76604329D01*
X104689235Y-76627428D01*
X104695196Y-76651227D01*
X104698796Y-76675495D01*
X104700000Y-76699999D01*
X104700000Y-77350001D01*
X104698796Y-77374505D01*
X104695196Y-77398773D01*
X104689235Y-77422572D01*
X104680970Y-77445671D01*
X104670480Y-77467850D01*
X104657868Y-77488893D01*
X104643253Y-77508599D01*
X104626777Y-77526777D01*
X104608599Y-77543253D01*
X104588893Y-77557868D01*
X104567850Y-77570480D01*
X104545671Y-77580970D01*
X104522572Y-77589235D01*
X104498773Y-77595196D01*
X104474505Y-77598796D01*
X104450001Y-77600000D01*
X103549999Y-77600000D01*
X103525495Y-77598796D01*
X103501227Y-77595196D01*
X103477428Y-77589235D01*
X103454329Y-77580970D01*
X103432150Y-77570480D01*
X103411107Y-77557868D01*
X103391401Y-77543253D01*
X103373223Y-77526777D01*
X103356747Y-77508599D01*
X103342132Y-77488893D01*
X103329520Y-77467850D01*
X103319030Y-77445671D01*
X103310765Y-77422572D01*
X103304804Y-77398773D01*
X103301204Y-77374505D01*
X103300000Y-77350001D01*
X103300000Y-76699999D01*
X103301204Y-76675495D01*
X103304804Y-76651227D01*
X103310765Y-76627428D01*
X103319030Y-76604329D01*
X103329520Y-76582150D01*
X103342132Y-76561107D01*
X103356747Y-76541401D01*
X103373223Y-76523223D01*
X103391401Y-76506747D01*
X103411107Y-76492132D01*
X103432150Y-76479520D01*
X103454329Y-76469030D01*
X103477428Y-76460765D01*
X103501227Y-76454804D01*
X103525495Y-76451204D01*
X103549999Y-76450000D01*
X104450001Y-76450000D01*
X104474505Y-76451204D01*
X104474505Y-76451204D01*
G37*
D15*
X104000000Y-77025000D03*
G04 #@! TD*
D12*
G04 #@! TO.C,R21*
G36*
X93474505Y-76476204D02*
X93498773Y-76479804D01*
X93522572Y-76485765D01*
X93545671Y-76494030D01*
X93567850Y-76504520D01*
X93588893Y-76517132D01*
X93608599Y-76531747D01*
X93626777Y-76548223D01*
X93643253Y-76566401D01*
X93657868Y-76586107D01*
X93670480Y-76607150D01*
X93680970Y-76629329D01*
X93689235Y-76652428D01*
X93695196Y-76676227D01*
X93698796Y-76700495D01*
X93700000Y-76724999D01*
X93700000Y-77375001D01*
X93698796Y-77399505D01*
X93695196Y-77423773D01*
X93689235Y-77447572D01*
X93680970Y-77470671D01*
X93670480Y-77492850D01*
X93657868Y-77513893D01*
X93643253Y-77533599D01*
X93626777Y-77551777D01*
X93608599Y-77568253D01*
X93588893Y-77582868D01*
X93567850Y-77595480D01*
X93545671Y-77605970D01*
X93522572Y-77614235D01*
X93498773Y-77620196D01*
X93474505Y-77623796D01*
X93450001Y-77625000D01*
X92549999Y-77625000D01*
X92525495Y-77623796D01*
X92501227Y-77620196D01*
X92477428Y-77614235D01*
X92454329Y-77605970D01*
X92432150Y-77595480D01*
X92411107Y-77582868D01*
X92391401Y-77568253D01*
X92373223Y-77551777D01*
X92356747Y-77533599D01*
X92342132Y-77513893D01*
X92329520Y-77492850D01*
X92319030Y-77470671D01*
X92310765Y-77447572D01*
X92304804Y-77423773D01*
X92301204Y-77399505D01*
X92300000Y-77375001D01*
X92300000Y-76724999D01*
X92301204Y-76700495D01*
X92304804Y-76676227D01*
X92310765Y-76652428D01*
X92319030Y-76629329D01*
X92329520Y-76607150D01*
X92342132Y-76586107D01*
X92356747Y-76566401D01*
X92373223Y-76548223D01*
X92391401Y-76531747D01*
X92411107Y-76517132D01*
X92432150Y-76504520D01*
X92454329Y-76494030D01*
X92477428Y-76485765D01*
X92501227Y-76479804D01*
X92525495Y-76476204D01*
X92549999Y-76475000D01*
X93450001Y-76475000D01*
X93474505Y-76476204D01*
X93474505Y-76476204D01*
G37*
D15*
X93000000Y-77050000D03*
D12*
G36*
X93474505Y-74426204D02*
X93498773Y-74429804D01*
X93522572Y-74435765D01*
X93545671Y-74444030D01*
X93567850Y-74454520D01*
X93588893Y-74467132D01*
X93608599Y-74481747D01*
X93626777Y-74498223D01*
X93643253Y-74516401D01*
X93657868Y-74536107D01*
X93670480Y-74557150D01*
X93680970Y-74579329D01*
X93689235Y-74602428D01*
X93695196Y-74626227D01*
X93698796Y-74650495D01*
X93700000Y-74674999D01*
X93700000Y-75325001D01*
X93698796Y-75349505D01*
X93695196Y-75373773D01*
X93689235Y-75397572D01*
X93680970Y-75420671D01*
X93670480Y-75442850D01*
X93657868Y-75463893D01*
X93643253Y-75483599D01*
X93626777Y-75501777D01*
X93608599Y-75518253D01*
X93588893Y-75532868D01*
X93567850Y-75545480D01*
X93545671Y-75555970D01*
X93522572Y-75564235D01*
X93498773Y-75570196D01*
X93474505Y-75573796D01*
X93450001Y-75575000D01*
X92549999Y-75575000D01*
X92525495Y-75573796D01*
X92501227Y-75570196D01*
X92477428Y-75564235D01*
X92454329Y-75555970D01*
X92432150Y-75545480D01*
X92411107Y-75532868D01*
X92391401Y-75518253D01*
X92373223Y-75501777D01*
X92356747Y-75483599D01*
X92342132Y-75463893D01*
X92329520Y-75442850D01*
X92319030Y-75420671D01*
X92310765Y-75397572D01*
X92304804Y-75373773D01*
X92301204Y-75349505D01*
X92300000Y-75325001D01*
X92300000Y-74674999D01*
X92301204Y-74650495D01*
X92304804Y-74626227D01*
X92310765Y-74602428D01*
X92319030Y-74579329D01*
X92329520Y-74557150D01*
X92342132Y-74536107D01*
X92356747Y-74516401D01*
X92373223Y-74498223D01*
X92391401Y-74481747D01*
X92411107Y-74467132D01*
X92432150Y-74454520D01*
X92454329Y-74444030D01*
X92477428Y-74435765D01*
X92501227Y-74429804D01*
X92525495Y-74426204D01*
X92549999Y-74425000D01*
X93450001Y-74425000D01*
X93474505Y-74426204D01*
X93474505Y-74426204D01*
G37*
D15*
X93000000Y-75000000D03*
G04 #@! TD*
D12*
G04 #@! TO.C,R22*
G36*
X96974505Y-76476204D02*
X96998773Y-76479804D01*
X97022572Y-76485765D01*
X97045671Y-76494030D01*
X97067850Y-76504520D01*
X97088893Y-76517132D01*
X97108599Y-76531747D01*
X97126777Y-76548223D01*
X97143253Y-76566401D01*
X97157868Y-76586107D01*
X97170480Y-76607150D01*
X97180970Y-76629329D01*
X97189235Y-76652428D01*
X97195196Y-76676227D01*
X97198796Y-76700495D01*
X97200000Y-76724999D01*
X97200000Y-77375001D01*
X97198796Y-77399505D01*
X97195196Y-77423773D01*
X97189235Y-77447572D01*
X97180970Y-77470671D01*
X97170480Y-77492850D01*
X97157868Y-77513893D01*
X97143253Y-77533599D01*
X97126777Y-77551777D01*
X97108599Y-77568253D01*
X97088893Y-77582868D01*
X97067850Y-77595480D01*
X97045671Y-77605970D01*
X97022572Y-77614235D01*
X96998773Y-77620196D01*
X96974505Y-77623796D01*
X96950001Y-77625000D01*
X96049999Y-77625000D01*
X96025495Y-77623796D01*
X96001227Y-77620196D01*
X95977428Y-77614235D01*
X95954329Y-77605970D01*
X95932150Y-77595480D01*
X95911107Y-77582868D01*
X95891401Y-77568253D01*
X95873223Y-77551777D01*
X95856747Y-77533599D01*
X95842132Y-77513893D01*
X95829520Y-77492850D01*
X95819030Y-77470671D01*
X95810765Y-77447572D01*
X95804804Y-77423773D01*
X95801204Y-77399505D01*
X95800000Y-77375001D01*
X95800000Y-76724999D01*
X95801204Y-76700495D01*
X95804804Y-76676227D01*
X95810765Y-76652428D01*
X95819030Y-76629329D01*
X95829520Y-76607150D01*
X95842132Y-76586107D01*
X95856747Y-76566401D01*
X95873223Y-76548223D01*
X95891401Y-76531747D01*
X95911107Y-76517132D01*
X95932150Y-76504520D01*
X95954329Y-76494030D01*
X95977428Y-76485765D01*
X96001227Y-76479804D01*
X96025495Y-76476204D01*
X96049999Y-76475000D01*
X96950001Y-76475000D01*
X96974505Y-76476204D01*
X96974505Y-76476204D01*
G37*
D15*
X96500000Y-77050000D03*
D12*
G36*
X96974505Y-74426204D02*
X96998773Y-74429804D01*
X97022572Y-74435765D01*
X97045671Y-74444030D01*
X97067850Y-74454520D01*
X97088893Y-74467132D01*
X97108599Y-74481747D01*
X97126777Y-74498223D01*
X97143253Y-74516401D01*
X97157868Y-74536107D01*
X97170480Y-74557150D01*
X97180970Y-74579329D01*
X97189235Y-74602428D01*
X97195196Y-74626227D01*
X97198796Y-74650495D01*
X97200000Y-74674999D01*
X97200000Y-75325001D01*
X97198796Y-75349505D01*
X97195196Y-75373773D01*
X97189235Y-75397572D01*
X97180970Y-75420671D01*
X97170480Y-75442850D01*
X97157868Y-75463893D01*
X97143253Y-75483599D01*
X97126777Y-75501777D01*
X97108599Y-75518253D01*
X97088893Y-75532868D01*
X97067850Y-75545480D01*
X97045671Y-75555970D01*
X97022572Y-75564235D01*
X96998773Y-75570196D01*
X96974505Y-75573796D01*
X96950001Y-75575000D01*
X96049999Y-75575000D01*
X96025495Y-75573796D01*
X96001227Y-75570196D01*
X95977428Y-75564235D01*
X95954329Y-75555970D01*
X95932150Y-75545480D01*
X95911107Y-75532868D01*
X95891401Y-75518253D01*
X95873223Y-75501777D01*
X95856747Y-75483599D01*
X95842132Y-75463893D01*
X95829520Y-75442850D01*
X95819030Y-75420671D01*
X95810765Y-75397572D01*
X95804804Y-75373773D01*
X95801204Y-75349505D01*
X95800000Y-75325001D01*
X95800000Y-74674999D01*
X95801204Y-74650495D01*
X95804804Y-74626227D01*
X95810765Y-74602428D01*
X95819030Y-74579329D01*
X95829520Y-74557150D01*
X95842132Y-74536107D01*
X95856747Y-74516401D01*
X95873223Y-74498223D01*
X95891401Y-74481747D01*
X95911107Y-74467132D01*
X95932150Y-74454520D01*
X95954329Y-74444030D01*
X95977428Y-74435765D01*
X96001227Y-74429804D01*
X96025495Y-74426204D01*
X96049999Y-74425000D01*
X96950001Y-74425000D01*
X96974505Y-74426204D01*
X96974505Y-74426204D01*
G37*
D15*
X96500000Y-75000000D03*
G04 #@! TD*
D12*
G04 #@! TO.C,R23*
G36*
X107974505Y-74288529D02*
X107998773Y-74292129D01*
X108022572Y-74298090D01*
X108045671Y-74306355D01*
X108067850Y-74316845D01*
X108088893Y-74329457D01*
X108108599Y-74344072D01*
X108126777Y-74360548D01*
X108143253Y-74378726D01*
X108157868Y-74398432D01*
X108170480Y-74419475D01*
X108180970Y-74441654D01*
X108189235Y-74464753D01*
X108195196Y-74488552D01*
X108198796Y-74512820D01*
X108200000Y-74537324D01*
X108200000Y-75187326D01*
X108198796Y-75211830D01*
X108195196Y-75236098D01*
X108189235Y-75259897D01*
X108180970Y-75282996D01*
X108170480Y-75305175D01*
X108157868Y-75326218D01*
X108143253Y-75345924D01*
X108126777Y-75364102D01*
X108108599Y-75380578D01*
X108088893Y-75395193D01*
X108067850Y-75407805D01*
X108045671Y-75418295D01*
X108022572Y-75426560D01*
X107998773Y-75432521D01*
X107974505Y-75436121D01*
X107950001Y-75437325D01*
X107049999Y-75437325D01*
X107025495Y-75436121D01*
X107001227Y-75432521D01*
X106977428Y-75426560D01*
X106954329Y-75418295D01*
X106932150Y-75407805D01*
X106911107Y-75395193D01*
X106891401Y-75380578D01*
X106873223Y-75364102D01*
X106856747Y-75345924D01*
X106842132Y-75326218D01*
X106829520Y-75305175D01*
X106819030Y-75282996D01*
X106810765Y-75259897D01*
X106804804Y-75236098D01*
X106801204Y-75211830D01*
X106800000Y-75187326D01*
X106800000Y-74537324D01*
X106801204Y-74512820D01*
X106804804Y-74488552D01*
X106810765Y-74464753D01*
X106819030Y-74441654D01*
X106829520Y-74419475D01*
X106842132Y-74398432D01*
X106856747Y-74378726D01*
X106873223Y-74360548D01*
X106891401Y-74344072D01*
X106911107Y-74329457D01*
X106932150Y-74316845D01*
X106954329Y-74306355D01*
X106977428Y-74298090D01*
X107001227Y-74292129D01*
X107025495Y-74288529D01*
X107049999Y-74287325D01*
X107950001Y-74287325D01*
X107974505Y-74288529D01*
X107974505Y-74288529D01*
G37*
D15*
X107500000Y-74862325D03*
D12*
G36*
X107974505Y-76338529D02*
X107998773Y-76342129D01*
X108022572Y-76348090D01*
X108045671Y-76356355D01*
X108067850Y-76366845D01*
X108088893Y-76379457D01*
X108108599Y-76394072D01*
X108126777Y-76410548D01*
X108143253Y-76428726D01*
X108157868Y-76448432D01*
X108170480Y-76469475D01*
X108180970Y-76491654D01*
X108189235Y-76514753D01*
X108195196Y-76538552D01*
X108198796Y-76562820D01*
X108200000Y-76587324D01*
X108200000Y-77237326D01*
X108198796Y-77261830D01*
X108195196Y-77286098D01*
X108189235Y-77309897D01*
X108180970Y-77332996D01*
X108170480Y-77355175D01*
X108157868Y-77376218D01*
X108143253Y-77395924D01*
X108126777Y-77414102D01*
X108108599Y-77430578D01*
X108088893Y-77445193D01*
X108067850Y-77457805D01*
X108045671Y-77468295D01*
X108022572Y-77476560D01*
X107998773Y-77482521D01*
X107974505Y-77486121D01*
X107950001Y-77487325D01*
X107049999Y-77487325D01*
X107025495Y-77486121D01*
X107001227Y-77482521D01*
X106977428Y-77476560D01*
X106954329Y-77468295D01*
X106932150Y-77457805D01*
X106911107Y-77445193D01*
X106891401Y-77430578D01*
X106873223Y-77414102D01*
X106856747Y-77395924D01*
X106842132Y-77376218D01*
X106829520Y-77355175D01*
X106819030Y-77332996D01*
X106810765Y-77309897D01*
X106804804Y-77286098D01*
X106801204Y-77261830D01*
X106800000Y-77237326D01*
X106800000Y-76587324D01*
X106801204Y-76562820D01*
X106804804Y-76538552D01*
X106810765Y-76514753D01*
X106819030Y-76491654D01*
X106829520Y-76469475D01*
X106842132Y-76448432D01*
X106856747Y-76428726D01*
X106873223Y-76410548D01*
X106891401Y-76394072D01*
X106911107Y-76379457D01*
X106932150Y-76366845D01*
X106954329Y-76356355D01*
X106977428Y-76348090D01*
X107001227Y-76342129D01*
X107025495Y-76338529D01*
X107049999Y-76337325D01*
X107950001Y-76337325D01*
X107974505Y-76338529D01*
X107974505Y-76338529D01*
G37*
D15*
X107500000Y-76912325D03*
G04 #@! TD*
D12*
G04 #@! TO.C,R24*
G36*
X111474505Y-74426204D02*
X111498773Y-74429804D01*
X111522572Y-74435765D01*
X111545671Y-74444030D01*
X111567850Y-74454520D01*
X111588893Y-74467132D01*
X111608599Y-74481747D01*
X111626777Y-74498223D01*
X111643253Y-74516401D01*
X111657868Y-74536107D01*
X111670480Y-74557150D01*
X111680970Y-74579329D01*
X111689235Y-74602428D01*
X111695196Y-74626227D01*
X111698796Y-74650495D01*
X111700000Y-74674999D01*
X111700000Y-75325001D01*
X111698796Y-75349505D01*
X111695196Y-75373773D01*
X111689235Y-75397572D01*
X111680970Y-75420671D01*
X111670480Y-75442850D01*
X111657868Y-75463893D01*
X111643253Y-75483599D01*
X111626777Y-75501777D01*
X111608599Y-75518253D01*
X111588893Y-75532868D01*
X111567850Y-75545480D01*
X111545671Y-75555970D01*
X111522572Y-75564235D01*
X111498773Y-75570196D01*
X111474505Y-75573796D01*
X111450001Y-75575000D01*
X110549999Y-75575000D01*
X110525495Y-75573796D01*
X110501227Y-75570196D01*
X110477428Y-75564235D01*
X110454329Y-75555970D01*
X110432150Y-75545480D01*
X110411107Y-75532868D01*
X110391401Y-75518253D01*
X110373223Y-75501777D01*
X110356747Y-75483599D01*
X110342132Y-75463893D01*
X110329520Y-75442850D01*
X110319030Y-75420671D01*
X110310765Y-75397572D01*
X110304804Y-75373773D01*
X110301204Y-75349505D01*
X110300000Y-75325001D01*
X110300000Y-74674999D01*
X110301204Y-74650495D01*
X110304804Y-74626227D01*
X110310765Y-74602428D01*
X110319030Y-74579329D01*
X110329520Y-74557150D01*
X110342132Y-74536107D01*
X110356747Y-74516401D01*
X110373223Y-74498223D01*
X110391401Y-74481747D01*
X110411107Y-74467132D01*
X110432150Y-74454520D01*
X110454329Y-74444030D01*
X110477428Y-74435765D01*
X110501227Y-74429804D01*
X110525495Y-74426204D01*
X110549999Y-74425000D01*
X111450001Y-74425000D01*
X111474505Y-74426204D01*
X111474505Y-74426204D01*
G37*
D15*
X111000000Y-75000000D03*
D12*
G36*
X111474505Y-76476204D02*
X111498773Y-76479804D01*
X111522572Y-76485765D01*
X111545671Y-76494030D01*
X111567850Y-76504520D01*
X111588893Y-76517132D01*
X111608599Y-76531747D01*
X111626777Y-76548223D01*
X111643253Y-76566401D01*
X111657868Y-76586107D01*
X111670480Y-76607150D01*
X111680970Y-76629329D01*
X111689235Y-76652428D01*
X111695196Y-76676227D01*
X111698796Y-76700495D01*
X111700000Y-76724999D01*
X111700000Y-77375001D01*
X111698796Y-77399505D01*
X111695196Y-77423773D01*
X111689235Y-77447572D01*
X111680970Y-77470671D01*
X111670480Y-77492850D01*
X111657868Y-77513893D01*
X111643253Y-77533599D01*
X111626777Y-77551777D01*
X111608599Y-77568253D01*
X111588893Y-77582868D01*
X111567850Y-77595480D01*
X111545671Y-77605970D01*
X111522572Y-77614235D01*
X111498773Y-77620196D01*
X111474505Y-77623796D01*
X111450001Y-77625000D01*
X110549999Y-77625000D01*
X110525495Y-77623796D01*
X110501227Y-77620196D01*
X110477428Y-77614235D01*
X110454329Y-77605970D01*
X110432150Y-77595480D01*
X110411107Y-77582868D01*
X110391401Y-77568253D01*
X110373223Y-77551777D01*
X110356747Y-77533599D01*
X110342132Y-77513893D01*
X110329520Y-77492850D01*
X110319030Y-77470671D01*
X110310765Y-77447572D01*
X110304804Y-77423773D01*
X110301204Y-77399505D01*
X110300000Y-77375001D01*
X110300000Y-76724999D01*
X110301204Y-76700495D01*
X110304804Y-76676227D01*
X110310765Y-76652428D01*
X110319030Y-76629329D01*
X110329520Y-76607150D01*
X110342132Y-76586107D01*
X110356747Y-76566401D01*
X110373223Y-76548223D01*
X110391401Y-76531747D01*
X110411107Y-76517132D01*
X110432150Y-76504520D01*
X110454329Y-76494030D01*
X110477428Y-76485765D01*
X110501227Y-76479804D01*
X110525495Y-76476204D01*
X110549999Y-76475000D01*
X111450001Y-76475000D01*
X111474505Y-76476204D01*
X111474505Y-76476204D01*
G37*
D15*
X111000000Y-77050000D03*
G04 #@! TD*
D12*
G04 #@! TO.C,R25*
G36*
X100474505Y-76451204D02*
X100498773Y-76454804D01*
X100522572Y-76460765D01*
X100545671Y-76469030D01*
X100567850Y-76479520D01*
X100588893Y-76492132D01*
X100608599Y-76506747D01*
X100626777Y-76523223D01*
X100643253Y-76541401D01*
X100657868Y-76561107D01*
X100670480Y-76582150D01*
X100680970Y-76604329D01*
X100689235Y-76627428D01*
X100695196Y-76651227D01*
X100698796Y-76675495D01*
X100700000Y-76699999D01*
X100700000Y-77350001D01*
X100698796Y-77374505D01*
X100695196Y-77398773D01*
X100689235Y-77422572D01*
X100680970Y-77445671D01*
X100670480Y-77467850D01*
X100657868Y-77488893D01*
X100643253Y-77508599D01*
X100626777Y-77526777D01*
X100608599Y-77543253D01*
X100588893Y-77557868D01*
X100567850Y-77570480D01*
X100545671Y-77580970D01*
X100522572Y-77589235D01*
X100498773Y-77595196D01*
X100474505Y-77598796D01*
X100450001Y-77600000D01*
X99549999Y-77600000D01*
X99525495Y-77598796D01*
X99501227Y-77595196D01*
X99477428Y-77589235D01*
X99454329Y-77580970D01*
X99432150Y-77570480D01*
X99411107Y-77557868D01*
X99391401Y-77543253D01*
X99373223Y-77526777D01*
X99356747Y-77508599D01*
X99342132Y-77488893D01*
X99329520Y-77467850D01*
X99319030Y-77445671D01*
X99310765Y-77422572D01*
X99304804Y-77398773D01*
X99301204Y-77374505D01*
X99300000Y-77350001D01*
X99300000Y-76699999D01*
X99301204Y-76675495D01*
X99304804Y-76651227D01*
X99310765Y-76627428D01*
X99319030Y-76604329D01*
X99329520Y-76582150D01*
X99342132Y-76561107D01*
X99356747Y-76541401D01*
X99373223Y-76523223D01*
X99391401Y-76506747D01*
X99411107Y-76492132D01*
X99432150Y-76479520D01*
X99454329Y-76469030D01*
X99477428Y-76460765D01*
X99501227Y-76454804D01*
X99525495Y-76451204D01*
X99549999Y-76450000D01*
X100450001Y-76450000D01*
X100474505Y-76451204D01*
X100474505Y-76451204D01*
G37*
D15*
X100000000Y-77025000D03*
D12*
G36*
X100474505Y-74401204D02*
X100498773Y-74404804D01*
X100522572Y-74410765D01*
X100545671Y-74419030D01*
X100567850Y-74429520D01*
X100588893Y-74442132D01*
X100608599Y-74456747D01*
X100626777Y-74473223D01*
X100643253Y-74491401D01*
X100657868Y-74511107D01*
X100670480Y-74532150D01*
X100680970Y-74554329D01*
X100689235Y-74577428D01*
X100695196Y-74601227D01*
X100698796Y-74625495D01*
X100700000Y-74649999D01*
X100700000Y-75300001D01*
X100698796Y-75324505D01*
X100695196Y-75348773D01*
X100689235Y-75372572D01*
X100680970Y-75395671D01*
X100670480Y-75417850D01*
X100657868Y-75438893D01*
X100643253Y-75458599D01*
X100626777Y-75476777D01*
X100608599Y-75493253D01*
X100588893Y-75507868D01*
X100567850Y-75520480D01*
X100545671Y-75530970D01*
X100522572Y-75539235D01*
X100498773Y-75545196D01*
X100474505Y-75548796D01*
X100450001Y-75550000D01*
X99549999Y-75550000D01*
X99525495Y-75548796D01*
X99501227Y-75545196D01*
X99477428Y-75539235D01*
X99454329Y-75530970D01*
X99432150Y-75520480D01*
X99411107Y-75507868D01*
X99391401Y-75493253D01*
X99373223Y-75476777D01*
X99356747Y-75458599D01*
X99342132Y-75438893D01*
X99329520Y-75417850D01*
X99319030Y-75395671D01*
X99310765Y-75372572D01*
X99304804Y-75348773D01*
X99301204Y-75324505D01*
X99300000Y-75300001D01*
X99300000Y-74649999D01*
X99301204Y-74625495D01*
X99304804Y-74601227D01*
X99310765Y-74577428D01*
X99319030Y-74554329D01*
X99329520Y-74532150D01*
X99342132Y-74511107D01*
X99356747Y-74491401D01*
X99373223Y-74473223D01*
X99391401Y-74456747D01*
X99411107Y-74442132D01*
X99432150Y-74429520D01*
X99454329Y-74419030D01*
X99477428Y-74410765D01*
X99501227Y-74404804D01*
X99525495Y-74401204D01*
X99549999Y-74400000D01*
X100450001Y-74400000D01*
X100474505Y-74401204D01*
X100474505Y-74401204D01*
G37*
D15*
X100000000Y-74975000D03*
G04 #@! TD*
D16*
G04 #@! TO.C,SW2*
X121100000Y-139000000D03*
X128900000Y-139000000D03*
G04 #@! TD*
D12*
G04 #@! TO.C,R26*
G36*
X101304506Y-56750950D02*
X101328774Y-56754550D01*
X101352573Y-56760511D01*
X101375672Y-56768776D01*
X101397851Y-56779266D01*
X101418894Y-56791878D01*
X101438600Y-56806493D01*
X101456778Y-56822969D01*
X101473254Y-56841147D01*
X101487869Y-56860853D01*
X101500481Y-56881896D01*
X101510971Y-56904075D01*
X101519236Y-56927174D01*
X101525197Y-56950973D01*
X101528797Y-56975241D01*
X101530001Y-56999745D01*
X101530001Y-57899747D01*
X101528797Y-57924251D01*
X101525197Y-57948519D01*
X101519236Y-57972318D01*
X101510971Y-57995417D01*
X101500481Y-58017596D01*
X101487869Y-58038639D01*
X101473254Y-58058345D01*
X101456778Y-58076523D01*
X101438600Y-58092999D01*
X101418894Y-58107614D01*
X101397851Y-58120226D01*
X101375672Y-58130716D01*
X101352573Y-58138981D01*
X101328774Y-58144942D01*
X101304506Y-58148542D01*
X101280002Y-58149746D01*
X100630000Y-58149746D01*
X100605496Y-58148542D01*
X100581228Y-58144942D01*
X100557429Y-58138981D01*
X100534330Y-58130716D01*
X100512151Y-58120226D01*
X100491108Y-58107614D01*
X100471402Y-58092999D01*
X100453224Y-58076523D01*
X100436748Y-58058345D01*
X100422133Y-58038639D01*
X100409521Y-58017596D01*
X100399031Y-57995417D01*
X100390766Y-57972318D01*
X100384805Y-57948519D01*
X100381205Y-57924251D01*
X100380001Y-57899747D01*
X100380001Y-56999745D01*
X100381205Y-56975241D01*
X100384805Y-56950973D01*
X100390766Y-56927174D01*
X100399031Y-56904075D01*
X100409521Y-56881896D01*
X100422133Y-56860853D01*
X100436748Y-56841147D01*
X100453224Y-56822969D01*
X100471402Y-56806493D01*
X100491108Y-56791878D01*
X100512151Y-56779266D01*
X100534330Y-56768776D01*
X100557429Y-56760511D01*
X100581228Y-56754550D01*
X100605496Y-56750950D01*
X100630000Y-56749746D01*
X101280002Y-56749746D01*
X101304506Y-56750950D01*
X101304506Y-56750950D01*
G37*
D15*
X100955001Y-57449746D03*
D12*
G36*
X103354506Y-56750950D02*
X103378774Y-56754550D01*
X103402573Y-56760511D01*
X103425672Y-56768776D01*
X103447851Y-56779266D01*
X103468894Y-56791878D01*
X103488600Y-56806493D01*
X103506778Y-56822969D01*
X103523254Y-56841147D01*
X103537869Y-56860853D01*
X103550481Y-56881896D01*
X103560971Y-56904075D01*
X103569236Y-56927174D01*
X103575197Y-56950973D01*
X103578797Y-56975241D01*
X103580001Y-56999745D01*
X103580001Y-57899747D01*
X103578797Y-57924251D01*
X103575197Y-57948519D01*
X103569236Y-57972318D01*
X103560971Y-57995417D01*
X103550481Y-58017596D01*
X103537869Y-58038639D01*
X103523254Y-58058345D01*
X103506778Y-58076523D01*
X103488600Y-58092999D01*
X103468894Y-58107614D01*
X103447851Y-58120226D01*
X103425672Y-58130716D01*
X103402573Y-58138981D01*
X103378774Y-58144942D01*
X103354506Y-58148542D01*
X103330002Y-58149746D01*
X102680000Y-58149746D01*
X102655496Y-58148542D01*
X102631228Y-58144942D01*
X102607429Y-58138981D01*
X102584330Y-58130716D01*
X102562151Y-58120226D01*
X102541108Y-58107614D01*
X102521402Y-58092999D01*
X102503224Y-58076523D01*
X102486748Y-58058345D01*
X102472133Y-58038639D01*
X102459521Y-58017596D01*
X102449031Y-57995417D01*
X102440766Y-57972318D01*
X102434805Y-57948519D01*
X102431205Y-57924251D01*
X102430001Y-57899747D01*
X102430001Y-56999745D01*
X102431205Y-56975241D01*
X102434805Y-56950973D01*
X102440766Y-56927174D01*
X102449031Y-56904075D01*
X102459521Y-56881896D01*
X102472133Y-56860853D01*
X102486748Y-56841147D01*
X102503224Y-56822969D01*
X102521402Y-56806493D01*
X102541108Y-56791878D01*
X102562151Y-56779266D01*
X102584330Y-56768776D01*
X102607429Y-56760511D01*
X102631228Y-56754550D01*
X102655496Y-56750950D01*
X102680000Y-56749746D01*
X103330002Y-56749746D01*
X103354506Y-56750950D01*
X103354506Y-56750950D01*
G37*
D15*
X103005001Y-57449746D03*
G04 #@! TD*
D12*
G04 #@! TO.C,R27*
G36*
X85174505Y-56401204D02*
X85198773Y-56404804D01*
X85222572Y-56410765D01*
X85245671Y-56419030D01*
X85267850Y-56429520D01*
X85288893Y-56442132D01*
X85308599Y-56456747D01*
X85326777Y-56473223D01*
X85343253Y-56491401D01*
X85357868Y-56511107D01*
X85370480Y-56532150D01*
X85380970Y-56554329D01*
X85389235Y-56577428D01*
X85395196Y-56601227D01*
X85398796Y-56625495D01*
X85400000Y-56649999D01*
X85400000Y-57300001D01*
X85398796Y-57324505D01*
X85395196Y-57348773D01*
X85389235Y-57372572D01*
X85380970Y-57395671D01*
X85370480Y-57417850D01*
X85357868Y-57438893D01*
X85343253Y-57458599D01*
X85326777Y-57476777D01*
X85308599Y-57493253D01*
X85288893Y-57507868D01*
X85267850Y-57520480D01*
X85245671Y-57530970D01*
X85222572Y-57539235D01*
X85198773Y-57545196D01*
X85174505Y-57548796D01*
X85150001Y-57550000D01*
X84249999Y-57550000D01*
X84225495Y-57548796D01*
X84201227Y-57545196D01*
X84177428Y-57539235D01*
X84154329Y-57530970D01*
X84132150Y-57520480D01*
X84111107Y-57507868D01*
X84091401Y-57493253D01*
X84073223Y-57476777D01*
X84056747Y-57458599D01*
X84042132Y-57438893D01*
X84029520Y-57417850D01*
X84019030Y-57395671D01*
X84010765Y-57372572D01*
X84004804Y-57348773D01*
X84001204Y-57324505D01*
X84000000Y-57300001D01*
X84000000Y-56649999D01*
X84001204Y-56625495D01*
X84004804Y-56601227D01*
X84010765Y-56577428D01*
X84019030Y-56554329D01*
X84029520Y-56532150D01*
X84042132Y-56511107D01*
X84056747Y-56491401D01*
X84073223Y-56473223D01*
X84091401Y-56456747D01*
X84111107Y-56442132D01*
X84132150Y-56429520D01*
X84154329Y-56419030D01*
X84177428Y-56410765D01*
X84201227Y-56404804D01*
X84225495Y-56401204D01*
X84249999Y-56400000D01*
X85150001Y-56400000D01*
X85174505Y-56401204D01*
X85174505Y-56401204D01*
G37*
D15*
X84700000Y-56975000D03*
D12*
G36*
X85174505Y-58451204D02*
X85198773Y-58454804D01*
X85222572Y-58460765D01*
X85245671Y-58469030D01*
X85267850Y-58479520D01*
X85288893Y-58492132D01*
X85308599Y-58506747D01*
X85326777Y-58523223D01*
X85343253Y-58541401D01*
X85357868Y-58561107D01*
X85370480Y-58582150D01*
X85380970Y-58604329D01*
X85389235Y-58627428D01*
X85395196Y-58651227D01*
X85398796Y-58675495D01*
X85400000Y-58699999D01*
X85400000Y-59350001D01*
X85398796Y-59374505D01*
X85395196Y-59398773D01*
X85389235Y-59422572D01*
X85380970Y-59445671D01*
X85370480Y-59467850D01*
X85357868Y-59488893D01*
X85343253Y-59508599D01*
X85326777Y-59526777D01*
X85308599Y-59543253D01*
X85288893Y-59557868D01*
X85267850Y-59570480D01*
X85245671Y-59580970D01*
X85222572Y-59589235D01*
X85198773Y-59595196D01*
X85174505Y-59598796D01*
X85150001Y-59600000D01*
X84249999Y-59600000D01*
X84225495Y-59598796D01*
X84201227Y-59595196D01*
X84177428Y-59589235D01*
X84154329Y-59580970D01*
X84132150Y-59570480D01*
X84111107Y-59557868D01*
X84091401Y-59543253D01*
X84073223Y-59526777D01*
X84056747Y-59508599D01*
X84042132Y-59488893D01*
X84029520Y-59467850D01*
X84019030Y-59445671D01*
X84010765Y-59422572D01*
X84004804Y-59398773D01*
X84001204Y-59374505D01*
X84000000Y-59350001D01*
X84000000Y-58699999D01*
X84001204Y-58675495D01*
X84004804Y-58651227D01*
X84010765Y-58627428D01*
X84019030Y-58604329D01*
X84029520Y-58582150D01*
X84042132Y-58561107D01*
X84056747Y-58541401D01*
X84073223Y-58523223D01*
X84091401Y-58506747D01*
X84111107Y-58492132D01*
X84132150Y-58479520D01*
X84154329Y-58469030D01*
X84177428Y-58460765D01*
X84201227Y-58454804D01*
X84225495Y-58451204D01*
X84249999Y-58450000D01*
X85150001Y-58450000D01*
X85174505Y-58451204D01*
X85174505Y-58451204D01*
G37*
D15*
X84700000Y-59025000D03*
G04 #@! TD*
D12*
G04 #@! TO.C,R28*
G36*
X94474505Y-53451204D02*
X94498773Y-53454804D01*
X94522572Y-53460765D01*
X94545671Y-53469030D01*
X94567850Y-53479520D01*
X94588893Y-53492132D01*
X94608599Y-53506747D01*
X94626777Y-53523223D01*
X94643253Y-53541401D01*
X94657868Y-53561107D01*
X94670480Y-53582150D01*
X94680970Y-53604329D01*
X94689235Y-53627428D01*
X94695196Y-53651227D01*
X94698796Y-53675495D01*
X94700000Y-53699999D01*
X94700000Y-54350001D01*
X94698796Y-54374505D01*
X94695196Y-54398773D01*
X94689235Y-54422572D01*
X94680970Y-54445671D01*
X94670480Y-54467850D01*
X94657868Y-54488893D01*
X94643253Y-54508599D01*
X94626777Y-54526777D01*
X94608599Y-54543253D01*
X94588893Y-54557868D01*
X94567850Y-54570480D01*
X94545671Y-54580970D01*
X94522572Y-54589235D01*
X94498773Y-54595196D01*
X94474505Y-54598796D01*
X94450001Y-54600000D01*
X93549999Y-54600000D01*
X93525495Y-54598796D01*
X93501227Y-54595196D01*
X93477428Y-54589235D01*
X93454329Y-54580970D01*
X93432150Y-54570480D01*
X93411107Y-54557868D01*
X93391401Y-54543253D01*
X93373223Y-54526777D01*
X93356747Y-54508599D01*
X93342132Y-54488893D01*
X93329520Y-54467850D01*
X93319030Y-54445671D01*
X93310765Y-54422572D01*
X93304804Y-54398773D01*
X93301204Y-54374505D01*
X93300000Y-54350001D01*
X93300000Y-53699999D01*
X93301204Y-53675495D01*
X93304804Y-53651227D01*
X93310765Y-53627428D01*
X93319030Y-53604329D01*
X93329520Y-53582150D01*
X93342132Y-53561107D01*
X93356747Y-53541401D01*
X93373223Y-53523223D01*
X93391401Y-53506747D01*
X93411107Y-53492132D01*
X93432150Y-53479520D01*
X93454329Y-53469030D01*
X93477428Y-53460765D01*
X93501227Y-53454804D01*
X93525495Y-53451204D01*
X93549999Y-53450000D01*
X94450001Y-53450000D01*
X94474505Y-53451204D01*
X94474505Y-53451204D01*
G37*
D15*
X94000000Y-54025000D03*
D12*
G36*
X94474505Y-51401204D02*
X94498773Y-51404804D01*
X94522572Y-51410765D01*
X94545671Y-51419030D01*
X94567850Y-51429520D01*
X94588893Y-51442132D01*
X94608599Y-51456747D01*
X94626777Y-51473223D01*
X94643253Y-51491401D01*
X94657868Y-51511107D01*
X94670480Y-51532150D01*
X94680970Y-51554329D01*
X94689235Y-51577428D01*
X94695196Y-51601227D01*
X94698796Y-51625495D01*
X94700000Y-51649999D01*
X94700000Y-52300001D01*
X94698796Y-52324505D01*
X94695196Y-52348773D01*
X94689235Y-52372572D01*
X94680970Y-52395671D01*
X94670480Y-52417850D01*
X94657868Y-52438893D01*
X94643253Y-52458599D01*
X94626777Y-52476777D01*
X94608599Y-52493253D01*
X94588893Y-52507868D01*
X94567850Y-52520480D01*
X94545671Y-52530970D01*
X94522572Y-52539235D01*
X94498773Y-52545196D01*
X94474505Y-52548796D01*
X94450001Y-52550000D01*
X93549999Y-52550000D01*
X93525495Y-52548796D01*
X93501227Y-52545196D01*
X93477428Y-52539235D01*
X93454329Y-52530970D01*
X93432150Y-52520480D01*
X93411107Y-52507868D01*
X93391401Y-52493253D01*
X93373223Y-52476777D01*
X93356747Y-52458599D01*
X93342132Y-52438893D01*
X93329520Y-52417850D01*
X93319030Y-52395671D01*
X93310765Y-52372572D01*
X93304804Y-52348773D01*
X93301204Y-52324505D01*
X93300000Y-52300001D01*
X93300000Y-51649999D01*
X93301204Y-51625495D01*
X93304804Y-51601227D01*
X93310765Y-51577428D01*
X93319030Y-51554329D01*
X93329520Y-51532150D01*
X93342132Y-51511107D01*
X93356747Y-51491401D01*
X93373223Y-51473223D01*
X93391401Y-51456747D01*
X93411107Y-51442132D01*
X93432150Y-51429520D01*
X93454329Y-51419030D01*
X93477428Y-51410765D01*
X93501227Y-51404804D01*
X93525495Y-51401204D01*
X93549999Y-51400000D01*
X94450001Y-51400000D01*
X94474505Y-51401204D01*
X94474505Y-51401204D01*
G37*
D15*
X94000000Y-51975000D03*
G04 #@! TD*
D12*
G04 #@! TO.C,R29*
G36*
X110474505Y-51426204D02*
X110498773Y-51429804D01*
X110522572Y-51435765D01*
X110545671Y-51444030D01*
X110567850Y-51454520D01*
X110588893Y-51467132D01*
X110608599Y-51481747D01*
X110626777Y-51498223D01*
X110643253Y-51516401D01*
X110657868Y-51536107D01*
X110670480Y-51557150D01*
X110680970Y-51579329D01*
X110689235Y-51602428D01*
X110695196Y-51626227D01*
X110698796Y-51650495D01*
X110700000Y-51674999D01*
X110700000Y-52325001D01*
X110698796Y-52349505D01*
X110695196Y-52373773D01*
X110689235Y-52397572D01*
X110680970Y-52420671D01*
X110670480Y-52442850D01*
X110657868Y-52463893D01*
X110643253Y-52483599D01*
X110626777Y-52501777D01*
X110608599Y-52518253D01*
X110588893Y-52532868D01*
X110567850Y-52545480D01*
X110545671Y-52555970D01*
X110522572Y-52564235D01*
X110498773Y-52570196D01*
X110474505Y-52573796D01*
X110450001Y-52575000D01*
X109549999Y-52575000D01*
X109525495Y-52573796D01*
X109501227Y-52570196D01*
X109477428Y-52564235D01*
X109454329Y-52555970D01*
X109432150Y-52545480D01*
X109411107Y-52532868D01*
X109391401Y-52518253D01*
X109373223Y-52501777D01*
X109356747Y-52483599D01*
X109342132Y-52463893D01*
X109329520Y-52442850D01*
X109319030Y-52420671D01*
X109310765Y-52397572D01*
X109304804Y-52373773D01*
X109301204Y-52349505D01*
X109300000Y-52325001D01*
X109300000Y-51674999D01*
X109301204Y-51650495D01*
X109304804Y-51626227D01*
X109310765Y-51602428D01*
X109319030Y-51579329D01*
X109329520Y-51557150D01*
X109342132Y-51536107D01*
X109356747Y-51516401D01*
X109373223Y-51498223D01*
X109391401Y-51481747D01*
X109411107Y-51467132D01*
X109432150Y-51454520D01*
X109454329Y-51444030D01*
X109477428Y-51435765D01*
X109501227Y-51429804D01*
X109525495Y-51426204D01*
X109549999Y-51425000D01*
X110450001Y-51425000D01*
X110474505Y-51426204D01*
X110474505Y-51426204D01*
G37*
D15*
X110000000Y-52000000D03*
D12*
G36*
X110474505Y-53476204D02*
X110498773Y-53479804D01*
X110522572Y-53485765D01*
X110545671Y-53494030D01*
X110567850Y-53504520D01*
X110588893Y-53517132D01*
X110608599Y-53531747D01*
X110626777Y-53548223D01*
X110643253Y-53566401D01*
X110657868Y-53586107D01*
X110670480Y-53607150D01*
X110680970Y-53629329D01*
X110689235Y-53652428D01*
X110695196Y-53676227D01*
X110698796Y-53700495D01*
X110700000Y-53724999D01*
X110700000Y-54375001D01*
X110698796Y-54399505D01*
X110695196Y-54423773D01*
X110689235Y-54447572D01*
X110680970Y-54470671D01*
X110670480Y-54492850D01*
X110657868Y-54513893D01*
X110643253Y-54533599D01*
X110626777Y-54551777D01*
X110608599Y-54568253D01*
X110588893Y-54582868D01*
X110567850Y-54595480D01*
X110545671Y-54605970D01*
X110522572Y-54614235D01*
X110498773Y-54620196D01*
X110474505Y-54623796D01*
X110450001Y-54625000D01*
X109549999Y-54625000D01*
X109525495Y-54623796D01*
X109501227Y-54620196D01*
X109477428Y-54614235D01*
X109454329Y-54605970D01*
X109432150Y-54595480D01*
X109411107Y-54582868D01*
X109391401Y-54568253D01*
X109373223Y-54551777D01*
X109356747Y-54533599D01*
X109342132Y-54513893D01*
X109329520Y-54492850D01*
X109319030Y-54470671D01*
X109310765Y-54447572D01*
X109304804Y-54423773D01*
X109301204Y-54399505D01*
X109300000Y-54375001D01*
X109300000Y-53724999D01*
X109301204Y-53700495D01*
X109304804Y-53676227D01*
X109310765Y-53652428D01*
X109319030Y-53629329D01*
X109329520Y-53607150D01*
X109342132Y-53586107D01*
X109356747Y-53566401D01*
X109373223Y-53548223D01*
X109391401Y-53531747D01*
X109411107Y-53517132D01*
X109432150Y-53504520D01*
X109454329Y-53494030D01*
X109477428Y-53485765D01*
X109501227Y-53479804D01*
X109525495Y-53476204D01*
X109549999Y-53475000D01*
X110450001Y-53475000D01*
X110474505Y-53476204D01*
X110474505Y-53476204D01*
G37*
D15*
X110000000Y-54050000D03*
G04 #@! TD*
D12*
G04 #@! TO.C,R30*
G36*
X119474505Y-58451204D02*
X119498773Y-58454804D01*
X119522572Y-58460765D01*
X119545671Y-58469030D01*
X119567850Y-58479520D01*
X119588893Y-58492132D01*
X119608599Y-58506747D01*
X119626777Y-58523223D01*
X119643253Y-58541401D01*
X119657868Y-58561107D01*
X119670480Y-58582150D01*
X119680970Y-58604329D01*
X119689235Y-58627428D01*
X119695196Y-58651227D01*
X119698796Y-58675495D01*
X119700000Y-58699999D01*
X119700000Y-59350001D01*
X119698796Y-59374505D01*
X119695196Y-59398773D01*
X119689235Y-59422572D01*
X119680970Y-59445671D01*
X119670480Y-59467850D01*
X119657868Y-59488893D01*
X119643253Y-59508599D01*
X119626777Y-59526777D01*
X119608599Y-59543253D01*
X119588893Y-59557868D01*
X119567850Y-59570480D01*
X119545671Y-59580970D01*
X119522572Y-59589235D01*
X119498773Y-59595196D01*
X119474505Y-59598796D01*
X119450001Y-59600000D01*
X118549999Y-59600000D01*
X118525495Y-59598796D01*
X118501227Y-59595196D01*
X118477428Y-59589235D01*
X118454329Y-59580970D01*
X118432150Y-59570480D01*
X118411107Y-59557868D01*
X118391401Y-59543253D01*
X118373223Y-59526777D01*
X118356747Y-59508599D01*
X118342132Y-59488893D01*
X118329520Y-59467850D01*
X118319030Y-59445671D01*
X118310765Y-59422572D01*
X118304804Y-59398773D01*
X118301204Y-59374505D01*
X118300000Y-59350001D01*
X118300000Y-58699999D01*
X118301204Y-58675495D01*
X118304804Y-58651227D01*
X118310765Y-58627428D01*
X118319030Y-58604329D01*
X118329520Y-58582150D01*
X118342132Y-58561107D01*
X118356747Y-58541401D01*
X118373223Y-58523223D01*
X118391401Y-58506747D01*
X118411107Y-58492132D01*
X118432150Y-58479520D01*
X118454329Y-58469030D01*
X118477428Y-58460765D01*
X118501227Y-58454804D01*
X118525495Y-58451204D01*
X118549999Y-58450000D01*
X119450001Y-58450000D01*
X119474505Y-58451204D01*
X119474505Y-58451204D01*
G37*
D15*
X119000000Y-59025000D03*
D12*
G36*
X119474505Y-56401204D02*
X119498773Y-56404804D01*
X119522572Y-56410765D01*
X119545671Y-56419030D01*
X119567850Y-56429520D01*
X119588893Y-56442132D01*
X119608599Y-56456747D01*
X119626777Y-56473223D01*
X119643253Y-56491401D01*
X119657868Y-56511107D01*
X119670480Y-56532150D01*
X119680970Y-56554329D01*
X119689235Y-56577428D01*
X119695196Y-56601227D01*
X119698796Y-56625495D01*
X119700000Y-56649999D01*
X119700000Y-57300001D01*
X119698796Y-57324505D01*
X119695196Y-57348773D01*
X119689235Y-57372572D01*
X119680970Y-57395671D01*
X119670480Y-57417850D01*
X119657868Y-57438893D01*
X119643253Y-57458599D01*
X119626777Y-57476777D01*
X119608599Y-57493253D01*
X119588893Y-57507868D01*
X119567850Y-57520480D01*
X119545671Y-57530970D01*
X119522572Y-57539235D01*
X119498773Y-57545196D01*
X119474505Y-57548796D01*
X119450001Y-57550000D01*
X118549999Y-57550000D01*
X118525495Y-57548796D01*
X118501227Y-57545196D01*
X118477428Y-57539235D01*
X118454329Y-57530970D01*
X118432150Y-57520480D01*
X118411107Y-57507868D01*
X118391401Y-57493253D01*
X118373223Y-57476777D01*
X118356747Y-57458599D01*
X118342132Y-57438893D01*
X118329520Y-57417850D01*
X118319030Y-57395671D01*
X118310765Y-57372572D01*
X118304804Y-57348773D01*
X118301204Y-57324505D01*
X118300000Y-57300001D01*
X118300000Y-56649999D01*
X118301204Y-56625495D01*
X118304804Y-56601227D01*
X118310765Y-56577428D01*
X118319030Y-56554329D01*
X118329520Y-56532150D01*
X118342132Y-56511107D01*
X118356747Y-56491401D01*
X118373223Y-56473223D01*
X118391401Y-56456747D01*
X118411107Y-56442132D01*
X118432150Y-56429520D01*
X118454329Y-56419030D01*
X118477428Y-56410765D01*
X118501227Y-56404804D01*
X118525495Y-56401204D01*
X118549999Y-56400000D01*
X119450001Y-56400000D01*
X119474505Y-56401204D01*
X119474505Y-56401204D01*
G37*
D15*
X119000000Y-56975000D03*
G04 #@! TD*
D12*
G04 #@! TO.C,S9*
G36*
X103116858Y-50170951D02*
X103136030Y-50173795D01*
X103154831Y-50178504D01*
X103173080Y-50185034D01*
X103190601Y-50193321D01*
X103207225Y-50203285D01*
X103222793Y-50214830D01*
X103237154Y-50227846D01*
X103250170Y-50242207D01*
X103261715Y-50257775D01*
X103271679Y-50274399D01*
X103279966Y-50291920D01*
X103286496Y-50310169D01*
X103291205Y-50328970D01*
X103294049Y-50348142D01*
X103295000Y-50367500D01*
X103295000Y-51632500D01*
X103294049Y-51651858D01*
X103291205Y-51671030D01*
X103286496Y-51689831D01*
X103279966Y-51708080D01*
X103271679Y-51725601D01*
X103261715Y-51742225D01*
X103250170Y-51757793D01*
X103237154Y-51772154D01*
X103222793Y-51785170D01*
X103207225Y-51796715D01*
X103190601Y-51806679D01*
X103173080Y-51814966D01*
X103154831Y-51821496D01*
X103136030Y-51826205D01*
X103116858Y-51829049D01*
X103097500Y-51830000D01*
X102702500Y-51830000D01*
X102683142Y-51829049D01*
X102663970Y-51826205D01*
X102645169Y-51821496D01*
X102626920Y-51814966D01*
X102609399Y-51806679D01*
X102592775Y-51796715D01*
X102577207Y-51785170D01*
X102562846Y-51772154D01*
X102549830Y-51757793D01*
X102538285Y-51742225D01*
X102528321Y-51725601D01*
X102520034Y-51708080D01*
X102513504Y-51689831D01*
X102508795Y-51671030D01*
X102505951Y-51651858D01*
X102505000Y-51632500D01*
X102505000Y-50367500D01*
X102505951Y-50348142D01*
X102508795Y-50328970D01*
X102513504Y-50310169D01*
X102520034Y-50291920D01*
X102528321Y-50274399D01*
X102538285Y-50257775D01*
X102549830Y-50242207D01*
X102562846Y-50227846D01*
X102577207Y-50214830D01*
X102592775Y-50203285D01*
X102609399Y-50193321D01*
X102626920Y-50185034D01*
X102645169Y-50178504D01*
X102663970Y-50173795D01*
X102683142Y-50170951D01*
X102702500Y-50170000D01*
X103097500Y-50170000D01*
X103116858Y-50170951D01*
X103116858Y-50170951D01*
G37*
D13*
X102900000Y-51000000D03*
D12*
G36*
X101316858Y-50170951D02*
X101336030Y-50173795D01*
X101354831Y-50178504D01*
X101373080Y-50185034D01*
X101390601Y-50193321D01*
X101407225Y-50203285D01*
X101422793Y-50214830D01*
X101437154Y-50227846D01*
X101450170Y-50242207D01*
X101461715Y-50257775D01*
X101471679Y-50274399D01*
X101479966Y-50291920D01*
X101486496Y-50310169D01*
X101491205Y-50328970D01*
X101494049Y-50348142D01*
X101495000Y-50367500D01*
X101495000Y-51632500D01*
X101494049Y-51651858D01*
X101491205Y-51671030D01*
X101486496Y-51689831D01*
X101479966Y-51708080D01*
X101471679Y-51725601D01*
X101461715Y-51742225D01*
X101450170Y-51757793D01*
X101437154Y-51772154D01*
X101422793Y-51785170D01*
X101407225Y-51796715D01*
X101390601Y-51806679D01*
X101373080Y-51814966D01*
X101354831Y-51821496D01*
X101336030Y-51826205D01*
X101316858Y-51829049D01*
X101297500Y-51830000D01*
X100902500Y-51830000D01*
X100883142Y-51829049D01*
X100863970Y-51826205D01*
X100845169Y-51821496D01*
X100826920Y-51814966D01*
X100809399Y-51806679D01*
X100792775Y-51796715D01*
X100777207Y-51785170D01*
X100762846Y-51772154D01*
X100749830Y-51757793D01*
X100738285Y-51742225D01*
X100728321Y-51725601D01*
X100720034Y-51708080D01*
X100713504Y-51689831D01*
X100708795Y-51671030D01*
X100705951Y-51651858D01*
X100705000Y-51632500D01*
X100705000Y-50367500D01*
X100705951Y-50348142D01*
X100708795Y-50328970D01*
X100713504Y-50310169D01*
X100720034Y-50291920D01*
X100728321Y-50274399D01*
X100738285Y-50257775D01*
X100749830Y-50242207D01*
X100762846Y-50227846D01*
X100777207Y-50214830D01*
X100792775Y-50203285D01*
X100809399Y-50193321D01*
X100826920Y-50185034D01*
X100845169Y-50178504D01*
X100863970Y-50173795D01*
X100883142Y-50170951D01*
X100902500Y-50170000D01*
X101297500Y-50170000D01*
X101316858Y-50170951D01*
X101316858Y-50170951D01*
G37*
D13*
X101100000Y-51000000D03*
D12*
G36*
X101316858Y-54170951D02*
X101336030Y-54173795D01*
X101354831Y-54178504D01*
X101373080Y-54185034D01*
X101390601Y-54193321D01*
X101407225Y-54203285D01*
X101422793Y-54214830D01*
X101437154Y-54227846D01*
X101450170Y-54242207D01*
X101461715Y-54257775D01*
X101471679Y-54274399D01*
X101479966Y-54291920D01*
X101486496Y-54310169D01*
X101491205Y-54328970D01*
X101494049Y-54348142D01*
X101495000Y-54367500D01*
X101495000Y-55632500D01*
X101494049Y-55651858D01*
X101491205Y-55671030D01*
X101486496Y-55689831D01*
X101479966Y-55708080D01*
X101471679Y-55725601D01*
X101461715Y-55742225D01*
X101450170Y-55757793D01*
X101437154Y-55772154D01*
X101422793Y-55785170D01*
X101407225Y-55796715D01*
X101390601Y-55806679D01*
X101373080Y-55814966D01*
X101354831Y-55821496D01*
X101336030Y-55826205D01*
X101316858Y-55829049D01*
X101297500Y-55830000D01*
X100902500Y-55830000D01*
X100883142Y-55829049D01*
X100863970Y-55826205D01*
X100845169Y-55821496D01*
X100826920Y-55814966D01*
X100809399Y-55806679D01*
X100792775Y-55796715D01*
X100777207Y-55785170D01*
X100762846Y-55772154D01*
X100749830Y-55757793D01*
X100738285Y-55742225D01*
X100728321Y-55725601D01*
X100720034Y-55708080D01*
X100713504Y-55689831D01*
X100708795Y-55671030D01*
X100705951Y-55651858D01*
X100705000Y-55632500D01*
X100705000Y-54367500D01*
X100705951Y-54348142D01*
X100708795Y-54328970D01*
X100713504Y-54310169D01*
X100720034Y-54291920D01*
X100728321Y-54274399D01*
X100738285Y-54257775D01*
X100749830Y-54242207D01*
X100762846Y-54227846D01*
X100777207Y-54214830D01*
X100792775Y-54203285D01*
X100809399Y-54193321D01*
X100826920Y-54185034D01*
X100845169Y-54178504D01*
X100863970Y-54173795D01*
X100883142Y-54170951D01*
X100902500Y-54170000D01*
X101297500Y-54170000D01*
X101316858Y-54170951D01*
X101316858Y-54170951D01*
G37*
D13*
X101100000Y-55000000D03*
D12*
G36*
X103116858Y-54170951D02*
X103136030Y-54173795D01*
X103154831Y-54178504D01*
X103173080Y-54185034D01*
X103190601Y-54193321D01*
X103207225Y-54203285D01*
X103222793Y-54214830D01*
X103237154Y-54227846D01*
X103250170Y-54242207D01*
X103261715Y-54257775D01*
X103271679Y-54274399D01*
X103279966Y-54291920D01*
X103286496Y-54310169D01*
X103291205Y-54328970D01*
X103294049Y-54348142D01*
X103295000Y-54367500D01*
X103295000Y-55632500D01*
X103294049Y-55651858D01*
X103291205Y-55671030D01*
X103286496Y-55689831D01*
X103279966Y-55708080D01*
X103271679Y-55725601D01*
X103261715Y-55742225D01*
X103250170Y-55757793D01*
X103237154Y-55772154D01*
X103222793Y-55785170D01*
X103207225Y-55796715D01*
X103190601Y-55806679D01*
X103173080Y-55814966D01*
X103154831Y-55821496D01*
X103136030Y-55826205D01*
X103116858Y-55829049D01*
X103097500Y-55830000D01*
X102702500Y-55830000D01*
X102683142Y-55829049D01*
X102663970Y-55826205D01*
X102645169Y-55821496D01*
X102626920Y-55814966D01*
X102609399Y-55806679D01*
X102592775Y-55796715D01*
X102577207Y-55785170D01*
X102562846Y-55772154D01*
X102549830Y-55757793D01*
X102538285Y-55742225D01*
X102528321Y-55725601D01*
X102520034Y-55708080D01*
X102513504Y-55689831D01*
X102508795Y-55671030D01*
X102505951Y-55651858D01*
X102505000Y-55632500D01*
X102505000Y-54367500D01*
X102505951Y-54348142D01*
X102508795Y-54328970D01*
X102513504Y-54310169D01*
X102520034Y-54291920D01*
X102528321Y-54274399D01*
X102538285Y-54257775D01*
X102549830Y-54242207D01*
X102562846Y-54227846D01*
X102577207Y-54214830D01*
X102592775Y-54203285D01*
X102609399Y-54193321D01*
X102626920Y-54185034D01*
X102645169Y-54178504D01*
X102663970Y-54173795D01*
X102683142Y-54170951D01*
X102702500Y-54170000D01*
X103097500Y-54170000D01*
X103116858Y-54170951D01*
X103116858Y-54170951D01*
G37*
D13*
X102900000Y-55000000D03*
G04 #@! TD*
M02*
