M48
;DRILL file {KiCad (5.0.1)-3} date 15-Jun-22 3:11:31 PM
;FORMAT={-:-/ absolute / metric / decimal}
FMAT,2
METRIC,TZ
T1C0.400
T2C0.800
T3C0.900
T4C1.000
%
G90
G05
M71
T1
X78.Y-59.5
X80.Y-76.
X80.5Y-67.
X82.769Y-60.231
X84.Y-96.
X85.Y-51.
X86.5Y-53.
X87.5Y-112.5
X87.5Y-127.5
X89.5Y-57.5
X90.Y-49.
X90.456Y-45.456
X90.905Y-56.272
X93.Y-109.
X93.5Y-88.75
X93.75Y-94.25
X94.Y-51.975
X94.Y-91.5
X94.Y-105.
X95.75Y-89.75
X96.Y-55.
X97.43Y-87.251
X97.5Y-77.
X98.Y-85.
X99.Y-55.
X99.Y-104.
X100.Y-61.5
X101.5Y-70.
X101.581Y-72.73
X102.Y-64.
X103.5Y-82.5
X104.5Y-59.5
X104.5Y-86.864
X104.5Y-55.
X106.Y-77.
X106.5Y-62.5
X107.494Y-83.006
X109.Y-61.5
X109.742Y-50.258
X110.5Y-48.762
X111.Y-94.
X111.Y-111.
X111.75Y-108.588
X112.473Y-80.027
X112.5Y-81.5
X114.Y-53.
X115.Y-112.5
X115.Y-127.5
X116.Y-49.
X116.14Y-55.456
X117.5Y-74.
X117.5Y-77.
X118.Y-56.
X118.Y-68.26
X118.Y-86.
X118.5Y-80.
X119.Y-95.
X119.5Y-71.5
X119.5Y-75.
X119.5Y-79.
X119.5Y-81.5
X119.5Y-83.
X120.Y-54.
X120.97Y-67.47
X121.Y-56.3
X121.1Y-139.
X121.97Y-94.97
X122.634Y-68.634
X123.Y-95.
X126.Y-60.5
X126.Y-76.
X127.143Y-61.789
X128.9Y-139.
X129.975Y-60.
T2
X93.5Y-102.
X95.5Y-102.
X101.Y-102.
X103.Y-102.
X128.Y-64.
X130.Y-64.
X132.Y-64.
X134.Y-64.
X70.Y-64.
X72.Y-64.
X74.Y-64.
X76.Y-64.
X108.5Y-102.
X110.5Y-102.
T3
X104.915Y-46.738
X105.136Y-49.268
X107.131Y-46.544
X107.355Y-49.099
X91.463Y-59.523
X93.112Y-57.558
X93.168Y-60.953
X94.8Y-59.007
X109.206Y-59.015
X110.839Y-60.961
X110.91Y-57.585
X112.559Y-59.55
X80.544Y-62.869
X80.738Y-65.085
X83.099Y-62.645
X83.268Y-64.864
X96.648Y-49.064
X96.872Y-46.509
X98.865Y-49.258
X99.086Y-46.728
X120.742Y-64.865
X120.936Y-62.648
X123.272Y-65.086
X123.491Y-62.872
T4
X93.102Y-97.467
X95.642Y-97.467
X98.182Y-97.467
X100.722Y-97.467
X103.262Y-97.467
X105.802Y-97.467
X108.342Y-97.467
X110.882Y-97.467
X84.Y-99.75
X84.Y-102.29
X89.3Y-63.485
X89.3Y-66.025
X89.3Y-68.565
X89.3Y-71.105
X89.3Y-73.645
X89.3Y-76.185
X89.3Y-78.725
X89.3Y-81.265
X89.3Y-83.805
X89.3Y-86.345
X89.3Y-88.885
X89.3Y-91.425
X89.3Y-93.965
X89.3Y-96.505
X89.3Y-99.045
X114.7Y-63.485
X114.7Y-66.025
X114.7Y-68.565
X114.7Y-71.105
X114.7Y-73.645
X114.7Y-76.185
X114.7Y-78.725
X114.7Y-81.265
X114.7Y-83.805
X114.7Y-86.345
X114.7Y-88.885
X114.7Y-91.425
X114.7Y-93.965
X114.7Y-96.505
X114.7Y-99.045
X120.Y-99.71
X120.Y-102.25
X93.11Y-64.88
X93.11Y-80.12
X95.65Y-64.88
X95.65Y-80.12
X98.19Y-64.88
X98.19Y-80.12
X100.73Y-64.88
X100.73Y-80.12
X103.27Y-64.88
X103.27Y-80.12
X105.81Y-64.88
X105.81Y-80.12
X108.35Y-64.88
X108.35Y-80.12
X110.89Y-64.88
X110.89Y-80.12
X98.19Y-107.069
X100.73Y-107.069
X103.27Y-107.069
X105.81Y-107.069
T0
M30
