G04 #@! TF.GenerationSoftware,KiCad,Pcbnew,(5.0.1)-3*
G04 #@! TF.CreationDate,2022-06-15T15:11:29+08:00*
G04 #@! TF.ProjectId,Micromouse_V01,4D6963726F6D6F7573655F5630312E6B,rev?*
G04 #@! TF.SameCoordinates,Original*
G04 #@! TF.FileFunction,Soldermask,Bot*
G04 #@! TF.FilePolarity,Negative*
%FSLAX46Y46*%
G04 Gerber Fmt 4.6, Leading zero omitted, Abs format (unit mm)*
G04 Created by KiCad (PCBNEW (5.0.1)-3) date 15-Jun-22 3:11:29 PM*
%MOMM*%
%LPD*%
G01*
G04 APERTURE LIST*
%ADD10C,0.100000*%
G04 APERTURE END LIST*
D10*
G36*
X89201000Y-139881000D02*
X88099000Y-139881000D01*
X88099000Y-138979000D01*
X89201000Y-138979000D01*
X89201000Y-139881000D01*
X89201000Y-139881000D01*
G37*
G36*
X81901000Y-139881000D02*
X80799000Y-139881000D01*
X80799000Y-138979000D01*
X81901000Y-138979000D01*
X81901000Y-139881000D01*
X81901000Y-139881000D01*
G37*
G36*
X129701000Y-139801000D02*
X128099000Y-139801000D01*
X128099000Y-138199000D01*
X129701000Y-138199000D01*
X129701000Y-139801000D01*
X129701000Y-139801000D01*
G37*
G36*
X121901000Y-139801000D02*
X120299000Y-139801000D01*
X120299000Y-138199000D01*
X121901000Y-138199000D01*
X121901000Y-139801000D01*
X121901000Y-139801000D01*
G37*
G36*
X118963677Y-138253465D02*
X119001364Y-138264898D01*
X119036103Y-138283466D01*
X119066548Y-138308452D01*
X119091534Y-138338897D01*
X119110102Y-138373636D01*
X119121535Y-138411323D01*
X119126000Y-138456661D01*
X119126000Y-139543339D01*
X119121535Y-139588677D01*
X119110102Y-139626364D01*
X119091534Y-139661103D01*
X119066548Y-139691548D01*
X119036103Y-139716534D01*
X119001364Y-139735102D01*
X118963677Y-139746535D01*
X118918339Y-139751000D01*
X118081661Y-139751000D01*
X118036323Y-139746535D01*
X117998636Y-139735102D01*
X117963897Y-139716534D01*
X117933452Y-139691548D01*
X117908466Y-139661103D01*
X117889898Y-139626364D01*
X117878465Y-139588677D01*
X117874000Y-139543339D01*
X117874000Y-138456661D01*
X117878465Y-138411323D01*
X117889898Y-138373636D01*
X117908466Y-138338897D01*
X117933452Y-138308452D01*
X117963897Y-138283466D01*
X117998636Y-138264898D01*
X118036323Y-138253465D01*
X118081661Y-138249000D01*
X118918339Y-138249000D01*
X118963677Y-138253465D01*
X118963677Y-138253465D01*
G37*
G36*
X116913677Y-138253465D02*
X116951364Y-138264898D01*
X116986103Y-138283466D01*
X117016548Y-138308452D01*
X117041534Y-138338897D01*
X117060102Y-138373636D01*
X117071535Y-138411323D01*
X117076000Y-138456661D01*
X117076000Y-139543339D01*
X117071535Y-139588677D01*
X117060102Y-139626364D01*
X117041534Y-139661103D01*
X117016548Y-139691548D01*
X116986103Y-139716534D01*
X116951364Y-139735102D01*
X116913677Y-139746535D01*
X116868339Y-139751000D01*
X116031661Y-139751000D01*
X115986323Y-139746535D01*
X115948636Y-139735102D01*
X115913897Y-139716534D01*
X115883452Y-139691548D01*
X115858466Y-139661103D01*
X115839898Y-139626364D01*
X115828465Y-139588677D01*
X115824000Y-139543339D01*
X115824000Y-138456661D01*
X115828465Y-138411323D01*
X115839898Y-138373636D01*
X115858466Y-138338897D01*
X115883452Y-138308452D01*
X115913897Y-138283466D01*
X115948636Y-138264898D01*
X115986323Y-138253465D01*
X116031661Y-138249000D01*
X116868339Y-138249000D01*
X116913677Y-138253465D01*
X116913677Y-138253465D01*
G37*
G36*
X83646136Y-137848253D02*
X83737312Y-137886019D01*
X83819372Y-137940850D01*
X83889150Y-138010628D01*
X83943981Y-138092688D01*
X83981747Y-138183864D01*
X84001000Y-138280656D01*
X84001000Y-138379344D01*
X83981747Y-138476136D01*
X83943981Y-138567312D01*
X83889150Y-138649372D01*
X83819372Y-138719150D01*
X83737312Y-138773981D01*
X83646136Y-138811747D01*
X83549344Y-138831000D01*
X83450656Y-138831000D01*
X83353864Y-138811747D01*
X83262688Y-138773981D01*
X83180628Y-138719150D01*
X83110850Y-138649372D01*
X83056019Y-138567312D01*
X83018253Y-138476136D01*
X82999000Y-138379344D01*
X82999000Y-138280656D01*
X83018253Y-138183864D01*
X83056019Y-138092688D01*
X83110850Y-138010628D01*
X83180628Y-137940850D01*
X83262688Y-137886019D01*
X83353864Y-137848253D01*
X83450656Y-137829000D01*
X83549344Y-137829000D01*
X83646136Y-137848253D01*
X83646136Y-137848253D01*
G37*
G36*
X86646136Y-137848253D02*
X86737312Y-137886019D01*
X86819372Y-137940850D01*
X86889150Y-138010628D01*
X86943981Y-138092688D01*
X86981747Y-138183864D01*
X87001000Y-138280656D01*
X87001000Y-138379344D01*
X86981747Y-138476136D01*
X86943981Y-138567312D01*
X86889150Y-138649372D01*
X86819372Y-138719150D01*
X86737312Y-138773981D01*
X86646136Y-138811747D01*
X86549344Y-138831000D01*
X86450656Y-138831000D01*
X86353864Y-138811747D01*
X86262688Y-138773981D01*
X86180628Y-138719150D01*
X86110850Y-138649372D01*
X86056019Y-138567312D01*
X86018253Y-138476136D01*
X85999000Y-138379344D01*
X85999000Y-138280656D01*
X86018253Y-138183864D01*
X86056019Y-138092688D01*
X86110850Y-138010628D01*
X86180628Y-137940850D01*
X86262688Y-137886019D01*
X86353864Y-137848253D01*
X86450656Y-137829000D01*
X86549344Y-137829000D01*
X86646136Y-137848253D01*
X86646136Y-137848253D01*
G37*
G36*
X81901000Y-137671000D02*
X80799000Y-137671000D01*
X80799000Y-136769000D01*
X81901000Y-136769000D01*
X81901000Y-137671000D01*
X81901000Y-137671000D01*
G37*
G36*
X89201000Y-137671000D02*
X88099000Y-137671000D01*
X88099000Y-136769000D01*
X89201000Y-136769000D01*
X89201000Y-137671000D01*
X89201000Y-137671000D01*
G37*
G36*
X87651000Y-137371000D02*
X86849000Y-137371000D01*
X86849000Y-135769000D01*
X87651000Y-135769000D01*
X87651000Y-137371000D01*
X87651000Y-137371000D01*
G37*
G36*
X83151000Y-137371000D02*
X82349000Y-137371000D01*
X82349000Y-135769000D01*
X83151000Y-135769000D01*
X83151000Y-137371000D01*
X83151000Y-137371000D01*
G37*
G36*
X84651000Y-137371000D02*
X83849000Y-137371000D01*
X83849000Y-135769000D01*
X84651000Y-135769000D01*
X84651000Y-137371000D01*
X84651000Y-137371000D01*
G37*
G36*
X90652527Y-129988736D02*
X90752410Y-130008604D01*
X91034674Y-130125521D01*
X91288705Y-130295259D01*
X91504741Y-130511295D01*
X91674479Y-130765326D01*
X91791396Y-131047590D01*
X91851000Y-131347240D01*
X91851000Y-131652760D01*
X91791396Y-131952410D01*
X91674479Y-132234674D01*
X91504741Y-132488705D01*
X91288705Y-132704741D01*
X91034674Y-132874479D01*
X90752410Y-132991396D01*
X90652527Y-133011264D01*
X90452762Y-133051000D01*
X90147238Y-133051000D01*
X89947473Y-133011264D01*
X89847590Y-132991396D01*
X89565326Y-132874479D01*
X89311295Y-132704741D01*
X89095259Y-132488705D01*
X88925521Y-132234674D01*
X88808604Y-131952410D01*
X88749000Y-131652760D01*
X88749000Y-131347240D01*
X88808604Y-131047590D01*
X88925521Y-130765326D01*
X89095259Y-130511295D01*
X89311295Y-130295259D01*
X89565326Y-130125521D01*
X89847590Y-130008604D01*
X89947473Y-129988736D01*
X90147238Y-129949000D01*
X90452762Y-129949000D01*
X90652527Y-129988736D01*
X90652527Y-129988736D01*
G37*
G36*
X114052527Y-129988736D02*
X114152410Y-130008604D01*
X114434674Y-130125521D01*
X114688705Y-130295259D01*
X114904741Y-130511295D01*
X115074479Y-130765326D01*
X115191396Y-131047590D01*
X115251000Y-131347240D01*
X115251000Y-131652760D01*
X115191396Y-131952410D01*
X115074479Y-132234674D01*
X114904741Y-132488705D01*
X114688705Y-132704741D01*
X114434674Y-132874479D01*
X114152410Y-132991396D01*
X114052527Y-133011264D01*
X113852762Y-133051000D01*
X113547238Y-133051000D01*
X113347473Y-133011264D01*
X113247590Y-132991396D01*
X112965326Y-132874479D01*
X112711295Y-132704741D01*
X112495259Y-132488705D01*
X112325521Y-132234674D01*
X112208604Y-131952410D01*
X112149000Y-131652760D01*
X112149000Y-131347240D01*
X112208604Y-131047590D01*
X112325521Y-130765326D01*
X112495259Y-130511295D01*
X112711295Y-130295259D01*
X112965326Y-130125521D01*
X113247590Y-130008604D01*
X113347473Y-129988736D01*
X113547238Y-129949000D01*
X113852762Y-129949000D01*
X114052527Y-129988736D01*
X114052527Y-129988736D01*
G37*
G36*
X114052527Y-105988736D02*
X114152410Y-106008604D01*
X114434674Y-106125521D01*
X114688705Y-106295259D01*
X114904741Y-106511295D01*
X115074479Y-106765326D01*
X115127103Y-106892373D01*
X115191396Y-107047591D01*
X115251000Y-107347238D01*
X115251000Y-107652762D01*
X115239776Y-107709186D01*
X115191396Y-107952410D01*
X115074479Y-108234674D01*
X114904741Y-108488705D01*
X114688705Y-108704741D01*
X114434674Y-108874479D01*
X114152410Y-108991396D01*
X114052527Y-109011264D01*
X113852762Y-109051000D01*
X113547238Y-109051000D01*
X113347473Y-109011264D01*
X113247590Y-108991396D01*
X112965326Y-108874479D01*
X112711295Y-108704741D01*
X112495259Y-108488705D01*
X112325521Y-108234674D01*
X112208604Y-107952410D01*
X112160224Y-107709186D01*
X112149000Y-107652762D01*
X112149000Y-107347238D01*
X112208604Y-107047591D01*
X112272897Y-106892373D01*
X112325521Y-106765326D01*
X112495259Y-106511295D01*
X112711295Y-106295259D01*
X112965326Y-106125521D01*
X113247590Y-106008604D01*
X113347473Y-105988736D01*
X113547238Y-105949000D01*
X113852762Y-105949000D01*
X114052527Y-105988736D01*
X114052527Y-105988736D01*
G37*
G36*
X90652527Y-105988736D02*
X90752410Y-106008604D01*
X91034674Y-106125521D01*
X91288705Y-106295259D01*
X91504741Y-106511295D01*
X91674479Y-106765326D01*
X91727103Y-106892373D01*
X91791396Y-107047591D01*
X91851000Y-107347238D01*
X91851000Y-107652762D01*
X91839776Y-107709186D01*
X91791396Y-107952410D01*
X91674479Y-108234674D01*
X91504741Y-108488705D01*
X91288705Y-108704741D01*
X91034674Y-108874479D01*
X90752410Y-108991396D01*
X90652527Y-109011264D01*
X90452762Y-109051000D01*
X90147238Y-109051000D01*
X89947473Y-109011264D01*
X89847590Y-108991396D01*
X89565326Y-108874479D01*
X89311295Y-108704741D01*
X89095259Y-108488705D01*
X88925521Y-108234674D01*
X88808604Y-107952410D01*
X88760224Y-107709186D01*
X88749000Y-107652762D01*
X88749000Y-107347238D01*
X88808604Y-107047591D01*
X88872897Y-106892373D01*
X88925521Y-106765326D01*
X89095259Y-106511295D01*
X89311295Y-106295259D01*
X89565326Y-106125521D01*
X89847590Y-106008604D01*
X89947473Y-105988736D01*
X90147238Y-105949000D01*
X90452762Y-105949000D01*
X90652527Y-105988736D01*
X90652527Y-105988736D01*
G37*
G36*
X103380442Y-106174518D02*
X103446627Y-106181037D01*
X103559853Y-106215384D01*
X103616467Y-106232557D01*
X103733772Y-106295259D01*
X103772991Y-106316222D01*
X103808729Y-106345552D01*
X103910186Y-106428814D01*
X103977875Y-106511295D01*
X104022778Y-106566009D01*
X104022779Y-106566011D01*
X104106443Y-106722533D01*
X104106443Y-106722534D01*
X104157963Y-106892373D01*
X104175359Y-107069000D01*
X104157963Y-107245627D01*
X104127140Y-107347238D01*
X104106443Y-107415467D01*
X104032348Y-107554087D01*
X104022778Y-107571991D01*
X103993448Y-107607729D01*
X103910186Y-107709186D01*
X103808729Y-107792448D01*
X103772991Y-107821778D01*
X103772989Y-107821779D01*
X103616467Y-107905443D01*
X103559853Y-107922616D01*
X103446627Y-107956963D01*
X103380443Y-107963481D01*
X103314260Y-107970000D01*
X103225740Y-107970000D01*
X103159557Y-107963481D01*
X103093373Y-107956963D01*
X102980147Y-107922616D01*
X102923533Y-107905443D01*
X102767011Y-107821779D01*
X102767009Y-107821778D01*
X102731271Y-107792448D01*
X102629814Y-107709186D01*
X102546552Y-107607729D01*
X102517222Y-107571991D01*
X102507652Y-107554087D01*
X102433557Y-107415467D01*
X102412860Y-107347238D01*
X102382037Y-107245627D01*
X102364641Y-107069000D01*
X102382037Y-106892373D01*
X102433557Y-106722534D01*
X102433557Y-106722533D01*
X102517221Y-106566011D01*
X102517222Y-106566009D01*
X102562125Y-106511295D01*
X102629814Y-106428814D01*
X102731271Y-106345552D01*
X102767009Y-106316222D01*
X102806228Y-106295259D01*
X102923533Y-106232557D01*
X102980147Y-106215384D01*
X103093373Y-106181037D01*
X103159558Y-106174518D01*
X103225740Y-106168000D01*
X103314260Y-106168000D01*
X103380442Y-106174518D01*
X103380442Y-106174518D01*
G37*
G36*
X98300442Y-106174518D02*
X98366627Y-106181037D01*
X98479853Y-106215384D01*
X98536467Y-106232557D01*
X98653772Y-106295259D01*
X98692991Y-106316222D01*
X98728729Y-106345552D01*
X98830186Y-106428814D01*
X98897875Y-106511295D01*
X98942778Y-106566009D01*
X98942779Y-106566011D01*
X99026443Y-106722533D01*
X99026443Y-106722534D01*
X99077963Y-106892373D01*
X99095359Y-107069000D01*
X99077963Y-107245627D01*
X99047140Y-107347238D01*
X99026443Y-107415467D01*
X98952348Y-107554087D01*
X98942778Y-107571991D01*
X98913448Y-107607729D01*
X98830186Y-107709186D01*
X98728729Y-107792448D01*
X98692991Y-107821778D01*
X98692989Y-107821779D01*
X98536467Y-107905443D01*
X98479853Y-107922616D01*
X98366627Y-107956963D01*
X98300443Y-107963481D01*
X98234260Y-107970000D01*
X98145740Y-107970000D01*
X98079557Y-107963481D01*
X98013373Y-107956963D01*
X97900147Y-107922616D01*
X97843533Y-107905443D01*
X97687011Y-107821779D01*
X97687009Y-107821778D01*
X97651271Y-107792448D01*
X97549814Y-107709186D01*
X97466552Y-107607729D01*
X97437222Y-107571991D01*
X97427652Y-107554087D01*
X97353557Y-107415467D01*
X97332860Y-107347238D01*
X97302037Y-107245627D01*
X97284641Y-107069000D01*
X97302037Y-106892373D01*
X97353557Y-106722534D01*
X97353557Y-106722533D01*
X97437221Y-106566011D01*
X97437222Y-106566009D01*
X97482125Y-106511295D01*
X97549814Y-106428814D01*
X97651271Y-106345552D01*
X97687009Y-106316222D01*
X97726228Y-106295259D01*
X97843533Y-106232557D01*
X97900147Y-106215384D01*
X98013373Y-106181037D01*
X98079558Y-106174518D01*
X98145740Y-106168000D01*
X98234260Y-106168000D01*
X98300442Y-106174518D01*
X98300442Y-106174518D01*
G37*
G36*
X106711000Y-107970000D02*
X104909000Y-107970000D01*
X104909000Y-106168000D01*
X106711000Y-106168000D01*
X106711000Y-107970000D01*
X106711000Y-107970000D01*
G37*
G36*
X100840442Y-106174518D02*
X100906627Y-106181037D01*
X101019853Y-106215384D01*
X101076467Y-106232557D01*
X101193772Y-106295259D01*
X101232991Y-106316222D01*
X101268729Y-106345552D01*
X101370186Y-106428814D01*
X101437875Y-106511295D01*
X101482778Y-106566009D01*
X101482779Y-106566011D01*
X101566443Y-106722533D01*
X101566443Y-106722534D01*
X101617963Y-106892373D01*
X101635359Y-107069000D01*
X101617963Y-107245627D01*
X101587140Y-107347238D01*
X101566443Y-107415467D01*
X101492348Y-107554087D01*
X101482778Y-107571991D01*
X101453448Y-107607729D01*
X101370186Y-107709186D01*
X101268729Y-107792448D01*
X101232991Y-107821778D01*
X101232989Y-107821779D01*
X101076467Y-107905443D01*
X101019853Y-107922616D01*
X100906627Y-107956963D01*
X100840443Y-107963481D01*
X100774260Y-107970000D01*
X100685740Y-107970000D01*
X100619557Y-107963481D01*
X100553373Y-107956963D01*
X100440147Y-107922616D01*
X100383533Y-107905443D01*
X100227011Y-107821779D01*
X100227009Y-107821778D01*
X100191271Y-107792448D01*
X100089814Y-107709186D01*
X100006552Y-107607729D01*
X99977222Y-107571991D01*
X99967652Y-107554087D01*
X99893557Y-107415467D01*
X99872860Y-107347238D01*
X99842037Y-107245627D01*
X99824641Y-107069000D01*
X99842037Y-106892373D01*
X99893557Y-106722534D01*
X99893557Y-106722533D01*
X99977221Y-106566011D01*
X99977222Y-106566009D01*
X100022125Y-106511295D01*
X100089814Y-106428814D01*
X100191271Y-106345552D01*
X100227009Y-106316222D01*
X100266228Y-106295259D01*
X100383533Y-106232557D01*
X100440147Y-106215384D01*
X100553373Y-106181037D01*
X100619558Y-106174518D01*
X100685740Y-106168000D01*
X100774260Y-106168000D01*
X100840442Y-106174518D01*
X100840442Y-106174518D01*
G37*
G36*
X84089258Y-101393432D02*
X84176627Y-101402037D01*
X84289853Y-101436384D01*
X84346467Y-101453557D01*
X84485087Y-101527652D01*
X84502991Y-101537222D01*
X84538729Y-101566552D01*
X84640186Y-101649814D01*
X84723448Y-101751271D01*
X84752778Y-101787009D01*
X84752779Y-101787011D01*
X84836443Y-101943533D01*
X84836443Y-101943534D01*
X84887963Y-102113373D01*
X84905359Y-102290000D01*
X84887963Y-102466627D01*
X84853616Y-102579853D01*
X84836443Y-102636467D01*
X84816392Y-102673979D01*
X84752778Y-102792991D01*
X84723448Y-102828729D01*
X84640186Y-102930186D01*
X84538729Y-103013448D01*
X84502991Y-103042778D01*
X84502989Y-103042779D01*
X84346467Y-103126443D01*
X84289853Y-103143616D01*
X84176627Y-103177963D01*
X84110443Y-103184481D01*
X84044260Y-103191000D01*
X83955740Y-103191000D01*
X83889557Y-103184481D01*
X83823373Y-103177963D01*
X83710147Y-103143616D01*
X83653533Y-103126443D01*
X83497011Y-103042779D01*
X83497009Y-103042778D01*
X83461271Y-103013448D01*
X83359814Y-102930186D01*
X83276552Y-102828729D01*
X83247222Y-102792991D01*
X83183608Y-102673979D01*
X83163557Y-102636467D01*
X83146384Y-102579853D01*
X83112037Y-102466627D01*
X83094641Y-102290000D01*
X83112037Y-102113373D01*
X83163557Y-101943534D01*
X83163557Y-101943533D01*
X83247221Y-101787011D01*
X83247222Y-101787009D01*
X83276552Y-101751271D01*
X83359814Y-101649814D01*
X83461271Y-101566552D01*
X83497009Y-101537222D01*
X83514913Y-101527652D01*
X83653533Y-101453557D01*
X83710147Y-101436384D01*
X83823373Y-101402037D01*
X83910742Y-101393432D01*
X83955740Y-101389000D01*
X84044260Y-101389000D01*
X84089258Y-101393432D01*
X84089258Y-101393432D01*
G37*
G36*
X120901000Y-103151000D02*
X119099000Y-103151000D01*
X119099000Y-101349000D01*
X120901000Y-101349000D01*
X120901000Y-103151000D01*
X120901000Y-103151000D01*
G37*
G36*
X103726000Y-102726000D02*
X102274000Y-102726000D01*
X102274000Y-101274000D01*
X103726000Y-101274000D01*
X103726000Y-102726000D01*
X103726000Y-102726000D01*
G37*
G36*
X95556991Y-101276101D02*
X95642321Y-101284505D01*
X95779172Y-101326019D01*
X95779174Y-101326020D01*
X95779177Y-101326021D01*
X95905296Y-101393432D01*
X96015843Y-101484157D01*
X96106568Y-101594704D01*
X96173979Y-101720823D01*
X96173980Y-101720826D01*
X96173981Y-101720828D01*
X96215495Y-101857679D01*
X96229512Y-102000000D01*
X96215495Y-102142321D01*
X96173981Y-102279172D01*
X96173979Y-102279177D01*
X96106568Y-102405296D01*
X96015843Y-102515843D01*
X95905296Y-102606568D01*
X95779177Y-102673979D01*
X95779174Y-102673980D01*
X95779172Y-102673981D01*
X95642321Y-102715495D01*
X95556991Y-102723899D01*
X95535660Y-102726000D01*
X95464340Y-102726000D01*
X95443009Y-102723899D01*
X95357679Y-102715495D01*
X95220828Y-102673981D01*
X95220826Y-102673980D01*
X95220823Y-102673979D01*
X95094704Y-102606568D01*
X94984157Y-102515843D01*
X94893432Y-102405296D01*
X94826021Y-102279177D01*
X94826019Y-102279172D01*
X94784505Y-102142321D01*
X94770488Y-102000000D01*
X94784505Y-101857679D01*
X94826019Y-101720828D01*
X94826020Y-101720826D01*
X94826021Y-101720823D01*
X94893432Y-101594704D01*
X94984157Y-101484157D01*
X95094704Y-101393432D01*
X95220823Y-101326021D01*
X95220826Y-101326020D01*
X95220828Y-101326019D01*
X95357679Y-101284505D01*
X95443009Y-101276101D01*
X95464340Y-101274000D01*
X95535660Y-101274000D01*
X95556991Y-101276101D01*
X95556991Y-101276101D01*
G37*
G36*
X94226000Y-102726000D02*
X92774000Y-102726000D01*
X92774000Y-101274000D01*
X94226000Y-101274000D01*
X94226000Y-102726000D01*
X94226000Y-102726000D01*
G37*
G36*
X111226000Y-102726000D02*
X109774000Y-102726000D01*
X109774000Y-101274000D01*
X111226000Y-101274000D01*
X111226000Y-102726000D01*
X111226000Y-102726000D01*
G37*
G36*
X108556991Y-101276101D02*
X108642321Y-101284505D01*
X108779172Y-101326019D01*
X108779174Y-101326020D01*
X108779177Y-101326021D01*
X108905296Y-101393432D01*
X109015843Y-101484157D01*
X109106568Y-101594704D01*
X109173979Y-101720823D01*
X109173980Y-101720826D01*
X109173981Y-101720828D01*
X109215495Y-101857679D01*
X109229512Y-102000000D01*
X109215495Y-102142321D01*
X109173981Y-102279172D01*
X109173979Y-102279177D01*
X109106568Y-102405296D01*
X109015843Y-102515843D01*
X108905296Y-102606568D01*
X108779177Y-102673979D01*
X108779174Y-102673980D01*
X108779172Y-102673981D01*
X108642321Y-102715495D01*
X108556991Y-102723899D01*
X108535660Y-102726000D01*
X108464340Y-102726000D01*
X108443009Y-102723899D01*
X108357679Y-102715495D01*
X108220828Y-102673981D01*
X108220826Y-102673980D01*
X108220823Y-102673979D01*
X108094704Y-102606568D01*
X107984157Y-102515843D01*
X107893432Y-102405296D01*
X107826021Y-102279177D01*
X107826019Y-102279172D01*
X107784505Y-102142321D01*
X107770488Y-102000000D01*
X107784505Y-101857679D01*
X107826019Y-101720828D01*
X107826020Y-101720826D01*
X107826021Y-101720823D01*
X107893432Y-101594704D01*
X107984157Y-101484157D01*
X108094704Y-101393432D01*
X108220823Y-101326021D01*
X108220826Y-101326020D01*
X108220828Y-101326019D01*
X108357679Y-101284505D01*
X108443009Y-101276101D01*
X108464340Y-101274000D01*
X108535660Y-101274000D01*
X108556991Y-101276101D01*
X108556991Y-101276101D01*
G37*
G36*
X101056991Y-101276101D02*
X101142321Y-101284505D01*
X101279172Y-101326019D01*
X101279174Y-101326020D01*
X101279177Y-101326021D01*
X101405296Y-101393432D01*
X101515843Y-101484157D01*
X101606568Y-101594704D01*
X101673979Y-101720823D01*
X101673980Y-101720826D01*
X101673981Y-101720828D01*
X101715495Y-101857679D01*
X101729512Y-102000000D01*
X101715495Y-102142321D01*
X101673981Y-102279172D01*
X101673979Y-102279177D01*
X101606568Y-102405296D01*
X101515843Y-102515843D01*
X101405296Y-102606568D01*
X101279177Y-102673979D01*
X101279174Y-102673980D01*
X101279172Y-102673981D01*
X101142321Y-102715495D01*
X101056991Y-102723899D01*
X101035660Y-102726000D01*
X100964340Y-102726000D01*
X100943009Y-102723899D01*
X100857679Y-102715495D01*
X100720828Y-102673981D01*
X100720826Y-102673980D01*
X100720823Y-102673979D01*
X100594704Y-102606568D01*
X100484157Y-102515843D01*
X100393432Y-102405296D01*
X100326021Y-102279177D01*
X100326019Y-102279172D01*
X100284505Y-102142321D01*
X100270488Y-102000000D01*
X100284505Y-101857679D01*
X100326019Y-101720828D01*
X100326020Y-101720826D01*
X100326021Y-101720823D01*
X100393432Y-101594704D01*
X100484157Y-101484157D01*
X100594704Y-101393432D01*
X100720823Y-101326021D01*
X100720826Y-101326020D01*
X100720828Y-101326019D01*
X100857679Y-101284505D01*
X100943009Y-101276101D01*
X100964340Y-101274000D01*
X101035660Y-101274000D01*
X101056991Y-101276101D01*
X101056991Y-101276101D01*
G37*
G36*
X84901000Y-100651000D02*
X83099000Y-100651000D01*
X83099000Y-98849000D01*
X84901000Y-98849000D01*
X84901000Y-100651000D01*
X84901000Y-100651000D01*
G37*
G36*
X120110442Y-98815518D02*
X120176627Y-98822037D01*
X120265512Y-98849000D01*
X120346467Y-98873557D01*
X120485087Y-98947652D01*
X120502991Y-98957222D01*
X120538729Y-98986552D01*
X120640186Y-99069814D01*
X120696691Y-99138667D01*
X120752778Y-99207009D01*
X120752779Y-99207011D01*
X120836443Y-99363533D01*
X120836443Y-99363534D01*
X120887963Y-99533373D01*
X120905359Y-99710000D01*
X120887963Y-99886627D01*
X120865871Y-99959454D01*
X120836443Y-100056467D01*
X120762348Y-100195087D01*
X120752778Y-100212991D01*
X120723448Y-100248729D01*
X120640186Y-100350186D01*
X120538729Y-100433448D01*
X120502991Y-100462778D01*
X120502989Y-100462779D01*
X120346467Y-100546443D01*
X120289853Y-100563616D01*
X120176627Y-100597963D01*
X120110443Y-100604481D01*
X120044260Y-100611000D01*
X119955740Y-100611000D01*
X119889558Y-100604482D01*
X119823373Y-100597963D01*
X119710147Y-100563616D01*
X119653533Y-100546443D01*
X119497011Y-100462779D01*
X119497009Y-100462778D01*
X119461271Y-100433448D01*
X119359814Y-100350186D01*
X119276552Y-100248729D01*
X119247222Y-100212991D01*
X119237652Y-100195087D01*
X119163557Y-100056467D01*
X119134129Y-99959454D01*
X119112037Y-99886627D01*
X119094641Y-99710000D01*
X119112037Y-99533373D01*
X119163557Y-99363534D01*
X119163557Y-99363533D01*
X119247221Y-99207011D01*
X119247222Y-99207009D01*
X119303309Y-99138667D01*
X119359814Y-99069814D01*
X119461271Y-98986552D01*
X119497009Y-98957222D01*
X119514913Y-98947652D01*
X119653533Y-98873557D01*
X119734488Y-98849000D01*
X119823373Y-98822037D01*
X119889558Y-98815518D01*
X119955740Y-98809000D01*
X120044260Y-98809000D01*
X120110442Y-98815518D01*
X120110442Y-98815518D01*
G37*
G36*
X89577396Y-98130546D02*
X89750466Y-98202234D01*
X89906230Y-98306312D01*
X90038688Y-98438770D01*
X90142766Y-98594534D01*
X90214454Y-98767604D01*
X90251000Y-98951333D01*
X90251000Y-99138667D01*
X90214454Y-99322396D01*
X90142766Y-99495466D01*
X90038688Y-99651230D01*
X89906230Y-99783688D01*
X89750466Y-99887766D01*
X89577396Y-99959454D01*
X89393667Y-99996000D01*
X89206333Y-99996000D01*
X89022604Y-99959454D01*
X88849534Y-99887766D01*
X88693770Y-99783688D01*
X88561312Y-99651230D01*
X88457234Y-99495466D01*
X88385546Y-99322396D01*
X88349000Y-99138667D01*
X88349000Y-98951333D01*
X88385546Y-98767604D01*
X88457234Y-98594534D01*
X88561312Y-98438770D01*
X88693770Y-98306312D01*
X88849534Y-98202234D01*
X89022604Y-98130546D01*
X89206333Y-98094000D01*
X89393667Y-98094000D01*
X89577396Y-98130546D01*
X89577396Y-98130546D01*
G37*
G36*
X114977396Y-98130546D02*
X115150466Y-98202234D01*
X115306230Y-98306312D01*
X115438688Y-98438770D01*
X115542766Y-98594534D01*
X115614454Y-98767604D01*
X115651000Y-98951333D01*
X115651000Y-99138667D01*
X115614454Y-99322396D01*
X115542766Y-99495466D01*
X115438688Y-99651230D01*
X115306230Y-99783688D01*
X115150466Y-99887766D01*
X114977396Y-99959454D01*
X114793667Y-99996000D01*
X114606333Y-99996000D01*
X114422604Y-99959454D01*
X114249534Y-99887766D01*
X114093770Y-99783688D01*
X113961312Y-99651230D01*
X113857234Y-99495466D01*
X113785546Y-99322396D01*
X113749000Y-99138667D01*
X113749000Y-98951333D01*
X113785546Y-98767604D01*
X113857234Y-98594534D01*
X113961312Y-98438770D01*
X114093770Y-98306312D01*
X114249534Y-98202234D01*
X114422604Y-98130546D01*
X114606333Y-98094000D01*
X114793667Y-98094000D01*
X114977396Y-98130546D01*
X114977396Y-98130546D01*
G37*
G36*
X98292042Y-96572118D02*
X98358227Y-96578637D01*
X98471453Y-96612984D01*
X98528067Y-96630157D01*
X98666687Y-96704252D01*
X98684591Y-96713822D01*
X98720329Y-96743152D01*
X98821786Y-96826414D01*
X98905048Y-96927871D01*
X98934378Y-96963609D01*
X98934379Y-96963611D01*
X99018043Y-97120133D01*
X99018043Y-97120134D01*
X99069563Y-97289973D01*
X99086959Y-97466600D01*
X99069563Y-97643227D01*
X99035216Y-97756453D01*
X99018043Y-97813067D01*
X98943948Y-97951687D01*
X98934378Y-97969591D01*
X98905048Y-98005329D01*
X98821786Y-98106786D01*
X98720329Y-98190048D01*
X98684591Y-98219378D01*
X98684589Y-98219379D01*
X98528067Y-98303043D01*
X98517290Y-98306312D01*
X98358227Y-98354563D01*
X98292042Y-98361082D01*
X98225860Y-98367600D01*
X98137340Y-98367600D01*
X98071157Y-98361081D01*
X98004973Y-98354563D01*
X97845910Y-98306312D01*
X97835133Y-98303043D01*
X97678611Y-98219379D01*
X97678609Y-98219378D01*
X97642871Y-98190048D01*
X97541414Y-98106786D01*
X97458152Y-98005329D01*
X97428822Y-97969591D01*
X97419252Y-97951687D01*
X97345157Y-97813067D01*
X97327984Y-97756453D01*
X97293637Y-97643227D01*
X97276241Y-97466600D01*
X97293637Y-97289973D01*
X97345157Y-97120134D01*
X97345157Y-97120133D01*
X97428821Y-96963611D01*
X97428822Y-96963609D01*
X97458152Y-96927871D01*
X97541414Y-96826414D01*
X97642871Y-96743152D01*
X97678609Y-96713822D01*
X97696513Y-96704252D01*
X97835133Y-96630157D01*
X97891747Y-96612984D01*
X98004973Y-96578637D01*
X98071158Y-96572118D01*
X98137340Y-96565600D01*
X98225860Y-96565600D01*
X98292042Y-96572118D01*
X98292042Y-96572118D01*
G37*
G36*
X108452042Y-96572118D02*
X108518227Y-96578637D01*
X108631453Y-96612984D01*
X108688067Y-96630157D01*
X108826687Y-96704252D01*
X108844591Y-96713822D01*
X108880329Y-96743152D01*
X108981786Y-96826414D01*
X109065048Y-96927871D01*
X109094378Y-96963609D01*
X109094379Y-96963611D01*
X109178043Y-97120133D01*
X109178043Y-97120134D01*
X109229563Y-97289973D01*
X109246959Y-97466600D01*
X109229563Y-97643227D01*
X109195216Y-97756453D01*
X109178043Y-97813067D01*
X109103948Y-97951687D01*
X109094378Y-97969591D01*
X109065048Y-98005329D01*
X108981786Y-98106786D01*
X108880329Y-98190048D01*
X108844591Y-98219378D01*
X108844589Y-98219379D01*
X108688067Y-98303043D01*
X108677290Y-98306312D01*
X108518227Y-98354563D01*
X108452042Y-98361082D01*
X108385860Y-98367600D01*
X108297340Y-98367600D01*
X108231157Y-98361081D01*
X108164973Y-98354563D01*
X108005910Y-98306312D01*
X107995133Y-98303043D01*
X107838611Y-98219379D01*
X107838609Y-98219378D01*
X107802871Y-98190048D01*
X107701414Y-98106786D01*
X107618152Y-98005329D01*
X107588822Y-97969591D01*
X107579252Y-97951687D01*
X107505157Y-97813067D01*
X107487984Y-97756453D01*
X107453637Y-97643227D01*
X107436241Y-97466600D01*
X107453637Y-97289973D01*
X107505157Y-97120134D01*
X107505157Y-97120133D01*
X107588821Y-96963611D01*
X107588822Y-96963609D01*
X107618152Y-96927871D01*
X107701414Y-96826414D01*
X107802871Y-96743152D01*
X107838609Y-96713822D01*
X107856513Y-96704252D01*
X107995133Y-96630157D01*
X108051747Y-96612984D01*
X108164973Y-96578637D01*
X108231158Y-96572118D01*
X108297340Y-96565600D01*
X108385860Y-96565600D01*
X108452042Y-96572118D01*
X108452042Y-96572118D01*
G37*
G36*
X105912042Y-96572118D02*
X105978227Y-96578637D01*
X106091453Y-96612984D01*
X106148067Y-96630157D01*
X106286687Y-96704252D01*
X106304591Y-96713822D01*
X106340329Y-96743152D01*
X106441786Y-96826414D01*
X106525048Y-96927871D01*
X106554378Y-96963609D01*
X106554379Y-96963611D01*
X106638043Y-97120133D01*
X106638043Y-97120134D01*
X106689563Y-97289973D01*
X106706959Y-97466600D01*
X106689563Y-97643227D01*
X106655216Y-97756453D01*
X106638043Y-97813067D01*
X106563948Y-97951687D01*
X106554378Y-97969591D01*
X106525048Y-98005329D01*
X106441786Y-98106786D01*
X106340329Y-98190048D01*
X106304591Y-98219378D01*
X106304589Y-98219379D01*
X106148067Y-98303043D01*
X106137290Y-98306312D01*
X105978227Y-98354563D01*
X105912042Y-98361082D01*
X105845860Y-98367600D01*
X105757340Y-98367600D01*
X105691157Y-98361081D01*
X105624973Y-98354563D01*
X105465910Y-98306312D01*
X105455133Y-98303043D01*
X105298611Y-98219379D01*
X105298609Y-98219378D01*
X105262871Y-98190048D01*
X105161414Y-98106786D01*
X105078152Y-98005329D01*
X105048822Y-97969591D01*
X105039252Y-97951687D01*
X104965157Y-97813067D01*
X104947984Y-97756453D01*
X104913637Y-97643227D01*
X104896241Y-97466600D01*
X104913637Y-97289973D01*
X104965157Y-97120134D01*
X104965157Y-97120133D01*
X105048821Y-96963611D01*
X105048822Y-96963609D01*
X105078152Y-96927871D01*
X105161414Y-96826414D01*
X105262871Y-96743152D01*
X105298609Y-96713822D01*
X105316513Y-96704252D01*
X105455133Y-96630157D01*
X105511747Y-96612984D01*
X105624973Y-96578637D01*
X105691158Y-96572118D01*
X105757340Y-96565600D01*
X105845860Y-96565600D01*
X105912042Y-96572118D01*
X105912042Y-96572118D01*
G37*
G36*
X103372042Y-96572118D02*
X103438227Y-96578637D01*
X103551453Y-96612984D01*
X103608067Y-96630157D01*
X103746687Y-96704252D01*
X103764591Y-96713822D01*
X103800329Y-96743152D01*
X103901786Y-96826414D01*
X103985048Y-96927871D01*
X104014378Y-96963609D01*
X104014379Y-96963611D01*
X104098043Y-97120133D01*
X104098043Y-97120134D01*
X104149563Y-97289973D01*
X104166959Y-97466600D01*
X104149563Y-97643227D01*
X104115216Y-97756453D01*
X104098043Y-97813067D01*
X104023948Y-97951687D01*
X104014378Y-97969591D01*
X103985048Y-98005329D01*
X103901786Y-98106786D01*
X103800329Y-98190048D01*
X103764591Y-98219378D01*
X103764589Y-98219379D01*
X103608067Y-98303043D01*
X103597290Y-98306312D01*
X103438227Y-98354563D01*
X103372042Y-98361082D01*
X103305860Y-98367600D01*
X103217340Y-98367600D01*
X103151157Y-98361081D01*
X103084973Y-98354563D01*
X102925910Y-98306312D01*
X102915133Y-98303043D01*
X102758611Y-98219379D01*
X102758609Y-98219378D01*
X102722871Y-98190048D01*
X102621414Y-98106786D01*
X102538152Y-98005329D01*
X102508822Y-97969591D01*
X102499252Y-97951687D01*
X102425157Y-97813067D01*
X102407984Y-97756453D01*
X102373637Y-97643227D01*
X102356241Y-97466600D01*
X102373637Y-97289973D01*
X102425157Y-97120134D01*
X102425157Y-97120133D01*
X102508821Y-96963611D01*
X102508822Y-96963609D01*
X102538152Y-96927871D01*
X102621414Y-96826414D01*
X102722871Y-96743152D01*
X102758609Y-96713822D01*
X102776513Y-96704252D01*
X102915133Y-96630157D01*
X102971747Y-96612984D01*
X103084973Y-96578637D01*
X103151158Y-96572118D01*
X103217340Y-96565600D01*
X103305860Y-96565600D01*
X103372042Y-96572118D01*
X103372042Y-96572118D01*
G37*
G36*
X100832042Y-96572118D02*
X100898227Y-96578637D01*
X101011453Y-96612984D01*
X101068067Y-96630157D01*
X101206687Y-96704252D01*
X101224591Y-96713822D01*
X101260329Y-96743152D01*
X101361786Y-96826414D01*
X101445048Y-96927871D01*
X101474378Y-96963609D01*
X101474379Y-96963611D01*
X101558043Y-97120133D01*
X101558043Y-97120134D01*
X101609563Y-97289973D01*
X101626959Y-97466600D01*
X101609563Y-97643227D01*
X101575216Y-97756453D01*
X101558043Y-97813067D01*
X101483948Y-97951687D01*
X101474378Y-97969591D01*
X101445048Y-98005329D01*
X101361786Y-98106786D01*
X101260329Y-98190048D01*
X101224591Y-98219378D01*
X101224589Y-98219379D01*
X101068067Y-98303043D01*
X101057290Y-98306312D01*
X100898227Y-98354563D01*
X100832042Y-98361082D01*
X100765860Y-98367600D01*
X100677340Y-98367600D01*
X100611157Y-98361081D01*
X100544973Y-98354563D01*
X100385910Y-98306312D01*
X100375133Y-98303043D01*
X100218611Y-98219379D01*
X100218609Y-98219378D01*
X100182871Y-98190048D01*
X100081414Y-98106786D01*
X99998152Y-98005329D01*
X99968822Y-97969591D01*
X99959252Y-97951687D01*
X99885157Y-97813067D01*
X99867984Y-97756453D01*
X99833637Y-97643227D01*
X99816241Y-97466600D01*
X99833637Y-97289973D01*
X99885157Y-97120134D01*
X99885157Y-97120133D01*
X99968821Y-96963611D01*
X99968822Y-96963609D01*
X99998152Y-96927871D01*
X100081414Y-96826414D01*
X100182871Y-96743152D01*
X100218609Y-96713822D01*
X100236513Y-96704252D01*
X100375133Y-96630157D01*
X100431747Y-96612984D01*
X100544973Y-96578637D01*
X100611158Y-96572118D01*
X100677340Y-96565600D01*
X100765860Y-96565600D01*
X100832042Y-96572118D01*
X100832042Y-96572118D01*
G37*
G36*
X95752042Y-96572118D02*
X95818227Y-96578637D01*
X95931453Y-96612984D01*
X95988067Y-96630157D01*
X96126687Y-96704252D01*
X96144591Y-96713822D01*
X96180329Y-96743152D01*
X96281786Y-96826414D01*
X96365048Y-96927871D01*
X96394378Y-96963609D01*
X96394379Y-96963611D01*
X96478043Y-97120133D01*
X96478043Y-97120134D01*
X96529563Y-97289973D01*
X96546959Y-97466600D01*
X96529563Y-97643227D01*
X96495216Y-97756453D01*
X96478043Y-97813067D01*
X96403948Y-97951687D01*
X96394378Y-97969591D01*
X96365048Y-98005329D01*
X96281786Y-98106786D01*
X96180329Y-98190048D01*
X96144591Y-98219378D01*
X96144589Y-98219379D01*
X95988067Y-98303043D01*
X95977290Y-98306312D01*
X95818227Y-98354563D01*
X95752042Y-98361082D01*
X95685860Y-98367600D01*
X95597340Y-98367600D01*
X95531157Y-98361081D01*
X95464973Y-98354563D01*
X95305910Y-98306312D01*
X95295133Y-98303043D01*
X95138611Y-98219379D01*
X95138609Y-98219378D01*
X95102871Y-98190048D01*
X95001414Y-98106786D01*
X94918152Y-98005329D01*
X94888822Y-97969591D01*
X94879252Y-97951687D01*
X94805157Y-97813067D01*
X94787984Y-97756453D01*
X94753637Y-97643227D01*
X94736241Y-97466600D01*
X94753637Y-97289973D01*
X94805157Y-97120134D01*
X94805157Y-97120133D01*
X94888821Y-96963611D01*
X94888822Y-96963609D01*
X94918152Y-96927871D01*
X95001414Y-96826414D01*
X95102871Y-96743152D01*
X95138609Y-96713822D01*
X95156513Y-96704252D01*
X95295133Y-96630157D01*
X95351747Y-96612984D01*
X95464973Y-96578637D01*
X95531158Y-96572118D01*
X95597340Y-96565600D01*
X95685860Y-96565600D01*
X95752042Y-96572118D01*
X95752042Y-96572118D01*
G37*
G36*
X94002600Y-98367600D02*
X92200600Y-98367600D01*
X92200600Y-96565600D01*
X94002600Y-96565600D01*
X94002600Y-98367600D01*
X94002600Y-98367600D01*
G37*
G36*
X110992042Y-96572118D02*
X111058227Y-96578637D01*
X111171453Y-96612984D01*
X111228067Y-96630157D01*
X111366687Y-96704252D01*
X111384591Y-96713822D01*
X111420329Y-96743152D01*
X111521786Y-96826414D01*
X111605048Y-96927871D01*
X111634378Y-96963609D01*
X111634379Y-96963611D01*
X111718043Y-97120133D01*
X111718043Y-97120134D01*
X111769563Y-97289973D01*
X111786959Y-97466600D01*
X111769563Y-97643227D01*
X111735216Y-97756453D01*
X111718043Y-97813067D01*
X111643948Y-97951687D01*
X111634378Y-97969591D01*
X111605048Y-98005329D01*
X111521786Y-98106786D01*
X111420329Y-98190048D01*
X111384591Y-98219378D01*
X111384589Y-98219379D01*
X111228067Y-98303043D01*
X111217290Y-98306312D01*
X111058227Y-98354563D01*
X110992042Y-98361082D01*
X110925860Y-98367600D01*
X110837340Y-98367600D01*
X110771157Y-98361081D01*
X110704973Y-98354563D01*
X110545910Y-98306312D01*
X110535133Y-98303043D01*
X110378611Y-98219379D01*
X110378609Y-98219378D01*
X110342871Y-98190048D01*
X110241414Y-98106786D01*
X110158152Y-98005329D01*
X110128822Y-97969591D01*
X110119252Y-97951687D01*
X110045157Y-97813067D01*
X110027984Y-97756453D01*
X109993637Y-97643227D01*
X109976241Y-97466600D01*
X109993637Y-97289973D01*
X110045157Y-97120134D01*
X110045157Y-97120133D01*
X110128821Y-96963611D01*
X110128822Y-96963609D01*
X110158152Y-96927871D01*
X110241414Y-96826414D01*
X110342871Y-96743152D01*
X110378609Y-96713822D01*
X110396513Y-96704252D01*
X110535133Y-96630157D01*
X110591747Y-96612984D01*
X110704973Y-96578637D01*
X110771158Y-96572118D01*
X110837340Y-96565600D01*
X110925860Y-96565600D01*
X110992042Y-96572118D01*
X110992042Y-96572118D01*
G37*
G36*
X114977396Y-95590546D02*
X115150466Y-95662234D01*
X115306230Y-95766312D01*
X115438688Y-95898770D01*
X115542766Y-96054534D01*
X115614454Y-96227604D01*
X115651000Y-96411333D01*
X115651000Y-96598667D01*
X115614454Y-96782396D01*
X115542766Y-96955466D01*
X115438688Y-97111230D01*
X115306230Y-97243688D01*
X115150466Y-97347766D01*
X114977396Y-97419454D01*
X114793667Y-97456000D01*
X114606333Y-97456000D01*
X114422604Y-97419454D01*
X114249534Y-97347766D01*
X114093770Y-97243688D01*
X113961312Y-97111230D01*
X113857234Y-96955466D01*
X113785546Y-96782396D01*
X113749000Y-96598667D01*
X113749000Y-96411333D01*
X113785546Y-96227604D01*
X113857234Y-96054534D01*
X113961312Y-95898770D01*
X114093770Y-95766312D01*
X114249534Y-95662234D01*
X114422604Y-95590546D01*
X114606333Y-95554000D01*
X114793667Y-95554000D01*
X114977396Y-95590546D01*
X114977396Y-95590546D01*
G37*
G36*
X89577396Y-95590546D02*
X89750466Y-95662234D01*
X89906230Y-95766312D01*
X90038688Y-95898770D01*
X90142766Y-96054534D01*
X90214454Y-96227604D01*
X90251000Y-96411333D01*
X90251000Y-96598667D01*
X90214454Y-96782396D01*
X90142766Y-96955466D01*
X90038688Y-97111230D01*
X89906230Y-97243688D01*
X89750466Y-97347766D01*
X89577396Y-97419454D01*
X89393667Y-97456000D01*
X89206333Y-97456000D01*
X89022604Y-97419454D01*
X88849534Y-97347766D01*
X88693770Y-97243688D01*
X88561312Y-97111230D01*
X88457234Y-96955466D01*
X88385546Y-96782396D01*
X88349000Y-96598667D01*
X88349000Y-96411333D01*
X88385546Y-96227604D01*
X88457234Y-96054534D01*
X88561312Y-95898770D01*
X88693770Y-95766312D01*
X88849534Y-95662234D01*
X89022604Y-95590546D01*
X89206333Y-95554000D01*
X89393667Y-95554000D01*
X89577396Y-95590546D01*
X89577396Y-95590546D01*
G37*
G36*
X114977396Y-93050546D02*
X115150466Y-93122234D01*
X115306230Y-93226312D01*
X115438688Y-93358770D01*
X115542766Y-93514534D01*
X115614454Y-93687604D01*
X115651000Y-93871333D01*
X115651000Y-94058667D01*
X115614454Y-94242396D01*
X115542766Y-94415466D01*
X115438688Y-94571230D01*
X115306230Y-94703688D01*
X115150466Y-94807766D01*
X114977396Y-94879454D01*
X114793667Y-94916000D01*
X114606333Y-94916000D01*
X114422604Y-94879454D01*
X114249534Y-94807766D01*
X114093770Y-94703688D01*
X113961312Y-94571230D01*
X113857234Y-94415466D01*
X113785546Y-94242396D01*
X113749000Y-94058667D01*
X113749000Y-93871333D01*
X113785546Y-93687604D01*
X113857234Y-93514534D01*
X113961312Y-93358770D01*
X114093770Y-93226312D01*
X114249534Y-93122234D01*
X114422604Y-93050546D01*
X114606333Y-93014000D01*
X114793667Y-93014000D01*
X114977396Y-93050546D01*
X114977396Y-93050546D01*
G37*
G36*
X89577396Y-93050546D02*
X89750466Y-93122234D01*
X89906230Y-93226312D01*
X90038688Y-93358770D01*
X90142766Y-93514534D01*
X90214454Y-93687604D01*
X90251000Y-93871333D01*
X90251000Y-94058667D01*
X90214454Y-94242396D01*
X90142766Y-94415466D01*
X90038688Y-94571230D01*
X89906230Y-94703688D01*
X89750466Y-94807766D01*
X89577396Y-94879454D01*
X89393667Y-94916000D01*
X89206333Y-94916000D01*
X89022604Y-94879454D01*
X88849534Y-94807766D01*
X88693770Y-94703688D01*
X88561312Y-94571230D01*
X88457234Y-94415466D01*
X88385546Y-94242396D01*
X88349000Y-94058667D01*
X88349000Y-93871333D01*
X88385546Y-93687604D01*
X88457234Y-93514534D01*
X88561312Y-93358770D01*
X88693770Y-93226312D01*
X88849534Y-93122234D01*
X89022604Y-93050546D01*
X89206333Y-93014000D01*
X89393667Y-93014000D01*
X89577396Y-93050546D01*
X89577396Y-93050546D01*
G37*
G36*
X96588677Y-93378465D02*
X96626364Y-93389898D01*
X96661103Y-93408466D01*
X96691548Y-93433452D01*
X96716534Y-93463897D01*
X96735102Y-93498636D01*
X96746535Y-93536323D01*
X96751000Y-93581661D01*
X96751000Y-94418339D01*
X96746535Y-94463677D01*
X96735102Y-94501364D01*
X96716534Y-94536103D01*
X96691548Y-94566548D01*
X96661103Y-94591534D01*
X96626364Y-94610102D01*
X96588677Y-94621535D01*
X96543339Y-94626000D01*
X95456661Y-94626000D01*
X95411323Y-94621535D01*
X95373636Y-94610102D01*
X95338897Y-94591534D01*
X95308452Y-94566548D01*
X95283466Y-94536103D01*
X95264898Y-94501364D01*
X95253465Y-94463677D01*
X95249000Y-94418339D01*
X95249000Y-93581661D01*
X95253465Y-93536323D01*
X95264898Y-93498636D01*
X95283466Y-93463897D01*
X95308452Y-93433452D01*
X95338897Y-93408466D01*
X95373636Y-93389898D01*
X95411323Y-93378465D01*
X95456661Y-93374000D01*
X96543339Y-93374000D01*
X96588677Y-93378465D01*
X96588677Y-93378465D01*
G37*
G36*
X109088677Y-93378465D02*
X109126364Y-93389898D01*
X109161103Y-93408466D01*
X109191548Y-93433452D01*
X109216534Y-93463897D01*
X109235102Y-93498636D01*
X109246535Y-93536323D01*
X109251000Y-93581661D01*
X109251000Y-94418339D01*
X109246535Y-94463677D01*
X109235102Y-94501364D01*
X109216534Y-94536103D01*
X109191548Y-94566548D01*
X109161103Y-94591534D01*
X109126364Y-94610102D01*
X109088677Y-94621535D01*
X109043339Y-94626000D01*
X107956661Y-94626000D01*
X107911323Y-94621535D01*
X107873636Y-94610102D01*
X107838897Y-94591534D01*
X107808452Y-94566548D01*
X107783466Y-94536103D01*
X107764898Y-94501364D01*
X107753465Y-94463677D01*
X107749000Y-94418339D01*
X107749000Y-93581661D01*
X107753465Y-93536323D01*
X107764898Y-93498636D01*
X107783466Y-93463897D01*
X107808452Y-93433452D01*
X107838897Y-93408466D01*
X107873636Y-93389898D01*
X107911323Y-93378465D01*
X107956661Y-93374000D01*
X109043339Y-93374000D01*
X109088677Y-93378465D01*
X109088677Y-93378465D01*
G37*
G36*
X106588677Y-93378465D02*
X106626364Y-93389898D01*
X106661103Y-93408466D01*
X106691548Y-93433452D01*
X106716534Y-93463897D01*
X106735102Y-93498636D01*
X106746535Y-93536323D01*
X106751000Y-93581661D01*
X106751000Y-94418339D01*
X106746535Y-94463677D01*
X106735102Y-94501364D01*
X106716534Y-94536103D01*
X106691548Y-94566548D01*
X106661103Y-94591534D01*
X106626364Y-94610102D01*
X106588677Y-94621535D01*
X106543339Y-94626000D01*
X105456661Y-94626000D01*
X105411323Y-94621535D01*
X105373636Y-94610102D01*
X105338897Y-94591534D01*
X105308452Y-94566548D01*
X105283466Y-94536103D01*
X105264898Y-94501364D01*
X105253465Y-94463677D01*
X105249000Y-94418339D01*
X105249000Y-93581661D01*
X105253465Y-93536323D01*
X105264898Y-93498636D01*
X105283466Y-93463897D01*
X105308452Y-93433452D01*
X105338897Y-93408466D01*
X105373636Y-93389898D01*
X105411323Y-93378465D01*
X105456661Y-93374000D01*
X106543339Y-93374000D01*
X106588677Y-93378465D01*
X106588677Y-93378465D01*
G37*
G36*
X104088677Y-93378465D02*
X104126364Y-93389898D01*
X104161103Y-93408466D01*
X104191548Y-93433452D01*
X104216534Y-93463897D01*
X104235102Y-93498636D01*
X104246535Y-93536323D01*
X104251000Y-93581661D01*
X104251000Y-94418339D01*
X104246535Y-94463677D01*
X104235102Y-94501364D01*
X104216534Y-94536103D01*
X104191548Y-94566548D01*
X104161103Y-94591534D01*
X104126364Y-94610102D01*
X104088677Y-94621535D01*
X104043339Y-94626000D01*
X102956661Y-94626000D01*
X102911323Y-94621535D01*
X102873636Y-94610102D01*
X102838897Y-94591534D01*
X102808452Y-94566548D01*
X102783466Y-94536103D01*
X102764898Y-94501364D01*
X102753465Y-94463677D01*
X102749000Y-94418339D01*
X102749000Y-93581661D01*
X102753465Y-93536323D01*
X102764898Y-93498636D01*
X102783466Y-93463897D01*
X102808452Y-93433452D01*
X102838897Y-93408466D01*
X102873636Y-93389898D01*
X102911323Y-93378465D01*
X102956661Y-93374000D01*
X104043339Y-93374000D01*
X104088677Y-93378465D01*
X104088677Y-93378465D01*
G37*
G36*
X101088677Y-93378465D02*
X101126364Y-93389898D01*
X101161103Y-93408466D01*
X101191548Y-93433452D01*
X101216534Y-93463897D01*
X101235102Y-93498636D01*
X101246535Y-93536323D01*
X101251000Y-93581661D01*
X101251000Y-94418339D01*
X101246535Y-94463677D01*
X101235102Y-94501364D01*
X101216534Y-94536103D01*
X101191548Y-94566548D01*
X101161103Y-94591534D01*
X101126364Y-94610102D01*
X101088677Y-94621535D01*
X101043339Y-94626000D01*
X99956661Y-94626000D01*
X99911323Y-94621535D01*
X99873636Y-94610102D01*
X99838897Y-94591534D01*
X99808452Y-94566548D01*
X99783466Y-94536103D01*
X99764898Y-94501364D01*
X99753465Y-94463677D01*
X99749000Y-94418339D01*
X99749000Y-93581661D01*
X99753465Y-93536323D01*
X99764898Y-93498636D01*
X99783466Y-93463897D01*
X99808452Y-93433452D01*
X99838897Y-93408466D01*
X99873636Y-93389898D01*
X99911323Y-93378465D01*
X99956661Y-93374000D01*
X101043339Y-93374000D01*
X101088677Y-93378465D01*
X101088677Y-93378465D01*
G37*
G36*
X98588677Y-93378465D02*
X98626364Y-93389898D01*
X98661103Y-93408466D01*
X98691548Y-93433452D01*
X98716534Y-93463897D01*
X98735102Y-93498636D01*
X98746535Y-93536323D01*
X98751000Y-93581661D01*
X98751000Y-94418339D01*
X98746535Y-94463677D01*
X98735102Y-94501364D01*
X98716534Y-94536103D01*
X98691548Y-94566548D01*
X98661103Y-94591534D01*
X98626364Y-94610102D01*
X98588677Y-94621535D01*
X98543339Y-94626000D01*
X97456661Y-94626000D01*
X97411323Y-94621535D01*
X97373636Y-94610102D01*
X97338897Y-94591534D01*
X97308452Y-94566548D01*
X97283466Y-94536103D01*
X97264898Y-94501364D01*
X97253465Y-94463677D01*
X97249000Y-94418339D01*
X97249000Y-93581661D01*
X97253465Y-93536323D01*
X97264898Y-93498636D01*
X97283466Y-93463897D01*
X97308452Y-93433452D01*
X97338897Y-93408466D01*
X97373636Y-93389898D01*
X97411323Y-93378465D01*
X97456661Y-93374000D01*
X98543339Y-93374000D01*
X98588677Y-93378465D01*
X98588677Y-93378465D01*
G37*
G36*
X104088677Y-91328465D02*
X104126364Y-91339898D01*
X104161103Y-91358466D01*
X104191548Y-91383452D01*
X104216534Y-91413897D01*
X104235102Y-91448636D01*
X104246535Y-91486323D01*
X104251000Y-91531661D01*
X104251000Y-92368339D01*
X104246535Y-92413677D01*
X104235102Y-92451364D01*
X104216534Y-92486103D01*
X104191548Y-92516548D01*
X104161103Y-92541534D01*
X104126364Y-92560102D01*
X104088677Y-92571535D01*
X104043339Y-92576000D01*
X102956661Y-92576000D01*
X102911323Y-92571535D01*
X102873636Y-92560102D01*
X102838897Y-92541534D01*
X102808452Y-92516548D01*
X102783466Y-92486103D01*
X102764898Y-92451364D01*
X102753465Y-92413677D01*
X102749000Y-92368339D01*
X102749000Y-91531661D01*
X102753465Y-91486323D01*
X102764898Y-91448636D01*
X102783466Y-91413897D01*
X102808452Y-91383452D01*
X102838897Y-91358466D01*
X102873636Y-91339898D01*
X102911323Y-91328465D01*
X102956661Y-91324000D01*
X104043339Y-91324000D01*
X104088677Y-91328465D01*
X104088677Y-91328465D01*
G37*
G36*
X96588677Y-91328465D02*
X96626364Y-91339898D01*
X96661103Y-91358466D01*
X96691548Y-91383452D01*
X96716534Y-91413897D01*
X96735102Y-91448636D01*
X96746535Y-91486323D01*
X96751000Y-91531661D01*
X96751000Y-92368339D01*
X96746535Y-92413677D01*
X96735102Y-92451364D01*
X96716534Y-92486103D01*
X96691548Y-92516548D01*
X96661103Y-92541534D01*
X96626364Y-92560102D01*
X96588677Y-92571535D01*
X96543339Y-92576000D01*
X95456661Y-92576000D01*
X95411323Y-92571535D01*
X95373636Y-92560102D01*
X95338897Y-92541534D01*
X95308452Y-92516548D01*
X95283466Y-92486103D01*
X95264898Y-92451364D01*
X95253465Y-92413677D01*
X95249000Y-92368339D01*
X95249000Y-91531661D01*
X95253465Y-91486323D01*
X95264898Y-91448636D01*
X95283466Y-91413897D01*
X95308452Y-91383452D01*
X95338897Y-91358466D01*
X95373636Y-91339898D01*
X95411323Y-91328465D01*
X95456661Y-91324000D01*
X96543339Y-91324000D01*
X96588677Y-91328465D01*
X96588677Y-91328465D01*
G37*
G36*
X98588677Y-91328465D02*
X98626364Y-91339898D01*
X98661103Y-91358466D01*
X98691548Y-91383452D01*
X98716534Y-91413897D01*
X98735102Y-91448636D01*
X98746535Y-91486323D01*
X98751000Y-91531661D01*
X98751000Y-92368339D01*
X98746535Y-92413677D01*
X98735102Y-92451364D01*
X98716534Y-92486103D01*
X98691548Y-92516548D01*
X98661103Y-92541534D01*
X98626364Y-92560102D01*
X98588677Y-92571535D01*
X98543339Y-92576000D01*
X97456661Y-92576000D01*
X97411323Y-92571535D01*
X97373636Y-92560102D01*
X97338897Y-92541534D01*
X97308452Y-92516548D01*
X97283466Y-92486103D01*
X97264898Y-92451364D01*
X97253465Y-92413677D01*
X97249000Y-92368339D01*
X97249000Y-91531661D01*
X97253465Y-91486323D01*
X97264898Y-91448636D01*
X97283466Y-91413897D01*
X97308452Y-91383452D01*
X97338897Y-91358466D01*
X97373636Y-91339898D01*
X97411323Y-91328465D01*
X97456661Y-91324000D01*
X98543339Y-91324000D01*
X98588677Y-91328465D01*
X98588677Y-91328465D01*
G37*
G36*
X101088677Y-91328465D02*
X101126364Y-91339898D01*
X101161103Y-91358466D01*
X101191548Y-91383452D01*
X101216534Y-91413897D01*
X101235102Y-91448636D01*
X101246535Y-91486323D01*
X101251000Y-91531661D01*
X101251000Y-92368339D01*
X101246535Y-92413677D01*
X101235102Y-92451364D01*
X101216534Y-92486103D01*
X101191548Y-92516548D01*
X101161103Y-92541534D01*
X101126364Y-92560102D01*
X101088677Y-92571535D01*
X101043339Y-92576000D01*
X99956661Y-92576000D01*
X99911323Y-92571535D01*
X99873636Y-92560102D01*
X99838897Y-92541534D01*
X99808452Y-92516548D01*
X99783466Y-92486103D01*
X99764898Y-92451364D01*
X99753465Y-92413677D01*
X99749000Y-92368339D01*
X99749000Y-91531661D01*
X99753465Y-91486323D01*
X99764898Y-91448636D01*
X99783466Y-91413897D01*
X99808452Y-91383452D01*
X99838897Y-91358466D01*
X99873636Y-91339898D01*
X99911323Y-91328465D01*
X99956661Y-91324000D01*
X101043339Y-91324000D01*
X101088677Y-91328465D01*
X101088677Y-91328465D01*
G37*
G36*
X109088677Y-91328465D02*
X109126364Y-91339898D01*
X109161103Y-91358466D01*
X109191548Y-91383452D01*
X109216534Y-91413897D01*
X109235102Y-91448636D01*
X109246535Y-91486323D01*
X109251000Y-91531661D01*
X109251000Y-92368339D01*
X109246535Y-92413677D01*
X109235102Y-92451364D01*
X109216534Y-92486103D01*
X109191548Y-92516548D01*
X109161103Y-92541534D01*
X109126364Y-92560102D01*
X109088677Y-92571535D01*
X109043339Y-92576000D01*
X107956661Y-92576000D01*
X107911323Y-92571535D01*
X107873636Y-92560102D01*
X107838897Y-92541534D01*
X107808452Y-92516548D01*
X107783466Y-92486103D01*
X107764898Y-92451364D01*
X107753465Y-92413677D01*
X107749000Y-92368339D01*
X107749000Y-91531661D01*
X107753465Y-91486323D01*
X107764898Y-91448636D01*
X107783466Y-91413897D01*
X107808452Y-91383452D01*
X107838897Y-91358466D01*
X107873636Y-91339898D01*
X107911323Y-91328465D01*
X107956661Y-91324000D01*
X109043339Y-91324000D01*
X109088677Y-91328465D01*
X109088677Y-91328465D01*
G37*
G36*
X106588677Y-91328465D02*
X106626364Y-91339898D01*
X106661103Y-91358466D01*
X106691548Y-91383452D01*
X106716534Y-91413897D01*
X106735102Y-91448636D01*
X106746535Y-91486323D01*
X106751000Y-91531661D01*
X106751000Y-92368339D01*
X106746535Y-92413677D01*
X106735102Y-92451364D01*
X106716534Y-92486103D01*
X106691548Y-92516548D01*
X106661103Y-92541534D01*
X106626364Y-92560102D01*
X106588677Y-92571535D01*
X106543339Y-92576000D01*
X105456661Y-92576000D01*
X105411323Y-92571535D01*
X105373636Y-92560102D01*
X105338897Y-92541534D01*
X105308452Y-92516548D01*
X105283466Y-92486103D01*
X105264898Y-92451364D01*
X105253465Y-92413677D01*
X105249000Y-92368339D01*
X105249000Y-91531661D01*
X105253465Y-91486323D01*
X105264898Y-91448636D01*
X105283466Y-91413897D01*
X105308452Y-91383452D01*
X105338897Y-91358466D01*
X105373636Y-91339898D01*
X105411323Y-91328465D01*
X105456661Y-91324000D01*
X106543339Y-91324000D01*
X106588677Y-91328465D01*
X106588677Y-91328465D01*
G37*
G36*
X89577396Y-90510546D02*
X89750466Y-90582234D01*
X89906230Y-90686312D01*
X90038688Y-90818770D01*
X90142766Y-90974534D01*
X90214454Y-91147604D01*
X90251000Y-91331333D01*
X90251000Y-91518667D01*
X90214454Y-91702396D01*
X90142766Y-91875466D01*
X90038688Y-92031230D01*
X89906230Y-92163688D01*
X89750466Y-92267766D01*
X89577396Y-92339454D01*
X89393667Y-92376000D01*
X89206333Y-92376000D01*
X89022604Y-92339454D01*
X88849534Y-92267766D01*
X88693770Y-92163688D01*
X88561312Y-92031230D01*
X88457234Y-91875466D01*
X88385546Y-91702396D01*
X88349000Y-91518667D01*
X88349000Y-91331333D01*
X88385546Y-91147604D01*
X88457234Y-90974534D01*
X88561312Y-90818770D01*
X88693770Y-90686312D01*
X88849534Y-90582234D01*
X89022604Y-90510546D01*
X89206333Y-90474000D01*
X89393667Y-90474000D01*
X89577396Y-90510546D01*
X89577396Y-90510546D01*
G37*
G36*
X114977396Y-90510546D02*
X115150466Y-90582234D01*
X115306230Y-90686312D01*
X115438688Y-90818770D01*
X115542766Y-90974534D01*
X115614454Y-91147604D01*
X115651000Y-91331333D01*
X115651000Y-91518667D01*
X115614454Y-91702396D01*
X115542766Y-91875466D01*
X115438688Y-92031230D01*
X115306230Y-92163688D01*
X115150466Y-92267766D01*
X114977396Y-92339454D01*
X114793667Y-92376000D01*
X114606333Y-92376000D01*
X114422604Y-92339454D01*
X114249534Y-92267766D01*
X114093770Y-92163688D01*
X113961312Y-92031230D01*
X113857234Y-91875466D01*
X113785546Y-91702396D01*
X113749000Y-91518667D01*
X113749000Y-91331333D01*
X113785546Y-91147604D01*
X113857234Y-90974534D01*
X113961312Y-90818770D01*
X114093770Y-90686312D01*
X114249534Y-90582234D01*
X114422604Y-90510546D01*
X114606333Y-90474000D01*
X114793667Y-90474000D01*
X114977396Y-90510546D01*
X114977396Y-90510546D01*
G37*
G36*
X99438677Y-88753465D02*
X99476364Y-88764898D01*
X99511103Y-88783466D01*
X99541548Y-88808452D01*
X99566534Y-88838897D01*
X99585102Y-88873636D01*
X99596535Y-88911323D01*
X99601000Y-88956661D01*
X99601000Y-90043339D01*
X99596535Y-90088677D01*
X99585102Y-90126364D01*
X99566534Y-90161103D01*
X99541548Y-90191548D01*
X99511103Y-90216534D01*
X99476364Y-90235102D01*
X99438677Y-90246535D01*
X99393339Y-90251000D01*
X98556661Y-90251000D01*
X98511323Y-90246535D01*
X98473636Y-90235102D01*
X98438897Y-90216534D01*
X98408452Y-90191548D01*
X98383466Y-90161103D01*
X98364898Y-90126364D01*
X98353465Y-90088677D01*
X98349000Y-90043339D01*
X98349000Y-88956661D01*
X98353465Y-88911323D01*
X98364898Y-88873636D01*
X98383466Y-88838897D01*
X98408452Y-88808452D01*
X98438897Y-88783466D01*
X98473636Y-88764898D01*
X98511323Y-88753465D01*
X98556661Y-88749000D01*
X99393339Y-88749000D01*
X99438677Y-88753465D01*
X99438677Y-88753465D01*
G37*
G36*
X101488677Y-88753465D02*
X101526364Y-88764898D01*
X101561103Y-88783466D01*
X101591548Y-88808452D01*
X101616534Y-88838897D01*
X101635102Y-88873636D01*
X101646535Y-88911323D01*
X101651000Y-88956661D01*
X101651000Y-90043339D01*
X101646535Y-90088677D01*
X101635102Y-90126364D01*
X101616534Y-90161103D01*
X101591548Y-90191548D01*
X101561103Y-90216534D01*
X101526364Y-90235102D01*
X101488677Y-90246535D01*
X101443339Y-90251000D01*
X100606661Y-90251000D01*
X100561323Y-90246535D01*
X100523636Y-90235102D01*
X100488897Y-90216534D01*
X100458452Y-90191548D01*
X100433466Y-90161103D01*
X100414898Y-90126364D01*
X100403465Y-90088677D01*
X100399000Y-90043339D01*
X100399000Y-88956661D01*
X100403465Y-88911323D01*
X100414898Y-88873636D01*
X100433466Y-88838897D01*
X100458452Y-88808452D01*
X100488897Y-88783466D01*
X100523636Y-88764898D01*
X100561323Y-88753465D01*
X100606661Y-88749000D01*
X101443339Y-88749000D01*
X101488677Y-88753465D01*
X101488677Y-88753465D01*
G37*
G36*
X105488677Y-88753465D02*
X105526364Y-88764898D01*
X105561103Y-88783466D01*
X105591548Y-88808452D01*
X105616534Y-88838897D01*
X105635102Y-88873636D01*
X105646535Y-88911323D01*
X105651000Y-88956661D01*
X105651000Y-90043339D01*
X105646535Y-90088677D01*
X105635102Y-90126364D01*
X105616534Y-90161103D01*
X105591548Y-90191548D01*
X105561103Y-90216534D01*
X105526364Y-90235102D01*
X105488677Y-90246535D01*
X105443339Y-90251000D01*
X104606661Y-90251000D01*
X104561323Y-90246535D01*
X104523636Y-90235102D01*
X104488897Y-90216534D01*
X104458452Y-90191548D01*
X104433466Y-90161103D01*
X104414898Y-90126364D01*
X104403465Y-90088677D01*
X104399000Y-90043339D01*
X104399000Y-88956661D01*
X104403465Y-88911323D01*
X104414898Y-88873636D01*
X104433466Y-88838897D01*
X104458452Y-88808452D01*
X104488897Y-88783466D01*
X104523636Y-88764898D01*
X104561323Y-88753465D01*
X104606661Y-88749000D01*
X105443339Y-88749000D01*
X105488677Y-88753465D01*
X105488677Y-88753465D01*
G37*
G36*
X103438677Y-88753465D02*
X103476364Y-88764898D01*
X103511103Y-88783466D01*
X103541548Y-88808452D01*
X103566534Y-88838897D01*
X103585102Y-88873636D01*
X103596535Y-88911323D01*
X103601000Y-88956661D01*
X103601000Y-90043339D01*
X103596535Y-90088677D01*
X103585102Y-90126364D01*
X103566534Y-90161103D01*
X103541548Y-90191548D01*
X103511103Y-90216534D01*
X103476364Y-90235102D01*
X103438677Y-90246535D01*
X103393339Y-90251000D01*
X102556661Y-90251000D01*
X102511323Y-90246535D01*
X102473636Y-90235102D01*
X102438897Y-90216534D01*
X102408452Y-90191548D01*
X102383466Y-90161103D01*
X102364898Y-90126364D01*
X102353465Y-90088677D01*
X102349000Y-90043339D01*
X102349000Y-88956661D01*
X102353465Y-88911323D01*
X102364898Y-88873636D01*
X102383466Y-88838897D01*
X102408452Y-88808452D01*
X102438897Y-88783466D01*
X102473636Y-88764898D01*
X102511323Y-88753465D01*
X102556661Y-88749000D01*
X103393339Y-88749000D01*
X103438677Y-88753465D01*
X103438677Y-88753465D01*
G37*
G36*
X114977396Y-87970546D02*
X115150466Y-88042234D01*
X115306230Y-88146312D01*
X115438688Y-88278770D01*
X115542766Y-88434534D01*
X115614454Y-88607604D01*
X115651000Y-88791333D01*
X115651000Y-88978667D01*
X115614454Y-89162396D01*
X115542766Y-89335466D01*
X115438688Y-89491230D01*
X115306230Y-89623688D01*
X115150466Y-89727766D01*
X114977396Y-89799454D01*
X114793667Y-89836000D01*
X114606333Y-89836000D01*
X114422604Y-89799454D01*
X114249534Y-89727766D01*
X114093770Y-89623688D01*
X113961312Y-89491230D01*
X113857234Y-89335466D01*
X113785546Y-89162396D01*
X113749000Y-88978667D01*
X113749000Y-88791333D01*
X113785546Y-88607604D01*
X113857234Y-88434534D01*
X113961312Y-88278770D01*
X114093770Y-88146312D01*
X114249534Y-88042234D01*
X114422604Y-87970546D01*
X114606333Y-87934000D01*
X114793667Y-87934000D01*
X114977396Y-87970546D01*
X114977396Y-87970546D01*
G37*
G36*
X89577396Y-87970546D02*
X89750466Y-88042234D01*
X89906230Y-88146312D01*
X90038688Y-88278770D01*
X90142766Y-88434534D01*
X90214454Y-88607604D01*
X90251000Y-88791333D01*
X90251000Y-88978667D01*
X90214454Y-89162396D01*
X90142766Y-89335466D01*
X90038688Y-89491230D01*
X89906230Y-89623688D01*
X89750466Y-89727766D01*
X89577396Y-89799454D01*
X89393667Y-89836000D01*
X89206333Y-89836000D01*
X89022604Y-89799454D01*
X88849534Y-89727766D01*
X88693770Y-89623688D01*
X88561312Y-89491230D01*
X88457234Y-89335466D01*
X88385546Y-89162396D01*
X88349000Y-88978667D01*
X88349000Y-88791333D01*
X88385546Y-88607604D01*
X88457234Y-88434534D01*
X88561312Y-88278770D01*
X88693770Y-88146312D01*
X88849534Y-88042234D01*
X89022604Y-87970546D01*
X89206333Y-87934000D01*
X89393667Y-87934000D01*
X89577396Y-87970546D01*
X89577396Y-87970546D01*
G37*
G36*
X110145331Y-84188211D02*
X110473092Y-84323974D01*
X110768073Y-84521074D01*
X111018926Y-84771927D01*
X111216026Y-85066908D01*
X111351789Y-85394669D01*
X111421000Y-85742616D01*
X111421000Y-86097384D01*
X111351789Y-86445331D01*
X111216026Y-86773092D01*
X111018926Y-87068073D01*
X110768073Y-87318926D01*
X110473092Y-87516026D01*
X110145331Y-87651789D01*
X109797384Y-87721000D01*
X109442616Y-87721000D01*
X109094669Y-87651789D01*
X108766908Y-87516026D01*
X108471927Y-87318926D01*
X108221074Y-87068073D01*
X108023974Y-86773092D01*
X107888211Y-86445331D01*
X107819000Y-86097384D01*
X107819000Y-85742616D01*
X107888211Y-85394669D01*
X108023974Y-85066908D01*
X108221074Y-84771927D01*
X108471927Y-84521074D01*
X108766908Y-84323974D01*
X109094669Y-84188211D01*
X109442616Y-84119000D01*
X109797384Y-84119000D01*
X110145331Y-84188211D01*
X110145331Y-84188211D01*
G37*
G36*
X94905331Y-84188211D02*
X95233092Y-84323974D01*
X95528073Y-84521074D01*
X95778926Y-84771927D01*
X95976026Y-85066908D01*
X96111789Y-85394669D01*
X96181000Y-85742616D01*
X96181000Y-86097384D01*
X96111789Y-86445331D01*
X95976026Y-86773092D01*
X95778926Y-87068073D01*
X95528073Y-87318926D01*
X95233092Y-87516026D01*
X94905331Y-87651789D01*
X94557384Y-87721000D01*
X94202616Y-87721000D01*
X93854669Y-87651789D01*
X93526908Y-87516026D01*
X93231927Y-87318926D01*
X92981074Y-87068073D01*
X92783974Y-86773092D01*
X92648211Y-86445331D01*
X92579000Y-86097384D01*
X92579000Y-85742616D01*
X92648211Y-85394669D01*
X92783974Y-85066908D01*
X92981074Y-84771927D01*
X93231927Y-84521074D01*
X93526908Y-84323974D01*
X93854669Y-84188211D01*
X94202616Y-84119000D01*
X94557384Y-84119000D01*
X94905331Y-84188211D01*
X94905331Y-84188211D01*
G37*
G36*
X102588675Y-86242769D02*
X102626362Y-86254202D01*
X102661101Y-86272770D01*
X102691546Y-86297756D01*
X102716532Y-86328201D01*
X102735100Y-86362940D01*
X102746533Y-86400627D01*
X102750998Y-86445965D01*
X102750998Y-87282643D01*
X102746533Y-87327981D01*
X102735100Y-87365668D01*
X102716532Y-87400407D01*
X102691546Y-87430852D01*
X102661101Y-87455838D01*
X102626362Y-87474406D01*
X102588675Y-87485839D01*
X102543337Y-87490304D01*
X101456659Y-87490304D01*
X101411321Y-87485839D01*
X101373634Y-87474406D01*
X101338895Y-87455838D01*
X101308450Y-87430852D01*
X101283464Y-87400407D01*
X101264896Y-87365668D01*
X101253463Y-87327981D01*
X101248998Y-87282643D01*
X101248998Y-86445965D01*
X101253463Y-86400627D01*
X101264896Y-86362940D01*
X101283464Y-86328201D01*
X101308450Y-86297756D01*
X101338895Y-86272770D01*
X101373634Y-86254202D01*
X101411321Y-86242769D01*
X101456659Y-86238304D01*
X102543337Y-86238304D01*
X102588675Y-86242769D01*
X102588675Y-86242769D01*
G37*
G36*
X100088677Y-86242769D02*
X100126364Y-86254202D01*
X100161103Y-86272770D01*
X100191548Y-86297756D01*
X100216534Y-86328201D01*
X100235102Y-86362940D01*
X100246535Y-86400627D01*
X100251000Y-86445965D01*
X100251000Y-87282643D01*
X100246535Y-87327981D01*
X100235102Y-87365668D01*
X100216534Y-87400407D01*
X100191548Y-87430852D01*
X100161103Y-87455838D01*
X100126364Y-87474406D01*
X100088677Y-87485839D01*
X100043339Y-87490304D01*
X98956661Y-87490304D01*
X98911323Y-87485839D01*
X98873636Y-87474406D01*
X98838897Y-87455838D01*
X98808452Y-87430852D01*
X98783466Y-87400407D01*
X98764898Y-87365668D01*
X98753465Y-87327981D01*
X98749000Y-87282643D01*
X98749000Y-86445965D01*
X98753465Y-86400627D01*
X98764898Y-86362940D01*
X98783466Y-86328201D01*
X98808452Y-86297756D01*
X98838897Y-86272770D01*
X98873636Y-86254202D01*
X98911323Y-86242769D01*
X98956661Y-86238304D01*
X100043339Y-86238304D01*
X100088677Y-86242769D01*
X100088677Y-86242769D01*
G37*
G36*
X105088677Y-86242769D02*
X105126364Y-86254202D01*
X105161103Y-86272770D01*
X105191548Y-86297756D01*
X105216534Y-86328201D01*
X105235102Y-86362940D01*
X105246535Y-86400627D01*
X105251000Y-86445965D01*
X105251000Y-87282643D01*
X105246535Y-87327981D01*
X105235102Y-87365668D01*
X105216534Y-87400407D01*
X105191548Y-87430852D01*
X105161103Y-87455838D01*
X105126364Y-87474406D01*
X105088677Y-87485839D01*
X105043339Y-87490304D01*
X103956661Y-87490304D01*
X103911323Y-87485839D01*
X103873636Y-87474406D01*
X103838897Y-87455838D01*
X103808452Y-87430852D01*
X103783466Y-87400407D01*
X103764898Y-87365668D01*
X103753465Y-87327981D01*
X103749000Y-87282643D01*
X103749000Y-86445965D01*
X103753465Y-86400627D01*
X103764898Y-86362940D01*
X103783466Y-86328201D01*
X103808452Y-86297756D01*
X103838897Y-86272770D01*
X103873636Y-86254202D01*
X103911323Y-86242769D01*
X103956661Y-86238304D01*
X105043339Y-86238304D01*
X105088677Y-86242769D01*
X105088677Y-86242769D01*
G37*
G36*
X114977396Y-85430546D02*
X115150466Y-85502234D01*
X115306230Y-85606312D01*
X115438688Y-85738770D01*
X115542766Y-85894534D01*
X115614454Y-86067604D01*
X115651000Y-86251333D01*
X115651000Y-86438667D01*
X115614454Y-86622396D01*
X115542766Y-86795466D01*
X115438688Y-86951230D01*
X115306230Y-87083688D01*
X115150466Y-87187766D01*
X114977396Y-87259454D01*
X114793667Y-87296000D01*
X114606333Y-87296000D01*
X114422604Y-87259454D01*
X114249534Y-87187766D01*
X114093770Y-87083688D01*
X113961312Y-86951230D01*
X113857234Y-86795466D01*
X113785546Y-86622396D01*
X113749000Y-86438667D01*
X113749000Y-86251333D01*
X113785546Y-86067604D01*
X113857234Y-85894534D01*
X113961312Y-85738770D01*
X114093770Y-85606312D01*
X114249534Y-85502234D01*
X114422604Y-85430546D01*
X114606333Y-85394000D01*
X114793667Y-85394000D01*
X114977396Y-85430546D01*
X114977396Y-85430546D01*
G37*
G36*
X89577396Y-85430546D02*
X89750466Y-85502234D01*
X89906230Y-85606312D01*
X90038688Y-85738770D01*
X90142766Y-85894534D01*
X90214454Y-86067604D01*
X90251000Y-86251333D01*
X90251000Y-86438667D01*
X90214454Y-86622396D01*
X90142766Y-86795466D01*
X90038688Y-86951230D01*
X89906230Y-87083688D01*
X89750466Y-87187766D01*
X89577396Y-87259454D01*
X89393667Y-87296000D01*
X89206333Y-87296000D01*
X89022604Y-87259454D01*
X88849534Y-87187766D01*
X88693770Y-87083688D01*
X88561312Y-86951230D01*
X88457234Y-86795466D01*
X88385546Y-86622396D01*
X88349000Y-86438667D01*
X88349000Y-86251333D01*
X88385546Y-86067604D01*
X88457234Y-85894534D01*
X88561312Y-85738770D01*
X88693770Y-85606312D01*
X88849534Y-85502234D01*
X89022604Y-85430546D01*
X89206333Y-85394000D01*
X89393667Y-85394000D01*
X89577396Y-85430546D01*
X89577396Y-85430546D01*
G37*
G36*
X105088677Y-84192769D02*
X105126364Y-84204202D01*
X105161103Y-84222770D01*
X105191548Y-84247756D01*
X105216534Y-84278201D01*
X105235102Y-84312940D01*
X105246535Y-84350627D01*
X105251000Y-84395965D01*
X105251000Y-85232643D01*
X105246535Y-85277981D01*
X105235102Y-85315668D01*
X105216534Y-85350407D01*
X105191548Y-85380852D01*
X105161103Y-85405838D01*
X105126364Y-85424406D01*
X105088677Y-85435839D01*
X105043339Y-85440304D01*
X103956661Y-85440304D01*
X103911323Y-85435839D01*
X103873636Y-85424406D01*
X103838897Y-85405838D01*
X103808452Y-85380852D01*
X103783466Y-85350407D01*
X103764898Y-85315668D01*
X103753465Y-85277981D01*
X103749000Y-85232643D01*
X103749000Y-84395965D01*
X103753465Y-84350627D01*
X103764898Y-84312940D01*
X103783466Y-84278201D01*
X103808452Y-84247756D01*
X103838897Y-84222770D01*
X103873636Y-84204202D01*
X103911323Y-84192769D01*
X103956661Y-84188304D01*
X105043339Y-84188304D01*
X105088677Y-84192769D01*
X105088677Y-84192769D01*
G37*
G36*
X102588675Y-84192769D02*
X102626362Y-84204202D01*
X102661101Y-84222770D01*
X102691546Y-84247756D01*
X102716532Y-84278201D01*
X102735100Y-84312940D01*
X102746533Y-84350627D01*
X102750998Y-84395965D01*
X102750998Y-85232643D01*
X102746533Y-85277981D01*
X102735100Y-85315668D01*
X102716532Y-85350407D01*
X102691546Y-85380852D01*
X102661101Y-85405838D01*
X102626362Y-85424406D01*
X102588675Y-85435839D01*
X102543337Y-85440304D01*
X101456659Y-85440304D01*
X101411321Y-85435839D01*
X101373634Y-85424406D01*
X101338895Y-85405838D01*
X101308450Y-85380852D01*
X101283464Y-85350407D01*
X101264896Y-85315668D01*
X101253463Y-85277981D01*
X101248998Y-85232643D01*
X101248998Y-84395965D01*
X101253463Y-84350627D01*
X101264896Y-84312940D01*
X101283464Y-84278201D01*
X101308450Y-84247756D01*
X101338895Y-84222770D01*
X101373634Y-84204202D01*
X101411321Y-84192769D01*
X101456659Y-84188304D01*
X102543337Y-84188304D01*
X102588675Y-84192769D01*
X102588675Y-84192769D01*
G37*
G36*
X100088677Y-84192769D02*
X100126364Y-84204202D01*
X100161103Y-84222770D01*
X100191548Y-84247756D01*
X100216534Y-84278201D01*
X100235102Y-84312940D01*
X100246535Y-84350627D01*
X100251000Y-84395965D01*
X100251000Y-85232643D01*
X100246535Y-85277981D01*
X100235102Y-85315668D01*
X100216534Y-85350407D01*
X100191548Y-85380852D01*
X100161103Y-85405838D01*
X100126364Y-85424406D01*
X100088677Y-85435839D01*
X100043339Y-85440304D01*
X98956661Y-85440304D01*
X98911323Y-85435839D01*
X98873636Y-85424406D01*
X98838897Y-85405838D01*
X98808452Y-85380852D01*
X98783466Y-85350407D01*
X98764898Y-85315668D01*
X98753465Y-85277981D01*
X98749000Y-85232643D01*
X98749000Y-84395965D01*
X98753465Y-84350627D01*
X98764898Y-84312940D01*
X98783466Y-84278201D01*
X98808452Y-84247756D01*
X98838897Y-84222770D01*
X98873636Y-84204202D01*
X98911323Y-84192769D01*
X98956661Y-84188304D01*
X100043339Y-84188304D01*
X100088677Y-84192769D01*
X100088677Y-84192769D01*
G37*
G36*
X89577396Y-82890546D02*
X89750466Y-82962234D01*
X89906230Y-83066312D01*
X90038688Y-83198770D01*
X90142766Y-83354534D01*
X90214454Y-83527604D01*
X90251000Y-83711333D01*
X90251000Y-83898667D01*
X90214454Y-84082396D01*
X90142766Y-84255466D01*
X90038688Y-84411230D01*
X89906230Y-84543688D01*
X89750466Y-84647766D01*
X89577396Y-84719454D01*
X89393667Y-84756000D01*
X89206333Y-84756000D01*
X89022604Y-84719454D01*
X88849534Y-84647766D01*
X88693770Y-84543688D01*
X88561312Y-84411230D01*
X88457234Y-84255466D01*
X88385546Y-84082396D01*
X88349000Y-83898667D01*
X88349000Y-83711333D01*
X88385546Y-83527604D01*
X88457234Y-83354534D01*
X88561312Y-83198770D01*
X88693770Y-83066312D01*
X88849534Y-82962234D01*
X89022604Y-82890546D01*
X89206333Y-82854000D01*
X89393667Y-82854000D01*
X89577396Y-82890546D01*
X89577396Y-82890546D01*
G37*
G36*
X114977396Y-82890546D02*
X115150466Y-82962234D01*
X115306230Y-83066312D01*
X115438688Y-83198770D01*
X115542766Y-83354534D01*
X115614454Y-83527604D01*
X115651000Y-83711333D01*
X115651000Y-83898667D01*
X115614454Y-84082396D01*
X115542766Y-84255466D01*
X115438688Y-84411230D01*
X115306230Y-84543688D01*
X115150466Y-84647766D01*
X114977396Y-84719454D01*
X114793667Y-84756000D01*
X114606333Y-84756000D01*
X114422604Y-84719454D01*
X114249534Y-84647766D01*
X114093770Y-84543688D01*
X113961312Y-84411230D01*
X113857234Y-84255466D01*
X113785546Y-84082396D01*
X113749000Y-83898667D01*
X113749000Y-83711333D01*
X113785546Y-83527604D01*
X113857234Y-83354534D01*
X113961312Y-83198770D01*
X114093770Y-83066312D01*
X114249534Y-82962234D01*
X114422604Y-82890546D01*
X114606333Y-82854000D01*
X114793667Y-82854000D01*
X114977396Y-82890546D01*
X114977396Y-82890546D01*
G37*
G36*
X89577396Y-80350546D02*
X89750466Y-80422234D01*
X89906230Y-80526312D01*
X90038688Y-80658770D01*
X90142766Y-80814534D01*
X90214454Y-80987604D01*
X90251000Y-81171333D01*
X90251000Y-81358667D01*
X90214454Y-81542396D01*
X90142766Y-81715466D01*
X90038688Y-81871230D01*
X89906230Y-82003688D01*
X89750466Y-82107766D01*
X89577396Y-82179454D01*
X89393667Y-82216000D01*
X89206333Y-82216000D01*
X89022604Y-82179454D01*
X88849534Y-82107766D01*
X88693770Y-82003688D01*
X88561312Y-81871230D01*
X88457234Y-81715466D01*
X88385546Y-81542396D01*
X88349000Y-81358667D01*
X88349000Y-81171333D01*
X88385546Y-80987604D01*
X88457234Y-80814534D01*
X88561312Y-80658770D01*
X88693770Y-80526312D01*
X88849534Y-80422234D01*
X89022604Y-80350546D01*
X89206333Y-80314000D01*
X89393667Y-80314000D01*
X89577396Y-80350546D01*
X89577396Y-80350546D01*
G37*
G36*
X114977396Y-80350546D02*
X115150466Y-80422234D01*
X115306230Y-80526312D01*
X115438688Y-80658770D01*
X115542766Y-80814534D01*
X115614454Y-80987604D01*
X115651000Y-81171333D01*
X115651000Y-81358667D01*
X115614454Y-81542396D01*
X115542766Y-81715466D01*
X115438688Y-81871230D01*
X115306230Y-82003688D01*
X115150466Y-82107766D01*
X114977396Y-82179454D01*
X114793667Y-82216000D01*
X114606333Y-82216000D01*
X114422604Y-82179454D01*
X114249534Y-82107766D01*
X114093770Y-82003688D01*
X113961312Y-81871230D01*
X113857234Y-81715466D01*
X113785546Y-81542396D01*
X113749000Y-81358667D01*
X113749000Y-81171333D01*
X113785546Y-80987604D01*
X113857234Y-80814534D01*
X113961312Y-80658770D01*
X114093770Y-80526312D01*
X114249534Y-80422234D01*
X114422604Y-80350546D01*
X114606333Y-80314000D01*
X114793667Y-80314000D01*
X114977396Y-80350546D01*
X114977396Y-80350546D01*
G37*
G36*
X111076425Y-79182760D02*
X111076428Y-79182761D01*
X111076429Y-79182761D01*
X111255693Y-79237140D01*
X111255695Y-79237141D01*
X111420905Y-79325448D01*
X111565712Y-79444288D01*
X111684552Y-79589095D01*
X111772859Y-79754305D01*
X111827240Y-79933575D01*
X111845601Y-80120000D01*
X111827240Y-80306425D01*
X111827239Y-80306428D01*
X111827239Y-80306429D01*
X111792110Y-80422235D01*
X111772859Y-80485695D01*
X111684552Y-80650905D01*
X111565712Y-80795712D01*
X111420905Y-80914552D01*
X111420903Y-80914553D01*
X111255693Y-81002860D01*
X111076429Y-81057239D01*
X111076428Y-81057239D01*
X111076425Y-81057240D01*
X110936718Y-81071000D01*
X110843282Y-81071000D01*
X110703575Y-81057240D01*
X110703572Y-81057239D01*
X110703571Y-81057239D01*
X110524307Y-81002860D01*
X110359097Y-80914553D01*
X110359095Y-80914552D01*
X110214288Y-80795712D01*
X110095448Y-80650905D01*
X110007141Y-80485695D01*
X109987891Y-80422235D01*
X109952761Y-80306429D01*
X109952761Y-80306428D01*
X109952760Y-80306425D01*
X109934399Y-80120000D01*
X109952760Y-79933575D01*
X110007141Y-79754305D01*
X110095448Y-79589095D01*
X110214288Y-79444288D01*
X110359095Y-79325448D01*
X110524305Y-79237141D01*
X110524307Y-79237140D01*
X110703571Y-79182761D01*
X110703572Y-79182761D01*
X110703575Y-79182760D01*
X110843282Y-79169000D01*
X110936718Y-79169000D01*
X111076425Y-79182760D01*
X111076425Y-79182760D01*
G37*
G36*
X108536425Y-79182760D02*
X108536428Y-79182761D01*
X108536429Y-79182761D01*
X108715693Y-79237140D01*
X108715695Y-79237141D01*
X108880905Y-79325448D01*
X109025712Y-79444288D01*
X109144552Y-79589095D01*
X109232859Y-79754305D01*
X109287240Y-79933575D01*
X109305601Y-80120000D01*
X109287240Y-80306425D01*
X109287239Y-80306428D01*
X109287239Y-80306429D01*
X109252110Y-80422235D01*
X109232859Y-80485695D01*
X109144552Y-80650905D01*
X109025712Y-80795712D01*
X108880905Y-80914552D01*
X108880903Y-80914553D01*
X108715693Y-81002860D01*
X108536429Y-81057239D01*
X108536428Y-81057239D01*
X108536425Y-81057240D01*
X108396718Y-81071000D01*
X108303282Y-81071000D01*
X108163575Y-81057240D01*
X108163572Y-81057239D01*
X108163571Y-81057239D01*
X107984307Y-81002860D01*
X107819097Y-80914553D01*
X107819095Y-80914552D01*
X107674288Y-80795712D01*
X107555448Y-80650905D01*
X107467141Y-80485695D01*
X107447891Y-80422235D01*
X107412761Y-80306429D01*
X107412761Y-80306428D01*
X107412760Y-80306425D01*
X107394399Y-80120000D01*
X107412760Y-79933575D01*
X107467141Y-79754305D01*
X107555448Y-79589095D01*
X107674288Y-79444288D01*
X107819095Y-79325448D01*
X107984305Y-79237141D01*
X107984307Y-79237140D01*
X108163571Y-79182761D01*
X108163572Y-79182761D01*
X108163575Y-79182760D01*
X108303282Y-79169000D01*
X108396718Y-79169000D01*
X108536425Y-79182760D01*
X108536425Y-79182760D01*
G37*
G36*
X103456425Y-79182760D02*
X103456428Y-79182761D01*
X103456429Y-79182761D01*
X103635693Y-79237140D01*
X103635695Y-79237141D01*
X103800905Y-79325448D01*
X103945712Y-79444288D01*
X104064552Y-79589095D01*
X104152859Y-79754305D01*
X104207240Y-79933575D01*
X104225601Y-80120000D01*
X104207240Y-80306425D01*
X104207239Y-80306428D01*
X104207239Y-80306429D01*
X104172110Y-80422235D01*
X104152859Y-80485695D01*
X104064552Y-80650905D01*
X103945712Y-80795712D01*
X103800905Y-80914552D01*
X103800903Y-80914553D01*
X103635693Y-81002860D01*
X103456429Y-81057239D01*
X103456428Y-81057239D01*
X103456425Y-81057240D01*
X103316718Y-81071000D01*
X103223282Y-81071000D01*
X103083575Y-81057240D01*
X103083572Y-81057239D01*
X103083571Y-81057239D01*
X102904307Y-81002860D01*
X102739097Y-80914553D01*
X102739095Y-80914552D01*
X102594288Y-80795712D01*
X102475448Y-80650905D01*
X102387141Y-80485695D01*
X102367891Y-80422235D01*
X102332761Y-80306429D01*
X102332761Y-80306428D01*
X102332760Y-80306425D01*
X102314399Y-80120000D01*
X102332760Y-79933575D01*
X102387141Y-79754305D01*
X102475448Y-79589095D01*
X102594288Y-79444288D01*
X102739095Y-79325448D01*
X102904305Y-79237141D01*
X102904307Y-79237140D01*
X103083571Y-79182761D01*
X103083572Y-79182761D01*
X103083575Y-79182760D01*
X103223282Y-79169000D01*
X103316718Y-79169000D01*
X103456425Y-79182760D01*
X103456425Y-79182760D01*
G37*
G36*
X100916425Y-79182760D02*
X100916428Y-79182761D01*
X100916429Y-79182761D01*
X101095693Y-79237140D01*
X101095695Y-79237141D01*
X101260905Y-79325448D01*
X101405712Y-79444288D01*
X101524552Y-79589095D01*
X101612859Y-79754305D01*
X101667240Y-79933575D01*
X101685601Y-80120000D01*
X101667240Y-80306425D01*
X101667239Y-80306428D01*
X101667239Y-80306429D01*
X101632110Y-80422235D01*
X101612859Y-80485695D01*
X101524552Y-80650905D01*
X101405712Y-80795712D01*
X101260905Y-80914552D01*
X101260903Y-80914553D01*
X101095693Y-81002860D01*
X100916429Y-81057239D01*
X100916428Y-81057239D01*
X100916425Y-81057240D01*
X100776718Y-81071000D01*
X100683282Y-81071000D01*
X100543575Y-81057240D01*
X100543572Y-81057239D01*
X100543571Y-81057239D01*
X100364307Y-81002860D01*
X100199097Y-80914553D01*
X100199095Y-80914552D01*
X100054288Y-80795712D01*
X99935448Y-80650905D01*
X99847141Y-80485695D01*
X99827891Y-80422235D01*
X99792761Y-80306429D01*
X99792761Y-80306428D01*
X99792760Y-80306425D01*
X99774399Y-80120000D01*
X99792760Y-79933575D01*
X99847141Y-79754305D01*
X99935448Y-79589095D01*
X100054288Y-79444288D01*
X100199095Y-79325448D01*
X100364305Y-79237141D01*
X100364307Y-79237140D01*
X100543571Y-79182761D01*
X100543572Y-79182761D01*
X100543575Y-79182760D01*
X100683282Y-79169000D01*
X100776718Y-79169000D01*
X100916425Y-79182760D01*
X100916425Y-79182760D01*
G37*
G36*
X95836425Y-79182760D02*
X95836428Y-79182761D01*
X95836429Y-79182761D01*
X96015693Y-79237140D01*
X96015695Y-79237141D01*
X96180905Y-79325448D01*
X96325712Y-79444288D01*
X96444552Y-79589095D01*
X96532859Y-79754305D01*
X96587240Y-79933575D01*
X96605601Y-80120000D01*
X96587240Y-80306425D01*
X96587239Y-80306428D01*
X96587239Y-80306429D01*
X96552110Y-80422235D01*
X96532859Y-80485695D01*
X96444552Y-80650905D01*
X96325712Y-80795712D01*
X96180905Y-80914552D01*
X96180903Y-80914553D01*
X96015693Y-81002860D01*
X95836429Y-81057239D01*
X95836428Y-81057239D01*
X95836425Y-81057240D01*
X95696718Y-81071000D01*
X95603282Y-81071000D01*
X95463575Y-81057240D01*
X95463572Y-81057239D01*
X95463571Y-81057239D01*
X95284307Y-81002860D01*
X95119097Y-80914553D01*
X95119095Y-80914552D01*
X94974288Y-80795712D01*
X94855448Y-80650905D01*
X94767141Y-80485695D01*
X94747891Y-80422235D01*
X94712761Y-80306429D01*
X94712761Y-80306428D01*
X94712760Y-80306425D01*
X94694399Y-80120000D01*
X94712760Y-79933575D01*
X94767141Y-79754305D01*
X94855448Y-79589095D01*
X94974288Y-79444288D01*
X95119095Y-79325448D01*
X95284305Y-79237141D01*
X95284307Y-79237140D01*
X95463571Y-79182761D01*
X95463572Y-79182761D01*
X95463575Y-79182760D01*
X95603282Y-79169000D01*
X95696718Y-79169000D01*
X95836425Y-79182760D01*
X95836425Y-79182760D01*
G37*
G36*
X93296425Y-79182760D02*
X93296428Y-79182761D01*
X93296429Y-79182761D01*
X93475693Y-79237140D01*
X93475695Y-79237141D01*
X93640905Y-79325448D01*
X93785712Y-79444288D01*
X93904552Y-79589095D01*
X93992859Y-79754305D01*
X94047240Y-79933575D01*
X94065601Y-80120000D01*
X94047240Y-80306425D01*
X94047239Y-80306428D01*
X94047239Y-80306429D01*
X94012110Y-80422235D01*
X93992859Y-80485695D01*
X93904552Y-80650905D01*
X93785712Y-80795712D01*
X93640905Y-80914552D01*
X93640903Y-80914553D01*
X93475693Y-81002860D01*
X93296429Y-81057239D01*
X93296428Y-81057239D01*
X93296425Y-81057240D01*
X93156718Y-81071000D01*
X93063282Y-81071000D01*
X92923575Y-81057240D01*
X92923572Y-81057239D01*
X92923571Y-81057239D01*
X92744307Y-81002860D01*
X92579097Y-80914553D01*
X92579095Y-80914552D01*
X92434288Y-80795712D01*
X92315448Y-80650905D01*
X92227141Y-80485695D01*
X92207891Y-80422235D01*
X92172761Y-80306429D01*
X92172761Y-80306428D01*
X92172760Y-80306425D01*
X92154399Y-80120000D01*
X92172760Y-79933575D01*
X92227141Y-79754305D01*
X92315448Y-79589095D01*
X92434288Y-79444288D01*
X92579095Y-79325448D01*
X92744305Y-79237141D01*
X92744307Y-79237140D01*
X92923571Y-79182761D01*
X92923572Y-79182761D01*
X92923575Y-79182760D01*
X93063282Y-79169000D01*
X93156718Y-79169000D01*
X93296425Y-79182760D01*
X93296425Y-79182760D01*
G37*
G36*
X105996425Y-79182760D02*
X105996428Y-79182761D01*
X105996429Y-79182761D01*
X106175693Y-79237140D01*
X106175695Y-79237141D01*
X106340905Y-79325448D01*
X106485712Y-79444288D01*
X106604552Y-79589095D01*
X106692859Y-79754305D01*
X106747240Y-79933575D01*
X106765601Y-80120000D01*
X106747240Y-80306425D01*
X106747239Y-80306428D01*
X106747239Y-80306429D01*
X106712110Y-80422235D01*
X106692859Y-80485695D01*
X106604552Y-80650905D01*
X106485712Y-80795712D01*
X106340905Y-80914552D01*
X106340903Y-80914553D01*
X106175693Y-81002860D01*
X105996429Y-81057239D01*
X105996428Y-81057239D01*
X105996425Y-81057240D01*
X105856718Y-81071000D01*
X105763282Y-81071000D01*
X105623575Y-81057240D01*
X105623572Y-81057239D01*
X105623571Y-81057239D01*
X105444307Y-81002860D01*
X105279097Y-80914553D01*
X105279095Y-80914552D01*
X105134288Y-80795712D01*
X105015448Y-80650905D01*
X104927141Y-80485695D01*
X104907891Y-80422235D01*
X104872761Y-80306429D01*
X104872761Y-80306428D01*
X104872760Y-80306425D01*
X104854399Y-80120000D01*
X104872760Y-79933575D01*
X104927141Y-79754305D01*
X105015448Y-79589095D01*
X105134288Y-79444288D01*
X105279095Y-79325448D01*
X105444305Y-79237141D01*
X105444307Y-79237140D01*
X105623571Y-79182761D01*
X105623572Y-79182761D01*
X105623575Y-79182760D01*
X105763282Y-79169000D01*
X105856718Y-79169000D01*
X105996425Y-79182760D01*
X105996425Y-79182760D01*
G37*
G36*
X98376425Y-79182760D02*
X98376428Y-79182761D01*
X98376429Y-79182761D01*
X98555693Y-79237140D01*
X98555695Y-79237141D01*
X98720905Y-79325448D01*
X98865712Y-79444288D01*
X98984552Y-79589095D01*
X99072859Y-79754305D01*
X99127240Y-79933575D01*
X99145601Y-80120000D01*
X99127240Y-80306425D01*
X99127239Y-80306428D01*
X99127239Y-80306429D01*
X99092110Y-80422235D01*
X99072859Y-80485695D01*
X98984552Y-80650905D01*
X98865712Y-80795712D01*
X98720905Y-80914552D01*
X98720903Y-80914553D01*
X98555693Y-81002860D01*
X98376429Y-81057239D01*
X98376428Y-81057239D01*
X98376425Y-81057240D01*
X98236718Y-81071000D01*
X98143282Y-81071000D01*
X98003575Y-81057240D01*
X98003572Y-81057239D01*
X98003571Y-81057239D01*
X97824307Y-81002860D01*
X97659097Y-80914553D01*
X97659095Y-80914552D01*
X97514288Y-80795712D01*
X97395448Y-80650905D01*
X97307141Y-80485695D01*
X97287891Y-80422235D01*
X97252761Y-80306429D01*
X97252761Y-80306428D01*
X97252760Y-80306425D01*
X97234399Y-80120000D01*
X97252760Y-79933575D01*
X97307141Y-79754305D01*
X97395448Y-79589095D01*
X97514288Y-79444288D01*
X97659095Y-79325448D01*
X97824305Y-79237141D01*
X97824307Y-79237140D01*
X98003571Y-79182761D01*
X98003572Y-79182761D01*
X98003575Y-79182760D01*
X98143282Y-79169000D01*
X98236718Y-79169000D01*
X98376425Y-79182760D01*
X98376425Y-79182760D01*
G37*
G36*
X114977396Y-77810546D02*
X115150466Y-77882234D01*
X115306230Y-77986312D01*
X115438688Y-78118770D01*
X115542766Y-78274534D01*
X115614454Y-78447604D01*
X115651000Y-78631333D01*
X115651000Y-78818667D01*
X115614454Y-79002396D01*
X115542766Y-79175466D01*
X115438688Y-79331230D01*
X115306230Y-79463688D01*
X115150466Y-79567766D01*
X114977396Y-79639454D01*
X114793667Y-79676000D01*
X114606333Y-79676000D01*
X114422604Y-79639454D01*
X114249534Y-79567766D01*
X114093770Y-79463688D01*
X113961312Y-79331230D01*
X113857234Y-79175466D01*
X113785546Y-79002396D01*
X113749000Y-78818667D01*
X113749000Y-78631333D01*
X113785546Y-78447604D01*
X113857234Y-78274534D01*
X113961312Y-78118770D01*
X114093770Y-77986312D01*
X114249534Y-77882234D01*
X114422604Y-77810546D01*
X114606333Y-77774000D01*
X114793667Y-77774000D01*
X114977396Y-77810546D01*
X114977396Y-77810546D01*
G37*
G36*
X89577396Y-77810546D02*
X89750466Y-77882234D01*
X89906230Y-77986312D01*
X90038688Y-78118770D01*
X90142766Y-78274534D01*
X90214454Y-78447604D01*
X90251000Y-78631333D01*
X90251000Y-78818667D01*
X90214454Y-79002396D01*
X90142766Y-79175466D01*
X90038688Y-79331230D01*
X89906230Y-79463688D01*
X89750466Y-79567766D01*
X89577396Y-79639454D01*
X89393667Y-79676000D01*
X89206333Y-79676000D01*
X89022604Y-79639454D01*
X88849534Y-79567766D01*
X88693770Y-79463688D01*
X88561312Y-79331230D01*
X88457234Y-79175466D01*
X88385546Y-79002396D01*
X88349000Y-78818667D01*
X88349000Y-78631333D01*
X88385546Y-78447604D01*
X88457234Y-78274534D01*
X88561312Y-78118770D01*
X88693770Y-77986312D01*
X88849534Y-77882234D01*
X89022604Y-77810546D01*
X89206333Y-77774000D01*
X89393667Y-77774000D01*
X89577396Y-77810546D01*
X89577396Y-77810546D01*
G37*
G36*
X93588677Y-76428465D02*
X93626364Y-76439898D01*
X93661103Y-76458466D01*
X93691548Y-76483452D01*
X93716534Y-76513897D01*
X93735102Y-76548636D01*
X93746535Y-76586323D01*
X93751000Y-76631661D01*
X93751000Y-77468339D01*
X93746535Y-77513677D01*
X93735102Y-77551364D01*
X93716534Y-77586103D01*
X93691548Y-77616548D01*
X93661103Y-77641534D01*
X93626364Y-77660102D01*
X93588677Y-77671535D01*
X93543339Y-77676000D01*
X92456661Y-77676000D01*
X92411323Y-77671535D01*
X92373636Y-77660102D01*
X92338897Y-77641534D01*
X92308452Y-77616548D01*
X92283466Y-77586103D01*
X92264898Y-77551364D01*
X92253465Y-77513677D01*
X92249000Y-77468339D01*
X92249000Y-76631661D01*
X92253465Y-76586323D01*
X92264898Y-76548636D01*
X92283466Y-76513897D01*
X92308452Y-76483452D01*
X92338897Y-76458466D01*
X92373636Y-76439898D01*
X92411323Y-76428465D01*
X92456661Y-76424000D01*
X93543339Y-76424000D01*
X93588677Y-76428465D01*
X93588677Y-76428465D01*
G37*
G36*
X97088677Y-76428465D02*
X97126364Y-76439898D01*
X97161103Y-76458466D01*
X97191548Y-76483452D01*
X97216534Y-76513897D01*
X97235102Y-76548636D01*
X97246535Y-76586323D01*
X97251000Y-76631661D01*
X97251000Y-77468339D01*
X97246535Y-77513677D01*
X97235102Y-77551364D01*
X97216534Y-77586103D01*
X97191548Y-77616548D01*
X97161103Y-77641534D01*
X97126364Y-77660102D01*
X97088677Y-77671535D01*
X97043339Y-77676000D01*
X95956661Y-77676000D01*
X95911323Y-77671535D01*
X95873636Y-77660102D01*
X95838897Y-77641534D01*
X95808452Y-77616548D01*
X95783466Y-77586103D01*
X95764898Y-77551364D01*
X95753465Y-77513677D01*
X95749000Y-77468339D01*
X95749000Y-76631661D01*
X95753465Y-76586323D01*
X95764898Y-76548636D01*
X95783466Y-76513897D01*
X95808452Y-76483452D01*
X95838897Y-76458466D01*
X95873636Y-76439898D01*
X95911323Y-76428465D01*
X95956661Y-76424000D01*
X97043339Y-76424000D01*
X97088677Y-76428465D01*
X97088677Y-76428465D01*
G37*
G36*
X111588677Y-76428465D02*
X111626364Y-76439898D01*
X111661103Y-76458466D01*
X111691548Y-76483452D01*
X111716534Y-76513897D01*
X111735102Y-76548636D01*
X111746535Y-76586323D01*
X111751000Y-76631661D01*
X111751000Y-77468339D01*
X111746535Y-77513677D01*
X111735102Y-77551364D01*
X111716534Y-77586103D01*
X111691548Y-77616548D01*
X111661103Y-77641534D01*
X111626364Y-77660102D01*
X111588677Y-77671535D01*
X111543339Y-77676000D01*
X110456661Y-77676000D01*
X110411323Y-77671535D01*
X110373636Y-77660102D01*
X110338897Y-77641534D01*
X110308452Y-77616548D01*
X110283466Y-77586103D01*
X110264898Y-77551364D01*
X110253465Y-77513677D01*
X110249000Y-77468339D01*
X110249000Y-76631661D01*
X110253465Y-76586323D01*
X110264898Y-76548636D01*
X110283466Y-76513897D01*
X110308452Y-76483452D01*
X110338897Y-76458466D01*
X110373636Y-76439898D01*
X110411323Y-76428465D01*
X110456661Y-76424000D01*
X111543339Y-76424000D01*
X111588677Y-76428465D01*
X111588677Y-76428465D01*
G37*
G36*
X100588677Y-76403465D02*
X100626364Y-76414898D01*
X100661103Y-76433466D01*
X100691548Y-76458452D01*
X100716534Y-76488897D01*
X100735102Y-76523636D01*
X100746535Y-76561323D01*
X100751000Y-76606661D01*
X100751000Y-77443339D01*
X100746535Y-77488677D01*
X100735102Y-77526364D01*
X100716534Y-77561103D01*
X100691548Y-77591548D01*
X100661103Y-77616534D01*
X100626364Y-77635102D01*
X100588677Y-77646535D01*
X100543339Y-77651000D01*
X99456661Y-77651000D01*
X99411323Y-77646535D01*
X99373636Y-77635102D01*
X99338897Y-77616534D01*
X99308452Y-77591548D01*
X99283466Y-77561103D01*
X99264898Y-77526364D01*
X99253465Y-77488677D01*
X99249000Y-77443339D01*
X99249000Y-76606661D01*
X99253465Y-76561323D01*
X99264898Y-76523636D01*
X99283466Y-76488897D01*
X99308452Y-76458452D01*
X99338897Y-76433466D01*
X99373636Y-76414898D01*
X99411323Y-76403465D01*
X99456661Y-76399000D01*
X100543339Y-76399000D01*
X100588677Y-76403465D01*
X100588677Y-76403465D01*
G37*
G36*
X104588677Y-76403465D02*
X104626364Y-76414898D01*
X104661103Y-76433466D01*
X104691548Y-76458452D01*
X104716534Y-76488897D01*
X104735102Y-76523636D01*
X104746535Y-76561323D01*
X104751000Y-76606661D01*
X104751000Y-77443339D01*
X104746535Y-77488677D01*
X104735102Y-77526364D01*
X104716534Y-77561103D01*
X104691548Y-77591548D01*
X104661103Y-77616534D01*
X104626364Y-77635102D01*
X104588677Y-77646535D01*
X104543339Y-77651000D01*
X103456661Y-77651000D01*
X103411323Y-77646535D01*
X103373636Y-77635102D01*
X103338897Y-77616534D01*
X103308452Y-77591548D01*
X103283466Y-77561103D01*
X103264898Y-77526364D01*
X103253465Y-77488677D01*
X103249000Y-77443339D01*
X103249000Y-76606661D01*
X103253465Y-76561323D01*
X103264898Y-76523636D01*
X103283466Y-76488897D01*
X103308452Y-76458452D01*
X103338897Y-76433466D01*
X103373636Y-76414898D01*
X103411323Y-76403465D01*
X103456661Y-76399000D01*
X104543339Y-76399000D01*
X104588677Y-76403465D01*
X104588677Y-76403465D01*
G37*
G36*
X108088677Y-76290790D02*
X108126364Y-76302223D01*
X108161103Y-76320791D01*
X108191548Y-76345777D01*
X108216534Y-76376222D01*
X108235102Y-76410961D01*
X108246535Y-76448648D01*
X108251000Y-76493986D01*
X108251000Y-77330664D01*
X108246535Y-77376002D01*
X108235102Y-77413689D01*
X108216534Y-77448428D01*
X108191548Y-77478873D01*
X108161103Y-77503859D01*
X108126364Y-77522427D01*
X108088677Y-77533860D01*
X108043339Y-77538325D01*
X106956661Y-77538325D01*
X106911323Y-77533860D01*
X106873636Y-77522427D01*
X106838897Y-77503859D01*
X106808452Y-77478873D01*
X106783466Y-77448428D01*
X106764898Y-77413689D01*
X106753465Y-77376002D01*
X106749000Y-77330664D01*
X106749000Y-76493986D01*
X106753465Y-76448648D01*
X106764898Y-76410961D01*
X106783466Y-76376222D01*
X106808452Y-76345777D01*
X106838897Y-76320791D01*
X106873636Y-76302223D01*
X106911323Y-76290790D01*
X106956661Y-76286325D01*
X108043339Y-76286325D01*
X108088677Y-76290790D01*
X108088677Y-76290790D01*
G37*
G36*
X89577396Y-75270546D02*
X89750466Y-75342234D01*
X89906230Y-75446312D01*
X90038688Y-75578770D01*
X90142766Y-75734534D01*
X90214454Y-75907604D01*
X90251000Y-76091333D01*
X90251000Y-76278667D01*
X90214454Y-76462396D01*
X90142766Y-76635466D01*
X90038688Y-76791230D01*
X89906230Y-76923688D01*
X89750466Y-77027766D01*
X89577396Y-77099454D01*
X89393667Y-77136000D01*
X89206333Y-77136000D01*
X89022604Y-77099454D01*
X88849534Y-77027766D01*
X88693770Y-76923688D01*
X88561312Y-76791230D01*
X88457234Y-76635466D01*
X88385546Y-76462396D01*
X88349000Y-76278667D01*
X88349000Y-76091333D01*
X88385546Y-75907604D01*
X88457234Y-75734534D01*
X88561312Y-75578770D01*
X88693770Y-75446312D01*
X88849534Y-75342234D01*
X89022604Y-75270546D01*
X89206333Y-75234000D01*
X89393667Y-75234000D01*
X89577396Y-75270546D01*
X89577396Y-75270546D01*
G37*
G36*
X114977396Y-75270546D02*
X115150466Y-75342234D01*
X115306230Y-75446312D01*
X115438688Y-75578770D01*
X115542766Y-75734534D01*
X115614454Y-75907604D01*
X115651000Y-76091333D01*
X115651000Y-76278667D01*
X115614454Y-76462396D01*
X115542766Y-76635466D01*
X115438688Y-76791230D01*
X115306230Y-76923688D01*
X115150466Y-77027766D01*
X114977396Y-77099454D01*
X114793667Y-77136000D01*
X114606333Y-77136000D01*
X114422604Y-77099454D01*
X114249534Y-77027766D01*
X114093770Y-76923688D01*
X113961312Y-76791230D01*
X113857234Y-76635466D01*
X113785546Y-76462396D01*
X113749000Y-76278667D01*
X113749000Y-76091333D01*
X113785546Y-75907604D01*
X113857234Y-75734534D01*
X113961312Y-75578770D01*
X114093770Y-75446312D01*
X114249534Y-75342234D01*
X114422604Y-75270546D01*
X114606333Y-75234000D01*
X114793667Y-75234000D01*
X114977396Y-75270546D01*
X114977396Y-75270546D01*
G37*
G36*
X97088677Y-74378465D02*
X97126364Y-74389898D01*
X97161103Y-74408466D01*
X97191548Y-74433452D01*
X97216534Y-74463897D01*
X97235102Y-74498636D01*
X97246535Y-74536323D01*
X97251000Y-74581661D01*
X97251000Y-75418339D01*
X97246535Y-75463677D01*
X97235102Y-75501364D01*
X97216534Y-75536103D01*
X97191548Y-75566548D01*
X97161103Y-75591534D01*
X97126364Y-75610102D01*
X97088677Y-75621535D01*
X97043339Y-75626000D01*
X95956661Y-75626000D01*
X95911323Y-75621535D01*
X95873636Y-75610102D01*
X95838897Y-75591534D01*
X95808452Y-75566548D01*
X95783466Y-75536103D01*
X95764898Y-75501364D01*
X95753465Y-75463677D01*
X95749000Y-75418339D01*
X95749000Y-74581661D01*
X95753465Y-74536323D01*
X95764898Y-74498636D01*
X95783466Y-74463897D01*
X95808452Y-74433452D01*
X95838897Y-74408466D01*
X95873636Y-74389898D01*
X95911323Y-74378465D01*
X95956661Y-74374000D01*
X97043339Y-74374000D01*
X97088677Y-74378465D01*
X97088677Y-74378465D01*
G37*
G36*
X93588677Y-74378465D02*
X93626364Y-74389898D01*
X93661103Y-74408466D01*
X93691548Y-74433452D01*
X93716534Y-74463897D01*
X93735102Y-74498636D01*
X93746535Y-74536323D01*
X93751000Y-74581661D01*
X93751000Y-75418339D01*
X93746535Y-75463677D01*
X93735102Y-75501364D01*
X93716534Y-75536103D01*
X93691548Y-75566548D01*
X93661103Y-75591534D01*
X93626364Y-75610102D01*
X93588677Y-75621535D01*
X93543339Y-75626000D01*
X92456661Y-75626000D01*
X92411323Y-75621535D01*
X92373636Y-75610102D01*
X92338897Y-75591534D01*
X92308452Y-75566548D01*
X92283466Y-75536103D01*
X92264898Y-75501364D01*
X92253465Y-75463677D01*
X92249000Y-75418339D01*
X92249000Y-74581661D01*
X92253465Y-74536323D01*
X92264898Y-74498636D01*
X92283466Y-74463897D01*
X92308452Y-74433452D01*
X92338897Y-74408466D01*
X92373636Y-74389898D01*
X92411323Y-74378465D01*
X92456661Y-74374000D01*
X93543339Y-74374000D01*
X93588677Y-74378465D01*
X93588677Y-74378465D01*
G37*
G36*
X111588677Y-74378465D02*
X111626364Y-74389898D01*
X111661103Y-74408466D01*
X111691548Y-74433452D01*
X111716534Y-74463897D01*
X111735102Y-74498636D01*
X111746535Y-74536323D01*
X111751000Y-74581661D01*
X111751000Y-75418339D01*
X111746535Y-75463677D01*
X111735102Y-75501364D01*
X111716534Y-75536103D01*
X111691548Y-75566548D01*
X111661103Y-75591534D01*
X111626364Y-75610102D01*
X111588677Y-75621535D01*
X111543339Y-75626000D01*
X110456661Y-75626000D01*
X110411323Y-75621535D01*
X110373636Y-75610102D01*
X110338897Y-75591534D01*
X110308452Y-75566548D01*
X110283466Y-75536103D01*
X110264898Y-75501364D01*
X110253465Y-75463677D01*
X110249000Y-75418339D01*
X110249000Y-74581661D01*
X110253465Y-74536323D01*
X110264898Y-74498636D01*
X110283466Y-74463897D01*
X110308452Y-74433452D01*
X110338897Y-74408466D01*
X110373636Y-74389898D01*
X110411323Y-74378465D01*
X110456661Y-74374000D01*
X111543339Y-74374000D01*
X111588677Y-74378465D01*
X111588677Y-74378465D01*
G37*
G36*
X100588677Y-74353465D02*
X100626364Y-74364898D01*
X100661103Y-74383466D01*
X100691548Y-74408452D01*
X100716534Y-74438897D01*
X100735102Y-74473636D01*
X100746535Y-74511323D01*
X100751000Y-74556661D01*
X100751000Y-75393339D01*
X100746535Y-75438677D01*
X100735102Y-75476364D01*
X100716534Y-75511103D01*
X100691548Y-75541548D01*
X100661103Y-75566534D01*
X100626364Y-75585102D01*
X100588677Y-75596535D01*
X100543339Y-75601000D01*
X99456661Y-75601000D01*
X99411323Y-75596535D01*
X99373636Y-75585102D01*
X99338897Y-75566534D01*
X99308452Y-75541548D01*
X99283466Y-75511103D01*
X99264898Y-75476364D01*
X99253465Y-75438677D01*
X99249000Y-75393339D01*
X99249000Y-74556661D01*
X99253465Y-74511323D01*
X99264898Y-74473636D01*
X99283466Y-74438897D01*
X99308452Y-74408452D01*
X99338897Y-74383466D01*
X99373636Y-74364898D01*
X99411323Y-74353465D01*
X99456661Y-74349000D01*
X100543339Y-74349000D01*
X100588677Y-74353465D01*
X100588677Y-74353465D01*
G37*
G36*
X104588677Y-74353465D02*
X104626364Y-74364898D01*
X104661103Y-74383466D01*
X104691548Y-74408452D01*
X104716534Y-74438897D01*
X104735102Y-74473636D01*
X104746535Y-74511323D01*
X104751000Y-74556661D01*
X104751000Y-75393339D01*
X104746535Y-75438677D01*
X104735102Y-75476364D01*
X104716534Y-75511103D01*
X104691548Y-75541548D01*
X104661103Y-75566534D01*
X104626364Y-75585102D01*
X104588677Y-75596535D01*
X104543339Y-75601000D01*
X103456661Y-75601000D01*
X103411323Y-75596535D01*
X103373636Y-75585102D01*
X103338897Y-75566534D01*
X103308452Y-75541548D01*
X103283466Y-75511103D01*
X103264898Y-75476364D01*
X103253465Y-75438677D01*
X103249000Y-75393339D01*
X103249000Y-74556661D01*
X103253465Y-74511323D01*
X103264898Y-74473636D01*
X103283466Y-74438897D01*
X103308452Y-74408452D01*
X103338897Y-74383466D01*
X103373636Y-74364898D01*
X103411323Y-74353465D01*
X103456661Y-74349000D01*
X104543339Y-74349000D01*
X104588677Y-74353465D01*
X104588677Y-74353465D01*
G37*
G36*
X108088677Y-74240790D02*
X108126364Y-74252223D01*
X108161103Y-74270791D01*
X108191548Y-74295777D01*
X108216534Y-74326222D01*
X108235102Y-74360961D01*
X108246535Y-74398648D01*
X108251000Y-74443986D01*
X108251000Y-75280664D01*
X108246535Y-75326002D01*
X108235102Y-75363689D01*
X108216534Y-75398428D01*
X108191548Y-75428873D01*
X108161103Y-75453859D01*
X108126364Y-75472427D01*
X108088677Y-75483860D01*
X108043339Y-75488325D01*
X106956661Y-75488325D01*
X106911323Y-75483860D01*
X106873636Y-75472427D01*
X106838897Y-75453859D01*
X106808452Y-75428873D01*
X106783466Y-75398428D01*
X106764898Y-75363689D01*
X106753465Y-75326002D01*
X106749000Y-75280664D01*
X106749000Y-74443986D01*
X106753465Y-74398648D01*
X106764898Y-74360961D01*
X106783466Y-74326222D01*
X106808452Y-74295777D01*
X106838897Y-74270791D01*
X106873636Y-74252223D01*
X106911323Y-74240790D01*
X106956661Y-74236325D01*
X108043339Y-74236325D01*
X108088677Y-74240790D01*
X108088677Y-74240790D01*
G37*
G36*
X89577396Y-72730546D02*
X89750466Y-72802234D01*
X89906230Y-72906312D01*
X90038688Y-73038770D01*
X90142766Y-73194534D01*
X90214454Y-73367604D01*
X90251000Y-73551333D01*
X90251000Y-73738667D01*
X90214454Y-73922396D01*
X90142766Y-74095466D01*
X90038688Y-74251230D01*
X89906230Y-74383688D01*
X89750466Y-74487766D01*
X89577396Y-74559454D01*
X89393667Y-74596000D01*
X89206333Y-74596000D01*
X89022604Y-74559454D01*
X88849534Y-74487766D01*
X88693770Y-74383688D01*
X88561312Y-74251230D01*
X88457234Y-74095466D01*
X88385546Y-73922396D01*
X88349000Y-73738667D01*
X88349000Y-73551333D01*
X88385546Y-73367604D01*
X88457234Y-73194534D01*
X88561312Y-73038770D01*
X88693770Y-72906312D01*
X88849534Y-72802234D01*
X89022604Y-72730546D01*
X89206333Y-72694000D01*
X89393667Y-72694000D01*
X89577396Y-72730546D01*
X89577396Y-72730546D01*
G37*
G36*
X114977396Y-72730546D02*
X115150466Y-72802234D01*
X115306230Y-72906312D01*
X115438688Y-73038770D01*
X115542766Y-73194534D01*
X115614454Y-73367604D01*
X115651000Y-73551333D01*
X115651000Y-73738667D01*
X115614454Y-73922396D01*
X115542766Y-74095466D01*
X115438688Y-74251230D01*
X115306230Y-74383688D01*
X115150466Y-74487766D01*
X114977396Y-74559454D01*
X114793667Y-74596000D01*
X114606333Y-74596000D01*
X114422604Y-74559454D01*
X114249534Y-74487766D01*
X114093770Y-74383688D01*
X113961312Y-74251230D01*
X113857234Y-74095466D01*
X113785546Y-73922396D01*
X113749000Y-73738667D01*
X113749000Y-73551333D01*
X113785546Y-73367604D01*
X113857234Y-73194534D01*
X113961312Y-73038770D01*
X114093770Y-72906312D01*
X114249534Y-72802234D01*
X114422604Y-72730546D01*
X114606333Y-72694000D01*
X114793667Y-72694000D01*
X114977396Y-72730546D01*
X114977396Y-72730546D01*
G37*
G36*
X103501000Y-73401000D02*
X102499000Y-73401000D01*
X102499000Y-72499000D01*
X103501000Y-72499000D01*
X103501000Y-73401000D01*
X103501000Y-73401000D01*
G37*
G36*
X99501000Y-73401000D02*
X98499000Y-73401000D01*
X98499000Y-72499000D01*
X99501000Y-72499000D01*
X99501000Y-73401000D01*
X99501000Y-73401000D01*
G37*
G36*
X110501000Y-73401000D02*
X109499000Y-73401000D01*
X109499000Y-72499000D01*
X110501000Y-72499000D01*
X110501000Y-73401000D01*
X110501000Y-73401000D01*
G37*
G36*
X92501000Y-73401000D02*
X91499000Y-73401000D01*
X91499000Y-72499000D01*
X92501000Y-72499000D01*
X92501000Y-73401000D01*
X92501000Y-73401000D01*
G37*
G36*
X96001000Y-73401000D02*
X94999000Y-73401000D01*
X94999000Y-72499000D01*
X96001000Y-72499000D01*
X96001000Y-73401000D01*
X96001000Y-73401000D01*
G37*
G36*
X107001000Y-73401000D02*
X105999000Y-73401000D01*
X105999000Y-72499000D01*
X107001000Y-72499000D01*
X107001000Y-73401000D01*
X107001000Y-73401000D01*
G37*
G36*
X109001000Y-72451000D02*
X107999000Y-72451000D01*
X107999000Y-71549000D01*
X109001000Y-71549000D01*
X109001000Y-72451000D01*
X109001000Y-72451000D01*
G37*
G36*
X112501000Y-72451000D02*
X111499000Y-72451000D01*
X111499000Y-71549000D01*
X112501000Y-71549000D01*
X112501000Y-72451000D01*
X112501000Y-72451000D01*
G37*
G36*
X94501000Y-72451000D02*
X93499000Y-72451000D01*
X93499000Y-71549000D01*
X94501000Y-71549000D01*
X94501000Y-72451000D01*
X94501000Y-72451000D01*
G37*
G36*
X101501000Y-72451000D02*
X100499000Y-72451000D01*
X100499000Y-71549000D01*
X101501000Y-71549000D01*
X101501000Y-72451000D01*
X101501000Y-72451000D01*
G37*
G36*
X98001000Y-72451000D02*
X96999000Y-72451000D01*
X96999000Y-71549000D01*
X98001000Y-71549000D01*
X98001000Y-72451000D01*
X98001000Y-72451000D01*
G37*
G36*
X105501000Y-72451000D02*
X104499000Y-72451000D01*
X104499000Y-71549000D01*
X105501000Y-71549000D01*
X105501000Y-72451000D01*
X105501000Y-72451000D01*
G37*
G36*
X89577396Y-70190546D02*
X89750466Y-70262234D01*
X89906230Y-70366312D01*
X90038688Y-70498770D01*
X90142766Y-70654534D01*
X90214454Y-70827604D01*
X90251000Y-71011333D01*
X90251000Y-71198667D01*
X90214454Y-71382396D01*
X90142766Y-71555466D01*
X90038688Y-71711230D01*
X89906230Y-71843688D01*
X89750466Y-71947766D01*
X89577396Y-72019454D01*
X89393667Y-72056000D01*
X89206333Y-72056000D01*
X89022604Y-72019454D01*
X88849534Y-71947766D01*
X88693770Y-71843688D01*
X88561312Y-71711230D01*
X88457234Y-71555466D01*
X88385546Y-71382396D01*
X88349000Y-71198667D01*
X88349000Y-71011333D01*
X88385546Y-70827604D01*
X88457234Y-70654534D01*
X88561312Y-70498770D01*
X88693770Y-70366312D01*
X88849534Y-70262234D01*
X89022604Y-70190546D01*
X89206333Y-70154000D01*
X89393667Y-70154000D01*
X89577396Y-70190546D01*
X89577396Y-70190546D01*
G37*
G36*
X114977396Y-70190546D02*
X115150466Y-70262234D01*
X115306230Y-70366312D01*
X115438688Y-70498770D01*
X115542766Y-70654534D01*
X115614454Y-70827604D01*
X115651000Y-71011333D01*
X115651000Y-71198667D01*
X115614454Y-71382396D01*
X115542766Y-71555466D01*
X115438688Y-71711230D01*
X115306230Y-71843688D01*
X115150466Y-71947766D01*
X114977396Y-72019454D01*
X114793667Y-72056000D01*
X114606333Y-72056000D01*
X114422604Y-72019454D01*
X114249534Y-71947766D01*
X114093770Y-71843688D01*
X113961312Y-71711230D01*
X113857234Y-71555466D01*
X113785546Y-71382396D01*
X113749000Y-71198667D01*
X113749000Y-71011333D01*
X113785546Y-70827604D01*
X113857234Y-70654534D01*
X113961312Y-70498770D01*
X114093770Y-70366312D01*
X114249534Y-70262234D01*
X114422604Y-70190546D01*
X114606333Y-70154000D01*
X114793667Y-70154000D01*
X114977396Y-70190546D01*
X114977396Y-70190546D01*
G37*
G36*
X110501000Y-71501000D02*
X109499000Y-71501000D01*
X109499000Y-70599000D01*
X110501000Y-70599000D01*
X110501000Y-71501000D01*
X110501000Y-71501000D01*
G37*
G36*
X107001000Y-71501000D02*
X105999000Y-71501000D01*
X105999000Y-70599000D01*
X107001000Y-70599000D01*
X107001000Y-71501000D01*
X107001000Y-71501000D01*
G37*
G36*
X96001000Y-71501000D02*
X94999000Y-71501000D01*
X94999000Y-70599000D01*
X96001000Y-70599000D01*
X96001000Y-71501000D01*
X96001000Y-71501000D01*
G37*
G36*
X92501000Y-71501000D02*
X91499000Y-71501000D01*
X91499000Y-70599000D01*
X92501000Y-70599000D01*
X92501000Y-71501000D01*
X92501000Y-71501000D01*
G37*
G36*
X103501000Y-71501000D02*
X102499000Y-71501000D01*
X102499000Y-70599000D01*
X103501000Y-70599000D01*
X103501000Y-71501000D01*
X103501000Y-71501000D01*
G37*
G36*
X99501000Y-71501000D02*
X98499000Y-71501000D01*
X98499000Y-70599000D01*
X99501000Y-70599000D01*
X99501000Y-71501000D01*
X99501000Y-71501000D01*
G37*
G36*
X108088677Y-68403465D02*
X108126364Y-68414898D01*
X108161103Y-68433466D01*
X108191548Y-68458452D01*
X108216534Y-68488897D01*
X108235102Y-68523636D01*
X108246535Y-68561323D01*
X108251000Y-68606661D01*
X108251000Y-69443339D01*
X108246535Y-69488677D01*
X108235102Y-69526364D01*
X108216534Y-69561103D01*
X108191548Y-69591548D01*
X108161103Y-69616534D01*
X108126364Y-69635102D01*
X108088677Y-69646535D01*
X108043339Y-69651000D01*
X106956661Y-69651000D01*
X106911323Y-69646535D01*
X106873636Y-69635102D01*
X106838897Y-69616534D01*
X106808452Y-69591548D01*
X106783466Y-69561103D01*
X106764898Y-69526364D01*
X106753465Y-69488677D01*
X106749000Y-69443339D01*
X106749000Y-68606661D01*
X106753465Y-68561323D01*
X106764898Y-68523636D01*
X106783466Y-68488897D01*
X106808452Y-68458452D01*
X106838897Y-68433466D01*
X106873636Y-68414898D01*
X106911323Y-68403465D01*
X106956661Y-68399000D01*
X108043339Y-68399000D01*
X108088677Y-68403465D01*
X108088677Y-68403465D01*
G37*
G36*
X111588677Y-68403465D02*
X111626364Y-68414898D01*
X111661103Y-68433466D01*
X111691548Y-68458452D01*
X111716534Y-68488897D01*
X111735102Y-68523636D01*
X111746535Y-68561323D01*
X111751000Y-68606661D01*
X111751000Y-69443339D01*
X111746535Y-69488677D01*
X111735102Y-69526364D01*
X111716534Y-69561103D01*
X111691548Y-69591548D01*
X111661103Y-69616534D01*
X111626364Y-69635102D01*
X111588677Y-69646535D01*
X111543339Y-69651000D01*
X110456661Y-69651000D01*
X110411323Y-69646535D01*
X110373636Y-69635102D01*
X110338897Y-69616534D01*
X110308452Y-69591548D01*
X110283466Y-69561103D01*
X110264898Y-69526364D01*
X110253465Y-69488677D01*
X110249000Y-69443339D01*
X110249000Y-68606661D01*
X110253465Y-68561323D01*
X110264898Y-68523636D01*
X110283466Y-68488897D01*
X110308452Y-68458452D01*
X110338897Y-68433466D01*
X110373636Y-68414898D01*
X110411323Y-68403465D01*
X110456661Y-68399000D01*
X111543339Y-68399000D01*
X111588677Y-68403465D01*
X111588677Y-68403465D01*
G37*
G36*
X100588677Y-68403465D02*
X100626364Y-68414898D01*
X100661103Y-68433466D01*
X100691548Y-68458452D01*
X100716534Y-68488897D01*
X100735102Y-68523636D01*
X100746535Y-68561323D01*
X100751000Y-68606661D01*
X100751000Y-69443339D01*
X100746535Y-69488677D01*
X100735102Y-69526364D01*
X100716534Y-69561103D01*
X100691548Y-69591548D01*
X100661103Y-69616534D01*
X100626364Y-69635102D01*
X100588677Y-69646535D01*
X100543339Y-69651000D01*
X99456661Y-69651000D01*
X99411323Y-69646535D01*
X99373636Y-69635102D01*
X99338897Y-69616534D01*
X99308452Y-69591548D01*
X99283466Y-69561103D01*
X99264898Y-69526364D01*
X99253465Y-69488677D01*
X99249000Y-69443339D01*
X99249000Y-68606661D01*
X99253465Y-68561323D01*
X99264898Y-68523636D01*
X99283466Y-68488897D01*
X99308452Y-68458452D01*
X99338897Y-68433466D01*
X99373636Y-68414898D01*
X99411323Y-68403465D01*
X99456661Y-68399000D01*
X100543339Y-68399000D01*
X100588677Y-68403465D01*
X100588677Y-68403465D01*
G37*
G36*
X104588677Y-68403465D02*
X104626364Y-68414898D01*
X104661103Y-68433466D01*
X104691548Y-68458452D01*
X104716534Y-68488897D01*
X104735102Y-68523636D01*
X104746535Y-68561323D01*
X104751000Y-68606661D01*
X104751000Y-69443339D01*
X104746535Y-69488677D01*
X104735102Y-69526364D01*
X104716534Y-69561103D01*
X104691548Y-69591548D01*
X104661103Y-69616534D01*
X104626364Y-69635102D01*
X104588677Y-69646535D01*
X104543339Y-69651000D01*
X103456661Y-69651000D01*
X103411323Y-69646535D01*
X103373636Y-69635102D01*
X103338897Y-69616534D01*
X103308452Y-69591548D01*
X103283466Y-69561103D01*
X103264898Y-69526364D01*
X103253465Y-69488677D01*
X103249000Y-69443339D01*
X103249000Y-68606661D01*
X103253465Y-68561323D01*
X103264898Y-68523636D01*
X103283466Y-68488897D01*
X103308452Y-68458452D01*
X103338897Y-68433466D01*
X103373636Y-68414898D01*
X103411323Y-68403465D01*
X103456661Y-68399000D01*
X104543339Y-68399000D01*
X104588677Y-68403465D01*
X104588677Y-68403465D01*
G37*
G36*
X97088677Y-68403465D02*
X97126364Y-68414898D01*
X97161103Y-68433466D01*
X97191548Y-68458452D01*
X97216534Y-68488897D01*
X97235102Y-68523636D01*
X97246535Y-68561323D01*
X97251000Y-68606661D01*
X97251000Y-69443339D01*
X97246535Y-69488677D01*
X97235102Y-69526364D01*
X97216534Y-69561103D01*
X97191548Y-69591548D01*
X97161103Y-69616534D01*
X97126364Y-69635102D01*
X97088677Y-69646535D01*
X97043339Y-69651000D01*
X95956661Y-69651000D01*
X95911323Y-69646535D01*
X95873636Y-69635102D01*
X95838897Y-69616534D01*
X95808452Y-69591548D01*
X95783466Y-69561103D01*
X95764898Y-69526364D01*
X95753465Y-69488677D01*
X95749000Y-69443339D01*
X95749000Y-68606661D01*
X95753465Y-68561323D01*
X95764898Y-68523636D01*
X95783466Y-68488897D01*
X95808452Y-68458452D01*
X95838897Y-68433466D01*
X95873636Y-68414898D01*
X95911323Y-68403465D01*
X95956661Y-68399000D01*
X97043339Y-68399000D01*
X97088677Y-68403465D01*
X97088677Y-68403465D01*
G37*
G36*
X93588677Y-68403465D02*
X93626364Y-68414898D01*
X93661103Y-68433466D01*
X93691548Y-68458452D01*
X93716534Y-68488897D01*
X93735102Y-68523636D01*
X93746535Y-68561323D01*
X93751000Y-68606661D01*
X93751000Y-69443339D01*
X93746535Y-69488677D01*
X93735102Y-69526364D01*
X93716534Y-69561103D01*
X93691548Y-69591548D01*
X93661103Y-69616534D01*
X93626364Y-69635102D01*
X93588677Y-69646535D01*
X93543339Y-69651000D01*
X92456661Y-69651000D01*
X92411323Y-69646535D01*
X92373636Y-69635102D01*
X92338897Y-69616534D01*
X92308452Y-69591548D01*
X92283466Y-69561103D01*
X92264898Y-69526364D01*
X92253465Y-69488677D01*
X92249000Y-69443339D01*
X92249000Y-68606661D01*
X92253465Y-68561323D01*
X92264898Y-68523636D01*
X92283466Y-68488897D01*
X92308452Y-68458452D01*
X92338897Y-68433466D01*
X92373636Y-68414898D01*
X92411323Y-68403465D01*
X92456661Y-68399000D01*
X93543339Y-68399000D01*
X93588677Y-68403465D01*
X93588677Y-68403465D01*
G37*
G36*
X114977396Y-67650546D02*
X115150466Y-67722234D01*
X115306230Y-67826312D01*
X115438688Y-67958770D01*
X115542766Y-68114534D01*
X115614454Y-68287604D01*
X115651000Y-68471333D01*
X115651000Y-68658667D01*
X115614454Y-68842396D01*
X115542766Y-69015466D01*
X115438688Y-69171230D01*
X115306230Y-69303688D01*
X115150466Y-69407766D01*
X114977396Y-69479454D01*
X114793667Y-69516000D01*
X114606333Y-69516000D01*
X114422604Y-69479454D01*
X114249534Y-69407766D01*
X114093770Y-69303688D01*
X113961312Y-69171230D01*
X113857234Y-69015466D01*
X113785546Y-68842396D01*
X113749000Y-68658667D01*
X113749000Y-68471333D01*
X113785546Y-68287604D01*
X113857234Y-68114534D01*
X113961312Y-67958770D01*
X114093770Y-67826312D01*
X114249534Y-67722234D01*
X114422604Y-67650546D01*
X114606333Y-67614000D01*
X114793667Y-67614000D01*
X114977396Y-67650546D01*
X114977396Y-67650546D01*
G37*
G36*
X89577396Y-67650546D02*
X89750466Y-67722234D01*
X89906230Y-67826312D01*
X90038688Y-67958770D01*
X90142766Y-68114534D01*
X90214454Y-68287604D01*
X90251000Y-68471333D01*
X90251000Y-68658667D01*
X90214454Y-68842396D01*
X90142766Y-69015466D01*
X90038688Y-69171230D01*
X89906230Y-69303688D01*
X89750466Y-69407766D01*
X89577396Y-69479454D01*
X89393667Y-69516000D01*
X89206333Y-69516000D01*
X89022604Y-69479454D01*
X88849534Y-69407766D01*
X88693770Y-69303688D01*
X88561312Y-69171230D01*
X88457234Y-69015466D01*
X88385546Y-68842396D01*
X88349000Y-68658667D01*
X88349000Y-68471333D01*
X88385546Y-68287604D01*
X88457234Y-68114534D01*
X88561312Y-67958770D01*
X88693770Y-67826312D01*
X88849534Y-67722234D01*
X89022604Y-67650546D01*
X89206333Y-67614000D01*
X89393667Y-67614000D01*
X89577396Y-67650546D01*
X89577396Y-67650546D01*
G37*
G36*
X108088677Y-66353465D02*
X108126364Y-66364898D01*
X108161103Y-66383466D01*
X108191548Y-66408452D01*
X108216534Y-66438897D01*
X108235102Y-66473636D01*
X108246535Y-66511323D01*
X108251000Y-66556661D01*
X108251000Y-67393339D01*
X108246535Y-67438677D01*
X108235102Y-67476364D01*
X108216534Y-67511103D01*
X108191548Y-67541548D01*
X108161103Y-67566534D01*
X108126364Y-67585102D01*
X108088677Y-67596535D01*
X108043339Y-67601000D01*
X106956661Y-67601000D01*
X106911323Y-67596535D01*
X106873636Y-67585102D01*
X106838897Y-67566534D01*
X106808452Y-67541548D01*
X106783466Y-67511103D01*
X106764898Y-67476364D01*
X106753465Y-67438677D01*
X106749000Y-67393339D01*
X106749000Y-66556661D01*
X106753465Y-66511323D01*
X106764898Y-66473636D01*
X106783466Y-66438897D01*
X106808452Y-66408452D01*
X106838897Y-66383466D01*
X106873636Y-66364898D01*
X106911323Y-66353465D01*
X106956661Y-66349000D01*
X108043339Y-66349000D01*
X108088677Y-66353465D01*
X108088677Y-66353465D01*
G37*
G36*
X97088677Y-66353465D02*
X97126364Y-66364898D01*
X97161103Y-66383466D01*
X97191548Y-66408452D01*
X97216534Y-66438897D01*
X97235102Y-66473636D01*
X97246535Y-66511323D01*
X97251000Y-66556661D01*
X97251000Y-67393339D01*
X97246535Y-67438677D01*
X97235102Y-67476364D01*
X97216534Y-67511103D01*
X97191548Y-67541548D01*
X97161103Y-67566534D01*
X97126364Y-67585102D01*
X97088677Y-67596535D01*
X97043339Y-67601000D01*
X95956661Y-67601000D01*
X95911323Y-67596535D01*
X95873636Y-67585102D01*
X95838897Y-67566534D01*
X95808452Y-67541548D01*
X95783466Y-67511103D01*
X95764898Y-67476364D01*
X95753465Y-67438677D01*
X95749000Y-67393339D01*
X95749000Y-66556661D01*
X95753465Y-66511323D01*
X95764898Y-66473636D01*
X95783466Y-66438897D01*
X95808452Y-66408452D01*
X95838897Y-66383466D01*
X95873636Y-66364898D01*
X95911323Y-66353465D01*
X95956661Y-66349000D01*
X97043339Y-66349000D01*
X97088677Y-66353465D01*
X97088677Y-66353465D01*
G37*
G36*
X104588677Y-66353465D02*
X104626364Y-66364898D01*
X104661103Y-66383466D01*
X104691548Y-66408452D01*
X104716534Y-66438897D01*
X104735102Y-66473636D01*
X104746535Y-66511323D01*
X104751000Y-66556661D01*
X104751000Y-67393339D01*
X104746535Y-67438677D01*
X104735102Y-67476364D01*
X104716534Y-67511103D01*
X104691548Y-67541548D01*
X104661103Y-67566534D01*
X104626364Y-67585102D01*
X104588677Y-67596535D01*
X104543339Y-67601000D01*
X103456661Y-67601000D01*
X103411323Y-67596535D01*
X103373636Y-67585102D01*
X103338897Y-67566534D01*
X103308452Y-67541548D01*
X103283466Y-67511103D01*
X103264898Y-67476364D01*
X103253465Y-67438677D01*
X103249000Y-67393339D01*
X103249000Y-66556661D01*
X103253465Y-66511323D01*
X103264898Y-66473636D01*
X103283466Y-66438897D01*
X103308452Y-66408452D01*
X103338897Y-66383466D01*
X103373636Y-66364898D01*
X103411323Y-66353465D01*
X103456661Y-66349000D01*
X104543339Y-66349000D01*
X104588677Y-66353465D01*
X104588677Y-66353465D01*
G37*
G36*
X111588677Y-66353465D02*
X111626364Y-66364898D01*
X111661103Y-66383466D01*
X111691548Y-66408452D01*
X111716534Y-66438897D01*
X111735102Y-66473636D01*
X111746535Y-66511323D01*
X111751000Y-66556661D01*
X111751000Y-67393339D01*
X111746535Y-67438677D01*
X111735102Y-67476364D01*
X111716534Y-67511103D01*
X111691548Y-67541548D01*
X111661103Y-67566534D01*
X111626364Y-67585102D01*
X111588677Y-67596535D01*
X111543339Y-67601000D01*
X110456661Y-67601000D01*
X110411323Y-67596535D01*
X110373636Y-67585102D01*
X110338897Y-67566534D01*
X110308452Y-67541548D01*
X110283466Y-67511103D01*
X110264898Y-67476364D01*
X110253465Y-67438677D01*
X110249000Y-67393339D01*
X110249000Y-66556661D01*
X110253465Y-66511323D01*
X110264898Y-66473636D01*
X110283466Y-66438897D01*
X110308452Y-66408452D01*
X110338897Y-66383466D01*
X110373636Y-66364898D01*
X110411323Y-66353465D01*
X110456661Y-66349000D01*
X111543339Y-66349000D01*
X111588677Y-66353465D01*
X111588677Y-66353465D01*
G37*
G36*
X93588677Y-66353465D02*
X93626364Y-66364898D01*
X93661103Y-66383466D01*
X93691548Y-66408452D01*
X93716534Y-66438897D01*
X93735102Y-66473636D01*
X93746535Y-66511323D01*
X93751000Y-66556661D01*
X93751000Y-67393339D01*
X93746535Y-67438677D01*
X93735102Y-67476364D01*
X93716534Y-67511103D01*
X93691548Y-67541548D01*
X93661103Y-67566534D01*
X93626364Y-67585102D01*
X93588677Y-67596535D01*
X93543339Y-67601000D01*
X92456661Y-67601000D01*
X92411323Y-67596535D01*
X92373636Y-67585102D01*
X92338897Y-67566534D01*
X92308452Y-67541548D01*
X92283466Y-67511103D01*
X92264898Y-67476364D01*
X92253465Y-67438677D01*
X92249000Y-67393339D01*
X92249000Y-66556661D01*
X92253465Y-66511323D01*
X92264898Y-66473636D01*
X92283466Y-66438897D01*
X92308452Y-66408452D01*
X92338897Y-66383466D01*
X92373636Y-66364898D01*
X92411323Y-66353465D01*
X92456661Y-66349000D01*
X93543339Y-66349000D01*
X93588677Y-66353465D01*
X93588677Y-66353465D01*
G37*
G36*
X100588677Y-66353465D02*
X100626364Y-66364898D01*
X100661103Y-66383466D01*
X100691548Y-66408452D01*
X100716534Y-66438897D01*
X100735102Y-66473636D01*
X100746535Y-66511323D01*
X100751000Y-66556661D01*
X100751000Y-67393339D01*
X100746535Y-67438677D01*
X100735102Y-67476364D01*
X100716534Y-67511103D01*
X100691548Y-67541548D01*
X100661103Y-67566534D01*
X100626364Y-67585102D01*
X100588677Y-67596535D01*
X100543339Y-67601000D01*
X99456661Y-67601000D01*
X99411323Y-67596535D01*
X99373636Y-67585102D01*
X99338897Y-67566534D01*
X99308452Y-67541548D01*
X99283466Y-67511103D01*
X99264898Y-67476364D01*
X99253465Y-67438677D01*
X99249000Y-67393339D01*
X99249000Y-66556661D01*
X99253465Y-66511323D01*
X99264898Y-66473636D01*
X99283466Y-66438897D01*
X99308452Y-66408452D01*
X99338897Y-66383466D01*
X99373636Y-66364898D01*
X99411323Y-66353465D01*
X99456661Y-66349000D01*
X100543339Y-66349000D01*
X100588677Y-66353465D01*
X100588677Y-66353465D01*
G37*
G36*
X89577396Y-65110546D02*
X89750466Y-65182234D01*
X89906230Y-65286312D01*
X90038688Y-65418770D01*
X90142766Y-65574534D01*
X90214454Y-65747604D01*
X90251000Y-65931333D01*
X90251000Y-66118667D01*
X90214454Y-66302396D01*
X90142766Y-66475466D01*
X90038688Y-66631230D01*
X89906230Y-66763688D01*
X89750466Y-66867766D01*
X89577396Y-66939454D01*
X89393667Y-66976000D01*
X89206333Y-66976000D01*
X89022604Y-66939454D01*
X88849534Y-66867766D01*
X88693770Y-66763688D01*
X88561312Y-66631230D01*
X88457234Y-66475466D01*
X88385546Y-66302396D01*
X88349000Y-66118667D01*
X88349000Y-65931333D01*
X88385546Y-65747604D01*
X88457234Y-65574534D01*
X88561312Y-65418770D01*
X88693770Y-65286312D01*
X88849534Y-65182234D01*
X89022604Y-65110546D01*
X89206333Y-65074000D01*
X89393667Y-65074000D01*
X89577396Y-65110546D01*
X89577396Y-65110546D01*
G37*
G36*
X114977396Y-65110546D02*
X115150466Y-65182234D01*
X115306230Y-65286312D01*
X115438688Y-65418770D01*
X115542766Y-65574534D01*
X115614454Y-65747604D01*
X115651000Y-65931333D01*
X115651000Y-66118667D01*
X115614454Y-66302396D01*
X115542766Y-66475466D01*
X115438688Y-66631230D01*
X115306230Y-66763688D01*
X115150466Y-66867766D01*
X114977396Y-66939454D01*
X114793667Y-66976000D01*
X114606333Y-66976000D01*
X114422604Y-66939454D01*
X114249534Y-66867766D01*
X114093770Y-66763688D01*
X113961312Y-66631230D01*
X113857234Y-66475466D01*
X113785546Y-66302396D01*
X113749000Y-66118667D01*
X113749000Y-65931333D01*
X113785546Y-65747604D01*
X113857234Y-65574534D01*
X113961312Y-65418770D01*
X114093770Y-65286312D01*
X114249534Y-65182234D01*
X114422604Y-65110546D01*
X114606333Y-65074000D01*
X114793667Y-65074000D01*
X114977396Y-65110546D01*
X114977396Y-65110546D01*
G37*
G36*
X124302593Y-64221723D02*
X124136822Y-66116486D01*
X122242059Y-65950715D01*
X122407830Y-64055952D01*
X124302593Y-64221723D01*
X124302593Y-64221723D01*
G37*
G36*
X81015031Y-64170893D02*
X81188101Y-64242581D01*
X81343865Y-64346659D01*
X81476323Y-64479117D01*
X81580401Y-64634881D01*
X81652089Y-64807951D01*
X81688635Y-64991680D01*
X81688635Y-65179014D01*
X81652089Y-65362743D01*
X81580401Y-65535813D01*
X81476323Y-65691577D01*
X81343865Y-65824035D01*
X81188101Y-65928113D01*
X81015031Y-65999801D01*
X80831302Y-66036347D01*
X80643968Y-66036347D01*
X80460239Y-65999801D01*
X80287169Y-65928113D01*
X80131405Y-65824035D01*
X79998947Y-65691577D01*
X79894869Y-65535813D01*
X79823181Y-65362743D01*
X79786635Y-65179014D01*
X79786635Y-64991680D01*
X79823181Y-64807951D01*
X79894869Y-64634881D01*
X79998947Y-64479117D01*
X80131405Y-64346659D01*
X80287169Y-64242581D01*
X80460239Y-64170893D01*
X80643968Y-64134347D01*
X80831302Y-64134347D01*
X81015031Y-64170893D01*
X81015031Y-64170893D01*
G37*
G36*
X84298235Y-65728468D02*
X82403472Y-65894239D01*
X82237701Y-63999476D01*
X84132464Y-63833705D01*
X84298235Y-65728468D01*
X84298235Y-65728468D01*
G37*
G36*
X93296425Y-63942760D02*
X93296428Y-63942761D01*
X93296429Y-63942761D01*
X93475693Y-63997140D01*
X93475695Y-63997141D01*
X93640905Y-64085448D01*
X93785712Y-64204288D01*
X93904552Y-64349095D01*
X93974052Y-64479120D01*
X93992860Y-64514307D01*
X94041296Y-64673979D01*
X94047240Y-64693575D01*
X94065601Y-64880000D01*
X94047240Y-65066425D01*
X94047239Y-65066428D01*
X94047239Y-65066429D01*
X94012110Y-65182235D01*
X93992859Y-65245695D01*
X93904552Y-65410905D01*
X93785712Y-65555712D01*
X93640905Y-65674552D01*
X93579062Y-65707608D01*
X93475693Y-65762860D01*
X93296429Y-65817239D01*
X93296428Y-65817239D01*
X93296425Y-65817240D01*
X93156718Y-65831000D01*
X93063282Y-65831000D01*
X92923575Y-65817240D01*
X92923572Y-65817239D01*
X92923571Y-65817239D01*
X92744307Y-65762860D01*
X92640938Y-65707608D01*
X92579095Y-65674552D01*
X92434288Y-65555712D01*
X92315448Y-65410905D01*
X92227141Y-65245695D01*
X92207891Y-65182235D01*
X92172761Y-65066429D01*
X92172761Y-65066428D01*
X92172760Y-65066425D01*
X92154399Y-64880000D01*
X92172760Y-64693575D01*
X92178704Y-64673979D01*
X92227140Y-64514307D01*
X92245948Y-64479120D01*
X92315448Y-64349095D01*
X92434288Y-64204288D01*
X92579095Y-64085448D01*
X92744305Y-63997141D01*
X92744307Y-63997140D01*
X92923571Y-63942761D01*
X92923572Y-63942761D01*
X92923575Y-63942760D01*
X93063282Y-63929000D01*
X93156718Y-63929000D01*
X93296425Y-63942760D01*
X93296425Y-63942760D01*
G37*
G36*
X98376425Y-63942760D02*
X98376428Y-63942761D01*
X98376429Y-63942761D01*
X98555693Y-63997140D01*
X98555695Y-63997141D01*
X98720905Y-64085448D01*
X98865712Y-64204288D01*
X98984552Y-64349095D01*
X99054052Y-64479120D01*
X99072860Y-64514307D01*
X99121296Y-64673979D01*
X99127240Y-64693575D01*
X99145601Y-64880000D01*
X99127240Y-65066425D01*
X99127239Y-65066428D01*
X99127239Y-65066429D01*
X99092110Y-65182235D01*
X99072859Y-65245695D01*
X98984552Y-65410905D01*
X98865712Y-65555712D01*
X98720905Y-65674552D01*
X98659062Y-65707608D01*
X98555693Y-65762860D01*
X98376429Y-65817239D01*
X98376428Y-65817239D01*
X98376425Y-65817240D01*
X98236718Y-65831000D01*
X98143282Y-65831000D01*
X98003575Y-65817240D01*
X98003572Y-65817239D01*
X98003571Y-65817239D01*
X97824307Y-65762860D01*
X97720938Y-65707608D01*
X97659095Y-65674552D01*
X97514288Y-65555712D01*
X97395448Y-65410905D01*
X97307141Y-65245695D01*
X97287891Y-65182235D01*
X97252761Y-65066429D01*
X97252761Y-65066428D01*
X97252760Y-65066425D01*
X97234399Y-64880000D01*
X97252760Y-64693575D01*
X97258704Y-64673979D01*
X97307140Y-64514307D01*
X97325948Y-64479120D01*
X97395448Y-64349095D01*
X97514288Y-64204288D01*
X97659095Y-64085448D01*
X97824305Y-63997141D01*
X97824307Y-63997140D01*
X98003571Y-63942761D01*
X98003572Y-63942761D01*
X98003575Y-63942760D01*
X98143282Y-63929000D01*
X98236718Y-63929000D01*
X98376425Y-63942760D01*
X98376425Y-63942760D01*
G37*
G36*
X100916425Y-63942760D02*
X100916428Y-63942761D01*
X100916429Y-63942761D01*
X101095693Y-63997140D01*
X101095695Y-63997141D01*
X101260905Y-64085448D01*
X101405712Y-64204288D01*
X101524552Y-64349095D01*
X101594052Y-64479120D01*
X101612860Y-64514307D01*
X101661296Y-64673979D01*
X101667240Y-64693575D01*
X101685601Y-64880000D01*
X101667240Y-65066425D01*
X101667239Y-65066428D01*
X101667239Y-65066429D01*
X101632110Y-65182235D01*
X101612859Y-65245695D01*
X101524552Y-65410905D01*
X101405712Y-65555712D01*
X101260905Y-65674552D01*
X101199062Y-65707608D01*
X101095693Y-65762860D01*
X100916429Y-65817239D01*
X100916428Y-65817239D01*
X100916425Y-65817240D01*
X100776718Y-65831000D01*
X100683282Y-65831000D01*
X100543575Y-65817240D01*
X100543572Y-65817239D01*
X100543571Y-65817239D01*
X100364307Y-65762860D01*
X100260938Y-65707608D01*
X100199095Y-65674552D01*
X100054288Y-65555712D01*
X99935448Y-65410905D01*
X99847141Y-65245695D01*
X99827891Y-65182235D01*
X99792761Y-65066429D01*
X99792761Y-65066428D01*
X99792760Y-65066425D01*
X99774399Y-64880000D01*
X99792760Y-64693575D01*
X99798704Y-64673979D01*
X99847140Y-64514307D01*
X99865948Y-64479120D01*
X99935448Y-64349095D01*
X100054288Y-64204288D01*
X100199095Y-64085448D01*
X100364305Y-63997141D01*
X100364307Y-63997140D01*
X100543571Y-63942761D01*
X100543572Y-63942761D01*
X100543575Y-63942760D01*
X100683282Y-63929000D01*
X100776718Y-63929000D01*
X100916425Y-63942760D01*
X100916425Y-63942760D01*
G37*
G36*
X103456425Y-63942760D02*
X103456428Y-63942761D01*
X103456429Y-63942761D01*
X103635693Y-63997140D01*
X103635695Y-63997141D01*
X103800905Y-64085448D01*
X103945712Y-64204288D01*
X104064552Y-64349095D01*
X104134052Y-64479120D01*
X104152860Y-64514307D01*
X104201296Y-64673979D01*
X104207240Y-64693575D01*
X104225601Y-64880000D01*
X104207240Y-65066425D01*
X104207239Y-65066428D01*
X104207239Y-65066429D01*
X104172110Y-65182235D01*
X104152859Y-65245695D01*
X104064552Y-65410905D01*
X103945712Y-65555712D01*
X103800905Y-65674552D01*
X103739062Y-65707608D01*
X103635693Y-65762860D01*
X103456429Y-65817239D01*
X103456428Y-65817239D01*
X103456425Y-65817240D01*
X103316718Y-65831000D01*
X103223282Y-65831000D01*
X103083575Y-65817240D01*
X103083572Y-65817239D01*
X103083571Y-65817239D01*
X102904307Y-65762860D01*
X102800938Y-65707608D01*
X102739095Y-65674552D01*
X102594288Y-65555712D01*
X102475448Y-65410905D01*
X102387141Y-65245695D01*
X102367891Y-65182235D01*
X102332761Y-65066429D01*
X102332761Y-65066428D01*
X102332760Y-65066425D01*
X102314399Y-64880000D01*
X102332760Y-64693575D01*
X102338704Y-64673979D01*
X102387140Y-64514307D01*
X102405948Y-64479120D01*
X102475448Y-64349095D01*
X102594288Y-64204288D01*
X102739095Y-64085448D01*
X102904305Y-63997141D01*
X102904307Y-63997140D01*
X103083571Y-63942761D01*
X103083572Y-63942761D01*
X103083575Y-63942760D01*
X103223282Y-63929000D01*
X103316718Y-63929000D01*
X103456425Y-63942760D01*
X103456425Y-63942760D01*
G37*
G36*
X105996425Y-63942760D02*
X105996428Y-63942761D01*
X105996429Y-63942761D01*
X106175693Y-63997140D01*
X106175695Y-63997141D01*
X106340905Y-64085448D01*
X106485712Y-64204288D01*
X106604552Y-64349095D01*
X106674052Y-64479120D01*
X106692860Y-64514307D01*
X106741296Y-64673979D01*
X106747240Y-64693575D01*
X106765601Y-64880000D01*
X106747240Y-65066425D01*
X106747239Y-65066428D01*
X106747239Y-65066429D01*
X106712110Y-65182235D01*
X106692859Y-65245695D01*
X106604552Y-65410905D01*
X106485712Y-65555712D01*
X106340905Y-65674552D01*
X106279062Y-65707608D01*
X106175693Y-65762860D01*
X105996429Y-65817239D01*
X105996428Y-65817239D01*
X105996425Y-65817240D01*
X105856718Y-65831000D01*
X105763282Y-65831000D01*
X105623575Y-65817240D01*
X105623572Y-65817239D01*
X105623571Y-65817239D01*
X105444307Y-65762860D01*
X105340938Y-65707608D01*
X105279095Y-65674552D01*
X105134288Y-65555712D01*
X105015448Y-65410905D01*
X104927141Y-65245695D01*
X104907891Y-65182235D01*
X104872761Y-65066429D01*
X104872761Y-65066428D01*
X104872760Y-65066425D01*
X104854399Y-64880000D01*
X104872760Y-64693575D01*
X104878704Y-64673979D01*
X104927140Y-64514307D01*
X104945948Y-64479120D01*
X105015448Y-64349095D01*
X105134288Y-64204288D01*
X105279095Y-64085448D01*
X105444305Y-63997141D01*
X105444307Y-63997140D01*
X105623571Y-63942761D01*
X105623572Y-63942761D01*
X105623575Y-63942760D01*
X105763282Y-63929000D01*
X105856718Y-63929000D01*
X105996425Y-63942760D01*
X105996425Y-63942760D01*
G37*
G36*
X108536425Y-63942760D02*
X108536428Y-63942761D01*
X108536429Y-63942761D01*
X108715693Y-63997140D01*
X108715695Y-63997141D01*
X108880905Y-64085448D01*
X109025712Y-64204288D01*
X109144552Y-64349095D01*
X109214052Y-64479120D01*
X109232860Y-64514307D01*
X109281296Y-64673979D01*
X109287240Y-64693575D01*
X109305601Y-64880000D01*
X109287240Y-65066425D01*
X109287239Y-65066428D01*
X109287239Y-65066429D01*
X109252110Y-65182235D01*
X109232859Y-65245695D01*
X109144552Y-65410905D01*
X109025712Y-65555712D01*
X108880905Y-65674552D01*
X108819062Y-65707608D01*
X108715693Y-65762860D01*
X108536429Y-65817239D01*
X108536428Y-65817239D01*
X108536425Y-65817240D01*
X108396718Y-65831000D01*
X108303282Y-65831000D01*
X108163575Y-65817240D01*
X108163572Y-65817239D01*
X108163571Y-65817239D01*
X107984307Y-65762860D01*
X107880938Y-65707608D01*
X107819095Y-65674552D01*
X107674288Y-65555712D01*
X107555448Y-65410905D01*
X107467141Y-65245695D01*
X107447891Y-65182235D01*
X107412761Y-65066429D01*
X107412761Y-65066428D01*
X107412760Y-65066425D01*
X107394399Y-64880000D01*
X107412760Y-64693575D01*
X107418704Y-64673979D01*
X107467140Y-64514307D01*
X107485948Y-64479120D01*
X107555448Y-64349095D01*
X107674288Y-64204288D01*
X107819095Y-64085448D01*
X107984305Y-63997141D01*
X107984307Y-63997140D01*
X108163571Y-63942761D01*
X108163572Y-63942761D01*
X108163575Y-63942760D01*
X108303282Y-63929000D01*
X108396718Y-63929000D01*
X108536425Y-63942760D01*
X108536425Y-63942760D01*
G37*
G36*
X111076425Y-63942760D02*
X111076428Y-63942761D01*
X111076429Y-63942761D01*
X111255693Y-63997140D01*
X111255695Y-63997141D01*
X111420905Y-64085448D01*
X111565712Y-64204288D01*
X111684552Y-64349095D01*
X111754052Y-64479120D01*
X111772860Y-64514307D01*
X111821296Y-64673979D01*
X111827240Y-64693575D01*
X111845601Y-64880000D01*
X111827240Y-65066425D01*
X111827239Y-65066428D01*
X111827239Y-65066429D01*
X111792110Y-65182235D01*
X111772859Y-65245695D01*
X111684552Y-65410905D01*
X111565712Y-65555712D01*
X111420905Y-65674552D01*
X111359062Y-65707608D01*
X111255693Y-65762860D01*
X111076429Y-65817239D01*
X111076428Y-65817239D01*
X111076425Y-65817240D01*
X110936718Y-65831000D01*
X110843282Y-65831000D01*
X110703575Y-65817240D01*
X110703572Y-65817239D01*
X110703571Y-65817239D01*
X110524307Y-65762860D01*
X110420938Y-65707608D01*
X110359095Y-65674552D01*
X110214288Y-65555712D01*
X110095448Y-65410905D01*
X110007141Y-65245695D01*
X109987891Y-65182235D01*
X109952761Y-65066429D01*
X109952761Y-65066428D01*
X109952760Y-65066425D01*
X109934399Y-64880000D01*
X109952760Y-64693575D01*
X109958704Y-64673979D01*
X110007140Y-64514307D01*
X110025948Y-64479120D01*
X110095448Y-64349095D01*
X110214288Y-64204288D01*
X110359095Y-64085448D01*
X110524305Y-63997141D01*
X110524307Y-63997140D01*
X110703571Y-63942761D01*
X110703572Y-63942761D01*
X110703575Y-63942760D01*
X110843282Y-63929000D01*
X110936718Y-63929000D01*
X111076425Y-63942760D01*
X111076425Y-63942760D01*
G37*
G36*
X95836425Y-63942760D02*
X95836428Y-63942761D01*
X95836429Y-63942761D01*
X96015693Y-63997140D01*
X96015695Y-63997141D01*
X96180905Y-64085448D01*
X96325712Y-64204288D01*
X96444552Y-64349095D01*
X96514052Y-64479120D01*
X96532860Y-64514307D01*
X96581296Y-64673979D01*
X96587240Y-64693575D01*
X96605601Y-64880000D01*
X96587240Y-65066425D01*
X96587239Y-65066428D01*
X96587239Y-65066429D01*
X96552110Y-65182235D01*
X96532859Y-65245695D01*
X96444552Y-65410905D01*
X96325712Y-65555712D01*
X96180905Y-65674552D01*
X96119062Y-65707608D01*
X96015693Y-65762860D01*
X95836429Y-65817239D01*
X95836428Y-65817239D01*
X95836425Y-65817240D01*
X95696718Y-65831000D01*
X95603282Y-65831000D01*
X95463575Y-65817240D01*
X95463572Y-65817239D01*
X95463571Y-65817239D01*
X95284307Y-65762860D01*
X95180938Y-65707608D01*
X95119095Y-65674552D01*
X94974288Y-65555712D01*
X94855448Y-65410905D01*
X94767141Y-65245695D01*
X94747891Y-65182235D01*
X94712761Y-65066429D01*
X94712761Y-65066428D01*
X94712760Y-65066425D01*
X94694399Y-64880000D01*
X94712760Y-64693575D01*
X94718704Y-64673979D01*
X94767140Y-64514307D01*
X94785948Y-64479120D01*
X94855448Y-64349095D01*
X94974288Y-64204288D01*
X95119095Y-64085448D01*
X95284305Y-63997141D01*
X95284307Y-63997140D01*
X95463571Y-63942761D01*
X95463572Y-63942761D01*
X95463575Y-63942760D01*
X95603282Y-63929000D01*
X95696718Y-63929000D01*
X95836425Y-63942760D01*
X95836425Y-63942760D01*
G37*
G36*
X121019389Y-63950389D02*
X121192459Y-64022077D01*
X121348223Y-64126155D01*
X121480681Y-64258613D01*
X121584759Y-64414377D01*
X121656447Y-64587447D01*
X121692993Y-64771176D01*
X121692993Y-64958510D01*
X121656447Y-65142239D01*
X121584759Y-65315309D01*
X121480681Y-65471073D01*
X121348223Y-65603531D01*
X121192459Y-65707609D01*
X121019389Y-65779297D01*
X120835660Y-65815843D01*
X120648326Y-65815843D01*
X120464597Y-65779297D01*
X120291527Y-65707609D01*
X120135763Y-65603531D01*
X120003305Y-65471073D01*
X119899227Y-65315309D01*
X119827539Y-65142239D01*
X119790993Y-64958510D01*
X119790993Y-64771176D01*
X119827539Y-64587447D01*
X119899227Y-64414377D01*
X120003305Y-64258613D01*
X120135763Y-64126155D01*
X120291527Y-64022077D01*
X120464597Y-63950389D01*
X120648326Y-63913843D01*
X120835660Y-63913843D01*
X121019389Y-63950389D01*
X121019389Y-63950389D01*
G37*
G36*
X76056991Y-63276101D02*
X76142321Y-63284505D01*
X76279172Y-63326019D01*
X76279174Y-63326020D01*
X76279177Y-63326021D01*
X76405296Y-63393432D01*
X76515843Y-63484157D01*
X76606568Y-63594704D01*
X76673979Y-63720823D01*
X76673980Y-63720826D01*
X76673981Y-63720828D01*
X76715495Y-63857679D01*
X76729512Y-64000000D01*
X76715495Y-64142321D01*
X76673981Y-64279172D01*
X76673979Y-64279177D01*
X76606568Y-64405296D01*
X76515843Y-64515843D01*
X76405296Y-64606568D01*
X76279177Y-64673979D01*
X76279174Y-64673980D01*
X76279172Y-64673981D01*
X76142321Y-64715495D01*
X76056991Y-64723899D01*
X76035660Y-64726000D01*
X75964340Y-64726000D01*
X75943009Y-64723899D01*
X75857679Y-64715495D01*
X75720828Y-64673981D01*
X75720826Y-64673980D01*
X75720823Y-64673979D01*
X75594704Y-64606568D01*
X75484157Y-64515843D01*
X75393432Y-64405296D01*
X75326021Y-64279177D01*
X75326019Y-64279172D01*
X75284505Y-64142321D01*
X75270488Y-64000000D01*
X75284505Y-63857679D01*
X75326019Y-63720828D01*
X75326020Y-63720826D01*
X75326021Y-63720823D01*
X75393432Y-63594704D01*
X75484157Y-63484157D01*
X75594704Y-63393432D01*
X75720823Y-63326021D01*
X75720826Y-63326020D01*
X75720828Y-63326019D01*
X75857679Y-63284505D01*
X75943009Y-63276101D01*
X75964340Y-63274000D01*
X76035660Y-63274000D01*
X76056991Y-63276101D01*
X76056991Y-63276101D01*
G37*
G36*
X70726000Y-64726000D02*
X69274000Y-64726000D01*
X69274000Y-63274000D01*
X70726000Y-63274000D01*
X70726000Y-64726000D01*
X70726000Y-64726000D01*
G37*
G36*
X74056991Y-63276101D02*
X74142321Y-63284505D01*
X74279172Y-63326019D01*
X74279174Y-63326020D01*
X74279177Y-63326021D01*
X74405296Y-63393432D01*
X74515843Y-63484157D01*
X74606568Y-63594704D01*
X74673979Y-63720823D01*
X74673980Y-63720826D01*
X74673981Y-63720828D01*
X74715495Y-63857679D01*
X74729512Y-64000000D01*
X74715495Y-64142321D01*
X74673981Y-64279172D01*
X74673979Y-64279177D01*
X74606568Y-64405296D01*
X74515843Y-64515843D01*
X74405296Y-64606568D01*
X74279177Y-64673979D01*
X74279174Y-64673980D01*
X74279172Y-64673981D01*
X74142321Y-64715495D01*
X74056991Y-64723899D01*
X74035660Y-64726000D01*
X73964340Y-64726000D01*
X73943009Y-64723899D01*
X73857679Y-64715495D01*
X73720828Y-64673981D01*
X73720826Y-64673980D01*
X73720823Y-64673979D01*
X73594704Y-64606568D01*
X73484157Y-64515843D01*
X73393432Y-64405296D01*
X73326021Y-64279177D01*
X73326019Y-64279172D01*
X73284505Y-64142321D01*
X73270488Y-64000000D01*
X73284505Y-63857679D01*
X73326019Y-63720828D01*
X73326020Y-63720826D01*
X73326021Y-63720823D01*
X73393432Y-63594704D01*
X73484157Y-63484157D01*
X73594704Y-63393432D01*
X73720823Y-63326021D01*
X73720826Y-63326020D01*
X73720828Y-63326019D01*
X73857679Y-63284505D01*
X73943009Y-63276101D01*
X73964340Y-63274000D01*
X74035660Y-63274000D01*
X74056991Y-63276101D01*
X74056991Y-63276101D01*
G37*
G36*
X128726000Y-64726000D02*
X127274000Y-64726000D01*
X127274000Y-63274000D01*
X128726000Y-63274000D01*
X128726000Y-64726000D01*
X128726000Y-64726000D01*
G37*
G36*
X130056991Y-63276101D02*
X130142321Y-63284505D01*
X130279172Y-63326019D01*
X130279174Y-63326020D01*
X130279177Y-63326021D01*
X130405296Y-63393432D01*
X130515843Y-63484157D01*
X130606568Y-63594704D01*
X130673979Y-63720823D01*
X130673980Y-63720826D01*
X130673981Y-63720828D01*
X130715495Y-63857679D01*
X130729512Y-64000000D01*
X130715495Y-64142321D01*
X130673981Y-64279172D01*
X130673979Y-64279177D01*
X130606568Y-64405296D01*
X130515843Y-64515843D01*
X130405296Y-64606568D01*
X130279177Y-64673979D01*
X130279174Y-64673980D01*
X130279172Y-64673981D01*
X130142321Y-64715495D01*
X130056991Y-64723899D01*
X130035660Y-64726000D01*
X129964340Y-64726000D01*
X129943009Y-64723899D01*
X129857679Y-64715495D01*
X129720828Y-64673981D01*
X129720826Y-64673980D01*
X129720823Y-64673979D01*
X129594704Y-64606568D01*
X129484157Y-64515843D01*
X129393432Y-64405296D01*
X129326021Y-64279177D01*
X129326019Y-64279172D01*
X129284505Y-64142321D01*
X129270488Y-64000000D01*
X129284505Y-63857679D01*
X129326019Y-63720828D01*
X129326020Y-63720826D01*
X129326021Y-63720823D01*
X129393432Y-63594704D01*
X129484157Y-63484157D01*
X129594704Y-63393432D01*
X129720823Y-63326021D01*
X129720826Y-63326020D01*
X129720828Y-63326019D01*
X129857679Y-63284505D01*
X129943009Y-63276101D01*
X129964340Y-63274000D01*
X130035660Y-63274000D01*
X130056991Y-63276101D01*
X130056991Y-63276101D01*
G37*
G36*
X132056991Y-63276101D02*
X132142321Y-63284505D01*
X132279172Y-63326019D01*
X132279174Y-63326020D01*
X132279177Y-63326021D01*
X132405296Y-63393432D01*
X132515843Y-63484157D01*
X132606568Y-63594704D01*
X132673979Y-63720823D01*
X132673980Y-63720826D01*
X132673981Y-63720828D01*
X132715495Y-63857679D01*
X132729512Y-64000000D01*
X132715495Y-64142321D01*
X132673981Y-64279172D01*
X132673979Y-64279177D01*
X132606568Y-64405296D01*
X132515843Y-64515843D01*
X132405296Y-64606568D01*
X132279177Y-64673979D01*
X132279174Y-64673980D01*
X132279172Y-64673981D01*
X132142321Y-64715495D01*
X132056991Y-64723899D01*
X132035660Y-64726000D01*
X131964340Y-64726000D01*
X131943009Y-64723899D01*
X131857679Y-64715495D01*
X131720828Y-64673981D01*
X131720826Y-64673980D01*
X131720823Y-64673979D01*
X131594704Y-64606568D01*
X131484157Y-64515843D01*
X131393432Y-64405296D01*
X131326021Y-64279177D01*
X131326019Y-64279172D01*
X131284505Y-64142321D01*
X131270488Y-64000000D01*
X131284505Y-63857679D01*
X131326019Y-63720828D01*
X131326020Y-63720826D01*
X131326021Y-63720823D01*
X131393432Y-63594704D01*
X131484157Y-63484157D01*
X131594704Y-63393432D01*
X131720823Y-63326021D01*
X131720826Y-63326020D01*
X131720828Y-63326019D01*
X131857679Y-63284505D01*
X131943009Y-63276101D01*
X131964340Y-63274000D01*
X132035660Y-63274000D01*
X132056991Y-63276101D01*
X132056991Y-63276101D01*
G37*
G36*
X134056991Y-63276101D02*
X134142321Y-63284505D01*
X134279172Y-63326019D01*
X134279174Y-63326020D01*
X134279177Y-63326021D01*
X134405296Y-63393432D01*
X134515843Y-63484157D01*
X134606568Y-63594704D01*
X134673979Y-63720823D01*
X134673980Y-63720826D01*
X134673981Y-63720828D01*
X134715495Y-63857679D01*
X134729512Y-64000000D01*
X134715495Y-64142321D01*
X134673981Y-64279172D01*
X134673979Y-64279177D01*
X134606568Y-64405296D01*
X134515843Y-64515843D01*
X134405296Y-64606568D01*
X134279177Y-64673979D01*
X134279174Y-64673980D01*
X134279172Y-64673981D01*
X134142321Y-64715495D01*
X134056991Y-64723899D01*
X134035660Y-64726000D01*
X133964340Y-64726000D01*
X133943009Y-64723899D01*
X133857679Y-64715495D01*
X133720828Y-64673981D01*
X133720826Y-64673980D01*
X133720823Y-64673979D01*
X133594704Y-64606568D01*
X133484157Y-64515843D01*
X133393432Y-64405296D01*
X133326021Y-64279177D01*
X133326019Y-64279172D01*
X133284505Y-64142321D01*
X133270488Y-64000000D01*
X133284505Y-63857679D01*
X133326019Y-63720828D01*
X133326020Y-63720826D01*
X133326021Y-63720823D01*
X133393432Y-63594704D01*
X133484157Y-63484157D01*
X133594704Y-63393432D01*
X133720823Y-63326021D01*
X133720826Y-63326020D01*
X133720828Y-63326019D01*
X133857679Y-63284505D01*
X133943009Y-63276101D01*
X133964340Y-63274000D01*
X134035660Y-63274000D01*
X134056991Y-63276101D01*
X134056991Y-63276101D01*
G37*
G36*
X72056991Y-63276101D02*
X72142321Y-63284505D01*
X72279172Y-63326019D01*
X72279174Y-63326020D01*
X72279177Y-63326021D01*
X72405296Y-63393432D01*
X72515843Y-63484157D01*
X72606568Y-63594704D01*
X72673979Y-63720823D01*
X72673980Y-63720826D01*
X72673981Y-63720828D01*
X72715495Y-63857679D01*
X72729512Y-64000000D01*
X72715495Y-64142321D01*
X72673981Y-64279172D01*
X72673979Y-64279177D01*
X72606568Y-64405296D01*
X72515843Y-64515843D01*
X72405296Y-64606568D01*
X72279177Y-64673979D01*
X72279174Y-64673980D01*
X72279172Y-64673981D01*
X72142321Y-64715495D01*
X72056991Y-64723899D01*
X72035660Y-64726000D01*
X71964340Y-64726000D01*
X71943009Y-64723899D01*
X71857679Y-64715495D01*
X71720828Y-64673981D01*
X71720826Y-64673980D01*
X71720823Y-64673979D01*
X71594704Y-64606568D01*
X71484157Y-64515843D01*
X71393432Y-64405296D01*
X71326021Y-64279177D01*
X71326019Y-64279172D01*
X71284505Y-64142321D01*
X71270488Y-64000000D01*
X71284505Y-63857679D01*
X71326019Y-63720828D01*
X71326020Y-63720826D01*
X71326021Y-63720823D01*
X71393432Y-63594704D01*
X71484157Y-63484157D01*
X71594704Y-63393432D01*
X71720823Y-63326021D01*
X71720826Y-63326020D01*
X71720828Y-63326019D01*
X71857679Y-63284505D01*
X71943009Y-63276101D01*
X71964340Y-63274000D01*
X72035660Y-63274000D01*
X72056991Y-63276101D01*
X72056991Y-63276101D01*
G37*
G36*
X114977396Y-62570546D02*
X115150466Y-62642234D01*
X115306230Y-62746312D01*
X115438688Y-62878770D01*
X115542766Y-63034534D01*
X115614454Y-63207604D01*
X115651000Y-63391333D01*
X115651000Y-63578667D01*
X115614454Y-63762396D01*
X115542766Y-63935466D01*
X115438688Y-64091230D01*
X115306230Y-64223688D01*
X115150466Y-64327766D01*
X114977396Y-64399454D01*
X114793667Y-64436000D01*
X114606333Y-64436000D01*
X114422604Y-64399454D01*
X114249534Y-64327766D01*
X114093770Y-64223688D01*
X113961312Y-64091230D01*
X113857234Y-63935466D01*
X113785546Y-63762396D01*
X113749000Y-63578667D01*
X113749000Y-63391333D01*
X113785546Y-63207604D01*
X113857234Y-63034534D01*
X113961312Y-62878770D01*
X114093770Y-62746312D01*
X114249534Y-62642234D01*
X114422604Y-62570546D01*
X114606333Y-62534000D01*
X114793667Y-62534000D01*
X114977396Y-62570546D01*
X114977396Y-62570546D01*
G37*
G36*
X90251000Y-64436000D02*
X88349000Y-64436000D01*
X88349000Y-62534000D01*
X90251000Y-62534000D01*
X90251000Y-64436000D01*
X90251000Y-64436000D01*
G37*
G36*
X124521420Y-62007368D02*
X124355649Y-63902131D01*
X122460886Y-63736360D01*
X122626657Y-61841597D01*
X124521420Y-62007368D01*
X124521420Y-62007368D01*
G37*
G36*
X80821108Y-61954361D02*
X80994178Y-62026049D01*
X81149942Y-62130127D01*
X81282400Y-62262585D01*
X81386478Y-62418349D01*
X81458166Y-62591419D01*
X81494712Y-62775148D01*
X81494712Y-62962482D01*
X81458166Y-63146211D01*
X81386478Y-63319281D01*
X81282400Y-63475045D01*
X81149942Y-63607503D01*
X80994178Y-63711581D01*
X80821108Y-63783269D01*
X80637379Y-63819815D01*
X80450045Y-63819815D01*
X80266316Y-63783269D01*
X80093246Y-63711581D01*
X79937482Y-63607503D01*
X79805024Y-63475045D01*
X79700946Y-63319281D01*
X79629258Y-63146211D01*
X79592712Y-62962482D01*
X79592712Y-62775148D01*
X79629258Y-62591419D01*
X79700946Y-62418349D01*
X79805024Y-62262585D01*
X79937482Y-62130127D01*
X80093246Y-62026049D01*
X80266316Y-61954361D01*
X80450045Y-61917815D01*
X80637379Y-61917815D01*
X80821108Y-61954361D01*
X80821108Y-61954361D01*
G37*
G36*
X84129219Y-63509756D02*
X82234456Y-63675527D01*
X82068685Y-61780764D01*
X83963448Y-61614993D01*
X84129219Y-63509756D01*
X84129219Y-63509756D01*
G37*
G36*
X121213309Y-61733857D02*
X121386379Y-61805545D01*
X121542143Y-61909623D01*
X121674601Y-62042081D01*
X121778679Y-62197845D01*
X121850367Y-62370915D01*
X121886913Y-62554644D01*
X121886913Y-62741978D01*
X121850367Y-62925707D01*
X121778679Y-63098777D01*
X121674601Y-63254541D01*
X121542143Y-63386999D01*
X121386379Y-63491077D01*
X121213309Y-63562765D01*
X121029580Y-63599311D01*
X120842246Y-63599311D01*
X120658517Y-63562765D01*
X120485447Y-63491077D01*
X120329683Y-63386999D01*
X120197225Y-63254541D01*
X120093147Y-63098777D01*
X120021459Y-62925707D01*
X119984913Y-62741978D01*
X119984913Y-62554644D01*
X120021459Y-62370915D01*
X120093147Y-62197845D01*
X120197225Y-62042081D01*
X120329683Y-61909623D01*
X120485447Y-61805545D01*
X120658517Y-61733857D01*
X120842246Y-61697311D01*
X121029580Y-61697311D01*
X121213309Y-61733857D01*
X121213309Y-61733857D01*
G37*
G36*
X112178504Y-61077853D02*
X110721488Y-62300435D01*
X109498906Y-60843419D01*
X110955922Y-59620837D01*
X112178504Y-61077853D01*
X112178504Y-61077853D01*
G37*
G36*
X93445119Y-60038523D02*
X93618189Y-60110211D01*
X93773953Y-60214289D01*
X93906411Y-60346747D01*
X94010489Y-60502511D01*
X94082177Y-60675581D01*
X94118723Y-60859310D01*
X94118723Y-61046644D01*
X94082177Y-61230373D01*
X94010489Y-61403443D01*
X93906411Y-61559207D01*
X93773953Y-61691665D01*
X93618189Y-61795743D01*
X93445119Y-61867431D01*
X93261390Y-61903977D01*
X93074056Y-61903977D01*
X92890327Y-61867431D01*
X92717257Y-61795743D01*
X92561493Y-61691665D01*
X92429035Y-61559207D01*
X92324957Y-61403443D01*
X92253269Y-61230373D01*
X92216723Y-61046644D01*
X92216723Y-60859310D01*
X92253269Y-60675581D01*
X92324957Y-60502511D01*
X92429035Y-60346747D01*
X92561493Y-60214289D01*
X92717257Y-60110211D01*
X92890327Y-60038523D01*
X93074056Y-60001977D01*
X93261390Y-60001977D01*
X93445119Y-60038523D01*
X93445119Y-60038523D01*
G37*
G36*
X113899022Y-59666802D02*
X112442006Y-60889384D01*
X111219424Y-59432368D01*
X112676440Y-58209786D01*
X113899022Y-59666802D01*
X113899022Y-59666802D01*
G37*
G36*
X80416694Y-59122677D02*
X80446689Y-59131776D01*
X80474334Y-59146552D01*
X80498563Y-59166437D01*
X80518448Y-59190666D01*
X80533224Y-59218311D01*
X80542323Y-59248306D01*
X80546000Y-59285641D01*
X80546000Y-60714359D01*
X80542323Y-60751694D01*
X80533224Y-60781689D01*
X80518448Y-60809334D01*
X80498563Y-60833563D01*
X80474334Y-60853448D01*
X80446689Y-60868224D01*
X80416694Y-60877323D01*
X80379359Y-60881000D01*
X79820641Y-60881000D01*
X79783306Y-60877323D01*
X79753311Y-60868224D01*
X79725666Y-60853448D01*
X79701437Y-60833563D01*
X79681552Y-60809334D01*
X79666776Y-60781689D01*
X79657677Y-60751694D01*
X79654000Y-60714359D01*
X79654000Y-59285641D01*
X79657677Y-59248306D01*
X79666776Y-59218311D01*
X79681552Y-59190666D01*
X79701437Y-59166437D01*
X79725666Y-59146552D01*
X79753311Y-59131776D01*
X79783306Y-59122677D01*
X79820641Y-59119000D01*
X80379359Y-59119000D01*
X80416694Y-59122677D01*
X80416694Y-59122677D01*
G37*
G36*
X124216694Y-59122677D02*
X124246689Y-59131776D01*
X124274334Y-59146552D01*
X124298563Y-59166437D01*
X124318448Y-59190666D01*
X124333224Y-59218311D01*
X124342323Y-59248306D01*
X124346000Y-59285641D01*
X124346000Y-60714359D01*
X124342323Y-60751694D01*
X124333224Y-60781689D01*
X124318448Y-60809334D01*
X124298563Y-60833563D01*
X124274334Y-60853448D01*
X124246689Y-60868224D01*
X124216694Y-60877323D01*
X124179359Y-60881000D01*
X123620641Y-60881000D01*
X123583306Y-60877323D01*
X123553311Y-60868224D01*
X123525666Y-60853448D01*
X123501437Y-60833563D01*
X123481552Y-60809334D01*
X123466776Y-60781689D01*
X123457677Y-60751694D01*
X123454000Y-60714359D01*
X123454000Y-59285641D01*
X123457677Y-59248306D01*
X123466776Y-59218311D01*
X123481552Y-59190666D01*
X123501437Y-59166437D01*
X123525666Y-59146552D01*
X123553311Y-59131776D01*
X123583306Y-59122677D01*
X123620641Y-59119000D01*
X124179359Y-59119000D01*
X124216694Y-59122677D01*
X124216694Y-59122677D01*
G37*
G36*
X82216694Y-59122677D02*
X82246689Y-59131776D01*
X82274334Y-59146552D01*
X82298563Y-59166437D01*
X82318448Y-59190666D01*
X82333224Y-59218311D01*
X82342323Y-59248306D01*
X82346000Y-59285641D01*
X82346000Y-60714359D01*
X82342323Y-60751694D01*
X82333224Y-60781689D01*
X82318448Y-60809334D01*
X82298563Y-60833563D01*
X82274334Y-60853448D01*
X82246689Y-60868224D01*
X82216694Y-60877323D01*
X82179359Y-60881000D01*
X81620641Y-60881000D01*
X81583306Y-60877323D01*
X81553311Y-60868224D01*
X81525666Y-60853448D01*
X81501437Y-60833563D01*
X81481552Y-60809334D01*
X81466776Y-60781689D01*
X81457677Y-60751694D01*
X81454000Y-60714359D01*
X81454000Y-59285641D01*
X81457677Y-59248306D01*
X81466776Y-59218311D01*
X81481552Y-59190666D01*
X81501437Y-59166437D01*
X81525666Y-59146552D01*
X81553311Y-59131776D01*
X81583306Y-59122677D01*
X81620641Y-59119000D01*
X82179359Y-59119000D01*
X82216694Y-59122677D01*
X82216694Y-59122677D01*
G37*
G36*
X122416694Y-59122677D02*
X122446689Y-59131776D01*
X122474334Y-59146552D01*
X122498563Y-59166437D01*
X122518448Y-59190666D01*
X122533224Y-59218311D01*
X122542323Y-59248306D01*
X122546000Y-59285641D01*
X122546000Y-60714359D01*
X122542323Y-60751694D01*
X122533224Y-60781689D01*
X122518448Y-60809334D01*
X122498563Y-60833563D01*
X122474334Y-60853448D01*
X122446689Y-60868224D01*
X122416694Y-60877323D01*
X122379359Y-60881000D01*
X121820641Y-60881000D01*
X121783306Y-60877323D01*
X121753311Y-60868224D01*
X121725666Y-60853448D01*
X121701437Y-60833563D01*
X121681552Y-60809334D01*
X121666776Y-60781689D01*
X121657677Y-60751694D01*
X121654000Y-60714359D01*
X121654000Y-59285641D01*
X121657677Y-59248306D01*
X121666776Y-59218311D01*
X121681552Y-59190666D01*
X121701437Y-59166437D01*
X121725666Y-59146552D01*
X121753311Y-59131776D01*
X121783306Y-59122677D01*
X121820641Y-59119000D01*
X122379359Y-59119000D01*
X122416694Y-59122677D01*
X122416694Y-59122677D01*
G37*
G36*
X91740670Y-58608322D02*
X91913740Y-58680010D01*
X92069504Y-58784088D01*
X92201962Y-58916546D01*
X92306040Y-59072310D01*
X92377728Y-59245380D01*
X92414274Y-59429109D01*
X92414274Y-59616443D01*
X92377728Y-59800172D01*
X92306040Y-59973242D01*
X92201962Y-60129006D01*
X92069504Y-60261464D01*
X91913740Y-60365542D01*
X91740670Y-60437230D01*
X91556941Y-60473776D01*
X91369607Y-60473776D01*
X91185878Y-60437230D01*
X91012808Y-60365542D01*
X90857044Y-60261464D01*
X90724586Y-60129006D01*
X90620508Y-59973242D01*
X90548820Y-59800172D01*
X90512274Y-59616443D01*
X90512274Y-59429109D01*
X90548820Y-59245380D01*
X90620508Y-59072310D01*
X90724586Y-58916546D01*
X90857044Y-58784088D01*
X91012808Y-58680010D01*
X91185878Y-58608322D01*
X91369607Y-58571776D01*
X91556941Y-58571776D01*
X91740670Y-58608322D01*
X91740670Y-58608322D01*
G37*
G36*
X96140201Y-58890007D02*
X94917619Y-60347023D01*
X93460603Y-59124441D01*
X94683185Y-57667425D01*
X96140201Y-58890007D01*
X96140201Y-58890007D01*
G37*
G36*
X101463677Y-58753465D02*
X101501364Y-58764898D01*
X101536103Y-58783466D01*
X101566548Y-58808452D01*
X101591534Y-58838897D01*
X101610102Y-58873636D01*
X101621535Y-58911323D01*
X101626000Y-58956661D01*
X101626000Y-60043339D01*
X101621535Y-60088677D01*
X101610102Y-60126364D01*
X101591534Y-60161103D01*
X101566548Y-60191548D01*
X101536103Y-60216534D01*
X101501364Y-60235102D01*
X101463677Y-60246535D01*
X101418339Y-60251000D01*
X100581661Y-60251000D01*
X100536323Y-60246535D01*
X100498636Y-60235102D01*
X100463897Y-60216534D01*
X100433452Y-60191548D01*
X100408466Y-60161103D01*
X100389898Y-60126364D01*
X100378465Y-60088677D01*
X100374000Y-60043339D01*
X100374000Y-58956661D01*
X100378465Y-58911323D01*
X100389898Y-58873636D01*
X100408466Y-58838897D01*
X100433452Y-58808452D01*
X100463897Y-58783466D01*
X100498636Y-58764898D01*
X100536323Y-58753465D01*
X100581661Y-58749000D01*
X101418339Y-58749000D01*
X101463677Y-58753465D01*
X101463677Y-58753465D01*
G37*
G36*
X103513677Y-58753465D02*
X103551364Y-58764898D01*
X103586103Y-58783466D01*
X103616548Y-58808452D01*
X103641534Y-58838897D01*
X103660102Y-58873636D01*
X103671535Y-58911323D01*
X103676000Y-58956661D01*
X103676000Y-60043339D01*
X103671535Y-60088677D01*
X103660102Y-60126364D01*
X103641534Y-60161103D01*
X103616548Y-60191548D01*
X103586103Y-60216534D01*
X103551364Y-60235102D01*
X103513677Y-60246535D01*
X103468339Y-60251000D01*
X102631661Y-60251000D01*
X102586323Y-60246535D01*
X102548636Y-60235102D01*
X102513897Y-60216534D01*
X102483452Y-60191548D01*
X102458466Y-60161103D01*
X102439898Y-60126364D01*
X102428465Y-60088677D01*
X102424000Y-60043339D01*
X102424000Y-58956661D01*
X102428465Y-58911323D01*
X102439898Y-58873636D01*
X102458466Y-58838897D01*
X102483452Y-58808452D01*
X102513897Y-58783466D01*
X102548636Y-58764898D01*
X102586323Y-58753465D01*
X102631661Y-58749000D01*
X103468339Y-58749000D01*
X103513677Y-58753465D01*
X103513677Y-58753465D01*
G37*
G36*
X109483421Y-58100430D02*
X109656491Y-58172118D01*
X109812255Y-58276196D01*
X109944713Y-58408654D01*
X110048791Y-58564418D01*
X110120479Y-58737488D01*
X110157025Y-58921217D01*
X110157025Y-59108551D01*
X110120479Y-59292280D01*
X110048791Y-59465350D01*
X109944713Y-59621114D01*
X109812255Y-59753572D01*
X109656491Y-59857650D01*
X109483421Y-59929338D01*
X109299692Y-59965884D01*
X109112358Y-59965884D01*
X108928629Y-59929338D01*
X108755559Y-59857650D01*
X108599795Y-59753572D01*
X108467337Y-59621114D01*
X108363259Y-59465350D01*
X108291571Y-59292280D01*
X108255025Y-59108551D01*
X108255025Y-58921217D01*
X108291571Y-58737488D01*
X108363259Y-58564418D01*
X108467337Y-58408654D01*
X108599795Y-58276196D01*
X108755559Y-58172118D01*
X108928629Y-58100430D01*
X109112358Y-58063884D01*
X109299692Y-58063884D01*
X109483421Y-58100430D01*
X109483421Y-58100430D01*
G37*
G36*
X119588677Y-58403465D02*
X119626364Y-58414898D01*
X119661103Y-58433466D01*
X119691548Y-58458452D01*
X119716534Y-58488897D01*
X119735102Y-58523636D01*
X119746535Y-58561323D01*
X119751000Y-58606661D01*
X119751000Y-59443339D01*
X119746535Y-59488677D01*
X119735102Y-59526364D01*
X119716534Y-59561103D01*
X119691548Y-59591548D01*
X119661103Y-59616534D01*
X119626364Y-59635102D01*
X119588677Y-59646535D01*
X119543339Y-59651000D01*
X118456661Y-59651000D01*
X118411323Y-59646535D01*
X118373636Y-59635102D01*
X118338897Y-59616534D01*
X118308452Y-59591548D01*
X118283466Y-59561103D01*
X118264898Y-59526364D01*
X118253465Y-59488677D01*
X118249000Y-59443339D01*
X118249000Y-58606661D01*
X118253465Y-58561323D01*
X118264898Y-58523636D01*
X118283466Y-58488897D01*
X118308452Y-58458452D01*
X118338897Y-58433466D01*
X118373636Y-58414898D01*
X118411323Y-58403465D01*
X118456661Y-58399000D01*
X119543339Y-58399000D01*
X119588677Y-58403465D01*
X119588677Y-58403465D01*
G37*
G36*
X85288677Y-58403465D02*
X85326364Y-58414898D01*
X85361103Y-58433466D01*
X85391548Y-58458452D01*
X85416534Y-58488897D01*
X85435102Y-58523636D01*
X85446535Y-58561323D01*
X85451000Y-58606661D01*
X85451000Y-59443339D01*
X85446535Y-59488677D01*
X85435102Y-59526364D01*
X85416534Y-59561103D01*
X85391548Y-59591548D01*
X85361103Y-59616534D01*
X85326364Y-59635102D01*
X85288677Y-59646535D01*
X85243339Y-59651000D01*
X84156661Y-59651000D01*
X84111323Y-59646535D01*
X84073636Y-59635102D01*
X84038897Y-59616534D01*
X84008452Y-59591548D01*
X83983466Y-59561103D01*
X83964898Y-59526364D01*
X83953465Y-59488677D01*
X83949000Y-59443339D01*
X83949000Y-58606661D01*
X83953465Y-58561323D01*
X83964898Y-58523636D01*
X83983466Y-58488897D01*
X84008452Y-58458452D01*
X84038897Y-58433466D01*
X84073636Y-58414898D01*
X84111323Y-58403465D01*
X84156661Y-58399000D01*
X85243339Y-58399000D01*
X85288677Y-58403465D01*
X85288677Y-58403465D01*
G37*
G36*
X94451822Y-57440654D02*
X93229240Y-58897670D01*
X91772224Y-57675088D01*
X92994806Y-56218072D01*
X94451822Y-57440654D01*
X94451822Y-57440654D01*
G37*
G36*
X111187868Y-56670228D02*
X111360938Y-56741916D01*
X111516702Y-56845994D01*
X111649160Y-56978452D01*
X111753238Y-57134216D01*
X111824926Y-57307286D01*
X111861472Y-57491015D01*
X111861472Y-57678349D01*
X111824926Y-57862078D01*
X111753238Y-58035148D01*
X111649160Y-58190912D01*
X111516702Y-58323370D01*
X111360938Y-58427448D01*
X111187868Y-58499136D01*
X111004139Y-58535682D01*
X110816805Y-58535682D01*
X110633076Y-58499136D01*
X110460006Y-58427448D01*
X110304242Y-58323370D01*
X110171784Y-58190912D01*
X110067706Y-58035148D01*
X109996018Y-57862078D01*
X109959472Y-57678349D01*
X109959472Y-57491015D01*
X109996018Y-57307286D01*
X110067706Y-57134216D01*
X110171784Y-56978452D01*
X110304242Y-56845994D01*
X110460006Y-56741916D01*
X110633076Y-56670228D01*
X110816805Y-56633682D01*
X111004139Y-56633682D01*
X111187868Y-56670228D01*
X111187868Y-56670228D01*
G37*
G36*
X80049134Y-57330418D02*
X80158509Y-57375722D01*
X80256947Y-57441497D01*
X80340654Y-57525204D01*
X80406429Y-57623642D01*
X80451733Y-57733017D01*
X80474829Y-57849128D01*
X80474829Y-57967516D01*
X80451733Y-58083627D01*
X80406429Y-58193002D01*
X80340654Y-58291440D01*
X80256947Y-58375147D01*
X80158509Y-58440922D01*
X80049134Y-58486226D01*
X79933023Y-58509322D01*
X79814635Y-58509322D01*
X79698524Y-58486226D01*
X79589149Y-58440922D01*
X79490711Y-58375147D01*
X79407004Y-58291440D01*
X79341229Y-58193002D01*
X79295925Y-58083627D01*
X79272829Y-57967516D01*
X79272829Y-57849128D01*
X79295925Y-57733017D01*
X79341229Y-57623642D01*
X79407004Y-57525204D01*
X79490711Y-57441497D01*
X79589149Y-57375722D01*
X79698524Y-57330418D01*
X79814635Y-57307322D01*
X79933023Y-57307322D01*
X80049134Y-57330418D01*
X80049134Y-57330418D01*
G37*
G36*
X124286892Y-57378496D02*
X124387166Y-57420031D01*
X124477416Y-57480334D01*
X124554159Y-57557077D01*
X124614462Y-57647327D01*
X124655997Y-57747601D01*
X124677171Y-57854052D01*
X124677171Y-57962592D01*
X124655997Y-58069043D01*
X124614462Y-58169317D01*
X124554159Y-58259567D01*
X124477416Y-58336310D01*
X124387166Y-58396613D01*
X124286892Y-58438148D01*
X124180441Y-58459322D01*
X124071901Y-58459322D01*
X123965450Y-58438148D01*
X123865176Y-58396613D01*
X123774926Y-58336310D01*
X123698183Y-58259567D01*
X123637880Y-58169317D01*
X123596345Y-58069043D01*
X123575171Y-57962592D01*
X123575171Y-57854052D01*
X123596345Y-57747601D01*
X123637880Y-57647327D01*
X123698183Y-57557077D01*
X123774926Y-57480334D01*
X123865176Y-57420031D01*
X123965450Y-57378496D01*
X124071901Y-57357322D01*
X124180441Y-57357322D01*
X124286892Y-57378496D01*
X124286892Y-57378496D01*
G37*
G36*
X121312892Y-57068951D02*
X121422267Y-57114255D01*
X121520705Y-57180030D01*
X121604412Y-57263737D01*
X121670187Y-57362175D01*
X121715491Y-57471550D01*
X121738587Y-57587661D01*
X121738587Y-57706049D01*
X121715491Y-57822160D01*
X121670187Y-57931535D01*
X121604412Y-58029973D01*
X121520705Y-58113680D01*
X121422267Y-58179455D01*
X121312892Y-58224759D01*
X121196781Y-58247855D01*
X121078393Y-58247855D01*
X120962282Y-58224759D01*
X120852907Y-58179455D01*
X120754469Y-58113680D01*
X120670762Y-58029973D01*
X120604987Y-57931535D01*
X120559683Y-57822160D01*
X120536587Y-57706049D01*
X120536587Y-57587661D01*
X120559683Y-57471550D01*
X120604987Y-57362175D01*
X120670762Y-57263737D01*
X120754469Y-57180030D01*
X120852907Y-57114255D01*
X120962282Y-57068951D01*
X121078393Y-57045855D01*
X121196781Y-57045855D01*
X121312892Y-57068951D01*
X121312892Y-57068951D01*
G37*
G36*
X103468678Y-56703211D02*
X103506365Y-56714644D01*
X103541104Y-56733212D01*
X103571549Y-56758198D01*
X103596535Y-56788643D01*
X103615103Y-56823382D01*
X103626536Y-56861069D01*
X103631001Y-56906407D01*
X103631001Y-57993085D01*
X103626536Y-58038423D01*
X103615103Y-58076110D01*
X103596535Y-58110849D01*
X103571549Y-58141294D01*
X103541104Y-58166280D01*
X103506365Y-58184848D01*
X103468678Y-58196281D01*
X103423340Y-58200746D01*
X102586662Y-58200746D01*
X102541324Y-58196281D01*
X102503637Y-58184848D01*
X102468898Y-58166280D01*
X102438453Y-58141294D01*
X102413467Y-58110849D01*
X102394899Y-58076110D01*
X102383466Y-58038423D01*
X102379001Y-57993085D01*
X102379001Y-56906407D01*
X102383466Y-56861069D01*
X102394899Y-56823382D01*
X102413467Y-56788643D01*
X102438453Y-56758198D01*
X102468898Y-56733212D01*
X102503637Y-56714644D01*
X102541324Y-56703211D01*
X102586662Y-56698746D01*
X103423340Y-56698746D01*
X103468678Y-56703211D01*
X103468678Y-56703211D01*
G37*
G36*
X101418678Y-56703211D02*
X101456365Y-56714644D01*
X101491104Y-56733212D01*
X101521549Y-56758198D01*
X101546535Y-56788643D01*
X101565103Y-56823382D01*
X101576536Y-56861069D01*
X101581001Y-56906407D01*
X101581001Y-57993085D01*
X101576536Y-58038423D01*
X101565103Y-58076110D01*
X101546535Y-58110849D01*
X101521549Y-58141294D01*
X101491104Y-58166280D01*
X101456365Y-58184848D01*
X101418678Y-58196281D01*
X101373340Y-58200746D01*
X100536662Y-58200746D01*
X100491324Y-58196281D01*
X100453637Y-58184848D01*
X100418898Y-58166280D01*
X100388453Y-58141294D01*
X100363467Y-58110849D01*
X100344899Y-58076110D01*
X100333466Y-58038423D01*
X100329001Y-57993085D01*
X100329001Y-56906407D01*
X100333466Y-56861069D01*
X100344899Y-56823382D01*
X100363467Y-56788643D01*
X100388453Y-56758198D01*
X100418898Y-56733212D01*
X100453637Y-56714644D01*
X100491324Y-56703211D01*
X100536662Y-56698746D01*
X101373340Y-56698746D01*
X101418678Y-56703211D01*
X101418678Y-56703211D01*
G37*
G36*
X83023134Y-57117029D02*
X83123408Y-57158564D01*
X83213658Y-57218867D01*
X83290401Y-57295610D01*
X83350704Y-57385860D01*
X83392239Y-57486134D01*
X83413413Y-57592585D01*
X83413413Y-57701125D01*
X83392239Y-57807576D01*
X83350704Y-57907850D01*
X83290401Y-57998100D01*
X83213658Y-58074843D01*
X83123408Y-58135146D01*
X83023134Y-58176681D01*
X82916683Y-58197855D01*
X82808143Y-58197855D01*
X82701692Y-58176681D01*
X82601418Y-58135146D01*
X82511168Y-58074843D01*
X82434425Y-57998100D01*
X82374122Y-57907850D01*
X82332587Y-57807576D01*
X82311413Y-57701125D01*
X82311413Y-57592585D01*
X82332587Y-57486134D01*
X82374122Y-57385860D01*
X82434425Y-57295610D01*
X82511168Y-57218867D01*
X82601418Y-57158564D01*
X82701692Y-57117029D01*
X82808143Y-57095855D01*
X82916683Y-57095855D01*
X83023134Y-57117029D01*
X83023134Y-57117029D01*
G37*
G36*
X85288677Y-56353465D02*
X85326364Y-56364898D01*
X85361103Y-56383466D01*
X85391548Y-56408452D01*
X85416534Y-56438897D01*
X85435102Y-56473636D01*
X85446535Y-56511323D01*
X85451000Y-56556661D01*
X85451000Y-57393339D01*
X85446535Y-57438677D01*
X85435102Y-57476364D01*
X85416534Y-57511103D01*
X85391548Y-57541548D01*
X85361103Y-57566534D01*
X85326364Y-57585102D01*
X85288677Y-57596535D01*
X85243339Y-57601000D01*
X84156661Y-57601000D01*
X84111323Y-57596535D01*
X84073636Y-57585102D01*
X84038897Y-57566534D01*
X84008452Y-57541548D01*
X83983466Y-57511103D01*
X83964898Y-57476364D01*
X83953465Y-57438677D01*
X83949000Y-57393339D01*
X83949000Y-56556661D01*
X83953465Y-56511323D01*
X83964898Y-56473636D01*
X83983466Y-56438897D01*
X84008452Y-56408452D01*
X84038897Y-56383466D01*
X84073636Y-56364898D01*
X84111323Y-56353465D01*
X84156661Y-56349000D01*
X85243339Y-56349000D01*
X85288677Y-56353465D01*
X85288677Y-56353465D01*
G37*
G36*
X119588677Y-56353465D02*
X119626364Y-56364898D01*
X119661103Y-56383466D01*
X119691548Y-56408452D01*
X119716534Y-56438897D01*
X119735102Y-56473636D01*
X119746535Y-56511323D01*
X119751000Y-56556661D01*
X119751000Y-57393339D01*
X119746535Y-57438677D01*
X119735102Y-57476364D01*
X119716534Y-57511103D01*
X119691548Y-57541548D01*
X119661103Y-57566534D01*
X119626364Y-57585102D01*
X119588677Y-57596535D01*
X119543339Y-57601000D01*
X118456661Y-57601000D01*
X118411323Y-57596535D01*
X118373636Y-57585102D01*
X118338897Y-57566534D01*
X118308452Y-57541548D01*
X118283466Y-57511103D01*
X118264898Y-57476364D01*
X118253465Y-57438677D01*
X118249000Y-57393339D01*
X118249000Y-56556661D01*
X118253465Y-56511323D01*
X118264898Y-56473636D01*
X118283466Y-56438897D01*
X118308452Y-56408452D01*
X118338897Y-56383466D01*
X118373636Y-56364898D01*
X118411323Y-56353465D01*
X118456661Y-56349000D01*
X119543339Y-56349000D01*
X119588677Y-56353465D01*
X119588677Y-56353465D01*
G37*
G36*
X87657301Y-55910952D02*
X87766676Y-55956256D01*
X87865114Y-56022031D01*
X87948821Y-56105738D01*
X88014596Y-56204176D01*
X88059900Y-56313551D01*
X88082996Y-56429662D01*
X88082996Y-56548050D01*
X88059900Y-56664161D01*
X88014596Y-56773536D01*
X87948821Y-56871974D01*
X87865114Y-56955681D01*
X87766676Y-57021456D01*
X87657301Y-57066760D01*
X87541190Y-57089856D01*
X87422802Y-57089856D01*
X87306691Y-57066760D01*
X87197316Y-57021456D01*
X87098878Y-56955681D01*
X87015171Y-56871974D01*
X86949396Y-56773536D01*
X86904092Y-56664161D01*
X86880996Y-56548050D01*
X86880996Y-56429662D01*
X86904092Y-56313551D01*
X86949396Y-56204176D01*
X87015171Y-56105738D01*
X87098878Y-56022031D01*
X87197316Y-55956256D01*
X87306691Y-55910952D01*
X87422802Y-55887856D01*
X87541190Y-55887856D01*
X87657301Y-55910952D01*
X87657301Y-55910952D01*
G37*
G36*
X116678725Y-55959030D02*
X116778999Y-56000565D01*
X116869249Y-56060868D01*
X116945992Y-56137611D01*
X117006295Y-56227861D01*
X117047830Y-56328135D01*
X117069004Y-56434586D01*
X117069004Y-56543126D01*
X117047830Y-56649577D01*
X117006295Y-56749851D01*
X116945992Y-56840101D01*
X116869249Y-56916844D01*
X116778999Y-56977147D01*
X116678725Y-57018682D01*
X116572274Y-57039856D01*
X116463734Y-57039856D01*
X116357283Y-57018682D01*
X116257009Y-56977147D01*
X116166759Y-56916844D01*
X116090016Y-56840101D01*
X116029713Y-56749851D01*
X115988178Y-56649577D01*
X115967004Y-56543126D01*
X115967004Y-56434586D01*
X115988178Y-56328135D01*
X116029713Y-56227861D01*
X116090016Y-56137611D01*
X116166759Y-56060868D01*
X116257009Y-56000565D01*
X116357283Y-55959030D01*
X116463734Y-55937856D01*
X116572274Y-55937856D01*
X116678725Y-55959030D01*
X116678725Y-55959030D01*
G37*
G36*
X82216694Y-55122677D02*
X82246689Y-55131776D01*
X82274334Y-55146552D01*
X82298563Y-55166437D01*
X82318448Y-55190666D01*
X82333224Y-55218311D01*
X82342323Y-55248306D01*
X82346000Y-55285641D01*
X82346000Y-56714359D01*
X82342323Y-56751694D01*
X82333224Y-56781689D01*
X82318448Y-56809334D01*
X82298563Y-56833563D01*
X82274334Y-56853448D01*
X82246689Y-56868224D01*
X82216694Y-56877323D01*
X82179359Y-56881000D01*
X81620641Y-56881000D01*
X81583306Y-56877323D01*
X81553311Y-56868224D01*
X81525666Y-56853448D01*
X81501437Y-56833563D01*
X81481552Y-56809334D01*
X81466776Y-56781689D01*
X81457677Y-56751694D01*
X81454000Y-56714359D01*
X81454000Y-55285641D01*
X81457677Y-55248306D01*
X81466776Y-55218311D01*
X81481552Y-55190666D01*
X81501437Y-55166437D01*
X81525666Y-55146552D01*
X81553311Y-55131776D01*
X81583306Y-55122677D01*
X81620641Y-55119000D01*
X82179359Y-55119000D01*
X82216694Y-55122677D01*
X82216694Y-55122677D01*
G37*
G36*
X124216694Y-55122677D02*
X124246689Y-55131776D01*
X124274334Y-55146552D01*
X124298563Y-55166437D01*
X124318448Y-55190666D01*
X124333224Y-55218311D01*
X124342323Y-55248306D01*
X124346000Y-55285641D01*
X124346000Y-56714359D01*
X124342323Y-56751694D01*
X124333224Y-56781689D01*
X124318448Y-56809334D01*
X124298563Y-56833563D01*
X124274334Y-56853448D01*
X124246689Y-56868224D01*
X124216694Y-56877323D01*
X124179359Y-56881000D01*
X123620641Y-56881000D01*
X123583306Y-56877323D01*
X123553311Y-56868224D01*
X123525666Y-56853448D01*
X123501437Y-56833563D01*
X123481552Y-56809334D01*
X123466776Y-56781689D01*
X123457677Y-56751694D01*
X123454000Y-56714359D01*
X123454000Y-55285641D01*
X123457677Y-55248306D01*
X123466776Y-55218311D01*
X123481552Y-55190666D01*
X123501437Y-55166437D01*
X123525666Y-55146552D01*
X123553311Y-55131776D01*
X123583306Y-55122677D01*
X123620641Y-55119000D01*
X124179359Y-55119000D01*
X124216694Y-55122677D01*
X124216694Y-55122677D01*
G37*
G36*
X122416694Y-55122677D02*
X122446689Y-55131776D01*
X122474334Y-55146552D01*
X122498563Y-55166437D01*
X122518448Y-55190666D01*
X122533224Y-55218311D01*
X122542323Y-55248306D01*
X122546000Y-55285641D01*
X122546000Y-56714359D01*
X122542323Y-56751694D01*
X122533224Y-56781689D01*
X122518448Y-56809334D01*
X122498563Y-56833563D01*
X122474334Y-56853448D01*
X122446689Y-56868224D01*
X122416694Y-56877323D01*
X122379359Y-56881000D01*
X121820641Y-56881000D01*
X121783306Y-56877323D01*
X121753311Y-56868224D01*
X121725666Y-56853448D01*
X121701437Y-56833563D01*
X121681552Y-56809334D01*
X121666776Y-56781689D01*
X121657677Y-56751694D01*
X121654000Y-56714359D01*
X121654000Y-55285641D01*
X121657677Y-55248306D01*
X121666776Y-55218311D01*
X121681552Y-55190666D01*
X121701437Y-55166437D01*
X121725666Y-55146552D01*
X121753311Y-55131776D01*
X121783306Y-55122677D01*
X121820641Y-55119000D01*
X122379359Y-55119000D01*
X122416694Y-55122677D01*
X122416694Y-55122677D01*
G37*
G36*
X80416694Y-55122677D02*
X80446689Y-55131776D01*
X80474334Y-55146552D01*
X80498563Y-55166437D01*
X80518448Y-55190666D01*
X80533224Y-55218311D01*
X80542323Y-55248306D01*
X80546000Y-55285641D01*
X80546000Y-56714359D01*
X80542323Y-56751694D01*
X80533224Y-56781689D01*
X80518448Y-56809334D01*
X80498563Y-56833563D01*
X80474334Y-56853448D01*
X80446689Y-56868224D01*
X80416694Y-56877323D01*
X80379359Y-56881000D01*
X79820641Y-56881000D01*
X79783306Y-56877323D01*
X79753311Y-56868224D01*
X79725666Y-56853448D01*
X79701437Y-56833563D01*
X79681552Y-56809334D01*
X79666776Y-56781689D01*
X79657677Y-56751694D01*
X79654000Y-56714359D01*
X79654000Y-55285641D01*
X79657677Y-55248306D01*
X79666776Y-55218311D01*
X79681552Y-55190666D01*
X79701437Y-55166437D01*
X79725666Y-55146552D01*
X79753311Y-55131776D01*
X79783306Y-55122677D01*
X79820641Y-55119000D01*
X80379359Y-55119000D01*
X80416694Y-55122677D01*
X80416694Y-55122677D01*
G37*
G36*
X103216694Y-54122677D02*
X103246689Y-54131776D01*
X103274334Y-54146552D01*
X103298563Y-54166437D01*
X103318448Y-54190666D01*
X103333224Y-54218311D01*
X103342323Y-54248306D01*
X103346000Y-54285641D01*
X103346000Y-55714359D01*
X103342323Y-55751694D01*
X103333224Y-55781689D01*
X103318448Y-55809334D01*
X103298563Y-55833563D01*
X103274334Y-55853448D01*
X103246689Y-55868224D01*
X103216694Y-55877323D01*
X103179359Y-55881000D01*
X102620641Y-55881000D01*
X102583306Y-55877323D01*
X102553311Y-55868224D01*
X102525666Y-55853448D01*
X102501437Y-55833563D01*
X102481552Y-55809334D01*
X102466776Y-55781689D01*
X102457677Y-55751694D01*
X102454000Y-55714359D01*
X102454000Y-54285641D01*
X102457677Y-54248306D01*
X102466776Y-54218311D01*
X102481552Y-54190666D01*
X102501437Y-54166437D01*
X102525666Y-54146552D01*
X102553311Y-54131776D01*
X102583306Y-54122677D01*
X102620641Y-54119000D01*
X103179359Y-54119000D01*
X103216694Y-54122677D01*
X103216694Y-54122677D01*
G37*
G36*
X114764946Y-53612819D02*
X114874321Y-53658123D01*
X114972759Y-53723898D01*
X115056466Y-53807605D01*
X115122241Y-53906043D01*
X115167545Y-54015418D01*
X115190641Y-54131529D01*
X115190641Y-54249917D01*
X115167545Y-54366028D01*
X115122241Y-54475403D01*
X115056466Y-54573841D01*
X114972759Y-54657548D01*
X114874321Y-54723323D01*
X114764946Y-54768627D01*
X114648835Y-54791723D01*
X114530446Y-54791723D01*
X114495386Y-54784749D01*
X114471000Y-54782347D01*
X114446614Y-54784749D01*
X114423165Y-54791862D01*
X114401554Y-54803413D01*
X114382612Y-54818959D01*
X114367066Y-54837901D01*
X114355515Y-54859511D01*
X114348402Y-54882961D01*
X114346000Y-54907347D01*
X114346000Y-55714359D01*
X114342323Y-55751694D01*
X114333224Y-55781689D01*
X114318448Y-55809334D01*
X114298563Y-55833563D01*
X114274334Y-55853448D01*
X114246689Y-55868224D01*
X114216694Y-55877323D01*
X114179359Y-55881000D01*
X113620641Y-55881000D01*
X113583306Y-55877323D01*
X113553311Y-55868224D01*
X113525666Y-55853448D01*
X113501437Y-55833563D01*
X113481552Y-55809334D01*
X113466776Y-55781689D01*
X113457677Y-55751694D01*
X113454000Y-55714359D01*
X113454000Y-54285641D01*
X113457677Y-54248306D01*
X113466776Y-54218311D01*
X113481552Y-54190666D01*
X113501437Y-54166437D01*
X113525666Y-54146552D01*
X113553311Y-54131776D01*
X113583306Y-54122677D01*
X113620641Y-54119000D01*
X113888549Y-54119000D01*
X113912935Y-54116598D01*
X113936384Y-54109485D01*
X113957995Y-54097934D01*
X113976937Y-54082388D01*
X113992483Y-54063446D01*
X114004034Y-54041835D01*
X114011145Y-54018393D01*
X114011737Y-54015418D01*
X114047231Y-53929728D01*
X114057041Y-53906043D01*
X114122816Y-53807605D01*
X114206523Y-53723898D01*
X114304961Y-53658123D01*
X114414336Y-53612819D01*
X114530447Y-53589723D01*
X114648835Y-53589723D01*
X114764946Y-53612819D01*
X114764946Y-53612819D01*
G37*
G36*
X112416694Y-54122677D02*
X112446689Y-54131776D01*
X112474334Y-54146552D01*
X112498563Y-54166437D01*
X112518448Y-54190666D01*
X112533224Y-54218311D01*
X112542323Y-54248306D01*
X112546000Y-54285641D01*
X112546000Y-55714359D01*
X112542323Y-55751694D01*
X112533224Y-55781689D01*
X112518448Y-55809334D01*
X112498563Y-55833563D01*
X112474334Y-55853448D01*
X112446689Y-55868224D01*
X112416694Y-55877323D01*
X112379359Y-55881000D01*
X111820641Y-55881000D01*
X111783306Y-55877323D01*
X111753311Y-55868224D01*
X111725666Y-55853448D01*
X111701437Y-55833563D01*
X111681552Y-55809334D01*
X111666776Y-55781689D01*
X111657677Y-55751694D01*
X111654000Y-55714359D01*
X111654000Y-54285641D01*
X111657677Y-54248306D01*
X111666776Y-54218311D01*
X111681552Y-54190666D01*
X111701437Y-54166437D01*
X111725666Y-54146552D01*
X111753311Y-54131776D01*
X111783306Y-54122677D01*
X111820641Y-54119000D01*
X112379359Y-54119000D01*
X112416694Y-54122677D01*
X112416694Y-54122677D01*
G37*
G36*
X101416694Y-54122677D02*
X101446689Y-54131776D01*
X101474334Y-54146552D01*
X101498563Y-54166437D01*
X101518448Y-54190666D01*
X101533224Y-54218311D01*
X101542323Y-54248306D01*
X101546000Y-54285641D01*
X101546000Y-55714359D01*
X101542323Y-55751694D01*
X101533224Y-55781689D01*
X101518448Y-55809334D01*
X101498563Y-55833563D01*
X101474334Y-55853448D01*
X101446689Y-55868224D01*
X101416694Y-55877323D01*
X101379359Y-55881000D01*
X100820641Y-55881000D01*
X100783306Y-55877323D01*
X100753311Y-55868224D01*
X100725666Y-55853448D01*
X100701437Y-55833563D01*
X100681552Y-55809334D01*
X100666776Y-55781689D01*
X100657677Y-55751694D01*
X100654000Y-55714359D01*
X100654000Y-54285641D01*
X100657677Y-54248306D01*
X100666776Y-54218311D01*
X100681552Y-54190666D01*
X100701437Y-54166437D01*
X100725666Y-54146552D01*
X100753311Y-54131776D01*
X100783306Y-54122677D01*
X100820641Y-54119000D01*
X101379359Y-54119000D01*
X101416694Y-54122677D01*
X101416694Y-54122677D01*
G37*
G36*
X92216694Y-54122677D02*
X92246689Y-54131776D01*
X92274334Y-54146552D01*
X92298563Y-54166437D01*
X92318448Y-54190666D01*
X92333224Y-54218311D01*
X92342323Y-54248306D01*
X92346000Y-54285641D01*
X92346000Y-55714359D01*
X92342323Y-55751694D01*
X92333224Y-55781689D01*
X92318448Y-55809334D01*
X92298563Y-55833563D01*
X92274334Y-55853448D01*
X92246689Y-55868224D01*
X92216694Y-55877323D01*
X92179359Y-55881000D01*
X91620641Y-55881000D01*
X91583306Y-55877323D01*
X91553311Y-55868224D01*
X91525666Y-55853448D01*
X91501437Y-55833563D01*
X91481552Y-55809334D01*
X91466776Y-55781689D01*
X91457677Y-55751694D01*
X91454000Y-55714359D01*
X91454000Y-54285641D01*
X91457677Y-54248306D01*
X91466776Y-54218311D01*
X91481552Y-54190666D01*
X91501437Y-54166437D01*
X91525666Y-54146552D01*
X91553311Y-54131776D01*
X91583306Y-54122677D01*
X91620641Y-54119000D01*
X92179359Y-54119000D01*
X92216694Y-54122677D01*
X92216694Y-54122677D01*
G37*
G36*
X89571080Y-53660897D02*
X89671354Y-53702432D01*
X89761604Y-53762735D01*
X89838347Y-53839478D01*
X89898650Y-53929728D01*
X89944688Y-54040873D01*
X89944957Y-54041763D01*
X89956495Y-54063381D01*
X89972028Y-54082333D01*
X89990960Y-54097890D01*
X90012564Y-54109455D01*
X90036008Y-54116583D01*
X90060472Y-54119000D01*
X90379359Y-54119000D01*
X90416694Y-54122677D01*
X90446689Y-54131776D01*
X90474334Y-54146552D01*
X90498563Y-54166437D01*
X90518448Y-54190666D01*
X90533224Y-54218311D01*
X90542323Y-54248306D01*
X90546000Y-54285641D01*
X90546000Y-55714359D01*
X90542323Y-55751694D01*
X90533224Y-55781689D01*
X90518448Y-55809334D01*
X90498563Y-55833563D01*
X90474334Y-55853448D01*
X90446689Y-55868224D01*
X90416694Y-55877323D01*
X90379359Y-55881000D01*
X89820641Y-55881000D01*
X89783306Y-55877323D01*
X89753311Y-55868224D01*
X89725666Y-55853448D01*
X89701437Y-55833563D01*
X89681552Y-55809334D01*
X89666776Y-55781689D01*
X89657677Y-55751694D01*
X89654000Y-55714359D01*
X89654000Y-54856368D01*
X89651598Y-54831982D01*
X89644485Y-54808533D01*
X89632934Y-54786922D01*
X89617388Y-54767980D01*
X89598446Y-54752434D01*
X89576835Y-54740883D01*
X89553386Y-54733770D01*
X89529000Y-54731368D01*
X89504615Y-54733770D01*
X89464630Y-54741723D01*
X89356089Y-54741723D01*
X89249638Y-54720549D01*
X89149364Y-54679014D01*
X89059114Y-54618711D01*
X88982371Y-54541968D01*
X88922068Y-54451718D01*
X88880533Y-54351444D01*
X88859359Y-54244993D01*
X88859359Y-54136453D01*
X88880533Y-54030002D01*
X88922068Y-53929728D01*
X88982371Y-53839478D01*
X89059114Y-53762735D01*
X89149364Y-53702432D01*
X89249638Y-53660897D01*
X89356089Y-53639723D01*
X89464629Y-53639723D01*
X89571080Y-53660897D01*
X89571080Y-53660897D01*
G37*
G36*
X110588677Y-53428465D02*
X110626364Y-53439898D01*
X110661103Y-53458466D01*
X110691548Y-53483452D01*
X110716534Y-53513897D01*
X110735102Y-53548636D01*
X110746535Y-53586323D01*
X110751000Y-53631661D01*
X110751000Y-54468339D01*
X110746535Y-54513677D01*
X110735102Y-54551364D01*
X110716534Y-54586103D01*
X110691548Y-54616548D01*
X110661103Y-54641534D01*
X110626364Y-54660102D01*
X110588677Y-54671535D01*
X110543339Y-54676000D01*
X109456661Y-54676000D01*
X109411323Y-54671535D01*
X109373636Y-54660102D01*
X109338897Y-54641534D01*
X109308452Y-54616548D01*
X109283466Y-54586103D01*
X109264898Y-54551364D01*
X109253465Y-54513677D01*
X109249000Y-54468339D01*
X109249000Y-53631661D01*
X109253465Y-53586323D01*
X109264898Y-53548636D01*
X109283466Y-53513897D01*
X109308452Y-53483452D01*
X109338897Y-53458466D01*
X109373636Y-53439898D01*
X109411323Y-53428465D01*
X109456661Y-53424000D01*
X110543339Y-53424000D01*
X110588677Y-53428465D01*
X110588677Y-53428465D01*
G37*
G36*
X94588677Y-53403465D02*
X94626364Y-53414898D01*
X94661103Y-53433466D01*
X94691548Y-53458452D01*
X94716534Y-53488897D01*
X94735102Y-53523636D01*
X94746535Y-53561323D01*
X94751000Y-53606661D01*
X94751000Y-54443339D01*
X94746535Y-54488677D01*
X94735102Y-54526364D01*
X94716534Y-54561103D01*
X94691548Y-54591548D01*
X94661103Y-54616534D01*
X94626364Y-54635102D01*
X94588677Y-54646535D01*
X94543339Y-54651000D01*
X93456661Y-54651000D01*
X93411323Y-54646535D01*
X93373636Y-54635102D01*
X93338897Y-54616534D01*
X93308452Y-54591548D01*
X93283466Y-54561103D01*
X93264898Y-54526364D01*
X93253465Y-54488677D01*
X93249000Y-54443339D01*
X93249000Y-53606661D01*
X93253465Y-53561323D01*
X93264898Y-53523636D01*
X93283466Y-53488897D01*
X93308452Y-53458452D01*
X93338897Y-53433466D01*
X93373636Y-53414898D01*
X93411323Y-53403465D01*
X93456661Y-53399000D01*
X94543339Y-53399000D01*
X94588677Y-53403465D01*
X94588677Y-53403465D01*
G37*
G36*
X110588677Y-51378465D02*
X110626364Y-51389898D01*
X110661103Y-51408466D01*
X110691548Y-51433452D01*
X110716534Y-51463897D01*
X110735102Y-51498636D01*
X110746535Y-51536323D01*
X110751000Y-51581661D01*
X110751000Y-52418339D01*
X110746535Y-52463677D01*
X110735102Y-52501364D01*
X110716534Y-52536103D01*
X110691548Y-52566548D01*
X110661103Y-52591534D01*
X110626364Y-52610102D01*
X110588677Y-52621535D01*
X110543339Y-52626000D01*
X109456661Y-52626000D01*
X109411323Y-52621535D01*
X109373636Y-52610102D01*
X109338897Y-52591534D01*
X109308452Y-52566548D01*
X109283466Y-52536103D01*
X109264898Y-52501364D01*
X109253465Y-52463677D01*
X109249000Y-52418339D01*
X109249000Y-51581661D01*
X109253465Y-51536323D01*
X109264898Y-51498636D01*
X109283466Y-51463897D01*
X109308452Y-51433452D01*
X109338897Y-51408466D01*
X109373636Y-51389898D01*
X109411323Y-51378465D01*
X109456661Y-51374000D01*
X110543339Y-51374000D01*
X110588677Y-51378465D01*
X110588677Y-51378465D01*
G37*
G36*
X94588677Y-51353465D02*
X94626364Y-51364898D01*
X94661103Y-51383466D01*
X94691548Y-51408452D01*
X94716534Y-51438897D01*
X94735102Y-51473636D01*
X94746535Y-51511323D01*
X94751000Y-51556661D01*
X94751000Y-52393339D01*
X94746535Y-52438677D01*
X94735102Y-52476364D01*
X94716534Y-52511103D01*
X94691548Y-52541548D01*
X94661103Y-52566534D01*
X94626364Y-52585102D01*
X94588677Y-52596535D01*
X94543339Y-52601000D01*
X93456661Y-52601000D01*
X93411323Y-52596535D01*
X93373636Y-52585102D01*
X93338897Y-52566534D01*
X93308452Y-52541548D01*
X93283466Y-52511103D01*
X93264898Y-52476364D01*
X93253465Y-52438677D01*
X93249000Y-52393339D01*
X93249000Y-51556661D01*
X93253465Y-51511323D01*
X93264898Y-51473636D01*
X93283466Y-51438897D01*
X93308452Y-51408452D01*
X93338897Y-51383466D01*
X93373636Y-51364898D01*
X93411323Y-51353465D01*
X93456661Y-51349000D01*
X94543339Y-51349000D01*
X94588677Y-51353465D01*
X94588677Y-51353465D01*
G37*
G36*
X101416694Y-50122677D02*
X101446689Y-50131776D01*
X101474334Y-50146552D01*
X101498563Y-50166437D01*
X101518448Y-50190666D01*
X101533224Y-50218311D01*
X101542323Y-50248306D01*
X101546000Y-50285641D01*
X101546000Y-51714359D01*
X101542323Y-51751694D01*
X101533224Y-51781689D01*
X101518448Y-51809334D01*
X101498563Y-51833563D01*
X101474334Y-51853448D01*
X101446689Y-51868224D01*
X101416694Y-51877323D01*
X101379359Y-51881000D01*
X100820641Y-51881000D01*
X100783306Y-51877323D01*
X100753311Y-51868224D01*
X100725666Y-51853448D01*
X100701437Y-51833563D01*
X100681552Y-51809334D01*
X100666776Y-51781689D01*
X100657677Y-51751694D01*
X100654000Y-51714359D01*
X100654000Y-50285641D01*
X100657677Y-50248306D01*
X100666776Y-50218311D01*
X100681552Y-50190666D01*
X100701437Y-50166437D01*
X100725666Y-50146552D01*
X100753311Y-50131776D01*
X100783306Y-50122677D01*
X100820641Y-50119000D01*
X101379359Y-50119000D01*
X101416694Y-50122677D01*
X101416694Y-50122677D01*
G37*
G36*
X90416694Y-50122677D02*
X90446689Y-50131776D01*
X90474334Y-50146552D01*
X90498563Y-50166437D01*
X90518448Y-50190666D01*
X90533224Y-50218311D01*
X90542323Y-50248306D01*
X90546000Y-50285641D01*
X90546000Y-51714359D01*
X90542323Y-51751694D01*
X90533224Y-51781689D01*
X90518448Y-51809334D01*
X90498563Y-51833563D01*
X90474334Y-51853448D01*
X90446689Y-51868224D01*
X90416694Y-51877323D01*
X90379359Y-51881000D01*
X89820641Y-51881000D01*
X89783306Y-51877323D01*
X89753311Y-51868224D01*
X89725666Y-51853448D01*
X89701437Y-51833563D01*
X89681552Y-51809334D01*
X89666776Y-51781689D01*
X89657677Y-51751694D01*
X89654000Y-51714359D01*
X89654000Y-50285641D01*
X89657677Y-50248306D01*
X89666776Y-50218311D01*
X89681552Y-50190666D01*
X89701437Y-50166437D01*
X89725666Y-50146552D01*
X89753311Y-50131776D01*
X89783306Y-50122677D01*
X89820641Y-50119000D01*
X90379359Y-50119000D01*
X90416694Y-50122677D01*
X90416694Y-50122677D01*
G37*
G36*
X103216694Y-50122677D02*
X103246689Y-50131776D01*
X103274334Y-50146552D01*
X103298563Y-50166437D01*
X103318448Y-50190666D01*
X103333224Y-50218311D01*
X103342323Y-50248306D01*
X103346000Y-50285641D01*
X103346000Y-51714359D01*
X103342323Y-51751694D01*
X103333224Y-51781689D01*
X103318448Y-51809334D01*
X103298563Y-51833563D01*
X103274334Y-51853448D01*
X103246689Y-51868224D01*
X103216694Y-51877323D01*
X103179359Y-51881000D01*
X102620641Y-51881000D01*
X102583306Y-51877323D01*
X102553311Y-51868224D01*
X102525666Y-51853448D01*
X102501437Y-51833563D01*
X102481552Y-51809334D01*
X102466776Y-51781689D01*
X102457677Y-51751694D01*
X102454000Y-51714359D01*
X102454000Y-50285641D01*
X102457677Y-50248306D01*
X102466776Y-50218311D01*
X102481552Y-50190666D01*
X102501437Y-50166437D01*
X102525666Y-50146552D01*
X102553311Y-50131776D01*
X102583306Y-50122677D01*
X102620641Y-50119000D01*
X103179359Y-50119000D01*
X103216694Y-50122677D01*
X103216694Y-50122677D01*
G37*
G36*
X112416694Y-50122677D02*
X112446689Y-50131776D01*
X112474334Y-50146552D01*
X112498563Y-50166437D01*
X112518448Y-50190666D01*
X112533224Y-50218311D01*
X112542323Y-50248306D01*
X112546000Y-50285641D01*
X112546000Y-51714359D01*
X112542323Y-51751694D01*
X112533224Y-51781689D01*
X112518448Y-51809334D01*
X112498563Y-51833563D01*
X112474334Y-51853448D01*
X112446689Y-51868224D01*
X112416694Y-51877323D01*
X112379359Y-51881000D01*
X111820641Y-51881000D01*
X111783306Y-51877323D01*
X111753311Y-51868224D01*
X111725666Y-51853448D01*
X111701437Y-51833563D01*
X111681552Y-51809334D01*
X111666776Y-51781689D01*
X111657677Y-51751694D01*
X111654000Y-51714359D01*
X111654000Y-50285641D01*
X111657677Y-50248306D01*
X111666776Y-50218311D01*
X111681552Y-50190666D01*
X111701437Y-50166437D01*
X111725666Y-50146552D01*
X111753311Y-50131776D01*
X111783306Y-50122677D01*
X111820641Y-50119000D01*
X112379359Y-50119000D01*
X112416694Y-50122677D01*
X112416694Y-50122677D01*
G37*
G36*
X92216694Y-50122677D02*
X92246689Y-50131776D01*
X92274334Y-50146552D01*
X92298563Y-50166437D01*
X92318448Y-50190666D01*
X92333224Y-50218311D01*
X92342323Y-50248306D01*
X92346000Y-50285641D01*
X92346000Y-51714359D01*
X92342323Y-51751694D01*
X92333224Y-51781689D01*
X92318448Y-51809334D01*
X92298563Y-51833563D01*
X92274334Y-51853448D01*
X92246689Y-51868224D01*
X92216694Y-51877323D01*
X92179359Y-51881000D01*
X91620641Y-51881000D01*
X91583306Y-51877323D01*
X91553311Y-51868224D01*
X91525666Y-51853448D01*
X91501437Y-51833563D01*
X91481552Y-51809334D01*
X91466776Y-51781689D01*
X91457677Y-51751694D01*
X91454000Y-51714359D01*
X91454000Y-50285641D01*
X91457677Y-50248306D01*
X91466776Y-50218311D01*
X91481552Y-50190666D01*
X91501437Y-50166437D01*
X91525666Y-50146552D01*
X91553311Y-50131776D01*
X91583306Y-50122677D01*
X91620641Y-50119000D01*
X92179359Y-50119000D01*
X92216694Y-50122677D01*
X92216694Y-50122677D01*
G37*
G36*
X114216694Y-50122677D02*
X114246689Y-50131776D01*
X114274334Y-50146552D01*
X114298563Y-50166437D01*
X114318448Y-50190666D01*
X114333224Y-50218311D01*
X114342323Y-50248306D01*
X114346000Y-50285641D01*
X114346000Y-51714359D01*
X114342323Y-51751694D01*
X114333224Y-51781689D01*
X114318448Y-51809334D01*
X114298563Y-51833563D01*
X114274334Y-51853448D01*
X114246689Y-51868224D01*
X114216694Y-51877323D01*
X114179359Y-51881000D01*
X113620641Y-51881000D01*
X113583306Y-51877323D01*
X113553311Y-51868224D01*
X113525666Y-51853448D01*
X113501437Y-51833563D01*
X113481552Y-51809334D01*
X113466776Y-51781689D01*
X113457677Y-51751694D01*
X113454000Y-51714359D01*
X113454000Y-50285641D01*
X113457677Y-50248306D01*
X113466776Y-50218311D01*
X113481552Y-50190666D01*
X113501437Y-50166437D01*
X113525666Y-50146552D01*
X113553311Y-50131776D01*
X113583306Y-50122677D01*
X113620641Y-50119000D01*
X114179359Y-50119000D01*
X114216694Y-50122677D01*
X114216694Y-50122677D01*
G37*
G36*
X106166295Y-50132464D02*
X104271532Y-50298235D01*
X104105761Y-48403472D01*
X106000524Y-48237701D01*
X106166295Y-50132464D01*
X106166295Y-50132464D01*
G37*
G36*
X99142239Y-48343553D02*
X99315309Y-48415241D01*
X99471073Y-48519319D01*
X99603531Y-48651777D01*
X99707609Y-48807541D01*
X99779297Y-48980611D01*
X99815843Y-49164340D01*
X99815843Y-49351674D01*
X99779297Y-49535403D01*
X99707609Y-49708473D01*
X99603531Y-49864237D01*
X99471073Y-49996695D01*
X99315309Y-50100773D01*
X99142239Y-50172461D01*
X98958510Y-50209007D01*
X98771176Y-50209007D01*
X98587447Y-50172461D01*
X98414377Y-50100773D01*
X98258613Y-49996695D01*
X98126155Y-49864237D01*
X98022077Y-49708473D01*
X97950389Y-49535403D01*
X97913843Y-49351674D01*
X97913843Y-49164340D01*
X97950389Y-48980611D01*
X98022077Y-48807541D01*
X98126155Y-48651777D01*
X98258613Y-48519319D01*
X98414377Y-48415241D01*
X98587447Y-48343553D01*
X98771176Y-48307007D01*
X98958510Y-48307007D01*
X99142239Y-48343553D01*
X99142239Y-48343553D01*
G37*
G36*
X108385007Y-49963448D02*
X106490244Y-50129219D01*
X106324473Y-48234456D01*
X108219236Y-48068685D01*
X108385007Y-49963448D01*
X108385007Y-49963448D01*
G37*
G36*
X96925707Y-48149633D02*
X97098777Y-48221321D01*
X97254541Y-48325399D01*
X97386999Y-48457857D01*
X97491077Y-48613621D01*
X97562765Y-48786691D01*
X97599311Y-48970420D01*
X97599311Y-49157754D01*
X97562765Y-49341483D01*
X97491077Y-49514553D01*
X97386999Y-49670317D01*
X97254541Y-49802775D01*
X97098777Y-49906853D01*
X96925707Y-49978541D01*
X96741978Y-50015087D01*
X96554644Y-50015087D01*
X96370915Y-49978541D01*
X96197845Y-49906853D01*
X96042081Y-49802775D01*
X95909623Y-49670317D01*
X95805545Y-49514553D01*
X95733857Y-49341483D01*
X95697311Y-49157754D01*
X95697311Y-48970420D01*
X95733857Y-48786691D01*
X95805545Y-48613621D01*
X95909623Y-48457857D01*
X96042081Y-48325399D01*
X96197845Y-48221321D01*
X96370915Y-48149633D01*
X96554644Y-48113087D01*
X96741978Y-48113087D01*
X96925707Y-48149633D01*
X96925707Y-48149633D01*
G37*
G36*
X91822160Y-48284509D02*
X91931535Y-48329813D01*
X92029973Y-48395588D01*
X92113680Y-48479295D01*
X92179455Y-48577733D01*
X92224759Y-48687108D01*
X92247855Y-48803219D01*
X92247855Y-48921607D01*
X92224759Y-49037718D01*
X92179455Y-49147093D01*
X92113680Y-49245531D01*
X92029973Y-49329238D01*
X91931535Y-49395013D01*
X91822160Y-49440317D01*
X91706049Y-49463413D01*
X91587661Y-49463413D01*
X91471550Y-49440317D01*
X91362175Y-49395013D01*
X91263737Y-49329238D01*
X91180030Y-49245531D01*
X91114255Y-49147093D01*
X91068951Y-49037718D01*
X91045855Y-48921607D01*
X91045855Y-48803219D01*
X91068951Y-48687108D01*
X91114255Y-48577733D01*
X91180030Y-48479295D01*
X91263737Y-48395588D01*
X91362175Y-48329813D01*
X91471550Y-48284509D01*
X91587661Y-48261413D01*
X91706049Y-48261413D01*
X91822160Y-48284509D01*
X91822160Y-48284509D01*
G37*
G36*
X112513866Y-48332587D02*
X112614140Y-48374122D01*
X112704390Y-48434425D01*
X112781133Y-48511168D01*
X112841436Y-48601418D01*
X112882971Y-48701692D01*
X112904145Y-48808143D01*
X112904145Y-48916683D01*
X112882971Y-49023134D01*
X112841436Y-49123408D01*
X112781133Y-49213658D01*
X112704390Y-49290401D01*
X112614140Y-49350704D01*
X112513866Y-49392239D01*
X112407415Y-49413413D01*
X112298875Y-49413413D01*
X112192424Y-49392239D01*
X112092150Y-49350704D01*
X112001900Y-49290401D01*
X111925157Y-49213658D01*
X111864854Y-49123408D01*
X111823319Y-49023134D01*
X111802145Y-48916683D01*
X111802145Y-48808143D01*
X111823319Y-48701692D01*
X111864854Y-48601418D01*
X111925157Y-48511168D01*
X112001900Y-48434425D01*
X112092150Y-48374122D01*
X112192424Y-48332587D01*
X112298875Y-48311413D01*
X112407415Y-48311413D01*
X112513866Y-48332587D01*
X112513866Y-48332587D01*
G37*
G36*
X100116486Y-45863178D02*
X99950715Y-47757941D01*
X98055952Y-47592170D01*
X98221723Y-45697407D01*
X100116486Y-45863178D01*
X100116486Y-45863178D01*
G37*
G36*
X105192049Y-45823181D02*
X105365119Y-45894869D01*
X105520883Y-45998947D01*
X105653341Y-46131405D01*
X105757419Y-46287169D01*
X105829107Y-46460239D01*
X105865653Y-46643968D01*
X105865653Y-46831302D01*
X105829107Y-47015031D01*
X105757419Y-47188101D01*
X105653341Y-47343865D01*
X105520883Y-47476323D01*
X105365119Y-47580401D01*
X105192049Y-47652089D01*
X105008320Y-47688635D01*
X104820986Y-47688635D01*
X104637257Y-47652089D01*
X104464187Y-47580401D01*
X104308423Y-47476323D01*
X104175965Y-47343865D01*
X104071887Y-47188101D01*
X104000199Y-47015031D01*
X103963653Y-46831302D01*
X103963653Y-46643968D01*
X104000199Y-46460239D01*
X104071887Y-46287169D01*
X104175965Y-46131405D01*
X104308423Y-45998947D01*
X104464187Y-45894869D01*
X104637257Y-45823181D01*
X104820986Y-45786635D01*
X105008320Y-45786635D01*
X105192049Y-45823181D01*
X105192049Y-45823181D01*
G37*
G36*
X97902131Y-45644351D02*
X97736360Y-47539114D01*
X95841597Y-47373343D01*
X96007368Y-45478580D01*
X97902131Y-45644351D01*
X97902131Y-45644351D01*
G37*
G36*
X107408581Y-45629258D02*
X107581651Y-45700946D01*
X107737415Y-45805024D01*
X107869873Y-45937482D01*
X107973951Y-46093246D01*
X108045639Y-46266316D01*
X108082185Y-46450045D01*
X108082185Y-46637379D01*
X108045639Y-46821108D01*
X107973951Y-46994178D01*
X107869873Y-47149942D01*
X107737415Y-47282400D01*
X107581651Y-47386478D01*
X107408581Y-47458166D01*
X107224852Y-47494712D01*
X107037518Y-47494712D01*
X106853789Y-47458166D01*
X106680719Y-47386478D01*
X106524955Y-47282400D01*
X106392497Y-47149942D01*
X106288419Y-46994178D01*
X106216731Y-46821108D01*
X106180185Y-46637379D01*
X106180185Y-46450045D01*
X106216731Y-46266316D01*
X106288419Y-46093246D01*
X106392497Y-45937482D01*
X106524955Y-45805024D01*
X106680719Y-45700946D01*
X106853789Y-45629258D01*
X107037518Y-45592712D01*
X107224852Y-45592712D01*
X107408581Y-45629258D01*
X107408581Y-45629258D01*
G37*
G36*
X112266983Y-45295925D02*
X112376358Y-45341229D01*
X112474796Y-45407004D01*
X112558503Y-45490711D01*
X112624278Y-45589149D01*
X112669582Y-45698524D01*
X112692678Y-45814635D01*
X112692678Y-45933023D01*
X112669582Y-46049134D01*
X112624278Y-46158509D01*
X112558503Y-46256947D01*
X112474796Y-46340654D01*
X112376358Y-46406429D01*
X112266983Y-46451733D01*
X112150872Y-46474829D01*
X112032484Y-46474829D01*
X111916373Y-46451733D01*
X111806998Y-46406429D01*
X111708560Y-46340654D01*
X111624853Y-46256947D01*
X111559078Y-46158509D01*
X111513774Y-46049134D01*
X111490678Y-45933023D01*
X111490678Y-45814635D01*
X111513774Y-45698524D01*
X111559078Y-45589149D01*
X111624853Y-45490711D01*
X111708560Y-45407004D01*
X111806998Y-45341229D01*
X111916373Y-45295925D01*
X112032484Y-45272829D01*
X112150872Y-45272829D01*
X112266983Y-45295925D01*
X112266983Y-45295925D01*
G37*
G36*
X92069043Y-45344003D02*
X92169317Y-45385538D01*
X92259567Y-45445841D01*
X92336310Y-45522584D01*
X92396613Y-45612834D01*
X92438148Y-45713108D01*
X92459322Y-45819559D01*
X92459322Y-45928099D01*
X92438148Y-46034550D01*
X92396613Y-46134824D01*
X92336310Y-46225074D01*
X92259567Y-46301817D01*
X92169317Y-46362120D01*
X92069043Y-46403655D01*
X91962592Y-46424829D01*
X91854052Y-46424829D01*
X91747601Y-46403655D01*
X91647327Y-46362120D01*
X91557077Y-46301817D01*
X91480334Y-46225074D01*
X91420031Y-46134824D01*
X91378496Y-46034550D01*
X91357322Y-45928099D01*
X91357322Y-45819559D01*
X91378496Y-45713108D01*
X91420031Y-45612834D01*
X91480334Y-45522584D01*
X91557077Y-45445841D01*
X91647327Y-45385538D01*
X91747601Y-45344003D01*
X91854052Y-45322829D01*
X91962592Y-45322829D01*
X92069043Y-45344003D01*
X92069043Y-45344003D01*
G37*
M02*
