G04 #@! TF.GenerationSoftware,KiCad,Pcbnew,(5.0.1)-3*
G04 #@! TF.CreationDate,2018-12-17T15:05:50+08:00*
G04 #@! TF.ProjectId,Micromouse_V01,4D6963726F6D6F7573655F5630312E6B,rev?*
G04 #@! TF.SameCoordinates,Original*
G04 #@! TF.FileFunction,Legend,Bot*
G04 #@! TF.FilePolarity,Positive*
%FSLAX46Y46*%
G04 Gerber Fmt 4.6, Leading zero omitted, Abs format (unit mm)*
G04 Created by KiCad (PCBNEW (5.0.1)-3) date 12/17/2018 3:05:50 PM*
%MOMM*%
%LPD*%
G01*
G04 APERTURE LIST*
%ADD10C,0.120000*%
%ADD11C,0.150000*%
G04 APERTURE END LIST*
D10*
G04 #@! TO.C,D14*
X107011950Y-72987398D02*
G75*
G02X104180192Y-78004528I-2113924J-2114576D01*
G01*
X107012602Y-72988050D02*
G75*
G03X101995472Y-75819808I-2114576J-2113924D01*
G01*
X107398026Y-75101974D02*
G75*
G03X107398026Y-75101974I-2500000J0D01*
G01*
X104180312Y-78004648D02*
X101995352Y-75819688D01*
G04 #@! TO.C,D15*
X101995352Y-104180312D02*
X104180312Y-101995352D01*
X107398026Y-104898026D02*
G75*
G03X107398026Y-104898026I-2500000J0D01*
G01*
X107011950Y-107012602D02*
G75*
G03X104180192Y-101995472I-2113924J2114576D01*
G01*
X107012602Y-107011950D02*
G75*
G02X101995472Y-104180192I-2114576J2113924D01*
G01*
G04 #@! TO.C,D14*
D11*
X108876679Y-77363368D02*
X108169572Y-76656262D01*
X108001213Y-76824620D01*
X107933870Y-76959307D01*
X107933870Y-77093994D01*
X107967542Y-77195010D01*
X108068557Y-77363368D01*
X108169572Y-77464384D01*
X108337931Y-77565399D01*
X108438946Y-77599071D01*
X108573633Y-77599071D01*
X108708320Y-77531727D01*
X108876679Y-77363368D01*
X107799183Y-78440865D02*
X108203244Y-78036804D01*
X108001213Y-78238834D02*
X107294106Y-77531727D01*
X107462465Y-77565399D01*
X107597152Y-77565399D01*
X107698168Y-77531727D01*
X106721687Y-78575552D02*
X107193091Y-79046956D01*
X106620671Y-78137819D02*
X107294106Y-78474536D01*
X106856374Y-78912269D01*
G04 #@! TO.C,D15*
X102636631Y-108876679D02*
X103343737Y-108169572D01*
X103175379Y-108001213D01*
X103040692Y-107933870D01*
X102906005Y-107933870D01*
X102804989Y-107967542D01*
X102636631Y-108068557D01*
X102535615Y-108169572D01*
X102434600Y-108337931D01*
X102400928Y-108438946D01*
X102400928Y-108573633D01*
X102468272Y-108708320D01*
X102636631Y-108876679D01*
X101559134Y-107799183D02*
X101963195Y-108203244D01*
X101761165Y-108001213D02*
X102468272Y-107294106D01*
X102434600Y-107462465D01*
X102434600Y-107597152D01*
X102468272Y-107698168D01*
X101626478Y-106452313D02*
X101963195Y-106789030D01*
X101660150Y-107159419D01*
X101660150Y-107092076D01*
X101626478Y-106991061D01*
X101458119Y-106822702D01*
X101357104Y-106789030D01*
X101289760Y-106789030D01*
X101188745Y-106822702D01*
X101020386Y-106991061D01*
X100986715Y-107092076D01*
X100986715Y-107159419D01*
X101020386Y-107260435D01*
X101188745Y-107428793D01*
X101289760Y-107462465D01*
X101357104Y-107462465D01*
G04 #@! TD*
M02*
