M48
;DRILL file {KiCad (5.0.1)-3} date 12/17/2018 3:05:53 PM
;FORMAT={-:-/ absolute / inch / decimal}
FMAT,2
INCH,TZ
T1C0.0315
T2C0.0354
T3C0.0394
T4C0.0630
T5C0.0709
T6C0.0787
%
G90
G05
M72
T1
X2.8512Y-3.1102
X3.2512Y-3.1102
X2.7512Y-2.8933
X2.7512Y-2.9933
X2.7512Y-3.0933
X2.7512Y-3.1933
X2.7512Y-3.2933
X2.7512Y-3.3933
X2.7512Y-3.4933
X2.7512Y-3.5933
X2.7512Y-3.6933
X2.7512Y-3.7933
X2.7512Y-3.8933
X2.7512Y-3.9933
X2.7512Y-4.0933
X2.7512Y-4.1933
X2.7512Y-4.2933
X3.3512Y-2.8933
X3.3512Y-2.9933
X3.3512Y-3.0933
X3.3512Y-3.1933
X3.3512Y-3.2933
X3.3512Y-3.3933
X3.3512Y-3.4933
X3.3512Y-3.5933
X3.3512Y-3.6933
X3.3512Y-3.7933
X3.3512Y-3.8933
X3.3512Y-3.9933
X3.3512Y-4.0933
X3.3512Y-4.1933
X3.3512Y-4.2933
X2.8512Y-3.7402
X3.2512Y-3.7402
X2.8512Y-3.8583
X3.2512Y-3.8583
X2.8512Y-4.2126
X3.2512Y-4.2126
X2.8512Y-3.2283
X3.2512Y-3.2283
X2.8512Y-2.874
X3.2512Y-2.874
X2.8512Y-3.622
X3.2512Y-3.622
X2.8512Y-4.0945
X3.2512Y-4.0945
X2.8512Y-3.3465
X3.2512Y-3.3465
X2.8512Y-2.9921
X3.2512Y-2.9921
X2.8512Y-3.9764
X3.2512Y-3.9764
X2.8512Y-3.4646
X3.2512Y-3.4646
T2
X3.5108Y-4.3337
X3.5815Y-4.263
X3.3091Y-5.0693
X3.3091Y-5.1693
X4.4276Y-3.3858
X4.5276Y-3.3858
X4.0945Y-2.9921
X4.1652Y-2.9214
X4.0945Y-4.0945
X4.1652Y-4.1652
X3.5011Y-2.757
X3.5719Y-2.8278
X4.6713Y-3.7047
X4.7713Y-3.7047
X4.4094Y-3.7047
X4.5094Y-3.7047
X4.6717Y-3.3858
X4.7717Y-3.3858
X3.3071Y-4.8213
X3.3071Y-4.9213
X3.6813Y-2.9372
X3.752Y-3.0079
X3.3071Y-1.9197
X3.3071Y-2.0197
X3.3071Y-2.1835
X3.3071Y-2.2835
X3.6909Y-4.1535
X3.7617Y-4.0828
T3
X3.6173Y-3.1933
X3.6173Y-3.2933
X3.6173Y-3.3933
X3.6173Y-3.4933
X3.6173Y-3.5933
X3.6173Y-3.6933
X3.6173Y-3.7933
X3.6173Y-3.8933
X4.2173Y-3.1933
X4.2173Y-3.2933
X4.2173Y-3.3933
X4.2173Y-3.4933
X4.2173Y-3.5933
X4.2173Y-3.6933
X4.2173Y-3.7933
X4.2173Y-3.8933
X2.5984Y-4.0339
X2.5984Y-4.1339
X2.5984Y-2.9528
X2.5984Y-3.0528
X2.5984Y-3.5039
X2.5984Y-3.6039
T4
X1.2686Y-3.6693
T5
X1.2686Y-3.4173
X1.2686Y-3.5433
T6
X1.2686Y-3.2874
X1.2686Y-3.7992
T0
M30
