G04 #@! TF.GenerationSoftware,KiCad,Pcbnew,(5.0.1)-3*
G04 #@! TF.CreationDate,2018-12-17T15:05:50+08:00*
G04 #@! TF.ProjectId,Micromouse_V01,4D6963726F6D6F7573655F5630312E6B,rev?*
G04 #@! TF.SameCoordinates,Original*
G04 #@! TF.FileFunction,Legend,Top*
G04 #@! TF.FilePolarity,Positive*
%FSLAX46Y46*%
G04 Gerber Fmt 4.6, Leading zero omitted, Abs format (unit mm)*
G04 Created by KiCad (PCBNEW (5.0.1)-3) date 12/17/2018 3:05:50 PM*
%MOMM*%
%LPD*%
G01*
G04 APERTURE LIST*
%ADD10C,0.300000*%
%ADD11C,0.120000*%
%ADD12C,0.150000*%
G04 APERTURE END LIST*
D10*
X18578571Y-96071428D02*
X18578571Y-96928571D01*
X18578571Y-96500000D02*
X17078571Y-96500000D01*
X17292857Y-96642857D01*
X17435714Y-96785714D01*
X17507142Y-96928571D01*
X17078571Y-95142857D02*
X17078571Y-95000000D01*
X17150000Y-94857142D01*
X17221428Y-94785714D01*
X17364285Y-94714285D01*
X17650000Y-94642857D01*
X18007142Y-94642857D01*
X18292857Y-94714285D01*
X18435714Y-94785714D01*
X18507142Y-94857142D01*
X18578571Y-95000000D01*
X18578571Y-95142857D01*
X18507142Y-95285714D01*
X18435714Y-95357142D01*
X18292857Y-95428571D01*
X18007142Y-95500000D01*
X17650000Y-95500000D01*
X17364285Y-95428571D01*
X17221428Y-95357142D01*
X17150000Y-95285714D01*
X17078571Y-95142857D01*
X17078571Y-93714285D02*
X17078571Y-93571428D01*
X17150000Y-93428571D01*
X17221428Y-93357142D01*
X17364285Y-93285714D01*
X17650000Y-93214285D01*
X18007142Y-93214285D01*
X18292857Y-93285714D01*
X18435714Y-93357142D01*
X18507142Y-93428571D01*
X18578571Y-93571428D01*
X18578571Y-93714285D01*
X18507142Y-93857142D01*
X18435714Y-93928571D01*
X18292857Y-94000000D01*
X18007142Y-94071428D01*
X17650000Y-94071428D01*
X17364285Y-94000000D01*
X17221428Y-93928571D01*
X17150000Y-93857142D01*
X17078571Y-93714285D01*
X18435714Y-92571428D02*
X18507142Y-92500000D01*
X18578571Y-92571428D01*
X18507142Y-92642857D01*
X18435714Y-92571428D01*
X18578571Y-92571428D01*
X17078571Y-91571428D02*
X17078571Y-91428571D01*
X17150000Y-91285714D01*
X17221428Y-91214285D01*
X17364285Y-91142857D01*
X17650000Y-91071428D01*
X18007142Y-91071428D01*
X18292857Y-91142857D01*
X18435714Y-91214285D01*
X18507142Y-91285714D01*
X18578571Y-91428571D01*
X18578571Y-91571428D01*
X18507142Y-91714285D01*
X18435714Y-91785714D01*
X18292857Y-91857142D01*
X18007142Y-91928571D01*
X17650000Y-91928571D01*
X17364285Y-91857142D01*
X17221428Y-91785714D01*
X17150000Y-91714285D01*
X17078571Y-91571428D01*
X17078571Y-90142857D02*
X17078571Y-90000000D01*
X17150000Y-89857142D01*
X17221428Y-89785714D01*
X17364285Y-89714285D01*
X17650000Y-89642857D01*
X18007142Y-89642857D01*
X18292857Y-89714285D01*
X18435714Y-89785714D01*
X18507142Y-89857142D01*
X18578571Y-90000000D01*
X18578571Y-90142857D01*
X18507142Y-90285714D01*
X18435714Y-90357142D01*
X18292857Y-90428571D01*
X18007142Y-90500000D01*
X17650000Y-90500000D01*
X17364285Y-90428571D01*
X17221428Y-90357142D01*
X17150000Y-90285714D01*
X17078571Y-90142857D01*
X17078571Y-88714285D02*
X17078571Y-88571428D01*
X17150000Y-88428571D01*
X17221428Y-88357142D01*
X17364285Y-88285714D01*
X17650000Y-88214285D01*
X18007142Y-88214285D01*
X18292857Y-88285714D01*
X18435714Y-88357142D01*
X18507142Y-88428571D01*
X18578571Y-88571428D01*
X18578571Y-88714285D01*
X18507142Y-88857142D01*
X18435714Y-88928571D01*
X18292857Y-89000000D01*
X18007142Y-89071428D01*
X17650000Y-89071428D01*
X17364285Y-89000000D01*
X17221428Y-88928571D01*
X17150000Y-88857142D01*
X17078571Y-88714285D01*
X18578571Y-86428571D02*
X17578571Y-86428571D01*
X17721428Y-86428571D02*
X17650000Y-86357142D01*
X17578571Y-86214285D01*
X17578571Y-86000000D01*
X17650000Y-85857142D01*
X17792857Y-85785714D01*
X18578571Y-85785714D01*
X17792857Y-85785714D02*
X17650000Y-85714285D01*
X17578571Y-85571428D01*
X17578571Y-85357142D01*
X17650000Y-85214285D01*
X17792857Y-85142857D01*
X18578571Y-85142857D01*
X18578571Y-84428571D02*
X17578571Y-84428571D01*
X17721428Y-84428571D02*
X17650000Y-84357142D01*
X17578571Y-84214285D01*
X17578571Y-84000000D01*
X17650000Y-83857142D01*
X17792857Y-83785714D01*
X18578571Y-83785714D01*
X17792857Y-83785714D02*
X17650000Y-83714285D01*
X17578571Y-83571428D01*
X17578571Y-83357142D01*
X17650000Y-83214285D01*
X17792857Y-83142857D01*
X18578571Y-83142857D01*
X20000000Y-140000000D02*
X20000000Y-40000000D01*
X30000000Y-140000000D02*
X19413579Y-140000000D01*
X30000000Y-40000000D02*
X19413579Y-40000000D01*
X20000000Y-40000000D02*
X20586421Y-41126504D01*
X20000000Y-40000000D02*
X19413579Y-41126504D01*
X20000000Y-140000000D02*
X20586421Y-138873496D01*
X20000000Y-140000000D02*
X19413579Y-138873496D01*
X73239974Y-157627012D02*
X73525687Y-157626010D01*
X73668293Y-157554080D01*
X73739470Y-157482402D01*
X73881575Y-157267616D01*
X73952001Y-156981653D01*
X73949997Y-156410228D01*
X73878067Y-156267622D01*
X73806389Y-156196445D01*
X73663282Y-156125518D01*
X73377569Y-156126520D01*
X73234964Y-156198449D01*
X73163786Y-156270128D01*
X73092859Y-156413235D01*
X73094112Y-156770375D01*
X73166041Y-156912981D01*
X73237720Y-156984159D01*
X73380826Y-157055086D01*
X73666539Y-157054083D01*
X73809145Y-156982154D01*
X73880322Y-156910476D01*
X73951249Y-156767369D01*
X74808387Y-156764362D02*
X74665280Y-156693435D01*
X74593601Y-156622258D01*
X74521672Y-156479652D01*
X74521422Y-156408224D01*
X74592349Y-156265117D01*
X74663526Y-156193438D01*
X74806132Y-156121509D01*
X75091844Y-156120507D01*
X75234951Y-156191434D01*
X75306630Y-156262612D01*
X75378559Y-156405217D01*
X75378810Y-156476645D01*
X75307883Y-156619752D01*
X75236705Y-156691431D01*
X75094099Y-156763360D01*
X74808387Y-156764362D01*
X74665781Y-156836291D01*
X74594604Y-156907970D01*
X74523676Y-157051077D01*
X74524679Y-157336789D01*
X74596608Y-157479395D01*
X74668287Y-157550573D01*
X74811393Y-157621500D01*
X75097106Y-157620498D01*
X75239712Y-157548568D01*
X75310889Y-157476890D01*
X75381816Y-157333783D01*
X75380814Y-157048070D01*
X75308885Y-156905465D01*
X75237206Y-156834287D01*
X75094099Y-156763360D01*
X76025170Y-157474384D02*
X76096849Y-157545562D01*
X76025672Y-157617241D01*
X75953993Y-157546063D01*
X76025170Y-157474384D01*
X76025672Y-157617241D01*
X77379299Y-156612487D02*
X77382806Y-157612480D01*
X77020154Y-156042314D02*
X76666771Y-157114989D01*
X77595337Y-157111732D01*
X78239944Y-157609474D02*
X78525656Y-157608472D01*
X78668262Y-157536542D01*
X78739440Y-157464864D01*
X78881544Y-157250078D01*
X78951970Y-156964115D01*
X78949966Y-156392690D01*
X78878037Y-156250084D01*
X78806358Y-156178907D01*
X78663251Y-156107980D01*
X78377539Y-156108982D01*
X78234933Y-156180911D01*
X78163755Y-156252590D01*
X78092828Y-156395697D01*
X78094081Y-156752837D01*
X78166010Y-156895443D01*
X78237689Y-156966621D01*
X78380796Y-157037548D01*
X78666508Y-157036546D01*
X78809114Y-156964616D01*
X78880291Y-156892938D01*
X78951218Y-156749831D01*
X79668506Y-157604463D02*
X79954219Y-157603461D01*
X80096825Y-157531532D01*
X80168002Y-157459853D01*
X80310107Y-157245068D01*
X80380533Y-156959104D01*
X80378528Y-156387679D01*
X80306599Y-156245074D01*
X80234921Y-156173896D01*
X80091814Y-156102969D01*
X79806101Y-156103971D01*
X79663495Y-156175900D01*
X79592318Y-156247579D01*
X79521391Y-156390686D01*
X79522644Y-156747827D01*
X79594573Y-156890432D01*
X79666251Y-156961610D01*
X79809358Y-157032537D01*
X80095071Y-157031535D01*
X80237676Y-156959606D01*
X80308854Y-156887927D01*
X80379781Y-156744820D01*
X82168491Y-157595694D02*
X82164983Y-156595700D01*
X82165484Y-156738557D02*
X82236662Y-156666878D01*
X82379268Y-156594949D01*
X82593552Y-156594197D01*
X82736659Y-156665124D01*
X82808588Y-156807730D01*
X82811344Y-157593439D01*
X82808588Y-156807730D02*
X82879515Y-156664623D01*
X83022121Y-156592694D01*
X83236405Y-156591942D01*
X83379512Y-156662869D01*
X83451441Y-156805475D01*
X83454197Y-157591184D01*
X84168479Y-157588679D02*
X84164971Y-156588685D01*
X84165472Y-156731541D02*
X84236650Y-156659863D01*
X84379255Y-156587934D01*
X84593540Y-156587182D01*
X84736647Y-156658109D01*
X84808576Y-156800715D01*
X84811332Y-157586424D01*
X84808576Y-156800715D02*
X84879503Y-156657608D01*
X85022109Y-156585679D01*
X85236393Y-156584927D01*
X85379500Y-156655854D01*
X85451429Y-156798460D01*
X85454185Y-157584169D01*
X30052614Y-154999908D02*
X128550626Y-154654417D01*
X30000000Y-140000000D02*
X30054670Y-155586325D01*
X128498012Y-139654509D02*
X128552682Y-155240834D01*
X128550626Y-154654417D02*
X127426186Y-155244785D01*
X128550626Y-154654417D02*
X127422072Y-154071951D01*
X30052614Y-154999908D02*
X31181168Y-155582374D01*
X30052614Y-154999908D02*
X31177054Y-154409540D01*
D11*
G04 #@! TO.C,D1*
X91370000Y-47470000D02*
G75*
G02X91370000Y-52590000I0J-2560000D01*
G01*
X85080000Y-48760000D02*
X85080000Y-48760000D01*
X85210000Y-48760000D02*
X85080000Y-48760000D01*
X85210000Y-48760000D02*
X85210000Y-48760000D01*
X85080000Y-48760000D02*
X85210000Y-48760000D01*
X85080000Y-51300000D02*
X85080000Y-51300000D01*
X85210000Y-51300000D02*
X85080000Y-51300000D01*
X85210000Y-51300000D02*
X85210000Y-51300000D01*
X85080000Y-51300000D02*
X85210000Y-51300000D01*
X85210000Y-47470000D02*
X85210000Y-47070000D01*
X86330000Y-47470000D02*
X85210000Y-47470000D01*
X86330000Y-47070000D02*
X86330000Y-47470000D01*
X85210000Y-47070000D02*
X86330000Y-47070000D01*
X85210000Y-52590000D02*
X85210000Y-47470000D01*
X85210000Y-47470000D02*
X91370000Y-47470000D01*
X85210000Y-52590000D02*
X91370000Y-52590000D01*
G04 #@! TO.C,D2*
X116290000Y-84790000D02*
X116290000Y-78630000D01*
X111170000Y-84790000D02*
X111170000Y-78630000D01*
X116290000Y-84790000D02*
X111170000Y-84790000D01*
X110770000Y-84790000D02*
X110770000Y-83670000D01*
X110770000Y-83670000D02*
X111170000Y-83670000D01*
X111170000Y-83670000D02*
X111170000Y-84790000D01*
X111170000Y-84790000D02*
X110770000Y-84790000D01*
X115000000Y-84920000D02*
X115000000Y-84790000D01*
X115000000Y-84790000D02*
X115000000Y-84790000D01*
X115000000Y-84790000D02*
X115000000Y-84920000D01*
X115000000Y-84920000D02*
X115000000Y-84920000D01*
X112460000Y-84920000D02*
X112460000Y-84790000D01*
X112460000Y-84790000D02*
X112460000Y-84790000D01*
X112460000Y-84790000D02*
X112460000Y-84920000D01*
X112460000Y-84920000D02*
X112460000Y-84920000D01*
X111170000Y-78630000D02*
G75*
G02X116290000Y-78630000I2560000J0D01*
G01*
G04 #@! TO.C,D3*
X97067767Y-76456569D02*
X101423545Y-72100791D01*
X93447380Y-72836182D02*
X97803158Y-68480404D01*
X97067767Y-76456569D02*
X93447380Y-72836182D01*
X93164538Y-72553339D02*
X93956497Y-71761380D01*
X93956497Y-71761380D02*
X94239340Y-72044222D01*
X94239340Y-72044222D02*
X93447380Y-72836182D01*
X93447380Y-72836182D02*
X93164538Y-72553339D01*
X96063675Y-75636325D02*
X96155599Y-75544401D01*
X96155599Y-75544401D02*
X96155599Y-75544401D01*
X96155599Y-75544401D02*
X96063675Y-75636325D01*
X96063675Y-75636325D02*
X96063675Y-75636325D01*
X94267624Y-73840273D02*
X94359548Y-73748350D01*
X94359548Y-73748350D02*
X94359548Y-73748350D01*
X94359548Y-73748350D02*
X94267624Y-73840273D01*
X94267624Y-73840273D02*
X94267624Y-73840273D01*
X97803157Y-68480403D02*
G75*
G02X101423545Y-72100791I1810194J-1810194D01*
G01*
G04 #@! TO.C,D4*
X115830000Y-101470000D02*
G75*
G02X110710000Y-101470000I-2560000J0D01*
G01*
X114540000Y-95180000D02*
X114540000Y-95180000D01*
X114540000Y-95310000D02*
X114540000Y-95180000D01*
X114540000Y-95310000D02*
X114540000Y-95310000D01*
X114540000Y-95180000D02*
X114540000Y-95310000D01*
X112000000Y-95180000D02*
X112000000Y-95180000D01*
X112000000Y-95310000D02*
X112000000Y-95180000D01*
X112000000Y-95310000D02*
X112000000Y-95310000D01*
X112000000Y-95180000D02*
X112000000Y-95310000D01*
X115830000Y-95310000D02*
X116230000Y-95310000D01*
X115830000Y-96430000D02*
X115830000Y-95310000D01*
X116230000Y-96430000D02*
X115830000Y-96430000D01*
X116230000Y-95310000D02*
X116230000Y-96430000D01*
X110710000Y-95310000D02*
X115830000Y-95310000D01*
X115830000Y-95310000D02*
X115830000Y-101470000D01*
X110710000Y-95310000D02*
X110710000Y-101470000D01*
G04 #@! TO.C,D5*
X117370000Y-78630000D02*
G75*
G02X122490000Y-78630000I2560000J0D01*
G01*
X118660000Y-84920000D02*
X118660000Y-84920000D01*
X118660000Y-84790000D02*
X118660000Y-84920000D01*
X118660000Y-84790000D02*
X118660000Y-84790000D01*
X118660000Y-84920000D02*
X118660000Y-84790000D01*
X121200000Y-84920000D02*
X121200000Y-84920000D01*
X121200000Y-84790000D02*
X121200000Y-84920000D01*
X121200000Y-84790000D02*
X121200000Y-84790000D01*
X121200000Y-84920000D02*
X121200000Y-84790000D01*
X117370000Y-84790000D02*
X116970000Y-84790000D01*
X117370000Y-83670000D02*
X117370000Y-84790000D01*
X116970000Y-83670000D02*
X117370000Y-83670000D01*
X116970000Y-84790000D02*
X116970000Y-83670000D01*
X122490000Y-84790000D02*
X117370000Y-84790000D01*
X117370000Y-84790000D02*
X117370000Y-78630000D01*
X122490000Y-84790000D02*
X122490000Y-78630000D01*
G04 #@! TO.C,D6*
X89118431Y-111842767D02*
X93474209Y-116198545D01*
X92738818Y-108222380D02*
X97094596Y-112578158D01*
X89118431Y-111842767D02*
X92738818Y-108222380D01*
X93021661Y-107939538D02*
X93813620Y-108731497D01*
X93813620Y-108731497D02*
X93530778Y-109014340D01*
X93530778Y-109014340D02*
X92738818Y-108222380D01*
X92738818Y-108222380D02*
X93021661Y-107939538D01*
X89938675Y-110838675D02*
X90030599Y-110930599D01*
X90030599Y-110930599D02*
X90030599Y-110930599D01*
X90030599Y-110930599D02*
X89938675Y-110838675D01*
X89938675Y-110838675D02*
X89938675Y-110838675D01*
X91734727Y-109042624D02*
X91826650Y-109134548D01*
X91826650Y-109134548D02*
X91826650Y-109134548D01*
X91826650Y-109134548D02*
X91734727Y-109042624D01*
X91734727Y-109042624D02*
X91734727Y-109042624D01*
X97094597Y-112578157D02*
G75*
G02X93474209Y-116198545I-1810194J-1810194D01*
G01*
G04 #@! TO.C,D7*
X117360000Y-95310000D02*
X117360000Y-101470000D01*
X122480000Y-95310000D02*
X122480000Y-101470000D01*
X117360000Y-95310000D02*
X122480000Y-95310000D01*
X122880000Y-95310000D02*
X122880000Y-96430000D01*
X122880000Y-96430000D02*
X122480000Y-96430000D01*
X122480000Y-96430000D02*
X122480000Y-95310000D01*
X122480000Y-95310000D02*
X122880000Y-95310000D01*
X118650000Y-95180000D02*
X118650000Y-95310000D01*
X118650000Y-95310000D02*
X118650000Y-95310000D01*
X118650000Y-95310000D02*
X118650000Y-95180000D01*
X118650000Y-95180000D02*
X118650000Y-95180000D01*
X121190000Y-95180000D02*
X121190000Y-95310000D01*
X121190000Y-95310000D02*
X121190000Y-95310000D01*
X121190000Y-95310000D02*
X121190000Y-95180000D01*
X121190000Y-95180000D02*
X121190000Y-95180000D01*
X122480000Y-101470000D02*
G75*
G02X117360000Y-101470000I-2560000J0D01*
G01*
G04 #@! TO.C,D9*
X101669597Y-108003157D02*
G75*
G02X98049209Y-111623545I-1810194J-1810194D01*
G01*
X96309727Y-104467624D02*
X96309727Y-104467624D01*
X96401650Y-104559548D02*
X96309727Y-104467624D01*
X96401650Y-104559548D02*
X96401650Y-104559548D01*
X96309727Y-104467624D02*
X96401650Y-104559548D01*
X94513675Y-106263675D02*
X94513675Y-106263675D01*
X94605599Y-106355599D02*
X94513675Y-106263675D01*
X94605599Y-106355599D02*
X94605599Y-106355599D01*
X94513675Y-106263675D02*
X94605599Y-106355599D01*
X97313818Y-103647380D02*
X97596661Y-103364538D01*
X98105778Y-104439340D02*
X97313818Y-103647380D01*
X98388620Y-104156497D02*
X98105778Y-104439340D01*
X97596661Y-103364538D02*
X98388620Y-104156497D01*
X93693431Y-107267767D02*
X97313818Y-103647380D01*
X97313818Y-103647380D02*
X101669596Y-108003158D01*
X93693431Y-107267767D02*
X98049209Y-111623545D01*
G04 #@! TO.C,D10*
X85210000Y-126290000D02*
X91370000Y-126290000D01*
X85210000Y-121170000D02*
X91370000Y-121170000D01*
X85210000Y-126290000D02*
X85210000Y-121170000D01*
X85210000Y-120770000D02*
X86330000Y-120770000D01*
X86330000Y-120770000D02*
X86330000Y-121170000D01*
X86330000Y-121170000D02*
X85210000Y-121170000D01*
X85210000Y-121170000D02*
X85210000Y-120770000D01*
X85080000Y-125000000D02*
X85210000Y-125000000D01*
X85210000Y-125000000D02*
X85210000Y-125000000D01*
X85210000Y-125000000D02*
X85080000Y-125000000D01*
X85080000Y-125000000D02*
X85080000Y-125000000D01*
X85080000Y-122460000D02*
X85210000Y-122460000D01*
X85210000Y-122460000D02*
X85210000Y-122460000D01*
X85210000Y-122460000D02*
X85080000Y-122460000D01*
X85080000Y-122460000D02*
X85080000Y-122460000D01*
X91370000Y-121170000D02*
G75*
G02X91370000Y-126290000I0J-2560000D01*
G01*
G04 #@! TO.C,D11*
X85260000Y-132590000D02*
X91420000Y-132590000D01*
X85260000Y-127470000D02*
X91420000Y-127470000D01*
X85260000Y-132590000D02*
X85260000Y-127470000D01*
X85260000Y-127070000D02*
X86380000Y-127070000D01*
X86380000Y-127070000D02*
X86380000Y-127470000D01*
X86380000Y-127470000D02*
X85260000Y-127470000D01*
X85260000Y-127470000D02*
X85260000Y-127070000D01*
X85130000Y-131300000D02*
X85260000Y-131300000D01*
X85260000Y-131300000D02*
X85260000Y-131300000D01*
X85260000Y-131300000D02*
X85130000Y-131300000D01*
X85130000Y-131300000D02*
X85130000Y-131300000D01*
X85130000Y-128760000D02*
X85260000Y-128760000D01*
X85260000Y-128760000D02*
X85260000Y-128760000D01*
X85260000Y-128760000D02*
X85130000Y-128760000D01*
X85130000Y-128760000D02*
X85130000Y-128760000D01*
X91420000Y-127470000D02*
G75*
G02X91420000Y-132590000I0J-2560000D01*
G01*
G04 #@! TO.C,D12*
X92492767Y-71881569D02*
X96848545Y-67525791D01*
X88872380Y-68261182D02*
X93228158Y-63905404D01*
X92492767Y-71881569D02*
X88872380Y-68261182D01*
X88589538Y-67978339D02*
X89381497Y-67186380D01*
X89381497Y-67186380D02*
X89664340Y-67469222D01*
X89664340Y-67469222D02*
X88872380Y-68261182D01*
X88872380Y-68261182D02*
X88589538Y-67978339D01*
X91488675Y-71061325D02*
X91580599Y-70969401D01*
X91580599Y-70969401D02*
X91580599Y-70969401D01*
X91580599Y-70969401D02*
X91488675Y-71061325D01*
X91488675Y-71061325D02*
X91488675Y-71061325D01*
X89692624Y-69265273D02*
X89784548Y-69173350D01*
X89784548Y-69173350D02*
X89784548Y-69173350D01*
X89784548Y-69173350D02*
X89692624Y-69265273D01*
X89692624Y-69265273D02*
X89692624Y-69265273D01*
X93228157Y-63905403D02*
G75*
G02X96848545Y-67525791I1810194J-1810194D01*
G01*
G04 #@! TO.C,D13*
X91370000Y-54170000D02*
G75*
G02X91370000Y-59290000I0J-2560000D01*
G01*
X85080000Y-55460000D02*
X85080000Y-55460000D01*
X85210000Y-55460000D02*
X85080000Y-55460000D01*
X85210000Y-55460000D02*
X85210000Y-55460000D01*
X85080000Y-55460000D02*
X85210000Y-55460000D01*
X85080000Y-58000000D02*
X85080000Y-58000000D01*
X85210000Y-58000000D02*
X85080000Y-58000000D01*
X85210000Y-58000000D02*
X85210000Y-58000000D01*
X85080000Y-58000000D02*
X85210000Y-58000000D01*
X85210000Y-54170000D02*
X85210000Y-53770000D01*
X86330000Y-54170000D02*
X85210000Y-54170000D01*
X86330000Y-53770000D02*
X86330000Y-54170000D01*
X85210000Y-53770000D02*
X86330000Y-53770000D01*
X85210000Y-59290000D02*
X85210000Y-54170000D01*
X85210000Y-54170000D02*
X91370000Y-54170000D01*
X85210000Y-59290000D02*
X91370000Y-59290000D01*
G04 #@! TO.C,R1*
X81540000Y-73000000D02*
X80770000Y-73000000D01*
X73460000Y-73000000D02*
X74230000Y-73000000D01*
X80770000Y-71630000D02*
X74230000Y-71630000D01*
X80770000Y-74370000D02*
X80770000Y-71630000D01*
X74230000Y-74370000D02*
X80770000Y-74370000D01*
X74230000Y-71630000D02*
X74230000Y-74370000D01*
G04 #@! TO.C,R2*
X73460000Y-85000000D02*
X74230000Y-85000000D01*
X81540000Y-85000000D02*
X80770000Y-85000000D01*
X74230000Y-86370000D02*
X80770000Y-86370000D01*
X74230000Y-83630000D02*
X74230000Y-86370000D01*
X80770000Y-83630000D02*
X74230000Y-83630000D01*
X80770000Y-86370000D02*
X80770000Y-83630000D01*
G04 #@! TO.C,R3*
X74230000Y-80630000D02*
X74230000Y-83370000D01*
X74230000Y-83370000D02*
X80770000Y-83370000D01*
X80770000Y-83370000D02*
X80770000Y-80630000D01*
X80770000Y-80630000D02*
X74230000Y-80630000D01*
X73460000Y-82000000D02*
X74230000Y-82000000D01*
X81540000Y-82000000D02*
X80770000Y-82000000D01*
G04 #@! TO.C,R4*
X80770000Y-96370000D02*
X80770000Y-93630000D01*
X80770000Y-93630000D02*
X74230000Y-93630000D01*
X74230000Y-93630000D02*
X74230000Y-96370000D01*
X74230000Y-96370000D02*
X80770000Y-96370000D01*
X81540000Y-95000000D02*
X80770000Y-95000000D01*
X73460000Y-95000000D02*
X74230000Y-95000000D01*
G04 #@! TO.C,R5*
X74230000Y-86630000D02*
X74230000Y-89370000D01*
X74230000Y-89370000D02*
X80770000Y-89370000D01*
X80770000Y-89370000D02*
X80770000Y-86630000D01*
X80770000Y-86630000D02*
X74230000Y-86630000D01*
X73460000Y-88000000D02*
X74230000Y-88000000D01*
X81540000Y-88000000D02*
X80770000Y-88000000D01*
G04 #@! TO.C,R6*
X73460000Y-101000000D02*
X74230000Y-101000000D01*
X81540000Y-101000000D02*
X80770000Y-101000000D01*
X74230000Y-102370000D02*
X80770000Y-102370000D01*
X74230000Y-99630000D02*
X74230000Y-102370000D01*
X80770000Y-99630000D02*
X74230000Y-99630000D01*
X80770000Y-102370000D02*
X80770000Y-99630000D01*
G04 #@! TO.C,R7*
X81540000Y-92000000D02*
X80770000Y-92000000D01*
X73460000Y-92000000D02*
X74230000Y-92000000D01*
X80770000Y-90630000D02*
X74230000Y-90630000D01*
X80770000Y-93370000D02*
X80770000Y-90630000D01*
X74230000Y-93370000D02*
X80770000Y-93370000D01*
X74230000Y-90630000D02*
X74230000Y-93370000D01*
G04 #@! TO.C,R9*
X74230000Y-96630000D02*
X74230000Y-99370000D01*
X74230000Y-99370000D02*
X80770000Y-99370000D01*
X80770000Y-99370000D02*
X80770000Y-96630000D01*
X80770000Y-96630000D02*
X74230000Y-96630000D01*
X73460000Y-98000000D02*
X74230000Y-98000000D01*
X81540000Y-98000000D02*
X80770000Y-98000000D01*
G04 #@! TO.C,R10*
X73460000Y-104000000D02*
X74230000Y-104000000D01*
X81540000Y-104000000D02*
X80770000Y-104000000D01*
X74230000Y-105370000D02*
X80770000Y-105370000D01*
X74230000Y-102630000D02*
X74230000Y-105370000D01*
X80770000Y-102630000D02*
X74230000Y-102630000D01*
X80770000Y-105370000D02*
X80770000Y-102630000D01*
G04 #@! TO.C,R11*
X81540000Y-107000000D02*
X80770000Y-107000000D01*
X73460000Y-107000000D02*
X74230000Y-107000000D01*
X80770000Y-105630000D02*
X74230000Y-105630000D01*
X80770000Y-108370000D02*
X80770000Y-105630000D01*
X74230000Y-108370000D02*
X80770000Y-108370000D01*
X74230000Y-105630000D02*
X74230000Y-108370000D01*
G04 #@! TO.C,R12*
X80770000Y-80370000D02*
X80770000Y-77630000D01*
X80770000Y-77630000D02*
X74230000Y-77630000D01*
X74230000Y-77630000D02*
X74230000Y-80370000D01*
X74230000Y-80370000D02*
X80770000Y-80370000D01*
X81540000Y-79000000D02*
X80770000Y-79000000D01*
X73460000Y-79000000D02*
X74230000Y-79000000D01*
G04 #@! TO.C,R13*
X80770000Y-77370000D02*
X80770000Y-74630000D01*
X80770000Y-74630000D02*
X74230000Y-74630000D01*
X74230000Y-74630000D02*
X74230000Y-77370000D01*
X74230000Y-77370000D02*
X80770000Y-77370000D01*
X81540000Y-76000000D02*
X80770000Y-76000000D01*
X73460000Y-76000000D02*
X74230000Y-76000000D01*
G04 #@! TO.C,BT1*
X64670000Y-92870000D02*
X67330000Y-92870000D01*
X64670000Y-90270000D02*
X64670000Y-92870000D01*
X67330000Y-90270000D02*
X67330000Y-92870000D01*
X64670000Y-90270000D02*
X67330000Y-90270000D01*
X64670000Y-89000000D02*
X64670000Y-87670000D01*
X64670000Y-87670000D02*
X66000000Y-87670000D01*
D12*
G04 #@! TO.C,JP1*
X38000000Y-50500000D02*
X50000000Y-50500000D01*
X50000000Y-50500000D02*
X50000000Y-62500000D01*
X38000000Y-62500000D02*
X50000000Y-62500000D01*
X38000000Y-50500000D02*
X38000000Y-62500000D01*
X52000000Y-53500000D02*
G75*
G02X52000000Y-62500000I0J-4500000D01*
G01*
X36000000Y-62500000D02*
G75*
G02X36000000Y-53500000I0J4500000D01*
G01*
X52001000Y-50505600D02*
X35999000Y-50505600D01*
X52001000Y-62494400D02*
X35999000Y-62494400D01*
X52000000Y-50500000D02*
X52000000Y-53500000D01*
X36000000Y-53500000D02*
X36000000Y-50500000D01*
G04 #@! TO.C,JP2*
X53000000Y-126500000D02*
X53000000Y-129500000D01*
X37000000Y-129500000D02*
X37000000Y-126500000D01*
X36999000Y-117505600D02*
X53001000Y-117505600D01*
X36999000Y-129494400D02*
X53001000Y-129494400D01*
X53000000Y-117500000D02*
G75*
G02X53000000Y-126500000I0J-4500000D01*
G01*
X37000000Y-126500000D02*
G75*
G02X37000000Y-117500000I0J4500000D01*
G01*
X51000000Y-129500000D02*
X51000000Y-117500000D01*
X51000000Y-117500000D02*
X39000000Y-117500000D01*
X39000000Y-129500000D02*
X39000000Y-117500000D01*
X51000000Y-129500000D02*
X39000000Y-129500000D01*
G04 #@! TO.C,JP3*
X186925400Y-70574000D02*
X263074600Y-70574000D01*
X186925400Y-29400600D02*
X186925400Y-70574000D01*
X263074600Y-29426000D02*
X186925400Y-29400600D01*
X263074600Y-70574000D02*
X263074600Y-29426000D01*
D11*
G04 #@! TO.C,M1*
X64670000Y-78870000D02*
X67330000Y-78870000D01*
X64670000Y-76270000D02*
X64670000Y-78870000D01*
X67330000Y-76270000D02*
X67330000Y-78870000D01*
X64670000Y-76270000D02*
X67330000Y-76270000D01*
X64670000Y-75000000D02*
X64670000Y-73670000D01*
X64670000Y-73670000D02*
X66000000Y-73670000D01*
G04 #@! TO.C,M2*
X67330000Y-106330000D02*
X66000000Y-106330000D01*
X67330000Y-105000000D02*
X67330000Y-106330000D01*
X67330000Y-103730000D02*
X64670000Y-103730000D01*
X64670000Y-103730000D02*
X64670000Y-101130000D01*
X67330000Y-103730000D02*
X67330000Y-101130000D01*
X67330000Y-101130000D02*
X64670000Y-101130000D01*
D12*
G04 #@! TO.C,U1*
X103310000Y-91651000D02*
X103310000Y-82380000D01*
X95690000Y-91651000D02*
X103310000Y-91651000D01*
X95690000Y-82380000D02*
X95690000Y-91651000D01*
X103310000Y-82380000D02*
X95690000Y-82380000D01*
X90356000Y-100414000D02*
X108644000Y-100414000D01*
X108644000Y-100414000D02*
X108644000Y-79586000D01*
X108644000Y-79586000D02*
X90356000Y-79586000D01*
X90356000Y-79586000D02*
X90356000Y-100414000D01*
D11*
G04 #@! TO.C,A1*
X68480000Y-112990000D02*
X86520000Y-112990000D01*
X68480000Y-69550000D02*
X68480000Y-112990000D01*
X86520000Y-69550000D02*
X68480000Y-69550000D01*
X83850000Y-72220000D02*
X86520000Y-72220000D01*
X83850000Y-107780000D02*
X83850000Y-72220000D01*
X83850000Y-107780000D02*
X86520000Y-107780000D01*
X71150000Y-72220000D02*
X68480000Y-72220000D01*
X71150000Y-110320000D02*
X71150000Y-72220000D01*
X71150000Y-110320000D02*
X68480000Y-110320000D01*
X86520000Y-112990000D02*
X86520000Y-110320000D01*
X86520000Y-107780000D02*
X86520000Y-69550000D01*
X83850000Y-110320000D02*
X86520000Y-110320000D01*
X83850000Y-107780000D02*
X83850000Y-110320000D01*
D12*
G04 #@! TO.C,J1*
X29922500Y-91968000D02*
X29922500Y-94268000D01*
X29922500Y-85668000D02*
X29922500Y-87868000D01*
X34522500Y-85668000D02*
X34522500Y-94268000D01*
G04 #@! TO.C,D1*
X82492380Y-50768095D02*
X81492380Y-50768095D01*
X81492380Y-50530000D01*
X81540000Y-50387142D01*
X81635238Y-50291904D01*
X81730476Y-50244285D01*
X81920952Y-50196666D01*
X82063809Y-50196666D01*
X82254285Y-50244285D01*
X82349523Y-50291904D01*
X82444761Y-50387142D01*
X82492380Y-50530000D01*
X82492380Y-50768095D01*
X82492380Y-49244285D02*
X82492380Y-49815714D01*
X82492380Y-49530000D02*
X81492380Y-49530000D01*
X81635238Y-49625238D01*
X81730476Y-49720476D01*
X81778095Y-49815714D01*
G04 #@! TO.C,D2*
X112991904Y-88412380D02*
X112991904Y-87412380D01*
X113230000Y-87412380D01*
X113372857Y-87460000D01*
X113468095Y-87555238D01*
X113515714Y-87650476D01*
X113563333Y-87840952D01*
X113563333Y-87983809D01*
X113515714Y-88174285D01*
X113468095Y-88269523D01*
X113372857Y-88364761D01*
X113230000Y-88412380D01*
X112991904Y-88412380D01*
X113944285Y-87507619D02*
X113991904Y-87460000D01*
X114087142Y-87412380D01*
X114325238Y-87412380D01*
X114420476Y-87460000D01*
X114468095Y-87507619D01*
X114515714Y-87602857D01*
X114515714Y-87698095D01*
X114468095Y-87840952D01*
X113896666Y-88412380D01*
X114515714Y-88412380D01*
G04 #@! TO.C,D3*
X92174251Y-76685873D02*
X92881357Y-75978766D01*
X93049716Y-76147125D01*
X93117060Y-76281812D01*
X93117060Y-76416499D01*
X93083388Y-76517514D01*
X92982373Y-76685873D01*
X92881357Y-76786888D01*
X92712999Y-76887904D01*
X92611983Y-76921575D01*
X92477296Y-76921575D01*
X92342609Y-76854232D01*
X92174251Y-76685873D01*
X93521121Y-76618529D02*
X93958854Y-77056262D01*
X93453777Y-77089934D01*
X93554793Y-77190949D01*
X93588464Y-77291965D01*
X93588464Y-77359308D01*
X93554793Y-77460323D01*
X93386434Y-77628682D01*
X93285419Y-77662354D01*
X93218075Y-77662354D01*
X93117060Y-77628682D01*
X92915029Y-77426652D01*
X92881357Y-77325636D01*
X92881357Y-77258293D01*
G04 #@! TO.C,D4*
X112531904Y-92592380D02*
X112531904Y-91592380D01*
X112770000Y-91592380D01*
X112912857Y-91640000D01*
X113008095Y-91735238D01*
X113055714Y-91830476D01*
X113103333Y-92020952D01*
X113103333Y-92163809D01*
X113055714Y-92354285D01*
X113008095Y-92449523D01*
X112912857Y-92544761D01*
X112770000Y-92592380D01*
X112531904Y-92592380D01*
X113960476Y-91925714D02*
X113960476Y-92592380D01*
X113722380Y-91544761D02*
X113484285Y-92259047D01*
X114103333Y-92259047D01*
G04 #@! TO.C,D5*
X119191904Y-88412380D02*
X119191904Y-87412380D01*
X119430000Y-87412380D01*
X119572857Y-87460000D01*
X119668095Y-87555238D01*
X119715714Y-87650476D01*
X119763333Y-87840952D01*
X119763333Y-87983809D01*
X119715714Y-88174285D01*
X119668095Y-88269523D01*
X119572857Y-88364761D01*
X119430000Y-88412380D01*
X119191904Y-88412380D01*
X120668095Y-87412380D02*
X120191904Y-87412380D01*
X120144285Y-87888571D01*
X120191904Y-87840952D01*
X120287142Y-87793333D01*
X120525238Y-87793333D01*
X120620476Y-87840952D01*
X120668095Y-87888571D01*
X120715714Y-87983809D01*
X120715714Y-88221904D01*
X120668095Y-88317142D01*
X120620476Y-88364761D01*
X120525238Y-88412380D01*
X120287142Y-88412380D01*
X120191904Y-88364761D01*
X120144285Y-88317142D01*
G04 #@! TO.C,D6*
X88485065Y-108632838D02*
X87777958Y-107925732D01*
X87946317Y-107757373D01*
X88081004Y-107690029D01*
X88215691Y-107690029D01*
X88316706Y-107723701D01*
X88485065Y-107824716D01*
X88586080Y-107925732D01*
X88687096Y-108094090D01*
X88720767Y-108195106D01*
X88720767Y-108329793D01*
X88653424Y-108464480D01*
X88485065Y-108632838D01*
X88788111Y-106915579D02*
X88653424Y-107050266D01*
X88619752Y-107151281D01*
X88619752Y-107218625D01*
X88653424Y-107386983D01*
X88754439Y-107555342D01*
X89023813Y-107824716D01*
X89124828Y-107858388D01*
X89192172Y-107858388D01*
X89293187Y-107824716D01*
X89427874Y-107690029D01*
X89461546Y-107589014D01*
X89461546Y-107521670D01*
X89427874Y-107420655D01*
X89259515Y-107252296D01*
X89158500Y-107218625D01*
X89091157Y-107218625D01*
X88990141Y-107252296D01*
X88855454Y-107386983D01*
X88821783Y-107487999D01*
X88821783Y-107555342D01*
X88855454Y-107656357D01*
G04 #@! TO.C,D7*
X119181904Y-92592380D02*
X119181904Y-91592380D01*
X119420000Y-91592380D01*
X119562857Y-91640000D01*
X119658095Y-91735238D01*
X119705714Y-91830476D01*
X119753333Y-92020952D01*
X119753333Y-92163809D01*
X119705714Y-92354285D01*
X119658095Y-92449523D01*
X119562857Y-92544761D01*
X119420000Y-92592380D01*
X119181904Y-92592380D01*
X120086666Y-91592380D02*
X120753333Y-91592380D01*
X120324761Y-92592380D01*
G04 #@! TO.C,D9*
X93060065Y-104057838D02*
X92352958Y-103350732D01*
X92521317Y-103182373D01*
X92656004Y-103115029D01*
X92790691Y-103115029D01*
X92891706Y-103148701D01*
X93060065Y-103249716D01*
X93161080Y-103350732D01*
X93262096Y-103519090D01*
X93295767Y-103620106D01*
X93295767Y-103754793D01*
X93228424Y-103889480D01*
X93060065Y-104057838D01*
X93800844Y-103317060D02*
X93935531Y-103182373D01*
X93969202Y-103081357D01*
X93969202Y-103014014D01*
X93935531Y-102845655D01*
X93834515Y-102677296D01*
X93565141Y-102407922D01*
X93464126Y-102374251D01*
X93396783Y-102374251D01*
X93295767Y-102407922D01*
X93161080Y-102542609D01*
X93127408Y-102643625D01*
X93127408Y-102710968D01*
X93161080Y-102811983D01*
X93329439Y-102980342D01*
X93430454Y-103014014D01*
X93497798Y-103014014D01*
X93598813Y-102980342D01*
X93733500Y-102845655D01*
X93767172Y-102744640D01*
X93767172Y-102677296D01*
X93733500Y-102576281D01*
G04 #@! TO.C,D10*
X82492380Y-124944285D02*
X81492380Y-124944285D01*
X81492380Y-124706190D01*
X81540000Y-124563333D01*
X81635238Y-124468095D01*
X81730476Y-124420476D01*
X81920952Y-124372857D01*
X82063809Y-124372857D01*
X82254285Y-124420476D01*
X82349523Y-124468095D01*
X82444761Y-124563333D01*
X82492380Y-124706190D01*
X82492380Y-124944285D01*
X82492380Y-123420476D02*
X82492380Y-123991904D01*
X82492380Y-123706190D02*
X81492380Y-123706190D01*
X81635238Y-123801428D01*
X81730476Y-123896666D01*
X81778095Y-123991904D01*
X81492380Y-122801428D02*
X81492380Y-122706190D01*
X81540000Y-122610952D01*
X81587619Y-122563333D01*
X81682857Y-122515714D01*
X81873333Y-122468095D01*
X82111428Y-122468095D01*
X82301904Y-122515714D01*
X82397142Y-122563333D01*
X82444761Y-122610952D01*
X82492380Y-122706190D01*
X82492380Y-122801428D01*
X82444761Y-122896666D01*
X82397142Y-122944285D01*
X82301904Y-122991904D01*
X82111428Y-123039523D01*
X81873333Y-123039523D01*
X81682857Y-122991904D01*
X81587619Y-122944285D01*
X81540000Y-122896666D01*
X81492380Y-122801428D01*
G04 #@! TO.C,D11*
X82542380Y-131244285D02*
X81542380Y-131244285D01*
X81542380Y-131006190D01*
X81590000Y-130863333D01*
X81685238Y-130768095D01*
X81780476Y-130720476D01*
X81970952Y-130672857D01*
X82113809Y-130672857D01*
X82304285Y-130720476D01*
X82399523Y-130768095D01*
X82494761Y-130863333D01*
X82542380Y-131006190D01*
X82542380Y-131244285D01*
X82542380Y-129720476D02*
X82542380Y-130291904D01*
X82542380Y-130006190D02*
X81542380Y-130006190D01*
X81685238Y-130101428D01*
X81780476Y-130196666D01*
X81828095Y-130291904D01*
X82542380Y-128768095D02*
X82542380Y-129339523D01*
X82542380Y-129053809D02*
X81542380Y-129053809D01*
X81685238Y-129149047D01*
X81780476Y-129244285D01*
X81828095Y-129339523D01*
G04 #@! TO.C,D12*
X87262533Y-71774155D02*
X87969640Y-71067049D01*
X88137999Y-71235407D01*
X88205342Y-71370094D01*
X88205342Y-71504781D01*
X88171670Y-71605797D01*
X88070655Y-71774155D01*
X87969640Y-71875171D01*
X87801281Y-71976186D01*
X87700266Y-72009858D01*
X87565579Y-72009858D01*
X87430892Y-71942514D01*
X87262533Y-71774155D01*
X88340029Y-72851652D02*
X87935968Y-72447591D01*
X88137999Y-72649621D02*
X88845106Y-71942514D01*
X88676747Y-71976186D01*
X88542060Y-71976186D01*
X88441045Y-71942514D01*
X89249167Y-72481262D02*
X89316510Y-72481262D01*
X89417525Y-72514934D01*
X89585884Y-72683293D01*
X89619556Y-72784308D01*
X89619556Y-72851652D01*
X89585884Y-72952667D01*
X89518541Y-73020010D01*
X89383854Y-73087354D01*
X88575732Y-73087354D01*
X89013464Y-73525087D01*
G04 #@! TO.C,D13*
X82492380Y-57944285D02*
X81492380Y-57944285D01*
X81492380Y-57706190D01*
X81540000Y-57563333D01*
X81635238Y-57468095D01*
X81730476Y-57420476D01*
X81920952Y-57372857D01*
X82063809Y-57372857D01*
X82254285Y-57420476D01*
X82349523Y-57468095D01*
X82444761Y-57563333D01*
X82492380Y-57706190D01*
X82492380Y-57944285D01*
X82492380Y-56420476D02*
X82492380Y-56991904D01*
X82492380Y-56706190D02*
X81492380Y-56706190D01*
X81635238Y-56801428D01*
X81730476Y-56896666D01*
X81778095Y-56991904D01*
X81492380Y-56087142D02*
X81492380Y-55468095D01*
X81873333Y-55801428D01*
X81873333Y-55658571D01*
X81920952Y-55563333D01*
X81968571Y-55515714D01*
X82063809Y-55468095D01*
X82301904Y-55468095D01*
X82397142Y-55515714D01*
X82444761Y-55563333D01*
X82492380Y-55658571D01*
X82492380Y-55944285D01*
X82444761Y-56039523D01*
X82397142Y-56087142D01*
G04 #@! TO.C,R1*
X77333333Y-73452380D02*
X77000000Y-72976190D01*
X76761904Y-73452380D02*
X76761904Y-72452380D01*
X77142857Y-72452380D01*
X77238095Y-72500000D01*
X77285714Y-72547619D01*
X77333333Y-72642857D01*
X77333333Y-72785714D01*
X77285714Y-72880952D01*
X77238095Y-72928571D01*
X77142857Y-72976190D01*
X76761904Y-72976190D01*
X78285714Y-73452380D02*
X77714285Y-73452380D01*
X78000000Y-73452380D02*
X78000000Y-72452380D01*
X77904761Y-72595238D01*
X77809523Y-72690476D01*
X77714285Y-72738095D01*
G04 #@! TO.C,R2*
X77333333Y-85452380D02*
X77000000Y-84976190D01*
X76761904Y-85452380D02*
X76761904Y-84452380D01*
X77142857Y-84452380D01*
X77238095Y-84500000D01*
X77285714Y-84547619D01*
X77333333Y-84642857D01*
X77333333Y-84785714D01*
X77285714Y-84880952D01*
X77238095Y-84928571D01*
X77142857Y-84976190D01*
X76761904Y-84976190D01*
X77714285Y-84547619D02*
X77761904Y-84500000D01*
X77857142Y-84452380D01*
X78095238Y-84452380D01*
X78190476Y-84500000D01*
X78238095Y-84547619D01*
X78285714Y-84642857D01*
X78285714Y-84738095D01*
X78238095Y-84880952D01*
X77666666Y-85452380D01*
X78285714Y-85452380D01*
G04 #@! TO.C,R3*
X77333333Y-82452380D02*
X77000000Y-81976190D01*
X76761904Y-82452380D02*
X76761904Y-81452380D01*
X77142857Y-81452380D01*
X77238095Y-81500000D01*
X77285714Y-81547619D01*
X77333333Y-81642857D01*
X77333333Y-81785714D01*
X77285714Y-81880952D01*
X77238095Y-81928571D01*
X77142857Y-81976190D01*
X76761904Y-81976190D01*
X77666666Y-81452380D02*
X78285714Y-81452380D01*
X77952380Y-81833333D01*
X78095238Y-81833333D01*
X78190476Y-81880952D01*
X78238095Y-81928571D01*
X78285714Y-82023809D01*
X78285714Y-82261904D01*
X78238095Y-82357142D01*
X78190476Y-82404761D01*
X78095238Y-82452380D01*
X77809523Y-82452380D01*
X77714285Y-82404761D01*
X77666666Y-82357142D01*
G04 #@! TO.C,R4*
X77333333Y-95452380D02*
X77000000Y-94976190D01*
X76761904Y-95452380D02*
X76761904Y-94452380D01*
X77142857Y-94452380D01*
X77238095Y-94500000D01*
X77285714Y-94547619D01*
X77333333Y-94642857D01*
X77333333Y-94785714D01*
X77285714Y-94880952D01*
X77238095Y-94928571D01*
X77142857Y-94976190D01*
X76761904Y-94976190D01*
X78190476Y-94785714D02*
X78190476Y-95452380D01*
X77952380Y-94404761D02*
X77714285Y-95119047D01*
X78333333Y-95119047D01*
G04 #@! TO.C,R5*
X77333333Y-88452380D02*
X77000000Y-87976190D01*
X76761904Y-88452380D02*
X76761904Y-87452380D01*
X77142857Y-87452380D01*
X77238095Y-87500000D01*
X77285714Y-87547619D01*
X77333333Y-87642857D01*
X77333333Y-87785714D01*
X77285714Y-87880952D01*
X77238095Y-87928571D01*
X77142857Y-87976190D01*
X76761904Y-87976190D01*
X78238095Y-87452380D02*
X77761904Y-87452380D01*
X77714285Y-87928571D01*
X77761904Y-87880952D01*
X77857142Y-87833333D01*
X78095238Y-87833333D01*
X78190476Y-87880952D01*
X78238095Y-87928571D01*
X78285714Y-88023809D01*
X78285714Y-88261904D01*
X78238095Y-88357142D01*
X78190476Y-88404761D01*
X78095238Y-88452380D01*
X77857142Y-88452380D01*
X77761904Y-88404761D01*
X77714285Y-88357142D01*
G04 #@! TO.C,R6*
X77333333Y-101452380D02*
X77000000Y-100976190D01*
X76761904Y-101452380D02*
X76761904Y-100452380D01*
X77142857Y-100452380D01*
X77238095Y-100500000D01*
X77285714Y-100547619D01*
X77333333Y-100642857D01*
X77333333Y-100785714D01*
X77285714Y-100880952D01*
X77238095Y-100928571D01*
X77142857Y-100976190D01*
X76761904Y-100976190D01*
X78190476Y-100452380D02*
X78000000Y-100452380D01*
X77904761Y-100500000D01*
X77857142Y-100547619D01*
X77761904Y-100690476D01*
X77714285Y-100880952D01*
X77714285Y-101261904D01*
X77761904Y-101357142D01*
X77809523Y-101404761D01*
X77904761Y-101452380D01*
X78095238Y-101452380D01*
X78190476Y-101404761D01*
X78238095Y-101357142D01*
X78285714Y-101261904D01*
X78285714Y-101023809D01*
X78238095Y-100928571D01*
X78190476Y-100880952D01*
X78095238Y-100833333D01*
X77904761Y-100833333D01*
X77809523Y-100880952D01*
X77761904Y-100928571D01*
X77714285Y-101023809D01*
G04 #@! TO.C,R7*
X77333333Y-92452380D02*
X77000000Y-91976190D01*
X76761904Y-92452380D02*
X76761904Y-91452380D01*
X77142857Y-91452380D01*
X77238095Y-91500000D01*
X77285714Y-91547619D01*
X77333333Y-91642857D01*
X77333333Y-91785714D01*
X77285714Y-91880952D01*
X77238095Y-91928571D01*
X77142857Y-91976190D01*
X76761904Y-91976190D01*
X77666666Y-91452380D02*
X78333333Y-91452380D01*
X77904761Y-92452380D01*
G04 #@! TO.C,R9*
X77333333Y-98452380D02*
X77000000Y-97976190D01*
X76761904Y-98452380D02*
X76761904Y-97452380D01*
X77142857Y-97452380D01*
X77238095Y-97500000D01*
X77285714Y-97547619D01*
X77333333Y-97642857D01*
X77333333Y-97785714D01*
X77285714Y-97880952D01*
X77238095Y-97928571D01*
X77142857Y-97976190D01*
X76761904Y-97976190D01*
X77809523Y-98452380D02*
X78000000Y-98452380D01*
X78095238Y-98404761D01*
X78142857Y-98357142D01*
X78238095Y-98214285D01*
X78285714Y-98023809D01*
X78285714Y-97642857D01*
X78238095Y-97547619D01*
X78190476Y-97500000D01*
X78095238Y-97452380D01*
X77904761Y-97452380D01*
X77809523Y-97500000D01*
X77761904Y-97547619D01*
X77714285Y-97642857D01*
X77714285Y-97880952D01*
X77761904Y-97976190D01*
X77809523Y-98023809D01*
X77904761Y-98071428D01*
X78095238Y-98071428D01*
X78190476Y-98023809D01*
X78238095Y-97976190D01*
X78285714Y-97880952D01*
G04 #@! TO.C,R10*
X76857142Y-104452380D02*
X76523809Y-103976190D01*
X76285714Y-104452380D02*
X76285714Y-103452380D01*
X76666666Y-103452380D01*
X76761904Y-103500000D01*
X76809523Y-103547619D01*
X76857142Y-103642857D01*
X76857142Y-103785714D01*
X76809523Y-103880952D01*
X76761904Y-103928571D01*
X76666666Y-103976190D01*
X76285714Y-103976190D01*
X77809523Y-104452380D02*
X77238095Y-104452380D01*
X77523809Y-104452380D02*
X77523809Y-103452380D01*
X77428571Y-103595238D01*
X77333333Y-103690476D01*
X77238095Y-103738095D01*
X78428571Y-103452380D02*
X78523809Y-103452380D01*
X78619047Y-103500000D01*
X78666666Y-103547619D01*
X78714285Y-103642857D01*
X78761904Y-103833333D01*
X78761904Y-104071428D01*
X78714285Y-104261904D01*
X78666666Y-104357142D01*
X78619047Y-104404761D01*
X78523809Y-104452380D01*
X78428571Y-104452380D01*
X78333333Y-104404761D01*
X78285714Y-104357142D01*
X78238095Y-104261904D01*
X78190476Y-104071428D01*
X78190476Y-103833333D01*
X78238095Y-103642857D01*
X78285714Y-103547619D01*
X78333333Y-103500000D01*
X78428571Y-103452380D01*
G04 #@! TO.C,R11*
X76857142Y-107452380D02*
X76523809Y-106976190D01*
X76285714Y-107452380D02*
X76285714Y-106452380D01*
X76666666Y-106452380D01*
X76761904Y-106500000D01*
X76809523Y-106547619D01*
X76857142Y-106642857D01*
X76857142Y-106785714D01*
X76809523Y-106880952D01*
X76761904Y-106928571D01*
X76666666Y-106976190D01*
X76285714Y-106976190D01*
X77809523Y-107452380D02*
X77238095Y-107452380D01*
X77523809Y-107452380D02*
X77523809Y-106452380D01*
X77428571Y-106595238D01*
X77333333Y-106690476D01*
X77238095Y-106738095D01*
X78761904Y-107452380D02*
X78190476Y-107452380D01*
X78476190Y-107452380D02*
X78476190Y-106452380D01*
X78380952Y-106595238D01*
X78285714Y-106690476D01*
X78190476Y-106738095D01*
G04 #@! TO.C,R12*
X76857142Y-79452380D02*
X76523809Y-78976190D01*
X76285714Y-79452380D02*
X76285714Y-78452380D01*
X76666666Y-78452380D01*
X76761904Y-78500000D01*
X76809523Y-78547619D01*
X76857142Y-78642857D01*
X76857142Y-78785714D01*
X76809523Y-78880952D01*
X76761904Y-78928571D01*
X76666666Y-78976190D01*
X76285714Y-78976190D01*
X77809523Y-79452380D02*
X77238095Y-79452380D01*
X77523809Y-79452380D02*
X77523809Y-78452380D01*
X77428571Y-78595238D01*
X77333333Y-78690476D01*
X77238095Y-78738095D01*
X78190476Y-78547619D02*
X78238095Y-78500000D01*
X78333333Y-78452380D01*
X78571428Y-78452380D01*
X78666666Y-78500000D01*
X78714285Y-78547619D01*
X78761904Y-78642857D01*
X78761904Y-78738095D01*
X78714285Y-78880952D01*
X78142857Y-79452380D01*
X78761904Y-79452380D01*
G04 #@! TO.C,R13*
X76857142Y-76452380D02*
X76523809Y-75976190D01*
X76285714Y-76452380D02*
X76285714Y-75452380D01*
X76666666Y-75452380D01*
X76761904Y-75500000D01*
X76809523Y-75547619D01*
X76857142Y-75642857D01*
X76857142Y-75785714D01*
X76809523Y-75880952D01*
X76761904Y-75928571D01*
X76666666Y-75976190D01*
X76285714Y-75976190D01*
X77809523Y-76452380D02*
X77238095Y-76452380D01*
X77523809Y-76452380D02*
X77523809Y-75452380D01*
X77428571Y-75595238D01*
X77333333Y-75690476D01*
X77238095Y-75738095D01*
X78142857Y-75452380D02*
X78761904Y-75452380D01*
X78428571Y-75833333D01*
X78571428Y-75833333D01*
X78666666Y-75880952D01*
X78714285Y-75928571D01*
X78761904Y-76023809D01*
X78761904Y-76261904D01*
X78714285Y-76357142D01*
X78666666Y-76404761D01*
X78571428Y-76452380D01*
X78285714Y-76452380D01*
X78190476Y-76404761D01*
X78142857Y-76357142D01*
G04 #@! TO.C,BT1*
X62428571Y-90785714D02*
X62476190Y-90642857D01*
X62523809Y-90595238D01*
X62619047Y-90547619D01*
X62761904Y-90547619D01*
X62857142Y-90595238D01*
X62904761Y-90642857D01*
X62952380Y-90738095D01*
X62952380Y-91119047D01*
X61952380Y-91119047D01*
X61952380Y-90785714D01*
X62000000Y-90690476D01*
X62047619Y-90642857D01*
X62142857Y-90595238D01*
X62238095Y-90595238D01*
X62333333Y-90642857D01*
X62380952Y-90690476D01*
X62428571Y-90785714D01*
X62428571Y-91119047D01*
X61952380Y-90261904D02*
X61952380Y-89690476D01*
X62952380Y-89976190D02*
X61952380Y-89976190D01*
X62952380Y-88833333D02*
X62952380Y-89404761D01*
X62952380Y-89119047D02*
X61952380Y-89119047D01*
X62095238Y-89214285D01*
X62190476Y-89309523D01*
X62238095Y-89404761D01*
G04 #@! TO.C,JP1*
X43217466Y-52015380D02*
X43217466Y-52729666D01*
X43169847Y-52872523D01*
X43074609Y-52967761D01*
X42931752Y-53015380D01*
X42836514Y-53015380D01*
X43693657Y-53015380D02*
X43693657Y-52015380D01*
X44074609Y-52015380D01*
X44169847Y-52063000D01*
X44217466Y-52110619D01*
X44265085Y-52205857D01*
X44265085Y-52348714D01*
X44217466Y-52443952D01*
X44169847Y-52491571D01*
X44074609Y-52539190D01*
X43693657Y-52539190D01*
X45217466Y-53015380D02*
X44646038Y-53015380D01*
X44931752Y-53015380D02*
X44931752Y-52015380D01*
X44836514Y-52158238D01*
X44741276Y-52253476D01*
X44646038Y-52301095D01*
X41380952Y-56469780D02*
X41380952Y-55469780D01*
X41952380Y-56469780D01*
X41952380Y-55469780D01*
X42380952Y-55565019D02*
X42428571Y-55517400D01*
X42523809Y-55469780D01*
X42761904Y-55469780D01*
X42857142Y-55517400D01*
X42904761Y-55565019D01*
X42952380Y-55660257D01*
X42952380Y-55755495D01*
X42904761Y-55898352D01*
X42333333Y-56469780D01*
X42952380Y-56469780D01*
X43571428Y-55469780D02*
X43666666Y-55469780D01*
X43761904Y-55517400D01*
X43809523Y-55565019D01*
X43857142Y-55660257D01*
X43904761Y-55850733D01*
X43904761Y-56088828D01*
X43857142Y-56279304D01*
X43809523Y-56374542D01*
X43761904Y-56422161D01*
X43666666Y-56469780D01*
X43571428Y-56469780D01*
X43476190Y-56422161D01*
X43428571Y-56374542D01*
X43380952Y-56279304D01*
X43333333Y-56088828D01*
X43333333Y-55850733D01*
X43380952Y-55660257D01*
X43428571Y-55565019D01*
X43476190Y-55517400D01*
X43571428Y-55469780D01*
X45095238Y-56469780D02*
X45095238Y-55469780D01*
X45333333Y-55469780D01*
X45476190Y-55517400D01*
X45571428Y-55612638D01*
X45619047Y-55707876D01*
X45666666Y-55898352D01*
X45666666Y-56041209D01*
X45619047Y-56231685D01*
X45571428Y-56326923D01*
X45476190Y-56422161D01*
X45333333Y-56469780D01*
X45095238Y-56469780D01*
X46666666Y-56374542D02*
X46619047Y-56422161D01*
X46476190Y-56469780D01*
X46380952Y-56469780D01*
X46238095Y-56422161D01*
X46142857Y-56326923D01*
X46095238Y-56231685D01*
X46047619Y-56041209D01*
X46047619Y-55898352D01*
X46095238Y-55707876D01*
X46142857Y-55612638D01*
X46238095Y-55517400D01*
X46380952Y-55469780D01*
X46476190Y-55469780D01*
X46619047Y-55517400D01*
X46666666Y-55565019D01*
X40644447Y-57651000D02*
X40549209Y-57603380D01*
X40406352Y-57603380D01*
X40263495Y-57651000D01*
X40168257Y-57746238D01*
X40120638Y-57841476D01*
X40073019Y-58031952D01*
X40073019Y-58174809D01*
X40120638Y-58365285D01*
X40168257Y-58460523D01*
X40263495Y-58555761D01*
X40406352Y-58603380D01*
X40501590Y-58603380D01*
X40644447Y-58555761D01*
X40692066Y-58508142D01*
X40692066Y-58174809D01*
X40501590Y-58174809D01*
X41501590Y-58555761D02*
X41406352Y-58603380D01*
X41215876Y-58603380D01*
X41120638Y-58555761D01*
X41073019Y-58460523D01*
X41073019Y-58079571D01*
X41120638Y-57984333D01*
X41215876Y-57936714D01*
X41406352Y-57936714D01*
X41501590Y-57984333D01*
X41549209Y-58079571D01*
X41549209Y-58174809D01*
X41073019Y-58270047D01*
X42406352Y-58603380D02*
X42406352Y-58079571D01*
X42358733Y-57984333D01*
X42263495Y-57936714D01*
X42073019Y-57936714D01*
X41977780Y-57984333D01*
X42406352Y-58555761D02*
X42311114Y-58603380D01*
X42073019Y-58603380D01*
X41977780Y-58555761D01*
X41930161Y-58460523D01*
X41930161Y-58365285D01*
X41977780Y-58270047D01*
X42073019Y-58222428D01*
X42311114Y-58222428D01*
X42406352Y-58174809D01*
X42882542Y-58603380D02*
X42882542Y-57936714D01*
X42882542Y-58127190D02*
X42930161Y-58031952D01*
X42977780Y-57984333D01*
X43073019Y-57936714D01*
X43168257Y-57936714D01*
X44263495Y-58603380D02*
X44263495Y-57603380D01*
X44596828Y-58317666D01*
X44930161Y-57603380D01*
X44930161Y-58603380D01*
X45549209Y-58603380D02*
X45453971Y-58555761D01*
X45406352Y-58508142D01*
X45358733Y-58412904D01*
X45358733Y-58127190D01*
X45406352Y-58031952D01*
X45453971Y-57984333D01*
X45549209Y-57936714D01*
X45692066Y-57936714D01*
X45787304Y-57984333D01*
X45834923Y-58031952D01*
X45882542Y-58127190D01*
X45882542Y-58412904D01*
X45834923Y-58508142D01*
X45787304Y-58555761D01*
X45692066Y-58603380D01*
X45549209Y-58603380D01*
X46168257Y-57936714D02*
X46549209Y-57936714D01*
X46311114Y-57603380D02*
X46311114Y-58460523D01*
X46358733Y-58555761D01*
X46453971Y-58603380D01*
X46549209Y-58603380D01*
X47025400Y-58603380D02*
X46930161Y-58555761D01*
X46882542Y-58508142D01*
X46834923Y-58412904D01*
X46834923Y-58127190D01*
X46882542Y-58031952D01*
X46930161Y-57984333D01*
X47025400Y-57936714D01*
X47168257Y-57936714D01*
X47263495Y-57984333D01*
X47311114Y-58031952D01*
X47358733Y-58127190D01*
X47358733Y-58412904D01*
X47311114Y-58508142D01*
X47263495Y-58555761D01*
X47168257Y-58603380D01*
X47025400Y-58603380D01*
X47787304Y-58603380D02*
X47787304Y-57936714D01*
X47787304Y-58127190D02*
X47834923Y-58031952D01*
X47882542Y-57984333D01*
X47977780Y-57936714D01*
X48073019Y-57936714D01*
G04 #@! TO.C,JP2*
X44115866Y-126889380D02*
X44115866Y-127603666D01*
X44068247Y-127746523D01*
X43973009Y-127841761D01*
X43830152Y-127889380D01*
X43734914Y-127889380D01*
X44592057Y-127889380D02*
X44592057Y-126889380D01*
X44973009Y-126889380D01*
X45068247Y-126937000D01*
X45115866Y-126984619D01*
X45163485Y-127079857D01*
X45163485Y-127222714D01*
X45115866Y-127317952D01*
X45068247Y-127365571D01*
X44973009Y-127413190D01*
X44592057Y-127413190D01*
X45544438Y-126984619D02*
X45592057Y-126937000D01*
X45687295Y-126889380D01*
X45925390Y-126889380D01*
X46020628Y-126937000D01*
X46068247Y-126984619D01*
X46115866Y-127079857D01*
X46115866Y-127175095D01*
X46068247Y-127317952D01*
X45496819Y-127889380D01*
X46115866Y-127889380D01*
X41593647Y-121349000D02*
X41498409Y-121301380D01*
X41355552Y-121301380D01*
X41212695Y-121349000D01*
X41117457Y-121444238D01*
X41069838Y-121539476D01*
X41022219Y-121729952D01*
X41022219Y-121872809D01*
X41069838Y-122063285D01*
X41117457Y-122158523D01*
X41212695Y-122253761D01*
X41355552Y-122301380D01*
X41450790Y-122301380D01*
X41593647Y-122253761D01*
X41641266Y-122206142D01*
X41641266Y-121872809D01*
X41450790Y-121872809D01*
X42450790Y-122253761D02*
X42355552Y-122301380D01*
X42165076Y-122301380D01*
X42069838Y-122253761D01*
X42022219Y-122158523D01*
X42022219Y-121777571D01*
X42069838Y-121682333D01*
X42165076Y-121634714D01*
X42355552Y-121634714D01*
X42450790Y-121682333D01*
X42498409Y-121777571D01*
X42498409Y-121872809D01*
X42022219Y-121968047D01*
X43355552Y-122301380D02*
X43355552Y-121777571D01*
X43307933Y-121682333D01*
X43212695Y-121634714D01*
X43022219Y-121634714D01*
X42926980Y-121682333D01*
X43355552Y-122253761D02*
X43260314Y-122301380D01*
X43022219Y-122301380D01*
X42926980Y-122253761D01*
X42879361Y-122158523D01*
X42879361Y-122063285D01*
X42926980Y-121968047D01*
X43022219Y-121920428D01*
X43260314Y-121920428D01*
X43355552Y-121872809D01*
X43831742Y-122301380D02*
X43831742Y-121634714D01*
X43831742Y-121825190D02*
X43879361Y-121729952D01*
X43926980Y-121682333D01*
X44022219Y-121634714D01*
X44117457Y-121634714D01*
X45212695Y-122301380D02*
X45212695Y-121301380D01*
X45546028Y-122015666D01*
X45879361Y-121301380D01*
X45879361Y-122301380D01*
X46498409Y-122301380D02*
X46403171Y-122253761D01*
X46355552Y-122206142D01*
X46307933Y-122110904D01*
X46307933Y-121825190D01*
X46355552Y-121729952D01*
X46403171Y-121682333D01*
X46498409Y-121634714D01*
X46641266Y-121634714D01*
X46736504Y-121682333D01*
X46784123Y-121729952D01*
X46831742Y-121825190D01*
X46831742Y-122110904D01*
X46784123Y-122206142D01*
X46736504Y-122253761D01*
X46641266Y-122301380D01*
X46498409Y-122301380D01*
X47117457Y-121634714D02*
X47498409Y-121634714D01*
X47260314Y-121301380D02*
X47260314Y-122158523D01*
X47307933Y-122253761D01*
X47403171Y-122301380D01*
X47498409Y-122301380D01*
X47974600Y-122301380D02*
X47879361Y-122253761D01*
X47831742Y-122206142D01*
X47784123Y-122110904D01*
X47784123Y-121825190D01*
X47831742Y-121729952D01*
X47879361Y-121682333D01*
X47974600Y-121634714D01*
X48117457Y-121634714D01*
X48212695Y-121682333D01*
X48260314Y-121729952D01*
X48307933Y-121825190D01*
X48307933Y-122110904D01*
X48260314Y-122206142D01*
X48212695Y-122253761D01*
X48117457Y-122301380D01*
X47974600Y-122301380D01*
X48736504Y-122301380D02*
X48736504Y-121634714D01*
X48736504Y-121825190D02*
X48784123Y-121729952D01*
X48831742Y-121682333D01*
X48926980Y-121634714D01*
X49022219Y-121634714D01*
X42380952Y-124434980D02*
X42380952Y-123434980D01*
X42952380Y-124434980D01*
X42952380Y-123434980D01*
X43380952Y-123530219D02*
X43428571Y-123482600D01*
X43523809Y-123434980D01*
X43761904Y-123434980D01*
X43857142Y-123482600D01*
X43904761Y-123530219D01*
X43952380Y-123625457D01*
X43952380Y-123720695D01*
X43904761Y-123863552D01*
X43333333Y-124434980D01*
X43952380Y-124434980D01*
X44571428Y-123434980D02*
X44666666Y-123434980D01*
X44761904Y-123482600D01*
X44809523Y-123530219D01*
X44857142Y-123625457D01*
X44904761Y-123815933D01*
X44904761Y-124054028D01*
X44857142Y-124244504D01*
X44809523Y-124339742D01*
X44761904Y-124387361D01*
X44666666Y-124434980D01*
X44571428Y-124434980D01*
X44476190Y-124387361D01*
X44428571Y-124339742D01*
X44380952Y-124244504D01*
X44333333Y-124054028D01*
X44333333Y-123815933D01*
X44380952Y-123625457D01*
X44428571Y-123530219D01*
X44476190Y-123482600D01*
X44571428Y-123434980D01*
X46095238Y-124434980D02*
X46095238Y-123434980D01*
X46333333Y-123434980D01*
X46476190Y-123482600D01*
X46571428Y-123577838D01*
X46619047Y-123673076D01*
X46666666Y-123863552D01*
X46666666Y-124006409D01*
X46619047Y-124196885D01*
X46571428Y-124292123D01*
X46476190Y-124387361D01*
X46333333Y-124434980D01*
X46095238Y-124434980D01*
X47666666Y-124339742D02*
X47619047Y-124387361D01*
X47476190Y-124434980D01*
X47380952Y-124434980D01*
X47238095Y-124387361D01*
X47142857Y-124292123D01*
X47095238Y-124196885D01*
X47047619Y-124006409D01*
X47047619Y-123863552D01*
X47095238Y-123673076D01*
X47142857Y-123577838D01*
X47238095Y-123482600D01*
X47380952Y-123434980D01*
X47476190Y-123434980D01*
X47619047Y-123482600D01*
X47666666Y-123530219D01*
G04 #@! TO.C,M1*
X65190476Y-73122380D02*
X65190476Y-72122380D01*
X65523809Y-72836666D01*
X65857142Y-72122380D01*
X65857142Y-73122380D01*
X66857142Y-73122380D02*
X66285714Y-73122380D01*
X66571428Y-73122380D02*
X66571428Y-72122380D01*
X66476190Y-72265238D01*
X66380952Y-72360476D01*
X66285714Y-72408095D01*
G04 #@! TO.C,M2*
X65190476Y-107782380D02*
X65190476Y-106782380D01*
X65523809Y-107496666D01*
X65857142Y-106782380D01*
X65857142Y-107782380D01*
X66285714Y-106877619D02*
X66333333Y-106830000D01*
X66428571Y-106782380D01*
X66666666Y-106782380D01*
X66761904Y-106830000D01*
X66809523Y-106877619D01*
X66857142Y-106972857D01*
X66857142Y-107068095D01*
X66809523Y-107210952D01*
X66238095Y-107782380D01*
X66857142Y-107782380D01*
G04 #@! TO.C,U1*
X95357142Y-89452380D02*
X95928571Y-89452380D01*
X95642857Y-90452380D02*
X95642857Y-89452380D01*
X96595238Y-89928571D02*
X96738095Y-89976190D01*
X96785714Y-90023809D01*
X96833333Y-90119047D01*
X96833333Y-90261904D01*
X96785714Y-90357142D01*
X96738095Y-90404761D01*
X96642857Y-90452380D01*
X96261904Y-90452380D01*
X96261904Y-89452380D01*
X96595238Y-89452380D01*
X96690476Y-89500000D01*
X96738095Y-89547619D01*
X96785714Y-89642857D01*
X96785714Y-89738095D01*
X96738095Y-89833333D01*
X96690476Y-89880952D01*
X96595238Y-89928571D01*
X96261904Y-89928571D01*
X97690476Y-89452380D02*
X97500000Y-89452380D01*
X97404761Y-89500000D01*
X97357142Y-89547619D01*
X97261904Y-89690476D01*
X97214285Y-89880952D01*
X97214285Y-90261904D01*
X97261904Y-90357142D01*
X97309523Y-90404761D01*
X97404761Y-90452380D01*
X97595238Y-90452380D01*
X97690476Y-90404761D01*
X97738095Y-90357142D01*
X97785714Y-90261904D01*
X97785714Y-90023809D01*
X97738095Y-89928571D01*
X97690476Y-89880952D01*
X97595238Y-89833333D01*
X97404761Y-89833333D01*
X97309523Y-89880952D01*
X97261904Y-89928571D01*
X97214285Y-90023809D01*
X98642857Y-89452380D02*
X98452380Y-89452380D01*
X98357142Y-89500000D01*
X98309523Y-89547619D01*
X98214285Y-89690476D01*
X98166666Y-89880952D01*
X98166666Y-90261904D01*
X98214285Y-90357142D01*
X98261904Y-90404761D01*
X98357142Y-90452380D01*
X98547619Y-90452380D01*
X98642857Y-90404761D01*
X98690476Y-90357142D01*
X98738095Y-90261904D01*
X98738095Y-90023809D01*
X98690476Y-89928571D01*
X98642857Y-89880952D01*
X98547619Y-89833333D01*
X98357142Y-89833333D01*
X98261904Y-89880952D01*
X98214285Y-89928571D01*
X98166666Y-90023809D01*
X99690476Y-90452380D02*
X99119047Y-90452380D01*
X99404761Y-90452380D02*
X99404761Y-89452380D01*
X99309523Y-89595238D01*
X99214285Y-89690476D01*
X99119047Y-89738095D01*
X100071428Y-89547619D02*
X100119047Y-89500000D01*
X100214285Y-89452380D01*
X100452380Y-89452380D01*
X100547619Y-89500000D01*
X100595238Y-89547619D01*
X100642857Y-89642857D01*
X100642857Y-89738095D01*
X100595238Y-89880952D01*
X100023809Y-90452380D01*
X100642857Y-90452380D01*
X101404761Y-89928571D02*
X101071428Y-89928571D01*
X101071428Y-90452380D02*
X101071428Y-89452380D01*
X101547619Y-89452380D01*
X101928571Y-90452380D02*
X101928571Y-89452380D01*
X102500000Y-90452380D01*
X102500000Y-89452380D01*
X103500000Y-89500000D02*
X103404761Y-89452380D01*
X103261904Y-89452380D01*
X103119047Y-89500000D01*
X103023809Y-89595238D01*
X102976190Y-89690476D01*
X102928571Y-89880952D01*
X102928571Y-90023809D01*
X102976190Y-90214285D01*
X103023809Y-90309523D01*
X103119047Y-90404761D01*
X103261904Y-90452380D01*
X103357142Y-90452380D01*
X103500000Y-90404761D01*
X103547619Y-90357142D01*
X103547619Y-90023809D01*
X103357142Y-90023809D01*
G04 #@! TO.C,A1*
X76785714Y-114296666D02*
X77261904Y-114296666D01*
X76690476Y-114582380D02*
X77023809Y-113582380D01*
X77357142Y-114582380D01*
X78214285Y-114582380D02*
X77642857Y-114582380D01*
X77928571Y-114582380D02*
X77928571Y-113582380D01*
X77833333Y-113725238D01*
X77738095Y-113820476D01*
X77642857Y-113868095D01*
G04 #@! TD*
M02*
