G04 #@! TF.GenerationSoftware,KiCad,Pcbnew,(5.0.1)-3*
G04 #@! TF.CreationDate,2018-12-17T15:05:50+08:00*
G04 #@! TF.ProjectId,Micromouse_V01,4D6963726F6D6F7573655F5630312E6B,rev?*
G04 #@! TF.SameCoordinates,Original*
G04 #@! TF.FileFunction,Copper,L2,Bot,Signal*
G04 #@! TF.FilePolarity,Positive*
%FSLAX46Y46*%
G04 Gerber Fmt 4.6, Leading zero omitted, Abs format (unit mm)*
G04 Created by KiCad (PCBNEW (5.0.1)-3) date 12/17/2018 3:05:50 PM*
%MOMM*%
%LPD*%
G01*
G04 APERTURE LIST*
G04 #@! TA.AperFunction,ComponentPad*
%ADD10C,1.800000*%
G04 #@! TD*
G04 #@! TA.AperFunction,ComponentPad*
%ADD11R,1.800000X1.800000*%
G04 #@! TD*
G04 #@! TA.AperFunction,Conductor*
%ADD12C,0.100000*%
G04 #@! TD*
G04 #@! TA.AperFunction,ComponentPad*
%ADD13O,1.600000X1.600000*%
G04 #@! TD*
G04 #@! TA.AperFunction,ComponentPad*
%ADD14C,1.600000*%
G04 #@! TD*
G04 #@! TA.AperFunction,ComponentPad*
%ADD15R,1.700000X1.700000*%
G04 #@! TD*
G04 #@! TA.AperFunction,ComponentPad*
%ADD16O,1.700000X1.700000*%
G04 #@! TD*
G04 #@! TA.AperFunction,ComponentPad*
%ADD17O,1.800000X1.800000*%
G04 #@! TD*
G04 #@! TA.AperFunction,ComponentPad*
%ADD18R,1.600000X1.600000*%
G04 #@! TD*
G04 #@! TA.AperFunction,ComponentPad*
%ADD19O,3.500000X2.200000*%
G04 #@! TD*
G04 #@! TA.AperFunction,ComponentPad*
%ADD20O,3.000000X2.000000*%
G04 #@! TD*
G04 #@! TA.AperFunction,ComponentPad*
%ADD21R,3.000000X2.000000*%
G04 #@! TD*
G04 APERTURE END LIST*
D10*
G04 #@! TO.P,D1,2*
G04 #@! TO.N,GND*
X84000000Y-48760000D03*
D11*
G04 #@! TO.P,D1,1*
G04 #@! TO.N,/A1*
X84000000Y-51300000D03*
G04 #@! TD*
G04 #@! TO.P,D2,1*
G04 #@! TO.N,GND*
X115000000Y-86000000D03*
D10*
G04 #@! TO.P,D2,2*
G04 #@! TO.N,Net-(D2-Pad2)*
X112460000Y-86000000D03*
G04 #@! TD*
G04 #@! TO.P,D3,1*
G04 #@! TO.N,/A2*
X95300000Y-76400000D03*
D12*
G04 #@! TD*
G04 #@! TO.N,/A2*
G04 #@! TO.C,D3*
G36*
X96572792Y-76400000D02*
X95300000Y-77672792D01*
X94027208Y-76400000D01*
X95300000Y-75127208D01*
X96572792Y-76400000D01*
X96572792Y-76400000D01*
G37*
D10*
G04 #@! TO.P,D3,2*
G04 #@! TO.N,GND*
X93503949Y-74603949D03*
G04 #@! TD*
G04 #@! TO.P,D4,2*
G04 #@! TO.N,Net-(D4-Pad2)*
X114540000Y-94100000D03*
D11*
G04 #@! TO.P,D4,1*
G04 #@! TO.N,GND*
X112000000Y-94100000D03*
G04 #@! TD*
D10*
G04 #@! TO.P,D5,2*
G04 #@! TO.N,GND*
X118660000Y-86000000D03*
D11*
G04 #@! TO.P,D5,1*
G04 #@! TO.N,/A3*
X121200000Y-86000000D03*
G04 #@! TD*
D10*
G04 #@! TO.P,D6,1*
G04 #@! TO.N,GND*
X89175000Y-110075000D03*
D12*
G04 #@! TD*
G04 #@! TO.N,GND*
G04 #@! TO.C,D6*
G36*
X89175000Y-111347792D02*
X87902208Y-110075000D01*
X89175000Y-108802208D01*
X90447792Y-110075000D01*
X89175000Y-111347792D01*
X89175000Y-111347792D01*
G37*
D10*
G04 #@! TO.P,D6,2*
G04 #@! TO.N,Net-(D6-Pad2)*
X90971051Y-108278949D03*
G04 #@! TD*
D11*
G04 #@! TO.P,D7,1*
G04 #@! TO.N,/A4*
X118650000Y-94100000D03*
D10*
G04 #@! TO.P,D7,2*
G04 #@! TO.N,GND*
X121190000Y-94100000D03*
G04 #@! TD*
G04 #@! TO.P,D9,2*
G04 #@! TO.N,GND*
X95546051Y-103703949D03*
G04 #@! TO.P,D9,1*
G04 #@! TO.N,/A5*
X93750000Y-105500000D03*
D12*
G04 #@! TD*
G04 #@! TO.N,/A5*
G04 #@! TO.C,D9*
G36*
X93750000Y-106772792D02*
X92477208Y-105500000D01*
X93750000Y-104227208D01*
X95022792Y-105500000D01*
X93750000Y-106772792D01*
X93750000Y-106772792D01*
G37*
D11*
G04 #@! TO.P,D10,1*
G04 #@! TO.N,GND*
X84000000Y-125000000D03*
D10*
G04 #@! TO.P,D10,2*
G04 #@! TO.N,Net-(D10-Pad2)*
X84000000Y-122460000D03*
G04 #@! TD*
D11*
G04 #@! TO.P,D11,1*
G04 #@! TO.N,/A6*
X84050000Y-131300000D03*
D10*
G04 #@! TO.P,D11,2*
G04 #@! TO.N,GND*
X84050000Y-128760000D03*
G04 #@! TD*
G04 #@! TO.P,D12,1*
G04 #@! TO.N,GND*
X90725000Y-71825000D03*
D12*
G04 #@! TD*
G04 #@! TO.N,GND*
G04 #@! TO.C,D12*
G36*
X91997792Y-71825000D02*
X90725000Y-73097792D01*
X89452208Y-71825000D01*
X90725000Y-70552208D01*
X91997792Y-71825000D01*
X91997792Y-71825000D01*
G37*
D10*
G04 #@! TO.P,D12,2*
G04 #@! TO.N,Net-(D12-Pad2)*
X88928949Y-70028949D03*
G04 #@! TD*
G04 #@! TO.P,D13,2*
G04 #@! TO.N,Net-(D13-Pad2)*
X84000000Y-55460000D03*
D11*
G04 #@! TO.P,D13,1*
G04 #@! TO.N,GND*
X84000000Y-58000000D03*
G04 #@! TD*
D13*
G04 #@! TO.P,R1,2*
G04 #@! TO.N,/A1*
X82580000Y-73000000D03*
D14*
G04 #@! TO.P,R1,1*
G04 #@! TO.N,+5V*
X72420000Y-73000000D03*
G04 #@! TD*
D13*
G04 #@! TO.P,R2,2*
G04 #@! TO.N,+5V*
X72420000Y-85000000D03*
D14*
G04 #@! TO.P,R2,1*
G04 #@! TO.N,Net-(D2-Pad2)*
X82580000Y-85000000D03*
G04 #@! TD*
G04 #@! TO.P,R3,1*
G04 #@! TO.N,+5V*
X72420000Y-82000000D03*
D13*
G04 #@! TO.P,R3,2*
G04 #@! TO.N,/A2*
X82580000Y-82000000D03*
G04 #@! TD*
D14*
G04 #@! TO.P,R4,1*
G04 #@! TO.N,Net-(D4-Pad2)*
X82580000Y-95000000D03*
D13*
G04 #@! TO.P,R4,2*
G04 #@! TO.N,+5V*
X72420000Y-95000000D03*
G04 #@! TD*
D14*
G04 #@! TO.P,R5,1*
G04 #@! TO.N,+5V*
X72420000Y-88000000D03*
D13*
G04 #@! TO.P,R5,2*
G04 #@! TO.N,/A3*
X82580000Y-88000000D03*
G04 #@! TD*
G04 #@! TO.P,R6,2*
G04 #@! TO.N,+5V*
X72420000Y-101000000D03*
D14*
G04 #@! TO.P,R6,1*
G04 #@! TO.N,Net-(D6-Pad2)*
X82580000Y-101000000D03*
G04 #@! TD*
D13*
G04 #@! TO.P,R7,2*
G04 #@! TO.N,/A4*
X82580000Y-92000000D03*
D14*
G04 #@! TO.P,R7,1*
G04 #@! TO.N,+5V*
X72420000Y-92000000D03*
G04 #@! TD*
G04 #@! TO.P,R9,1*
G04 #@! TO.N,+5V*
X72420000Y-98000000D03*
D13*
G04 #@! TO.P,R9,2*
G04 #@! TO.N,/A5*
X82580000Y-98000000D03*
G04 #@! TD*
G04 #@! TO.P,R10,2*
G04 #@! TO.N,+5V*
X72420000Y-104000000D03*
D14*
G04 #@! TO.P,R10,1*
G04 #@! TO.N,Net-(D10-Pad2)*
X82580000Y-104000000D03*
G04 #@! TD*
D13*
G04 #@! TO.P,R11,2*
G04 #@! TO.N,/A6*
X82580000Y-107000000D03*
D14*
G04 #@! TO.P,R11,1*
G04 #@! TO.N,+5V*
X72420000Y-107000000D03*
G04 #@! TD*
G04 #@! TO.P,R12,1*
G04 #@! TO.N,Net-(D12-Pad2)*
X82580000Y-79000000D03*
D13*
G04 #@! TO.P,R12,2*
G04 #@! TO.N,+5V*
X72420000Y-79000000D03*
G04 #@! TD*
D14*
G04 #@! TO.P,R13,1*
G04 #@! TO.N,Net-(D13-Pad2)*
X82580000Y-76000000D03*
D13*
G04 #@! TO.P,R13,2*
G04 #@! TO.N,+5V*
X72420000Y-76000000D03*
G04 #@! TD*
D15*
G04 #@! TO.P,BT1,1*
G04 #@! TO.N,Net-(BT1-Pad1)*
X66000000Y-89000000D03*
D16*
G04 #@! TO.P,BT1,2*
G04 #@! TO.N,GND*
X66000000Y-91540000D03*
G04 #@! TD*
D15*
G04 #@! TO.P,M1,1*
G04 #@! TO.N,N/C*
X66000000Y-75000000D03*
D16*
G04 #@! TO.P,M1,2*
X66000000Y-77540000D03*
G04 #@! TD*
G04 #@! TO.P,M2,2*
G04 #@! TO.N,N/C*
X66000000Y-102460000D03*
D15*
G04 #@! TO.P,M2,1*
X66000000Y-105000000D03*
G04 #@! TD*
D17*
G04 #@! TO.P,U1,17*
G04 #@! TO.N,N/C*
X91880000Y-88730000D03*
G04 #@! TO.P,U1,16*
X91880000Y-86190000D03*
G04 #@! TO.P,U1,15*
X91880000Y-83650000D03*
G04 #@! TO.P,U1,9*
X91880000Y-81110000D03*
G04 #@! TO.P,U1,22*
X91880000Y-96350000D03*
G04 #@! TO.P,U1,19*
X91880000Y-91270000D03*
G04 #@! TO.P,U1,21*
X91880000Y-93810000D03*
G04 #@! TO.P,U1,23*
X91880000Y-98890000D03*
G04 #@! TO.P,U1,7*
X107120000Y-86190000D03*
G04 #@! TO.P,U1,4*
X107120000Y-81110000D03*
G04 #@! TO.P,U1,11*
X107120000Y-83650000D03*
G04 #@! TO.P,U1,5*
X107120000Y-88730000D03*
G04 #@! TO.P,U1,14*
X107120000Y-98890000D03*
G04 #@! TO.P,U1,18*
X107120000Y-93810000D03*
G04 #@! TO.P,U1,20*
X107120000Y-96350000D03*
G04 #@! TO.P,U1,1*
X107120000Y-91270000D03*
G04 #@! TD*
D13*
G04 #@! TO.P,A1,16*
G04 #@! TO.N,N/C*
X69880000Y-73490000D03*
G04 #@! TO.P,A1,15*
X85120000Y-73490000D03*
G04 #@! TO.P,A1,30*
G04 #@! TO.N,/VCC*
X69880000Y-109050000D03*
G04 #@! TO.P,A1,14*
G04 #@! TO.N,N/C*
X85120000Y-76030000D03*
G04 #@! TO.P,A1,29*
G04 #@! TO.N,GND*
X69880000Y-106510000D03*
G04 #@! TO.P,A1,13*
G04 #@! TO.N,N/C*
X85120000Y-78570000D03*
G04 #@! TO.P,A1,28*
X69880000Y-103970000D03*
G04 #@! TO.P,A1,12*
X85120000Y-81110000D03*
G04 #@! TO.P,A1,27*
G04 #@! TO.N,+5V*
X69880000Y-101430000D03*
G04 #@! TO.P,A1,11*
G04 #@! TO.N,N/C*
X85120000Y-83650000D03*
G04 #@! TO.P,A1,26*
X69880000Y-98890000D03*
G04 #@! TO.P,A1,10*
X85120000Y-86190000D03*
G04 #@! TO.P,A1,25*
X69880000Y-96350000D03*
G04 #@! TO.P,A1,9*
X85120000Y-88730000D03*
G04 #@! TO.P,A1,24*
G04 #@! TO.N,/A5*
X69880000Y-93810000D03*
G04 #@! TO.P,A1,8*
G04 #@! TO.N,N/C*
X85120000Y-91270000D03*
G04 #@! TO.P,A1,23*
G04 #@! TO.N,/A4*
X69880000Y-91270000D03*
G04 #@! TO.P,A1,7*
G04 #@! TO.N,N/C*
X85120000Y-93810000D03*
G04 #@! TO.P,A1,22*
G04 #@! TO.N,/A3*
X69880000Y-88730000D03*
G04 #@! TO.P,A1,6*
G04 #@! TO.N,N/C*
X85120000Y-96350000D03*
G04 #@! TO.P,A1,21*
G04 #@! TO.N,/A2*
X69880000Y-86190000D03*
G04 #@! TO.P,A1,5*
G04 #@! TO.N,N/C*
X85120000Y-98890000D03*
G04 #@! TO.P,A1,20*
G04 #@! TO.N,/A1*
X69880000Y-83650000D03*
G04 #@! TO.P,A1,4*
G04 #@! TO.N,GND*
X85120000Y-101430000D03*
G04 #@! TO.P,A1,19*
G04 #@! TO.N,N/C*
X69880000Y-81110000D03*
G04 #@! TO.P,A1,3*
X85120000Y-103970000D03*
G04 #@! TO.P,A1,18*
X69880000Y-78570000D03*
G04 #@! TO.P,A1,2*
X85120000Y-106510000D03*
G04 #@! TO.P,A1,17*
X69880000Y-76030000D03*
D18*
G04 #@! TO.P,A1,1*
X85120000Y-109050000D03*
G04 #@! TD*
D10*
G04 #@! TO.P,D14,1*
G04 #@! TO.N,N/C*
X104000000Y-76000000D03*
D12*
G04 #@! TD*
G04 #@! TO.N,N/C*
G04 #@! TO.C,D14*
G36*
X104000000Y-77272792D02*
X102727208Y-76000000D01*
X104000000Y-74727208D01*
X105272792Y-76000000D01*
X104000000Y-77272792D01*
X104000000Y-77272792D01*
G37*
D10*
G04 #@! TO.P,D14,2*
G04 #@! TO.N,N/C*
X105796051Y-74203949D03*
G04 #@! TD*
G04 #@! TO.P,D15,2*
G04 #@! TO.N,N/C*
X105796051Y-105796051D03*
G04 #@! TO.P,D15,1*
X104000000Y-104000000D03*
D12*
G04 #@! TD*
G04 #@! TO.N,N/C*
G04 #@! TO.C,D15*
G36*
X102727208Y-104000000D02*
X104000000Y-102727208D01*
X105272792Y-104000000D01*
X104000000Y-105272792D01*
X102727208Y-104000000D01*
X102727208Y-104000000D01*
G37*
D19*
G04 #@! TO.P,J1,*
G04 #@! TO.N,*
X32222500Y-96500000D03*
X32222500Y-83500000D03*
D20*
G04 #@! TO.P,J1,3*
G04 #@! TO.N,N/C*
X32222500Y-93200000D03*
G04 #@! TO.P,J1,2*
G04 #@! TO.N,/VCC*
X32222500Y-90000000D03*
D21*
G04 #@! TO.P,J1,1*
G04 #@! TO.N,Net-(BT1-Pad1)*
X32222500Y-86800000D03*
G04 #@! TD*
M02*
